<!-- Copyright © 2000–2024 JetBrains s.r.o. -->
<svg width="24" height="24" viewBox="0 0 24 24" xmlns="http://www.w3.org/2000/svg">
  <path fill="#6B57FF" d="M21.75 6.169V1.57c0-.862-.709-1.56-1.571-1.545l-4.14.064a1.56 1.56 0 0 0-1.152.54L2.621 14.94a1.55 1.55 0 0 0-.371 1.009V20.2c0 .855.694 1.549 1.545 1.549h4.129c.446 0 .87-.191 1.162-.529L21.368 7.19c.247-.285.382-.645.382-1.02"/>
  <path fill="url(#a)" d="M21.75 5.621V1.545C21.75.694 21.056 0 20.205 0h-4.714c-.075 0-.15 0-.225.015L1.324 2.059A1.55 1.55 0 0 0 0 3.589v5.775a1.55 1.55 0 0 0 1.549 1.548h6.937q.244-.006.469-.075l11.719-3.742a1.55 1.55 0 0 0 1.076-1.474"/>
  <path fill="url(#b)" d="M24 22.451V9.656c0-.622-.371-1.185-.945-1.425L9.023 2.306a1.5 1.5 0 0 0-.615-.12l-6.874.057A1.54 1.54 0 0 0 0 3.788v6.626c0 .3.09.596.255.847l7.916 12.042c.285.434.769.697 1.29.697h12.994c.851 0 1.545-.694 1.545-1.549"/>
  <path d="M19.5 21.75v-15L15 2.25H4.5v19.5z"/>
  <path fill="#fff" d="m12 7.905 3 .6v4.275c-.154 1.286-1.594 2.381-3 3.158-1.406-.773-2.846-1.868-3-3.158V8.505zm0-1.53-4.5.9v5.58q.236 2.677 4.5 4.77 4.258-2.093 4.5-4.77v-5.58z"/>
  <defs>
    <linearGradient id="a" x1="21.124" x2="1.076" y1="-.146" y2="9.146" gradientUnits="userSpaceOnUse">
      <stop offset=".18" stop-color="#6B57FF"/>
      <stop offset=".54" stop-color="#FF45ED"/>
    </linearGradient>
    <linearGradient id="b" x1="1.526" x2="23.497" y1="1.62" y2="23.595" gradientUnits="userSpaceOnUse">
      <stop offset=".12" stop-color="#FF45ED"/>
      <stop offset=".92" stop-color="#FC801D"/>
    </linearGradient>
  </defs>
</svg>
