<!-- Copyright © 2000–2024 JetBrains s.r.o. -->
<svg width="128" height="128" viewBox="0 0 128 128" xmlns="http://www.w3.org/2000/svg">
  <path fill="#6B57FF" d="M116 32.9V8.38c0-4.6-3.78-8.32-8.38-8.24L85.54.48c-2.38.04-4.6 1.1-6.14 2.88L13.98 79.68A8.27 8.27 0 0 0 12 85.06v22.68c0 4.56 3.7 8.26 8.24 8.26h22.02c2.38 0 4.64-1.02 6.2-2.82l65.5-74.84A8.28 8.28 0 0 0 116 32.9"/>
  <path fill="url(#a)" d="M116 29.98V8.24C116 3.7 112.3 0 107.76 0H82.62c-.4 0-.8 0-1.2.08L7.06 10.98C3 11.58 0 15.06 0 19.14v30.8c0 4.56 3.7 8.26 8.26 8.26h37c.86-.02 1.7-.16 2.5-.4l62.5-19.96a8.27 8.27 0 0 0 5.74-7.86"/>
  <path fill="url(#b)" d="M128 119.74V51.5c0-3.32-1.98-6.32-5.04-7.6L48.12 12.3a8.1 8.1 0 0 0-3.28-.64l-36.66.3C3.66 11.96 0 15.66 0 20.2v35.34c0 1.6.48 3.18 1.36 4.52l42.22 64.22a8.22 8.22 0 0 0 6.88 3.72h69.3c4.54 0 8.24-3.7 8.24-8.26"/>
  <path d="M104 116V36L80 12H24v104z"/>
  <path fill="#fff" d="m64 42.16 16 3.2v22.8c-.82 6.86-8.5 12.7-16 16.84-7.5-4.12-15.18-9.96-16-16.84v-22.8zM64 34l-24 4.8v29.76Q41.26 82.84 64 94q22.71-11.16 24-25.44V38.8z"/>
  <defs>
    <linearGradient id="a" x1="112.66" x2="5.74" y1="-.78" y2="48.78" gradientUnits="userSpaceOnUse">
      <stop offset=".18" stop-color="#6B57FF"/>
      <stop offset=".54" stop-color="#FF45ED"/>
    </linearGradient>
    <linearGradient id="b" x1="8.14" x2="125.32" y1="8.64" y2="125.84" gradientUnits="userSpaceOnUse">
      <stop offset=".12" stop-color="#FF45ED"/>
      <stop offset=".92" stop-color="#FC801D"/>
    </linearGradient>
  </defs>
</svg>
