<!-- Copyright © 2000–2024 JetBrains s.r.o. -->
<svg width="48" height="48" viewBox="0 0 48 48" xmlns="http://www.w3.org/2000/svg">
  <path fill="#6B57FF" d="M43.5 12.338V3.142a3.09 3.09 0 0 0-3.142-3.09l-8.28.128a3.1 3.1 0 0 0-2.303 1.08L5.243 29.88a3.1 3.1 0 0 0-.743 2.018v8.505A3.097 3.097 0 0 0 7.59 43.5h8.258a3.07 3.07 0 0 0 2.324-1.057l24.563-28.065c.495-.57.765-1.29.765-2.04"/>
  <path fill="url(#a)" d="M43.5 11.243V3.09A3.095 3.095 0 0 0 40.41 0h-9.427c-.15 0-.3 0-.45.03L2.647 4.117A3.1 3.1 0 0 0 0 7.178v11.55a3.1 3.1 0 0 0 3.098 3.098h13.875a3.6 3.6 0 0 0 .937-.15l23.437-7.485a3.1 3.1 0 0 0 2.153-2.947"/>
  <path fill="url(#b)" d="M48 44.903v-25.59c0-1.245-.742-2.37-1.89-2.85L18.045 4.612a3 3 0 0 0-1.23-.24l-13.748.112C1.372 4.485 0 5.873 0 7.575v13.253c0 .6.18 1.192.51 1.695l15.833 24.082A3.08 3.08 0 0 0 18.923 48H44.91A3.097 3.097 0 0 0 48 44.903"/>
  <path d="M39 43.5v-30l-9-9H9v39z"/>
  <path fill="#fff" d="m24 15.81 6 1.2v8.55c-.308 2.573-3.187 4.763-6 6.315-2.812-1.545-5.692-3.735-6-6.315v-8.55zm0-3.06-9 1.8v11.16q.473 5.355 9 9.54 8.516-4.185 9-9.54V14.55z"/>
  <defs>
    <linearGradient id="a" x1="42.248" x2="2.152" y1="-.292" y2="18.293" gradientUnits="userSpaceOnUse">
      <stop offset=".18" stop-color="#6B57FF"/>
      <stop offset=".54" stop-color="#FF45ED"/>
    </linearGradient>
    <linearGradient id="b" x1="3.053" x2="46.995" y1="3.24" y2="47.19" gradientUnits="userSpaceOnUse">
      <stop offset=".12" stop-color="#FF45ED"/>
      <stop offset=".92" stop-color="#FC801D"/>
    </linearGradient>
  </defs>
</svg>
