<!-- Copyright © 2000–2024 JetBrains s.r.o. -->
<svg width="64" height="64" viewBox="0 0 64 64" xmlns="http://www.w3.org/2000/svg">
  <path fill="#6B57FF" d="M58 16.45V4.19c0-2.3-1.89-4.16-4.19-4.12L42.77.24c-1.19.02-2.3.55-3.07 1.44L6.99 39.84c-.64.75-.99 1.7-.99 2.69v11.34A4.13 4.13 0 0 0 10.12 58h11.01c1.19 0 2.32-.51 3.1-1.41l32.75-37.42c.66-.76 1.02-1.72 1.02-2.72"/>
  <path fill="url(#a)" d="M58 14.99V4.12C58 1.85 56.15 0 53.88 0H41.31c-.2 0-.4 0-.6.04L3.53 5.49A4.13 4.13 0 0 0 0 9.57v15.4c0 2.28 1.85 4.13 4.13 4.13h18.5c.43-.01.85-.08 1.25-.2l31.25-9.98A4.13 4.13 0 0 0 58 14.99"/>
  <path fill="url(#b)" d="M64 59.87V25.75c0-1.66-.99-3.16-2.52-3.8L24.06 6.15c-.52-.22-1.08-.33-1.64-.32l-18.33.15C1.83 5.98 0 7.83 0 10.1v17.67c0 .8.24 1.59.68 2.26l21.11 32.11A4.11 4.11 0 0 0 25.23 64h34.65A4.13 4.13 0 0 0 64 59.87"/>
  <path d="M52 58V18L40 6H12v52z"/>
  <path fill="#fff" d="m32 21.08 8 1.6v11.4c-.41 3.43-4.25 6.35-8 8.42-3.75-2.06-7.59-4.98-8-8.42v-11.4zM32 17l-12 2.4v14.88q.63 7.14 12 12.72 11.355-5.58 12-12.72V19.4z"/>
  <defs>
    <linearGradient id="a" x1="56.33" x2="2.87" y1="-.39" y2="24.39" gradientUnits="userSpaceOnUse">
      <stop offset=".18" stop-color="#6B57FF"/>
      <stop offset=".54" stop-color="#FF45ED"/>
    </linearGradient>
    <linearGradient id="b" x1="4.07" x2="62.66" y1="4.32" y2="62.92" gradientUnits="userSpaceOnUse">
      <stop offset=".12" stop-color="#FF45ED"/>
      <stop offset=".92" stop-color="#FC801D"/>
    </linearGradient>
  </defs>
</svg>
