<!-- Copyright © 2000–2024 JetBrains s.r.o. -->
<svg width="32" height="32" viewBox="0 0 32 32" xmlns="http://www.w3.org/2000/svg">
  <path fill="#6B57FF" d="M29 8.225v-6.13c0-1.15-.945-2.08-2.095-2.06l-5.52.085c-.595.01-1.15.275-1.535.72L3.495 19.92c-.32.375-.495.85-.495 1.345v5.67C3 28.075 3.925 29 5.06 29h5.505c.595 0 1.16-.255 1.55-.705L28.49 9.585c.33-.38.51-.86.51-1.36"/>
  <path fill="url(#a)" d="M29 7.495V2.06C29 .925 28.075 0 26.94 0h-6.285c-.1 0-.2 0-.3.02L1.765 2.745A2.065 2.065 0 0 0 0 4.785v7.7c0 1.14.925 2.065 2.065 2.065h9.25q.324-.009.625-.1l15.625-4.99A2.07 2.07 0 0 0 29 7.495"/>
  <path fill="url(#b)" d="M32 29.935v-17.06c0-.83-.495-1.58-1.26-1.9l-18.71-7.9c-.26-.11-.54-.165-.82-.16l-9.165.075C.915 2.99 0 3.915 0 5.05v8.835c0 .4.12.795.34 1.13L10.895 31.07c.38.58 1.025.93 1.72.93H29.94c1.135 0 2.06-.925 2.06-2.065"/>
  <path d="M26 29V9l-6-6H6v26z"/>
  <path fill="#fff" d="m16 10.54 4 .8v5.7c-.205 1.715-2.125 3.175-4 4.21-1.875-1.03-3.795-2.49-4-4.21v-5.7zm0-2.04-6 1.2v7.44q.315 3.57 6 6.36 5.678-2.79 6-6.36V9.7z"/>
  <defs>
    <linearGradient id="a" x1="28.165" x2="1.435" y1="-.195" y2="12.195" gradientUnits="userSpaceOnUse">
      <stop offset=".18" stop-color="#6B57FF"/>
      <stop offset=".54" stop-color="#FF45ED"/>
    </linearGradient>
    <linearGradient id="b" x1="2.035" x2="31.33" y1="2.16" y2="31.46" gradientUnits="userSpaceOnUse">
      <stop offset=".12" stop-color="#FF45ED"/>
      <stop offset=".92" stop-color="#FC801D"/>
    </linearGradient>
  </defs>
</svg>
