<svg width="512" height="512" viewBox="0 0 512 512" fill="none" xmlns="http://www.w3.org/2000/svg">
<g filter="url(#filter0_d_4372_12087)">
<path d="M462 199.818H162.364V462H366C419.019 462 462 419.019 462 366V199.818Z" fill="#00D886"/>
<path d="M274.727 50H146C92.9807 50 50 92.9807 50 146V349.636H274.727V50Z" fill="url(#paint0_linear_4372_12087)"/>
<path d="M462 199.818V146C462 92.9807 419.019 50 366 50H274.727L50 349.636V366C50 419.019 92.9807 462 146 462H162.364L462 199.818Z" fill="#F0EB18"/>
<path d="M388 124H124V388H388V124Z" fill="black"/>
<path d="M159.87 160.02H197.179C206.464 160.02 214.77 162.12 222.098 166.32C229.47 170.52 235.234 176.381 239.389 183.821C243.54 191.257 245.618 199.657 245.618 209.021C245.618 218.385 243.54 226.785 239.389 234.308C235.234 241.744 229.47 247.519 222.098 251.719C214.77 255.919 206.464 258.019 197.179 258.019H159.87V160.02ZM196.969 241.485C202.804 241.485 207.912 240.173 212.299 237.548C216.687 235.009 220.069 231.248 222.45 226.346C224.832 221.445 226.02 215.67 226.02 209.021C226.02 202.372 224.832 196.597 222.45 191.696C220.069 186.795 216.687 183.034 212.299 180.495C207.912 177.87 202.8 176.557 196.969 176.557H178.98V241.481H196.969V241.485ZM291.496 259.684C284.404 259.684 278.104 258.458 272.596 255.833C267.136 253.298 262.842 249.709 259.714 245.07C256.635 240.431 255.049 235.095 254.955 229.144H274.137C274.137 231.945 274.883 234.48 276.376 236.58C277.868 238.766 279.946 240.431 282.604 241.654C285.263 242.88 288.323 243.491 291.773 243.491C295.223 243.491 297.979 242.88 300.454 241.83C302.974 240.694 304.913 239.205 306.263 237.191C307.662 235.268 308.363 232.991 308.363 230.543C308.363 227.392 307.407 224.767 305.494 222.754C303.627 220.654 301.039 219.255 297.724 218.467L280.433 214.616C275.768 213.566 271.707 211.815 268.253 209.366C264.799 206.827 262.118 203.767 260.202 200.092C258.289 196.331 257.333 192.217 257.333 187.579C257.333 181.98 258.78 176.989 261.672 172.53C264.567 168.067 268.602 164.569 273.781 162.116C278.959 159.577 284.839 158.355 291.421 158.355C298.002 158.355 304.043 159.577 309.271 161.94C314.498 164.389 318.559 167.801 321.451 172.091C324.391 176.377 325.883 181.365 325.932 186.967H306.822C306.822 184.605 306.192 182.505 304.932 180.581C303.672 178.657 301.876 177.255 299.543 176.205C297.256 175.155 294.619 174.544 291.634 174.544C288.649 174.544 286.013 175.069 283.726 176.119C281.487 177.082 279.736 178.481 278.476 180.319C277.216 182.07 276.586 184.17 276.586 186.532C276.586 189.244 277.448 191.52 279.177 193.271C280.951 195.022 283.354 196.335 286.388 197.032L303.049 200.707C307.857 201.671 312.128 203.509 315.859 206.306C319.639 209.017 322.579 212.344 324.679 216.367C326.779 220.305 327.83 224.681 327.83 229.406C327.83 235.181 326.288 240.345 323.209 244.98C320.176 249.529 315.908 253.204 310.399 255.743C304.894 258.368 298.594 259.68 291.499 259.68L291.496 259.684Z" fill="white"/>
<path d="M265 335H160V352H265V335Z" fill="white"/>
</g>
<defs>
<filter id="filter0_d_4372_12087" x="40" y="45" width="432" height="432" filterUnits="userSpaceOnUse" color-interpolation-filters="sRGB">
<feFlood flood-opacity="0" result="BackgroundImageFix"/>
<feColorMatrix in="SourceAlpha" type="matrix" values="0 0 0 0 0 0 0 0 0 0 0 0 0 0 0 0 0 0 127 0" result="hardAlpha"/>
<feOffset dy="5"/>
<feGaussianBlur stdDeviation="5"/>
<feColorMatrix type="matrix" values="0 0 0 0 0 0 0 0 0 0 0 0 0 0 0 0 0 0 0.3 0"/>
<feBlend mode="normal" in2="BackgroundImageFix" result="effect1_dropShadow_4372_12087"/>
<feBlend mode="normal" in="SourceGraphic" in2="effect1_dropShadow_4372_12087" result="shape"/>
</filter>
<linearGradient id="paint0_linear_4372_12087" x1="56.7081" y1="199.818" x2="266.431" y2="199.818" gradientUnits="userSpaceOnUse">
<stop  offset="0" stop-color="#007DFE"/>
<stop offset="1" stop-color="#F0EB18"/>
</linearGradient>
</defs>
</svg>
