<svg width="128" height="128" viewBox="0 0 128 128" fill="none" xmlns="http://www.w3.org/2000/svg">
<g filter="url(#filter0_d_4372_12088)">
<path d="M116 49.8181H40.3636V116H92C105.255 116 116 105.255 116 91.9999V49.8181Z" fill="#00D886"/>
<path d="M68.7273 12H36C22.7452 12 12 22.7451 12 36V87.6364H68.7273V12Z" fill="url(#paint0_linear_4372_12088)"/>
<path d="M116 49.8182V36C116 22.7452 105.255 12 92 12H68.7273L12 87.6364V92C12 105.255 22.7452 116 36 116H40.3636L116 49.8182Z" fill="#F0EB18"/>
<path d="M97 31H31V97H97V31Z" fill="black"/>
<path d="M39 39.9648H48.5186C50.8875 39.9648 53.0066 40.5006 54.8761 41.5721C56.7571 42.6437 58.2276 44.1391 59.2876 46.0372C60.3467 47.9345 60.8768 50.0775 60.8768 52.4665C60.8768 54.8555 60.3467 56.9986 59.2876 58.9178C58.2276 60.815 56.7571 62.2884 54.8761 63.3599C53.0066 64.4315 50.8875 64.9673 48.5186 64.9673H39V39.9648ZM48.465 60.749C49.9537 60.749 51.2568 60.4141 52.3762 59.7444C53.4955 59.0967 54.3585 58.1371 54.966 56.8867C55.5736 55.6362 55.8769 54.1628 55.8769 52.4665C55.8769 50.7702 55.5736 49.2968 54.966 48.0464C54.3585 46.7959 53.4955 45.8363 52.3762 45.1886C51.2568 44.5189 49.9527 44.184 48.465 44.184H43.8755V60.748H48.465V60.749ZM72.5815 65.392C70.7723 65.392 69.165 65.0792 67.7595 64.4095C66.3665 63.7627 65.2711 62.8471 64.4731 61.6636C63.6877 60.4802 63.283 59.1187 63.259 57.6004H68.1528C68.1528 58.3151 68.3431 58.9618 68.7239 59.4976C69.1047 60.0554 69.6347 60.4802 70.3131 60.7921C70.9914 61.1049 71.7721 61.2609 72.6523 61.2609C73.5325 61.2609 74.2357 61.1049 74.8671 60.837C75.5101 60.5471 76.0047 60.1673 76.3491 59.6535C76.706 59.1627 76.8849 58.582 76.8849 57.9572C76.8849 57.1536 76.6409 56.4839 76.153 55.9701C75.6765 55.4343 75.0164 55.0775 74.1706 54.8765L69.7591 53.894C68.5689 53.6261 67.5328 53.1793 66.6516 52.5545C65.7705 51.9068 65.0864 51.1261 64.5975 50.1885C64.1096 49.2289 63.8656 48.1794 63.8656 46.9959C63.8656 45.5675 64.2349 44.2941 64.9726 43.1565C65.7112 42.018 66.7406 41.1254 68.0619 40.4996C69.3831 39.8519 70.8833 39.54 72.5624 39.54C74.2414 39.54 75.7827 39.8519 77.1164 40.4547C78.4501 41.0794 79.4863 41.9501 80.2239 43.0446C80.974 44.1381 81.3548 45.4106 81.3672 46.8399H76.4917C76.4917 46.2372 76.331 45.7014 76.0095 45.2106C75.688 44.7198 75.2298 44.362 74.6347 44.0941C74.051 43.8262 73.3785 43.6703 72.6169 43.6703C71.8553 43.6703 71.1828 43.8042 70.5991 44.0721C70.028 44.318 69.5812 44.6748 69.2597 45.1437C68.9382 45.5904 68.7775 46.1262 68.7775 46.729C68.7775 47.4207 68.9976 48.0014 69.4386 48.4482C69.8912 48.895 70.5044 49.2299 71.2784 49.4078L75.5292 50.3454C76.7557 50.5913 77.8455 51.0601 78.7974 51.7738C79.7618 52.4656 80.5119 53.3142 81.0477 54.3408C81.5834 55.3453 81.8513 56.4619 81.8513 57.6673C81.8513 59.1407 81.4581 60.4582 80.6726 61.6407C79.8986 62.8012 78.8099 63.7388 77.4044 64.3865C75.9999 65.0562 74.3926 65.3911 72.5825 65.3911L72.5815 65.392Z" fill="white"/>
<path d="M67 84H39V89H67V84Z" fill="white"/>
</g>
<defs>
<filter id="filter0_d_4372_12088" x="9.5" y="10.75" width="109" height="109" filterUnits="userSpaceOnUse" color-interpolation-filters="sRGB">
<feFlood flood-opacity="0" result="BackgroundImageFix"/>
<feColorMatrix in="SourceAlpha" type="matrix" values="0 0 0 0 0 0 0 0 0 0 0 0 0 0 0 0 0 0 127 0" result="hardAlpha"/>
<feOffset dy="1.25"/>
<feGaussianBlur stdDeviation="1.25"/>
<feColorMatrix type="matrix" values="0 0 0 0 0 0 0 0 0 0 0 0 0 0 0 0 0 0 0.3 0"/>
<feBlend mode="normal" in2="BackgroundImageFix" result="effect1_dropShadow_4372_12088"/>
<feBlend mode="normal" in="SourceGraphic" in2="effect1_dropShadow_4372_12088" result="shape"/>
</filter>
<linearGradient id="paint0_linear_4372_12088" x1="13.6933" y1="49.8182" x2="66.6331" y2="49.8182" gradientUnits="userSpaceOnUse">
<stop  offset="0" stop-color="#007DFE"/>
<stop offset="1" stop-color="#F0EB18"/>
</linearGradient>
</defs>
</svg>
