<svg width="64" height="64" viewBox="0 0 64 64" fill="none" xmlns="http://www.w3.org/2000/svg">
<g filter="url(#filter0_d_6179_27265)">
<path d="M57.9999 24.9092H20.1818V58.0001H45.9999C52.6274 58.0001 57.9999 52.6275 57.9999 46.0001V24.9092Z" fill="#00D886"/>
<path d="M34.3636 6H18C11.3726 6 6 11.3726 6 18V43.8182H34.3636V6Z" fill="url(#paint0_linear_6179_27265)"/>
<path d="M58 24.9091V18C58 11.3726 52.6274 6 46 6H34.3636L6 43.8182V46C6 52.6274 11.3726 58 18 58H20.1818L58 24.9091Z" fill="#F0EB18"/>
<path d="M49 15H15V49H49V15Z" fill="black"/>
<path d="M20 19.9824H24.7593C25.9437 19.9824 27.0033 20.2503 27.9381 20.7861C28.8785 21.3218 29.6138 22.0695 30.1438 23.0186C30.6734 23.9672 30.9384 25.0388 30.9384 26.2333C30.9384 27.4277 30.6734 28.4993 30.1438 29.4589C29.6138 30.4075 28.8785 31.1442 27.9381 31.68C27.0033 32.2157 25.9437 32.4836 24.7593 32.4836H20V19.9824ZM24.7325 30.3745C25.4768 30.3745 26.1284 30.2071 26.6881 29.8722C27.2478 29.5484 27.6793 29.0686 27.983 28.4433C28.2868 27.8181 28.4384 27.0814 28.4384 26.2333C28.4384 25.3851 28.2868 24.6484 27.983 24.0232C27.6793 23.398 27.2478 22.9182 26.6881 22.5943C26.1284 22.2595 25.4764 22.092 24.7325 22.092H22.4378V30.374H24.7325V30.3745ZM36.7907 32.696C35.8862 32.696 35.0825 32.5396 34.3798 32.2047C33.6833 31.8814 33.1355 31.4236 32.7366 30.8318C32.3438 30.2401 32.1415 29.5594 32.1295 28.8002H34.5764C34.5764 29.1575 34.6716 29.4809 34.862 29.7488C35.0524 30.0277 35.3174 30.2401 35.6565 30.396C35.9957 30.5525 36.386 30.6304 36.8261 30.6304C37.2662 30.6304 37.6178 30.5525 37.9336 30.4185C38.255 30.2736 38.5024 30.0837 38.6746 29.8268C38.853 29.5814 38.9425 29.291 38.9425 28.9786C38.9425 28.5768 38.8205 28.2419 38.5765 27.985C38.3383 27.7172 38.0082 27.5387 37.5853 27.4383L35.3796 26.947C34.7845 26.813 34.2664 26.5896 33.8258 26.2773C33.3852 25.9534 33.0432 25.5631 32.7988 25.0943C32.5548 24.6145 32.4328 24.0897 32.4328 23.4979C32.4328 22.7837 32.6175 22.147 32.9863 21.5783C33.3556 21.009 33.8703 20.5627 34.5309 20.2498C35.1916 19.926 35.9416 19.77 36.7812 19.77C37.6207 19.77 38.3914 19.926 39.0582 20.2273C39.7251 20.5397 40.2431 20.975 40.612 21.5223C40.987 22.0691 41.1774 22.7053 41.1836 23.42H38.7458C38.7458 23.1186 38.6655 22.8507 38.5047 22.6053C38.344 22.3599 38.1149 22.181 37.8173 22.0471C37.5255 21.9131 37.1892 21.8351 36.8084 21.8351C36.4277 21.8351 36.0914 21.9021 35.7996 22.0361C35.514 22.159 35.2906 22.3374 35.1299 22.5718C34.9691 22.7952 34.8888 23.0631 34.8888 23.3645C34.8888 23.7103 34.9988 24.0007 35.2193 24.2241C35.4456 24.4475 35.7522 24.6149 36.1392 24.7039L38.2646 25.1727C38.8779 25.2957 39.4227 25.5301 39.8987 25.8869C40.3809 26.2328 40.7559 26.6571 41.0238 27.1704C41.2917 27.6727 41.4257 28.2309 41.4257 28.8337C41.4257 29.5704 41.2291 30.2291 40.8363 30.8203C40.4493 31.4006 39.9049 31.8694 39.2022 32.1933C38.5 32.5281 37.6963 32.6955 36.7912 32.6955L36.7907 32.696Z" fill="white"/>
<path d="M34 41.5H20V44H34V41.5Z" fill="white"/>
</g>
<defs>
<filter id="filter0_d_6179_27265" x="4.75" y="5.35" width="54.5" height="54.5" filterUnits="userSpaceOnUse" color-interpolation-filters="sRGB">
<feFlood flood-opacity="0" result="BackgroundImageFix"/>
<feColorMatrix in="SourceAlpha" type="matrix" values="0 0 0 0 0 0 0 0 0 0 0 0 0 0 0 0 0 0 127 0" result="hardAlpha"/>
<feOffset dy="0.6"/>
<feGaussianBlur stdDeviation="0.625"/>
<feColorMatrix type="matrix" values="0 0 0 0 0 0 0 0 0 0 0 0 0 0 0 0 0 0 0.3 0"/>
<feBlend mode="normal" in2="BackgroundImageFix" result="effect1_dropShadow_6179_27265"/>
<feBlend mode="normal" in="SourceGraphic" in2="effect1_dropShadow_6179_27265" result="shape"/>
</filter>
<linearGradient id="paint0_linear_6179_27265" x1="6.84665" y1="24.9091" x2="33.3165" y2="24.9091" gradientUnits="userSpaceOnUse">
<stop  offset="0" stop-color="#007DFE"/>
<stop offset="1" stop-color="#F0EB18"/>
</linearGradient>
</defs>
</svg>
