<svg width="1024" height="1024" viewBox="0 0 1024 1024" fill="none" xmlns="http://www.w3.org/2000/svg">
<g filter="url(#filter0_d_6180_42514)">
<path d="M924 399.636H324.727V924H732C838.039 924 924 838.038 924 732V399.636Z" fill="#00D886"/>
<path d="M549.455 100H292C185.961 100 100 185.961 100 292V699.273H549.455V100Z" fill="url(#paint0_linear_6180_42514)"/>
<path d="M924 399.636V292C924 185.961 838.039 100 732 100H549.455L100 699.273V732C100 838.039 185.961 924 292 924H324.727L924 399.636Z" fill="#F0EB18"/>
<path d="M776 248H248V776H776V248Z" fill="black"/>
<path d="M319.74 320.039H394.358C412.928 320.039 429.541 324.239 444.196 332.64C458.941 341.04 470.468 352.762 478.778 367.642C487.081 382.515 491.236 399.315 491.236 418.042C491.236 436.77 487.081 453.57 478.778 468.615C470.468 483.488 458.941 495.038 444.196 503.438C429.541 511.838 412.928 516.038 394.358 516.038H319.74V320.039ZM393.938 482.97C405.608 482.97 415.823 480.345 424.598 475.095C433.373 470.018 440.138 462.495 444.901 452.692C449.663 442.89 452.041 431.34 452.041 418.042C452.041 404.745 449.663 393.195 444.901 383.392C440.138 373.59 433.373 366.067 424.598 360.99C415.823 355.74 405.601 353.115 393.938 353.115H357.96V482.963H393.938V482.97ZM582.991 519.368C568.809 519.368 556.209 516.915 545.191 511.665C534.271 506.595 525.684 499.418 519.428 490.14C513.271 480.863 510.098 470.19 509.911 458.287H548.274C548.274 463.89 549.766 468.96 552.751 473.16C555.736 477.533 559.891 480.863 565.209 483.308C570.526 485.76 576.646 486.983 583.546 486.983C590.446 486.983 595.959 485.76 600.909 483.66C605.949 481.388 609.826 478.41 612.526 474.383C615.324 470.535 616.726 465.983 616.726 461.085C616.726 454.785 614.814 449.535 610.989 445.507C607.254 441.307 602.079 438.51 595.449 436.935L560.866 429.232C551.536 427.132 543.414 423.63 536.506 418.732C529.599 413.655 524.236 407.535 520.403 400.185C516.578 392.662 514.666 384.435 514.666 375.157C514.666 363.96 517.561 353.977 523.344 345.06C529.134 336.135 537.204 329.137 547.561 324.232C557.919 319.154 569.679 316.709 582.841 316.709C596.004 316.709 608.086 319.154 618.541 323.879C628.996 328.777 637.119 335.602 642.901 344.182C648.781 352.755 651.766 362.73 651.864 373.935H613.644C613.644 369.21 612.384 365.01 609.864 361.162C607.344 357.315 603.751 354.51 599.086 352.41C594.511 350.31 589.239 349.087 583.269 349.087C577.299 349.087 572.026 350.137 567.451 352.237C562.974 354.165 559.471 356.962 556.951 360.637C554.431 364.14 553.171 368.34 553.171 373.065C553.171 378.487 554.896 383.04 558.354 386.542C561.901 390.045 566.709 392.67 572.776 394.065L606.099 401.415C615.714 403.342 624.256 407.017 631.719 412.612C639.279 418.035 645.159 424.687 649.359 432.735C653.559 440.61 655.659 449.362 655.659 458.812C655.659 470.363 652.576 480.69 646.419 489.96C640.351 499.058 631.816 506.408 620.799 511.485C609.789 516.735 597.189 519.36 582.999 519.36L582.991 519.368Z" fill="white"/>
<path d="M530 670H320V704H530V670Z" fill="white"/>
</g>
<defs>
<filter id="filter0_d_6180_42514" x="80" y="90" width="864" height="864" filterUnits="userSpaceOnUse" color-interpolation-filters="sRGB">
<feFlood flood-opacity="0" result="BackgroundImageFix"/>
<feColorMatrix in="SourceAlpha" type="matrix" values="0 0 0 0 0 0 0 0 0 0 0 0 0 0 0 0 0 0 127 0" result="hardAlpha"/>
<feOffset dy="10"/>
<feGaussianBlur stdDeviation="10"/>
<feColorMatrix type="matrix" values="0 0 0 0 0 0 0 0 0 0 0 0 0 0 0 0 0 0 0.3 0"/>
<feBlend mode="normal" in2="BackgroundImageFix" result="effect1_dropShadow_6180_42514"/>
<feBlend mode="normal" in="SourceGraphic" in2="effect1_dropShadow_6180_42514" result="shape"/>
</filter>
<linearGradient id="paint0_linear_6180_42514" x1="113.416" y1="399.636" x2="532.862" y2="399.636" gradientUnits="userSpaceOnUse">
<stop  offset="0" stop-color="#007DFE"/>
<stop offset="1" stop-color="#F0EB18"/>
</linearGradient>
</defs>
</svg>
