<svg width="256" height="256" viewBox="0 0 256 256" fill="none" xmlns="http://www.w3.org/2000/svg">
<g filter="url(#filter0_d_4372_12086)">
<path d="M231 99.9092H81.1818V231H183C209.51 231 231 209.51 231 183V99.9092Z" fill="#00D886"/>
<path d="M137.364 25H73C46.4903 25 25 46.4903 25 73V174.818H137.364V25Z" fill="url(#paint0_linear_4372_12086)"/>
<path d="M231 99.9091V73C231 46.4903 209.51 25 183 25H137.364L25 174.818V183C25 209.51 46.4903 231 73 231H81.1818L231 99.9091Z" fill="#F0EB18"/>
<path d="M194 62H62V194H194V62Z" fill="black"/>
<path d="M79.9351 80.0097H98.5895C103.232 80.0097 107.385 81.0598 111.049 83.1598C114.735 85.2598 117.617 88.1904 119.695 91.9104C121.77 95.6286 122.809 99.8286 122.809 104.51C122.809 109.192 121.77 113.392 119.695 117.154C117.617 120.872 114.735 123.759 111.049 125.859C107.385 127.959 103.232 129.009 98.5895 129.009H79.9351V80.0097ZM98.4845 120.742C101.402 120.742 103.956 120.086 106.15 118.774C108.343 117.504 110.035 115.624 111.225 113.173C112.416 110.722 113.01 107.835 113.01 104.51C113.01 101.186 112.416 98.2986 111.225 95.8479C110.035 93.3973 108.343 91.5167 106.15 90.2473C103.956 88.9348 101.4 88.2785 98.4845 88.2785H89.4901V120.741H98.4845V120.742ZM145.748 129.842C142.202 129.842 139.052 129.229 136.298 127.916C133.568 126.649 131.421 124.854 129.857 122.535C128.318 120.216 127.525 117.547 127.478 114.572H137.068C137.068 115.972 137.442 117.24 138.188 118.29C138.934 119.383 139.973 120.216 141.302 120.827C142.632 121.44 144.162 121.746 145.887 121.746C147.612 121.746 148.99 121.44 150.227 120.915C151.487 120.347 152.457 119.602 153.132 118.596C153.831 117.634 154.182 116.496 154.182 115.271C154.182 113.696 153.703 112.384 152.747 111.377C151.813 110.327 150.52 109.627 148.862 109.234L140.217 107.308C137.884 106.783 135.853 105.907 134.127 104.683C132.4 103.414 131.059 101.884 130.101 100.046C129.145 98.1654 128.666 96.1086 128.666 93.7892C128.666 90.9898 129.39 88.4942 130.836 86.2648C132.283 84.0335 134.301 82.2841 136.89 81.0579C139.48 79.7885 142.42 79.1772 145.71 79.1772C149.001 79.1772 152.022 79.7885 154.635 80.9698C157.249 82.1941 159.28 83.9004 160.725 86.0454C162.195 88.1885 162.942 90.6823 162.966 93.4835H153.411C153.411 92.3023 153.096 91.2523 152.466 90.2904C151.836 89.3285 150.938 88.6273 149.772 88.1023C148.628 87.5773 147.31 87.2716 145.817 87.2716C144.325 87.2716 143.007 87.5342 141.863 88.0592C140.743 88.541 139.868 89.2404 139.238 90.1592C138.608 91.0348 138.293 92.0848 138.293 93.266C138.293 94.6217 138.724 95.7598 139.588 96.6354C140.475 97.5111 141.677 98.1673 143.194 98.5161L151.525 100.354C153.928 100.835 156.064 101.754 157.93 103.153C159.82 104.509 161.29 106.172 162.34 108.184C163.39 110.152 163.915 112.34 163.915 114.703C163.915 117.591 163.144 120.172 161.605 122.49C160.088 124.764 157.954 126.602 155.2 127.871C152.447 129.184 149.297 129.84 145.75 129.84L145.748 129.842Z" fill="white"/>
<path d="M132.5 167.5H80V176H132.5V167.5Z" fill="white"/>
</g>
<defs>
<filter id="filter0_d_4372_12086" x="20" y="22.5" width="216" height="216" filterUnits="userSpaceOnUse" color-interpolation-filters="sRGB">
<feFlood flood-opacity="0" result="BackgroundImageFix"/>
<feColorMatrix in="SourceAlpha" type="matrix" values="0 0 0 0 0 0 0 0 0 0 0 0 0 0 0 0 0 0 127 0" result="hardAlpha"/>
<feOffset dy="2.5"/>
<feGaussianBlur stdDeviation="2.5"/>
<feColorMatrix type="matrix" values="0 0 0 0 0 0 0 0 0 0 0 0 0 0 0 0 0 0 0.3 0"/>
<feBlend mode="normal" in2="BackgroundImageFix" result="effect1_dropShadow_4372_12086"/>
<feBlend mode="normal" in="SourceGraphic" in2="effect1_dropShadow_4372_12086" result="shape"/>
</filter>
<linearGradient id="paint0_linear_4372_12086" x1="28.3541" y1="99.9091" x2="133.216" y2="99.9091" gradientUnits="userSpaceOnUse">
<stop  offset="0" stop-color="#007DFE"/>
<stop offset="1" stop-color="#F0EB18"/>
</linearGradient>
</defs>
</svg>
