<svg width="32" height="32" viewBox="0 0 32 32" fill="none" xmlns="http://www.w3.org/2000/svg">
<path d="M30 12.1816H9.63635V29.9998H24C27.3137 29.9998 30 27.3135 30 23.9998V12.1816Z" fill="#00D886"/>
<path d="M17.2727 2H8C4.68629 2 2 4.68629 2 8V22.3636H17.2727V2Z" fill="url(#paint0_linear_4372_12089)"/>
<path d="M30 12.1818V8C30 4.68629 27.3137 2 24 2H17.2727L2 22.3636V24C2 27.3137 4.68629 30 8 30H9.63636L30 12.1818Z" fill="#F0EB18"/>
<path d="M25 7H7V25H25V7Z" fill="black"/>
<path d="M16 22H9V23H16V22Z" fill="white"/>
<path d="M8.8999 9.01885H11.5653C12.2287 9.01885 12.8221 9.16888 13.3456 9.46894C13.8723 9.76899 14.284 10.1877 14.5809 10.7193C14.8774 11.2505 15.0259 11.8506 15.0259 12.5196C15.0259 13.1886 14.8774 13.7887 14.5809 14.3261C14.284 14.8574 13.8723 15.2699 13.3456 15.57C12.8221 15.87 12.2287 16.0201 11.5653 16.0201H8.8999V9.01885ZM11.5503 14.8389C11.9672 14.8389 12.3321 14.7451 12.6455 14.5576C12.959 14.3762 13.2006 14.1075 13.3707 13.7573C13.5409 13.4072 13.6258 12.9946 13.6258 12.5196C13.6258 12.0446 13.5409 11.632 13.3707 11.2819C13.2006 10.9317 12.959 10.663 12.6455 10.4816C12.3321 10.2941 11.9669 10.2003 11.5503 10.2003H10.2652V14.8386H11.5503V14.8389ZM18.3034 16.139C17.7968 16.139 17.3468 16.0514 16.9532 15.8639C16.5631 15.6828 16.2564 15.4264 16.0329 15.095C15.813 14.7636 15.6997 14.3824 15.693 13.9572H17.0633C17.0633 14.1573 17.1166 14.3384 17.2232 14.4884C17.3299 14.6446 17.4783 14.7636 17.6682 14.8509C17.8582 14.9385 18.0768 14.9822 18.3233 14.9822C18.5697 14.9822 18.7667 14.9385 18.9435 14.8635C19.1235 14.7823 19.262 14.676 19.3585 14.5321C19.4584 14.3947 19.5085 14.2321 19.5085 14.0571C19.5085 13.8321 19.4402 13.6445 19.3035 13.5007C19.1701 13.3506 18.9853 13.2507 18.7484 13.1945L17.5131 12.9193C17.1798 12.8443 16.8897 12.7192 16.643 12.5442C16.3962 12.3629 16.2047 12.1443 16.0678 11.8817C15.9311 11.613 15.8628 11.3191 15.8628 10.9877C15.8628 10.5877 15.9662 10.2311 16.1728 9.91259C16.3796 9.59378 16.6679 9.34382 17.0379 9.16861C17.4078 8.98724 17.8279 8.8999 18.2981 8.8999C18.7683 8.8999 19.1999 8.98724 19.5733 9.15602C19.9468 9.33096 20.2369 9.57476 20.4435 9.88125C20.6535 10.1875 20.7602 10.5438 20.7636 10.944H19.3984C19.3984 10.7753 19.3534 10.6252 19.2634 10.4878C19.1733 10.3504 19.045 10.2502 18.8784 10.1751C18.715 10.1001 18.5266 10.0565 18.3134 10.0565C18.1001 10.0565 17.9118 10.094 17.7483 10.169C17.5884 10.2378 17.4633 10.3378 17.3733 10.469C17.2833 10.5941 17.2382 10.7442 17.2382 10.913C17.2382 11.1067 17.2999 11.2693 17.4234 11.3944C17.5501 11.5195 17.7218 11.6133 17.9386 11.6631L19.1289 11.9256C19.4723 11.9945 19.7775 12.1258 20.044 12.3256C20.3141 12.5193 20.5241 12.757 20.6742 13.0444C20.8242 13.3257 20.8992 13.6384 20.8992 13.9759C20.8992 14.3885 20.7891 14.7574 20.5691 15.0886C20.3524 15.4135 20.0475 15.6761 19.654 15.8575C19.2607 16.045 18.8106 16.1388 18.3037 16.1388L18.3034 16.139Z" fill="white"/>
<defs>
<linearGradient id="paint0_linear_4372_12089" x1="2.45589" y1="12.1818" x2="16.7089" y2="12.1818" gradientUnits="userSpaceOnUse">
<stop  offset="0" stop-color="#007DFE"/>
<stop offset="1" stop-color="#F0EB18"/>
</linearGradient>
</defs>
</svg>
