<svg width="256" height="256" viewBox="0 0 256 256" fill="none" xmlns="http://www.w3.org/2000/svg">
<g filter="url(#filter0_d_4372_12626)">
<path d="M156.091 231H183C209.51 231 231 209.51 231 183L231 99.9091H156.091V231Z" fill="url(#paint0_linear_4372_12626)"/>
<path d="M25.0001 99.9092L137.364 99.9092V25.0001L73.0001 25.0001C46.4905 25.0001 25.0001 46.4904 25.0001 73.0001V99.9092Z" fill="#007DFE"/>
<path d="M25.0021 182.998C25.0009 209.508 46.4916 231 73.0021 231H156.089L231 99.9091V73C231 46.4903 209.51 25 183 25H137.364L25.0056 99.9896L25.0021 182.998Z" fill="url(#paint1_linear_4372_12626)"/>
<path d="M194 62H62V194H194V62Z" fill="black"/>
<path d="M89.4896 110.495H97.7355L108.284 129H119.239L107.573 109.374C108.351 109.126 109.178 108.946 109.894 108.614C112.555 107.302 114.597 105.507 116.02 103.19C117.465 100.871 118.189 98.2028 118.189 95.1392C118.189 92.0755 117.476 89.4956 116.053 87.2214C114.653 84.9471 112.647 83.1528 110.033 81.8853C107.419 80.616 104.397 80.0029 100.968 80.0029H79.9331V129H89.4877V110.495H89.4896ZM89.4896 87.9638H100.34C101.95 87.9638 103.349 88.2713 104.54 88.8394C105.753 89.4525 106.686 90.2831 107.339 91.3781C107.991 92.4711 108.319 93.7405 108.319 95.2273C108.319 96.7141 107.993 97.9834 107.339 99.1215C106.684 100.215 105.753 101.047 104.54 101.658C103.349 102.269 101.95 102.534 100.34 102.534H89.4896V87.9657V87.9638Z" fill="white"/>
<path d="M166.022 91.9011C163.944 88.1831 161.063 85.2508 157.377 83.1508C153.713 81.0509 149.56 80.001 144.918 80.001H126.264V128.998H144.918C149.56 128.998 153.713 127.948 157.377 125.848C161.063 123.748 163.944 120.861 166.022 117.143C168.097 113.38 169.136 109.18 169.136 104.501C169.136 99.8207 168.097 95.6191 166.022 91.9011ZM157.553 113.163C156.362 115.613 154.671 117.492 152.477 118.761C150.284 120.075 147.728 120.73 144.813 120.73H135.819V88.2694H144.813C147.728 88.2694 150.284 88.9256 152.477 90.2362C154.671 91.5055 156.362 93.3879 157.553 95.8365C158.743 98.2871 159.338 101.173 159.338 104.499C159.338 107.825 158.743 110.71 157.553 113.161V113.163Z" fill="white"/>
<path d="M132.5 167.5H80V176H132.5V167.5Z" fill="white"/>
</g>
<defs>
<filter id="filter0_d_4372_12626" x="20" y="22.5" width="216" height="216" filterUnits="userSpaceOnUse" color-interpolation-filters="sRGB">
<feFlood flood-opacity="0" result="BackgroundImageFix"/>
<feColorMatrix in="SourceAlpha" type="matrix" values="0 0 0 0 0 0 0 0 0 0 0 0 0 0 0 0 0 0 127 0" result="hardAlpha"/>
<feOffset dy="2.5"/>
<feGaussianBlur stdDeviation="2.5"/>
<feColorMatrix type="matrix" values="0 0 0 0 0 0 0 0 0 0 0 0 0 0 0 0 0 0 0.3 0"/>
<feBlend mode="normal" in2="BackgroundImageFix" result="effect1_dropShadow_4372_12626"/>
<feBlend mode="normal" in="SourceGraphic" in2="effect1_dropShadow_4372_12626" result="shape"/>
</filter>
<linearGradient id="paint0_linear_4372_12626" x1="193.545" y1="225.721" x2="193.545" y2="101.452" gradientUnits="userSpaceOnUse">
<stop offset="0.21" stop-color="#007DFE"/>
<stop offset="0.8" stop-color="#FFB700"/>
</linearGradient>
<linearGradient id="paint1_linear_4372_12626" x1="224.872" y1="31.1688" x2="32.6239" y2="223.417" gradientUnits="userSpaceOnUse">
<stop offset="0.17" stop-color="#FFB700"/>
<stop offset="0.83" stop-color="#FF0A67"/>
</linearGradient>
</defs>
</svg>
