<svg width="1024" height="1024" viewBox="0 0 1024 1024" fill="none" xmlns="http://www.w3.org/2000/svg">
<g filter="url(#filter0_d_6180_42565)">
<path d="M624.364 924H732C838.039 924 924 838.039 924 732L924 399.636H624.364V924Z" fill="url(#paint0_linear_6180_42565)"/>
<path d="M99.9995 399.636L549.454 399.636V100L292 100C185.961 100 99.9995 185.961 99.9995 292V399.636Z" fill="#007DFE"/>
<path d="M100.008 731.992C100.004 838.034 185.966 924 292.008 924H624.356L924 399.636V292C924 185.961 838.039 100 732 100H549.455L100.022 399.958L100.008 731.992Z" fill="url(#paint1_linear_6180_42565)"/>
<path d="M776 248H248V776H776V248Z" fill="black"/>
<path d="M357.958 441.978H390.942L433.135 516H476.956L430.293 437.493C433.405 436.503 436.712 435.783 439.577 434.456C450.219 429.206 458.386 422.029 464.079 412.759C469.861 403.482 472.756 392.81 472.756 380.556C472.756 368.301 469.906 357.982 464.214 348.884C458.611 339.787 450.587 332.61 440.132 327.54C429.678 322.463 417.588 320.011 403.871 320.011H319.732V516H357.951V441.978H357.958ZM357.958 351.854H401.359C407.801 351.854 413.396 353.084 418.158 355.357C423.01 357.809 426.745 361.131 429.355 365.511C431.965 369.884 433.278 374.961 433.278 380.908C433.278 386.855 431.973 391.933 429.355 396.485C426.738 400.857 423.01 404.187 418.158 406.632C413.396 409.077 407.801 410.134 401.359 410.134H357.958V351.862V351.854Z" fill="white"/>
<path d="M664.088 367.604C655.778 352.732 644.251 341.003 629.507 332.603C614.852 324.203 598.241 320.003 579.671 320.003H505.057V515.992H579.671C598.241 515.992 614.852 511.793 629.507 503.393C644.251 494.993 655.778 483.444 664.088 468.572C672.39 453.52 676.545 436.721 676.545 418.002C676.545 399.283 672.39 382.476 664.088 367.604ZM630.212 452.65C625.449 462.452 618.685 469.967 609.91 475.044C601.135 480.301 590.913 482.919 579.251 482.919H543.275V353.077H579.251C590.913 353.077 601.135 355.702 609.91 360.944C618.685 366.021 625.449 373.551 630.212 383.346C634.974 393.148 637.351 404.69 637.351 417.994C637.351 431.299 634.974 442.841 630.212 452.643V452.65Z" fill="white"/>
<path d="M530 670H320V704H530V670Z" fill="white"/>
</g>
<defs>
<filter id="filter0_d_6180_42565" x="79.9995" y="90" width="864" height="864" filterUnits="userSpaceOnUse" color-interpolation-filters="sRGB">
<feFlood flood-opacity="0" result="BackgroundImageFix"/>
<feColorMatrix in="SourceAlpha" type="matrix" values="0 0 0 0 0 0 0 0 0 0 0 0 0 0 0 0 0 0 127 0" result="hardAlpha"/>
<feOffset dy="10"/>
<feGaussianBlur stdDeviation="10"/>
<feColorMatrix type="matrix" values="0 0 0 0 0 0 0 0 0 0 0 0 0 0 0 0 0 0 0.3 0"/>
<feBlend mode="normal" in2="BackgroundImageFix" result="effect1_dropShadow_6180_42565"/>
<feBlend mode="normal" in="SourceGraphic" in2="effect1_dropShadow_6180_42565" result="shape"/>
</filter>
<linearGradient id="paint0_linear_6180_42565" x1="774.182" y1="902.883" x2="774.182" y2="405.809" gradientUnits="userSpaceOnUse">
<stop offset="0.21" stop-color="#007DFE"/>
<stop offset="0.8" stop-color="#FFB700"/>
</linearGradient>
<linearGradient id="paint1_linear_6180_42565" x1="899.49" y1="124.675" x2="130.495" y2="893.669" gradientUnits="userSpaceOnUse">
<stop offset="0.17" stop-color="#FFB700"/>
<stop offset="0.83" stop-color="#FF0A67"/>
</linearGradient>
</defs>
</svg>
