<svg width="512" height="512" viewBox="0 0 512 512" fill="none" xmlns="http://www.w3.org/2000/svg">
<g filter="url(#filter0_d_4372_12627)">
<path d="M312.182 462H366C419.019 462 462 419.019 462 366L462 199.818H312.182V462Z" fill="url(#paint0_linear_4372_12627)"/>
<path d="M50.0003 199.818L274.728 199.818V49.9999L146 49.9999C92.9809 49.9999 50.0003 92.9806 50.0003 146V199.818Z" fill="#007DFE"/>
<path d="M50.0041 365.996C50.0018 419.017 92.9832 462 146.004 462H312.178L462 199.818V146C462 92.9807 419.019 50 366 50H274.727L50.0112 199.979L50.0041 365.996Z" fill="url(#paint1_linear_4372_12627)"/>
<path d="M388 124H124V388H388V124Z" fill="black"/>
<path d="M178.979 220.989H195.471L216.568 258H238.478L215.146 218.747C216.702 218.252 218.356 217.892 219.789 217.228C225.11 214.603 229.193 211.014 232.039 206.38C234.93 201.741 236.378 196.405 236.378 190.278C236.378 184.151 234.953 178.991 232.107 174.442C229.306 169.894 225.293 166.305 220.066 163.77C214.839 161.232 208.794 160.005 201.936 160.005H159.866V258H178.975V220.989H178.979ZM178.979 175.927H200.679C203.901 175.927 206.698 176.542 209.079 177.678C211.505 178.905 213.373 180.566 214.678 182.756C215.983 184.942 216.639 187.48 216.639 190.454C216.639 193.428 215.986 195.966 214.678 198.242C213.369 200.429 211.505 202.094 209.079 203.316C206.698 204.538 203.901 205.067 200.679 205.067H178.979V175.931V175.927Z" fill="white"/>
<path d="M332.044 183.802C327.889 176.366 322.125 170.501 314.753 166.301C307.426 162.102 299.12 160.002 289.835 160.002H252.528V257.996H289.835C299.12 257.996 307.426 255.896 314.753 251.696C322.125 247.497 327.889 241.722 332.044 234.286C336.195 226.76 338.272 218.36 338.272 209.001C338.272 199.641 336.195 191.238 332.044 183.802ZM315.106 226.325C312.724 231.226 309.342 234.983 304.955 237.522C300.567 240.151 295.456 241.459 289.625 241.459H271.637V176.538H289.625C295.456 176.538 300.567 177.851 304.955 180.472C309.342 183.011 312.724 186.776 315.106 191.673C317.487 196.574 318.675 202.345 318.675 208.997C318.675 215.649 317.487 221.42 315.106 226.321V226.325Z" fill="white"/>
<path d="M265 335H160V352H265V335Z" fill="white"/>
</g>
<defs>
<filter id="filter0_d_4372_12627" x="40" y="45" width="432" height="432" filterUnits="userSpaceOnUse" color-interpolation-filters="sRGB">
<feFlood flood-opacity="0" result="BackgroundImageFix"/>
<feColorMatrix in="SourceAlpha" type="matrix" values="0 0 0 0 0 0 0 0 0 0 0 0 0 0 0 0 0 0 127 0" result="hardAlpha"/>
<feOffset dy="5"/>
<feGaussianBlur stdDeviation="5"/>
<feColorMatrix type="matrix" values="0 0 0 0 0 0 0 0 0 0 0 0 0 0 0 0 0 0 0.3 0"/>
<feBlend mode="normal" in2="BackgroundImageFix" result="effect1_dropShadow_4372_12627"/>
<feBlend mode="normal" in="SourceGraphic" in2="effect1_dropShadow_4372_12627" result="shape"/>
</filter>
<linearGradient id="paint0_linear_4372_12627" x1="387.091" y1="451.442" x2="387.091" y2="202.904" gradientUnits="userSpaceOnUse">
<stop offset="0.21" stop-color="#007DFE"/>
<stop offset="0.8" stop-color="#FFB700"/>
</linearGradient>
<linearGradient id="paint1_linear_4372_12627" x1="449.745" y1="62.3375" x2="65.2477" y2="446.835" gradientUnits="userSpaceOnUse">
<stop offset="0.17" stop-color="#FFB700"/>
<stop offset="0.83" stop-color="#FF0A67"/>
</linearGradient>
</defs>
</svg>
