<svg width="32" height="32" viewBox="0 0 32 32" fill="none" xmlns="http://www.w3.org/2000/svg">
<path d="M19.8182 30H24C27.3137 30 30 27.3137 30 24L30 12.1818H19.8182V30Z" fill="url(#paint0_linear_4372_12629)"/>
<path d="M2.00022 12.1816L17.2729 12.1816V1.99982L8.00022 1.99982C4.68651 1.99982 2.00022 4.68611 2.00022 7.99982V12.1816Z" fill="#007DFE"/>
<path d="M2.00026 23.9997C2.00012 27.3136 4.68645 30 8.00026 30H19.8179L30 12.1818V8C30 4.68629 27.3137 2 24 2H17.2727L2.00076 12.1928L2.00026 23.9997Z" fill="url(#paint1_linear_4372_12629)"/>
<path d="M25 7H7V25H25V7Z" fill="black"/>
<path d="M10.756 13.5823H11.8869L13.3336 16.1203H14.8361L13.2361 13.4285C13.3428 13.3946 13.4562 13.3699 13.5545 13.3244C13.9193 13.1444 14.1994 12.8983 14.3945 12.5805C14.5928 12.2624 14.6921 11.8965 14.6921 11.4763C14.6921 11.0561 14.5943 10.7023 14.3992 10.3904C14.2071 10.0785 13.9319 9.83239 13.5735 9.65856C13.215 9.48448 12.8005 9.40039 12.3302 9.40039H9.44531V16.1203H10.7557V13.5823H10.756ZM10.756 10.4922H12.2441C12.4649 10.4922 12.6568 10.5344 12.8201 10.6123C12.9864 10.6964 13.1145 10.8103 13.204 10.9605C13.2935 11.1104 13.3385 11.2845 13.3385 11.4884C13.3385 11.6923 13.2937 11.8664 13.204 12.0225C13.1142 12.1724 12.9864 12.2866 12.8201 12.3704C12.6568 12.4542 12.4649 12.4905 12.2441 12.4905H10.756V10.4925V10.4922Z" fill="white"/>
<path d="M21.2525 11.032C20.9676 10.5221 20.5724 10.1199 20.0668 9.8319C19.5644 9.5439 18.9948 9.3999 18.3581 9.3999H15.7998V16.1198H18.3581C18.9948 16.1198 19.5644 15.9758 20.0668 15.6878C20.5724 15.3998 20.9676 15.0038 21.2525 14.4939C21.5372 13.9778 21.6796 13.4018 21.6796 12.76C21.6796 12.1182 21.5372 11.5419 21.2525 11.032ZM20.091 13.948C19.9277 14.2841 19.6958 14.5417 19.3949 14.7158C19.0941 14.8961 18.7436 14.9858 18.3437 14.9858H17.1102V10.5339H18.3437C18.7436 10.5339 19.0941 10.6239 19.3949 10.8036C19.6958 10.9777 19.9277 11.2359 20.091 11.5717C20.2543 11.9078 20.3358 12.3036 20.3358 12.7597C20.3358 13.2159 20.2543 13.6116 20.091 13.9477V13.948Z" fill="white"/>
<path d="M16 22H9V23H16V22Z" fill="white"/>
<defs>
<linearGradient id="paint0_linear_4372_12629" x1="24.9091" y1="29.2824" x2="24.9091" y2="12.3916" gradientUnits="userSpaceOnUse">
<stop offset="0.21" stop-color="#007DFE"/>
<stop offset="0.8" stop-color="#FFB700"/>
</linearGradient>
<linearGradient id="paint1_linear_4372_12629" x1="29.1671" y1="2.83847" x2="3.03625" y2="28.9693" gradientUnits="userSpaceOnUse">
<stop offset="0.17" stop-color="#FFB700"/>
<stop offset="0.83" stop-color="#FF0A67"/>
</linearGradient>
</defs>
</svg>
