<svg width="128" height="128" viewBox="0 0 128 128" fill="none" xmlns="http://www.w3.org/2000/svg">
<g filter="url(#filter0_d_4372_12628)">
<path d="M78.1818 116H92C105.255 116 116 105.255 116 92L116 49.8182H78.1818V116Z" fill="url(#paint0_linear_4372_12628)"/>
<path d="M11.9998 49.8181L68.7271 49.8181V11.9999L35.9998 11.9999C22.7449 11.9999 11.9998 22.7451 11.9998 35.9999V49.8181Z" fill="#007DFE"/>
<path d="M12.001 91.999C12.0005 105.254 22.7458 116 36.001 116H78.1809L116 49.8182V36C116 22.7452 105.255 12 92 12H68.7273L12.0028 49.8588L12.001 91.999Z" fill="url(#paint1_linear_4372_12628)"/>
<path d="M97 31H31V97H97V31Z" fill="black"/>
<path d="M43.8758 55.5584H48.0829L53.4647 65H59.0541L53.1022 54.9863C53.4991 54.86 53.921 54.7682 54.2864 54.5989C55.6438 53.9293 56.6856 53.0138 57.4116 51.8315C58.1492 50.6481 58.5184 49.2869 58.5184 47.7238C58.5184 46.1608 58.1549 44.8445 57.4288 43.6841C56.7143 42.5238 55.6907 41.6083 54.3572 40.9616C53.0237 40.314 51.4817 40.0012 49.7321 40.0012H39V65H43.8748V55.5584H43.8758ZM43.8758 44.0629H49.4116C50.2333 44.0629 50.9469 44.2198 51.5544 44.5097C52.1733 44.8225 52.6497 45.2462 52.9826 45.8049C53.3155 46.3626 53.4829 47.0102 53.4829 47.7688C53.4829 48.5274 53.3164 49.175 52.9826 49.7556C52.6487 50.3133 52.1733 50.7381 51.5544 51.0499C50.9469 51.3618 50.2333 51.4967 49.4116 51.4967H43.8758V44.0639V44.0629Z" fill="white"/>
<path d="M82.9233 46.0718C81.8634 44.1748 80.3931 42.6787 78.5124 41.6073C76.6433 40.5359 74.5244 40.0002 72.1559 40.0002H62.6387V64.999H72.1559C74.5244 64.999 76.6433 64.4633 78.5124 63.3919C80.3931 62.3205 81.8634 60.8474 82.9233 58.9504C83.9823 57.0305 84.5122 54.8878 84.5122 52.5001C84.5122 50.1124 83.9823 47.9687 82.9233 46.0718ZM78.6024 56.9196C77.9949 58.1699 77.1321 59.1284 76.0129 59.776C74.8936 60.4466 73.5898 60.7804 72.1023 60.7804H67.5135V44.2188H72.1023C73.5898 44.2188 74.8936 44.5536 76.0129 45.2223C77.1321 45.8699 77.9949 46.8304 78.6024 48.0797C79.2098 49.3299 79.513 50.8021 79.513 52.4991C79.513 54.1961 79.2098 55.6684 78.6024 56.9186V56.9196Z" fill="white"/>
<path d="M67 84H39V89H67V84Z" fill="white"/>
</g>
<defs>
<filter id="filter0_d_4372_12628" x="9.5" y="10.75" width="109" height="109" filterUnits="userSpaceOnUse" color-interpolation-filters="sRGB">
<feFlood flood-opacity="0" result="BackgroundImageFix"/>
<feColorMatrix in="SourceAlpha" type="matrix" values="0 0 0 0 0 0 0 0 0 0 0 0 0 0 0 0 0 0 127 0" result="hardAlpha"/>
<feOffset dy="1.25"/>
<feGaussianBlur stdDeviation="1.25"/>
<feColorMatrix type="matrix" values="0 0 0 0 0 0 0 0 0 0 0 0 0 0 0 0 0 0 0.3 0"/>
<feBlend mode="normal" in2="BackgroundImageFix" result="effect1_dropShadow_4372_12628"/>
<feBlend mode="normal" in="SourceGraphic" in2="effect1_dropShadow_4372_12628" result="shape"/>
</filter>
<linearGradient id="paint0_linear_4372_12628" x1="97.0909" y1="113.335" x2="97.0909" y2="50.5972" gradientUnits="userSpaceOnUse">
<stop offset="0.21" stop-color="#007DFE"/>
<stop offset="0.8" stop-color="#FFB700"/>
</linearGradient>
<linearGradient id="paint1_linear_4372_12628" x1="112.906" y1="15.1143" x2="15.8489" y2="112.172" gradientUnits="userSpaceOnUse">
<stop offset="0.17" stop-color="#FFB700"/>
<stop offset="0.83" stop-color="#FF0A67"/>
</linearGradient>
</defs>
</svg>
