<svg width="64" height="64" viewBox="0 0 64 64" fill="none" xmlns="http://www.w3.org/2000/svg">
<g filter="url(#filter0_d_6179_27268)">
<path d="M39.0909 58H46C52.6274 58 58 52.6274 58 46L58 24.9091H39.0909V58Z" fill="url(#paint0_linear_6179_27268)"/>
<path d="M6.00013 24.9092L34.3638 24.9092V6.00009L18.0001 6.00009C11.3727 6.00009 6.00013 11.3727 6.00013 18.0001V24.9092Z" fill="#007DFE"/>
<path d="M6.00051 45.9995C6.00023 52.6271 11.3729 58 18.0005 58H39.0904L58 24.9091V18C58 11.3726 52.6274 6 46 6H34.3636L6.00142 24.9294L6.00051 45.9995Z" fill="url(#paint1_linear_6179_27268)"/>
<path d="M49 15H15V49H49V15Z" fill="black"/>
<path d="M22.4379 27.7791H24.5414L27.2324 32.4999H30.0271L27.0511 27.493C27.2496 27.4299 27.4605 27.384 27.6432 27.2993C28.3219 26.9645 28.8428 26.5068 29.2058 25.9156C29.5746 25.324 29.7592 24.6433 29.7592 23.8618C29.7592 23.0803 29.5775 22.4221 29.2144 21.8419C28.8571 21.2618 28.3454 20.804 27.6786 20.4807C27.0119 20.1569 26.2408 20.0005 25.366 20.0005H20V32.4999H22.4374V27.7791H22.4379ZM22.4379 22.0313H25.2058C25.6167 22.0313 25.9735 22.1098 26.2772 22.2547C26.5866 22.4111 26.8248 22.623 26.9913 22.9023C27.1577 23.1812 27.2414 23.505 27.2414 23.8843C27.2414 24.2636 27.1582 24.5874 26.9913 24.8777C26.8244 25.1565 26.5866 25.3689 26.2772 25.5248C25.9735 25.6808 25.6167 25.7482 25.2058 25.7482H22.4379V22.0318V22.0313Z" fill="white"/>
<path d="M42.1423 23.0358C41.6124 22.0873 40.8772 21.3392 39.9369 20.8035C39.0023 20.2678 37.9429 20 36.7586 20H32V32.4994H36.7586C37.9429 32.4994 39.0023 32.2315 39.9369 31.6958C40.8772 31.1601 41.6124 30.4236 42.1423 29.4751C42.6718 28.5152 42.9368 27.4438 42.9368 26.2499C42.9368 25.0561 42.6718 23.9842 42.1423 23.0358ZM39.9818 28.4597C39.6781 29.0848 39.2467 29.5641 38.6871 29.8879C38.1275 30.2232 37.4756 30.3901 36.7318 30.3901H34.4374V22.1093H36.7318C37.4756 22.1093 38.1275 22.2767 38.6871 22.611C39.2467 22.9348 39.6781 23.4151 39.9818 24.0397C40.2856 24.6648 40.4372 25.4009 40.4372 26.2495C40.4372 27.098 40.2856 27.8341 39.9818 28.4592V28.4597Z" fill="white"/>
<path d="M34 41.5H20V44H34V41.5Z" fill="white"/>
</g>
<defs>
<filter id="filter0_d_6179_27268" x="4.75" y="5.35" width="54.5" height="54.5" filterUnits="userSpaceOnUse" color-interpolation-filters="sRGB">
<feFlood flood-opacity="0" result="BackgroundImageFix"/>
<feColorMatrix in="SourceAlpha" type="matrix" values="0 0 0 0 0 0 0 0 0 0 0 0 0 0 0 0 0 0 127 0" result="hardAlpha"/>
<feOffset dy="0.6"/>
<feGaussianBlur stdDeviation="0.625"/>
<feColorMatrix type="matrix" values="0 0 0 0 0 0 0 0 0 0 0 0 0 0 0 0 0 0 0.3 0"/>
<feBlend mode="normal" in2="BackgroundImageFix" result="effect1_dropShadow_6179_27268"/>
<feBlend mode="normal" in="SourceGraphic" in2="effect1_dropShadow_6179_27268" result="shape"/>
</filter>
<linearGradient id="paint0_linear_6179_27268" x1="48.5455" y1="56.6674" x2="48.5455" y2="25.2986" gradientUnits="userSpaceOnUse">
<stop offset="0.21" stop-color="#007DFE"/>
<stop offset="0.8" stop-color="#FFB700"/>
</linearGradient>
<linearGradient id="paint1_linear_6179_27268" x1="56.4532" y1="7.55716" x2="7.92447" y2="56.0859" gradientUnits="userSpaceOnUse">
<stop offset="0.17" stop-color="#FFB700"/>
<stop offset="0.83" stop-color="#FF0A67"/>
</linearGradient>
</defs>
</svg>
