<svg width="64" height="64" viewBox="0 0 64 64" fill="none" xmlns="http://www.w3.org/2000/svg">
<g clip-path="url(#clip0_4372_11676)">
<path d="M64 59.9275V25.9592C64 24.3301 63.0289 22.8575 61.5319 22.2157L24.0413 6.14767C23.5345 5.93065 22.9882 5.81836 22.4367 5.81836H4.07273C1.82342 5.81836 0 7.64178 0 9.89109V27.8571C0 28.6617 0.238545 29.4483 0.685382 30.118L22.0887 62.1866C22.8439 63.3189 24.1152 63.9984 25.4761 63.9984L59.9273 64.0002C62.1766 64.0002 64 62.1768 64 59.9275Z" fill="url(#paint0_linear_4372_11676)"/>
<path d="M58.1818 14.5193V4.07273C58.1818 1.82342 56.3584 0 54.1091 0H41.0164C40.8239 0 40.6313 0.0139636 40.4404 0.0407273L3.49673 5.3184C1.49004 5.60465 0 7.32334 0 9.34982V25.0228C0 27.2727 1.824 29.0961 4.07389 29.0956L22.6124 29.0909C23.0499 29.0909 23.4845 29.0205 23.8993 28.882L55.3972 18.3825C57.0601 17.8281 58.1818 16.2717 58.1818 14.5187V14.5193Z" fill="url(#paint1_linear_4372_11676)"/>
<path d="M58.1812 15.9476L58.1795 4.07215C58.1795 1.82342 56.3561 0 54.1068 0H42.6001C41.4115 0 40.2816 0.519564 39.5078 1.42196L6.79854 39.5834C6.1661 40.3217 5.81818 41.262 5.81818 42.2342V54.1097C5.81818 56.359 7.64159 58.1824 9.8909 58.1824H21.3993C22.5879 58.1824 23.7178 57.6628 24.4916 56.7604L57.2009 18.599C57.8339 17.8607 58.1812 16.9204 58.1812 15.9476Z" fill="#FF318C"/>
<path d="M52 12H12V52H52V12Z" fill="black"/>
<path d="M23.9358 32.1654C22.5066 32.1654 21.2124 31.8305 20.0529 31.1625C18.8941 30.4865 17.9838 29.5625 17.3221 28.3894C16.6609 27.2094 16.3301 25.8934 16.3301 24.4425C16.3301 22.9916 16.6609 21.6796 17.3221 20.5065C17.9832 19.3265 18.8935 18.4014 20.0529 17.7334C21.2118 17.0574 22.5061 16.7202 23.9358 16.7202C25.1444 16.7202 26.2541 16.9442 27.2638 17.3922C28.2735 17.8402 29.1124 18.4694 29.7809 19.2802C30.4564 20.0842 30.9078 21.0082 31.1358 22.0534H28.0849C27.8855 21.5134 27.5872 21.0402 27.1889 20.6345C26.7975 20.2225 26.3249 19.9054 25.7701 19.6854C25.2152 19.4654 24.6107 19.3545 23.9569 19.3545C23.0752 19.3545 22.2786 19.5745 21.5678 20.0156C20.8569 20.4568 20.2987 21.0648 19.8929 21.8396C19.4946 22.6076 19.2958 23.4756 19.2958 24.4425C19.2958 25.4094 19.4946 26.2814 19.8929 27.0556C20.2981 27.8236 20.8564 28.4276 21.5678 28.8688C22.2786 29.3099 23.0752 29.5299 23.9569 29.5299C24.6112 29.5299 25.2158 29.4191 25.7701 29.1991C26.3249 28.9791 26.7975 28.6659 27.1889 28.2602C27.5872 27.8482 27.8855 27.3711 28.0849 26.8311H31.1358C30.9084 27.8762 30.4564 28.8042 29.7809 29.6151C29.1124 30.4191 28.2735 31.0442 27.2638 31.4922C26.2541 31.9402 25.1444 32.1642 23.9358 32.1642V32.1654ZM36.1306 16.9756V29.2848H43.2135V31.9088H33.2295V16.9756H36.1306Z" fill="white"/>
<path d="M33 44H17V47H33V44Z" fill="white"/>
</g>
<defs>
<linearGradient id="paint0_linear_4372_11676" x1="3.98138" y1="4.22243" x2="62.6868" y2="62.9273" gradientUnits="userSpaceOnUse">
<stop offset="0.29" stop-color="#009AE5"/>
<stop offset="0.7" stop-color="#00D980"/>
</linearGradient>
<linearGradient id="paint1_linear_4372_11676" x1="56.3788" y1="-0.71738" x2="2.75258" y2="24.1455" gradientUnits="userSpaceOnUse">
<stop offset="0.3" stop-color="#FF318C"/>
<stop offset="0.54" stop-color="#009AE5"/>
</linearGradient>
<clipPath id="clip0_4372_11676">
<rect width="64" height="64" fill="white"/>
</clipPath>
</defs>
<path d="M8 46C8 43.7909 9.79086 42 12 42H60C62.2091 42 64 43.7909 64 46V60C64 62.2091 62.2091 64 60 64H12C9.79086 64 8 62.2091 8 60V46Z" fill="#FFC94D"/>
<path d="M64 60C64 62.2091 62.2091 64 60 64H12C9.79086 64 8 62.2091 8 60L8.00488 60.165C8.11223 61.8557 9.86004 63.2002 12 63.2002H60C62.2091 63.2002 64 61.7673 64 60Z" fill="#7D7C7C"/>
<path d="M33 48H36.8443C37.4775 48 38.0322 48.1286 38.5082 48.3857C38.9842 48.6429 39.3519 49.0071 39.6111 49.4786C39.8704 49.95 40 50.4929 40 51.1071C40 51.731 39.8682 52.281 39.6047 52.7571C39.3412 53.2286 38.9672 53.5952 38.4827 53.8571C38.0024 54.119 37.4393 54.25 36.7933 54.25H34.7851V58H33V48ZM36.7231 52.5929C37.0121 52.5929 37.265 52.5333 37.4818 52.4143C37.6985 52.2952 37.8643 52.1238 37.9791 51.9C38.0981 51.6762 38.1576 51.4143 38.1576 51.1143C38.1576 50.819 38.0981 50.5619 37.9791 50.3429C37.8643 50.1238 37.6985 49.9548 37.4818 49.8357C37.265 49.7167 37.0121 49.6571 36.7231 49.6571H34.7851V52.5929H36.7231Z" fill="black"/>
<path d="M26.1455 48H28.3372L32.0839 58H30.0514L29.2413 55.7H25.3282L24.5759 58H22.5L26.1455 48ZM28.7133 54.1571L27.3679 50.4L27.216 49.7643L27.0714 50.4L25.8128 54.1571H28.7133Z" fill="black"/>
<path d="M14 48H20.8649V49.7571H15.8446V52.1214H20.4054V53.8357H15.8446V56.2429H21V58H14V48Z" fill="black"/>
<path d="M43 42H60C62.2091 42 64 43.7909 64 46V60C64 62.2091 62.2091 64 60 64H43V42Z" fill="white"/>
<path d="M60 42C62.2091 42 64 43.7909 64 46V60C64 62.2091 62.2091 64 60 64H43V63.2002H60C61.712 63.2002 63.1104 61.8557 63.1963 60.165L63.2002 60V46C63.2002 43.7909 61.7673 42 60 42Z" fill="#7D7C7C"/>
<path d="M60.0002 59H57.614C57.614 52.5983 52.4145 47.3902 46.0234 47.3902V45C53.7302 45 60.0002 51.2804 60.0002 59Z" fill="#1A1A1A"/>
<path d="M55.945 59.0001H53.5476C53.5476 54.8314 50.1617 51.44 46 51.44V49.0386C51.4837 49.0386 55.945 53.5073 55.945 59.0001Z" fill="#1A1A1A"/>
<path d="M51.9132 58.9992H49.4889C49.4889 57.0722 47.9238 55.5045 46 55.5045V53.0762C49.2606 53.0762 51.9132 55.7333 51.9132 58.9992Z" fill="#1A1A1A"/>
</svg>