<svg width="32" height="32" viewBox="0 0 32 32" fill="none" xmlns="http://www.w3.org/2000/svg" data-scaled="true">
<g clip-path="url(#clip0_4372_11674)">
<path d="M32 29.9637V12.9796C32 12.165 31.5145 11.4287 30.766 11.1079L12.0207 3.07383C11.7673 2.96533 11.4941 2.90918 11.2183 2.90918H2.03636C0.911709 2.90918 0 3.82089 0 4.94554V13.9285C0 14.3309 0.119273 14.7242 0.342691 15.059L11.0444 31.0933C11.422 31.6594 12.0576 31.9992 12.738 31.9992L29.9636 32.0001C31.0883 32.0001 32 31.0884 32 29.9637Z" fill="url(#paint0_linear_4372_11674)"/>
<path d="M29.0909 7.25964V2.03636C29.0909 0.911709 28.1792 0 27.0545 0H20.5082C20.4119 0 20.3156 0.00698182 20.2202 0.0203636L1.74836 2.6592C0.745018 2.80233 0 3.66167 0 4.67491V12.5114C0 13.6364 0.912 14.5481 2.03695 14.5478L11.3062 14.5455C11.5249 14.5455 11.7423 14.5103 11.9497 14.441L27.6986 9.19127C28.53 8.91404 29.0909 8.13585 29.0909 7.25935V7.25964Z" fill="url(#paint1_linear_4372_11674)"/>
<path d="M29.0906 7.97382L29.0898 2.03607C29.0898 0.911709 28.1781 0 27.0534 0H21.3001C20.7058 0 20.1408 0.259782 19.7539 0.710982L3.3993 19.7917C3.08308 20.1609 2.90912 20.631 2.90912 21.1171V27.0548C2.90912 28.1795 3.82083 29.0912 4.94548 29.0912H10.6997C11.294 29.0912 11.8589 28.8314 12.2458 28.3802L28.6005 9.29949C28.917 8.93033 29.0906 8.46022 29.0906 7.97382Z" fill="#FF318C"/>
<path d="M26 6H6V26H26V6Z" fill="black"/>
<path d="M16 22H9V23H16V22Z" fill="white"/>
<path d="M12.1202 16.4628C11.4057 16.4628 10.7585 16.2954 10.1788 15.9614C9.59938 15.6234 9.14424 15.1614 8.81338 14.5748C8.48281 13.9848 8.31738 13.3268 8.31738 12.6014C8.31738 11.8759 8.48281 11.2199 8.81338 10.6334C9.14395 10.0434 9.5991 9.58081 10.1788 9.24681C10.7582 8.90881 11.4054 8.74023 12.1202 8.74023C12.7245 8.74023 13.2794 8.85223 13.7842 9.07623C14.2891 9.30023 14.7085 9.61481 15.0428 10.0202C15.3805 10.4222 15.6062 10.8842 15.7202 11.4068H14.1948C14.0951 11.1368 13.946 10.9002 13.7468 10.6974C13.5511 10.4914 13.3148 10.3328 13.0374 10.2228C12.76 10.1128 12.4577 10.0574 12.1308 10.0574C11.69 10.0574 11.2917 10.1674 10.9362 10.3879C10.5808 10.6085 10.3017 10.9125 10.0988 11.2999C9.89967 11.6839 9.80024 12.1179 9.80024 12.6014C9.80024 13.0848 9.89967 13.5208 10.0988 13.9079C10.3014 14.2919 10.5805 14.5939 10.9362 14.8145C11.2917 15.0351 11.69 15.1451 12.1308 15.1451C12.458 15.1451 12.7602 15.0897 13.0374 14.9797C13.3148 14.8697 13.5511 14.7131 13.7468 14.5102C13.946 14.3042 14.0951 14.0657 14.1948 13.7957H15.7202C15.6065 14.3182 15.3805 14.7822 15.0428 15.1877C14.7085 15.5897 14.2891 15.9022 13.7842 16.1262C13.2794 16.3502 12.7245 16.4622 12.1202 16.4622V16.4628ZM18.2177 8.86795V15.0225H21.7591V16.3345H16.7671V8.86795H18.2177Z" fill="white"/>
</g>
<defs>
<linearGradient id="paint0_linear_4372_11674" x1="1.99069" y1="2.11122" x2="31.3434" y2="31.4637" gradientUnits="userSpaceOnUse">
<stop offset="0.29" stop-color="#009AE5"/>
<stop offset="0.7" stop-color="#00D980"/>
</linearGradient>
<linearGradient id="paint1_linear_4372_11674" x1="28.1894" y1="-0.35869" x2="1.37629" y2="12.0727" gradientUnits="userSpaceOnUse">
<stop offset="0.3" stop-color="#FF318C"/>
<stop offset="0.54" stop-color="#009AE5"/>
</linearGradient>
<clipPath id="clip0_4372_11674">
<rect width="32" height="32" fill="white"/>
</clipPath>
</defs>
<path d="M3 23C3 21.8954 3.89543 21 5 21H30C31.1046 21 32 21.8954 32 23V30C32 31.1046 31.1046 32 30 32H5C3.89543 32 3 31.1046 3 30V23Z" fill="#FFC94D"/>
<path d="M32 30C32 31.1046 31.1046 32 30 32H5C3.89543 32 3 31.1046 3 30L3.01074 30.1641C3.11346 30.9706 3.96469 31.5996 5 31.5996H30C31.1046 31.5996 32 30.8837 32 30Z" fill="#7D7C7C"/>
<path d="M16.2305 24H18.3005C18.6414 24 18.9401 24.0643 19.1964 24.1929C19.4527 24.3214 19.6507 24.5036 19.7903 24.7393C19.9299 24.975 19.9997 25.2464 19.9997 25.5536C19.9997 25.8655 19.9288 26.1405 19.7869 26.3786C19.645 26.6143 19.4436 26.7976 19.1827 26.9286C18.9241 27.0595 18.6209 27.125 18.273 27.125H17.1917V29H16.2305V24ZM18.2352 26.2964C18.3909 26.2964 18.527 26.2667 18.6437 26.2071C18.7605 26.1476 18.8497 26.0619 18.9115 25.95C18.9756 25.8381 19.0076 25.7071 19.0076 25.5571C19.0076 25.4095 18.9756 25.281 18.9115 25.1714C18.8497 25.0619 18.7605 24.9774 18.6437 24.9179C18.527 24.8583 18.3909 24.8286 18.2352 24.8286H17.1917V26.2964H18.2352Z" fill="black"/>
<path d="M12.4946 24H13.5905L15.4638 29H14.4476L14.0425 27.85H12.086L11.7098 29H10.6719L12.4946 24ZM13.7785 27.0786L13.1058 25.2L13.0299 24.8821L12.9576 25.2L12.3283 27.0786H13.7785Z" fill="black"/>
<path d="M6 24H9.67445V24.8786H6.98733V26.0607H9.42852V26.9179H6.98733V28.1214H9.74678V29H6V24Z" fill="black"/>
<path d="M21 21H30C31.1046 21 32 21.8954 32 23V30C32 31.1046 31.1046 32 30 32H21V21Z" fill="white"/>
<path d="M30 21C31.1046 21 32 21.8954 32 23V30C32 31.1046 31.1046 32 30 32H21V31.5996H30C30.8283 31.5996 31.5096 30.9707 31.5918 30.1641L31.5996 30V23C31.5996 21.8954 30.8837 21 30 21Z" fill="#7D7C7C"/>
<path d="M30.0001 30H28.807C28.807 26.7992 26.2072 24.1951 23.0117 24.1951V23C26.8651 23 30.0001 26.1402 30.0001 30Z" fill="#1A1A1A"/>
<path d="M27.9725 30.0003H26.7738C26.7738 27.916 25.0809 26.2202 23 26.2202V25.0195C25.7418 25.0195 27.9725 27.2539 27.9725 30.0003Z" fill="#1A1A1A"/>
<path d="M25.9566 29.9996H24.7445C24.7445 29.0361 23.9619 28.2523 23 28.2523V27.0381C24.6303 27.0381 25.9566 28.3666 25.9566 29.9996Z" fill="#1A1A1A"/>
</svg>