<svg width="32" height="32" viewBox="0 0 32 32" fill="none" xmlns="http://www.w3.org/2000/svg" data-scaled="true">
<g clip-path="url(#clip0_4372_11674)">
<path d="M32 29.9637V12.9796C32 12.165 31.5145 11.4287 30.766 11.1079L12.0207 3.07383C11.7673 2.96533 11.4941 2.90918 11.2183 2.90918H2.03636C0.911709 2.90918 0 3.82089 0 4.94554V13.9285C0 14.3309 0.119273 14.7242 0.342691 15.059L11.0444 31.0933C11.422 31.6594 12.0576 31.9992 12.738 31.9992L29.9636 32.0001C31.0883 32.0001 32 31.0884 32 29.9637Z" fill="url(#paint0_linear_4372_11674)"/>
<path d="M29.0909 7.25964V2.03636C29.0909 0.911709 28.1792 0 27.0545 0H20.5082C20.4119 0 20.3156 0.00698182 20.2202 0.0203636L1.74836 2.6592C0.745018 2.80233 0 3.66167 0 4.67491V12.5114C0 13.6364 0.912 14.5481 2.03695 14.5478L11.3062 14.5455C11.5249 14.5455 11.7423 14.5103 11.9497 14.441L27.6986 9.19127C28.53 8.91404 29.0909 8.13585 29.0909 7.25935V7.25964Z" fill="url(#paint1_linear_4372_11674)"/>
<path d="M29.0906 7.97382L29.0898 2.03607C29.0898 0.911709 28.1781 0 27.0534 0H21.3001C20.7058 0 20.1408 0.259782 19.7539 0.710982L3.3993 19.7917C3.08308 20.1609 2.90912 20.631 2.90912 21.1171V27.0548C2.90912 28.1795 3.82083 29.0912 4.94548 29.0912H10.6997C11.294 29.0912 11.8589 28.8314 12.2458 28.3802L28.6005 9.29949C28.917 8.93033 29.0906 8.46022 29.0906 7.97382Z" fill="#FF318C"/>
<path d="M26 6H6V26H26V6Z" fill="black"/>
<path d="M16 22H9V23H16V22Z" fill="white"/>
<path d="M12.1202 16.4628C11.4057 16.4628 10.7585 16.2954 10.1788 15.9614C9.59938 15.6234 9.14424 15.1614 8.81338 14.5748C8.48281 13.9848 8.31738 13.3268 8.31738 12.6014C8.31738 11.8759 8.48281 11.2199 8.81338 10.6334C9.14395 10.0434 9.5991 9.58081 10.1788 9.24681C10.7582 8.90881 11.4054 8.74023 12.1202 8.74023C12.7245 8.74023 13.2794 8.85223 13.7842 9.07623C14.2891 9.30023 14.7085 9.61481 15.0428 10.0202C15.3805 10.4222 15.6062 10.8842 15.7202 11.4068H14.1948C14.0951 11.1368 13.946 10.9002 13.7468 10.6974C13.5511 10.4914 13.3148 10.3328 13.0374 10.2228C12.76 10.1128 12.4577 10.0574 12.1308 10.0574C11.69 10.0574 11.2917 10.1674 10.9362 10.3879C10.5808 10.6085 10.3017 10.9125 10.0988 11.2999C9.89967 11.6839 9.80024 12.1179 9.80024 12.6014C9.80024 13.0848 9.89967 13.5208 10.0988 13.9079C10.3014 14.2919 10.5805 14.5939 10.9362 14.8145C11.2917 15.0351 11.69 15.1451 12.1308 15.1451C12.458 15.1451 12.7602 15.0897 13.0374 14.9797C13.3148 14.8697 13.5511 14.7131 13.7468 14.5102C13.946 14.3042 14.0951 14.0657 14.1948 13.7957H15.7202C15.6065 14.3182 15.3805 14.7822 15.0428 15.1877C14.7085 15.5897 14.2891 15.9022 13.7842 16.1262C13.2794 16.3502 12.7245 16.4622 12.1202 16.4622V16.4628ZM18.2177 8.86795V15.0225H21.7591V16.3345H16.7671V8.86795H18.2177Z" fill="white"/>
</g>
<defs>
<linearGradient id="paint0_linear_4372_11674" x1="1.99069" y1="2.11122" x2="31.3434" y2="31.4637" gradientUnits="userSpaceOnUse">
<stop offset="0.29" stop-color="#009AE5"/>
<stop offset="0.7" stop-color="#00D980"/>
</linearGradient>
<linearGradient id="paint1_linear_4372_11674" x1="28.1894" y1="-0.35869" x2="1.37629" y2="12.0727" gradientUnits="userSpaceOnUse">
<stop offset="0.3" stop-color="#FF318C"/>
<stop offset="0.54" stop-color="#009AE5"/>
</linearGradient>
<clipPath id="clip0_4372_11674">
<rect width="32" height="32" fill="white"/>
</clipPath>
</defs>
<path d="M8 23C8 21.8954 8.89543 21 10 21H30C31.1046 21 32 21.8954 32 23V30C32 31.1046 31.1046 32 30 32H10C8.89543 32 8 31.1046 8 30V23Z" fill="#FFC94D"/>
<path d="M32 30C32 31.1046 31.1046 32 30 32H10C8.89543 32 8 31.1046 8 30L8.01074 30.1641C8.11346 30.9706 8.96469 31.5996 10 31.5996H30C31.1046 31.5996 32 30.8837 32 30Z" fill="#7D7C7C"/>
<path d="M24 23H26.7459C27.1982 23 27.5944 23.09 27.9344 23.27C28.2744 23.45 28.537 23.705 28.7222 24.035C28.9074 24.365 29 24.745 29 25.175C29 25.6117 28.9059 25.9967 28.7177 26.33C28.5294 26.66 28.2623 26.9167 27.9162 27.1C27.5732 27.2833 27.1709 27.375 26.7095 27.375H25.275V30H24V23ZM26.6594 26.215C26.8658 26.215 27.0464 26.1733 27.2013 26.09C27.3561 26.0067 27.4745 25.8867 27.5565 25.73C27.6415 25.5733 27.684 25.39 27.684 25.18C27.684 24.9733 27.6415 24.7933 27.5565 24.64C27.4745 24.4867 27.3561 24.3683 27.2013 24.285C27.0464 24.2017 26.8658 24.16 26.6594 24.16H25.275V26.215H26.6594Z" fill="black"/>
<path d="M19.5519 23H21.086L23.7088 30H22.286L21.7189 28.39H18.9797L18.4531 30H17L19.5519 23ZM21.3493 27.31L20.4075 24.68L20.3012 24.235L20.2 24.68L19.319 27.31H21.3493Z" fill="black"/>
<path d="M11.5 23H16.6442V24.23H12.8823V25.885H16.2999V27.085H12.8823V28.77H16.7455V30H11.5V23Z" fill="black"/>
</svg>