<svg width="48" height="48" viewBox="0 0 48 48" fill="none" xmlns="http://www.w3.org/2000/svg">
<g clip-path="url(#clip0_4372_12352)">
<path d="M43.6365 11.9607L43.6352 3.05411C43.6348 1.36756 42.2672 0 40.5806 0H31.9507C31.0592 0 30.2118 0.389673 29.6314 1.06647L5.09904 29.6876C4.62471 30.2413 4.36377 30.9465 4.36377 31.6756V40.5823C4.36377 42.2692 5.73133 43.6368 7.41831 43.6368H16.0496C16.9411 43.6368 17.7885 43.2471 18.3689 42.5703L42.9008 13.9492C43.3756 13.3955 43.6361 12.6903 43.6361 11.9607H43.6365Z" fill="#D249FC"/>
<path d="M43.6364 10.8895V3.05455C43.6364 1.36756 42.2688 0 40.5818 0H30.7623C30.6179 0 30.4735 0.0104727 30.3303 0.0305455L2.62255 3.9888C1.11796 4.20349 0 5.49251 0 7.01236V18.7671C0 20.4545 1.368 21.8221 3.05542 21.8217L16.9593 21.8182C17.2874 21.8182 17.6134 21.7654 17.9245 21.6615L41.5479 13.7869C42.7951 13.3711 43.6364 12.2038 43.6364 10.889V10.8895Z" fill="url(#paint0_linear_4372_12352)"/>
<path d="M48 44.9456V19.4694C48 18.2476 47.2717 17.1431 46.1489 16.6618L18.031 4.61075C17.6509 4.44799 17.2412 4.36377 16.8275 4.36377H3.05455C1.36756 4.36377 0 5.73133 0 7.41831V20.8928C0 21.4963 0.178909 22.0862 0.514036 22.5885L16.5665 46.64C17.1329 47.4891 18.0864 47.9988 19.1071 47.9988L44.9455 48.0001C46.6324 48.0001 48 46.6326 48 44.9456Z" fill="url(#paint1_linear_4372_12352)"/>
<path d="M39 9H9V39H39V9Z" fill="black"/>
<path d="M25 33H13V35.0001H25V33Z" fill="white"/>
<path d="M13.0762 12.9967H17.7997C18.5698 12.9967 19.2485 13.1381 19.8354 13.4211C20.4224 13.704 20.8729 14.1019 21.1874 14.6155C21.507 15.1292 21.6669 15.7237 21.6669 16.3995C21.6669 17.0752 21.5044 17.6882 21.1798 18.207C20.8602 18.7257 20.4017 19.1294 19.8043 19.4174C19.2123 19.7004 18.5231 19.8418 17.7374 19.8418H15.2226V23.9995H13.077V12.9967H13.0762ZM17.6579 18.0583C18.0195 18.0583 18.3336 17.9926 18.601 17.8617C18.8734 17.7253 19.0831 17.5346 19.2296 17.2878C19.3761 17.0365 19.4498 16.7455 19.4498 16.4155C19.4498 16.0854 19.3765 15.7915 19.2296 15.5511C19.0826 15.3043 18.8734 15.1157 18.601 14.9852C18.3336 14.8488 18.0195 14.781 17.6579 14.781H15.2213V18.0583H17.6579ZM26.6145 24.1886C25.8074 24.1886 25.0819 24.0442 24.4373 23.7562C23.7927 23.4682 23.2871 23.0644 22.9204 22.5457C22.5536 22.0219 22.365 21.4249 22.3545 20.7538H24.5081C24.5081 21.0683 24.5999 21.3483 24.783 21.5946C24.9716 21.8354 25.2255 22.024 25.5455 22.1605C25.8701 22.2969 26.2373 22.3647 26.6457 22.3647C27.0334 22.3647 27.3791 22.3049 27.6831 22.184C27.9921 22.0581 28.2334 21.8855 28.406 21.6653C28.5791 21.4451 28.6654 21.1938 28.6654 20.9108C28.6654 20.5601 28.558 20.2662 28.3433 20.0304C28.1336 19.7896 27.8427 19.6326 27.4709 19.5589L25.2154 19.1265C24.6862 19.0271 24.2251 18.8385 23.8323 18.5606C23.4445 18.2777 23.146 17.927 22.9364 17.5076C22.7267 17.0832 22.6218 16.6117 22.6218 16.0929C22.6218 15.4534 22.7919 14.8854 23.1326 14.3873C23.4782 13.8893 23.9523 13.5023 24.5552 13.224C25.1628 12.9461 25.8465 12.8076 26.6065 12.8076C27.3665 12.8076 28.0578 12.944 28.6658 13.2164C29.2788 13.4884 29.7584 13.8686 30.104 14.3562C30.4552 14.8387 30.6333 15.3936 30.6383 16.0222H28.4927C28.4927 15.7502 28.4115 15.5085 28.249 15.2993C28.0919 15.09 27.8717 14.9271 27.5888 14.8122C27.3058 14.6913 26.9863 14.6315 26.6301 14.6315C26.2739 14.6315 25.9619 14.6896 25.679 14.8046C25.396 14.9195 25.1758 15.0795 25.0188 15.2841C24.8617 15.4837 24.783 15.7136 24.783 15.9759C24.783 16.2795 24.8799 16.5367 25.0739 16.746C25.2676 16.9502 25.5375 17.087 25.8836 17.1548L28.0683 17.5636C28.6186 17.663 29.1032 17.8651 29.5222 18.1686C29.9466 18.4722 30.2741 18.8524 30.5044 19.3084C30.7347 19.7593 30.8501 20.2515 30.8501 20.7858C30.8501 21.446 30.6695 22.0354 30.3078 22.5541C29.9461 23.0678 29.4434 23.4686 28.7988 23.7566C28.1542 24.0446 27.4258 24.189 26.6141 24.189L26.6145 24.1886Z" fill="white"/>
</g>
<defs>
<linearGradient id="paint0_linear_4372_12352" x1="42.2841" y1="-0.538036" x2="2.06444" y2="18.1095" gradientUnits="userSpaceOnUse">
<stop offset="0.16" stop-color="#D249FC"/>
<stop offset="0.55" stop-color="#FF2D90"/>
</linearGradient>
<linearGradient id="paint1_linear_4372_12352" x1="2.98647" y1="3.16682" x2="47.0151" y2="47.1959" gradientUnits="userSpaceOnUse">
<stop offset="0.3" stop-color="#FF2D90"/>
<stop offset="0.7" stop-color="#7256FF"/>
</linearGradient>
<clipPath id="clip0_4372_12352">
<rect width="48" height="48" fill="white"/>
</clipPath>
</defs>
</svg>
