<svg width="256" height="256" viewBox="0 0 256 256" fill="none" xmlns="http://www.w3.org/2000/svg">
<g clip-path="url(#clip0_6242_46862)">
<path d="M232.727 63.7905L232.721 16.2886C232.718 7.29367 225.425 0 216.43 0L170.403 0C165.649 0 161.129 2.07825 158.034 5.68785L27.1944 158.334C24.6647 161.287 23.2729 165.048 23.2729 168.937L23.2729 216.439C23.2729 225.436 30.5666 232.73 39.5639 232.73H85.5973C90.3519 232.73 94.8715 230.651 97.9668 227.042L228.804 74.3959C231.336 71.4426 232.725 67.6817 232.725 63.7905H232.727Z" fill="#D249FC"/>
<path d="M232.727 58.0771V16.2909C232.727 7.29367 225.434 0 216.436 0L164.066 0C163.295 0 162.525 0.0558545 161.762 0.162909L13.9869 21.2736C5.96247 22.4186 0 29.2934 0 37.3993L0 100.091C0 109.091 7.296 116.385 16.2956 116.382L90.4495 116.364C92.1996 116.364 93.938 116.082 95.5974 115.528L221.589 73.5302C228.24 71.3123 232.727 65.0868 232.727 58.0748V58.0771Z" fill="url(#paint0_linear_6242_46862)"/>
<path d="M256 239.709L256 103.836C256 97.3198 252.116 91.4295 246.128 88.8625L96.1652 24.5902C94.1382 23.7221 91.9529 23.2729 89.7466 23.2729L16.2909 23.2729C7.29367 23.2729 0 30.5666 0 39.5639L0 111.428C0 114.646 0.954182 117.793 2.74153 120.472L88.3549 248.746C91.3757 253.275 96.4608 255.993 101.904 255.993L239.709 256C248.706 256 256 248.707 256 239.709Z" fill="url(#paint1_linear_6242_46862)"/>
<path d="M209 47L47 47L47 209L209 209L209 47Z" fill="black"/>
<path d="M133 177H68V188H133V177Z" fill="white"/>
<path d="M69.0112 69.0183H94.9752C99.208 69.0183 102.939 69.8025 106.165 71.3711C109.391 72.9397 111.867 75.1455 113.596 77.9932C115.352 80.8409 116.232 84.1367 116.232 87.8831C116.232 91.6294 115.339 95.028 113.554 97.9037C111.798 100.779 109.277 103.018 105.994 104.614C102.74 106.183 98.9512 106.967 94.6327 106.967H80.8095L80.8095 130.017H69.0159L69.0159 69.0183H69.0112ZM94.1953 97.0797C96.1833 97.0797 97.9097 96.7156 99.3793 95.9896C100.877 95.2334 102.029 94.176 102.835 92.8082C103.64 91.4147 104.045 89.8017 104.045 87.9718C104.045 86.1418 103.642 84.5125 102.835 83.1797C102.027 81.8119 100.877 80.7662 99.3793 80.0426C97.9097 79.2863 96.1833 78.9105 94.1953 78.9105H80.8025V97.0797H94.1953ZM143.427 131.065C138.991 131.065 135.003 130.265 131.46 128.668C127.917 127.072 125.137 124.833 123.122 121.957C121.106 119.054 120.069 115.744 120.011 112.023H131.849C131.849 113.767 132.353 115.319 133.36 116.684C134.397 118.02 135.792 119.065 137.551 119.822C139.335 120.578 141.354 120.954 143.598 120.954C145.73 120.954 147.63 120.622 149.301 119.952C150.999 119.254 152.326 118.297 153.274 117.077C154.226 115.856 154.7 114.462 154.7 112.894C154.7 110.949 154.11 109.32 152.93 108.013C151.777 106.678 150.178 105.807 148.134 105.399L135.737 103.002C132.828 102.451 130.294 101.405 128.134 99.8644C126.003 98.2958 124.362 96.3514 123.209 94.0266C122.057 91.6738 121.481 89.0595 121.481 86.1838C121.481 82.6382 122.416 79.4894 124.288 76.728C126.188 73.9667 128.794 71.8216 132.108 70.2787C135.447 68.7382 139.206 67.9702 143.383 67.9702C147.56 67.9702 151.36 68.7265 154.702 70.2367C158.072 71.7446 160.708 73.8523 162.608 76.5553C164.538 79.2303 165.517 82.3067 165.545 85.7916H153.751C153.751 84.2838 153.304 82.9439 152.411 81.7839C151.548 80.6238 150.338 79.7205 148.782 79.0832C147.227 78.4133 145.471 78.0819 143.513 78.0819C141.555 78.0819 139.84 78.404 138.285 79.0412C136.73 79.6784 135.519 80.5654 134.656 81.6998C133.793 82.8062 133.36 84.0807 133.36 85.5349C133.36 87.2178 133.892 88.644 134.959 89.8041C136.024 90.9362 137.507 91.6948 139.409 92.0706L151.418 94.337C154.443 94.8879 157.107 96.0083 159.41 97.6913C161.742 99.3742 163.543 101.482 164.809 104.01C166.075 106.51 166.709 109.238 166.709 112.2C166.709 115.86 165.716 119.128 163.728 122.004C161.74 124.852 158.977 127.074 155.434 128.67C151.89 130.267 147.887 131.068 143.425 131.068L143.427 131.065Z" fill="white"/>
</g>
<defs>
<linearGradient id="paint0_linear_6242_46862" x1="225.515" y1="-2.86952" x2="11.0103" y2="96.5842" gradientUnits="userSpaceOnUse">
<stop offset="0.16" stop-color="#D249FC"/>
<stop offset="0.55" stop-color="#FF2D90"/>
</linearGradient>
<linearGradient id="paint1_linear_6242_46862" x1="15.9279" y1="16.8892" x2="250.747" y2="251.711" gradientUnits="userSpaceOnUse">
<stop offset="0.3" stop-color="#FF2D90"/>
<stop offset="0.7" stop-color="#7256FF"/>
</linearGradient>
<clipPath id="clip0_6242_46862">
<rect width="256" height="256" fill="white"/>
</clipPath>
</defs>
</svg>
