<svg width="128" height="128" viewBox="0 0 128 128" fill="none" xmlns="http://www.w3.org/2000/svg">
<g clip-path="url(#clip0_4372_12354)">
<path d="M116.364 31.8953L116.36 8.14429C116.359 3.64684 112.712 0 108.215 0H85.2013C82.824 0 80.5642 1.03913 79.0166 2.84393L13.597 79.1668C12.3321 80.6435 11.6362 82.5239 11.6362 84.4684V108.219C11.6362 112.718 15.2831 116.365 19.7817 116.365H42.7984C45.1757 116.365 47.4355 115.326 48.9831 113.521L114.402 37.198C115.668 35.7213 116.362 33.8409 116.362 31.8953H116.364Z" fill="#D249FC"/>
<path d="M116.364 29.0385V8.14545C116.364 3.64684 112.717 0 108.218 0H82.0329C81.6477 0 81.2626 0.0279273 80.8809 0.0814545L6.99345 10.6368C2.98124 11.2093 0 14.6467 0 18.6996V50.0457C0 54.5454 3.648 58.1923 8.14778 58.1911L45.2247 58.1818C46.0998 58.1818 46.969 58.041 47.7987 57.7641L110.794 36.7651C114.12 35.6561 116.364 32.5434 116.364 29.0374V29.0385Z" fill="url(#paint0_linear_4372_12354)"/>
<path d="M128 119.854V51.9178C128 48.6596 126.058 45.7145 123.064 44.431L48.0826 12.2948C47.0691 11.8608 45.9764 11.6362 44.8733 11.6362H8.14545C3.64684 11.6362 0 15.2831 0 19.7817V55.7136C0 57.3229 0.477091 58.8962 1.37076 60.2355L44.1775 124.373C45.6879 126.637 48.2304 127.996 50.9521 127.996L119.855 128C124.353 128 128 124.353 128 119.854Z" fill="url(#paint1_linear_4372_12354)"/>
<path d="M105 23H23V105H105V23Z" fill="black"/>
<path d="M66 89H34V94H66V89Z" fill="white"/>
<path d="M34.1416 33.9395H47.4524C49.6224 33.9395 51.535 34.3381 53.1889 35.1354C54.8428 35.9327 56.1124 37.0539 56.9986 38.5014C57.8992 39.9488 58.35 41.6241 58.35 43.5284C58.35 45.4326 57.892 47.1601 56.9773 48.6218C56.0768 50.0835 54.7847 51.2213 53.1011 52.0329C51.433 52.8302 49.4908 53.2288 47.2768 53.2288H40.1901V64.945H34.144V33.9395H34.1416ZM47.0526 48.203C48.0718 48.203 48.9568 48.0179 49.7102 47.6489C50.4779 47.2645 51.0687 46.7271 51.4816 46.0318C51.8945 45.3235 52.1021 44.5036 52.1021 43.5735C52.1021 42.6433 51.8957 41.8151 51.4816 41.1377C51.0676 40.4424 50.4779 39.9109 49.7102 39.5431C48.9568 39.1587 48.0718 38.9676 47.0526 38.9676H40.1866V48.203H47.0526ZM72.292 65.4778C70.0176 65.4778 67.9733 65.0708 66.1569 64.2593C64.3404 63.4477 62.9155 62.3099 61.8821 60.8482C60.8487 59.3723 60.3171 57.6899 60.2875 55.7987H66.3562C66.3562 56.685 66.6148 57.4739 67.1309 58.168C67.6625 58.8467 68.3779 59.3782 69.2796 59.7626C70.1944 60.147 71.229 60.338 72.3798 60.338C73.4725 60.338 74.4466 60.1696 75.3032 59.8291C76.1741 59.4743 76.8539 58.9879 77.3404 58.3673C77.828 57.7468 78.0712 57.0385 78.0712 56.2412C78.0712 55.2529 77.7687 54.4248 77.1636 53.7603C76.5727 53.0817 75.7529 52.6392 74.7053 52.4315L68.3494 51.213C66.8581 50.933 65.5589 50.4015 64.4519 49.6184C63.3592 48.8211 62.518 47.8328 61.9272 46.6511C61.3363 45.4552 61.0409 44.1263 61.0409 42.6646C61.0409 40.8624 61.5202 39.2619 62.48 37.8583C63.4541 36.4547 64.7901 35.3644 66.4891 34.5801C68.2011 33.7971 70.1279 33.4067 72.2695 33.4067C74.411 33.4067 76.3592 33.7911 78.0724 34.5588C79.7999 35.3252 81.1513 36.3966 82.1253 37.7705C83.1148 39.1302 83.6167 40.6939 83.631 42.4653H77.5848C77.5848 41.6989 77.3558 41.0178 76.8978 40.4282C76.4553 39.8385 75.8348 39.3793 75.0375 39.0554C74.2402 38.7149 73.3397 38.5465 72.3359 38.5465C71.3322 38.5465 70.453 38.7102 69.6557 39.0341C68.8584 39.358 68.2379 39.8088 67.7954 40.3855C67.3528 40.9478 67.1309 41.5956 67.1309 42.3348C67.1309 43.1902 67.4038 43.9152 67.9508 44.5048C68.4966 45.0803 69.2571 45.4659 70.2323 45.6569L76.3888 46.8089C77.9395 47.0889 79.3051 47.6584 80.4857 48.5139C81.6816 49.3693 82.6047 50.4407 83.2537 51.7256C83.9026 52.9963 84.2277 54.3832 84.2277 55.8888C84.2277 57.7492 83.7188 59.4102 82.6996 60.872C81.6804 62.3194 80.2638 63.4489 78.4473 64.2605C76.6309 65.072 74.5783 65.4789 72.2908 65.4789L72.292 65.4778Z" fill="white"/>
</g>
<defs>
<linearGradient id="paint0_linear_4372_12354" x1="112.758" y1="-1.43476" x2="5.50516" y2="48.2921" gradientUnits="userSpaceOnUse">
<stop offset="0.16" stop-color="#D249FC"/>
<stop offset="0.55" stop-color="#FF2D90"/>
</linearGradient>
<linearGradient id="paint1_linear_4372_12354" x1="7.96393" y1="8.44438" x2="125.374" y2="125.855" gradientUnits="userSpaceOnUse">
<stop offset="0.3" stop-color="#FF2D90"/>
<stop offset="0.7" stop-color="#7256FF"/>
</linearGradient>
<clipPath id="clip0_4372_12354">
<rect width="128" height="128" fill="white"/>
</clipPath>
</defs>
</svg>
