<svg width="24" height="24" viewBox="0 0 24 24" fill="none" xmlns="http://www.w3.org/2000/svg">
<g clip-path="url(#clip0_4372_12350)">
<path d="M21.818 5.98036L21.8173 1.52705C21.8171 0.683782 21.1333 0 20.2901 0H15.9751C15.5293 0 15.1056 0.194836 14.8155 0.533236L2.54928 14.8438C2.31211 15.1207 2.18164 15.4732 2.18164 15.8378V20.2911C2.18164 21.1346 2.86542 21.8184 3.70891 21.8184H8.02455C8.47029 21.8184 8.894 21.6236 9.18419 21.2852L21.4501 6.97462C21.6875 6.69775 21.8178 6.34516 21.8178 5.98036H21.818Z" fill="#D249FC"/>
<path d="M21.8182 5.44473V1.52727C21.8182 0.683782 21.1344 0 20.2909 0H15.3812C15.3089 0 15.2367 0.00523636 15.1652 0.0152727L1.31127 1.9944C0.558982 2.10175 0 2.74625 0 3.50618V9.38356C0 10.2273 0.684 10.9111 1.52771 10.9108L8.47964 10.9091C8.64371 10.9091 8.80669 10.8827 8.96225 10.8308L20.774 6.89345C21.3975 6.68553 21.8182 6.10189 21.8182 5.44451V5.44473Z" fill="url(#paint0_linear_4372_12350)"/>
<path d="M24 22.4725V9.73444C24 9.12353 23.6359 8.57131 23.0745 8.33066L9.01549 2.30513C8.82545 2.22375 8.62058 2.18164 8.41375 2.18164H1.52727C0.683782 2.18164 0 2.86542 0 3.70891V10.4461C0 10.7479 0.0894545 11.0429 0.257018 11.294L8.28327 23.3197C8.56647 23.7443 9.0432 23.9992 9.55353 23.9992L22.4727 23.9998C23.3162 23.9998 24 23.316 24 22.4725Z" fill="url(#paint1_linear_4372_12350)"/>
<path d="M20 4H4V20H20V4Z" fill="black"/>
<path d="M6.17383 6.10263H8.73817C9.15623 6.10263 9.52469 6.17943 9.84331 6.33303C10.1619 6.48663 10.4065 6.70263 10.5773 6.98149C10.7507 7.26034 10.8376 7.58309 10.8376 7.94994C10.8376 8.3168 10.7494 8.6496 10.5731 8.9312C10.3997 9.2128 10.1507 9.432 9.8264 9.58834C9.50503 9.74194 9.13086 9.81874 8.70434 9.81874H7.33909V12.0759H6.17429V6.10263H6.17383ZM8.66114 8.85051C8.85749 8.85051 9.028 8.81486 9.17314 8.74377C9.32103 8.66971 9.43486 8.56617 9.5144 8.43223C9.59394 8.29577 9.63394 8.13783 9.63394 7.95863C9.63394 7.77943 9.59417 7.61989 9.5144 7.48937C9.43463 7.35543 9.32103 7.25303 9.17314 7.18217C9.028 7.10811 8.85749 7.07131 8.66114 7.07131H7.3384V8.85051H8.66114ZM13.5235 12.1785C13.0854 12.1785 12.6915 12.1001 12.3416 11.9438C11.9917 11.7874 11.7171 11.5682 11.5181 11.2866C11.319 11.0023 11.2166 10.6782 11.2109 10.3138H12.38C12.38 10.4846 12.4298 10.6366 12.5293 10.7703C12.6317 10.901 12.7695 11.0034 12.9432 11.0775C13.1194 11.1515 13.3187 11.1883 13.5405 11.1883C13.751 11.1883 13.9386 11.1559 14.1037 11.0903C14.2714 11.0219 14.4024 10.9282 14.4961 10.8087C14.5901 10.6891 14.6369 10.5527 14.6369 10.3991C14.6369 10.2087 14.5786 10.0491 14.4621 9.92114C14.3482 9.7904 14.1903 9.70514 13.9885 9.66514L12.764 9.4304C12.4767 9.37646 12.2264 9.27406 12.0131 9.1232C11.8026 8.9696 11.6406 8.7792 11.5267 8.55154C11.4129 8.32114 11.356 8.06514 11.356 7.78354C11.356 7.43634 11.4483 7.128 11.6333 6.8576C11.8209 6.5872 12.0783 6.37714 12.4056 6.22606C12.7354 6.0752 13.1066 6 13.5192 6C13.9318 6 14.3071 6.07406 14.6371 6.22194C14.9699 6.3696 15.2303 6.576 15.4179 6.84069C15.6086 7.10263 15.7053 7.40389 15.708 7.74514H14.5432C14.5432 7.59749 14.4991 7.46629 14.4109 7.35269C14.3256 7.23909 14.2061 7.15063 14.0525 7.08823C13.8989 7.02263 13.7254 6.99017 13.532 6.99017C13.3386 6.99017 13.1693 7.02171 13.0157 7.08411C12.8621 7.14651 12.7425 7.23337 12.6573 7.34446C12.572 7.4528 12.5293 7.5776 12.5293 7.72C12.5293 7.8848 12.5818 8.02446 12.6872 8.13806C12.7923 8.24891 12.9389 8.3232 13.1267 8.36L14.3128 8.58194C14.6115 8.63589 14.8746 8.7456 15.1021 8.9104C15.3325 9.0752 15.5103 9.2816 15.6353 9.52914C15.7603 9.77394 15.823 10.0411 15.823 10.3312C15.823 10.6896 15.7249 11.0096 15.5286 11.2912C15.3322 11.5701 15.0593 11.7877 14.7094 11.944C14.3594 12.1003 13.964 12.1787 13.5233 12.1787L13.5235 12.1785Z" fill="white"/>
<path d="M12 17H6V18H12V17Z" fill="white"/>
</g>
<defs>
<linearGradient id="paint0_linear_4372_12350" x1="21.142" y1="-0.269018" x2="1.03222" y2="9.05476" gradientUnits="userSpaceOnUse">
<stop offset="0.16" stop-color="#D249FC"/>
<stop offset="0.55" stop-color="#FF2D90"/>
</linearGradient>
<linearGradient id="paint1_linear_4372_12350" x1="1.49324" y1="1.58317" x2="23.5076" y2="23.5977" gradientUnits="userSpaceOnUse">
<stop offset="0.3" stop-color="#FF2D90"/>
<stop offset="0.7" stop-color="#7256FF"/>
</linearGradient>
<clipPath id="clip0_4372_12350">
<rect width="24" height="24" fill="white"/>
</clipPath>
</defs>
</svg>
