<svg width="256" height="256" viewBox="0 0 256 256" fill="none" xmlns="http://www.w3.org/2000/svg">
<path d="M32 184C32 175.163 39.1634 168 48 168H240C248.837 168 256 175.163 256 184V240C256 248.837 248.837 256 240 256H48C39.1635 256 32 248.837 32 240V184Z" fill="#FFC94D"/>
<path d="M256 240C256 248.837 248.837 256 240 256H48C39.1634 256 32 248.837 32 240C32 247.18 39.1634 253 48 253H240C248.837 253 256 247.18 256 240Z" fill="#9B9A9A"/>
<path d="M133 192H148.377C150.91 192 153.129 192.514 155.033 193.543C156.937 194.571 158.407 196.029 159.444 197.914C160.481 199.8 161 201.971 161 204.429C161 206.924 160.473 209.124 159.419 211.029C158.365 212.914 156.869 214.381 154.931 215.429C153.01 216.476 150.757 217 148.173 217H140.14V232H133V192ZM147.893 210.371C149.049 210.371 150.06 210.133 150.927 209.657C151.794 209.181 152.457 208.495 152.916 207.6C153.392 206.705 153.63 205.657 153.63 204.457C153.63 203.276 153.392 202.248 152.916 201.371C152.457 200.495 151.794 199.819 150.927 199.343C150.06 198.867 149.049 198.629 147.893 198.629H140.14V210.371H147.893Z" fill="black"/>
<path d="M104.582 192H113.349L128.336 232H120.206L116.965 222.8H101.313L98.3037 232H90L104.582 192ZM114.853 216.629L109.472 201.6L108.864 199.057L108.285 201.6L103.251 216.629H114.853Z" fill="black"/>
<path d="M55.0117 192H84.4073V199.029H62.9103V208.486H82.4399V215.343H62.9103V224.971H84.986V232H55.0117V192Z" fill="black"/>
<path d="M172 168H240C248.837 168 256 175.163 256 184V240C256 248.837 248.837 256 240 256H172V168Z" fill="white"/>
<path d="M240.415 168.005C249.06 168.225 256 175.302 256 184V240C256 248.837 248.837 256 240 256H172V253H240C247.18 253 253 247.18 253 240V184C253 175.163 247.18 168 240 168C240.139 168 240.277 168.002 240.415 168.005Z" fill="#9B9A9A"/>
<path d="M242.001 238H232.456C232.456 212.393 211.658 191.561 186.094 191.561V182C216.921 182 242.001 207.122 242.001 238Z" fill="#1A1A1A"/>
<path d="M225.78 238H216.19C216.19 221.326 202.647 207.76 186 207.76V198.154C207.935 198.154 225.78 216.029 225.78 238Z" fill="#1A1A1A"/>
<path d="M209.653 237.997H199.956C199.956 230.289 193.695 224.018 186 224.018V214.305C199.042 214.305 209.653 224.933 209.653 237.997Z" fill="#1A1A1A"/>
</svg>
