<svg width="48" height="48" viewBox="0 0 48 48" fill="none" xmlns="http://www.w3.org/2000/svg">
<path d="M6 34C6 32.3431 7.34315 31 9 31H45C46.6569 31 48 32.3431 48 34V45C48 46.6569 46.6569 48 45 48H9C7.34315 48 6 46.6569 6 45V34Z" fill="#FFC94D"/>
<path d="M48 45C48 46.6569 46.6569 48 45 48H9C7.34315 48 6 46.6569 6 45L6.00391 45.123C6.08397 46.3913 7.39473 47.4004 9 47.4004H45C46.6569 47.4004 48 46.3255 48 45Z" fill="#7D7C7C"/>
<path d="M25 35H27.7459C28.1982 35 28.5944 35.1029 28.9344 35.3086C29.2744 35.5143 29.537 35.8057 29.7222 36.1829C29.9074 36.56 30 36.9943 30 37.4857C30 37.9848 29.9059 38.4248 29.7177 38.8057C29.5294 39.1829 29.2623 39.4762 28.9162 39.6857C28.5732 39.8952 28.1709 40 27.7095 40H26.275V43H25V35ZM27.6594 38.6743C27.8658 38.6743 28.0464 38.6267 28.2013 38.5314C28.3561 38.4362 28.4745 38.299 28.5565 38.12C28.6415 37.941 28.684 37.7314 28.684 37.4914C28.684 37.2552 28.6415 37.0495 28.5565 36.8743C28.4745 36.699 28.3561 36.5638 28.2013 36.4686C28.0464 36.3733 27.8658 36.3257 27.6594 36.3257H26.275V38.6743H27.6594Z" fill="black"/>
<path d="M19.043 35H20.8725L24 43H22.3034L21.6272 41.16H18.3608L17.7328 43H16L19.043 35ZM21.1864 39.9257L20.0634 36.92L19.9366 36.4114L19.8158 36.92L18.7653 39.9257H21.1864Z" fill="black"/>
<path d="M10 35H14.9035V36.4057H11.3176V38.2971H14.5753V39.6686H11.3176V41.5943H15V43H10V35Z" fill="black"/>
<path d="M32 31H45C46.6569 31 48 32.3431 48 34V45C48 46.6569 46.6569 48 45 48H32V31Z" fill="white"/>
<path d="M45.1572 31.0039C46.741 31.0857 48 32.3959 48 34V45C48 46.6569 46.6569 48 45 48H32V47.4004H45C46.2427 47.4004 47.2649 46.4555 47.3877 45.2451L47.4004 45V34C47.4004 32.3431 46.3255 31 45 31L45.1572 31.0039Z" fill="#7D7C7C"/>
<path d="M44.9989 43.9999H43.2945C43.2945 39.4273 39.5806 35.7073 35.0156 35.7073V34C40.5204 34 44.9989 38.4859 44.9989 43.9999Z" fill="#1A1A1A"/>
<path d="M42.1035 44.0001H40.3911C40.3911 41.0225 37.9726 38.6 35 38.6V36.8848C38.9169 36.8848 42.1035 40.0767 42.1035 44.0001Z" fill="#1A1A1A"/>
<path d="M39.2237 43.9993H37.4921C37.4921 42.6229 36.3741 41.5031 35 41.5031V39.7686C37.3289 39.7686 39.2237 41.6664 39.2237 43.9993Z" fill="#1A1A1A"/>
</svg>
