<svg width="128" height="128" viewBox="0 0 128 128" fill="none" xmlns="http://www.w3.org/2000/svg">
<path d="M16 92C16 87.5817 19.5817 84 24 84H120C124.418 84 128 87.5817 128 92V120C128 124.418 124.418 128 120 128H24C19.5817 128 16 124.418 16 120V92Z" fill="#FFC94D"/>
<path d="M128 120C128 124.418 124.418 128 120 128H24C19.5817 128 16 124.418 16 120C16 123.535 19.5817 126.4 24 126.4H120C124.418 126.4 128 123.535 128 120Z" fill="#7D7C7C"/>
<path d="M66.5 96H74.1885C75.4551 96 76.5644 96.2571 77.5164 96.7714C78.4684 97.2857 79.2037 98.0143 79.7222 98.9571C80.2407 99.9 80.5 100.986 80.5 102.214C80.5 103.462 80.2365 104.562 79.7095 105.514C79.1824 106.457 78.4344 107.19 77.4654 107.714C76.5049 108.238 75.3786 108.5 74.0865 108.5H70.0701V116H66.5V96ZM73.9463 105.186C74.5243 105.186 75.0301 105.067 75.4636 104.829C75.8971 104.59 76.2286 104.248 76.4581 103.8C76.6961 103.352 76.8151 102.829 76.8151 102.229C76.8151 101.638 76.6961 101.124 76.4581 100.686C76.2286 100.248 75.8971 99.9095 75.4636 99.6714C75.0301 99.4333 74.5243 99.3143 73.9463 99.3143H70.0701V105.186H73.9463Z" fill="black"/>
<path d="M52.291 96H56.6743L64.1679 116H60.1029L58.4826 111.4H50.6563L49.1518 116H45L52.291 96ZM57.4266 108.314L54.7358 100.8L54.432 99.5286L54.1427 100.8L51.6256 108.314H57.4266Z" fill="black"/>
<path d="M27.5059 96H42.2037V99.5143H31.4552V104.243H41.2199V107.671H31.4552V112.486H42.493V116H27.5059V96Z" fill="black"/>
<path d="M86 84H120C124.418 84 128 87.5817 128 92V120C128 124.418 124.418 128 120 128H86V84Z" fill="white"/>
<path d="M120 84C124.418 84 128 87.5817 128 92V120C128 124.418 124.418 128 120 128H86V126.4H120C123.424 126.4 126.22 123.711 126.392 120.329L126.4 120V92C126.4 87.5817 123.535 84 120 84Z" fill="#7D7C7C"/>
<path d="M120.5 119H115.728C115.728 106.197 105.329 95.7804 92.5469 95.7804V91C107.96 91 120.5 103.561 120.5 119Z" fill="#1A1A1A"/>
<path d="M112.39 119H107.595C107.595 110.663 100.823 103.88 92.5 103.88V99.0771C103.467 99.0771 112.39 108.015 112.39 119Z" fill="#1A1A1A"/>
<path d="M104.326 118.998H99.4779C99.4779 115.144 96.3476 112.009 92.5 112.009V107.152C99.0211 107.152 104.326 112.467 104.326 118.998Z" fill="#1A1A1A"/>
</svg>
