<svg width="64" height="64" viewBox="0 0 64 64" fill="none" xmlns="http://www.w3.org/2000/svg">
<path d="M8 46C8 43.7909 9.79086 42 12 42H60C62.2091 42 64 43.7909 64 46V60C64 62.2091 62.2091 64 60 64H12C9.79086 64 8 62.2091 8 60V46Z" fill="#FFC94D"/>
<path d="M64 60C64 62.2091 62.2091 64 60 64H12C9.79086 64 8 62.2091 8 60L8.00488 60.165C8.11223 61.8557 9.86004 63.2002 12 63.2002H60C62.2091 63.2002 64 61.7673 64 60Z" fill="#7D7C7C"/>
<path d="M33 48H36.8443C37.4775 48 38.0322 48.1286 38.5082 48.3857C38.9842 48.6429 39.3519 49.0071 39.6111 49.4786C39.8704 49.95 40 50.4929 40 51.1071C40 51.731 39.8682 52.281 39.6047 52.7571C39.3412 53.2286 38.9672 53.5952 38.4827 53.8571C38.0024 54.119 37.4393 54.25 36.7933 54.25H34.7851V58H33V48ZM36.7231 52.5929C37.0121 52.5929 37.265 52.5333 37.4818 52.4143C37.6985 52.2952 37.8643 52.1238 37.9791 51.9C38.0981 51.6762 38.1576 51.4143 38.1576 51.1143C38.1576 50.819 38.0981 50.5619 37.9791 50.3429C37.8643 50.1238 37.6985 49.9548 37.4818 49.8357C37.265 49.7167 37.0121 49.6571 36.7231 49.6571H34.7851V52.5929H36.7231Z" fill="black"/>
<path d="M26.1455 48H28.3372L32.0839 58H30.0514L29.2413 55.7H25.3282L24.5759 58H22.5L26.1455 48ZM28.7133 54.1571L27.3679 50.4L27.216 49.7643L27.0714 50.4L25.8128 54.1571H28.7133Z" fill="black"/>
<path d="M14 48H20.8649V49.7571H15.8446V52.1214H20.4054V53.8357H15.8446V56.2429H21V58H14V48Z" fill="black"/>
<path d="M43 42H60C62.2091 42 64 43.7909 64 46V60C64 62.2091 62.2091 64 60 64H43V42Z" fill="white"/>
<path d="M60 42C62.2091 42 64 43.7909 64 46V60C64 62.2091 62.2091 64 60 64H43V63.2002H60C61.712 63.2002 63.1104 61.8557 63.1963 60.165L63.2002 60V46C63.2002 43.7909 61.7673 42 60 42Z" fill="#7D7C7C"/>
<path d="M60.0002 59H57.614C57.614 52.5983 52.4145 47.3902 46.0234 47.3902V45C53.7302 45 60.0002 51.2804 60.0002 59Z" fill="#1A1A1A"/>
<path d="M55.945 59.0001H53.5476C53.5476 54.8314 50.1617 51.44 46 51.44V49.0386C51.4837 49.0386 55.945 53.5073 55.945 59.0001Z" fill="#1A1A1A"/>
<path d="M51.9132 58.9992H49.4889C49.4889 57.0722 47.9238 55.5045 46 55.5045V53.0762C49.2606 53.0762 51.9132 55.7333 51.9132 58.9992Z" fill="#1A1A1A"/>
</svg>
