<svg width="24" height="24" viewBox="0 0 24 24" fill="none" xmlns="http://www.w3.org/2000/svg">
<path d="M2 17.5C2 16.6716 2.67157 16 3.5 16H22.5C23.3284 16 24 16.6716 24 17.5V22.5C24 23.3284 23.3284 24 22.5 24H3.5C2.67157 24 2 23.3284 2 22.5V17.5Z" fill="#FFC94D"/>
<path d="M23.9941 22.623C23.9315 23.3939 23.287 24 22.5 24H3.5C2.71303 24 2.06848 23.3939 2.00586 22.623C2.00311 22.5823 2 22.5414 2 22.5L2.00781 22.623C2.08483 23.228 2.7235 23.7002 3.5 23.7002H22.5C23.3284 23.7002 24 23.1627 24 22.5L23.9941 22.623Z" fill="#7D7C7C"/>
<path d="M12 17H13.6475C13.9189 17 14.1566 17.0643 14.3607 17.1929C14.5647 17.3214 14.7222 17.5036 14.8333 17.7393C14.9444 17.975 15 18.2464 15 18.5536C15 18.8655 14.9435 19.1405 14.8306 19.3786C14.7177 19.6143 14.5574 19.7976 14.3497 19.9286C14.1439 20.0595 13.9025 20.125 13.6257 20.125H12.765V22H12V17ZM13.5956 19.2964C13.7195 19.2964 13.8279 19.2667 13.9208 19.2071C14.0137 19.1476 14.0847 19.0619 14.1339 18.95C14.1849 18.8381 14.2104 18.7071 14.2104 18.5571C14.2104 18.4095 14.1849 18.281 14.1339 18.1714C14.0847 18.0619 14.0137 17.9774 13.9208 17.9179C13.8279 17.8583 13.7195 17.8286 13.5956 17.8286H12.765V19.2964H13.5956Z" fill="black"/>
<path d="M8.90189 17H10.0453L12 22H10.9396L10.517 20.85H8.47547L8.08302 22H7L8.90189 17ZM10.2415 20.0786L9.53962 18.2L9.46038 17.8821L9.38491 18.2L8.7283 20.0786H10.2415Z" fill="black"/>
<path d="M4 17H6.94208V17.8786H4.79054V19.0607H6.74517V19.9179H4.79054V21.1214H7V22H4V17Z" fill="black"/>
<path d="M16 16H22.5C23.3284 16 24 16.6716 24 17.5V22.5C24 23.3284 23.3284 24 22.5 24H16V16Z" fill="white"/>
<path d="M22.6562 16.0078C23.4113 16.0859 24 16.7243 24 17.5V22.5C24 23.3284 23.3284 24 22.5 24H16V23.7002H22.5C23.1212 23.7002 23.6317 23.228 23.6934 22.623L23.7002 22.5V17.5C23.7002 16.6716 23.1627 16 22.5 16L22.6562 16.0078Z" fill="#7D7C7C"/>
<path d="M21.9994 21.9999H21.1472C21.1472 19.7136 19.2903 17.8536 17.0078 17.8536V17C19.7602 17 21.9994 19.243 21.9994 21.9999Z" fill="#1A1A1A"/>
<path d="M20.5517 22H19.6955C19.6955 20.5112 18.4863 19.3 17 19.3V18.4424C18.9584 18.4424 20.5517 20.0383 20.5517 22Z" fill="#1A1A1A"/>
<path d="M19.1118 21.9996H18.246C18.246 21.3114 17.6871 20.7515 17 20.7515V19.8843C18.1645 19.8843 19.1118 20.8332 19.1118 21.9996Z" fill="#1A1A1A"/>
</svg>
