<svg width="32" height="32" viewBox="0 0 32 32" fill="none" xmlns="http://www.w3.org/2000/svg">
<path d="M3 23C3 21.8954 3.89543 21 5 21H30C31.1046 21 32 21.8954 32 23V30C32 31.1046 31.1046 32 30 32H5C3.89543 32 3 31.1046 3 30V23Z" fill="#FFC94D"/>
<path d="M32 30C32 31.1046 31.1046 32 30 32H5C3.89543 32 3 31.1046 3 30L3.01074 30.1641C3.11346 30.9706 3.96469 31.5996 5 31.5996H30C31.1046 31.5996 32 30.8837 32 30Z" fill="#7D7C7C"/>
<path d="M16.2305 24H18.3005C18.6414 24 18.9401 24.0643 19.1964 24.1929C19.4527 24.3214 19.6507 24.5036 19.7903 24.7393C19.9299 24.975 19.9997 25.2464 19.9997 25.5536C19.9997 25.8655 19.9288 26.1405 19.7869 26.3786C19.645 26.6143 19.4436 26.7976 19.1827 26.9286C18.9241 27.0595 18.6209 27.125 18.273 27.125H17.1917V29H16.2305V24ZM18.2352 26.2964C18.3909 26.2964 18.527 26.2667 18.6437 26.2071C18.7605 26.1476 18.8497 26.0619 18.9115 25.95C18.9756 25.8381 19.0076 25.7071 19.0076 25.5571C19.0076 25.4095 18.9756 25.281 18.9115 25.1714C18.8497 25.0619 18.7605 24.9774 18.6437 24.9179C18.527 24.8583 18.3909 24.8286 18.2352 24.8286H17.1917V26.2964H18.2352Z" fill="black"/>
<path d="M12.4946 24H13.5905L15.4638 29H14.4476L14.0425 27.85H12.086L11.7098 29H10.6719L12.4946 24ZM13.7785 27.0786L13.1058 25.2L13.0299 24.8821L12.9576 25.2L12.3283 27.0786H13.7785Z" fill="black"/>
<path d="M6 24H9.67445V24.8786H6.98733V26.0607H9.42852V26.9179H6.98733V28.1214H9.74678V29H6V24Z" fill="black"/>
<path d="M21 21H30C31.1046 21 32 21.8954 32 23V30C32 31.1046 31.1046 32 30 32H21V21Z" fill="white"/>
<path d="M30 21C31.1046 21 32 21.8954 32 23V30C32 31.1046 31.1046 32 30 32H21V31.5996H30C30.8283 31.5996 31.5096 30.9707 31.5918 30.1641L31.5996 30V23C31.5996 21.8954 30.8837 21 30 21Z" fill="#7D7C7C"/>
<path d="M30.0001 30H28.807C28.807 26.7992 26.2072 24.1951 23.0117 24.1951V23C26.8651 23 30.0001 26.1402 30.0001 30Z" fill="#1A1A1A"/>
<path d="M27.9725 30.0003H26.7738C26.7738 27.916 25.0809 26.2202 23 26.2202V25.0195C25.7418 25.0195 27.9725 27.2539 27.9725 30.0003Z" fill="#1A1A1A"/>
<path d="M25.9566 29.9996H24.7445C24.7445 29.0361 23.9619 28.2523 23 28.2523V27.0381C24.6303 27.0381 25.9566 28.3666 25.9566 29.9996Z" fill="#1A1A1A"/>
</svg>
