<svg xmlns="http://www.w3.org/2000/svg" xmlns:xlink="http://www.w3.org/1999/xlink" width="32" height="32" viewBox="0 0 32 32" data-scaled="true">
  <defs>
    <linearGradient id="a" x1="9.154" y1="29.752" x2="28.524" y2="2.102" gradientUnits="userSpaceOnUse">
      <stop offset="0" stop-color="#c27d1b"/>
      <stop offset="1" stop-color="#59bd28"/>
    </linearGradient>
    <linearGradient id="b" x1="31.55" y1="20.12" x2="8.989" y2="28.258" gradientUnits="userSpaceOnUse">
      <stop offset="0" stop-color="#4d75f6"/>
      <stop offset="1" stop-color="#ff9e00"/>
    </linearGradient>
    <linearGradient id="c" x1="1.922" y1="4.398" x2="26.387" y2="21.265" gradientUnits="userSpaceOnUse">
      <stop offset="0" stop-color="#ff4267"/>
      <stop offset="1" stop-color="#3b67f6"/>
    </linearGradient>
  </defs>
  <g>
    <polygon points="27.656 1.5 4.406 21.688 9.315 29.93 20.763 28.023 30.844 6.469 27.656 1.5" fill="url(#a)"/>
    <polygon points="29.831 16.535 17.563 18.219 9.315 29.93 17.875 32 32 21.219 29.831 16.535" fill="url(#b)"/>
    <polygon points="29.844 16.531 16 4 4.906 0 0 7.514 3.688 15.719 23.313 22.063 29.844 16.531" fill="url(#c)"/>
  </g>
  <g>
    <rect x="3" y="5" width="26" height="22"/>
    <rect x="5" y="22" width="6" height="2" fill="#fff"/>
    <path d="M16,7V9.178h.66a2.32,2.32,0,1,1,0,4.639H16v4.336h-.67a2.32,2.32,0,1,0,0,4.639H16V25H27V7Z" fill="#fff"/>
    <rect x="18" y="22" width="5" height="2"/>
  </g>
<path d="M28.0943 32H11.9057C11.3928 32 10.8849 31.8989 10.411 31.7026C9.93718 31.5064 9.50663 31.2188 9.14395 30.8561C8.78128 30.4934 8.49358 30.0628 8.2973 29.589C8.10102 29.1151 8 28.6073 8 28.0944V23.9056C8 23.3927 8.10102 22.8849 8.2973 22.411C8.49358 21.9372 8.78128 21.5066 9.14395 21.1439C9.50663 20.7812 9.93718 20.4935 10.411 20.2972C10.8849 20.101 11.3928 20 11.9057 20H28.0943C28.6072 20 29.1151 20.101 29.589 20.2972C30.0628 20.4935 30.4934 20.7812 30.856 21.1439C31.2187 21.5066 31.5064 21.9372 31.7027 22.411C31.899 22.8849 32 23.3927 32 23.9056V28.0944C32 29.1302 31.5885 30.1236 30.856 30.8561C30.1236 31.5885 29.1302 32 28.0943 32V32Z" fill="#FDB60D"/>
<path d="M12.4562 23.3781H16.5756V24.4473H13.6498V25.5551H16.2246V26.6238H13.6498V27.7708H16.6147V28.8395H12.4562V23.3781Z" fill="black"/>
<path d="M19.5557 23.3395H20.6635L23.0041 28.8395H21.748L21.2487 27.6147H18.9395L18.4402 28.8395H17.2156L19.5557 23.3395ZM20.8199 26.5537L20.0941 24.7825L19.3687 26.5537H20.8199Z" fill="black"/>
<path d="M23.8468 23.378H26.0782C26.3431 23.3466 26.6118 23.3722 26.866 23.4531C27.1203 23.534 27.3543 23.6684 27.5523 23.8473C27.7503 24.0261 27.9078 24.2453 28.0141 24.49C28.1205 24.7347 28.1732 24.9992 28.1689 25.266V25.2817C28.1666 25.5583 28.1056 25.8313 27.9899 26.0825C27.8742 26.3337 27.7064 26.5575 27.4977 26.739C27.289 26.9205 27.0441 27.0555 26.7792 27.1352C26.5144 27.2149 26.2356 27.2375 25.9614 27.2013H25.0486V28.8395H23.8468V23.378ZM26 26.1321C26.118 26.1471 26.238 26.1369 26.3519 26.1024C26.4658 26.0678 26.5711 26.0097 26.6609 25.9316C26.7508 25.8536 26.8232 25.7573 26.8733 25.6494C26.9234 25.5414 26.9502 25.4242 26.9518 25.3052V25.2894C26.9518 24.7515 26.5775 24.4625 25.9766 24.4625H25.0486V26.1321H26Z" fill="black"/>
</svg>