<svg width="256" height="256" viewBox="0 0 256 256" fill="none" xmlns="http://www.w3.org/2000/svg">
<path d="M23.2749 192.209L23.2819 239.711C23.2819 248.709 30.5756 256 39.5728 256H85.5993C90.3539 256 94.8734 253.922 97.9687 250.312L228.806 97.6663C231.335 94.713 232.727 90.9521 232.727 87.0633V39.5613C232.727 30.5641 225.433 23.2704 216.436 23.2704H170.403C165.648 23.2704 161.129 25.3487 158.033 28.9583L27.1964 181.604C24.6643 184.557 23.2749 188.318 23.2749 192.209Z" fill="#00D886"/>
<path d="M23.2729 197.923V239.709C23.2729 248.706 30.5666 256 39.5639 256H91.9345C92.7048 256 93.4751 255.944 94.2385 255.837L242.013 234.729C250.04 233.581 256 226.709 256 218.601V155.909C256 146.909 248.704 139.615 239.705 139.618L165.551 139.636C163.801 139.636 162.062 139.918 160.403 140.472L34.4113 182.47C27.7599 184.688 23.2729 190.913 23.2729 197.925V197.923Z" fill="url(#paint0_linear_11_19924)"/>
<path d="M0 16.2909V152.164C0 158.68 3.88422 164.571 9.87229 167.138L159.835 231.41C161.862 232.278 164.047 232.727 166.253 232.727H239.709C248.706 232.727 256 225.434 256 216.436V144.573C256 141.354 255.046 138.207 253.258 135.529L167.647 7.25411C164.624 2.72524 159.542 0.00698182 154.098 0.00698182L16.2909 0C7.29367 0 0 7.29367 0 16.2909Z" fill="url(#paint1_linear_11_19924)"/>
<path d="M209 47H47V209H209V47Z" fill="black"/>
<path d="M133 177H68V188H133V177Z" fill="white"/>
<path d="M68 68.8708H94.2795C98.5638 68.8708 102.34 69.6579 105.605 71.232C108.87 72.8061 111.377 75.0197 113.127 77.8774C114.905 80.7352 115.795 84.0426 115.795 87.8022C115.795 91.5618 114.89 94.9723 113.084 97.8582C111.307 100.744 108.756 102.99 105.432 104.593C102.138 106.167 98.3038 106.954 93.9329 106.954H79.9416V130.085H68.0047V68.8708H68ZM93.4902 97.0313C95.5023 97.0313 97.2497 96.6659 98.7372 95.9374C100.253 95.1785 101.419 94.1174 102.234 92.7447C103.05 91.3463 103.459 89.7277 103.459 87.8912C103.459 86.0548 103.052 84.4198 102.234 83.0822C101.417 81.7096 100.253 80.6602 98.7372 79.934C97.2497 79.1751 95.5023 78.798 93.4902 78.798H79.9346V97.0313H93.4902ZM150.362 131.137C144.503 131.137 139.198 129.764 134.445 127.026C129.692 124.255 125.963 120.467 123.251 115.658C120.54 110.821 119.184 105.427 119.184 99.4791C119.184 93.5318 120.54 88.1536 123.251 83.3446C125.961 78.5075 129.692 74.7151 134.445 71.9769C139.195 69.2058 144.501 67.8238 150.362 67.8238C155.316 67.8238 159.865 68.742 164.004 70.5784C168.143 72.4149 171.582 74.9939 174.322 78.3178C177.091 81.6136 178.941 85.4012 179.876 89.6855H167.37C166.552 87.4719 165.33 85.5324 163.697 83.8693C162.092 82.1804 160.155 80.8804 157.881 79.9786C155.606 79.0767 153.128 78.6223 150.448 78.6223C146.834 78.6223 143.569 79.5241 140.655 81.3325C137.738 83.1408 135.452 85.6331 133.789 88.8095C132.156 91.9577 131.341 95.5158 131.341 99.4791C131.341 103.443 132.156 107.017 133.789 110.191C135.45 113.339 137.738 115.815 140.655 117.623C143.569 119.432 146.834 120.334 150.448 120.334C153.13 120.334 155.609 119.879 157.881 118.977C160.153 118.076 162.092 116.792 163.697 115.129C165.33 113.44 166.552 111.484 167.37 109.27H179.876C178.944 113.555 177.091 117.359 174.322 120.683C171.582 123.978 168.143 126.541 164.004 128.378C159.865 130.214 155.316 131.132 150.362 131.132V131.137Z" fill="white"/>
<defs>
<linearGradient id="paint0_linear_11_19924" x1="30.4852" y1="258.87" x2="244.99" y2="159.416" gradientUnits="userSpaceOnUse">
<stop offset="0.1" stop-color="#00D886"/>
<stop offset="0.59" stop-color="#F0EB18"/>
</linearGradient>
<linearGradient id="paint1_linear_11_19924" x1="240.074" y1="239.111" x2="5.25267" y2="4.28917" gradientUnits="userSpaceOnUse">
<stop offset="0.3" stop-color="#F0EB18"/>
<stop offset="0.7" stop-color="#00C4F4"/>
</linearGradient>
</defs>
</svg>
