<svg width="256" height="256" viewBox="0 0 256 256" fill="none" xmlns="http://www.w3.org/2000/svg">
<path d="M23.2727 192.209L23.2797 239.711C23.2797 248.709 30.5734 256 39.5706 256H85.597C90.3517 256 94.8712 253.922 97.9665 250.312L228.806 97.6664C231.335 94.7131 232.727 90.9522 232.727 87.0633V39.5614C232.727 30.5641 225.434 23.2704 216.436 23.2704H170.403C165.648 23.2704 161.129 25.3487 158.033 28.9583L27.1942 181.604C24.6621 184.557 23.2727 188.318 23.2727 192.209Z" fill="#F0EB18"/>
<path d="M23.2727 197.923V239.709C23.2727 248.706 30.5664 256 39.5636 256H91.9342C92.7045 256 93.4749 255.944 94.2382 255.837L242.013 234.729C250.04 233.581 256 226.709 256 218.601V155.909C256 146.909 248.704 139.615 239.704 139.618L165.55 139.636C163.8 139.636 162.062 139.918 160.403 140.472L34.411 182.47C27.7597 184.688 23.2727 190.913 23.2727 197.925V197.923Z" fill="url(#paint0_linear_11_22733)"/>
<path d="M0 16.2909V152.164C0 158.68 3.88422 164.571 9.87229 167.138L159.835 231.41C161.862 232.278 164.047 232.727 166.253 232.727H239.709C248.706 232.727 256 225.434 256 216.436V144.572C256 141.354 255.046 138.207 253.258 135.529L167.645 7.25411C164.624 2.72524 159.541 0.00698182 154.096 0.00698182L16.2909 0C7.29367 0 0 7.29367 0 16.2909Z" fill="url(#paint1_linear_11_22733)"/>
<path d="M209 47H47V209H209V47Z" fill="black"/>
<path d="M75.8975 68.9881L85.7458 113.519L96.2476 68.9881H108.274L119.254 113.519L128.797 68.9881H140.867L126.051 129.989H112.501L102.219 85.6757L91.8055 129.989H78.2972L63.5703 68.9881H75.9022H75.8975ZM166.563 131.037C162.146 131.037 158.225 130.237 154.798 128.64C151.399 127.043 148.726 124.805 146.78 121.929C144.863 119.053 143.876 115.741 143.818 111.994H155.757C155.757 113.764 156.222 115.323 157.151 116.656C158.08 117.991 159.373 119.037 161.028 119.793C162.683 120.55 164.585 120.925 166.735 120.925C168.885 120.925 170.598 120.594 172.139 119.924C173.708 119.226 174.912 118.269 175.755 117.048C176.626 115.827 177.062 114.434 177.062 112.865C177.062 110.921 176.467 109.308 175.276 108.029C174.114 106.749 172.503 105.867 170.44 105.37L159.676 102.973C156.773 102.335 154.245 101.245 152.095 99.7046C149.945 98.136 148.276 96.2032 147.083 93.9086C145.893 91.6164 145.297 89.0277 145.297 86.1519C145.297 82.6668 146.198 79.5459 147.998 76.7845C149.8 73.9951 152.312 71.8336 155.535 70.2929C158.759 68.7243 162.419 67.94 166.516 67.94C170.612 67.94 174.373 68.6963 177.627 70.2066C180.881 71.7145 183.407 73.8223 185.209 76.5254C187.039 79.2005 187.968 82.277 187.998 85.7621H176.103C176.103 84.2798 175.711 82.9563 174.926 81.7962C174.142 80.6034 173.024 79.6883 171.572 79.0511C170.148 78.3811 168.507 78.0497 166.649 78.0497C164.791 78.0497 163.148 78.3718 161.726 79.0091C160.332 79.6183 159.242 80.4913 158.458 81.6234C157.674 82.7299 157.282 84.0207 157.282 85.5006C157.282 87.1836 157.818 88.5772 158.894 89.6836C159.999 90.7901 161.495 91.5744 163.383 92.0366L173.754 94.3031C176.747 94.9124 179.403 96.0725 181.728 97.7882C184.081 99.4712 185.911 101.563 187.218 104.063C188.526 106.53 189.179 109.231 189.179 112.167C189.179 115.767 188.22 119.009 186.303 121.885C184.415 124.733 181.756 126.966 178.33 128.596C174.903 130.225 170.981 131.035 166.565 131.035L166.563 131.037Z" fill="white"/>
<path d="M133 177H68V188H133V177Z" fill="white"/>
<defs>
<linearGradient id="paint0_linear_11_22733" x1="30.4849" y1="258.869" x2="244.99" y2="159.418" gradientUnits="userSpaceOnUse">
<stop offset="0.22" stop-color="#F0EB18"/>
<stop offset="0.59" stop-color="#00C4F4"/>
</linearGradient>
<linearGradient id="paint1_linear_11_22733" x1="240.074" y1="239.111" x2="5.25266" y2="4.29148" gradientUnits="userSpaceOnUse">
<stop offset="0.19" stop-color="#00C4F4"/>
<stop offset="0.83" stop-color="#007DFE"/>
</linearGradient>
</defs>
</svg>
