<svg width="24" height="24" viewBox="0 0 24 24" fill="none" xmlns="http://www.w3.org/2000/svg">
<path d="M21.8181 5.98036L21.8175 1.52705C21.8173 0.683782 21.1335 0 20.2902 0H15.9752C15.5295 0 15.1058 0.194836 14.8156 0.533236L2.5494 14.8438C2.31224 15.1207 2.18176 15.4732 2.18176 15.8378V20.2911C2.18176 21.1346 2.86554 21.8184 3.70904 21.8184H8.02467C8.47042 21.8184 8.89413 21.6236 9.18431 21.2852L21.4503 6.97462C21.6877 6.69775 21.8179 6.34516 21.8179 5.98036H21.8181Z" fill="#D249FC"/>
<path d="M21.8182 5.44473V1.52727C21.8182 0.683782 21.1344 0 20.2909 0H15.3812C15.3089 0 15.2367 0.00523636 15.1652 0.0152727L1.31127 1.9944C0.558982 2.10175 0 2.74625 0 3.50618V9.38356C0 10.2273 0.684 10.9111 1.52771 10.9108L8.47964 10.9091C8.64371 10.9091 8.80669 10.8827 8.96225 10.8308L20.774 6.89345C21.3975 6.68553 21.8182 6.10189 21.8182 5.44451V5.44473Z" fill="url(#paint0_linear_11_21640)"/>
<path d="M24 22.4727V9.73462C24 9.12371 23.6359 8.5715 23.0745 8.33084L9.01549 2.30531C8.82545 2.22393 8.62058 2.18182 8.41375 2.18182H1.52727C0.683782 2.18182 0 2.86561 0 3.7091V10.4463C0 10.7481 0.0894545 11.0431 0.257018 11.2942L8.28327 23.3199C8.56647 23.7445 9.0432 23.9993 9.55353 23.9993L22.4727 24C23.3162 24 24 23.3162 24 22.4727Z" fill="url(#paint1_linear_11_21640)"/>
<path d="M20 4H4V20H20V4Z" fill="black"/>
<path d="M6.17395 6.10263H8.73829C9.15635 6.10263 9.52481 6.17943 9.84344 6.33303C10.1621 6.48663 10.4066 6.70263 10.5774 6.98149C10.7509 7.26034 10.8377 7.58309 10.8377 7.94994C10.8377 8.3168 10.7495 8.6496 10.5733 8.9312C10.3998 9.2128 10.1509 9.432 9.82652 9.58834C9.50515 9.74194 9.13098 9.81874 8.70446 9.81874H7.33921V12.0759H6.17441V6.10263H6.17395ZM8.66126 8.85051C8.85761 8.85051 9.02812 8.81486 9.17326 8.74377C9.32115 8.66971 9.43498 8.56617 9.51452 8.43223C9.59406 8.29577 9.63406 8.13783 9.63406 7.95863C9.63406 7.77943 9.59429 7.61989 9.51452 7.48937C9.43475 7.35543 9.32115 7.25303 9.17326 7.18217C9.02812 7.10811 8.85761 7.07131 8.66126 7.07131H7.33852V8.85051H8.66126ZM13.5237 12.1785C13.0855 12.1785 12.6917 12.1001 12.3417 11.9438C11.9918 11.7874 11.7173 11.5682 11.5182 11.2866C11.3191 11.0023 11.2167 10.6782 11.211 10.3138H12.3801C12.3801 10.4846 12.4299 10.6366 12.5294 10.7703C12.6318 10.901 12.7696 11.0034 12.9433 11.0775C13.1196 11.1515 13.3189 11.1883 13.5406 11.1883C13.7511 11.1883 13.9387 11.1559 14.1038 11.0903C14.2716 11.0219 14.4025 10.9282 14.4962 10.8087C14.5902 10.6891 14.637 10.5527 14.637 10.3991C14.637 10.2087 14.5787 10.0491 14.4622 9.92114C14.3483 9.7904 14.1904 9.70514 13.9886 9.66514L12.7641 9.4304C12.4768 9.37646 12.2265 9.27406 12.0133 9.1232C11.8028 8.9696 11.6407 8.7792 11.5269 8.55154C11.413 8.32114 11.3561 8.06514 11.3561 7.78354C11.3561 7.43634 11.4485 7.128 11.6334 6.8576C11.821 6.5872 12.0784 6.37714 12.4057 6.22606C12.7356 6.0752 13.1068 6 13.5193 6C13.9319 6 14.3072 6.07406 14.6373 6.22194C14.9701 6.3696 15.2304 6.576 15.4181 6.84069C15.6087 7.10263 15.7054 7.40389 15.7081 7.74514H14.5433C14.5433 7.59749 14.4992 7.46629 14.411 7.35269C14.3257 7.23909 14.2062 7.15063 14.0526 7.08823C13.899 7.02263 13.7255 6.99017 13.5321 6.99017C13.3388 6.99017 13.1694 7.02171 13.0158 7.08411C12.8622 7.14651 12.7426 7.23337 12.6574 7.34446C12.5721 7.4528 12.5294 7.5776 12.5294 7.72C12.5294 7.8848 12.582 8.02446 12.6873 8.13806C12.7925 8.24891 12.939 8.3232 13.1269 8.36L14.3129 8.58194C14.6117 8.63589 14.8748 8.7456 15.1022 8.9104C15.3326 9.0752 15.5104 9.2816 15.6354 9.52914C15.7605 9.77394 15.8231 10.0411 15.8231 10.3312C15.8231 10.6896 15.725 11.0096 15.5287 11.2912C15.3324 11.5701 15.0594 11.7877 14.7095 11.944C14.3595 12.1003 13.9641 12.1787 13.5234 12.1787L13.5237 12.1785Z" fill="white"/>
<path d="M12 17H6V18H12V17Z" fill="white"/>
<defs>
<linearGradient id="paint0_linear_11_21640" x1="21.142" y1="-0.269018" x2="1.03222" y2="9.05476" gradientUnits="userSpaceOnUse">
<stop offset="0.16" stop-color="#D249FC"/>
<stop offset="0.55" stop-color="#FF2D90"/>
</linearGradient>
<linearGradient id="paint1_linear_11_21640" x1="1.49324" y1="1.58335" x2="23.5076" y2="23.5979" gradientUnits="userSpaceOnUse">
<stop offset="0.3" stop-color="#FF2D90"/>
<stop offset="0.7" stop-color="#7256FF"/>
</linearGradient>
</defs>
</svg>
