<svg width="32" height="32" viewBox="0 0 32 32" fill="none" xmlns="http://www.w3.org/2000/svg">
<path d="M2.90918 24.0262L2.91005 29.9639C2.91005 31.0886 3.82176 32 4.94642 32H10.6997C11.2941 32 11.859 31.7402 12.2459 31.289L28.6005 12.2083C28.9167 11.8391 29.0907 11.369 29.0907 10.8829V4.94518C29.0907 3.82052 28.179 2.90881 27.0543 2.90881H21.3002C20.7058 2.90881 20.1409 3.1686 19.754 3.6198L3.39936 22.7005C3.08285 23.0697 2.90918 23.5398 2.90918 24.0262Z" fill="#00D886"/>
<path d="M2.90918 24.7404V29.9636C2.90918 31.0883 3.82089 32 4.94554 32H11.4919C11.5882 32 11.6845 31.993 11.7799 31.9796L30.2517 29.3411C31.2551 29.1977 32.0001 28.3386 32.0001 27.3251V19.4886C32.0001 18.3636 31.0881 17.4519 29.9631 17.4522L20.6939 17.4545C20.4751 17.4545 20.2578 17.4897 20.0504 17.559L4.30147 22.8087C3.47005 23.086 2.90918 23.8641 2.90918 24.7406V24.7404Z" fill="url(#paint0_linear_11_19920)"/>
<path d="M0 2.03636V19.0205C0 19.8351 0.485527 20.5713 1.23404 20.8922L19.9793 28.9263C20.2327 29.0348 20.5059 29.0909 20.7817 29.0909H29.9636C31.0883 29.0909 32 28.1792 32 27.0545V18.0716C32 17.6692 31.8807 17.2759 31.6573 16.9411L20.9559 0.906764C20.578 0.340655 19.9427 0.000872727 19.2623 0.000872727L2.03636 0C0.911709 0 0 0.911709 0 2.03636Z" fill="url(#paint1_linear_11_19920)"/>
<path d="M26 6H6V26H26V6Z" fill="black"/>
<path d="M8.9502 9.02005H12.2139C12.746 9.02005 13.2149 9.1178 13.6205 9.31329C14.026 9.50878 14.3373 9.78369 14.5546 10.1386C14.7754 10.4935 14.8859 10.9043 14.8859 11.3712C14.8859 11.8381 14.7736 12.2617 14.5493 12.6201C14.3285 12.9785 14.0117 13.2574 13.5989 13.4564C13.1899 13.6519 12.7137 13.7497 12.1709 13.7497H10.4333V16.6224H8.95078V9.02005H8.9502ZM12.1159 12.5174C12.3658 12.5174 12.5828 12.472 12.7675 12.3815C12.9557 12.2873 13.1006 12.1555 13.2018 11.985C13.3031 11.8113 13.354 11.6103 13.354 11.3822C13.354 11.1542 13.3034 10.9511 13.2018 10.785C13.1003 10.6145 12.9557 10.4842 12.7675 10.394C12.5828 10.2998 12.3658 10.2529 12.1159 10.2529H10.4324V12.5174H12.1159ZM19.1788 16.753C18.4513 16.753 17.7924 16.5825 17.2021 16.2425C16.6119 15.8983 16.1487 15.4279 15.8119 14.8307C15.4753 14.2299 15.3068 13.56 15.3068 12.8214C15.3068 12.0827 15.4753 11.4148 15.8119 10.8176C16.1484 10.2169 16.6119 9.74587 17.2021 9.4058C17.7921 9.06165 18.451 8.89001 19.1788 8.89001C19.7941 8.89001 20.3591 9.00405 20.8731 9.23212C21.3871 9.4602 21.8142 9.78049 22.1546 10.1933C22.4984 10.6026 22.7282 11.073 22.8443 11.6051H21.2911C21.1896 11.3302 21.0378 11.0893 20.835 10.8827C20.6357 10.673 20.3951 10.5115 20.1127 10.3995C19.8302 10.2875 19.5224 10.2311 19.1896 10.2311C18.7407 10.2311 18.3352 10.3431 17.9733 10.5677C17.6111 10.7923 17.3272 11.1018 17.1207 11.4963C16.9179 11.8873 16.8167 12.3291 16.8167 12.8214C16.8167 13.3136 16.9179 13.7575 17.1207 14.1517C17.3269 14.5427 17.6111 14.8502 17.9733 15.0747C18.3352 15.2993 18.7407 15.4113 19.1896 15.4113C19.5227 15.4113 19.8305 15.3549 20.1127 15.2429C20.3949 15.1309 20.6357 14.9715 20.835 14.7649C21.0378 14.5552 21.1896 14.3123 21.2911 14.0374H22.8443C22.7285 14.5694 22.4984 15.0419 22.1546 15.4547C21.8142 15.864 21.3871 16.1822 20.8731 16.4103C20.3591 16.6384 19.7941 16.7524 19.1788 16.7524V16.753Z" fill="white"/>
<path d="M16 22H9V23H16V22Z" fill="white"/>
<defs>
<linearGradient id="paint0_linear_11_19920" x1="3.81071" y1="32.3587" x2="30.6238" y2="19.927" gradientUnits="userSpaceOnUse">
<stop offset="0.1" stop-color="#00D886"/>
<stop offset="0.59" stop-color="#F0EB18"/>
</linearGradient>
<linearGradient id="paint1_linear_11_19920" x1="30.0093" y1="29.8889" x2="0.656584" y2="0.536147" gradientUnits="userSpaceOnUse">
<stop offset="0.3" stop-color="#F0EB18"/>
<stop offset="0.7" stop-color="#00C4F4"/>
</linearGradient>
</defs>
</svg>
