<svg width="16" height="16" viewBox="0 0 16 16" fill="none" xmlns="http://www.w3.org/2000/svg">
<g clip-path="url(#clip0_9_10149)">
<path d="M16 0H0V16H16V0Z" fill="#087CFA"/>
<path d="M15 1H1V15H15V1Z" fill="black"/>
<path d="M3 7.12853H3.99293V3.87147H3V3H5.94633V3.87147H4.9534V7.12853H5.94633V8H3V7.12853Z" fill="white"/>
<path d="M6.4458 7.10008H7.16372C7.30886 7.10008 7.43816 7.06914 7.55122 7.00726C7.66429 6.94538 7.75176 6.85791 7.81364 6.74484C7.87552 6.63178 7.90646 6.50267 7.90646 6.35733V3H8.88144V6.42494C8.88144 6.72498 8.8123 6.99465 8.67422 7.23396C8.53614 7.47326 8.34572 7.66081 8.10279 7.79641C7.85986 7.9322 7.58732 8 7.28499 8H6.4458V7.10008Z" fill="white"/>
<path d="M8 12H3V13H8V12Z" fill="white"/>
</g>
<defs>
<clipPath id="clip0_9_10149">
<rect width="16" height="16" fill="white"/>
</clipPath>
</defs>
</svg>
