<svg width="16" height="16" viewBox="0 0 16 16" fill="none" xmlns="http://www.w3.org/2000/svg">
<path d="M16 0H0V16H16V0Z" fill="#07C3F2"/>
<path d="M14.9995 1H0.999512V15H14.9995V1Z" fill="black"/>
<path d="M3.48772 2.86659L4.33152 6.68199L5.23132 2.86659H6.26172L7.20252 6.68199L8.02012 2.86659H9.05432L7.78492 8.09319H6.62392L5.74292 4.29639L4.85072 8.09319H3.69332L2.43152 2.86659H3.48812H3.48772ZM11.2559 8.18299C10.8775 8.18299 10.5415 8.11439 10.2479 7.97759C9.95672 7.84079 9.72772 7.64899 9.56092 7.40259C9.39672 7.15619 9.31212 6.87239 9.30712 6.55139H10.3301C10.3301 6.70299 10.3699 6.83659 10.4495 6.95079C10.5291 7.06519 10.6399 7.15479 10.7817 7.21959C10.9235 7.28439 11.0865 7.31659 11.2707 7.31659C11.4549 7.31659 11.6017 7.28819 11.7337 7.23079C11.8681 7.17099 11.9713 7.08899 12.0435 6.98439C12.1181 6.87979 12.1555 6.76039 12.1555 6.62599C12.1555 6.45939 12.1045 6.32119 12.0025 6.21159C11.9029 6.10199 11.7649 6.02639 11.5881 5.98379L10.6659 5.77839C10.4171 5.72379 10.2005 5.63039 10.0163 5.49839C9.83212 5.36399 9.68912 5.19839 9.58692 5.00179C9.48492 4.80539 9.43392 4.58359 9.43392 4.33719C9.43392 4.03859 9.51112 3.77119 9.66532 3.53459C9.81972 3.29559 10.0349 3.11039 10.3111 2.97839C10.5873 2.84399 10.9009 2.77679 11.2519 2.77679C11.6029 2.77679 11.9251 2.84159 12.2039 2.97099C12.4827 3.10019 12.6991 3.28079 12.8535 3.51239C13.0103 3.74159 13.0899 4.00519 13.0925 4.30379H12.0733C12.0733 4.17679 12.0397 4.06339 11.9725 3.96399C11.9053 3.86179 11.8095 3.78339 11.6851 3.72879C11.5631 3.67139 11.4225 3.64299 11.2633 3.64299C11.1041 3.64299 10.9633 3.67059 10.8415 3.72519C10.7221 3.77739 10.6287 3.85219 10.5615 3.94919C10.4943 4.04399 10.4607 4.15459 10.4607 4.28139C10.4607 4.42559 10.5067 4.54499 10.5989 4.63979C10.6935 4.73459 10.8217 4.80179 10.9835 4.84139L11.8721 5.03559C12.1285 5.08779 12.3561 5.18719 12.5553 5.33419C12.7569 5.47839 12.9137 5.65759 13.0257 5.87179C13.1377 6.08319 13.1937 6.31459 13.1937 6.56619C13.1937 6.87459 13.1115 7.15239 12.9473 7.39879C12.7855 7.64279 12.5577 7.83419 12.2641 7.97379C11.9705 8.11339 11.6345 8.18279 11.2561 8.18279L11.2559 8.18299Z" fill="white"/>
<path d="M8 12H3V13H8V12Z" fill="white"/>
</svg>
