<svg width="24" height="24" viewBox="0 0 24 24" fill="none" xmlns="http://www.w3.org/2000/svg">
<path d="M2.18182 18.0196L2.18248 22.473C2.18248 23.3164 2.86626 24 3.70975 24H8.02473C8.47048 24 8.89419 23.8052 9.18437 23.4668L21.4505 9.15623C21.6877 8.87935 21.8182 8.52677 21.8182 8.16219V3.70888C21.8182 2.86539 21.1344 2.18161 20.2909 2.18161H15.9753C15.5295 2.18161 15.1058 2.37645 14.8156 2.71485L2.54946 17.0254C2.31208 17.3023 2.18182 17.6548 2.18182 18.0196Z" fill="#F0EB18"/>
<path d="M2.18182 18.5553V22.4727C2.18182 23.3162 2.86561 24 3.7091 24H8.61884C8.69106 24 8.76328 23.9948 8.83484 23.9847L22.6887 22.0058C23.4412 21.8983 24 21.254 24 20.4938V14.6164C24 13.7727 23.316 13.089 22.4723 13.0892L15.5204 13.0909C15.3563 13.0909 15.1933 13.1173 15.0377 13.1692L3.22604 17.1066C2.60248 17.3145 2.18182 17.8981 2.18182 18.5555V18.5553Z" fill="url(#paint0_linear_11_22736)"/>
<path d="M0 1.52727V14.2654C0 14.8763 0.364145 15.4285 0.925527 15.6692L14.9845 21.6947C15.1745 21.7761 15.3794 21.8182 15.5863 21.8182H22.4727C23.3162 21.8182 24 21.1344 24 20.2909V13.5537C24 13.2519 23.9105 12.9569 23.743 12.7058L15.7167 0.680073C15.4335 0.255491 14.957 0.000654545 14.4465 0.000654545L1.52727 0C0.683782 0 0 0.683782 0 1.52727Z" fill="url(#paint1_linear_11_22736)"/>
<path d="M20 4H4V20H20V4Z" fill="black"/>
<path d="M6.84368 6.13327L7.80803 10.4937L8.83637 6.13327H10.014L11.0892 10.4937L12.0236 6.13327H13.2055L11.7548 12.1065H10.4279L9.42105 7.76733L8.4014 12.1065H7.07865L5.6366 6.13327H6.84414H6.84368ZM15.7216 12.2092C15.2892 12.2092 14.9052 12.1308 14.5696 11.9744C14.2368 11.8181 13.9751 11.5989 13.7845 11.3173C13.5968 11.0357 13.5001 10.7113 13.4944 10.3445H14.6636C14.6636 10.5177 14.7091 10.6704 14.8 10.8009C14.891 10.9317 15.0176 11.0341 15.1797 11.1081C15.3417 11.1822 15.528 11.219 15.7385 11.219C15.9491 11.219 16.1168 11.1865 16.2677 11.1209C16.4213 11.0526 16.5392 10.9589 16.6217 10.8393C16.707 10.7198 16.7497 10.5833 16.7497 10.4297C16.7497 10.2393 16.6915 10.0814 16.5749 9.95613C16.4611 9.83087 16.3033 9.74447 16.1013 9.69578L15.0473 9.46104C14.763 9.39864 14.5155 9.2919 14.3049 9.14104C14.0944 8.98744 13.931 8.79818 13.8142 8.5735C13.6976 8.34904 13.6393 8.09555 13.6393 7.81395C13.6393 7.4727 13.7276 7.1671 13.9038 6.8967C14.0803 6.62355 14.3262 6.4119 14.6419 6.26104C14.9575 6.10744 15.3159 6.03064 15.7171 6.03064C16.1182 6.03064 16.4864 6.1047 16.8051 6.25258C17.1237 6.40024 17.371 6.60664 17.5475 6.87133C17.7267 7.13327 17.8176 7.43453 17.8206 7.77578H16.6558C16.6558 7.63064 16.6174 7.50104 16.5406 7.38744C16.4638 7.27064 16.3543 7.18104 16.2121 7.11864C16.0727 7.05304 15.912 7.02058 15.7301 7.02058C15.5481 7.02058 15.3872 7.05213 15.248 7.11453C15.1116 7.17418 15.0048 7.25967 14.928 7.37053C14.8512 7.47887 14.8128 7.60527 14.8128 7.75018C14.8128 7.91498 14.8654 8.05144 14.9708 8.15978C15.0789 8.26813 15.2254 8.34493 15.4103 8.39018L16.4259 8.61213C16.7189 8.67178 16.979 8.78538 17.2067 8.95338C17.4371 9.11818 17.6163 9.32298 17.7443 9.56778C17.8723 9.80938 17.9363 10.0738 17.9363 10.3614C17.9363 10.7138 17.8423 11.0313 17.6547 11.3129C17.4697 11.5918 17.2094 11.8105 16.8739 11.9701C16.5383 12.1296 16.1543 12.2089 15.7219 12.2089L15.7216 12.2092Z" fill="white"/>
<path d="M12 17H6V18H12V17Z" fill="white"/>
<defs>
<linearGradient id="paint0_linear_11_22736" x1="2.85797" y1="24.269" x2="22.9678" y2="14.9455" gradientUnits="userSpaceOnUse">
<stop offset="0.22" stop-color="#F0EB18"/>
<stop offset="0.59" stop-color="#00C4F4"/>
</linearGradient>
<linearGradient id="paint1_linear_11_22736" x1="22.507" y1="22.4166" x2="0.492437" y2="0.402326" gradientUnits="userSpaceOnUse">
<stop offset="0.19" stop-color="#00C4F4"/>
<stop offset="0.83" stop-color="#007DFE"/>
</linearGradient>
</defs>
</svg>
