<svg width="16" height="16" viewBox="0 0 16 16" fill="none" xmlns="http://www.w3.org/2000/svg">
<path d="M16 0H0V16H16V0Z" fill="#21D789"/>
<path d="M15 1H1V15H15V1Z" fill="black"/>
<path d="M8 12H3V13H8V12Z" fill="white"/>
<path d="M2.90234 2.86659H5.14614C5.51194 2.86659 5.83434 2.93379 6.11314 3.06819C6.39194 3.20259 6.60594 3.39159 6.75534 3.63559C6.90714 3.87959 6.98314 4.16199 6.98314 4.48299C6.98314 4.80399 6.90594 5.09519 6.75174 5.34159C6.59994 5.58799 6.38214 5.77979 6.09834 5.91659C5.81714 6.05099 5.48974 6.11819 5.11654 6.11819H3.92194V8.09319H2.90274V2.86659H2.90234ZM5.07874 5.27099C5.25054 5.27099 5.39974 5.23979 5.52674 5.17759C5.65614 5.11279 5.75574 5.02219 5.82534 4.90499C5.89494 4.78559 5.92994 4.64739 5.92994 4.49059C5.92994 4.33379 5.89514 4.19419 5.82534 4.07999C5.75554 3.96279 5.65614 3.87319 5.52674 3.81119C5.39974 3.74639 5.25054 3.71419 5.07874 3.71419H3.92134V5.27099H5.07874ZM9.93454 8.18299C9.43434 8.18299 8.98134 8.06579 8.57554 7.83199C8.16974 7.59539 7.85134 7.27199 7.61974 6.86139C7.38834 6.44839 7.27254 5.98779 7.27254 5.47999C7.27254 4.97219 7.38834 4.51299 7.61974 4.10239C7.85114 3.68939 8.16974 3.36559 8.57554 3.13179C8.98114 2.89519 9.43414 2.77719 9.93454 2.77719C10.3575 2.77719 10.7459 2.85559 11.0993 3.01239C11.4527 3.16919 11.7463 3.38939 11.9803 3.67319C12.2167 3.95459 12.3747 4.27799 12.4545 4.64379H11.3867C11.3169 4.45479 11.2125 4.28919 11.0731 4.14719C10.9361 4.00299 10.7707 3.89199 10.5765 3.81499C10.3823 3.73799 10.1707 3.69919 9.94194 3.69919C9.63334 3.69919 9.35454 3.77619 9.10574 3.93059C8.85674 4.08499 8.66154 4.29779 8.51954 4.56899C8.38014 4.83779 8.31054 5.14159 8.31054 5.47999C8.31054 5.81839 8.38014 6.12359 8.51954 6.39459C8.66134 6.66339 8.85674 6.87479 9.10574 7.02919C9.35454 7.18359 9.63334 7.26059 9.94194 7.26059C10.1709 7.26059 10.3825 7.22179 10.5765 7.14479C10.7705 7.06779 10.9361 6.95819 11.0731 6.81619C11.2125 6.67199 11.3169 6.50499 11.3867 6.31599H12.4545C12.3749 6.68179 12.2167 7.00659 11.9803 7.29039C11.7463 7.57179 11.4527 7.79059 11.0993 7.94739C10.7459 8.10419 10.3575 8.18259 9.93454 8.18259V8.18299Z" fill="white"/>
</svg>
