<svg width="48" height="48" viewBox="0 0 48 48" fill="none" xmlns="http://www.w3.org/2000/svg">
<path d="M0 3.05454V28.5308C0 29.7526 0.728291 30.857 1.85105 31.3383L29.969 43.3894C30.3491 43.5521 30.7588 43.6364 31.1725 43.6364H44.9454C46.6324 43.6364 48 42.2688 48 40.5818V27.1073C48 26.5038 47.8211 25.9139 47.486 25.4116L31.4339 1.36015C30.867 0.510982 29.914 0.00130909 28.8934 0.00130909L3.05454 0C1.36756 0 0 1.36756 0 3.05454Z" fill="url(#paint0_linear_11_20227)"/>
<path d="M4.36377 37.1105V44.9454C4.36377 46.6324 5.73133 48 7.41831 48H17.2378C17.3822 48 17.5267 47.9895 17.6698 47.9694L45.3776 44.0116C46.8826 43.7965 48.0001 42.5079 48.0001 40.9876V29.2329C48.0001 27.5454 46.6321 26.1779 44.9447 26.1783L31.0409 26.1818C30.7127 26.1818 30.3867 26.2346 30.0756 26.3385L6.45221 34.2131C5.20508 34.6289 4.36377 35.7962 4.36377 37.111V37.1105Z" fill="url(#paint1_linear_11_20227)"/>
<path d="M4.36377 36.0393L4.36508 44.9459C4.36508 46.6329 5.73264 48 7.41962 48H16.0496C16.9411 48 17.7885 47.6103 18.3689 46.9335L42.9012 18.3125C43.3755 17.7587 43.6365 17.0535 43.6365 16.3244V7.41777C43.6365 5.73078 42.2689 4.36322 40.5819 4.36322H31.9507C31.0592 4.36322 30.2118 4.75289 29.6314 5.42969L5.09948 34.0508C4.62471 34.6045 4.36421 35.3097 4.36421 36.0393H4.36377Z" fill="#00D886"/>
<path d="M39 9H9V39H39V9Z" fill="black"/>
<path d="M25 32.9999H13V35H25V32.9999Z" fill="white"/>
<path d="M15.2256 23.4451C15.822 23.7855 16.468 24.0002 17.1573 24.1045L17.1582 24.2405C17.1582 24.7022 17.2524 25.1049 17.441 25.4387C17.6346 25.7825 17.9098 26.0476 18.2659 26.2244C18.6274 26.4108 19.0461 26.5093 19.523 26.5093H21.2906V24.9185H19.9472C19.7797 24.9185 19.6383 24.8894 19.523 24.8301C19.4077 24.7712 19.3189 24.6828 19.2557 24.565C19.193 24.4471 19.1615 24.3095 19.1615 24.1428V24.0806C19.8028 23.969 20.4055 23.7645 20.9606 23.4455C21.8196 22.9447 22.4925 22.2671 22.9795 21.4031C23.4664 20.5289 23.7101 19.5664 23.7101 18.4962C23.7101 17.426 23.4664 16.4635 22.9795 15.599C22.4925 14.7253 21.8192 14.0477 20.9606 13.5566C20.1067 13.0558 19.1509 12.8104 18.0933 12.8104C17.0357 12.8104 16.085 13.0558 15.226 13.5566C14.3725 14.0477 13.6996 14.7253 13.2072 15.599C12.7202 16.4635 12.4766 17.4255 12.4766 18.4962C12.4766 19.5669 12.7202 20.5289 13.2072 21.4031C13.6996 22.2671 14.3725 22.9447 15.226 23.4455L15.2256 23.4451ZM15.1158 16.5514C15.4141 15.9622 15.8228 15.5106 16.3413 15.1862C16.8648 14.8621 17.4515 14.695 18.1009 14.695C18.7503 14.695 19.3344 14.8617 19.8529 15.1862C20.3714 15.5102 20.7771 15.9618 21.0705 16.5514C21.3638 17.1208 21.5103 17.769 21.5103 18.4958C21.5103 19.2226 21.3634 19.8703 21.0705 20.4498C20.7771 21.0289 20.3714 21.4809 19.8529 21.8147C19.3344 22.1387 18.7503 22.2957 18.1009 22.2957C17.4515 22.2957 16.8648 22.1387 16.3413 21.8147C15.8228 21.4805 15.4141 21.0289 15.1158 20.4498C14.8224 19.8703 14.676 19.2222 14.676 18.4958C14.676 17.7694 14.8224 17.1208 15.1158 16.5514Z" fill="white"/>
<path d="M30.2092 12.9963H27.8839L23.9165 23.9946H26.1239L26.9568 21.4416H31.2382L32.1257 23.9946H34.286L30.2087 12.9963H30.2092ZM27.4673 19.7822L28.8658 15.5892L29.0228 14.8918L29.1877 15.5892L30.6725 19.7822H27.4673Z" fill="white"/>
<defs>
<linearGradient id="paint0_linear_11_20227" x1="45.014" y1="44.8333" x2="0.984874" y2="0.804652" gradientUnits="userSpaceOnUse">
<stop offset="0.25" stop-color="#7256FF"/>
<stop offset="0.73" stop-color="#007DFE"/>
</linearGradient>
<linearGradient id="paint1_linear_11_20227" x1="5.7165" y1="48.538" x2="46.5462" y2="29.6077" gradientUnits="userSpaceOnUse">
<stop offset="0.3" stop-color="#00D886"/>
<stop offset="0.54" stop-color="#7256FF"/>
</linearGradient>
</defs>
</svg>
