<svg width="64" height="64" viewBox="0 0 64 64" fill="none" xmlns="http://www.w3.org/2000/svg">
<path d="M15.9476 5.81818L4.07215 5.81992C1.82284 5.81992 0 7.64334 0 9.89265V21.3993C0 22.5879 0.519564 23.7178 1.42196 24.4916L39.5828 57.2015C40.3212 57.8339 41.2614 58.1818 42.2336 58.1818H54.1091C56.3584 58.1818 58.1818 56.3584 58.1818 54.1091V42.6007C58.1818 41.4121 57.6623 40.2822 56.7599 39.5084L18.599 6.79912C17.8607 6.1661 16.9204 5.81876 15.9476 5.81876V5.81818Z" fill="#FF8100"/>
<path d="M14.5193 5.81818H4.07273C1.82342 5.81818 0 7.64159 0 9.8909V22.9836C0 23.1761 0.0139636 23.3687 0.0407273 23.5596L5.31782 60.5033C5.60465 62.51 7.32276 64 9.34982 64H25.0228C27.2727 64 29.0961 62.176 29.0956 59.9261L29.0909 41.3876C29.0909 40.9501 29.0205 40.5155 28.882 40.1006L18.3825 8.60276C17.8281 6.93992 16.2717 5.81818 14.5187 5.81818H14.5193Z" fill="url(#paint0_linear_9_10153)"/>
<path d="M59.9275 0H25.9592C24.3301 0 22.8575 0.971054 22.2157 2.46807L6.14767 39.9587C5.93065 40.4655 5.81836 41.0118 5.81836 41.5633V59.9273C5.81836 62.1766 7.64178 64 9.89109 64H27.8571C28.6617 64 29.4483 63.7615 30.118 63.3146L62.1866 41.9113C63.3189 41.1561 63.9984 39.8848 63.9984 38.5239L64.0002 4.07273C64.0002 1.82342 62.1768 0 59.9275 0Z" fill="url(#paint1_linear_9_10153)"/>
<path d="M52 12H12V52H52V12Z" fill="black"/>
<path d="M17 29.3856H19.9788V19.6144H17V17H25.839V19.6144H22.8602V29.3856H25.839V32H17V29.3856Z" fill="white"/>
<path d="M27.3389 29.3002H29.4926C29.9281 29.3002 30.3159 29.2074 30.6551 29.0218C30.9943 28.8361 31.2567 28.5737 31.4424 28.2345C31.628 27.8953 31.7208 27.508 31.7208 27.072V17H34.6458V27.2748C34.6458 28.1749 34.4384 28.984 34.0241 29.7019C33.6099 30.4198 33.0386 30.9824 32.3098 31.3892C31.581 31.7966 30.7634 32 29.8564 32H27.3389V29.3002Z" fill="white"/>
<path d="M33 44H17V47H33V44Z" fill="white"/>
<defs>
<linearGradient id="paint0_linear_9_10153" x1="-0.717383" y1="7.62123" x2="24.1455" y2="61.2474" gradientUnits="userSpaceOnUse">
<stop offset="0.1" stop-color="#FC801D"/>
<stop offset="0.59" stop-color="#FE2857"/>
</linearGradient>
<linearGradient id="paint1_linear_9_10153" x1="4.22243" y1="60.0186" x2="62.9273" y2="1.31316" gradientUnits="userSpaceOnUse">
<stop offset="0.21" stop-color="#FE2857"/>
<stop offset="0.7" stop-color="#007EFF"/>
</linearGradient>
</defs>
</svg>
