<svg width="32" height="32" viewBox="0 0 32 32" fill="none" xmlns="http://www.w3.org/2000/svg">
<path d="M0 2.03636V19.0205C0 19.8351 0.485527 20.5713 1.23404 20.8922L19.9793 28.9262C20.2327 29.0348 20.5059 29.0909 20.7817 29.0909H29.9636C31.0883 29.0909 32 28.1792 32 27.0545V18.0716C32 17.6692 31.8807 17.2759 31.6573 16.9411L20.9559 0.906763C20.578 0.340654 19.9427 0.000872727 19.2623 0.000872727L2.03636 0C0.911709 0 0 0.911709 0 2.03636Z" fill="url(#paint0_linear_11_20226)"/>
<path d="M2.90918 24.7404V29.9636C2.90918 31.0883 3.82089 32 4.94554 32H11.4919C11.5882 32 11.6845 31.993 11.7799 31.9796L30.2517 29.3411C31.2551 29.1977 32.0001 28.3386 32.0001 27.3251V19.4886C32.0001 18.3636 31.0881 17.4519 29.9631 17.4522L20.6939 17.4545C20.4751 17.4545 20.2578 17.4897 20.0504 17.559L4.30147 22.8087C3.47005 23.086 2.90918 23.8641 2.90918 24.7406V24.7404Z" fill="url(#paint1_linear_11_20226)"/>
<path d="M2.90918 24.0262L2.91005 29.9639C2.91005 31.0886 3.82176 32 4.94642 32H10.6997C11.2941 32 11.859 31.7402 12.2459 31.289L28.6008 12.2083C28.917 11.8391 29.091 11.369 29.091 10.8829V4.94518C29.091 3.82052 28.1793 2.90881 27.0546 2.90881H21.3004C20.7061 2.90881 20.1412 3.1686 19.7543 3.6198L3.39965 22.7005C3.08314 23.0697 2.90947 23.5398 2.90947 24.0262H2.90918Z" fill="#00D886"/>
<path d="M26 6H6V26H26V6Z" fill="black"/>
<path d="M9.84847 16.3453C10.2604 16.5805 10.7066 16.7288 11.1827 16.8008L11.1833 16.8947C11.1833 17.2136 11.2484 17.4918 11.3786 17.7223C11.5124 17.9598 11.7025 18.1429 11.9484 18.265C12.1981 18.3938 12.4873 18.4618 12.8167 18.4618H14.0375V17.363H13.1097C12.994 17.363 12.8963 17.343 12.8167 17.302C12.737 17.2613 12.6757 17.2002 12.6321 17.1189C12.5888 17.0375 12.567 16.9424 12.567 16.8273V16.7843C13.01 16.7072 13.4262 16.566 13.8096 16.3456C14.4029 15.9997 14.8677 15.5317 15.2041 14.9349C15.5404 14.3312 15.7087 13.6664 15.7087 12.9272C15.7087 12.188 15.5404 11.5232 15.2041 10.9261C14.8677 10.3226 14.4026 9.85462 13.8096 9.51539C13.2198 9.16947 12.5597 9 11.8292 9C11.0987 9 10.442 9.16947 9.84876 9.51539C9.25925 9.85462 8.79444 10.3226 8.45434 10.9261C8.11801 11.5232 7.94971 12.1877 7.94971 12.9272C7.94971 13.6667 8.11801 14.3312 8.45434 14.9349C8.79444 15.5317 9.25925 15.9997 9.84876 16.3456L9.84847 16.3453ZM9.7726 11.5839C9.97869 11.1769 10.2609 10.865 10.6191 10.6409C10.9807 10.4171 11.3859 10.3017 11.8344 10.3017C12.283 10.3017 12.6864 10.4168 13.0446 10.6409C13.4027 10.8647 13.6829 11.1767 13.8855 11.5839C14.0881 11.9772 14.1893 12.4249 14.1893 12.9269C14.1893 13.4289 14.0878 13.8763 13.8855 14.2765C13.6829 14.6765 13.4027 14.9887 13.0446 15.2192C12.6864 15.443 12.283 15.5515 11.8344 15.5515C11.3859 15.5515 10.9807 15.443 10.6191 15.2192C10.2609 14.9884 9.97869 14.6765 9.7726 14.2765C9.56999 13.8763 9.46883 13.4286 9.46883 12.9269C9.46883 12.4251 9.56999 11.9772 9.7726 11.5839Z" fill="white"/>
<path d="M20.1974 9.12848H18.5914L15.8511 16.725H17.3757L17.951 14.9617H20.9081L21.5212 16.725H23.0133L20.1971 9.12848H20.1974ZM18.3036 13.8155L19.2695 10.9194L19.378 10.4377L19.4919 10.9194L20.5175 13.8155H18.3036Z" fill="white"/>
<path d="M16 22H9V23H16V22Z" fill="white"/>
<defs>
<linearGradient id="paint0_linear_11_20226" x1="30.0093" y1="29.8889" x2="0.656582" y2="0.536435" gradientUnits="userSpaceOnUse">
<stop offset="0.25" stop-color="#7256FF"/>
<stop offset="0.73" stop-color="#007DFE"/>
</linearGradient>
<linearGradient id="paint1_linear_11_20226" x1="3.811" y1="32.3587" x2="31.0308" y2="19.7385" gradientUnits="userSpaceOnUse">
<stop offset="0.3" stop-color="#00D886"/>
<stop offset="0.54" stop-color="#7256FF"/>
</linearGradient>
</defs>
</svg>
