<svg width="48" height="48" viewBox="0 0 48 48" fill="none" xmlns="http://www.w3.org/2000/svg">
<g clip-path="url(#clip0_9_10152)">
<path d="M11.9607 4.36365L3.05411 4.36496C1.36713 4.36496 0 5.73252 0 7.4195V16.0495C0 16.941 0.389673 17.7884 1.06647 18.3687L29.6871 42.9011C30.2409 43.3754 30.946 43.6364 31.6752 43.6364H40.5818C42.2688 43.6364 43.6364 42.2688 43.6364 40.5818V31.9506C43.6364 31.0591 43.2467 30.2116 42.5699 29.6313L13.9492 5.09936C13.3955 4.62459 12.6903 4.36408 11.9607 4.36408V4.36365Z" fill="#FF8100"/>
<path d="M10.8895 4.36365H3.05455C1.36756 4.36365 0 5.73121 0 7.41819V17.2377C0 17.3821 0.0104727 17.5266 0.0305455 17.6697L3.98836 45.3775C4.20349 46.8825 5.49207 48 7.01236 48H18.7671C20.4545 48 21.8221 46.632 21.8217 44.9446L21.8182 31.0407C21.8182 30.7126 21.7654 30.3866 21.6615 30.0755L13.7869 6.45208C13.3711 5.20496 12.2038 4.36365 10.889 4.36365H10.8895Z" fill="url(#paint0_linear_9_10152)"/>
<path d="M44.9456 0H19.4694C18.2476 0 17.1431 0.728291 16.6618 1.85105L4.61075 29.969C4.44799 30.3491 4.36377 30.7588 4.36377 31.1725V44.9455C4.36377 46.6324 5.73133 48 7.41831 48H20.8928C21.4963 48 22.0862 47.8211 22.5885 47.486L46.64 31.4335C47.4891 30.8671 47.9988 29.9136 47.9988 28.8929L48.0001 3.05455C48.0001 1.36756 46.6326 0 44.9456 0Z" fill="url(#paint1_linear_9_10152)"/>
<path d="M39 9H9V39H39V9Z" fill="black"/>
<path d="M24.9995 33H12.9995V35.0001H24.9995V33Z" fill="white"/>
<path d="M13 22.0828H15.1845V14.9172H13V13H19.4819V14.9172H17.2975V22.0828H19.4819V24H13V22.0828Z" fill="white"/>
<path d="M20.5815 22.0202H22.161C22.4803 22.0202 22.7647 21.9521 23.0135 21.816C23.2622 21.6798 23.4547 21.4874 23.5908 21.2387C23.7269 20.9899 23.795 20.7059 23.795 20.3861V13H25.9399V20.5349C25.9399 21.195 25.7878 21.7882 25.4841 22.3147C25.1803 22.8412 24.7614 23.2538 24.2269 23.5521C23.6925 23.8508 23.0929 24 22.4278 24H20.5815V22.0202Z" fill="white"/>
</g>
<defs>
<linearGradient id="paint0_linear_9_10152" x1="-0.538037" y1="5.71594" x2="18.1091" y2="45.9356" gradientUnits="userSpaceOnUse">
<stop offset="0.1" stop-color="#FC801D"/>
<stop offset="0.59" stop-color="#FE2857"/>
</linearGradient>
<linearGradient id="paint1_linear_9_10152" x1="3.16683" y1="45.014" x2="47.1955" y2="0.984873" gradientUnits="userSpaceOnUse">
<stop offset="0.21" stop-color="#FE2857"/>
<stop offset="0.7" stop-color="#007EFF"/>
</linearGradient>
<clipPath id="clip0_9_10152">
<rect width="48" height="48" fill="white"/>
</clipPath>
</defs>
</svg>
