<svg width="128" height="128" viewBox="0 0 128 128" fill="none" xmlns="http://www.w3.org/2000/svg">
<path d="M11.6364 96.1047L11.6398 119.856C11.6398 124.354 15.2867 128 19.7853 128H42.7985C45.1758 128 47.4356 126.961 48.9833 125.156L114.403 48.8332C115.668 47.3565 116.364 45.4761 116.364 43.5317V19.7807C116.364 15.2821 112.717 11.6352 108.218 11.6352H85.2014C82.8241 11.6352 80.5643 12.6744 79.0167 14.4792L13.5971 90.802C12.331 92.2787 11.6364 94.1591 11.6364 96.1047Z" fill="#F0EB18"/>
<path d="M11.6364 98.9614V119.855C11.6364 124.353 15.2832 128 19.7818 128H45.9671C46.3523 128 46.7374 127.972 47.1191 127.919L121.007 117.364C125.02 116.791 128 113.354 128 109.3V77.9543C128 73.4545 124.352 69.8077 119.852 69.8088L82.7752 69.8182C81.9002 69.8182 81.031 69.959 80.2013 70.2359L17.2055 91.2349C13.8798 92.3438 11.6364 95.4566 11.6364 98.9626V98.9614Z" fill="url(#paint0_linear_11_22734)"/>
<path d="M0 8.14545V76.082C0 79.3402 1.94211 82.2854 4.93614 83.5688L79.9174 115.705C80.9309 116.139 82.0235 116.364 83.1267 116.364H119.855C124.353 116.364 128 112.717 128 108.218V72.2862C128 70.6769 127.523 69.1037 126.629 67.7643L83.8225 3.62705C82.3121 1.36262 79.7707 0.00349091 77.0478 0.00349091L8.14545 0C3.64684 0 0 3.64684 0 8.14545Z" fill="url(#paint1_linear_11_22734)"/>
<path d="M105 23H23V105H105V23Z" fill="black"/>
<path d="M66 89H34V94H66V89Z" fill="white"/>
<path d="M37.6514 33.9914L42.6556 56.619L47.992 33.9914H54.1029L59.6824 56.619L64.5313 33.9914H70.6647L63.1364 64.9883H56.251L51.0261 42.471L45.7348 64.9883H38.8707L31.3875 33.9914H37.6537H37.6514ZM83.7215 65.5209C81.4774 65.5209 79.4847 65.1141 77.7435 64.3027C76.0165 63.4914 74.6584 62.3539 73.6692 60.8926C72.6954 59.4313 72.1936 57.7482 72.164 55.8445H78.231C78.231 56.7436 78.467 57.5359 78.9391 58.2132C79.4112 58.8917 80.0683 59.423 80.9092 59.8073C81.7502 60.1916 82.7169 60.3826 83.8093 60.3826C84.9017 60.3826 85.7724 60.2142 86.5552 59.8738C87.3523 59.5191 87.9643 59.0328 88.3925 58.4125C88.8349 57.7921 89.0567 57.084 89.0567 56.2869C89.0567 55.2989 88.7543 54.4793 88.1493 53.8293C87.5587 53.1793 86.7402 52.7309 85.6917 52.4783L80.2225 51.2601C78.747 50.9363 77.4624 50.3824 76.37 49.5996C75.2775 48.8025 74.4295 47.8204 73.8234 46.6544C73.2184 45.4897 72.916 44.1742 72.916 42.7129C72.916 40.9421 73.3738 39.3562 74.2883 37.953C75.204 36.5356 76.4803 35.4373 78.1183 34.6544C79.7563 33.8574 81.6162 33.4588 83.6978 33.4588C85.7795 33.4588 87.6903 33.8431 89.3438 34.6105C90.9972 35.3768 92.2806 36.4478 93.1963 37.8214C94.1262 39.1807 94.5983 40.744 94.6137 42.5149H88.5692C88.5692 41.7617 88.37 41.0891 87.9714 40.4996C87.5729 39.8935 87.0047 39.4286 86.267 39.1048C85.5434 38.7643 84.7096 38.5959 83.7654 38.5959C82.8213 38.5959 81.9862 38.7596 81.2639 39.0834C80.5558 39.393 80.0019 39.8366 79.6033 40.4119C79.2048 40.9741 79.0055 41.63 79.0055 42.382C79.0055 43.2372 79.2783 43.9453 79.8251 44.5075C80.3862 45.0698 81.1465 45.4683 82.1061 45.7032L87.376 46.8549C88.8966 47.1645 90.2464 47.754 91.4278 48.6258C92.6234 49.481 93.5533 50.5437 94.2175 51.8141C94.8818 53.0678 95.2139 54.4401 95.2139 55.9323C95.2139 57.7613 94.7264 59.4088 93.7526 60.8701C92.793 62.3172 91.442 63.4523 89.7008 64.2802C87.9596 65.1081 85.9669 65.5197 83.7227 65.5197L83.7215 65.5209Z" fill="white"/>
<defs>
<linearGradient id="paint0_linear_11_22734" x1="15.2425" y1="129.435" x2="122.495" y2="79.7091" gradientUnits="userSpaceOnUse">
<stop offset="0.22" stop-color="#F0EB18"/>
<stop offset="0.59" stop-color="#00C4F4"/>
</linearGradient>
<linearGradient id="paint1_linear_11_22734" x1="120.037" y1="119.555" x2="2.62633" y2="2.14574" gradientUnits="userSpaceOnUse">
<stop offset="0.19" stop-color="#00C4F4"/>
<stop offset="0.83" stop-color="#007DFE"/>
</linearGradient>
</defs>
</svg>
