<svg width="48" height="48" viewBox="0 0 48 48" fill="none" xmlns="http://www.w3.org/2000/svg">
<path d="M4.36426 36.0393L4.36557 44.9459C4.36557 46.6329 5.73313 48 7.42011 48H16.0501C16.9416 48 17.789 47.6103 18.3693 46.9335L42.9013 18.3124C43.3756 17.7587 43.6365 17.0535 43.6365 16.3244V7.41774C43.6365 5.73075 42.269 4.36319 40.582 4.36319H31.9507C31.0592 4.36319 30.2118 4.75286 29.6315 5.42966L5.09953 34.0508C4.62477 34.6045 4.36426 35.3097 4.36426 36.0393Z" fill="#00D886"/>
<path d="M4.36377 37.1105V44.9455C4.36377 46.6324 5.73133 48 7.41831 48H17.2378C17.3822 48 17.5267 47.9895 17.6698 47.9695L45.3776 44.0116C46.8826 43.7965 48.0001 42.5079 48.0001 40.9876V29.2329C48.0001 27.5455 46.6321 26.1779 44.9447 26.1783L31.0409 26.1818C30.7127 26.1818 30.3867 26.2346 30.0756 26.3385L6.45221 34.2131C5.20508 34.6289 4.36377 35.7962 4.36377 37.111V37.1105Z" fill="url(#paint0_linear_11_19921)"/>
<path d="M0 3.05455V28.5308C0 29.7526 0.728291 30.857 1.85105 31.3383L29.969 43.3894C30.3491 43.5521 30.7588 43.6364 31.1725 43.6364H44.9455C46.6324 43.6364 48 42.2688 48 40.5818V27.1073C48 26.5039 47.8211 25.9139 47.486 25.4116L31.4339 1.36015C30.8671 0.510982 29.914 0.00130909 28.8934 0.00130909L3.05455 0C1.36756 0 0 1.36756 0 3.05455Z" fill="url(#paint1_linear_11_19921)"/>
<path d="M39 9H9V39H39V9Z" fill="black"/>
<path d="M13.0801 12.9908H17.8001C18.5696 12.9908 19.2478 13.1322 19.8343 13.4149C20.4207 13.6976 20.8709 14.0952 21.1852 14.6085C21.5045 15.1218 21.6644 15.7158 21.6644 16.3911C21.6644 17.0663 21.502 17.6789 21.1776 18.1972C20.8583 18.7155 20.4001 19.119 19.8031 19.4068C19.2116 19.6895 18.5229 19.8308 17.7378 19.8308H15.2249V23.9854H13.0809V12.9908H13.0801ZM17.6583 18.0487C18.0197 18.0487 18.3336 17.9831 18.6007 17.8522C18.8729 17.7159 19.0824 17.5253 19.2289 17.2788C19.3753 17.0276 19.4489 16.7369 19.4489 16.407C19.4489 16.0772 19.3757 15.7835 19.2289 15.5433C19.082 15.2968 18.8729 15.1083 18.6007 14.9779C18.3336 14.8416 18.0197 14.7738 17.6583 14.7738H15.2236V18.0487H17.6583ZM27.8729 24.1743C26.8207 24.1743 25.8678 23.9278 25.0141 23.436C24.1605 22.9383 23.4907 22.258 23.0035 21.3942C22.5168 20.5254 22.2732 19.5565 22.2732 18.4883C22.2732 17.4201 22.5168 16.4542 23.0035 15.5904C23.4903 14.7217 24.1605 14.0405 25.0141 13.5487C25.8674 13.051 26.8203 12.8028 27.8729 12.8028C28.7627 12.8028 29.5798 12.9677 30.3232 13.2975C31.0666 13.6274 31.6842 14.0906 32.1764 14.6876C32.6737 15.2795 33.0061 15.9598 33.1739 16.7293H30.9277C30.7809 16.3317 30.5613 15.9834 30.2681 15.6847C29.9799 15.3813 29.6319 15.1478 29.2234 14.9859C28.8149 14.8239 28.3698 14.7423 27.8885 14.7423C27.2393 14.7423 26.6528 14.9042 26.1295 15.229C25.6057 15.5538 25.195 16.0015 24.8963 16.572C24.6031 17.1374 24.4567 17.7765 24.4567 18.4883C24.4567 19.2002 24.6031 19.8422 24.8963 20.4123C25.1946 20.9777 25.6057 21.4224 26.1295 21.7472C26.6528 22.072 27.2393 22.234 27.8885 22.234C28.3702 22.234 28.8153 22.1524 29.2234 21.9904C29.6315 21.8284 29.9799 21.5979 30.2681 21.2991C30.5613 20.9958 30.7809 20.6445 30.9277 20.2469H33.1739C33.0065 21.0164 32.6737 21.6997 32.1764 22.2967C31.6842 22.8886 31.0666 23.3489 30.3232 23.6787C29.5798 24.0086 28.7627 24.1735 27.8729 24.1735V24.1743Z" fill="white"/>
<path d="M25 33H13V35.0001H25V33Z" fill="white"/>
<defs>
<linearGradient id="paint0_linear_11_19921" x1="5.71606" y1="48.538" x2="45.9357" y2="29.8905" gradientUnits="userSpaceOnUse">
<stop offset="0.1" stop-color="#00D886"/>
<stop offset="0.59" stop-color="#F0EB18"/>
</linearGradient>
<linearGradient id="paint1_linear_11_19921" x1="45.014" y1="44.8333" x2="0.984876" y2="0.804219" gradientUnits="userSpaceOnUse">
<stop offset="0.3" stop-color="#F0EB18"/>
<stop offset="0.7" stop-color="#00C4F4"/>
</linearGradient>
</defs>
</svg>
