<svg width="16" height="16" viewBox="0 0 16 16" fill="none" xmlns="http://www.w3.org/2000/svg">
<path d="M16 0H0V16H16V0Z" fill="#6B57FF"/>
<path d="M15 1H1V15H15V1Z" fill="black"/>
<path d="M8 12H3V13H8V12Z" fill="white"/>
<path d="M2.90222 2.86659H5.14602C5.51182 2.86659 5.83422 2.93379 6.11302 3.06819C6.39182 3.20259 6.60582 3.39159 6.75522 3.63559C6.90702 3.87959 6.98302 4.16199 6.98302 4.48299C6.98302 4.80399 6.90582 5.09519 6.75162 5.34159C6.59982 5.58799 6.38202 5.77979 6.09822 5.91659C5.81702 6.05099 5.48962 6.11819 5.11642 6.11819H3.92182V8.09319H2.90262V2.86659H2.90222ZM5.07862 5.27099C5.25042 5.27099 5.39962 5.23979 5.52662 5.17759C5.65602 5.11279 5.75562 5.02219 5.82522 4.90499C5.89482 4.78559 5.92982 4.64739 5.92982 4.49059C5.92982 4.33379 5.89502 4.19419 5.82522 4.07999C5.75542 3.96279 5.65602 3.87319 5.52662 3.81119C5.39962 3.74639 5.25042 3.71419 5.07862 3.71419H3.92122V5.27099H5.07862ZM9.33322 8.183C8.94982 8.183 8.60522 8.1144 8.29902 7.97759C7.99282 7.8408 7.75262 7.64899 7.57842 7.4026C7.40422 7.15379 7.31462 6.87019 7.30962 6.55139H8.33262C8.33262 6.70079 8.37622 6.8338 8.46322 6.9508C8.55282 7.0652 8.67342 7.1548 8.82542 7.21959C8.97962 7.2844 9.15402 7.3166 9.34802 7.3166C9.53222 7.3166 9.69642 7.2882 9.84082 7.23079C9.98762 7.17099 10.1022 7.08899 10.1842 6.9844C10.2664 6.87979 10.3074 6.76039 10.3074 6.62599C10.3074 6.45939 10.2564 6.3198 10.1544 6.2078C10.0548 6.09339 9.91662 6.01879 9.74002 5.98379L8.66862 5.77839C8.41722 5.73119 8.19822 5.64159 8.01162 5.50959C7.82742 5.3752 7.68562 5.20859 7.58602 5.00939C7.48642 4.80779 7.43662 4.58379 7.43662 4.33739C7.43662 4.03359 7.51742 3.76379 7.67922 3.52719C7.84342 3.29059 8.06862 3.10679 8.35502 2.97459C8.64362 2.84259 8.96842 2.77679 9.32942 2.77679C9.69042 2.77679 10.0188 2.84159 10.3076 2.97099C10.5988 3.10019 10.8266 3.28079 10.9908 3.51239C11.1576 3.74159 11.2422 4.00519 11.2446 4.30379H10.2254C10.2254 4.17459 10.1868 4.05979 10.1096 3.96039C10.035 3.86099 9.93042 3.78359 9.79602 3.72899C9.66162 3.67159 9.50982 3.64319 9.34062 3.64319C9.17142 3.64319 9.02322 3.67079 8.88882 3.72539C8.75442 3.77999 8.64982 3.85599 8.57522 3.95319C8.50062 4.04799 8.46322 4.15719 8.46322 4.28179C8.46322 4.42599 8.50922 4.54819 8.60142 4.64759C8.69342 4.74459 8.82162 4.80959 8.98602 4.84179L10.0238 5.03599C10.2852 5.08319 10.5154 5.17919 10.7144 5.3234C10.916 5.46759 11.0716 5.64819 11.181 5.86479C11.2904 6.07899 11.3452 6.31279 11.3452 6.56659C11.3452 6.88019 11.2594 7.1602 11.0876 7.4066C10.9158 7.6506 10.677 7.841 10.3708 7.9778C10.0646 8.1146 9.71862 8.18319 9.33302 8.18319L9.33322 8.183Z" fill="white"/>
</svg>
