<svg width="48" height="48" viewBox="0 0 48 48" fill="none" xmlns="http://www.w3.org/2000/svg">
<path d="M43.6364 11.9607L43.6351 3.05411C43.6346 1.36756 42.2671 0 40.5805 0H31.9506C31.0591 0 30.2116 0.389673 29.6313 1.06647L5.09892 29.6876C4.62459 30.2413 4.36365 30.9465 4.36365 31.6756V40.5823C4.36365 42.2692 5.73121 43.6368 7.41819 43.6368H16.0495C16.941 43.6368 17.7884 43.2471 18.3687 42.5703L42.9007 13.9492C43.3754 13.3955 43.6359 12.6903 43.6359 11.9607H43.6364Z" fill="#D249FC"/>
<path d="M43.6364 10.8895V3.05455C43.6364 1.36756 42.2688 0 40.5818 0H30.7623C30.6179 0 30.4735 0.0104727 30.3303 0.0305455L2.62255 3.9888C1.11796 4.20349 0 5.49251 0 7.01236V18.7671C0 20.4545 1.368 21.8221 3.05542 21.8217L16.9593 21.8182C17.2874 21.8182 17.6134 21.7654 17.9245 21.6615L41.5479 13.7869C42.7951 13.3711 43.6364 12.2038 43.6364 10.889V10.8895Z" fill="url(#paint0_linear_11_21636)"/>
<path d="M48 44.9455V19.4692C48 18.2474 47.2717 17.143 46.1489 16.6617L18.031 4.61063C17.6509 4.44787 17.2412 4.36365 16.8275 4.36365H3.05455C1.36756 4.36365 0 5.73121 0 7.41819V20.8927C0 21.4962 0.178909 22.0861 0.514036 22.5884L16.5665 46.6399C17.1329 47.489 18.0864 47.9987 19.1071 47.9987L44.9455 48C46.6324 48 48 46.6324 48 44.9455Z" fill="url(#paint1_linear_11_21636)"/>
<path d="M39 9H9V39H39V9Z" fill="black"/>
<path d="M24.9999 33H12.9999V35.0001H24.9999V33Z" fill="white"/>
<path d="M13.0762 12.9965H17.7997C18.5698 12.9965 19.2485 13.1379 19.8354 13.4209C20.4224 13.7038 20.8729 14.1017 21.1874 14.6154C21.507 15.129 21.6669 15.7235 21.6669 16.3993C21.6669 17.075 21.5044 17.6881 21.1798 18.2068C20.8602 18.7255 20.4017 19.1293 19.8043 19.4172C19.2123 19.7002 18.5231 19.8416 17.7374 19.8416H15.2226V23.9993H13.077V12.9965H13.0762ZM17.6579 18.0581C18.0195 18.0581 18.3336 17.9925 18.601 17.8615C18.8734 17.7251 19.0831 17.5344 19.2296 17.2877C19.3761 17.0363 19.4498 16.7454 19.4498 16.4153C19.4498 16.0852 19.3765 15.7913 19.2296 15.5509C19.0826 15.3042 18.8734 15.1155 18.601 14.985C18.3336 14.8486 18.0195 14.7808 17.6579 14.7808H15.2213V18.0581H17.6579ZM26.6145 24.1884C25.8074 24.1884 25.0819 24.044 24.4373 23.756C23.7927 23.468 23.2871 23.0642 22.9204 22.5455C22.5536 22.0218 22.365 21.4247 22.3545 20.7536H24.5081C24.5081 21.0681 24.5999 21.3481 24.783 21.5944C24.9716 21.8352 25.2255 22.0239 25.5455 22.1603C25.8701 22.2967 26.2373 22.3645 26.6457 22.3645C27.0334 22.3645 27.3791 22.3047 27.6831 22.1839C27.9921 22.058 28.2334 21.8853 28.406 21.6651C28.5791 21.4449 28.6654 21.1936 28.6654 20.9106C28.6654 20.5599 28.558 20.266 28.3433 20.0303C28.1336 19.7894 27.8427 19.6324 27.4709 19.5587L25.2154 19.1263C24.6862 19.0269 24.2251 18.8383 23.8323 18.5604C23.4445 18.2775 23.146 17.9268 22.9364 17.5074C22.7267 17.083 22.6218 16.6115 22.6218 16.0928C22.6218 15.4532 22.7919 14.8852 23.1326 14.3872C23.4782 13.8891 23.9523 13.5021 24.5552 13.2238C25.1628 12.946 25.8465 12.8074 26.6065 12.8074C27.3665 12.8074 28.0578 12.9438 28.6658 13.2163C29.2788 13.4882 29.7584 13.8684 30.104 14.356C30.4552 14.8385 30.6333 15.3934 30.6383 16.022H28.4927C28.4927 15.75 28.4115 15.5084 28.249 15.2991C28.0919 15.0899 27.8717 14.9269 27.5888 14.812C27.3058 14.6911 26.9863 14.6314 26.6301 14.6314C26.2739 14.6314 25.9619 14.6895 25.679 14.8044C25.396 14.9193 25.1758 15.0793 25.0188 15.284C24.8617 15.4835 24.783 15.7134 24.783 15.9757C24.783 16.2793 24.8799 16.5365 25.0739 16.7458C25.2676 16.95 25.5375 17.0868 25.8836 17.1546L28.0683 17.5634C28.6186 17.6628 29.1032 17.8649 29.5222 18.1685C29.9466 18.472 30.2741 18.8522 30.5044 19.3082C30.7347 19.7591 30.8501 20.2513 30.8501 20.7856C30.8501 21.4458 30.6695 22.0352 30.3078 22.5539C29.9461 23.0676 29.4434 23.4684 28.7988 23.7564C28.1542 24.0444 27.4258 24.1888 26.6141 24.1888L26.6145 24.1884Z" fill="white"/>
<defs>
<linearGradient id="paint0_linear_11_21636" x1="42.2841" y1="-0.538036" x2="2.06444" y2="18.1095" gradientUnits="userSpaceOnUse">
<stop offset="0.16" stop-color="#D249FC"/>
<stop offset="0.55" stop-color="#FF2D90"/>
</linearGradient>
<linearGradient id="paint1_linear_11_21636" x1="2.98647" y1="3.1667" x2="47.0151" y2="47.1958" gradientUnits="userSpaceOnUse">
<stop offset="0.3" stop-color="#FF2D90"/>
<stop offset="0.7" stop-color="#7256FF"/>
</linearGradient>
</defs>
</svg>
