<svg width="128" height="128" viewBox="0 0 128 128" fill="none" xmlns="http://www.w3.org/2000/svg">
<path d="M116.364 31.8953L116.36 8.14429C116.359 3.64684 112.712 0 108.215 0H85.2014C82.8241 0 80.5644 1.03913 79.0167 2.84393L13.5971 79.1668C12.3322 80.6435 11.6364 82.5239 11.6364 84.4684V108.219C11.6364 112.718 15.2832 116.365 19.7818 116.365H42.7985C45.1758 116.365 47.4356 115.326 48.9833 113.521L114.402 37.198C115.668 35.7213 116.362 33.8409 116.362 31.8953H116.364Z" fill="#D249FC"/>
<path d="M116.364 29.0385V8.14545C116.364 3.64684 112.717 0 108.218 0H82.0329C81.6477 0 81.2626 0.0279273 80.8809 0.0814545L6.99345 10.6368C2.98124 11.2093 0 14.6467 0 18.6996V50.0457C0 54.5454 3.648 58.1923 8.14778 58.1911L45.2247 58.1818C46.0998 58.1818 46.969 58.041 47.7987 57.7641L110.794 36.7651C114.12 35.6561 116.364 32.5434 116.364 29.0374V29.0385Z" fill="url(#paint0_linear_11_21635)"/>
<path d="M128 119.855V51.918C128 48.6598 126.058 45.7146 123.064 44.4311L48.0826 12.295C47.0691 11.8609 45.9764 11.6364 44.8733 11.6364H8.14545C3.64684 11.6364 0 15.2832 0 19.7818V55.7137C0 57.3231 0.477091 58.8963 1.37076 60.2356L44.1775 124.373C45.6879 126.637 48.2304 127.997 50.9521 127.997L119.855 128C124.353 128 128 124.353 128 119.855Z" fill="url(#paint1_linear_11_21635)"/>
<path d="M105 23H23V105H105V23Z" fill="black"/>
<path d="M66 89H34V94H66V89Z" fill="white"/>
<path d="M34.1415 33.9397H47.4523C49.6223 33.9397 51.5349 34.3383 53.1888 35.1356C54.8427 35.9329 56.1122 37.0541 56.9985 38.5016C57.899 39.9491 58.3499 41.6244 58.3499 43.5286C58.3499 45.4329 57.8919 47.1603 56.9772 48.6221C56.0766 50.0838 54.7846 51.2216 53.101 52.0331C51.4329 52.8304 49.4906 53.2291 47.2767 53.2291H40.19V64.9453H34.1439V33.9397H34.1415ZM47.0525 48.2032C48.0716 48.2032 48.9567 48.0182 49.7101 47.6492C50.4778 47.2648 51.0686 46.7273 51.4815 46.032C51.8944 45.3237 52.102 44.5039 52.102 43.5737C52.102 42.6435 51.8956 41.8154 51.4815 41.1379C51.0674 40.4427 50.4778 39.9111 49.7101 39.5433C48.9567 39.1589 48.0716 38.9679 47.0525 38.9679H40.1865V48.2032H47.0525ZM72.2919 65.478C70.0175 65.478 67.9732 65.0711 66.1567 64.2595C64.3403 63.448 62.9153 62.3102 61.882 60.8485C60.8485 59.3725 60.317 57.6901 60.2874 55.7989H66.3561C66.3561 56.6852 66.6147 57.4742 67.1308 58.1683C67.6623 58.8469 68.3778 59.3785 69.2795 59.7629C70.1942 60.1473 71.2288 60.3383 72.3797 60.3383C73.4724 60.3383 74.4465 60.1698 75.3031 59.8293C76.174 59.4746 76.8538 58.9881 77.3403 58.3676C77.8279 57.7471 78.0711 57.0388 78.0711 56.2415C78.0711 55.2531 77.7686 54.425 77.1635 53.7606C76.5726 53.0819 75.7528 52.6394 74.7051 52.4318L68.3493 51.2133C66.8579 50.9333 65.5588 50.4017 64.4518 49.6187C63.3591 48.8214 62.5179 47.8331 61.927 46.6514C61.3362 45.4554 61.0408 44.1266 61.0408 42.6649C61.0408 40.8627 61.5201 39.2621 62.4799 37.8586C63.454 36.455 64.7899 35.3646 66.489 34.5804C68.201 33.7973 70.1278 33.407 72.2693 33.407C74.4109 33.407 76.3591 33.7914 78.0723 34.559C79.7998 35.3255 81.1511 36.3968 82.1252 37.7708C83.1147 39.1304 83.6166 40.6942 83.6308 42.4656H77.5847C77.5847 41.6991 77.3557 41.0181 76.8977 40.4284C76.4552 39.8387 75.8346 39.3796 75.0373 39.0557C74.2401 38.7152 73.3395 38.5467 72.3358 38.5467C71.3321 38.5467 70.4529 38.7104 69.6556 39.0343C68.8583 39.3582 68.2378 39.8091 67.7952 40.3857C67.3527 40.9481 67.1308 41.5959 67.1308 42.335C67.1308 43.1905 67.4037 43.9154 67.9507 44.5051C68.4964 45.0805 69.2569 45.4661 70.2322 45.6571L76.3887 46.8092C77.9394 47.0892 79.305 47.6587 80.4855 48.5141C81.6815 49.3695 82.6045 50.4409 83.2535 51.7258C83.9025 52.9965 84.2276 54.3835 84.2276 55.8891C84.2276 57.7494 83.7186 59.4105 82.6995 60.8722C81.6803 62.3197 80.2637 63.4492 78.4472 64.2607C76.6308 65.0722 74.5782 65.4792 72.2907 65.4792L72.2919 65.478Z" fill="white"/>
<defs>
<linearGradient id="paint0_linear_11_21635" x1="112.758" y1="-1.43476" x2="5.50516" y2="48.2921" gradientUnits="userSpaceOnUse">
<stop offset="0.16" stop-color="#D249FC"/>
<stop offset="0.55" stop-color="#FF2D90"/>
</linearGradient>
<linearGradient id="paint1_linear_11_21635" x1="7.96393" y1="8.44451" x2="125.374" y2="125.855" gradientUnits="userSpaceOnUse">
<stop offset="0.3" stop-color="#FF2D90"/>
<stop offset="0.7" stop-color="#7256FF"/>
</linearGradient>
</defs>
</svg>
