<svg width="256" height="256" viewBox="0 0 256 256" fill="none" xmlns="http://www.w3.org/2000/svg">
<path d="M232.727 63.7905L232.72 16.2886C232.718 7.29367 225.424 0 216.429 0H170.403C165.648 0 161.129 2.07825 158.033 5.68785L27.1942 158.334C24.6644 161.287 23.2727 165.048 23.2727 168.937V216.439C23.2727 225.436 30.5664 232.73 39.5636 232.73H85.5971C90.3517 232.73 94.8713 230.651 97.9665 227.042L228.803 74.3959C231.336 71.4426 232.725 67.6817 232.725 63.7905H232.727Z" fill="#D249FC"/>
<path d="M232.727 58.0771V16.2909C232.727 7.29367 225.434 0 216.436 0H164.066C163.295 0 162.525 0.0558545 161.762 0.162909L13.9869 21.2736C5.96247 22.4186 0 29.2934 0 37.3993V100.091C0 109.091 7.296 116.385 16.2956 116.382L90.4495 116.364C92.1996 116.364 93.938 116.082 95.5974 115.528L221.589 73.5302C228.24 71.3123 232.727 65.0868 232.727 58.0748V58.0771Z" fill="url(#paint0_linear_11_21639)"/>
<path d="M256 239.709V103.836C256 97.3196 252.116 91.4292 246.128 88.8623L96.1652 24.59C94.1382 23.7219 91.9529 23.2727 89.7466 23.2727H16.2909C7.29367 23.2727 0 30.5664 0 39.5636V111.428C0 114.646 0.954182 117.793 2.74153 120.471L88.3549 248.746C91.3757 253.275 96.4608 255.993 101.904 255.993L239.709 256C248.706 256 256 248.706 256 239.709Z" fill="url(#paint1_linear_11_21639)"/>
<path d="M209 47H47V209H209V47Z" fill="black"/>
<path d="M133 177H68V188H133V177Z" fill="white"/>
<path d="M69.0111 69.018H94.9751C99.2079 69.018 102.939 69.8023 106.165 71.3709C109.391 72.9395 111.867 75.1453 113.596 77.9929C115.352 80.8406 116.232 84.1365 116.232 87.8828C116.232 91.6292 115.338 95.0277 113.554 97.9034C111.798 100.779 109.277 103.018 105.993 104.614C102.74 106.183 98.951 106.967 94.6326 106.967H80.8093V130.017H69.0157V69.018H69.0111ZM94.1952 97.0795C96.1831 97.0795 97.9096 96.7154 99.3792 95.9894C100.877 95.2332 102.029 94.1758 102.834 92.8079C103.64 91.4144 104.045 89.8015 104.045 87.9715C104.045 86.1415 103.642 84.5123 102.834 83.1795C102.027 81.8117 100.877 80.7659 99.3792 80.0423C97.9096 79.2861 96.1831 78.9103 94.1952 78.9103H80.8024V97.0795H94.1952ZM143.427 131.065C138.99 131.065 135.003 130.264 131.46 128.668C127.917 127.071 125.137 124.833 123.121 121.957C121.106 119.053 120.069 115.744 120.011 112.023H131.849C131.849 113.766 132.353 115.319 133.36 116.684C134.397 118.019 135.792 119.065 137.551 119.821C139.335 120.578 141.353 120.953 143.598 120.953C145.73 120.953 147.63 120.622 149.301 119.952C150.999 119.254 152.325 118.297 153.274 117.076C154.225 115.856 154.7 114.462 154.7 112.894C154.7 110.949 154.11 109.32 152.929 108.013C151.777 106.678 150.178 105.807 148.134 105.398L135.737 103.001C132.828 102.45 130.293 101.405 128.134 99.8642C126.003 98.2956 124.362 96.3512 123.209 94.0264C122.057 91.6735 121.481 89.0593 121.481 86.1836C121.481 82.638 122.416 79.4891 124.288 76.7278C126.188 73.9665 128.794 71.8214 132.108 70.2785C135.447 68.7379 139.206 67.97 143.383 67.97C147.56 67.97 151.36 68.7263 154.702 70.2365C158.072 71.7444 160.708 73.8521 162.608 76.5551C164.538 79.2301 165.517 82.3065 165.545 85.7914H153.751C153.751 84.2835 153.304 82.9437 152.411 81.7836C151.548 80.6236 150.337 79.7202 148.782 79.083C147.227 78.4131 145.47 78.0816 143.513 78.0816C141.555 78.0816 139.84 78.4038 138.285 79.041C136.729 79.6782 135.519 80.5652 134.656 81.6996C133.793 82.806 133.36 84.0805 133.36 85.5347C133.36 87.2176 133.892 88.6438 134.959 89.8039C136.024 90.9359 137.507 91.6945 139.409 92.0703L151.418 94.3368C154.443 94.8877 157.107 96.0081 159.409 97.691C161.742 99.374 163.543 101.482 164.809 104.01C166.075 106.51 166.709 109.238 166.709 112.2C166.709 115.86 165.716 119.128 163.728 122.004C161.74 124.851 158.977 127.074 155.433 128.67C151.89 130.267 147.887 131.067 143.425 131.067L143.427 131.065Z" fill="white"/>
<defs>
<linearGradient id="paint0_linear_11_21639" x1="225.515" y1="-2.86952" x2="11.0103" y2="96.5842" gradientUnits="userSpaceOnUse">
<stop offset="0.16" stop-color="#D249FC"/>
<stop offset="0.55" stop-color="#FF2D90"/>
</linearGradient>
<linearGradient id="paint1_linear_11_21639" x1="15.9279" y1="16.889" x2="250.747" y2="251.711" gradientUnits="userSpaceOnUse">
<stop offset="0.3" stop-color="#FF2D90"/>
<stop offset="0.7" stop-color="#7256FF"/>
</linearGradient>
</defs>
</svg>
