<svg width="128" height="128" viewBox="0 0 128 128" fill="none" xmlns="http://www.w3.org/2000/svg">
<path d="M31.8953 11.6364L8.14429 11.6399C3.64567 11.6399 0 15.2867 0 19.7853V42.7985C0 45.1759 1.03913 47.4356 2.84393 48.9833L79.1657 114.403C80.6423 115.668 82.5228 116.364 84.4672 116.364H108.218C112.717 116.364 116.364 112.717 116.364 108.218V85.2015C116.364 82.8241 115.325 80.5644 113.52 79.0167L37.198 13.5983C35.7213 12.3322 33.8409 11.6375 31.8953 11.6375V11.6364Z" fill="#FF8100"/>
<path d="M29.0385 11.6364H8.14545C3.64684 11.6364 0 15.2832 0 19.7818V45.9671C0 46.3523 0.0279273 46.7375 0.0814545 47.1191L10.6356 121.007C11.2093 125.02 14.6455 128 18.6996 128H50.0457C54.5454 128 58.1923 124.352 58.1911 119.852L58.1818 82.7753C58.1818 81.9002 58.041 81.031 57.7641 80.2013L36.7651 17.2055C35.6561 13.8799 32.5434 11.6364 29.0374 11.6364H29.0385Z" fill="url(#paint0_linear_9_10154)"/>
<path d="M119.854 0H51.9178C48.6596 0 45.7145 1.94211 44.431 4.93615L12.2948 79.9174C11.8608 80.9309 11.6362 82.0236 11.6362 83.1267V119.855C11.6362 124.353 15.2831 128 19.7817 128H55.7136C57.3229 128 58.8962 127.523 60.2355 126.629L124.373 83.8225C126.637 82.3121 127.996 79.7696 127.996 77.0479L128 8.14545C128 3.64684 124.353 0 119.854 0Z" fill="url(#paint1_linear_9_10154)"/>
<path d="M105 23H23V105H105V23Z" fill="black"/>
<path d="M34 59.5969H40.1562V39.4031H34V34H52.2673V39.4031H46.1111V59.5969H52.2673V65H34V59.5969Z" fill="white"/>
<path d="M55.3672 59.4205H59.8183C60.7182 59.4205 61.5198 59.2286 62.2208 58.845C62.9218 58.4613 63.4641 57.919 63.8478 57.218C64.2314 56.517 64.4233 55.7166 64.4233 54.8155V34H70.4681V55.2346C70.4681 57.0949 70.0395 58.7668 69.1834 60.2505C68.3273 61.7342 67.1467 62.897 65.6405 63.7377C64.1343 64.5796 62.4446 65 60.5702 65H55.3672V59.4205Z" fill="white"/>
<path d="M66 89H34V94H66V89Z" fill="white"/>
<defs>
<linearGradient id="paint0_linear_9_10154" x1="-1.43477" y1="15.2425" x2="48.2909" y2="122.495" gradientUnits="userSpaceOnUse">
<stop offset="0.1" stop-color="#FC801D"/>
<stop offset="0.59" stop-color="#FE2857"/>
</linearGradient>
<linearGradient id="paint1_linear_9_10154" x1="8.44438" y1="120.037" x2="125.854" y2="2.62633" gradientUnits="userSpaceOnUse">
<stop offset="0.21" stop-color="#FE2857"/>
<stop offset="0.7" stop-color="#007EFF"/>
</linearGradient>
</defs>
</svg>
