<svg width="256" height="256" viewBox="0 0 256 256" fill="none" xmlns="http://www.w3.org/2000/svg">
<g clip-path="url(#clip0_9_10155)">
<path d="M63.7905 23.2727L16.2886 23.2797C7.29135 23.2797 0 30.5734 0 39.5706V85.5971C0 90.3517 2.07825 94.8713 5.68785 97.9666L158.331 228.806C161.285 231.336 165.046 232.727 168.934 232.727H216.436C225.434 232.727 232.727 225.434 232.727 216.436V170.403C232.727 165.648 230.649 161.129 227.039 158.033L74.3959 27.1965C71.4426 24.6644 67.6817 23.2751 63.7905 23.2751V23.2727Z" fill="#FF8100"/>
<path d="M58.0771 23.2727H16.2909C7.29367 23.2727 0 30.5664 0 39.5636V91.9343C0 92.7046 0.0558545 93.4749 0.162909 94.2383L21.2713 242.013C22.4186 250.04 29.2911 256 37.3993 256H100.091C109.091 256 116.385 248.704 116.382 239.704L116.364 165.551C116.364 163.8 116.082 162.062 115.528 160.403L73.5302 34.4111C71.3123 27.7597 65.0868 23.2727 58.0748 23.2727H58.0771Z" fill="url(#paint0_linear_9_10155)"/>
<path d="M239.709 0H103.836C97.3198 0 91.4295 3.88422 88.8625 9.87229L24.5902 159.835C23.7221 161.862 23.2729 164.047 23.2729 166.253V239.709C23.2729 248.706 30.5666 256 39.5639 256H111.428C114.646 256 117.793 255.046 120.472 253.258L248.746 167.645C253.275 164.624 255.993 159.539 255.993 154.096L256 16.2909C256 7.29367 248.707 0 239.709 0Z" fill="url(#paint1_linear_9_10155)"/>
<path d="M209 47H47V209H209V47Z" fill="black"/>
<path d="M68 119.368H80.1138V79.6319H68V69H103.945V79.6319H91.8315V119.368H103.945V130H68V119.368Z" fill="white"/>
<path d="M110.045 119.021H118.804C120.575 119.021 122.152 118.643 123.532 117.889C124.911 117.134 125.978 116.066 126.733 114.687C127.488 113.308 127.865 111.733 127.865 109.959V69H139.76V110.784C139.76 114.445 138.917 117.735 137.232 120.654C135.548 123.574 133.224 125.862 130.261 127.516C127.297 129.173 123.972 130 120.284 130H110.045V119.021Z" fill="white"/>
<path d="M133 177H68V188H133V177Z" fill="white"/>
</g>
<defs>
<linearGradient id="paint0_linear_9_10155" x1="-2.86953" y1="30.485" x2="96.5818" y2="244.99" gradientUnits="userSpaceOnUse">
<stop offset="0.1" stop-color="#FC801D"/>
<stop offset="0.59" stop-color="#FE2857"/>
</linearGradient>
<linearGradient id="paint1_linear_9_10155" x1="16.8892" y1="240.074" x2="251.709" y2="5.25265" gradientUnits="userSpaceOnUse">
<stop offset="0.21" stop-color="#FE2857"/>
<stop offset="0.7" stop-color="#007EFF"/>
</linearGradient>
<clipPath id="clip0_9_10155">
<rect width="256" height="256" fill="white"/>
</clipPath>
</defs>
</svg>
