<svg width="32" height="32" viewBox="0 0 32 32" fill="none" xmlns="http://www.w3.org/2000/svg">
<path d="M7.97382 2.90909L2.03607 2.90996C0.911418 2.90996 0 3.82167 0 4.94632V10.6996C0 11.294 0.259782 11.8589 0.710982 12.2458L19.7914 28.6007C20.1606 28.9169 20.6307 29.0909 21.1168 29.0909H27.0545C28.1792 29.0909 29.0909 28.1792 29.0909 27.0545V21.3004C29.0909 20.706 28.8311 20.1411 28.3799 19.7542L9.29949 3.39956C8.93033 3.08305 8.46022 2.90938 7.97382 2.90938V2.90909Z" fill="#FF8100"/>
<path d="M7.25964 2.90909H2.03636C0.911709 2.90909 0 3.8208 0 4.94545V11.4918C0 11.5881 0.00698182 11.6844 0.0203636 11.7798L2.65891 30.2516C2.80233 31.255 3.66138 32 4.67491 32H12.5114C13.6364 32 14.5481 31.088 14.5478 29.9631L14.5455 20.6938C14.5455 20.4751 14.5103 20.2577 14.441 20.0503L9.19127 4.30138C8.91404 3.46996 8.13585 2.90909 7.25935 2.90909H7.25964Z" fill="url(#paint0_linear_9_10151)"/>
<path d="M29.9637 0H12.9796C12.165 0 11.4287 0.485527 11.1079 1.23404L3.07383 19.9793C2.96533 20.2327 2.90918 20.5059 2.90918 20.7817V29.9636C2.90918 31.0883 3.82089 32 4.94554 32H13.9285C14.3309 32 14.7242 31.8807 15.059 31.6573L31.0933 20.9556C31.6594 20.578 31.9992 19.9424 31.9992 19.262L32.0001 2.03636C32.0001 0.911709 31.0884 0 29.9637 0Z" fill="url(#paint1_linear_9_10151)"/>
<path d="M26 6H6V26H26V6Z" fill="black"/>
<path d="M9 15.6057H10.5887V10.3943H9V9H13.7141V10.3943H12.1254V15.6057H13.7141V17H9V15.6057Z" fill="white"/>
<path d="M14.5137 15.5601H15.6623C15.8946 15.5601 16.1014 15.5106 16.2824 15.4116C16.4633 15.3126 16.6032 15.1727 16.7022 14.9917C16.8012 14.8108 16.8507 14.6043 16.8507 14.3717V9H18.4107V14.4799C18.4107 14.96 18.3001 15.3914 18.0791 15.7743C17.8582 16.1572 17.5535 16.4573 17.1649 16.6743C16.7762 16.8915 16.3401 17 15.8564 17H14.5137V15.5601Z" fill="white"/>
<path d="M16 22H9V23H16V22Z" fill="white"/>
<defs>
<linearGradient id="paint0_linear_9_10151" x1="-0.358691" y1="3.81062" x2="12.0727" y2="30.6237" gradientUnits="userSpaceOnUse">
<stop offset="0.1" stop-color="#FC801D"/>
<stop offset="0.59" stop-color="#FE2857"/>
</linearGradient>
<linearGradient id="paint1_linear_9_10151" x1="2.11122" y1="30.0093" x2="31.4637" y2="0.656581" gradientUnits="userSpaceOnUse">
<stop offset="0.21" stop-color="#FE2857"/>
<stop offset="0.7" stop-color="#007EFF"/>
</linearGradient>
</defs>
</svg>
