<svg width="256" height="256" viewBox="0 0 256 256" fill="none" xmlns="http://www.w3.org/2000/svg">
<path d="M0 16.2909V152.164C0 158.68 3.88422 164.571 9.87229 167.138L159.835 231.41C161.862 232.278 164.047 232.727 166.253 232.727H239.709C248.706 232.727 256 225.434 256 216.436V144.572C256 141.354 255.046 138.207 253.258 135.529L167.647 7.25411C164.624 2.72524 159.541 0.00698182 154.098 0.00698182L16.2909 0C7.29367 0 0 7.29367 0 16.2909Z" fill="url(#paint0_linear_11_20230)"/>
<path d="M23.2729 197.923V239.709C23.2729 248.706 30.5666 256 39.5639 256H91.9345C92.7048 256 93.4751 255.944 94.2385 255.837L242.013 234.729C250.04 233.581 256 226.709 256 218.601V155.909C256 146.909 248.704 139.615 239.705 139.618L165.551 139.636C163.801 139.636 162.062 139.918 160.403 140.472L34.4113 182.47C27.7599 184.688 23.2729 190.913 23.2729 197.925V197.923Z" fill="url(#paint1_linear_11_20230)"/>
<path d="M23.2729 192.209L23.2799 239.711C23.2799 248.709 30.5736 256 39.5708 256H85.5973C90.3519 256 94.8715 253.922 97.9668 250.312L228.806 97.6664C231.336 94.7131 232.727 90.9522 232.727 87.0633V39.5614C232.727 30.5641 225.434 23.2704 216.437 23.2704H170.403C165.648 23.2704 161.129 25.3487 158.034 28.9583L27.1967 181.604C24.6647 184.557 23.2753 188.318 23.2753 192.209H23.2729Z" fill="#00D886"/>
<path d="M209 47H47V209H209V47Z" fill="black"/>
<path fill-rule="evenodd" clip-rule="evenodd" d="M91.734 130.55C87.9107 129.971 84.3277 128.78 81.0202 126.892L81.0225 126.894C76.2889 124.117 72.5565 120.359 69.8256 115.567C67.1249 110.719 65.7734 105.383 65.7734 99.4446C65.7734 93.5064 67.1249 88.1705 69.8256 83.3762C72.5565 78.5304 76.2889 74.7724 81.0225 72.0485C85.7866 69.2708 91.0595 67.91 96.9252 67.91C102.791 67.91 108.092 69.2708 112.828 72.0485C117.59 74.7724 121.324 78.5304 124.025 83.3762C126.726 88.1705 128.077 93.5088 128.077 99.4446C128.077 105.38 126.726 110.719 124.025 115.567C121.324 120.359 117.592 124.117 112.828 126.894C109.749 128.664 106.407 129.798 102.849 130.417V130.762C102.849 131.686 103.024 132.45 103.372 133.103C103.722 133.757 104.215 134.247 104.854 134.574C105.494 134.903 106.278 135.064 107.207 135.064H114.658V143.887H104.854C102.21 143.887 99.8873 143.341 97.8822 142.307C95.9075 141.326 94.381 139.856 93.3073 137.949C92.2615 136.098 91.7387 133.864 91.7387 131.304L91.734 130.55ZM87.2081 81.0863C84.3324 82.886 82.0659 85.3906 80.411 88.6584C78.7841 91.8165 77.9718 95.4135 77.9718 99.4422C77.9718 103.471 78.7841 107.066 80.411 110.28C82.0659 113.492 84.3324 115.996 87.2081 117.849C90.1118 119.647 93.3656 120.517 96.9672 120.517C100.569 120.517 103.809 119.647 106.684 117.849C109.56 115.998 111.81 113.492 113.437 110.28C115.062 107.066 115.876 103.473 115.876 99.4422C115.876 95.4111 115.064 91.8165 113.437 88.6584C111.81 85.3882 109.56 82.8837 106.684 81.0863C103.809 79.2867 100.569 78.3624 96.9672 78.3624C93.3656 78.3624 90.1118 79.289 87.2081 81.0863Z" fill="white"/>
<path fill-rule="evenodd" clip-rule="evenodd" d="M151.225 68.9417H164.119L186.732 129.94H174.751L169.828 115.781H146.083L141.463 129.94H129.221L151.225 68.9417ZM156.67 83.3225L148.914 106.578H166.691L158.456 83.3225L157.541 79.4548L156.67 83.3225Z" fill="white"/>
<path d="M133 177H68V188H133V177Z" fill="white"/>
<defs>
<linearGradient id="paint0_linear_11_20230" x1="240.074" y1="239.111" x2="5.25266" y2="4.29148" gradientUnits="userSpaceOnUse">
<stop offset="0.25" stop-color="#7256FF"/>
<stop offset="0.73" stop-color="#007DFE"/>
</linearGradient>
<linearGradient id="paint1_linear_11_20230" x1="30.4875" y1="258.869" x2="248.246" y2="157.908" gradientUnits="userSpaceOnUse">
<stop offset="0.3" stop-color="#00D886"/>
<stop offset="0.54" stop-color="#7256FF"/>
</linearGradient>
</defs>
</svg>
