<svg width="128" height="128" viewBox="0 0 128 128" fill="none" xmlns="http://www.w3.org/2000/svg">
<path d="M11.6377 96.1047L11.6412 119.856C11.6412 124.354 15.288 128 19.7866 128H42.7999C45.1772 128 47.437 126.961 48.9846 125.156L114.403 48.8332C115.668 47.3565 116.364 45.4761 116.364 43.5316V19.7807C116.364 15.282 112.717 11.6352 108.218 11.6352H85.2016C82.8243 11.6352 80.5645 12.6743 79.0169 14.4791L13.5984 90.802C12.3324 92.2787 11.6377 94.1591 11.6377 96.1047Z" fill="#00D886"/>
<path d="M11.6362 98.9615V119.855C11.6362 124.353 15.2831 128 19.7817 128H45.967C46.3522 128 46.7373 127.972 47.119 127.919L121.006 117.364C125.02 116.791 128 113.354 128 109.3V77.9543C128 73.4545 124.352 69.8077 119.852 69.8089L82.7751 69.8182C81.9001 69.8182 81.0308 69.959 80.2012 70.2359L17.2054 91.2349C13.8797 92.3438 11.6362 95.4566 11.6362 98.9626V98.9615Z" fill="url(#paint0_linear_11_19923)"/>
<path d="M0 8.14545V76.082C0 79.3402 1.94211 82.2854 4.93615 83.5689L79.9174 115.705C80.9309 116.139 82.0236 116.364 83.1267 116.364H119.855C124.353 116.364 128 112.717 128 108.218V72.2863C128 70.6769 127.523 69.1037 126.629 67.7644L83.8237 3.62705C82.3121 1.36262 79.7708 0.00349091 77.049 0.00349091L8.14545 0C3.64684 0 0 3.64684 0 8.14545Z" fill="url(#paint1_linear_11_19923)"/>
<path d="M105 23H23V105H105V23Z" fill="black"/>
<path d="M66 89H34V94H66V89Z" fill="white"/>
<path d="M34.3398 34.0484H47.5602C49.7155 34.0484 51.615 34.4443 53.2577 35.2362C54.9004 36.0281 56.1613 37.1417 57.0415 38.5793C57.9359 40.0169 58.3837 41.6808 58.3837 43.5721C58.3837 45.4634 57.9288 47.1792 57.0203 48.6309C56.1259 50.0827 54.8426 51.2128 53.1705 52.0188C51.5137 52.8107 49.5847 53.2066 47.3858 53.2066H40.3473V64.8432H34.3422V34.0484H34.3398ZM47.1631 48.215C48.1753 48.215 49.0544 48.0312 49.8027 47.6647C50.5651 47.2829 51.1519 46.7491 51.562 46.0585C51.9721 45.355 52.1783 44.5408 52.1783 43.6169C52.1783 42.693 51.9733 41.8705 51.562 41.1977C51.1507 40.5071 50.5651 39.9792 49.8027 39.6139C49.0544 39.2321 48.1753 39.0424 47.1631 39.0424H40.3437V48.215H47.1631ZM75.7732 65.3723C72.826 65.3723 70.157 64.6818 67.766 63.3042C65.3751 61.9102 63.4991 60.0048 62.1345 57.5855C60.7711 55.1522 60.0888 52.4383 60.0888 49.4464C60.0888 46.4545 60.7711 43.7489 62.1345 41.3297C63.4979 38.8963 65.3751 36.9885 67.766 35.6109C70.1558 34.2169 72.8248 33.5216 75.7732 33.5216C78.2655 33.5216 80.5539 33.9836 82.6361 34.9074C84.7183 35.8313 86.4482 37.1287 87.8269 38.8008C89.2198 40.4588 90.1507 42.3643 90.6209 44.5196H84.3295C83.9182 43.406 83.3031 42.4303 82.4817 41.5936C81.6745 40.744 80.7 40.09 79.5558 39.6363C78.4116 39.1826 77.1649 38.954 75.8168 38.954C73.9985 38.954 72.3559 39.4077 70.8899 40.3174C69.4228 41.2271 68.2727 42.4809 67.4361 44.0788C66.6147 45.6626 66.2047 47.4526 66.2047 49.4464C66.2047 51.4402 66.6147 53.2385 67.4361 54.8352C68.2715 56.4189 69.4228 57.6645 70.8899 58.5742C72.3559 59.4839 73.9985 59.9376 75.8168 59.9376C77.166 59.9376 78.4128 59.709 79.5558 59.2553C80.6988 58.8016 81.6745 58.1559 82.4817 57.3192C83.3031 56.4696 83.9182 55.4856 84.3295 54.3721H90.6209C90.1519 56.5273 89.2198 58.441 87.8269 60.1132C86.4482 61.7712 84.7183 63.0603 82.6361 63.9842C80.5539 64.908 78.2655 65.37 75.7732 65.37V65.3723Z" fill="white"/>
<defs>
<linearGradient id="paint0_linear_11_19923" x1="15.2423" y1="129.435" x2="122.495" y2="79.7079" gradientUnits="userSpaceOnUse">
<stop offset="0.1" stop-color="#00D886"/>
<stop offset="0.59" stop-color="#F0EB18"/>
</linearGradient>
<linearGradient id="paint1_linear_11_19923" x1="120.037" y1="119.556" x2="2.62633" y2="2.14459" gradientUnits="userSpaceOnUse">
<stop offset="0.3" stop-color="#F0EB18"/>
<stop offset="0.7" stop-color="#00C4F4"/>
</linearGradient>
</defs>
</svg>
