<svg width="128" height="128" viewBox="0 0 128 128" fill="none" xmlns="http://www.w3.org/2000/svg">
<path d="M0 8.14545V76.082C0 79.3402 1.94211 82.2854 4.93614 83.5688L79.9174 115.705C80.9309 116.139 82.0235 116.364 83.1267 116.364H119.855C124.353 116.364 128 112.717 128 108.218V72.2862C128 70.6769 127.523 69.1037 126.629 67.7643L83.8237 3.62705C82.3121 1.36262 79.7707 0.00349091 77.049 0.00349091L8.14545 0C3.64684 0 0 3.64684 0 8.14545Z" fill="url(#paint0_linear_11_20229)"/>
<path d="M11.6362 98.9614V119.855C11.6362 124.353 15.2831 128 19.7817 128H45.967C46.3521 128 46.7373 127.972 47.119 127.919L121.006 117.364C125.02 116.791 128 113.354 128 109.3V77.9543C128 73.4545 124.352 69.8077 119.852 69.8088L82.7751 69.8182C81.9001 69.8182 81.0308 69.959 80.2012 70.2359L17.2054 91.2349C13.8797 92.3438 11.6362 95.4566 11.6362 98.9626V98.9614Z" fill="url(#paint1_linear_11_20229)"/>
<path d="M11.6362 96.1047L11.6397 119.856C11.6397 124.354 15.2866 128 19.7852 128H42.7984C45.1757 128 47.4355 126.961 48.9831 125.156L114.403 48.8332C115.668 47.3565 116.363 45.4761 116.363 43.5317V19.7807C116.363 15.2821 112.717 11.6352 108.218 11.6352H85.2013C82.824 11.6352 80.5642 12.6744 79.0166 14.4792L13.5981 90.802C12.3321 92.2787 11.6374 94.1591 11.6374 96.1047H11.6362Z" fill="#00D886"/>
<path d="M105 23H23V105H105V23Z" fill="black"/>
<path d="M40.2517 63.3931C41.9328 64.3529 43.7538 64.9579 45.6971 65.2521L45.6994 65.6353C45.6994 66.9367 45.9652 68.0721 46.4967 69.0129C47.0424 69.9821 47.8183 70.7295 48.8219 71.2278C49.841 71.7533 51.0214 72.0309 52.3655 72.0309H57.3482V67.5465H53.5614C53.0892 67.5465 52.6906 67.4647 52.3655 67.2974C52.0405 67.1313 51.7902 66.8822 51.6122 66.55C51.4354 66.2178 51.3465 65.8299 51.3465 65.3601V65.1845C53.1545 64.8701 54.8533 64.2935 56.4181 63.3943C58.8395 61.9825 60.7364 60.0725 62.1091 57.6369C63.4817 55.1729 64.1686 52.4597 64.1686 49.4428C64.1686 46.4259 63.4817 43.7127 62.1091 41.2759C60.7364 38.8131 58.8383 36.903 56.4181 35.5186C54.011 34.1068 51.3168 33.4152 48.3355 33.4152C45.3542 33.4152 42.6742 34.1068 40.2529 35.5186C37.847 36.903 35.95 38.8131 34.562 41.2759C33.1893 43.7127 32.5024 46.4247 32.5024 49.4428C32.5024 52.4609 33.1893 55.1729 34.562 57.6369C35.95 60.0725 37.847 61.9825 40.2529 63.3943L40.2517 63.3931ZM39.9421 43.9606C40.7832 42.2998 41.9351 41.0268 43.3967 40.1121C44.8725 39.1986 46.5263 38.7276 48.3569 38.7276C50.1874 38.7276 51.8341 39.1974 53.2956 40.1121C54.7572 41.0256 55.9009 42.2986 56.7278 43.9606C57.5547 45.5658 57.9675 47.3928 57.9675 49.4416C57.9675 51.4904 57.5535 53.3162 56.7278 54.9498C55.9009 56.5823 54.7572 57.8564 53.2956 58.7972C51.8341 59.7107 50.1874 60.1532 48.3569 60.1532C46.5263 60.1532 44.8725 59.7107 43.3967 58.7972C41.9351 57.8552 40.7832 56.5823 39.9421 54.9498C39.1152 53.3162 38.7023 51.4892 38.7023 49.4416C38.7023 47.394 39.1152 45.5658 39.9421 43.9606Z" fill="white"/>
<path d="M82.4883 33.9396H75.9337L64.75 64.9426H70.9724L73.3202 57.7462H85.389L87.891 64.9426H93.9805L82.4872 33.9396H82.4883ZM74.7593 53.0684L78.7015 41.2488L79.144 39.283L79.6091 41.2488L83.7945 53.0684H74.7593Z" fill="white"/>
<path d="M66 89H34V94H66V89Z" fill="white"/>
<defs>
<linearGradient id="paint0_linear_11_20229" x1="120.037" y1="119.555" x2="2.62633" y2="2.14574" gradientUnits="userSpaceOnUse">
<stop offset="0.25" stop-color="#7256FF"/>
<stop offset="0.73" stop-color="#007DFE"/>
</linearGradient>
<linearGradient id="paint1_linear_11_20229" x1="15.2435" y1="129.435" x2="124.123" y2="78.9539" gradientUnits="userSpaceOnUse">
<stop offset="0.3" stop-color="#00D886"/>
<stop offset="0.54" stop-color="#7256FF"/>
</linearGradient>
</defs>
</svg>
