<svg width="64" height="64" viewBox="0 0 64 64" fill="none" xmlns="http://www.w3.org/2000/svg">
<path d="M58.1819 15.9476L58.1801 4.07215C58.1795 1.82342 56.3561 0 54.1074 0H42.6008C41.4121 0 40.2822 0.519564 39.5084 1.42196L6.7986 39.5834C6.16616 40.3217 5.81824 41.262 5.81824 42.2342V54.1097C5.81824 56.359 7.64166 58.1824 9.89096 58.1824H21.3993C22.588 58.1824 23.7179 57.6628 24.4917 56.7604L57.2009 18.599C57.8339 17.8607 58.1813 16.9204 58.1813 15.9476H58.1819Z" fill="#D249FC"/>
<path d="M58.1818 14.5193V4.07273C58.1818 1.82342 56.3584 0 54.1091 0H41.0164C40.8239 0 40.6313 0.0139636 40.4404 0.0407273L3.49673 5.3184C1.49062 5.60465 0 7.32334 0 9.34982V25.0228C0 27.2727 1.824 29.0961 4.07389 29.0956L22.6124 29.0909C23.0499 29.0909 23.4845 29.0205 23.8993 28.882L55.3972 18.3825C57.0601 17.8281 58.1818 16.2717 58.1818 14.5187V14.5193Z" fill="url(#paint0_linear_11_21637)"/>
<path d="M64 59.9273V25.959C64 24.3299 63.0289 22.8573 61.5319 22.2156L24.0413 6.14749C23.5345 5.93047 22.9882 5.81818 22.4367 5.81818H4.07273C1.82342 5.81818 0 7.64159 0 9.8909V27.8569C0 28.6615 0.238545 29.4481 0.685382 30.1178L22.0887 62.1865C22.8439 63.3187 24.1152 63.9982 25.4761 63.9982L59.9273 64C62.1766 64 64 62.1766 64 59.9273Z" fill="url(#paint1_linear_11_21637)"/>
<path d="M52 12H12V52H52V12Z" fill="black"/>
<path d="M33 44H17V47H33V44Z" fill="white"/>
<path d="M17 17.3286H23.2981C24.3249 17.3286 25.2298 17.5173 26.0124 17.8945C26.7949 18.2718 27.3956 18.8023 27.815 19.4871C28.241 20.172 28.4544 20.9647 28.4544 21.8657C28.4544 22.7667 28.2377 23.5841 27.8048 24.2757C27.3788 24.9673 26.7674 25.5057 25.9708 25.8897C25.1815 26.2669 24.2626 26.4555 23.215 26.4555H19.8619V31.9991H17.0011V17.3286H17ZM23.1089 24.0775C23.5911 24.0775 24.0099 23.99 24.3664 23.8154C24.7296 23.6335 25.0092 23.3792 25.2045 23.0502C25.3999 22.7151 25.4981 22.3272 25.4981 21.887C25.4981 21.4469 25.4005 21.0551 25.2045 20.7345C25.0086 20.4056 24.7296 20.1541 24.3664 19.98C24.0099 19.7981 23.5911 19.7078 23.1089 19.7078H19.8602V24.0775H23.1089ZM35.0511 32.2512C33.975 32.2512 33.0077 32.0586 32.1482 31.6747C31.2888 31.2907 30.6145 30.7523 30.1256 30.0607C29.6366 29.3623 29.3851 28.5663 29.3711 27.6715H32.2425C32.2425 28.0908 32.3649 28.4641 32.6091 28.7925C32.8606 29.1137 33.1991 29.3652 33.6258 29.547C34.0586 29.7289 34.5481 29.8193 35.0927 29.8193C35.6097 29.8193 36.0706 29.7396 36.4759 29.5785C36.8879 29.4106 37.2096 29.1805 37.4398 28.8869C37.6705 28.5933 37.7856 28.2581 37.7856 27.8809C37.7856 27.4132 37.6424 27.0214 37.3561 26.707C37.0766 26.3859 36.6887 26.1765 36.193 26.0783L33.1857 25.5017C32.48 25.3693 31.8653 25.1178 31.3415 24.7473C30.8245 24.37 30.4265 23.9024 30.1469 23.3432C29.8673 22.7774 29.7276 22.1486 29.7276 21.457C29.7276 20.6043 29.9544 19.847 30.4085 19.1829C30.8694 18.5188 31.5015 18.0029 32.3054 17.6318C33.1155 17.2613 34.0272 17.0766 35.0404 17.0766C36.0537 17.0766 36.9755 17.2585 37.7861 17.6217C38.6035 17.9843 39.2429 18.4913 39.7038 19.1413C40.172 19.7847 40.4095 20.5246 40.4162 21.3627H37.5554C37.5554 21.0001 37.4471 20.6778 37.2304 20.3988C37.021 20.1198 36.7274 19.9026 36.3501 19.7493C35.9729 19.5882 35.5468 19.5085 35.0719 19.5085C34.597 19.5085 34.181 19.5859 33.8037 19.7392C33.4265 19.8925 33.1329 20.1058 32.9235 20.3786C32.7141 20.6447 32.6091 20.9512 32.6091 21.301C32.6091 21.7057 32.7382 22.0487 32.997 22.3277C33.2553 22.6 33.6151 22.7824 34.0766 22.8728L36.9896 23.4179C37.7233 23.5504 38.3694 23.8199 38.928 24.2246C39.4939 24.6294 39.9306 25.1363 40.2377 25.7443C40.5448 26.3455 40.6986 27.0017 40.6986 27.7141C40.6986 28.5944 40.4577 29.3803 39.9755 30.0719C39.4933 30.7568 38.823 31.2912 37.9635 31.6752C37.1041 32.0592 36.1329 32.2518 35.0506 32.2518L35.0511 32.2512Z" fill="white"/>
<defs>
<linearGradient id="paint0_linear_11_21637" x1="56.3788" y1="-0.717381" x2="2.75258" y2="24.146" gradientUnits="userSpaceOnUse">
<stop offset="0.16" stop-color="#D249FC"/>
<stop offset="0.55" stop-color="#FF2D90"/>
</linearGradient>
<linearGradient id="paint1_linear_11_21637" x1="3.98196" y1="4.22225" x2="62.6868" y2="62.9277" gradientUnits="userSpaceOnUse">
<stop offset="0.3" stop-color="#FF2D90"/>
<stop offset="0.7" stop-color="#7256FF"/>
</linearGradient>
</defs>
</svg>
