<svg width="32" height="32" viewBox="0 0 32 32" fill="none" xmlns="http://www.w3.org/2000/svg">
<path d="M29.0909 7.97382L29.09 2.03607C29.0897 0.911709 28.178 0 27.0536 0H21.3003C20.706 0 20.1411 0.259782 19.7541 0.710982L3.39924 19.7917C3.08302 20.1609 2.90906 20.631 2.90906 21.1171V27.0548C2.90906 28.1795 3.82077 29.0912 4.94542 29.0912H10.6996C11.2939 29.0912 11.8589 28.8314 12.2458 28.3802L28.6004 9.29949C28.9169 8.93033 29.0906 8.46022 29.0906 7.97382H29.0909Z" fill="#D249FC"/>
<path d="M29.0909 7.25964V2.03636C29.0909 0.911709 28.1792 0 27.0545 0H20.5082C20.4119 0 20.3156 0.00698182 20.2202 0.0203636L1.74836 2.6592C0.745309 2.80233 0 3.66167 0 4.67491V12.5114C0 13.6364 0.912 14.5481 2.03695 14.5478L11.3062 14.5455C11.5249 14.5455 11.7423 14.5103 11.9497 14.441L27.6986 9.19127C28.53 8.91404 29.0909 8.13585 29.0909 7.25935V7.25964Z" fill="url(#paint0_linear_11_21638)"/>
<path d="M32 29.9636V12.9795C32 12.1649 31.5145 11.4287 30.766 11.1078L12.0207 3.07374C11.7673 2.96523 11.4941 2.90909 11.2183 2.90909H2.03636C0.911709 2.90909 0 3.8208 0 4.94545V13.9284C0 14.3308 0.119273 14.7241 0.342691 15.0589L11.0444 31.0932C11.422 31.6593 12.0576 31.9991 12.738 31.9991L29.9636 32C31.0883 32 32 31.0883 32 29.9636Z" fill="url(#paint1_linear_11_21638)"/>
<path d="M26 6H6V26H26V6Z" fill="black"/>
<path d="M8.94995 9.02148H12.2097C12.7411 9.02148 13.2095 9.11911 13.6145 9.31436C14.0196 9.50962 14.3305 9.78419 14.5475 10.1387C14.7681 10.4932 14.8785 10.9034 14.8785 11.3698C14.8785 11.8361 14.7663 12.2592 14.5423 12.6171C14.3218 12.9751 14.0053 13.2537 13.593 13.4525C13.1845 13.6477 12.7089 13.7454 12.1667 13.7454H10.4312V16.6146H8.95053V9.02148H8.94995ZM12.1118 12.5146C12.3614 12.5146 12.5781 12.4692 12.7626 12.3789C12.9506 12.2847 13.0953 12.1531 13.1964 11.9828C13.2976 11.8094 13.3484 11.6086 13.3484 11.3808C13.3484 11.153 13.2978 10.9502 13.1964 10.7843C13.095 10.614 12.9506 10.4839 12.7626 10.3938C12.5781 10.2996 12.3614 10.2529 12.1118 10.2529H10.4303V12.5146H12.1118ZM18.2928 16.7451C17.7358 16.7451 17.2352 16.6454 16.7903 16.4467C16.3455 16.2479 15.9965 15.9693 15.7435 15.6113C15.4904 15.2499 15.3602 14.8378 15.3529 14.3747H16.8391C16.8391 14.5917 16.9025 14.785 17.0289 14.9549C17.159 15.1211 17.3343 15.2513 17.5551 15.3454C17.7791 15.4396 18.0325 15.4864 18.3143 15.4864C18.5819 15.4864 18.8205 15.4451 19.0302 15.3617C19.2435 15.2748 19.41 15.1557 19.5291 15.0038C19.6485 14.8518 19.7081 14.6783 19.7081 14.4831C19.7081 14.241 19.634 14.0382 19.4858 13.8755C19.3411 13.7093 19.1404 13.6009 18.8838 13.5501L17.3273 13.2517C16.9621 13.1831 16.6439 13.053 16.3728 12.8612C16.1052 12.6659 15.8992 12.4239 15.7545 12.1345C15.6098 11.8416 15.5375 11.5162 15.5375 11.1582C15.5375 10.7169 15.6548 10.3249 15.8899 9.98119C16.1284 9.63746 16.4556 9.37044 16.8717 9.17838C17.291 8.98662 17.7628 8.89102 18.2873 8.89102C18.8117 8.89102 19.2888 8.98516 19.7084 9.17315C20.1314 9.36085 20.4624 9.62322 20.7009 9.95969C20.9433 10.2927 21.0662 10.6756 21.0697 11.1094H19.589C19.589 10.9217 19.5329 10.7549 19.4207 10.6105C19.3124 10.4661 19.1604 10.3537 18.9651 10.2744C18.7699 10.191 18.5494 10.1497 18.3036 10.1497C18.0577 10.1497 17.8424 10.1898 17.6472 10.2691C17.4519 10.3485 17.3 10.4589 17.1916 10.6001C17.0832 10.7378 17.0289 10.8964 17.0289 11.0775C17.0289 11.287 17.0957 11.4645 17.2297 11.6089C17.3633 11.7498 17.5496 11.8442 17.7884 11.891L19.2961 12.1732C19.6759 12.2417 20.0103 12.3812 20.2994 12.5907C20.5923 12.8002 20.8183 13.0625 20.9773 13.3772C21.1362 13.6884 21.2158 14.0281 21.2158 14.3968C21.2158 14.8524 21.0912 15.2592 20.8416 15.6171C20.592 15.9716 20.2451 16.2482 19.8002 16.4469C19.3554 16.6457 18.8527 16.7453 18.2925 16.7453L18.2928 16.7451Z" fill="white"/>
<path d="M16 22H9V23H16V22Z" fill="white"/>
<defs>
<linearGradient id="paint0_linear_11_21638" x1="28.1894" y1="-0.35869" x2="1.37629" y2="12.073" gradientUnits="userSpaceOnUse">
<stop offset="0.16" stop-color="#D249FC"/>
<stop offset="0.55" stop-color="#FF2D90"/>
</linearGradient>
<linearGradient id="paint1_linear_11_21638" x1="1.99098" y1="2.11112" x2="31.3434" y2="31.4639" gradientUnits="userSpaceOnUse">
<stop offset="0.3" stop-color="#FF2D90"/>
<stop offset="0.7" stop-color="#7256FF"/>
</linearGradient>
</defs>
</svg>
