<svg width="64" height="64" viewBox="0 0 64 64" fill="none" xmlns="http://www.w3.org/2000/svg">
<path d="M54.5114 18.9687L32.0001 6.00002L9.48883 18.9687L9.48917 18.9689L9.48877 45.0579L32 58L32.0594 57.9657L32.096 57.9866L32.0958 57.9446L54.5114 44.9828V18.9688H54.5112L54.5114 18.9687Z" fill="url(#paint0_linear_25_13704)"/>
<path d="M54.511 18.969L32 6.00002L43.311 20.715L54.511 18.969Z" fill="url(#paint1_linear_25_13704)"/>
<path d="M20.689 43.311V20.715L9.48901 18.969V45.058L20.689 43.311Z" fill="url(#paint2_linear_25_13704)"/>
<path d="M9.48901 18.969L32 6.00002L20.689 20.715L9.48901 18.969Z" fill="url(#paint3_linear_25_13704)"/>
<path d="M54.511 18.969L32 6.00002L43.311 20.715L54.511 18.969Z" fill="url(#paint4_linear_25_13704)"/>
<path d="M43.311 43.311L32 58L54.511 44.983L43.311 43.311Z" fill="url(#paint5_linear_25_13704)"/>
<path d="M54.511 18.969L43.311 20.715V43.311L54.511 44.983V18.969Z" fill="url(#paint6_linear_25_13704)"/>
<path d="M54.511 18.969L43.311 20.715V43.311L54.511 44.983V18.969Z" fill="url(#paint7_linear_25_13704)"/>
<path d="M32 58L20.689 43.311L9.48901 45.058L32 58Z" fill="url(#paint8_linear_25_13704)"/>
<path d="M43.311 20.715H20.6914V43.3344H43.311V20.715Z" fill="url(#paint9_linear_25_13704)"/>
<path d="M43.2083 20.8196H20.7949V43.2328H43.2083V20.8196Z" fill="url(#paint10_linear_25_13704)"/>
<path d="M25.9999 1.97281H2V25.9728H25.9999V1.97281Z" fill="black"/>
<path d="M26 13.682V9.285L9.396 18.851L20.53 20.587L26 13.682Z" fill="url(#paint11_linear_25_13704)"/>
<path d="M26.0001 20.5871H20.5317V25.9728H26.0001V20.5871Z" fill="url(#paint12_linear_25_13704)"/>
<path d="M20.53 25.973V20.587L9.396 18.851V25.973H20.53Z" fill="url(#paint13_linear_25_13704)"/>
<path d="M17.6686 18.9093H5.927V22.1692H17.6686V18.9093Z" fill="white"/>
<defs>
<linearGradient id="paint0_linear_25_13704" x1="10.0916" y1="10.1049" x2="52.9541" y2="52.9673" gradientUnits="userSpaceOnUse">
<stop offset="0.20773" stop-color="#FFB60D"/>
<stop offset="0.44753" stop-color="#FF318C"/>
<stop offset="0.90836" stop-color="#6B57FF"/>
</linearGradient>
<linearGradient id="paint1_linear_25_13704" x1="33.8371" y1="2.69105" x2="60.6993" y2="33.2542" gradientUnits="userSpaceOnUse">
<stop stop-color="#FFB60D"/>
<stop offset="0.4389" stop-color="#FF318C"/>
<stop offset="0.93652" stop-color="#E30871"/>
</linearGradient>
<linearGradient id="paint2_linear_25_13704" x1="7.36364" y1="25.1614" x2="37.2235" y2="55.0212" gradientUnits="userSpaceOnUse">
<stop offset="0.07259" stop-color="#FFB60D"/>
<stop offset="0.68597" stop-color="#FF318C" stop-opacity="0"/>
</linearGradient>
<linearGradient id="paint3_linear_25_13704" x1="21.2544" y1="9.38331" x2="18.2697" y2="27.5302" gradientUnits="userSpaceOnUse">
<stop offset="0.04176" stop-color="#FFCF5F"/>
<stop offset="0.40672" stop-color="#FFB60D"/>
<stop offset="1" stop-color="#FF318C" stop-opacity="0"/>
</linearGradient>
<linearGradient id="paint4_linear_25_13704" x1="35.5648" y1="6.49564" x2="65.3721" y2="36.3029" gradientUnits="userSpaceOnUse">
<stop offset="0.01556" stop-color="#FFB60D"/>
<stop offset="0.42361" stop-color="#FF318C" stop-opacity="0"/>
</linearGradient>
<linearGradient id="paint5_linear_25_13704" x1="30.717" y1="63.7506" x2="53.321" y2="39.3956" gradientUnits="userSpaceOnUse">
<stop offset="0.33598" stop-color="#D123FF" stop-opacity="0.4"/>
<stop offset="0.72079" stop-color="#8F45FF" stop-opacity="0.78823"/>
<stop offset="0.92376" stop-color="#6B57FF"/>
</linearGradient>
<linearGradient id="paint6_linear_25_13704" x1="29.0679" y1="11.2965" x2="59.0494" y2="41.2781" gradientUnits="userSpaceOnUse">
<stop offset="0.01556" stop-color="#FFB60D"/>
<stop offset="0.42361" stop-color="#FF318C"/>
<stop offset="0.92935" stop-color="#6B57FF"/>
</linearGradient>
<linearGradient id="paint7_linear_25_13704" x1="42.4467" y1="16.0999" x2="48.2967" y2="29.7101" gradientUnits="userSpaceOnUse">
<stop offset="0.04611" stop-color="#FFDE17" stop-opacity="0.6"/>
<stop offset="0.43474" stop-color="#FE2857" stop-opacity="0.4"/>
<stop offset="0.80437" stop-color="#FE2857" stop-opacity="0"/>
</linearGradient>
<linearGradient id="paint8_linear_25_13704" x1="8.53284" y1="37.5883" x2="29.2077" y2="58.3901" gradientUnits="userSpaceOnUse">
<stop offset="0.07259" stop-color="#FFB40D"/>
<stop offset="0.68597" stop-color="#FF318C" stop-opacity="0"/>
</linearGradient>
<linearGradient id="paint9_linear_25_13704" x1="16.1864" y1="16.2099" x2="47.3578" y2="47.3812" gradientUnits="userSpaceOnUse">
<stop offset="0.18418" stop-color="#FFB40D"/>
<stop offset="0.69132" stop-color="#FF318C" stop-opacity="0"/>
</linearGradient>
<linearGradient id="paint10_linear_25_13704" x1="13.7977" y1="32.0262" x2="27.2838" y2="32.0262" gradientUnits="userSpaceOnUse">
<stop stop-color="#F9ED32" stop-opacity="0.6"/>
<stop offset="0.19796" stop-color="#FFC524" stop-opacity="0.4"/>
<stop offset="0.70457" stop-color="#FFC524" stop-opacity="0"/>
</linearGradient>
<linearGradient id="paint11_linear_25_13704" x1="16.5722" y1="10.2394" x2="22.2016" y2="29.3899" gradientUnits="userSpaceOnUse">
<stop offset="0.19796" stop-color="#FE2857" stop-opacity="0.4"/>
<stop offset="0.70457" stop-color="#FFB40D" stop-opacity="0"/>
</linearGradient>
<linearGradient id="paint12_linear_25_13704" x1="122.877" y1="121.461" x2="161.933" y2="161.116" gradientUnits="userSpaceOnUse">
<stop offset="0.19796" stop-color="#FE2857" stop-opacity="0.4"/>
<stop offset="0.70457" stop-color="#FFB40D" stop-opacity="0"/>
</linearGradient>
<linearGradient id="paint13_linear_25_13704" x1="71.6698" y1="123.868" x2="177.594" y2="274.707" gradientUnits="userSpaceOnUse">
<stop offset="0.19796" stop-color="#FE2857" stop-opacity="0.4"/>
<stop offset="0.70457" stop-color="#FFB40D" stop-opacity="0"/>
</linearGradient>
</defs>
</svg>
