<svg width="48" height="48" viewBox="0 0 48 48" fill="none" xmlns="http://www.w3.org/2000/svg">
<path d="M4.36365 36.0393L4.36496 44.9459C4.36496 46.6329 5.73252 48 7.4195 48H16.0495C16.941 48 17.7884 47.6103 18.3687 46.9335L42.9011 18.3125C43.3754 17.7587 43.6364 17.0535 43.6364 16.3244V7.41777C43.6364 5.73078 42.2688 4.36322 40.5818 4.36322H31.9506C31.0591 4.36322 30.2116 4.75289 29.6313 5.42969L5.09892 34.0508C4.62416 34.6045 4.36365 35.3097 4.36365 36.0393Z" fill="#F0EB18"/>
<path d="M4.36365 37.1105V44.9454C4.36365 46.6324 5.73121 48 7.41819 48H17.2377C17.3821 48 17.5266 47.9895 17.6697 47.9694L45.3775 44.0116C46.8825 43.7965 48 42.5079 48 40.9876V29.2329C48 27.5454 46.632 26.1779 44.9446 26.1783L31.0407 26.1818C30.7126 26.1818 30.3866 26.2346 30.0755 26.3385L6.45208 34.2131C5.20496 34.6289 4.36365 35.7962 4.36365 37.111V37.1105Z" fill="url(#paint0_linear_11_22732)"/>
<path d="M0 3.05454V28.5308C0 29.7526 0.728291 30.857 1.85105 31.3383L29.969 43.3894C30.3491 43.5521 30.7588 43.6364 31.1725 43.6364H44.9454C46.6324 43.6364 48 42.2688 48 40.5818V27.1073C48 26.5038 47.8211 25.9139 47.486 25.4116L31.4334 1.36015C30.867 0.510982 29.914 0.00130909 28.8929 0.00130909L3.05454 0C1.36756 0 0 1.36756 0 3.05454Z" fill="url(#paint1_linear_11_22732)"/>
<path d="M39 9H9V39H39V9Z" fill="black"/>
<path d="M14.2902 12.9963L16.0651 21.0217L17.9578 12.9963H20.1252L22.1041 21.0217L23.8238 12.9963H25.9992L23.3291 23.9901H20.887L19.0339 16.0038L17.1572 23.9901H14.7227L12.0686 12.9963H14.2911H14.2902ZM30.6301 24.179C29.8342 24.179 29.1274 24.0347 28.5098 23.7469C27.8973 23.4592 27.4156 23.0558 27.0648 22.5375C26.7194 22.0192 26.5415 21.4222 26.5309 20.747H28.6828C28.6828 21.0659 28.7665 21.3469 28.9339 21.5871C29.1013 21.8278 29.3344 22.0162 29.6327 22.1526C29.9309 22.2889 30.2738 22.3566 30.6612 22.3566C31.0487 22.3566 31.3575 22.2968 31.6351 22.1761C31.9178 22.0503 32.1349 21.8778 32.2868 21.6578C32.4437 21.4378 32.5223 21.1867 32.5223 20.904C32.5223 20.5535 32.4151 20.2628 32.2005 20.0323C31.991 19.8018 31.7008 19.6427 31.3289 19.5531L29.3891 19.1211C28.8657 19.0062 28.4101 18.8098 28.0227 18.5321C27.6352 18.2494 27.3345 17.9011 27.1195 17.4876C26.9049 17.0745 26.7977 16.6079 26.7977 16.0896C26.7977 15.4615 26.96 14.8991 27.2844 14.4014C27.6092 13.8987 28.0618 13.5091 28.6428 13.2315C29.2238 12.9488 29.8834 12.8074 30.6217 12.8074C31.36 12.8074 32.0377 12.9437 32.6242 13.2159C33.2106 13.4877 33.6658 13.8676 33.9905 14.3547C34.3204 14.8368 34.4878 15.3913 34.4933 16.0194H32.3494C32.3494 15.7522 32.2788 15.5137 32.1374 15.3046C31.9961 15.0897 31.7946 14.9247 31.5329 14.8099C31.2763 14.6892 30.9805 14.6294 30.6457 14.6294C30.3108 14.6294 30.0146 14.6875 29.7584 14.8023C29.5073 14.9121 29.3108 15.0695 29.1695 15.2735C29.0281 15.4729 28.9575 15.7055 28.9575 15.9723C28.9575 16.2756 29.0542 16.5267 29.2481 16.7261C29.4471 16.9255 29.7168 17.0669 30.0571 17.1502L31.9262 17.5587C32.4656 17.6685 32.9443 17.8775 33.3633 18.1867C33.7874 18.4901 34.1172 18.867 34.3528 19.3175C34.5883 19.7622 34.7061 20.2489 34.7061 20.7782C34.7061 21.4269 34.5332 22.0112 34.1878 22.5295C33.8475 23.0427 33.3683 23.4453 32.7508 23.739C32.1332 24.0326 31.4265 24.1786 30.6305 24.1786L30.6301 24.179Z" fill="white"/>
<path d="M24.9999 33H12.9999V35.0001H24.9999V33Z" fill="white"/>
<defs>
<linearGradient id="paint0_linear_11_22732" x1="5.71594" y1="48.538" x2="45.9356" y2="29.8909" gradientUnits="userSpaceOnUse">
<stop offset="0.22" stop-color="#F0EB18"/>
<stop offset="0.59" stop-color="#00C4F4"/>
</linearGradient>
<linearGradient id="paint1_linear_11_22732" x1="45.014" y1="44.8333" x2="0.984874" y2="0.804652" gradientUnits="userSpaceOnUse">
<stop offset="0.19" stop-color="#00C4F4"/>
<stop offset="0.83" stop-color="#007DFE"/>
</linearGradient>
</defs>
</svg>
