<svg width="128" height="128" viewBox="0 0 128 128" fill="none" xmlns="http://www.w3.org/2000/svg">
<path d="M109.023 37.9374L64 12L18.9774 37.9374L18.9781 37.9378L18.9773 90.1158L63.9998 116L64.1185 115.931L64.1918 115.973L64.1914 115.889L109.023 89.9656V37.9376H109.022L109.023 37.9374Z" fill="url(#paint0_linear_1725:1337)"/>
<path d="M109.022 37.938L64 12L86.622 41.43L109.022 37.938Z" fill="url(#paint1_linear_1725:1337)"/>
<path d="M41.378 86.6225V41.4305L18.978 37.9385V90.1165L41.378 86.6225Z" fill="url(#paint2_linear_1725:1337)"/>
<path d="M18.9777 37.938L63.9997 12L41.3777 41.43L18.9777 37.938Z" fill="url(#paint3_linear_1725:1337)"/>
<path d="M109.022 37.938L64 12L86.622 41.43L109.022 37.938Z" fill="url(#paint4_linear_1725:1337)"/>
<path d="M86.622 86.6221L64 116L109.022 89.9661L86.622 86.6221Z" fill="url(#paint5_linear_1725:1337)"/>
<path d="M109.022 37.9385L86.6221 41.4305V86.6225L109.022 89.9665V37.9385Z" fill="url(#paint6_linear_1725:1337)"/>
<path d="M109.022 37.9385L86.6221 41.4305V86.6225L109.022 89.9665V37.9385Z" fill="url(#paint7_linear_1725:1337)"/>
<path d="M64 116L41.378 86.6221L18.978 90.1161L64 116Z" fill="url(#paint8_linear_1725:1337)"/>
<path d="M86.6218 41.4297H41.3826V86.6685H86.6218V41.4297Z" fill="url(#paint9_linear_1725:1337)"/>
<path d="M86.4164 41.6396H41.5896V86.466H86.4164V41.6396Z" fill="url(#paint10_linear_1725:1337)"/>
<path d="M51.9998 3.94531H4V51.9453H51.9998V3.94531Z" fill="black"/>
<path d="M52 27.3633V18.5693L18.792 37.7013L41.06 41.1733L52 27.3633Z" fill="url(#paint11_linear_1725:1337)"/>
<path d="M52 41.1738H41.0632V51.9453H52V41.1738Z" fill="url(#paint12_linear_1725:1337)"/>
<path d="M41.06 51.9452V41.1732L18.792 37.7012V51.9452H41.06Z" fill="url(#paint13_linear_1725:1337)"/>
<path d="M35.3373 37.8184H11.854V44.3381H35.3373V37.8184Z" fill="white"/>
<defs>
<linearGradient id="paint0_linear_1725:1337" x1="20.183" y1="20.2097" x2="105.908" y2="105.935" gradientUnits="userSpaceOnUse">
<stop offset="0.20773" stop-color="#FFB60D"/>
<stop offset="0.44753" stop-color="#FF318C"/>
<stop offset="0.90836" stop-color="#6B57FF"/>
</linearGradient>
<linearGradient id="paint1_linear_1725:1337" x1="67.6742" y1="5.38206" x2="121.399" y2="66.5085" gradientUnits="userSpaceOnUse">
<stop  offset="0" stop-color="#FFB60D"/>
<stop offset="0.4389" stop-color="#FF318C"/>
<stop offset="0.93652" stop-color="#E30871"/>
</linearGradient>
<linearGradient id="paint2_linear_1725:1337" x1="14.7273" y1="50.3232" x2="74.4469" y2="110.043" gradientUnits="userSpaceOnUse">
<stop offset="0.07259" stop-color="#FFB60D"/>
<stop offset="0.68597" stop-color="#FF318C" stop-opacity="0"/>
</linearGradient>
<linearGradient id="paint3_linear_1725:1337" x1="42.5085" y1="18.7666" x2="36.5391" y2="55.0604" gradientUnits="userSpaceOnUse">
<stop offset="0.04176" stop-color="#FFCF5F"/>
<stop offset="0.40672" stop-color="#FFB60D"/>
<stop offset="1" stop-color="#FF318C" stop-opacity="0"/>
</linearGradient>
<linearGradient id="paint4_linear_1725:1337" x1="71.1296" y1="12.9912" x2="130.744" y2="72.6058" gradientUnits="userSpaceOnUse">
<stop offset="0.01556" stop-color="#FFB60D"/>
<stop offset="0.42361" stop-color="#FF318C" stop-opacity="0"/>
</linearGradient>
<linearGradient id="paint5_linear_1725:1337" x1="61.4339" y1="127.501" x2="106.642" y2="78.7912" gradientUnits="userSpaceOnUse">
<stop offset="0.33598" stop-color="#D123FF" stop-opacity="0.4"/>
<stop offset="0.72079" stop-color="#8F45FF" stop-opacity="0.78823"/>
<stop offset="0.92376" stop-color="#6B57FF"/>
</linearGradient>
<linearGradient id="paint6_linear_1725:1337" x1="58.1358" y1="22.5935" x2="118.099" y2="82.5566" gradientUnits="userSpaceOnUse">
<stop offset="0.01556" stop-color="#FFB60D"/>
<stop offset="0.42361" stop-color="#FF318C"/>
<stop offset="0.92935" stop-color="#6B57FF"/>
</linearGradient>
<linearGradient id="paint7_linear_1725:1337" x1="84.8934" y1="32.2002" x2="96.5934" y2="59.4206" gradientUnits="userSpaceOnUse">
<stop offset="0.04611" stop-color="#FFDE17" stop-opacity="0.6"/>
<stop offset="0.43474" stop-color="#FE2857" stop-opacity="0.4"/>
<stop offset="0.80437" stop-color="#FE2857" stop-opacity="0"/>
</linearGradient>
<linearGradient id="paint8_linear_1725:1337" x1="17.0657" y1="75.1767" x2="58.4155" y2="116.78" gradientUnits="userSpaceOnUse">
<stop offset="0.07259" stop-color="#FFB40D"/>
<stop offset="0.68597" stop-color="#FF318C" stop-opacity="0"/>
</linearGradient>
<linearGradient id="paint9_linear_1725:1337" x1="32.3726" y1="32.4195" x2="94.7153" y2="94.7622" gradientUnits="userSpaceOnUse">
<stop offset="0.18418" stop-color="#FFB40D"/>
<stop offset="0.69132" stop-color="#FF318C" stop-opacity="0"/>
</linearGradient>
<linearGradient id="paint10_linear_1725:1337" x1="27.5952" y1="64.0528" x2="54.5673" y2="64.0528" gradientUnits="userSpaceOnUse">
<stop  offset="0" stop-color="#F9ED32" stop-opacity="0.6"/>
<stop offset="0.19796" stop-color="#FFC524" stop-opacity="0.4"/>
<stop offset="0.70457" stop-color="#FFC524" stop-opacity="0"/>
</linearGradient>
<linearGradient id="paint11_linear_1725:1337" x1="33.1444" y1="20.4781" x2="44.4032" y2="58.7791" gradientUnits="userSpaceOnUse">
<stop offset="0.19796" stop-color="#FE2857" stop-opacity="0.4"/>
<stop offset="0.70457" stop-color="#FFB40D" stop-opacity="0"/>
</linearGradient>
<linearGradient id="paint12_linear_1725:1337" x1="245.754" y1="242.922" x2="323.865" y2="322.232" gradientUnits="userSpaceOnUse">
<stop offset="0.19796" stop-color="#FE2857" stop-opacity="0.4"/>
<stop offset="0.70457" stop-color="#FFB40D" stop-opacity="0"/>
</linearGradient>
<linearGradient id="paint13_linear_1725:1337" x1="143.34" y1="247.735" x2="355.189" y2="549.412" gradientUnits="userSpaceOnUse">
<stop offset="0.19796" stop-color="#FE2857" stop-opacity="0.4"/>
<stop offset="0.70457" stop-color="#FFB40D" stop-opacity="0"/>
</linearGradient>
</defs>
</svg>
