<svg width="24" height="24" viewBox="0 0 24 24" fill="none" xmlns="http://www.w3.org/2000/svg">
<path d="M20.4421 7.11327L12.0003 2.25L3.55861 7.11326L3.55874 7.11334L3.55859 16.8967L12.0003 21.75L12.0226 21.7371L12.0363 21.745L12.0362 21.7292L20.4421 16.8685V7.11329H20.442L20.4421 7.11327Z" fill="url(#paint0_linear_1725:1406)"/>
<path d="M20.4415 7.1135H20.442L12 2.25L16.2415 7.768L20.4415 7.1135Z" fill="url(#paint1_linear_1725:1406)"/>
<path d="M7.75861 16.2418V7.76828L3.55861 7.11328V7.11378L3.55811 16.8968L7.75861 16.2418Z" fill="url(#paint2_linear_1725:1406)"/>
<path d="M3.55908 7.1135L12.0006 2.25L7.75908 7.768L3.55908 7.1135Z" fill="url(#paint3_linear_1725:1406)"/>
<path d="M20.4415 7.1135H20.442L12 2.25L16.2415 7.768L20.4415 7.1135Z" fill="url(#paint4_linear_1725:1406)"/>
<path d="M16.2415 16.2412L12 21.7497L20.4415 16.8682L16.2415 16.2412Z" fill="url(#paint5_linear_1725:1406)"/>
<path d="M20.4417 7.11378V7.11328L16.2417 7.76828V16.2418L20.4417 16.8688V7.11378Z" fill="url(#paint6_linear_1725:1406)"/>
<path d="M20.4417 7.11378V7.11328L16.2417 7.76828V16.2418L20.4417 16.8688V7.11378Z" fill="url(#paint7_linear_1725:1406)"/>
<path d="M12.0001 21.7497L7.75861 16.2412L3.55811 16.8962L12.0001 21.7497Z" fill="url(#paint8_linear_1725:1406)"/>
<path d="M16.2416 7.76855H7.75928V16.2508H16.2416V7.76855Z" fill="url(#paint9_linear_1725:1406)"/>
<path d="M16.2031 7.80762H7.7981V16.2126H16.2031V7.80762Z" fill="url(#paint10_linear_1725:1406)"/>
<path d="M9.99996 1H1V10H9.99996V1Z" fill="black"/>
<path d="M9.9785 5.06807V3.37207L3.573 7.06257L7.807 7.67107L9.9785 5.06807Z" fill="url(#paint11_linear_1725:1406)"/>
<path d="M9.97819 7.73242H7.73901V9.81004H9.97819V7.73242Z" fill="url(#paint12_linear_1725:1406)"/>
<path d="M7.868 9.8095V7.732L3.573 7.0625V9.8095H7.868Z" fill="url(#paint13_linear_1725:1406)"/>
<path d="M6.40312 7H2V8.22245H6.40312V7Z" fill="white"/>
<defs>
<linearGradient id="paint0_linear_1725:1406" x1="3.78466" y1="3.78932" x2="19.8581" y2="19.8627" gradientUnits="userSpaceOnUse">
<stop offset="0.20773" stop-color="#FFB60D"/>
<stop offset="0.44753" stop-color="#FF318C"/>
<stop offset="0.90836" stop-color="#6B57FF"/>
</linearGradient>
<linearGradient id="paint1_linear_1725:1406" x1="12.6889" y1="1.00914" x2="22.7622" y2="12.4703" gradientUnits="userSpaceOnUse">
<stop stop-color="#FFB60D"/>
<stop offset="0.4389" stop-color="#FF318C"/>
<stop offset="0.93652" stop-color="#E30871"/>
</linearGradient>
<linearGradient id="paint2_linear_1725:1406" x1="2.76147" y1="9.4358" x2="13.9589" y2="20.6332" gradientUnits="userSpaceOnUse">
<stop offset="0.07259" stop-color="#FFB60D"/>
<stop offset="0.68597" stop-color="#FF318C" stop-opacity="0"/>
</linearGradient>
<linearGradient id="paint3_linear_1725:1406" x1="7.97098" y1="3.51873" x2="6.85172" y2="10.3238" gradientUnits="userSpaceOnUse">
<stop offset="0.04176" stop-color="#FFCF5F"/>
<stop offset="0.40672" stop-color="#FFB60D"/>
<stop offset="1" stop-color="#FF318C" stop-opacity="0"/>
</linearGradient>
<linearGradient id="paint4_linear_1725:1406" x1="13.3368" y1="2.43586" x2="24.5145" y2="13.6136" gradientUnits="userSpaceOnUse">
<stop offset="0.01556" stop-color="#FFB60D"/>
<stop offset="0.42361" stop-color="#FF318C" stop-opacity="0"/>
</linearGradient>
<linearGradient id="paint5_linear_1725:1406" x1="11.5189" y1="23.9062" x2="19.9954" y2="14.7731" gradientUnits="userSpaceOnUse">
<stop offset="0.33598" stop-color="#D123FF" stop-opacity="0.4"/>
<stop offset="0.72079" stop-color="#8F45FF" stop-opacity="0.78823"/>
<stop offset="0.92376" stop-color="#6B57FF"/>
</linearGradient>
<linearGradient id="paint6_linear_1725:1406" x1="10.9006" y1="4.23647" x2="22.1437" y2="15.4795" gradientUnits="userSpaceOnUse">
<stop offset="0.01556" stop-color="#FFB60D"/>
<stop offset="0.42361" stop-color="#FF318C"/>
<stop offset="0.92935" stop-color="#6B57FF"/>
</linearGradient>
<linearGradient id="paint7_linear_1725:1406" x1="15.9177" y1="6.03773" x2="18.1114" y2="11.1415" gradientUnits="userSpaceOnUse">
<stop offset="0.04611" stop-color="#FFDE17" stop-opacity="0.6"/>
<stop offset="0.43474" stop-color="#FE2857" stop-opacity="0.4"/>
<stop offset="0.80437" stop-color="#FE2857" stop-opacity="0"/>
</linearGradient>
<linearGradient id="paint8_linear_1725:1406" x1="3.19992" y1="14.0953" x2="10.953" y2="21.896" gradientUnits="userSpaceOnUse">
<stop offset="0.07259" stop-color="#FFB40D"/>
<stop offset="0.68597" stop-color="#FF318C" stop-opacity="0"/>
</linearGradient>
<linearGradient id="paint9_linear_1725:1406" x1="6.06991" y1="6.07914" x2="17.7592" y2="17.7684" gradientUnits="userSpaceOnUse">
<stop offset="0.18418" stop-color="#FFB40D"/>
<stop offset="0.69132" stop-color="#FF318C" stop-opacity="0"/>
</linearGradient>
<linearGradient id="paint10_linear_1725:1406" x1="5.17415" y1="12.0101" x2="10.2314" y2="12.0101" gradientUnits="userSpaceOnUse">
<stop stop-color="#F9ED32" stop-opacity="0.6"/>
<stop offset="0.19796" stop-color="#FFC524" stop-opacity="0.4"/>
<stop offset="0.70457" stop-color="#FFC524" stop-opacity="0"/>
</linearGradient>
<linearGradient id="paint11_linear_1725:1406" x1="6.34537" y1="3.75389" x2="8.47104" y2="10.9852" gradientUnits="userSpaceOnUse">
<stop offset="0.19796" stop-color="#FE2857" stop-opacity="0.4"/>
<stop offset="0.70457" stop-color="#FFB40D" stop-opacity="0"/>
</linearGradient>
<linearGradient id="paint12_linear_1725:1406" x1="39.3074" y1="36.6597" x2="51.2593" y2="49.5409" gradientUnits="userSpaceOnUse">
<stop offset="0.19796" stop-color="#FE2857" stop-opacity="0.4"/>
<stop offset="0.70457" stop-color="#FFB40D" stop-opacity="0"/>
</linearGradient>
<linearGradient id="paint13_linear_1725:1406" x1="21.6638" y1="37.1637" x2="53.1839" y2="82.0545" gradientUnits="userSpaceOnUse">
<stop offset="0.19796" stop-color="#FE2857" stop-opacity="0.4"/>
<stop offset="0.70457" stop-color="#FFB40D" stop-opacity="0"/>
</linearGradient>
</defs>
</svg>
