<svg width="48" height="48" viewBox="0 0 48 48" fill="none" xmlns="http://www.w3.org/2000/svg">
<path d="M12 34C12 32.3431 13.3431 31 15 31H45C46.6569 31 48 32.3431 48 34V45C48 46.6569 46.6569 48 45 48H15C13.3431 48 12 46.6569 12 45V34Z" fill="#FFC94D"/>
<path d="M48 45C48 46.6569 46.6569 48 45 48H15C13.3431 48 12 46.6569 12 45L12.0039 45.123C12.084 46.3913 13.3947 47.4004 15 47.4004H45C46.6569 47.4004 48 46.3255 48 45Z" fill="#7D7C7C"/>
<path d="M36 35H39.8443C40.4775 35 41.0322 35.1157 41.5082 35.3471C41.9842 35.5786 42.3519 35.9064 42.6111 36.3307C42.8704 36.755 43 37.2436 43 37.7964C43 38.3579 42.8682 38.8529 42.6047 39.2814C42.3412 39.7057 41.9672 40.0357 41.4827 40.2714C41.0024 40.5071 40.4393 40.625 39.7933 40.625H37.7851V44H36V35ZM39.7231 39.1336C40.0121 39.1336 40.265 39.08 40.4818 38.9729C40.6985 38.8657 40.8643 38.7114 40.9791 38.51C41.0981 38.3086 41.1576 38.0729 41.1576 37.8029C41.1576 37.5371 41.0981 37.3057 40.9791 37.1086C40.8643 36.9114 40.6985 36.7593 40.4818 36.6521C40.265 36.545 40.0121 36.4914 39.7231 36.4914H37.7851V39.1336H39.7231Z" fill="black"/>
<path d="M29.4234 35H31.4815L35 44H33.0913L32.3306 41.93H28.6558L27.9494 44H26L29.4234 35ZM31.8347 40.5414L30.5713 37.16L30.4287 36.5879L30.2928 37.16L29.1109 40.5414H31.8347Z" fill="black"/>
<path d="M18 35H24.8649V36.5814H19.8446V38.7093H24.4054V40.2521H19.8446V42.4186H25V44H18V35Z" fill="black"/>
</svg>
