<svg width="256" height="256" viewBox="0 0 256 256" fill="none" xmlns="http://www.w3.org/2000/svg">
<path d="M64 184C64 175.163 71.1634 168 80 168H240C248.837 168 256 175.163 256 184V240C256 248.837 248.837 256 240 256H80C71.1634 256 64 248.837 64 240V184Z" fill="#FFC94D"/>
<path d="M256 240C256 248.837 248.837 256 240 256H80C71.1634 256 64 248.837 64 240C64 247.18 71.1634 253 80 253H240C248.837 253 256 247.18 256 240Z" fill="#9B9A9A"/>
<path d="M190.334 188H210.47C213.787 188 216.692 188.594 219.186 189.781C221.679 190.968 223.605 192.65 224.963 194.826C226.321 197.003 227 199.509 227 202.345C227 205.225 226.31 207.764 224.93 209.962C223.549 212.139 221.59 213.832 219.052 215.041C216.537 216.25 213.587 216.854 210.203 216.854H199.684V234.167H190.334V188ZM209.836 209.204C211.35 209.204 212.674 208.929 213.81 208.379C214.945 207.83 215.813 207.038 216.414 206.005C217.038 204.972 217.349 203.763 217.349 202.378C217.349 201.015 217.038 199.828 216.414 198.816C215.813 197.805 214.945 197.025 213.81 196.475C212.674 195.925 211.35 195.651 209.836 195.651H199.684V209.204H209.836Z" fill="black"/>
<path d="M156.029 188H166.148L183.445 234.167H174.062L170.322 223.549H152.256L148.783 234.167H139.199L156.029 188ZM167.884 216.426L161.673 199.08L160.972 196.145L160.304 199.08L154.493 216.426H167.884Z" fill="black"/>
<path d="M98 188H131.928V196.112H107.116V207.027H129.657V214.942H107.116V226.055H132.596V234.167H98V188Z" fill="black"/>
</svg>
