<svg width="32" height="32" viewBox="0 0 32 32" fill="none" xmlns="http://www.w3.org/2000/svg">
<path d="M8 23C8 21.8954 8.89543 21 10 21H30C31.1046 21 32 21.8954 32 23V30C32 31.1046 31.1046 32 30 32H10C8.89543 32 8 31.1046 8 30V23Z" fill="#FFC94D"/>
<path d="M32 30C32 31.1046 31.1046 32 30 32H10C8.89543 32 8 31.1046 8 30L8.01074 30.1641C8.11346 30.9706 8.96469 31.5996 10 31.5996H30C31.1046 31.5996 32 30.8837 32 30Z" fill="#7D7C7C"/>
<path d="M24 23H26.7459C27.1982 23 27.5944 23.09 27.9344 23.27C28.2744 23.45 28.537 23.705 28.7222 24.035C28.9074 24.365 29 24.745 29 25.175C29 25.6117 28.9059 25.9967 28.7177 26.33C28.5294 26.66 28.2623 26.9167 27.9162 27.1C27.5732 27.2833 27.1709 27.375 26.7095 27.375H25.275V30H24V23ZM26.6594 26.215C26.8658 26.215 27.0464 26.1733 27.2013 26.09C27.3561 26.0067 27.4745 25.8867 27.5565 25.73C27.6415 25.5733 27.684 25.39 27.684 25.18C27.684 24.9733 27.6415 24.7933 27.5565 24.64C27.4745 24.4867 27.3561 24.3683 27.2013 24.285C27.0464 24.2017 26.8658 24.16 26.6594 24.16H25.275V26.215H26.6594Z" fill="black"/>
<path d="M19.5519 23H21.086L23.7088 30H22.286L21.7189 28.39H18.9797L18.4531 30H17L19.5519 23ZM21.3493 27.31L20.4075 24.68L20.3012 24.235L20.2 24.68L19.319 27.31H21.3493Z" fill="black"/>
<path d="M11.5 23H16.6442V24.23H12.8823V25.885H16.2999V27.085H12.8823V28.77H16.7455V30H11.5V23Z" fill="black"/>
</svg>
