<svg width="64" height="64" viewBox="0 0 64 64" fill="none" xmlns="http://www.w3.org/2000/svg">
<path d="M16 46C16 43.7909 17.7909 42 20 42H60C62.2091 42 64 43.7909 64 46V60C64 62.2091 62.2091 64 60 64H20C17.7909 64 16 62.2091 16 60V46Z" fill="#FFC94D"/>
<path d="M64 60C64 62.2091 62.2091 64 60 64H20C17.7909 64 16 62.2091 16 60L16.0049 60.165C16.1122 61.8557 17.86 63.2002 20 63.2002H60C62.2091 63.2002 64 61.7673 64 60Z" fill="#7D7C7C"/>
<path d="M48 47H53.2339C54.0961 47 54.8513 47.1543 55.4993 47.4629C56.1474 47.7714 56.648 48.2086 57.001 48.7743C57.3539 49.34 57.5304 49.9914 57.5304 50.7286C57.5304 51.4771 57.351 52.1371 56.9923 52.7086C56.6335 53.2743 56.1243 53.7143 55.4646 54.0286C54.8108 54.3429 54.044 54.5 53.1645 54.5H50.4303V59H48V47ZM53.069 52.5114C53.4625 52.5114 53.8068 52.44 54.1019 52.2971C54.397 52.1543 54.6227 51.9486 54.7789 51.68C54.9409 51.4114 55.022 51.0971 55.022 50.7371C55.022 50.3829 54.9409 50.0743 54.7789 49.8114C54.6227 49.5486 54.397 49.3457 54.1019 49.2029C53.8068 49.06 53.4625 48.9886 53.069 48.9886H50.4303V52.5114H53.069Z" fill="black"/>
<path d="M39.0836 47H41.7136L46.2097 59H43.7707L42.7986 56.24H38.1028L37.2001 59H34.709L39.0836 47ZM42.1649 54.3886L40.5505 49.88L40.3682 49.1171L40.1946 49.88L38.6843 54.3886H42.1649Z" fill="black"/>
<path d="M24 47H32.8187V49.1086H26.3696V51.9457H32.2284V54.0029H26.3696V56.8914H32.9923V59H24V47Z" fill="black"/>
</svg>
