<svg width="24" height="24" viewBox="0 0 24 24" fill="none" xmlns="http://www.w3.org/2000/svg">
<path d="M6 16.5C6 15.6716 6.67157 15 7.5 15H22.5C23.3284 15 24 15.6716 24 16.5V22.5C24 23.3284 23.3284 24 22.5 24H7.5C6.67157 24 6 23.3284 6 22.5V16.5Z" fill="#FFC94D"/>
<path d="M24 22.5C24 23.3284 23.3284 24 22.5 24H7.5C6.71303 24 6.06848 23.3939 6.00586 22.623C6.00311 22.5823 6 22.5414 6 22.5L6.00781 22.623C6.08483 23.228 6.7235 23.7002 7.5 23.7002H22.5C23.3284 23.7002 24 23.1627 24 22.5Z" fill="#7D7C7C"/>
<path d="M18 17H20.1967C20.5586 17 20.8755 17.0643 21.1475 17.1929C21.4195 17.3214 21.6296 17.5036 21.7778 17.7393C21.9259 17.975 22 18.2464 22 18.5536C22 18.8655 21.9247 19.1405 21.7741 19.3786C21.6236 19.6143 21.4098 19.7976 21.133 19.9286C20.8585 20.0595 20.5367 20.125 20.1676 20.125H19.02V22H18V17ZM20.1275 19.2964C20.2927 19.2964 20.4372 19.2667 20.561 19.2071C20.6849 19.1476 20.7796 19.0619 20.8452 18.95C20.9132 18.8381 20.9472 18.7071 20.9472 18.5571C20.9472 18.4095 20.9132 18.281 20.8452 18.1714C20.7796 18.0619 20.6849 17.9774 20.561 17.9179C20.4372 17.8583 20.2927 17.8286 20.1275 17.8286H19.02V19.2964H20.1275Z" fill="black"/>
<path d="M14.8258 17H15.9235L17.8 22H16.782L16.3763 20.85H14.4165L14.0397 22H13L14.8258 17ZM16.1118 20.0786L15.438 18.2L15.362 17.8821L15.2895 18.2L14.6592 20.0786H16.1118Z" fill="black"/>
<path d="M9 17H12.9228V17.8786H10.0541V19.0607H12.6602V19.9179H10.0541V21.1214H13V22H9V17Z" fill="black"/>
</svg>
