<svg width="128" height="128" viewBox="0 0 128 128" fill="none" xmlns="http://www.w3.org/2000/svg">
<path d="M32 92C32 87.5817 35.5817 84 40 84H120C124.418 84 128 87.5817 128 92V120C128 124.418 124.418 128 120 128H40C35.5817 128 32 124.418 32 120V92Z" fill="#FFC94D"/>
<path d="M128 120C128 124.418 124.418 128 120 128H40C35.5817 128 32 124.418 32 120C32 123.535 35.5817 126.4 40 126.4H120C124.418 126.4 128 123.535 128 120Z" fill="#7D7C7C"/>
<path d="M95 93.9165H105.068C106.727 93.9165 108.179 94.2133 109.426 94.8069C110.673 95.4004 111.635 96.2413 112.314 97.3296C112.993 98.4178 113.333 99.6709 113.333 101.089C113.333 102.529 112.988 103.798 112.298 104.898C111.608 105.986 110.628 106.832 109.359 107.437C108.101 108.041 106.626 108.344 104.935 108.344H99.6751V117H95V93.9165ZM104.751 104.518C105.508 104.518 106.17 104.381 106.738 104.106C107.305 103.831 107.74 103.436 108.04 102.919C108.352 102.402 108.508 101.798 108.508 101.105C108.508 100.424 108.352 99.8303 108.04 99.3246C107.74 98.819 107.305 98.4288 106.738 98.154C106.17 97.8792 105.508 97.7418 104.751 97.7418H99.6751V104.518H104.751Z" fill="black"/>
<path d="M77.9151 93.9165H82.9742L91.6231 117H86.9314L85.0613 111.691H76.0284L74.292 117H69.5L77.9151 93.9165ZM83.8425 108.129L80.7369 99.4565L80.3862 97.9891L80.0523 99.4565L77.1471 108.129H83.8425Z" fill="black"/>
<path d="M49 93.9165H65.9638V97.9726H53.5582V103.43H64.8285V107.387H53.5582V112.944H66.2978V117H49V93.9165Z" fill="black"/>
</svg>
