<!-- Copyright © 2000–2024 JetBrains s.r.o. -->
<svg width="64" height="64" viewBox="0 0 64 64" xmlns="http://www.w3.org/2000/svg">
  <path fill="url(#a)" d="M4.12 64h34.13c1.66 0 3.16-.99 3.8-2.52l15.8-37.42c.22-.52.33-1.08.32-1.64l-.15-18.33C58.01 1.83 56.16 0 53.9 0H36.23c-.8 0-1.59.24-2.26.68L1.86 21.79A4.11 4.11 0 0 0 0 25.23v34.65C0 62.15 1.85 64 4.12 64"/>
  <path fill="url(#b)" d="M49.01 58h10.86A4.13 4.13 0 0 0 64 53.88V41.31c0-.2 0-.4-.04-.6L58.51 3.53A4.13 4.13 0 0 0 54.43 0h-15.4c-2.28 0-4.13 1.85-4.13 4.13v18.5c0 .43.07.85.2 1.25l9.98 31.25A4.13 4.13 0 0 0 49.01 58"/>
  <path fill="#FDB60D" d="M47.55 58h12.26c2.3 0 4.16-1.89 4.12-4.19L64 43c-.02-1.18-.79-2.53-1.68-3.3L24.16 6.99c-.75-.64-1.7-.99-2.69-.99H10.12C7.85 6 6 7.85 6 10.12v11.01c0 1.19.51 2.32 1.41 3.1l37.42 32.75c.76.66 1.72 1.02 2.72 1.02"/>
  <path d="M52 12H12v40h40z"/>
  <path fill="#fff" d="M28 27.06 36.23 32 28 36.94v-9.87M24 20v24l20-12z"/>
  <defs>
    <linearGradient id="a" x1="59.678" x2="1.08" y1="4.072" y2="62.663" gradientUnits="userSpaceOnUse">
      <stop offset=".31" stop-color="#FF45ED"/>
      <stop offset=".83" stop-color="#6B57FF"/>
    </linearGradient>
    <linearGradient id="b" x1="64.388" x2="39.608" y1="56.33" y2="2.87" gradientUnits="userSpaceOnUse">
      <stop offset=".3" stop-color="#FDB60D"/>
      <stop offset=".7" stop-color="#FF45ED"/>
    </linearGradient>
  </defs>
</svg>
