<!-- Copyright © 2000–2024 JetBrains s.r.o. -->
<svg width="24" height="24" viewBox="0 0 24 24" xmlns="http://www.w3.org/2000/svg">
  <path fill="url(#a)" d="M1.545 24h12.799c.622 0 1.185-.371 1.425-.945l5.925-14.032a1.5 1.5 0 0 0 .12-.615l-.056-6.874A1.545 1.545 0 0 0 20.212 0h-6.626c-.3 0-.596.09-.847.255L.697 8.171A1.54 1.54 0 0 0 0 9.461v12.994C0 23.306.694 24 1.545 24"/>
  <path fill="url(#b)" d="M18.379 21.75h4.072c.855 0 1.549-.694 1.549-1.545v-4.714c0-.075 0-.15-.015-.225L21.941 1.324A1.55 1.55 0 0 0 20.411 0h-5.775a1.55 1.55 0 0 0-1.548 1.549v6.937q0 .244.075.469l3.742 11.719a1.55 1.55 0 0 0 1.474 1.076"/>
  <path fill="#FDB60D" d="M17.831 21.75h4.598c.862 0 1.56-.709 1.545-1.571L24 16.125c-.008-.443-.296-.949-.63-1.238L9.06 2.621a1.55 1.55 0 0 0-1.009-.371H3.795c-.851 0-1.545.694-1.545 1.545v4.129c0 .446.191.87.529 1.162L16.81 21.368c.285.247.645.382 1.02.382"/>
  <path d="M19.5 4.5h-15v15h15z"/>
  <path fill="#fff" d="M10.5 10.148 13.586 12 10.5 13.852v-3.7M9 7.5v9l7.5-4.5z"/>
  <defs>
    <linearGradient id="a" x1="22.379" x2=".405" y1="1.527" y2="23.498" gradientUnits="userSpaceOnUse">
      <stop offset=".31" stop-color="#FF45ED"/>
      <stop offset=".83" stop-color="#6B57FF"/>
    </linearGradient>
    <linearGradient id="b" x1="24.145" x2="14.853" y1="21.124" y2="1.076" gradientUnits="userSpaceOnUse">
      <stop offset=".3" stop-color="#FDB60D"/>
      <stop offset=".7" stop-color="#FF45ED"/>
    </linearGradient>
  </defs>
</svg>
