<!-- Copyright © 2000–2024 JetBrains s.r.o. -->
<svg width="256" height="256" viewBox="0 0 256 256" xmlns="http://www.w3.org/2000/svg">
  <path fill="url(#a)" d="M16.48 256H153c6.64 0 12.64-3.96 15.2-10.08l63.2-149.68c.88-2.08 1.32-4.32 1.28-6.56l-.6-73.32C232.04 7.32 224.64 0 215.6 0h-70.68c-3.2 0-6.36.96-9.04 2.72L7.44 87.16C2.8 90.2 0 95.36 0 100.92v138.6C0 248.6 7.4 256 16.48 256"/>
  <path fill="url(#b)" d="M196.04 232h43.44c9.12 0 16.52-7.4 16.52-16.48v-50.28c0-.8 0-1.6-.16-2.4l-21.8-148.72C232.84 6 225.88 0 217.72 0h-61.6C147 0 139.6 7.4 139.6 16.52v74c0 1.72.28 3.4.8 5l39.92 125c2.2 6.84 8.56 11.48 15.72 11.48"/>
  <path fill="#FDB60D" d="M190.2 232h49.04c9.2 0 16.64-7.56 16.48-16.76L256 172c-.08-4.72-3.16-10.12-6.72-13.2L96.64 27.96c-3-2.56-6.8-3.96-10.76-3.96h-45.4C31.4 24 24 31.4 24 40.48v44.04c0 4.76 2.04 9.28 5.64 12.4l149.68 131A16.55 16.55 0 0 0 190.2 232"/>
  <path d="M208 48H48v160h160z"/>
  <path fill="#fff" d="M112 108.24 144.92 128 112 147.76v-39.48M96 80v96l80-48z"/>
  <defs>
    <linearGradient id="a" x1="238.71" x2="4.32" y1="16.29" y2="250.65" gradientUnits="userSpaceOnUse">
      <stop offset=".31" stop-color="#FF45ED"/>
      <stop offset=".83" stop-color="#6B57FF"/>
    </linearGradient>
    <linearGradient id="b" x1="257.55" x2="158.43" y1="225.32" y2="11.48" gradientUnits="userSpaceOnUse">
      <stop offset=".3" stop-color="#FDB60D"/>
      <stop offset=".7" stop-color="#FF45ED"/>
    </linearGradient>
  </defs>
</svg>
