<!-- Copyright © 2000–2024 JetBrains s.r.o. -->
<svg width="128" height="128" viewBox="0 0 128 128" xmlns="http://www.w3.org/2000/svg">
  <path fill="url(#a)" d="M8.24 128H76.5c3.32 0 6.32-1.98 7.6-5.04l31.6-74.84c.44-1.04.66-2.16.64-3.28l-.3-36.66C116.02 3.66 112.32 0 107.8 0H72.46c-1.6 0-3.18.48-4.52 1.36L3.72 43.58A8.22 8.22 0 0 0 0 50.46v69.3C0 124.3 3.7 128 8.24 128"/>
  <path fill="url(#b)" d="M98.02 116h21.72c4.56 0 8.26-3.7 8.26-8.24V82.62c0-.4 0-.8-.08-1.2l-10.9-74.36C116.42 3 112.94 0 108.86 0h-30.8C73.5 0 69.8 3.7 69.8 8.26v37c0 .86.14 1.7.4 2.5l19.96 62.5a8.27 8.27 0 0 0 7.86 5.74"/>
  <path fill="#FDB60D" d="M95.1 116h24.52c4.6 0 8.32-3.78 8.24-8.38L128 86c-.04-2.36-1.58-5.06-3.36-6.6L48.32 13.98A8.27 8.27 0 0 0 42.94 12h-22.7C15.7 12 12 15.7 12 20.24v22.02c0 2.38 1.02 4.64 2.82 6.2l74.84 65.5A8.28 8.28 0 0 0 95.1 116"/>
  <path d="M104 24H24v80h80z"/>
  <path fill="#fff" d="M56 54.12 72.46 64 56 73.88V54.14M48 40v48l40-24z"/>
  <defs>
    <linearGradient id="a" x1="119.355" x2="2.16" y1="8.145" y2="125.325" gradientUnits="userSpaceOnUse">
      <stop offset=".31" stop-color="#FF45ED"/>
      <stop offset=".83" stop-color="#6B57FF"/>
    </linearGradient>
    <linearGradient id="b" x1="128.775" x2="79.215" y1="112.66" y2="5.74" gradientUnits="userSpaceOnUse">
      <stop offset=".3" stop-color="#FDB60D"/>
      <stop offset=".7" stop-color="#FF45ED"/>
    </linearGradient>
  </defs>
</svg>
