<svg width="1024" height="1024" viewBox="0 0 1024 1024" fill="none" xmlns="http://www.w3.org/2000/svg">
<g filter="url(#filter0_d_6180_42149)">
<path d="M624.364 324.727H100V732C100 838.039 185.961 924 292 924H624.364V324.727Z" fill="#00D886"/>
<path d="M732 100H324.727V549.455H924V292C924 185.961 838.039 100 732 100Z" fill="url(#paint0_linear_6180_42149)"/>
<path d="M624.364 924H732C838.039 924 924 838.039 924 732V549.455L324.727 100H292C185.961 100 100 185.961 100 292V324.727L624.364 924Z" fill="#FF43F2"/>
<path d="M776 248H248V776H776V248Z" fill="black"/>
<path d="M319.74 319.984H394.358C412.928 319.984 429.54 324.184 444.195 332.584C458.94 340.984 470.468 352.654 478.778 367.587C487.081 382.429 491.236 399.229 491.236 417.987C491.236 436.745 487.081 453.597 478.778 468.53C470.468 483.372 458.94 494.99 444.195 503.39C429.54 511.79 412.928 515.99 394.358 515.99H319.74V319.992V319.984ZM393.938 482.945C405.608 482.945 415.823 480.335 424.598 475.107C433.373 469.872 440.138 462.417 444.9 452.705C449.663 442.902 452.04 431.337 452.04 417.987C452.04 404.637 449.663 393.117 444.9 383.404C440.138 373.602 433.373 366.094 424.598 360.867C415.823 355.632 405.6 353.029 393.938 353.029H357.96V482.952H393.938V482.945ZM608.326 519.35C589.568 519.35 572.581 514.955 557.363 506.187C542.153 497.315 530.206 485.187 521.521 469.79C512.843 454.302 508.501 437.03 508.501 417.987C508.501 398.944 512.843 381.724 521.521 366.327C530.198 350.839 542.146 338.697 557.363 329.929C572.581 321.057 589.561 316.632 608.326 316.632C623.543 316.632 637.538 319.347 650.326 324.754C663.203 330.162 674.033 337.774 682.808 347.577C691.673 357.379 697.883 368.667 701.431 381.454H660.548C657.563 375.297 653.506 369.972 648.368 365.494C643.328 360.927 637.403 357.424 630.586 354.994C623.776 352.474 616.448 351.214 608.603 351.214C597.031 351.214 586.576 354.102 577.246 359.892C567.916 365.682 560.588 373.662 555.263 383.832C550.036 393.912 547.426 405.305 547.426 417.995C547.426 430.685 550.043 442.13 555.263 452.292C560.581 462.372 567.908 470.3 577.246 476.09C586.583 481.88 597.031 484.767 608.603 484.767C619.336 484.767 629.041 482.757 637.726 478.745C646.501 474.74 653.453 469.175 658.583 462.087C663.721 455 666.473 447.02 666.841 438.147L666.983 442.205H620.926V412.107H703.943V427.505C703.943 444.777 699.743 460.407 691.343 474.402C683.041 488.315 671.603 499.272 657.046 507.305C642.578 515.337 626.341 519.342 608.326 519.342V519.35Z" fill="white"/>
<path d="M530 670H320V704H530V670Z" fill="white"/>
</g>
<defs>
<filter id="filter0_d_6180_42149" x="80" y="90" width="864" height="864" filterUnits="userSpaceOnUse" color-interpolation-filters="sRGB">
<feFlood flood-opacity="0" result="BackgroundImageFix"/>
<feColorMatrix in="SourceAlpha" type="matrix" values="0 0 0 0 0 0 0 0 0 0 0 0 0 0 0 0 0 0 127 0" result="hardAlpha"/>
<feOffset dy="10"/>
<feGaussianBlur stdDeviation="10"/>
<feColorMatrix type="matrix" values="0 0 0 0 0 0 0 0 0 0 0 0 0 0 0 0 0 0 0.3 0"/>
<feBlend mode="normal" in2="BackgroundImageFix" result="effect1_dropShadow_6180_42149"/>
<feBlend mode="normal" in="SourceGraphic" in2="effect1_dropShadow_6180_42149" result="shape"/>
</filter>
<linearGradient id="paint0_linear_6180_42149" x1="624.364" y1="113.416" x2="624.364" y2="532.862" gradientUnits="userSpaceOnUse">
<stop  offset="0" stop-color="#7256FF"/>
<stop offset="1" stop-color="#FF43F2"/>
</linearGradient>
</defs>
</svg>
