<svg width="32" height="32" viewBox="0 0 32 32" fill="none" xmlns="http://www.w3.org/2000/svg">
<path d="M19.8182 9.63623H2V23.9999C2 27.3136 4.68629 29.9999 8 29.9999H19.8182V9.63623Z" fill="#00D886"/>
<path d="M24 2H9.63635V17.2727H30V8C30 4.68629 27.3137 2 24 2Z" fill="url(#paint0_linear_4372_11954)"/>
<path d="M19.8182 30H24C27.3137 30 30 27.3137 30 24V17.2727L9.63636 2H8C4.68629 2 2 4.68629 2 8V9.63636L19.8182 30Z" fill="#FF43F2"/>
<path d="M25 7H7V25H25V7Z" fill="black"/>
<path d="M8.96997 9.01962H11.6346C12.2977 9.01962 12.891 9.16961 13.4143 9.46957C13.9409 9.76954 14.3525 10.1863 14.6493 10.7195C14.9457 11.2496 15.0941 11.8495 15.0941 12.5193C15.0941 13.1892 14.9457 13.791 14.6493 14.3242C14.3525 14.8543 13.9409 15.2691 13.4143 15.5691C12.891 15.8691 12.2977 16.019 11.6346 16.019H8.96997V9.01989V9.01962ZM11.6196 14.839C12.0363 14.839 12.4011 14.7458 12.7145 14.5591C13.0278 14.3722 13.2694 14.1059 13.4395 13.7591C13.6096 13.4091 13.6945 12.9961 13.6945 12.5193C13.6945 12.0426 13.6096 11.6312 13.4395 11.2844C13.2694 10.9343 13.0278 10.6662 12.7145 10.4796C12.4011 10.2926 12.0361 10.1997 11.6196 10.1997H10.3348V14.8393H11.6196V14.839ZM19.2755 16.139C18.6056 16.139 17.999 15.9821 17.4556 15.669C16.9124 15.3521 16.4858 14.9191 16.1756 14.3692C15.8657 13.8162 15.7107 13.1993 15.7107 12.5193C15.7107 11.8393 15.8657 11.2244 16.1756 10.6745C16.4855 10.1215 16.9121 9.68785 17.4556 9.37476C17.999 9.05792 18.6053 8.8999 19.2755 8.8999C19.8189 8.8999 20.3186 8.99686 20.7753 9.18996C21.2351 9.38306 21.6219 9.65491 21.9352 10.005C22.2518 10.355 22.4736 10.7581 22.6003 11.2147H21.1403C21.0337 10.9949 20.8888 10.8047 20.7054 10.6448C20.5254 10.4817 20.3138 10.3566 20.0704 10.2698C19.8272 10.1799 19.5655 10.1349 19.2854 10.1349C18.8721 10.1349 18.4987 10.238 18.1656 10.4447C17.8324 10.6515 17.5707 10.9365 17.3806 11.2996C17.1939 11.6596 17.1007 12.0664 17.1007 12.5196C17.1007 12.9728 17.1942 13.3815 17.3806 13.7444C17.5705 14.1043 17.8321 14.3874 18.1656 14.5942C18.499 14.801 18.8721 14.9041 19.2854 14.9041C19.6686 14.9041 20.0152 14.8323 20.3253 14.689C20.6387 14.546 20.887 14.3473 21.0702 14.0942C21.2536 13.8411 21.3519 13.5561 21.365 13.2392L21.3701 13.3841H19.7254V12.3094H22.69V12.8592C22.69 13.476 22.54 14.0342 22.24 14.5339C21.9436 15.0307 21.5351 15.422 21.0153 15.7089C20.4986 15.9957 19.9188 16.1388 19.2755 16.1388V16.139Z" fill="white"/>
<path d="M16 22H9V23H16V22Z" fill="white"/>
<defs>
<linearGradient id="paint0_linear_4372_11954" x1="19.8182" y1="2.45589" x2="19.8182" y2="16.7089" gradientUnits="userSpaceOnUse">
<stop  offset="0" stop-color="#7256FF"/>
<stop offset="1" stop-color="#FF43F2"/>
</linearGradient>
</defs>
</svg>
