<svg width="64" height="64" viewBox="0 0 64 64" fill="none" xmlns="http://www.w3.org/2000/svg">
<g filter="url(#filter0_d_6179_27264)">
<path d="M39.0909 20.1819H6V46.0001C6 52.6275 11.3726 58.0001 18 58.0001H39.0909V20.1819Z" fill="#00D886"/>
<path d="M46 6H20.1818V34.3636H57.9999V18C57.9999 11.3726 52.6274 6 46 6Z" fill="url(#paint0_linear_6179_27264)"/>
<path d="M39.0909 58H46C52.6274 58 58 52.6274 58 46V34.3636L20.1818 6H18C11.3726 6 6 11.3726 6 18V20.1818L39.0909 58Z" fill="#FF43F2"/>
<path d="M49 15H15V49H49V15Z" fill="black"/>
<path d="M20 19.9389H24.7579C25.942 19.9389 27.0012 20.2067 27.9357 20.7423C28.8759 21.2779 29.6109 22.022 30.1408 22.9742C30.6702 23.9206 30.9351 24.9918 30.9351 26.1879C30.9351 27.3839 30.6702 28.4585 30.1408 29.4106C29.6109 30.357 28.8759 31.0978 27.9357 31.6334C27.0012 32.169 25.942 32.4369 24.7579 32.4369H20V19.9389ZM24.7311 30.3298C25.4752 30.3298 26.1266 30.1634 26.6861 29.83C27.2456 29.4962 27.677 29.0209 27.9807 28.4016C28.2843 27.7765 28.4359 27.0391 28.4359 26.1879C28.4359 25.3366 28.2843 24.6021 27.9807 23.9828C27.677 23.3577 27.2456 22.879 26.6861 22.5457C26.1266 22.2119 25.4747 22.0459 24.7311 22.0459H22.437V30.3303L24.7311 30.3298ZM38.4012 32.6511C37.2052 32.6511 36.122 32.3709 35.1517 31.8118C34.1818 31.2461 33.42 30.4728 32.8662 29.491C32.3129 28.5034 32.036 27.4021 32.036 26.1879C32.036 24.9736 32.3129 23.8756 32.8662 22.8938C33.4195 21.9063 34.1813 21.132 35.1517 20.573C36.122 20.0073 37.2047 19.7251 38.4012 19.7251C39.3715 19.7251 40.2639 19.8982 41.0793 20.243C41.9004 20.5878 42.591 21.0732 43.1505 21.6983C43.7158 22.3233 44.1117 23.043 44.3379 23.8584H41.7311C41.5408 23.4658 41.2821 23.1263 40.9545 22.8407C40.6331 22.5495 40.2553 22.3262 39.8206 22.1712C39.3864 22.0105 38.9191 21.9302 38.4189 21.9302C37.681 21.9302 37.0144 22.1143 36.4195 22.4835C35.8245 22.8527 35.3573 23.3615 35.0178 24.01C34.6844 24.6528 34.518 25.3792 34.518 26.1883C34.518 26.9975 34.6849 27.7273 35.0178 28.3753C35.3568 29.018 35.8241 29.5235 36.4195 29.8927C37.0148 30.2619 37.681 30.446 38.4189 30.446C39.1033 30.446 39.7221 30.3178 40.2759 30.062C40.8354 29.8066 41.2787 29.4518 41.6058 28.9998C41.9334 28.5479 42.1089 28.0391 42.1324 27.4733L42.1414 27.7321H39.2046V25.8129H44.4981V26.7947C44.4981 27.8961 44.2303 28.8927 43.6947 29.7851C43.1653 30.6722 42.436 31.3709 41.5078 31.8831C40.5853 32.3953 39.5499 32.6511 38.4012 32.6511Z" fill="white"/>
<path d="M34 41.5H20V44H34V41.5Z" fill="white"/>
</g>
<defs>
<filter id="filter0_d_6179_27264" x="4.75" y="5.35" width="54.5" height="54.5" filterUnits="userSpaceOnUse" color-interpolation-filters="sRGB">
<feFlood flood-opacity="0" result="BackgroundImageFix"/>
<feColorMatrix in="SourceAlpha" type="matrix" values="0 0 0 0 0 0 0 0 0 0 0 0 0 0 0 0 0 0 127 0" result="hardAlpha"/>
<feOffset dy="0.6"/>
<feGaussianBlur stdDeviation="0.625"/>
<feColorMatrix type="matrix" values="0 0 0 0 0 0 0 0 0 0 0 0 0 0 0 0 0 0 0.3 0"/>
<feBlend mode="normal" in2="BackgroundImageFix" result="effect1_dropShadow_6179_27264"/>
<feBlend mode="normal" in="SourceGraphic" in2="effect1_dropShadow_6179_27264" result="shape"/>
</filter>
<linearGradient id="paint0_linear_6179_27264" x1="39.0909" y1="6.84665" x2="39.0909" y2="33.3165" gradientUnits="userSpaceOnUse">
<stop  offset="0" stop-color="#7256FF"/>
<stop offset="1" stop-color="#FF43F2"/>
</linearGradient>
</defs>
</svg>
