<svg width="256" height="256" viewBox="0 0 256 256" fill="none" xmlns="http://www.w3.org/2000/svg">
<g filter="url(#filter0_d_4372_11951)">
<path d="M156.091 81.1819H25V183C25 209.51 46.4904 231 73 231H156.091V81.1819Z" fill="#00D886"/>
<path d="M183 25H81.1818V137.364H231V73C231 46.4903 209.51 25 183 25Z" fill="url(#paint0_linear_4372_11951)"/>
<path d="M156.091 231H183C209.51 231 231 209.51 231 183V137.364L81.1818 25H73C46.4904 25 25 46.4903 25 73V81.1818L156.091 231Z" fill="#FF43F2"/>
<path d="M194 62H62V194H194V62Z" fill="black"/>
<path d="M79.9351 79.9961H98.5895C103.232 79.9961 107.385 81.0461 111.049 83.1461C114.735 85.2461 117.617 88.1636 119.695 91.8967C121.77 95.6074 122.809 99.8074 122.809 104.497C122.809 109.186 121.77 113.399 119.695 117.132C117.617 120.843 114.735 123.747 111.049 125.847C107.385 127.947 103.232 128.997 98.5895 128.997H79.9351V79.998V79.9961ZM98.4845 120.736C101.402 120.736 103.956 120.084 106.149 118.777C108.343 117.468 110.034 115.604 111.225 113.176C112.416 110.726 113.01 107.834 113.01 104.497C113.01 101.159 112.416 98.2792 111.225 95.8511C110.034 93.4005 108.343 91.5236 106.149 90.2167C103.956 88.908 101.4 88.2574 98.4845 88.2574H89.4901V120.738H98.4845V120.736ZM152.081 129.837C147.392 129.837 143.145 128.739 139.341 126.547C135.538 124.329 132.551 121.297 130.38 117.447C128.211 113.576 127.125 109.257 127.125 104.497C127.125 99.7361 128.211 95.4311 130.38 91.5817C132.55 87.7099 135.536 84.6742 139.341 82.4823C143.145 80.2642 147.39 79.158 152.081 79.158C155.886 79.158 159.385 79.8367 162.581 81.1886C165.801 82.5405 168.508 84.4436 170.702 86.8942C172.918 89.3449 174.471 92.1667 175.358 95.3636H165.137C164.391 93.8242 163.376 92.493 162.092 91.3736C160.832 90.2317 159.351 89.3561 157.646 88.7486C155.944 88.1186 154.112 87.8036 152.151 87.8036C149.258 87.8036 146.644 88.5255 144.311 89.973C141.979 91.4205 140.147 93.4155 138.816 95.958C137.509 98.478 136.856 101.326 136.856 104.499C136.856 107.671 137.511 110.532 138.816 113.073C140.145 115.593 141.977 117.575 144.311 119.022C146.646 120.47 149.258 121.192 152.151 121.192C154.834 121.192 157.26 120.689 159.431 119.686C161.625 118.685 163.363 117.294 164.646 115.522C165.93 113.75 166.618 111.755 166.71 109.537L166.746 110.551H155.231V103.027H175.986V106.876C175.986 111.194 174.936 115.102 172.836 118.601C170.76 122.079 167.901 124.818 164.261 126.826C160.645 128.834 156.585 129.836 152.081 129.836V129.837Z" fill="white"/>
<path d="M132.5 167.5H80V176H132.5V167.5Z" fill="white"/>
</g>
<defs>
<filter id="filter0_d_4372_11951" x="20" y="22.5" width="216" height="216" filterUnits="userSpaceOnUse" color-interpolation-filters="sRGB">
<feFlood flood-opacity="0" result="BackgroundImageFix"/>
<feColorMatrix in="SourceAlpha" type="matrix" values="0 0 0 0 0 0 0 0 0 0 0 0 0 0 0 0 0 0 127 0" result="hardAlpha"/>
<feOffset dy="2.5"/>
<feGaussianBlur stdDeviation="2.5"/>
<feColorMatrix type="matrix" values="0 0 0 0 0 0 0 0 0 0 0 0 0 0 0 0 0 0 0.3 0"/>
<feBlend mode="normal" in2="BackgroundImageFix" result="effect1_dropShadow_4372_11951"/>
<feBlend mode="normal" in="SourceGraphic" in2="effect1_dropShadow_4372_11951" result="shape"/>
</filter>
<linearGradient id="paint0_linear_4372_11951" x1="156.091" y1="28.3541" x2="156.091" y2="133.216" gradientUnits="userSpaceOnUse">
<stop  offset="0" stop-color="#7256FF"/>
<stop offset="1" stop-color="#FF43F2"/>
</linearGradient>
</defs>
</svg>
