<svg width="512" height="512" viewBox="0 0 512 512" fill="none" xmlns="http://www.w3.org/2000/svg">
<g filter="url(#filter0_d_4372_11952)">
<path d="M312.182 162.364H50V366C50 419.019 92.9807 462 146 462H312.182V162.364Z" fill="#00D886"/>
<path d="M366 50H162.364V274.727H462V146C462 92.9807 419.019 50 366 50Z" fill="url(#paint0_linear_4372_11952)"/>
<path d="M312.182 462H366C419.019 462 462 419.019 462 366V274.727L162.364 50H146C92.9807 50 50 92.9807 50 146V162.364L312.182 462Z" fill="#FF43F2"/>
<path d="M388 124H124V388H388V124Z" fill="black"/>
<path d="M159.87 159.992H197.179C206.464 159.992 214.77 162.092 222.098 166.292C229.47 170.492 235.234 176.327 239.389 183.793C243.54 191.215 245.618 199.615 245.618 208.994C245.618 218.372 243.54 226.799 239.389 234.265C235.234 241.686 229.47 247.495 222.098 251.695C214.77 255.895 206.464 257.995 197.179 257.995H159.87V159.996V159.992ZM196.969 241.472C202.804 241.472 207.911 240.167 212.299 237.554C216.686 234.936 220.069 231.209 222.45 226.352C224.831 221.451 226.02 215.669 226.02 208.994C226.02 202.319 224.831 196.558 222.45 191.702C220.069 186.801 216.686 183.047 212.299 180.433C207.911 177.816 202.8 176.515 196.969 176.515H178.98V241.476H196.969V241.472ZM304.163 259.675C294.784 259.675 286.29 257.477 278.682 253.094C271.077 248.657 265.103 242.594 260.76 234.895C256.422 227.151 254.25 218.515 254.25 208.994C254.25 199.472 256.422 190.862 260.76 183.163C265.099 175.42 271.073 169.348 278.682 164.965C286.29 160.528 294.78 158.316 304.163 158.316C311.772 158.316 318.769 159.673 325.163 162.377C331.602 165.081 337.017 168.887 341.404 173.788C345.837 178.69 348.942 184.333 350.715 190.727H330.274C328.782 187.648 326.753 184.986 324.184 182.747C321.664 180.463 318.702 178.712 315.293 177.497C311.888 176.237 308.224 175.607 304.302 175.607C298.515 175.607 293.288 177.051 288.623 179.946C283.958 182.841 280.294 186.831 277.632 191.916C275.018 196.956 273.713 202.652 273.713 208.997C273.713 215.342 275.022 221.065 277.632 226.146C280.29 231.186 283.954 235.15 288.623 238.045C293.292 240.94 298.515 242.384 304.302 242.384C309.668 242.384 314.52 241.379 318.863 239.372C323.25 237.37 326.727 234.587 329.292 231.044C331.86 227.5 333.237 223.51 333.42 219.074L333.492 221.102H310.463V206.054H351.972V213.752C351.972 222.389 349.872 230.204 345.672 237.201C341.52 244.157 335.802 249.636 328.523 253.652C321.289 257.669 313.17 259.671 304.163 259.671V259.675Z" fill="white"/>
<path d="M265 335H160V352H265V335Z" fill="white"/>
</g>
<defs>
<filter id="filter0_d_4372_11952" x="40" y="45" width="432" height="432" filterUnits="userSpaceOnUse" color-interpolation-filters="sRGB">
<feFlood flood-opacity="0" result="BackgroundImageFix"/>
<feColorMatrix in="SourceAlpha" type="matrix" values="0 0 0 0 0 0 0 0 0 0 0 0 0 0 0 0 0 0 127 0" result="hardAlpha"/>
<feOffset dy="5"/>
<feGaussianBlur stdDeviation="5"/>
<feColorMatrix type="matrix" values="0 0 0 0 0 0 0 0 0 0 0 0 0 0 0 0 0 0 0.3 0"/>
<feBlend mode="normal" in2="BackgroundImageFix" result="effect1_dropShadow_4372_11952"/>
<feBlend mode="normal" in="SourceGraphic" in2="effect1_dropShadow_4372_11952" result="shape"/>
</filter>
<linearGradient id="paint0_linear_4372_11952" x1="312.182" y1="56.7081" x2="312.182" y2="266.431" gradientUnits="userSpaceOnUse">
<stop  offset="0" stop-color="#7256FF"/>
<stop offset="1" stop-color="#FF43F2"/>
</linearGradient>
</defs>
</svg>
