<svg width="128" height="128" viewBox="0 0 128 128" fill="none" xmlns="http://www.w3.org/2000/svg">
<g filter="url(#filter0_d_4372_11953)">
<path d="M78.1818 40.3635H12V91.9999C12 105.255 22.7452 116 36 116H78.1818V40.3635Z" fill="#00D886"/>
<path d="M92 12H40.3636V68.7273H116V36C116 22.7452 105.255 12 92 12Z" fill="url(#paint0_linear_4372_11953)"/>
<path d="M78.1818 116H92C105.255 116 116 105.255 116 92V68.7273L40.3636 12H36C22.7452 12 12 22.7452 12 36V40.3636L78.1818 116Z" fill="#FF43F2"/>
<path d="M97 31H31V97H97V31Z" fill="black"/>
<path d="M39 39.8775H48.5158C50.8839 39.8775 53.0025 40.4131 54.8714 41.4843C56.7518 42.5556 58.2219 44.0438 59.2816 45.9481C60.3404 47.8409 60.8703 49.9834 60.8703 52.3755C60.8703 54.7676 60.3404 56.9167 59.2816 58.821C58.2219 60.7138 56.7518 62.1954 54.8714 63.2666C53.0025 64.3379 50.8839 64.8735 48.5158 64.8735H39V39.8775ZM48.4622 60.6593C49.9504 60.6593 51.2531 60.3265 52.3722 59.6598C53.4912 58.9922 54.354 58.0415 54.9613 56.8029C55.5687 55.5528 55.8719 54.078 55.8719 52.3755C55.8719 50.673 55.5687 49.2039 54.9613 47.9653C54.354 46.7152 53.4912 45.7578 52.3722 45.0911C51.2531 44.4235 49.9495 44.0916 48.4622 44.0916H43.8741V60.6603L48.4622 60.6593ZM75.8025 65.302C73.4104 65.302 71.244 64.7415 69.3033 63.6234C67.3637 62.4919 65.84 60.9453 64.7325 58.9817C63.6258 57.0066 63.072 54.8039 63.072 52.3755C63.072 49.947 63.6258 47.751 64.7325 45.7874C65.8391 43.8123 67.3627 42.2638 69.3033 41.1457C71.244 40.0143 73.4094 39.45 75.8025 39.45C77.7431 39.45 79.5278 39.7962 81.1586 40.4858C82.8008 41.1754 84.1819 42.1462 85.301 43.3963C86.4315 44.6464 87.2235 46.0858 87.6759 47.7166H82.4622C82.0816 46.9313 81.5641 46.2523 80.909 45.6813C80.2662 45.0988 79.5106 44.6521 78.6412 44.3422C77.7727 44.0208 76.8383 43.8602 75.8378 43.8602C74.362 43.8602 73.0287 44.2284 71.8389 44.9668C70.6491 45.7052 69.7146 46.7228 69.0355 48.0198C68.3689 49.3053 68.036 50.7581 68.036 52.3764C68.036 53.9948 68.3698 55.4543 69.0355 56.7503C69.7137 58.0358 70.6481 59.0467 71.8389 59.7851C73.0297 60.5235 74.362 60.8917 75.8378 60.8917C77.2065 60.8917 78.4442 60.6354 79.5518 60.1237C80.6708 59.613 81.5574 58.9033 82.2116 57.9994C82.8668 57.0956 83.2178 56.0779 83.2647 54.9464L83.2829 55.4639H77.4093V51.6256H87.9963V53.5892C87.9963 55.7919 87.4607 57.7852 86.3894 59.5699C85.3306 61.3441 83.8721 62.7415 82.0156 63.7659C80.1706 64.7903 78.0999 65.302 75.8025 65.302Z" fill="white"/>
<path d="M67 84H39V89H67V84Z" fill="white"/>
</g>
<defs>
<filter id="filter0_d_4372_11953" x="9.5" y="10.75" width="109" height="109" filterUnits="userSpaceOnUse" color-interpolation-filters="sRGB">
<feFlood flood-opacity="0" result="BackgroundImageFix"/>
<feColorMatrix in="SourceAlpha" type="matrix" values="0 0 0 0 0 0 0 0 0 0 0 0 0 0 0 0 0 0 127 0" result="hardAlpha"/>
<feOffset dy="1.25"/>
<feGaussianBlur stdDeviation="1.25"/>
<feColorMatrix type="matrix" values="0 0 0 0 0 0 0 0 0 0 0 0 0 0 0 0 0 0 0.3 0"/>
<feBlend mode="normal" in2="BackgroundImageFix" result="effect1_dropShadow_4372_11953"/>
<feBlend mode="normal" in="SourceGraphic" in2="effect1_dropShadow_4372_11953" result="shape"/>
</filter>
<linearGradient id="paint0_linear_4372_11953" x1="78.1818" y1="13.6933" x2="78.1818" y2="66.6331" gradientUnits="userSpaceOnUse">
<stop  offset="0" stop-color="#7256FF"/>
<stop offset="1" stop-color="#FF43F2"/>
</linearGradient>
</defs>
</svg>
