<!-- Copyright © 2000–2024 JetBrains s.r.o. -->
<svg width="512" height="512" viewBox="0 0 512 512" xmlns="http://www.w3.org/2000/svg">
  <g filter="url(#a)">
    <mask id="b" width="412" height="412" x="50" y="50" maskUnits="userSpaceOnUse" style="mask-type:luminance">
      <path fill="#fff" d="M152.537 50C86.695 50 50 86.695 50 152.537v206.926C50 425.321 86.695 462 152.537 462h206.926C425.321 462 462 425.305 462 359.463V152.537C462 86.679 425.305 50 359.463 50z"/>
    </mask>
    <g mask="url(#b)">
      <path fill="#6B57FF" d="M462.017 294.635H212.554v167.381h249.463z"/>
      <path fill="url(#c)" d="M226.571 50H50v412.016h176.571z"/>
      <path fill="url(#d)" d="M50 400.89v61.126h186.663l225.353-148.149V50H198.165z"/>
    </g>
    <path d="M384.76 127.253H127.25v257.51h257.51z"/>
    <path fill="#fff" fill-rule="evenodd" d="M159.38 159.377h36.759c9.206 0 17.382 2.109 24.657 6.245s12.908 9.834 16.996 17.189 6.116 15.644 6.116 24.914-2.044 17.527-6.116 24.85-9.77 13.101-16.996 17.253-15.451 6.18-24.657 6.18H159.38zm51.695 76.481c4.313-2.575 7.629-6.261 9.979-11.073s3.54-10.494 3.54-17.06c0-6.567-1.175-12.296-3.54-17.124-2.366-4.829-5.666-8.498-9.979-11.073s-9.399-3.863-15.129-3.863h-17.704v64.056h17.704c5.73 0 10.816-1.288 15.129-3.863"/>
    <path fill="#fff" d="M262.384 333.261H159.38v19.313h103.004zm65.537-173.884H250.41v16.996h29.356v79.635h18.863v-79.635h29.292z"/>
  </g>
  <defs>
    <linearGradient id="c" x1="51.545" x2="233.234" y1="49.276" y2="441.238" gradientUnits="userSpaceOnUse">
      <stop offset=".18" stop-color="#6B57FF"/>
      <stop offset=".54" stop-color="#FF2358"/>
    </linearGradient>
    <linearGradient id="d" x1="49.984" x2="462.032" y1="462" y2="50" gradientUnits="userSpaceOnUse">
      <stop offset=".12" stop-color="#FF2358"/>
      <stop offset=".92" stop-color="#FF45ED"/>
    </linearGradient>
    <filter id="a" width="438" height="438" x="37" y="42" color-interpolation-filters="sRGB" filterUnits="userSpaceOnUse">
      <feFlood flood-opacity="0" result="BackgroundImageFix"/>
      <feColorMatrix in="SourceAlpha" result="hardAlpha" values="0 0 0 0 0 0 0 0 0 0 0 0 0 0 0 0 0 0 127 0"/>
      <feOffset dy="5"/>
      <feGaussianBlur stdDeviation="6.5"/>
      <feComposite in2="hardAlpha" operator="out"/>
      <feColorMatrix values="0 0 0 0 0 0 0 0 0 0 0 0 0 0 0 0 0 0 0.35 0"/>
      <feBlend in2="BackgroundImageFix" result="effect1_dropShadow_33_2902"/>
      <feBlend in="SourceGraphic" in2="effect1_dropShadow_33_2902" result="shape"/>
    </filter>
  </defs>
</svg>
