<!-- Copyright © 2000–2024 JetBrains s.r.o. -->
<svg width="256" height="256" viewBox="0 0 256 256" xmlns="http://www.w3.org/2000/svg">
  <g filter="url(#a)">
    <mask id="b" width="206" height="206" x="25" y="25" maskUnits="userSpaceOnUse" style="mask-type:luminance">
      <path fill="#fff" d="M76.269 25C43.348 25 25 43.348 25 76.269V179.73C25 212.66 43.348 231 76.269 231H179.73c32.93 0 51.27-18.348 51.27-51.269V76.269C231 43.339 212.652 25 179.731 25z"/>
    </mask>
    <g mask="url(#b)">
      <path fill="#6B57FF" d="M231.008 147.317H106.277v83.691h124.731z"/>
      <path fill="url(#c)" d="M113.286 25H25v206.008h88.286z"/>
      <path fill="url(#d)" d="M25 200.445v30.563h93.331l112.677-74.074V25H99.082z"/>
    </g>
    <path d="M192.38 63.627H63.625V192.38H192.38z"/>
    <path fill="#fff" fill-rule="evenodd" d="M79.69 79.689h18.38c4.603 0 8.691 1.054 12.328 3.122s6.454 4.917 8.498 8.594c2.044 3.678 3.058 7.822 3.058 12.457s-1.022 8.764-3.058 12.425-4.885 6.551-8.498 8.627-7.725 3.09-12.328 3.09H79.69zm25.848 38.24c2.156-1.288 3.814-3.13 4.989-5.537s1.77-5.246 1.77-8.53-.587-6.148-1.77-8.562-2.833-4.249-4.989-5.536c-2.157-1.288-4.7-1.931-7.565-1.931h-8.852v32.027h8.852c2.865 0 5.408-.643 7.565-1.931"/>
    <path fill="#fff" d="M131.192 166.631H79.69v9.656h51.502zm32.768-86.942h-38.755v8.498h14.678v39.817h9.431V88.187h14.646z"/>
  </g>
  <defs>
    <linearGradient id="c" x1="25.773" x2="116.617" y1="24.638" y2="220.619" gradientUnits="userSpaceOnUse">
      <stop offset=".18" stop-color="#6B57FF"/>
      <stop offset=".54" stop-color="#FF2358"/>
    </linearGradient>
    <linearGradient id="d" x1="24.992" x2="231.016" y1="231" y2="25" gradientUnits="userSpaceOnUse">
      <stop offset=".12" stop-color="#FF2358"/>
      <stop offset=".92" stop-color="#FF45ED"/>
    </linearGradient>
    <filter id="a" width="219" height="219" x="18.5" y="21" color-interpolation-filters="sRGB" filterUnits="userSpaceOnUse">
      <feFlood flood-opacity="0" result="BackgroundImageFix"/>
      <feColorMatrix in="SourceAlpha" result="hardAlpha" values="0 0 0 0 0 0 0 0 0 0 0 0 0 0 0 0 0 0 127 0"/>
      <feOffset dy="2.5"/>
      <feGaussianBlur stdDeviation="3.25"/>
      <feComposite in2="hardAlpha" operator="out"/>
      <feColorMatrix values="0 0 0 0 0 0 0 0 0 0 0 0 0 0 0 0 0 0 0.35 0"/>
      <feBlend in2="BackgroundImageFix" result="effect1_dropShadow_33_2903"/>
      <feBlend in="SourceGraphic" in2="effect1_dropShadow_33_2903" result="shape"/>
    </filter>
  </defs>
</svg>
