<svg width="16" height="16" viewBox="0 0 16 16" fill="none" xmlns="http://www.w3.org/2000/svg">
<rect x="2.5" y="3.5" width="9" height="10" rx="1.5" stroke="#CED0D6"/>
<rect x="5" y="6" width="4" height="1" rx="0.5" fill="#CED0D6"/>
<rect x="5" y="8" width="4" height="1" rx="0.5" fill="#CED0D6"/>
<rect x="5" y="10" width="4" height="1" rx="0.5" fill="#CED0D6"/>
<path d="M11.5996 1C12.9251 1 14 2.07491 14 3.40039V9.59961C14 10.4008 13.6054 11.1079 13.002 11.5439V4C13.002 3.98759 13.0002 3.97524 13 3.96289V3.40039C13 2.62719 12.3728 2 11.5996 2H4.45312C4.84384 1.45772 5.45371 1.08395 6.1543 1.0127L6.40039 1H11.5996Z" fill="#CED0D6"/>
</svg>
