<svg width="16" height="16" viewBox="0 0 16 16" fill="none" xmlns="http://www.w3.org/2000/svg">
<path d="M10.8535 7.64648C11.0487 7.84173 11.0487 8.15827 10.8535 8.35352L8.35352 10.8535C8.15827 11.0487 7.84174 11.0487 7.64648 10.8535L5.14648 8.35352C4.95122 8.15825 4.95122 7.84175 5.14648 7.64648C5.34175 7.45129 5.65827 7.45125 5.85352 7.64648L7.5 9.29297L7.5 2.5C7.5 2.22386 7.72386 2 8 2C8.27614 2 8.5 2.22386 8.5 2.5L8.5 9.29297L10.1465 7.64648C10.3417 7.45134 10.6583 7.45138 10.8535 7.64648Z" fill="#CED0D6"/>
<rect width="12" height="1" rx="0.5" transform="matrix(1 0 0 -1 2 14)" fill="#CED0D6"/>
<rect x="2" y="10" width="1" height="4" rx="0.5" fill="#CED0D6"/>
<rect x="13" y="10" width="1" height="4" rx="0.5" fill="#CED0D6"/>
</svg>
