<svg width="16" height="16" viewBox="0 0 16 16" fill="none" xmlns="http://www.w3.org/2000/svg">
<path d="M3.14648 9.14648C2.95122 9.34175 2.95123 9.65825 3.14648 9.85352L7.14648 13.8535C7.24025 13.9473 7.36739 14 7.5 14C7.63261 14 7.75975 13.9473 7.85352 13.8535L11.8535 9.85352C12.0488 9.65825 12.0488 9.34175 11.8535 9.14648C11.6583 8.95123 11.3417 8.95123 11.1465 9.14648L8 12.293L8 2.5C8 2.22386 7.77614 2 7.5 2C7.22386 2 7 2.22386 7 2.5L7 12.293L3.85352 9.14648C3.65825 8.95123 3.34175 8.95123 3.14648 9.14648Z" fill="#CED0D6"/>
</svg>
