<svg width="16" height="16" viewBox="0 0 16 16" fill="none" xmlns="http://www.w3.org/2000/svg">
<path d="M13.5 2C13.5327 2 13.5655 2.00242 13.5977 2.00879C13.6488 2.01889 13.696 2.03909 13.7402 2.06348C13.7806 2.08569 13.8193 2.1123 13.8535 2.14648C13.8874 2.18034 13.9134 2.21891 13.9355 2.25879C13.9601 2.30299 13.98 2.35024 13.9902 2.40137C13.9967 2.43389 14 2.46695 14 2.5V6.5C14 6.77614 13.7761 7 13.5 7C13.2239 7 13 6.77614 13 6.5V3.70703L7.85352 8.85352C7.65825 9.04878 7.34175 9.04878 7.14648 8.85352C6.95122 8.65825 6.95122 8.34175 7.14648 8.14648L12.293 3H9.5C9.22386 3 9 2.77614 9 2.5C9 2.22386 9.22386 2 9.5 2H13.5Z" fill="#CED0D6"/>
<path d="M2.5 4.5V12C2.5 12.8284 3.17157 13.5 4 13.5H11.5" stroke="#CED0D6" stroke-linecap="round"/>
</svg>
