<svg width="16" height="16" viewBox="0 0 16 16" fill="none" xmlns="http://www.w3.org/2000/svg">
<path d="M7.5 9C7.46733 9 7.43451 8.99758 7.40234 8.99121C7.35125 8.98111 7.30398 8.96091 7.25977 8.93652C7.21945 8.91431 7.18067 8.8877 7.14648 8.85352C7.11263 8.81966 7.08657 8.78109 7.06445 8.74121C7.03992 8.69701 7.02 8.64976 7.00977 8.59863C7.00325 8.56611 7 8.53305 7 8.5V4.5C7 4.22386 7.22386 4 7.5 4C7.77614 4 8 4.22386 8 4.5V7.29297L13.1465 2.14648C13.3417 1.95122 13.6583 1.95122 13.8535 2.14648C14.0488 2.34175 14.0488 2.65825 13.8535 2.85352L8.70703 8H11.5C11.7761 8 12 8.22386 12 8.5C12 8.77614 11.7761 9 11.5 9H7.5Z" fill="#CED0D6"/>
<path d="M2.5 4.5V12C2.5 12.8284 3.17157 13.5 4 13.5H11.5" stroke="#CED0D6" stroke-linecap="round"/>
</svg>
