<svg width="16" height="16" viewBox="0 0 16 16" fill="none" xmlns="http://www.w3.org/2000/svg">
<path d="M6.85352 3.14648C6.65825 2.95122 6.34175 2.95122 6.14648 3.14648L2.14648 7.14648C2.05272 7.24025 2 7.36739 2 7.5C2 7.63261 2.05272 7.75975 2.14648 7.85351L6.14648 11.8535C6.34175 12.0488 6.65825 12.0488 6.85351 11.8535C7.04878 11.6583 7.04878 11.3417 6.85351 11.1465L3.70703 8L13.5039 8C13.78 8 14.0039 7.77614 14.0039 7.5C14.0039 7.22386 13.78 7 13.5039 7L3.70703 7L6.85352 3.85351C7.04878 3.65825 7.04878 3.34175 6.85352 3.14648Z" fill="#CED0D6"/>
</svg>
