<svg width="16" height="16" viewBox="0 0 16 16" fill="none" xmlns="http://www.w3.org/2000/svg">
<path d="M7 4H3C2.44772 4 2 4.44772 2 5V11C2 11.5523 2.44772 12 3 12H11C11.5523 12 12 11.5523 12 11V9H13V11C13 12.1046 12.1046 13 11 13H3C1.89543 13 1 12.1046 1 11V5C1 3.96435 1.78722 3.113 2.7959 3.01074L3 3H7V4Z" fill="#CED0D6"/>
<path d="M12.5 0C12.7761 0 13 0.223858 13 0.5V3H15.5C15.7761 3 16 3.22386 16 3.5C16 3.77614 15.7761 4 15.5 4H13V6.5C13 6.77614 12.7761 7 12.5 7C12.2239 7 12 6.77614 12 6.5V4H9.5C9.22386 4 9 3.77614 9 3.5C9 3.22386 9.22386 3 9.5 3H12V0.5C12 0.223858 12.2239 0 12.5 0Z" fill="#CED0D6"/>
</svg>
