<svg width="16" height="16" viewBox="0 0 16 16" fill="none" xmlns="http://www.w3.org/2000/svg">
<path d="M12 13C12.5523 13 13 12.5523 13 12L13 7L3 7L3 12C3 12.5523 3.44774 13 4 13L12 13ZM13 4C13 3.44772 12.5523 3 12 3L4 3C3.44774 3.00003 3 3.44774 3 4L3 6L13 6L13 4ZM4 14L3.7959 13.9893C2.85438 13.8938 2.1062 13.1456 2.01074 12.2041L2 12L2 4C2 2.89545 2.89546 2.00003 4 2L12 2C13.1046 2 14 2.89543 14 4L14 12L13.9893 12.2041C13.8938 13.1457 13.1457 13.8938 12.2041 13.9893L12 14L4 14Z" fill="#CED0D6"/>
<rect x="5" y="8.5" width="6" height="1" rx="0.5" fill="#CED0D6"/>
<rect x="5" y="10.5" width="6" height="1" rx="0.5" fill="#CED0D6"/>
</svg>
