<svg width="16" height="16" viewBox="0 0 16 16" fill="none" xmlns="http://www.w3.org/2000/svg">
<path d="M9.14648 11.8535C9.34171 12.0487 9.65825 12.0487 9.85352 11.8535L13.8535 7.85352C13.9473 7.75975 14 7.63261 14 7.5C14 7.36739 13.9473 7.24025 13.8535 7.14648L9.85352 3.14648C9.65825 2.95132 9.34171 2.95125 9.14648 3.14648C8.95135 3.34172 8.95135 3.65828 9.14648 3.85352L12.293 7L2.49609 7C2.21995 7 1.99609 7.22386 1.99609 7.5C1.99609 7.77614 2.21995 8 2.49609 8L12.293 8L9.14648 11.1465C8.95135 11.3417 8.95135 11.6583 9.14648 11.8535Z" fill="#CED0D6"/>
</svg>
