<svg width="16" height="16" viewBox="0 0 16 16" fill="none" xmlns="http://www.w3.org/2000/svg">
<path d="M1.5 3.5H5.5M1.5 8H5.5M1.5 12.5H14.5" stroke="#CED0D6" stroke-linecap="round" stroke-linejoin="round"/>
<path d="M8.14648 7.14648C7.95126 7.34174 7.95126 7.65826 8.14648 7.85352L11.1465 10.8535C11.3417 11.0487 11.6583 11.0487 11.8535 10.8535L14.8535 7.85352C15.0488 7.65826 15.0488 7.34174 14.8535 7.14648C14.6583 6.95126 14.3417 6.95125 14.1465 7.14648L12 9.29297L12 3.5C12 3.22388 11.7761 3.00003 11.5 3C11.2239 3.00003 11 3.22388 11 3.5L11 9.29297L8.85352 7.14648C8.65826 6.95126 8.34174 6.95125 8.14648 7.14648Z" fill="#CED0D6"/>
</svg>
