<svg width="16" height="16" viewBox="0 0 16 16" fill="none" xmlns="http://www.w3.org/2000/svg">
<path d="M8.93359 2.49023H10.9229C10.9453 2.4903 10.967 2.4992 10.9824 2.51562L11.9092 3.50586L12.0547 3.66016H14C14.2818 3.66016 14.5098 3.88912 14.5098 4.1709V6.90723C14.5098 7.31545 14.2418 7.50977 14.0664 7.50977H8.93359C8.75821 7.50977 8.49023 7.31545 8.49023 6.90723V3.09277C8.49023 2.68455 8.75821 2.49023 8.93359 2.49023Z" stroke="#CED0D6" stroke-width="0.979592"/>
<path d="M8.93359 10.4902H10.9229C10.9453 10.4903 10.967 10.4992 10.9824 10.5156L11.9092 11.5059L12.0547 11.6602H14C14.2818 11.6602 14.5098 11.8891 14.5098 12.1709V14.9072C14.5098 15.3155 14.2418 15.5098 14.0664 15.5098H8.93359C8.75821 15.5098 8.49023 15.3155 8.49023 14.9072V11.0928C8.49023 10.6845 8.75821 10.4902 8.93359 10.4902Z" stroke="#CED0D6" stroke-width="0.979592"/>
<path d="M1.5 1.5V4.5M1.5 4.5H6.5M1.5 4.5V12C1.5 12.2761 1.72386 12.5 2 12.5H6.5" stroke="#CED0D6" stroke-linecap="round"/>
</svg>
