<svg width="16" height="16" viewBox="0 0 16 16" fill="none" xmlns="http://www.w3.org/2000/svg">
<path d="M1.14648 10.1465C0.951226 10.3417 0.951226 10.6583 1.14648 10.8535L4.14648 13.8535C4.34175 14.0488 4.65825 14.0488 4.85352 13.8535L7.85352 10.8535C8.04878 10.6583 8.04878 10.3417 7.85352 10.1465C7.65825 9.95123 7.34175 9.95122 7.14648 10.1465L5 12.293L5 2.5C5 2.22386 4.77614 2 4.5 2C4.22386 2 4 2.22386 4 2.5L4 12.293L1.85352 10.1465C1.65825 9.95123 1.34175 9.95122 1.14648 10.1465Z" fill="#CED0D6"/>
<path d="M11 2.5H14C14.2761 2.5 14.5 2.72386 14.5 3V5C14.5 5.27614 14.2761 5.5 14 5.5H11C10.7239 5.5 10.5 5.27614 10.5 5V3C10.5 2.72386 10.7239 2.5 11 2.5Z" stroke="#CED0D6"/>
<path d="M11 7.5H14C14.2761 7.5 14.5 7.72386 14.5 8V10C14.5 10.2761 14.2761 10.5 14 10.5H11C10.7239 10.5 10.5 10.2761 10.5 10V8C10.5 7.72386 10.7239 7.5 11 7.5Z" stroke="#CED0D6"/>
</svg>
