<svg width="16" height="16" viewBox="0 0 16 16" fill="none" xmlns="http://www.w3.org/2000/svg">
<path d="M1.14648 10.1465C0.951226 10.3417 0.951226 10.6583 1.14648 10.8535L4.14648 13.8535C4.34175 14.0488 4.65825 14.0488 4.85352 13.8535L7.85352 10.8535C8.04878 10.6583 8.04878 10.3417 7.85352 10.1465C7.65825 9.95123 7.34175 9.95122 7.14648 10.1465L5 12.293L5 2.5C5 2.22386 4.77614 2 4.5 2C4.22386 2 4 2.22386 4 2.5L4 12.293L1.85352 10.1465C1.65825 9.95123 1.34175 9.95122 1.14648 10.1465Z" fill="#CED0D6"/>
<rect x="10" y="6" width="4" height="3" fill="#43454A"/>
<path fill-rule="evenodd" clip-rule="evenodd" d="M14 5V4C14 2.89543 13.1046 2 12 2C10.8954 2 10 2.89543 10 4V5C9.44772 5 9 5.44772 9 6V9C9 9.55228 9.44772 10 10 10H14C14.5523 10 15 9.55228 15 9V6C15 5.44772 14.5523 5 14 5ZM11 4C11 3.44772 11.4477 3 12 3C12.5523 3 13 3.44772 13 4V5H11V4ZM10 9L10 6H14V9H10Z" fill="#CED0D6"/>
</svg>
