<svg width="16" height="16" viewBox="0 0 16 16" fill="none" xmlns="http://www.w3.org/2000/svg">
<path d="M13.3858 2.12H14.5858L9.52578 9.12H8.32578L13.3858 2.12ZM9.65078 5.4C9.31744 5.4 9.01911 5.32833 8.75578 5.185C8.49578 5.04167 8.29244 4.84167 8.14578 4.585C7.99911 4.325 7.92578 4.03 7.92578 3.7C7.92578 3.37 7.99911 3.07667 8.14578 2.82C8.29244 2.56 8.49578 2.35833 8.75578 2.215C9.01911 2.07167 9.31744 2 9.65078 2C9.99078 2 10.2908 2.07167 10.5508 2.215C10.8141 2.35833 11.0191 2.56 11.1658 2.82C11.3158 3.07667 11.3908 3.37 11.3908 3.7C11.3908 4.03 11.3158 4.325 11.1658 4.585C11.0191 4.84167 10.8141 5.04167 10.5508 5.185C10.2908 5.32833 9.99078 5.4 9.65078 5.4ZM9.65578 4.515C9.80244 4.515 9.93411 4.48167 10.0508 4.415C10.1674 4.345 10.2574 4.24833 10.3208 4.125C10.3841 4.00167 10.4158 3.86 10.4158 3.7C10.4158 3.54 10.3841 3.39833 10.3208 3.275C10.2574 3.15167 10.1674 3.05667 10.0508 2.99C9.93411 2.92 9.80244 2.885 9.65578 2.885C9.50911 2.885 9.37744 2.92 9.26078 2.99C9.14744 3.05667 9.05911 3.15167 8.99578 3.275C8.93244 3.39833 8.90078 3.54 8.90078 3.7C8.90078 3.86 8.93244 4.00167 8.99578 4.125C9.05911 4.24833 9.14744 4.345 9.26078 4.415C9.37744 4.48167 9.50911 4.515 9.65578 4.515ZM13.2608 9.24C12.9241 9.24 12.6258 9.16833 12.3658 9.025C12.1058 8.88167 11.9008 8.68167 11.7508 8.425C11.6041 8.165 11.5308 7.87 11.5308 7.54C11.5308 7.21 11.6041 6.91667 11.7508 6.66C11.9008 6.4 12.1058 6.19833 12.3658 6.055C12.6258 5.91167 12.9241 5.84 13.2608 5.84C13.5974 5.84 13.8974 5.91167 14.1608 6.055C14.4274 6.19833 14.6341 6.4 14.7808 6.66C14.9274 6.91667 15.0008 7.21 15.0008 7.54C15.0008 7.87 14.9274 8.165 14.7808 8.425C14.6341 8.68167 14.4274 8.88167 14.1608 9.025C13.8974 9.16833 13.5974 9.24 13.2608 9.24ZM13.2608 8.355C13.4108 8.355 13.5441 8.32167 13.6608 8.255C13.7774 8.185 13.8674 8.08833 13.9308 7.965C13.9974 7.84167 14.0308 7.7 14.0308 7.54C14.0308 7.38333 13.9974 7.24333 13.9308 7.12C13.8674 6.99333 13.7774 6.89667 13.6608 6.83C13.5441 6.76 13.4108 6.725 13.2608 6.725C13.1141 6.725 12.9824 6.76 12.8658 6.83C12.7524 6.89667 12.6641 6.99333 12.6008 7.12C12.5374 7.24333 12.5058 7.38333 12.5058 7.54C12.5058 7.7 12.5374 7.84167 12.6008 7.965C12.6641 8.08833 12.7524 8.185 12.8658 8.255C12.9824 8.32167 13.1141 8.355 13.2608 8.355Z" fill="#CED0D6"/>
<path d="M1.14648 10.1465C0.951226 10.3417 0.951226 10.6583 1.14648 10.8535L4.14648 13.8535C4.34175 14.0488 4.65825 14.0488 4.85352 13.8535L7.85352 10.8535C8.04878 10.6583 8.04878 10.3417 7.85352 10.1465C7.65825 9.95123 7.34175 9.95122 7.14648 10.1465L5 12.293L5 2.5C5 2.22386 4.77614 2 4.5 2C4.22386 2 4 2.22386 4 2.5L4 12.293L1.85352 10.1465C1.65825 9.95123 1.34175 9.95122 1.14648 10.1465Z" fill="#CED0D6"/>
</svg>
