<svg width="16" height="16" viewBox="0 0 16 16" fill="none" xmlns="http://www.w3.org/2000/svg">
<path d="M11.8535 6.85352C12.0488 6.65826 12.0488 6.34175 11.8535 6.14648L7.85352 2.14648C7.75975 2.05272 7.63261 2 7.5 2C7.36739 2 7.24025 2.05272 7.14648 2.14648L3.14648 6.14648C2.95123 6.34175 2.95122 6.65826 3.14648 6.85352C3.34175 7.04877 3.65825 7.04877 3.85352 6.85352L7 3.70703L7 13.5C7 13.7761 7.22386 14 7.5 14C7.77614 14 8 13.7761 8 13.5L8 3.70703L11.1465 6.85352C11.3417 7.04877 11.6583 7.04877 11.8535 6.85352Z" fill="#CED0D6"/>
</svg>
