<svg width="16" height="16" viewBox="0 0 16 16" fill="none" xmlns="http://www.w3.org/2000/svg">
<path d="M10.8535 5.354C11.0487 5.15881 11.0486 4.84225 10.8535 4.64697L8.35352 2.146C8.15827 1.95114 7.84164 1.951 7.64648 2.146L5.14648 4.646C4.95134 4.84114 4.95157 5.15774 5.14648 5.35303C5.34175 5.54823 5.65827 5.54827 5.85352 5.35303L7.5 3.70654L7.5 10.5142C7.5 10.7903 7.72386 11.0142 8 11.0142C8.27611 11.0141 8.5 10.7903 8.5 10.5142L8.5 3.70654L10.1465 5.35303C10.3416 5.54808 10.6582 5.54883 10.8535 5.354Z" fill="#CED0D6"/>
<rect width="12" height="1" rx="0.5" transform="matrix(1 0 0 -1 2 14)" fill="#CED0D6"/>
<rect x="2" y="10" width="1" height="4" rx="0.5" fill="#CED0D6"/>
<rect x="13" y="10" width="1" height="4" rx="0.5" fill="#CED0D6"/>
</svg>
