<svg width="32" height="32" viewBox="0 0 32 32" fill="none" xmlns="http://www.w3.org/2000/svg">
<path d="M2 19.8182V24C2 27.3137 4.68629 30 8 30H19.8182V19.8182H2Z" fill="url(#paint0_linear_4372_11293)"/>
<path d="M19.8184 2.00022V17.2729H30.0002V8.00022C30.0002 4.68651 27.3139 2.00022 24.0002 2.00022H19.8184Z" fill="#00D886"/>
<path d="M8.00025 2.00026C4.68644 2.00012 2 4.68645 2 8.00026V19.8179L19.8182 30H24C27.3137 30 30 27.3137 30 24V17.2727L19.8072 2.00076L8.00025 2.00026Z" fill="url(#paint1_linear_4372_11293)"/>
<path d="M24.909 7.09082H7.09082V24.909H24.909V7.09082Z" fill="black"/>
<path d="M9.00293 9.02427H11.9774C12.4624 9.02427 12.8897 9.11336 13.2593 9.29153C13.6289 9.46969 13.9126 9.72024 14.1107 10.0437C14.3119 10.3672 14.4126 10.7415 14.4126 11.1671C14.4126 11.5926 14.3103 11.9786 14.1059 12.3053C13.9047 12.6319 13.6159 12.8862 13.2397 13.0675C12.8669 13.2457 12.4329 13.3348 11.9382 13.3348H10.3546V15.9529H9.00346V9.02427H9.00293ZM11.8881 12.2117C12.1158 12.2117 12.3136 12.1703 12.482 12.0879C12.6535 12.002 12.7855 11.8818 12.8778 11.7265C12.9701 11.5682 13.0165 11.385 13.0165 11.1771C13.0165 10.9693 12.9703 10.7842 12.8778 10.6328C12.7853 10.4775 12.6535 10.3587 12.482 10.2765C12.3136 10.1906 12.1158 10.1479 11.8881 10.1479H10.3538V12.2117H11.8881ZM18.3252 16.072C17.6621 16.072 17.0616 15.9166 16.5236 15.6067C15.9857 15.293 15.5636 14.8643 15.2566 14.32C14.9498 13.7725 14.7963 13.1619 14.7963 12.4887C14.7963 11.8156 14.9498 11.2068 15.2566 10.6625C15.5633 10.115 15.9857 9.68578 16.5236 9.37584C17.0613 9.06219 17.6618 8.90576 18.3252 8.90576C18.8859 8.90576 19.4008 9.00969 19.8693 9.21756C20.3378 9.42542 20.727 9.71733 21.0372 10.0935C21.3506 10.4666 21.56 10.8953 21.6658 11.3802H20.2503C20.1578 11.1297 20.0194 10.9101 19.8346 10.7219C19.653 10.5307 19.4337 10.3836 19.1762 10.2815C18.9188 10.1794 18.6383 10.128 18.335 10.128C17.9259 10.128 17.5563 10.2301 17.2265 10.4348C16.8964 10.6394 16.6376 10.9215 16.4494 11.2811C16.2646 11.6374 16.1723 12.0401 16.1723 12.4887C16.1723 12.9373 16.2646 13.3419 16.4494 13.7012C16.6374 14.0575 16.8964 14.3378 17.2265 14.5424C17.5563 14.7471 17.9259 14.8492 18.335 14.8492C18.6386 14.8492 18.9191 14.7978 19.1762 14.6957C19.4334 14.5936 19.653 14.4483 19.8346 14.2601C20.0194 14.0689 20.1578 13.8475 20.2503 13.597H21.6658C21.5603 14.0819 21.3506 14.5125 21.0372 14.8887C20.727 15.2617 20.3378 15.5518 19.8693 15.7596C19.4008 15.9675 18.8859 16.0714 18.3252 16.0714V16.072Z" fill="white"/>
<path d="M16 22H9V23H16V22Z" fill="white"/>
<defs>
<linearGradient id="paint0_linear_4372_11293" x1="2.71756" y1="24.9091" x2="19.6084" y2="24.9091" gradientUnits="userSpaceOnUse">
<stop  offset="0" stop-color="#00D886"/>
<stop offset="1" stop-color="#F0EB18"/>
</linearGradient>
<linearGradient id="paint1_linear_4372_11293" x1="29.1615" y1="29.1671" x2="3.03066" y2="3.03626" gradientUnits="userSpaceOnUse">
<stop offset="0.3" stop-color="#F0EB18"/>
<stop offset="0.7" stop-color="#00C4F4"/>
</linearGradient>
</defs>
</svg>
