<svg width="1024" height="1024" viewBox="0 0 1024 1024" fill="none" xmlns="http://www.w3.org/2000/svg">
<g filter="url(#filter0_d_6180_42102)">
<path d="M100 624.364V732C100 838.039 185.961 924 292 924H624.364V624.364H100Z" fill="url(#paint0_linear_6180_42102)"/>
<path d="M624.364 100V549.455H924V292C924 185.961 838.039 100 732 100H624.364Z" fill="#00D886"/>
<path d="M292.008 100.008C185.966 100.004 100 185.966 100 292.008V624.356L624.364 924H732C838.039 924 924 838.039 924 732V549.455L624.042 100.022L292.008 100.008Z" fill="url(#paint1_linear_6180_42102)"/>
<path d="M776 248H248V776H776V248Z" fill="black"/>
<path d="M321.064 319.973H405.208C418.926 319.973 431.016 322.493 441.471 327.533C451.926 332.573 459.951 339.661 465.554 348.811C471.246 357.961 474.096 368.551 474.096 380.589C474.096 392.627 471.201 403.547 465.419 412.787C459.726 422.027 451.559 429.219 440.916 434.35C430.371 439.39 418.093 441.91 404.098 441.91H359.3V515.973H321.079V319.973H321.064ZM402.68 410.139C409.123 410.139 414.718 408.969 419.481 406.637C424.333 404.207 428.068 400.809 430.678 396.414C433.288 391.937 434.601 386.754 434.601 380.874C434.601 374.994 433.296 369.759 430.678 365.476C428.061 361.081 424.333 357.721 419.481 355.396C414.718 352.966 409.123 351.759 402.68 351.759H359.277V410.139H402.68ZM584.775 519.341C566.017 519.341 549.03 514.946 533.812 506.178C518.594 497.305 506.654 485.178 497.969 469.78C489.292 454.292 484.949 437.02 484.949 417.977C484.949 398.934 489.292 381.714 497.969 366.316C506.647 350.829 518.594 338.686 533.812 329.918C549.022 321.046 566.01 316.621 584.775 316.621C600.638 316.621 615.203 319.561 628.456 325.441C641.708 331.321 652.719 339.578 661.494 350.221C670.359 360.774 676.284 372.901 679.276 386.619H639.233C636.616 379.531 632.701 373.321 627.473 367.996C622.336 362.589 616.133 358.426 608.85 355.539C601.568 352.651 593.633 351.196 585.053 351.196C573.48 351.196 563.025 354.084 553.695 359.874C544.357 365.664 537.037 373.644 531.712 383.814C526.484 393.894 523.874 405.287 523.874 417.977C523.874 430.667 526.484 442.112 531.712 452.275C537.03 462.355 544.357 470.282 553.695 476.073C563.025 481.863 573.48 484.75 585.053 484.75C593.64 484.75 601.575 483.295 608.85 480.408C616.126 477.52 622.336 473.41 627.473 468.085C632.701 462.677 636.616 456.415 639.233 449.327H679.276C676.291 463.045 670.359 475.225 661.494 485.868C652.719 496.42 641.708 504.625 628.456 510.505C615.203 516.386 600.638 519.326 584.775 519.326V519.341Z" fill="white"/>
<path d="M530 670H320V704H530V670Z" fill="white"/>
</g>
<defs>
<filter id="filter0_d_6180_42102" x="80" y="90" width="864" height="864" filterUnits="userSpaceOnUse" color-interpolation-filters="sRGB">
<feFlood flood-opacity="0" result="BackgroundImageFix"/>
<feColorMatrix in="SourceAlpha" type="matrix" values="0 0 0 0 0 0 0 0 0 0 0 0 0 0 0 0 0 0 127 0" result="hardAlpha"/>
<feOffset dy="10"/>
<feGaussianBlur stdDeviation="10"/>
<feColorMatrix type="matrix" values="0 0 0 0 0 0 0 0 0 0 0 0 0 0 0 0 0 0 0.3 0"/>
<feBlend mode="normal" in2="BackgroundImageFix" result="effect1_dropShadow_6180_42102"/>
<feBlend mode="normal" in="SourceGraphic" in2="effect1_dropShadow_6180_42102" result="shape"/>
</filter>
<linearGradient id="paint0_linear_6180_42102" x1="121.117" y1="774.182" x2="618.191" y2="774.182" gradientUnits="userSpaceOnUse">
<stop  offset="0" stop-color="#00D886"/>
<stop offset="1" stop-color="#F0EB18"/>
</linearGradient>
<linearGradient id="paint1_linear_6180_42102" x1="899.325" y1="899.49" x2="130.331" y2="130.496" gradientUnits="userSpaceOnUse">
<stop offset="0.3" stop-color="#F0EB18"/>
<stop offset="0.7" stop-color="#00C4F4"/>
</linearGradient>
</defs>
</svg>
