<svg width="64" height="64" viewBox="0 0 64 64" fill="none" xmlns="http://www.w3.org/2000/svg">
<g filter="url(#filter0_d_6179_27261)">
<path d="M6 39.0909V46C6 52.6274 11.3726 58 18 58H39.0909V39.0909H6Z" fill="url(#paint0_linear_6179_27261)"/>
<path d="M39.0908 6.00013V34.3638H57.9999V18.0001C57.9999 11.3727 52.6273 6.00013 45.9999 6.00013H39.0908Z" fill="#00D886"/>
<path d="M18.0005 6.00051C11.3729 6.00023 6 11.3729 6 18.0005V39.0904L39.0909 58H46C52.6274 58 58 52.6274 58 46V34.3636L39.0706 6.00142L18.0005 6.00051Z" fill="url(#paint1_linear_6179_27261)"/>
<path d="M49 15H15V49H49V15Z" fill="black"/>
<path d="M34 41.5H20V44H34V41.5Z" fill="white"/>
<path d="M20 19.9838H25.3648C26.2394 19.9838 27.0103 20.1444 27.6769 20.4658C28.3435 20.7871 28.8551 21.239 29.2123 21.8224C29.5753 22.4058 29.757 23.081 29.757 23.8485C29.757 24.616 29.5724 25.3122 29.2037 25.9014C28.8408 26.4905 28.32 26.9491 27.6415 27.2762C26.9691 27.5975 26.1863 27.7582 25.294 27.7582H22.4378V32.4803H20.001V19.9838H20ZM25.2037 25.7326C25.6144 25.7326 25.9712 25.658 26.2748 25.5093C26.5842 25.3543 26.8223 25.1377 26.9887 24.8575C27.1552 24.572 27.2388 24.2416 27.2388 23.8667C27.2388 23.4918 27.1556 23.158 26.9887 22.885C26.8219 22.6047 26.5842 22.3905 26.2748 22.2423C25.9712 22.0873 25.6144 22.0103 25.2037 22.0103H22.4364V25.7326H25.2037ZM36.8136 32.695C35.6177 32.695 34.5346 32.4148 33.5643 31.8558C32.5941 31.2901 31.8328 30.5169 31.2791 29.5351C30.7258 28.5477 30.4489 27.4464 30.4489 26.2323C30.4489 25.0182 30.7258 23.9202 31.2791 22.9385C31.8323 21.951 32.5941 21.1769 33.5643 20.6179C34.5341 20.0522 35.6172 19.77 36.8136 19.77C37.825 19.77 38.7537 19.9575 39.5986 20.3324C40.4436 20.7073 41.1456 21.2338 41.705 21.9123C42.2703 22.5851 42.648 23.3584 42.8388 24.233H40.2858C40.1189 23.7811 39.8693 23.3851 39.536 23.0456C39.2084 22.7008 38.813 22.4355 38.3486 22.2513C37.8843 22.0672 37.3784 21.9745 36.8313 21.9745C36.0935 21.9745 35.4269 22.1586 34.832 22.5277C34.2367 22.8969 33.77 23.4057 33.4304 24.0541C33.0971 24.6968 32.9307 25.4232 32.9307 26.2323C32.9307 27.0414 33.0971 27.7711 33.4304 28.419C33.7695 29.0617 34.2367 29.5672 34.832 29.9363C35.4269 30.3055 36.0935 30.4896 36.8313 30.4896C37.3789 30.4896 37.8848 30.3968 38.3486 30.2127C38.8125 30.0286 39.2084 29.7666 39.536 29.4271C39.8693 29.0823 40.1189 28.683 40.2858 28.2311H42.8388C42.6485 29.1057 42.2703 29.8823 41.705 30.5609C41.1456 31.2337 40.4436 31.7568 39.5986 32.1317C38.7537 32.5066 37.825 32.6941 36.8136 32.6941V32.695Z" fill="white"/>
</g>
<defs>
<filter id="filter0_d_6179_27261" x="4.75" y="5.35" width="54.5" height="54.5" filterUnits="userSpaceOnUse" color-interpolation-filters="sRGB">
<feFlood flood-opacity="0" result="BackgroundImageFix"/>
<feColorMatrix in="SourceAlpha" type="matrix" values="0 0 0 0 0 0 0 0 0 0 0 0 0 0 0 0 0 0 127 0" result="hardAlpha"/>
<feOffset dy="0.6"/>
<feGaussianBlur stdDeviation="0.625"/>
<feColorMatrix type="matrix" values="0 0 0 0 0 0 0 0 0 0 0 0 0 0 0 0 0 0 0.3 0"/>
<feBlend mode="normal" in2="BackgroundImageFix" result="effect1_dropShadow_6179_27261"/>
<feBlend mode="normal" in="SourceGraphic" in2="effect1_dropShadow_6179_27261" result="shape"/>
</filter>
<linearGradient id="paint0_linear_6179_27261" x1="7.33262" y1="48.5455" x2="38.7014" y2="48.5455" gradientUnits="userSpaceOnUse">
<stop  offset="0" stop-color="#00D886"/>
<stop offset="1" stop-color="#F0EB18"/>
</linearGradient>
<linearGradient id="paint1_linear_6179_27261" x1="56.4428" y1="56.4532" x2="7.91407" y2="7.92448" gradientUnits="userSpaceOnUse">
<stop offset="0.3" stop-color="#F0EB18"/>
<stop offset="0.7" stop-color="#00C4F4"/>
</linearGradient>
</defs>
</svg>
