<svg width="256" height="256" viewBox="0 0 256 256" fill="none" xmlns="http://www.w3.org/2000/svg">
<g filter="url(#filter0_d_4372_11290)">
<path d="M25 156.091V183C25 209.51 46.4904 231 73 231H156.091V156.091H25Z" fill="url(#paint0_linear_4372_11290)"/>
<path d="M156.091 25.0001V137.364H231V73.0001C231 46.4905 209.51 25.0001 183 25.0001H156.091Z" fill="#00D886"/>
<path d="M73.002 25.0021C46.4915 25.0009 25 46.4916 25 73.0021V156.089L156.091 231H183C209.51 231 231 209.51 231 183V137.364L156.01 25.0056L73.002 25.0021Z" fill="url(#paint1_linear_4372_11290)"/>
<path d="M194 62H62V194H194V62Z" fill="black"/>
<path d="M80.2661 79.9932H101.302C104.731 79.9932 107.754 80.6232 110.368 81.8832C112.982 83.1432 114.988 84.9151 116.388 87.2026C117.812 89.4902 118.524 92.1377 118.524 95.1471C118.524 98.1565 117.8 100.887 116.355 103.197C114.932 105.507 112.89 107.305 110.229 108.587C107.593 109.847 104.523 110.477 101.024 110.477H89.825V128.993H80.2699V79.9932H80.2661ZM100.67 102.535C102.281 102.535 103.68 102.242 104.87 101.659C106.083 101.052 107.017 100.202 107.67 99.1034C108.322 97.984 108.65 96.6884 108.65 95.2184C108.65 93.7483 108.324 92.4396 107.67 91.3689C107.015 90.2702 106.083 89.4302 104.87 88.8489C103.68 88.2414 102.281 87.9395 100.67 87.9395H89.8194V102.535H100.67ZM146.194 129.835C141.504 129.835 137.257 128.736 133.453 126.544C129.649 124.326 126.664 121.294 124.492 117.445C122.323 113.573 121.237 109.255 121.237 104.494C121.237 99.7334 122.323 95.4284 124.492 91.5789C126.662 87.707 129.649 84.6713 133.453 82.4794C137.256 80.2613 141.502 79.155 146.194 79.155C150.159 79.155 153.801 79.89 157.114 81.3601C160.427 82.8301 163.18 84.8945 165.373 87.5551C167.59 90.1933 169.071 93.2252 169.819 96.6546H159.808C159.154 94.8827 158.175 93.3302 156.868 91.9989C155.584 90.647 154.033 89.6064 152.213 88.8845C150.392 88.1626 148.408 87.7989 146.263 87.7989C143.37 87.7989 140.756 88.5208 138.424 89.9683C136.089 91.4158 134.259 93.4108 132.928 95.9534C131.621 98.4734 130.969 101.322 130.969 104.494C130.969 107.667 131.621 110.528 132.928 113.069C134.257 115.589 136.089 117.57 138.424 119.018C140.756 120.466 143.37 121.187 146.263 121.187C148.41 121.187 150.394 120.824 152.213 120.102C154.031 119.38 155.584 118.352 156.868 117.021C158.175 115.669 159.154 114.104 159.808 112.332H169.819C169.073 115.761 167.59 118.806 165.373 121.467C163.18 124.105 160.427 126.156 157.114 127.626C153.801 129.096 150.159 129.831 146.194 129.831V129.835Z" fill="white"/>
<path d="M132.5 167.5H80V176H132.5V167.5Z" fill="white"/>
</g>
<defs>
<filter id="filter0_d_4372_11290" x="20" y="22.5" width="216" height="216" filterUnits="userSpaceOnUse" color-interpolation-filters="sRGB">
<feFlood flood-opacity="0" result="BackgroundImageFix"/>
<feColorMatrix in="SourceAlpha" type="matrix" values="0 0 0 0 0 0 0 0 0 0 0 0 0 0 0 0 0 0 127 0" result="hardAlpha"/>
<feOffset dy="2.5"/>
<feGaussianBlur stdDeviation="2.5"/>
<feColorMatrix type="matrix" values="0 0 0 0 0 0 0 0 0 0 0 0 0 0 0 0 0 0 0.3 0"/>
<feBlend mode="normal" in2="BackgroundImageFix" result="effect1_dropShadow_4372_11290"/>
<feBlend mode="normal" in="SourceGraphic" in2="effect1_dropShadow_4372_11290" result="shape"/>
</filter>
<linearGradient id="paint0_linear_4372_11290" x1="30.2792" y1="193.545" x2="154.548" y2="193.545" gradientUnits="userSpaceOnUse">
<stop  offset="0" stop-color="#00D886"/>
<stop offset="1" stop-color="#F0EB18"/>
</linearGradient>
<linearGradient id="paint1_linear_4372_11290" x1="224.831" y1="224.872" x2="32.5827" y2="32.6239" gradientUnits="userSpaceOnUse">
<stop offset="0.3" stop-color="#F0EB18"/>
<stop offset="0.7" stop-color="#00C4F4"/>
</linearGradient>
</defs>
</svg>
