<svg width="512" height="512" viewBox="0 0 512 512" fill="none" xmlns="http://www.w3.org/2000/svg">
<g filter="url(#filter0_d_4372_11291)">
<path d="M50 312.182V366C50 419.019 92.9807 462 146 462H312.182V312.182H50Z" fill="url(#paint0_linear_4372_11291)"/>
<path d="M312.182 50V274.727H462V146C462 92.9807 419.019 50 366 50H312.182Z" fill="#00D886"/>
<path d="M146.004 50.0041C92.9831 50.0018 50 92.9832 50 146.004V312.178L312.182 462H366C419.019 462 462 419.019 462 366V274.727L312.021 50.0112L146.004 50.0041Z" fill="url(#paint1_linear_4372_11291)"/>
<path d="M388 124H124V388H388V124Z" fill="black"/>
<path d="M160.532 159.987H202.604C209.463 159.987 215.508 161.247 220.735 163.767C225.963 166.287 229.976 169.83 232.777 174.406C235.623 178.981 237.048 184.276 237.048 190.294C237.048 196.313 235.601 201.773 232.709 206.393C229.863 211.013 225.779 214.61 220.458 217.175C215.185 219.695 209.047 220.955 202.049 220.955H179.65V257.987H160.54V159.987H160.532ZM201.34 205.07C204.562 205.07 207.359 204.485 209.74 203.318C212.167 202.103 214.034 200.405 215.339 198.207C216.644 195.968 217.3 193.377 217.3 190.437C217.3 187.497 216.648 184.879 215.339 182.738C214.03 180.541 212.167 178.861 209.74 177.698C207.359 176.483 204.562 175.879 201.34 175.879H179.639V205.07H201.34ZM292.388 259.67C283.009 259.67 274.515 257.473 266.906 253.089C259.297 248.653 253.327 242.589 248.985 234.89C244.646 227.146 242.474 218.51 242.474 208.988C242.474 199.467 244.646 190.857 248.985 183.158C253.323 175.414 259.297 169.343 266.906 164.959C274.511 160.523 283.005 158.31 292.388 158.31C300.319 158.31 307.602 159.78 314.228 162.72C320.854 165.66 326.359 169.789 330.747 175.111C335.179 180.387 338.142 186.451 339.638 193.309H319.617C318.308 189.766 316.35 186.661 313.737 183.998C311.168 181.294 308.067 179.213 304.425 177.769C300.784 176.326 296.816 175.598 292.526 175.598C286.74 175.598 281.512 177.042 276.847 179.937C272.179 182.832 268.519 186.822 265.856 191.907C263.242 196.947 261.937 202.643 261.937 208.988C261.937 215.334 263.242 221.056 265.856 226.137C268.515 231.177 272.179 235.141 276.847 238.036C281.512 240.931 286.74 242.375 292.526 242.375C296.82 242.375 300.788 241.648 304.425 240.204C308.063 238.76 311.168 236.705 313.737 234.042C316.35 231.339 318.308 228.207 319.617 224.664H339.638C338.146 231.522 335.179 237.613 330.747 242.934C326.359 248.21 320.854 252.313 314.228 255.253C307.602 258.193 300.319 259.663 292.388 259.663V259.67Z" fill="white"/>
<path d="M265 335H160V352H265V335Z" fill="white"/>
</g>
<defs>
<filter id="filter0_d_4372_11291" x="40" y="45" width="432" height="432" filterUnits="userSpaceOnUse" color-interpolation-filters="sRGB">
<feFlood flood-opacity="0" result="BackgroundImageFix"/>
<feColorMatrix in="SourceAlpha" type="matrix" values="0 0 0 0 0 0 0 0 0 0 0 0 0 0 0 0 0 0 127 0" result="hardAlpha"/>
<feOffset dy="5"/>
<feGaussianBlur stdDeviation="5"/>
<feColorMatrix type="matrix" values="0 0 0 0 0 0 0 0 0 0 0 0 0 0 0 0 0 0 0.3 0"/>
<feBlend mode="normal" in2="BackgroundImageFix" result="effect1_dropShadow_4372_11291"/>
<feBlend mode="normal" in="SourceGraphic" in2="effect1_dropShadow_4372_11291" result="shape"/>
</filter>
<linearGradient id="paint0_linear_4372_11291" x1="60.5584" y1="387.091" x2="309.096" y2="387.091" gradientUnits="userSpaceOnUse">
<stop  offset="0" stop-color="#00D886"/>
<stop offset="1" stop-color="#F0EB18"/>
</linearGradient>
<linearGradient id="paint1_linear_4372_11291" x1="449.662" y1="449.745" x2="65.1654" y2="65.2478" gradientUnits="userSpaceOnUse">
<stop offset="0.3" stop-color="#F0EB18"/>
<stop offset="0.7" stop-color="#00C4F4"/>
</linearGradient>
</defs>
</svg>
