<svg width="128" height="128" viewBox="0 0 128 128" fill="none" xmlns="http://www.w3.org/2000/svg">
<g filter="url(#filter0_d_4372_11292)">
<path d="M12 78.1818V92C12 105.255 22.7452 116 36 116H78.1818V78.1818H12Z" fill="url(#paint0_linear_4372_11292)"/>
<path d="M78.1816 12V68.7273H116V36C116 22.7452 105.255 12 91.9998 12H78.1816Z" fill="#00D886"/>
<path d="M36.001 12.001C22.7458 12.0005 12 22.7458 12 36.001V78.1809L78.1818 116H92C105.255 116 116 105.255 116 92V68.7273L78.1412 12.0028L36.001 12.001Z" fill="url(#paint1_linear_4372_11292)"/>
<path d="M97 31H31V97H97V31Z" fill="black"/>
<path d="M67 84H39V89H67V84Z" fill="white"/>
<path d="M39 39.9675H49.7296C51.4788 39.9675 53.0205 40.2889 54.3537 40.9316C55.6869 41.5743 56.7102 42.478 57.4247 43.6448C58.1506 44.8116 58.514 46.162 58.514 47.697C58.514 49.232 58.1448 50.6245 57.4074 51.8027C56.6816 52.981 55.6401 53.8982 54.283 54.5523C52.9383 55.195 51.3727 55.5164 49.5881 55.5164H43.8756V64.9606H39.0019V39.9675H39ZM49.4073 51.4651C50.2289 51.4651 50.9423 51.3159 51.5496 51.0185C52.1684 50.7086 52.6447 50.2754 52.9775 49.715C53.3103 49.144 53.4777 48.4832 53.4777 47.7333C53.4777 46.9835 53.3113 46.316 52.9775 45.7699C52.6437 45.2095 52.1684 44.781 51.5496 44.4845C50.9423 44.1747 50.2289 44.0207 49.4073 44.0207H43.8728V51.4651H49.4073ZM72.6273 65.39C70.2354 65.39 68.0692 64.8296 66.1287 63.7116C64.1882 62.5802 62.6656 61.0337 61.5581 59.0703C60.4516 57.0954 59.8979 54.8928 59.8979 52.4646C59.8979 50.0363 60.4516 47.8405 61.5581 45.877C62.6647 43.9021 64.1882 42.3537 66.1287 41.2357C68.0682 40.1043 70.2344 39.54 72.6273 39.54C74.65 39.54 76.5073 39.9149 78.1972 40.6647C79.8872 41.4145 81.2911 42.4675 82.4101 43.8246C83.5405 45.1703 84.2961 46.7167 84.6777 48.4659H79.5716C79.2378 47.5622 78.7386 46.7703 78.072 46.0912C77.4168 45.4017 76.6259 44.8709 75.6973 44.5027C74.7686 44.1345 73.7568 43.949 72.6627 43.949C71.187 43.949 69.8538 44.3172 68.664 45.0555C67.4734 45.7938 66.5399 46.8114 65.8609 48.1083C65.1943 49.3936 64.8615 50.8464 64.8615 52.4646C64.8615 54.0828 65.1943 55.5422 65.8609 56.8381C66.539 58.1235 67.4734 59.1344 68.664 59.8727C69.8538 60.611 71.187 60.9792 72.6627 60.9792C73.7577 60.9792 74.7696 60.7937 75.6973 60.4255C76.625 60.0573 77.4168 59.5332 78.072 58.8541C78.7386 58.1646 79.2378 57.366 79.5716 56.4622H84.6777C84.297 58.2114 83.5405 59.7646 82.4101 61.1217C81.2911 62.4673 79.8872 63.5136 78.1972 64.2634C76.5073 65.0132 74.65 65.3881 72.6273 65.3881V65.39Z" fill="white"/>
</g>
<defs>
<filter id="filter0_d_4372_11292" x="9.5" y="10.75" width="109" height="109" filterUnits="userSpaceOnUse" color-interpolation-filters="sRGB">
<feFlood flood-opacity="0" result="BackgroundImageFix"/>
<feColorMatrix in="SourceAlpha" type="matrix" values="0 0 0 0 0 0 0 0 0 0 0 0 0 0 0 0 0 0 127 0" result="hardAlpha"/>
<feOffset dy="1.25"/>
<feGaussianBlur stdDeviation="1.25"/>
<feColorMatrix type="matrix" values="0 0 0 0 0 0 0 0 0 0 0 0 0 0 0 0 0 0 0.3 0"/>
<feBlend mode="normal" in2="BackgroundImageFix" result="effect1_dropShadow_4372_11292"/>
<feBlend mode="normal" in="SourceGraphic" in2="effect1_dropShadow_4372_11292" result="shape"/>
</filter>
<linearGradient id="paint0_linear_4372_11292" x1="14.6652" y1="97.0909" x2="77.4028" y2="97.0909" gradientUnits="userSpaceOnUse">
<stop  offset="0" stop-color="#00D886"/>
<stop offset="1" stop-color="#F0EB18"/>
</linearGradient>
<linearGradient id="paint1_linear_4372_11292" x1="112.886" y1="112.906" x2="15.8281" y2="15.849" gradientUnits="userSpaceOnUse">
<stop offset="0.3" stop-color="#F0EB18"/>
<stop offset="0.7" stop-color="#00C4F4"/>
</linearGradient>
</defs>
</svg>
