<!-- Copyright © 2000–2024 JetBrains s.r.o. -->
<svg width="48" height="48" viewBox="0 0 48 48" xmlns="http://www.w3.org/2000/svg">
  <path fill="#6B57FF" d="M12.338 4.5H3.142a3.09 3.09 0 0 0-3.09 3.143l.128 8.28a3.12 3.12 0 0 0 1.08 2.302l28.62 24.533c.563.48 1.275.742 2.018.742h8.512a3.095 3.095 0 0 0 3.09-3.09v-8.257a3.07 3.07 0 0 0-1.057-2.325L14.378 5.265a3.1 3.1 0 0 0-2.04-.765"/>
  <path fill="url(#a)" d="M11.243 4.5H3.09A3.095 3.095 0 0 0 0 7.59v9.427q-.001.225.03.45l4.087 27.886A3.1 3.1 0 0 0 7.178 48h11.55a3.1 3.1 0 0 0 3.098-3.097l-.008-13.875c0-.323-.052-.638-.142-.938L14.19 6.653A3.1 3.1 0 0 0 11.243 4.5"/>
  <path fill="url(#b)" d="M44.91 0H19.313c-1.245 0-2.37.743-2.85 1.89L4.612 29.955c-.165.39-.248.81-.24 1.23l.112 13.747A3.09 3.09 0 0 0 7.575 48h13.253a3.1 3.1 0 0 0 1.695-.51l24.082-15.833A3.09 3.09 0 0 0 48 29.078V3.09A3.095 3.095 0 0 0 44.91 0"/>
  <path d="M39 9H9v30h30z"/>
  <path fill="#fff" fill-rule="evenodd" d="M12.742 12.743h4.283c1.072 0 2.025.247 2.872.727q1.26.72 1.98 2.003.711 1.282.713 2.902c0 1.08-.24 2.04-.713 2.895a5.26 5.26 0 0 1-1.98 2.01c-.847.48-1.8.72-2.872.72h-4.283zm6.023 8.91a2.95 2.95 0 0 0 1.162-1.29c.278-.563.413-1.223.413-1.988q.002-1.149-.413-1.995a3 3 0 0 0-1.162-1.29c-.503-.3-1.095-.45-1.763-.45H14.94v7.463h2.062c.668 0 1.26-.15 1.763-.45"/>
  <path fill="#fff" d="M24.742 33h-12v2.25h12zm7.635-20.257h-9.03v1.98h3.42V24h2.198v-9.277h3.412z"/>
  <defs>
    <linearGradient id="a" x1="-.291" x2="18.294" y1="5.753" y2="45.847" gradientUnits="userSpaceOnUse">
      <stop offset=".18" stop-color="#6B57FF"/>
      <stop offset=".54" stop-color="#FF2358"/>
    </linearGradient>
    <linearGradient id="b" x1="3.24" x2="47.19" y1="44.946" y2="1.003" gradientUnits="userSpaceOnUse">
      <stop offset=".12" stop-color="#FF2358"/>
      <stop offset=".92" stop-color="#FF45ED"/>
    </linearGradient>
  </defs>
</svg>
