<!-- Copyright © 2000–2024 JetBrains s.r.o. -->
<svg width="24" height="24" viewBox="0 0 24 24" xmlns="http://www.w3.org/2000/svg">
  <path fill="#6B57FF" d="M6.169 2.25H1.57c-.862 0-1.56.709-1.545 1.571l.064 4.14c.008.443.206.863.54 1.152l14.31 12.266c.281.24.638.371 1.009.371h4.256c.851 0 1.545-.694 1.545-1.545v-4.129c0-.446-.191-.87-.529-1.162L7.19 2.633a1.55 1.55 0 0 0-1.02-.383"/>
  <path fill="url(#a)" d="M5.621 2.25H1.545C.694 2.25 0 2.944 0 3.795v4.714q0 .113.015.225l2.044 13.942A1.55 1.55 0 0 0 3.589 24h5.775a1.55 1.55 0 0 0 1.548-1.549l-.003-6.937a1.6 1.6 0 0 0-.072-.469L7.096 3.326A1.55 1.55 0 0 0 5.621 2.25"/>
  <path fill="url(#b)" d="M22.455 0H9.656c-.622 0-1.185.371-1.425.945L2.306 14.977a1.5 1.5 0 0 0-.12.615l.057 6.874A1.545 1.545 0 0 0 3.788 24h6.626c.3 0 .596-.09.847-.255l12.042-7.916c.434-.285.697-.773.697-1.29V1.545C24 .694 23.306 0 22.455 0"/>
  <path d="M19.5 4.5h-15v15h15z"/>
  <path fill="#fff" fill-rule="evenodd" d="M6.371 6.371h2.142q.802.002 1.436.364.63.36.99 1.001.355.642.356 1.451-.001.808-.356 1.448-.36.64-.99 1.005-.634.36-1.436.36H6.37zm3.012 4.455c.25-.15.446-.364.58-.645q.209-.42.207-.994.001-.574-.206-.997a1.5 1.5 0 0 0-.581-.645A1.7 1.7 0 0 0 8.5 7.32H7.47v3.731H8.5q.502 0 .882-.225"/>
  <path fill="#fff" d="M12.371 16.5h-6v1.125h6zm3.818-10.129h-4.515v.99h1.71V12h1.099V7.36h1.706z"/>
  <defs>
    <linearGradient id="a" x1="-.145" x2="9.147" y1="2.876" y2="22.924" gradientUnits="userSpaceOnUse">
      <stop offset=".18" stop-color="#6B57FF"/>
      <stop offset=".54" stop-color="#FF2358"/>
    </linearGradient>
    <linearGradient id="b" x1="1.62" x2="23.595" y1="22.473" y2=".502" gradientUnits="userSpaceOnUse">
      <stop offset=".12" stop-color="#FF2358"/>
      <stop offset=".92" stop-color="#FF45ED"/>
    </linearGradient>
  </defs>
</svg>
