<!-- Copyright © 2000–2024 JetBrains s.r.o. -->
<svg width="256" height="256" viewBox="0 0 256 256" xmlns="http://www.w3.org/2000/svg">
  <path fill="#6B57FF" d="M65.8 24H16.76C7.56 24 .12 31.56.28 40.76l.68 44.16c.08 4.72 2.2 9.2 5.76 12.28l152.64 130.84c3 2.56 6.8 3.96 10.76 3.96h45.4c9.08 0 16.48-7.4 16.48-16.48v-44.04c0-4.76-2.04-9.28-5.64-12.4l-149.68-131A16.55 16.55 0 0 0 65.8 24"/>
  <path fill="url(#a)" d="M59.96 24H16.48C7.4 24 0 31.4 0 40.48v50.28c0 .8.04 1.6.16 2.4l21.8 148.72C23.16 250 30.12 256 38.28 256h61.6c9.12 0 16.52-7.4 16.52-16.52l-.04-74c0-1.72-.28-3.4-.76-5l-39.92-125C73.48 28.64 67.12 24 59.96 24"/>
  <path fill="url(#b)" d="M239.52 0H103c-6.64 0-12.64 3.96-15.2 10.08L24.6 159.76c-.88 2.08-1.32 4.32-1.28 6.56l.6 73.32c.04 9.04 7.44 16.36 16.48 16.36h70.68c3.2 0 6.36-.96 9.04-2.72l128.44-84.44a16.49 16.49 0 0 0 7.44-13.76V16.48C256 7.4 248.6 0 239.52 0"/>
  <path d="M208 48H48v160h160z"/>
  <path fill="#fff" fill-rule="evenodd" d="M67.96 67.96H90.8c5.72 0 10.8 1.32 15.32 3.88q6.72 3.84 10.56 10.68c2.52 4.56 3.8 9.72 3.8 15.48s-1.28 10.88-3.8 15.44c-2.56 4.56-6.08 8.12-10.56 10.72-4.52 2.56-9.6 3.84-15.32 3.84H67.96zm32.12 47.52c2.68-1.6 4.76-3.88 6.2-6.88 1.48-3 2.2-6.52 2.2-10.6s-.72-7.64-2.2-10.64c-1.44-2.96-3.52-5.28-6.2-6.88s-5.84-2.4-9.4-2.4h-11v39.8h11c3.56 0 6.72-.8 9.4-2.4"/>
  <path fill="#fff" d="M131.96 176h-64v12h64zm40.72-108.04h-48.16v10.56h18.24V128h11.72V78.52h18.2z"/>
  <defs>
    <linearGradient id="a" x1="-1.55" x2="97.57" y1="30.68" y2="244.52" gradientUnits="userSpaceOnUse">
      <stop offset=".18" stop-color="#6B57FF"/>
      <stop offset=".54" stop-color="#FF2358"/>
    </linearGradient>
    <linearGradient id="b" x1="17.28" x2="251.68" y1="239.71" y2="5.35" gradientUnits="userSpaceOnUse">
      <stop offset=".12" stop-color="#FF2358"/>
      <stop offset=".92" stop-color="#FF45ED"/>
    </linearGradient>
  </defs>
</svg>
