<!-- Copyright © 2000–2024 JetBrains s.r.o. -->
<svg width="64" height="64" viewBox="0 0 64 64" xmlns="http://www.w3.org/2000/svg">
  <path fill="#6B57FF" d="M16.45 6H4.19C1.89 6 .03 7.89.07 10.19l.17 11.04c.02 1.18.55 2.3 1.44 3.07l38.16 32.71c.75.64 1.7.99 2.69.99h11.35c2.27 0 4.12-1.85 4.12-4.12V42.87c0-1.19-.51-2.32-1.41-3.1L19.17 7.02A4.14 4.14 0 0 0 16.45 6"/>
  <path fill="url(#a)" d="M14.99 6H4.12C1.85 6 0 7.85 0 10.12v12.57c0 .2.01.4.04.6l5.45 37.18A4.13 4.13 0 0 0 9.57 64h15.4c2.28 0 4.13-1.85 4.13-4.13l-.01-18.5c0-.43-.07-.85-.19-1.25L18.92 8.87A4.13 4.13 0 0 0 14.99 6"/>
  <path fill="url(#b)" d="M59.88 0H25.75c-1.66 0-3.16.99-3.8 2.52L6.15 39.94c-.22.52-.33 1.08-.32 1.64l.15 18.33C5.99 62.17 7.84 64 10.1 64h17.67c.8 0 1.59-.24 2.26-.68l32.11-21.11A4.12 4.12 0 0 0 64 38.77V4.12C64 1.85 62.15 0 59.88 0"/>
  <path d="M52 12H12v40h40z"/>
  <path fill="#fff" fill-rule="evenodd" d="M16.99 16.99h5.71c1.43 0 2.7.33 3.83.97q1.68.96 2.64 2.67c.63 1.14.95 2.43.95 3.87s-.32 2.72-.95 3.86a7 7 0 0 1-2.64 2.68c-1.13.64-2.4.96-3.83.96h-5.71zm8.03 11.88c.67-.4 1.19-.97 1.55-1.72.37-.75.55-1.63.55-2.65s-.18-1.91-.55-2.66c-.36-.74-.88-1.32-1.55-1.72s-1.46-.6-2.35-.6h-2.75v9.95h2.75c.89 0 1.68-.2 2.35-.6"/>
  <path fill="#fff" d="M32.99 44h-16v3h16zm10.18-27.01H31.13v2.64h4.56V32h2.93V19.63h4.55z"/>
  <defs>
    <linearGradient id="a" x1="-.388" x2="24.392" y1="7.67" y2="61.13" gradientUnits="userSpaceOnUse">
      <stop offset=".18" stop-color="#6B57FF"/>
      <stop offset=".54" stop-color="#FF2358"/>
    </linearGradient>
    <linearGradient id="b" x1="4.32" x2="62.92" y1="59.928" y2="1.337" gradientUnits="userSpaceOnUse">
      <stop offset=".12" stop-color="#FF2358"/>
      <stop offset=".92" stop-color="#FF45ED"/>
    </linearGradient>
  </defs>
</svg>
