<!-- Copyright © 2000–2024 JetBrains s.r.o. -->
<svg width="32" height="32" viewBox="0 0 32 32" xmlns="http://www.w3.org/2000/svg">
  <path fill="#6B57FF" d="M8.225 3h-6.13c-1.15 0-2.08.945-2.06 2.095l.085 5.52c.01.59.275 1.15.72 1.535l19.08 16.355c.375.32.85.495 1.345.495h5.675c1.135 0 2.06-.925 2.06-2.06v-5.505c0-.595-.255-1.16-.705-1.55L9.585 3.51c-.38-.33-.86-.51-1.36-.51"/>
  <path fill="url(#a)" d="M7.495 3H2.06C.925 3 0 3.925 0 5.06v6.285q-.001.15.02.3l2.725 18.59A2.065 2.065 0 0 0 4.785 32h7.7c1.14 0 2.065-.925 2.065-2.065l-.005-9.25c0-.215-.035-.425-.095-.625L9.46 4.435A2.07 2.07 0 0 0 7.495 3"/>
  <path fill="url(#b)" d="M29.94 0H12.875c-.83 0-1.58.495-1.9 1.26l-7.9 18.71c-.11.26-.165.54-.16.82l.075 9.165A2.06 2.06 0 0 0 5.05 32h8.835c.4 0 .795-.12 1.13-.34L31.07 21.105c.58-.38.93-1.03.93-1.72V2.06C32 .925 31.075 0 29.94 0"/>
  <path d="M26 6H6v20h20z"/>
  <path fill="#fff" fill-rule="evenodd" d="M8.495 8.495h2.855c.715 0 1.35.165 1.915.485q.84.48 1.32 1.335.474.855.475 1.935c0 .72-.16 1.36-.475 1.93q-.48.854-1.32 1.34c-.565.32-1.2.48-1.915.48H8.495zm4.015 5.94q.504-.299.775-.86.276-.561.275-1.325.001-.766-.275-1.33c-.18-.37-.44-.66-.775-.86s-.73-.3-1.175-.3H9.96v4.975h1.375c.445 0 .84-.1 1.175-.3"/>
  <path fill="#fff" d="M16.495 22h-8v1.5h8zm5.09-13.505h-6.02v1.32h2.28V16h1.465V9.815h2.275z"/>
  <defs>
    <linearGradient id="a" x1="-.194" x2="12.196" y1="3.835" y2="30.565" gradientUnits="userSpaceOnUse">
      <stop offset=".18" stop-color="#6B57FF"/>
      <stop offset=".54" stop-color="#FF2358"/>
    </linearGradient>
    <linearGradient id="b" x1="2.16" x2="31.46" y1="29.964" y2=".669" gradientUnits="userSpaceOnUse">
      <stop offset=".12" stop-color="#FF2358"/>
      <stop offset=".92" stop-color="#FF45ED"/>
    </linearGradient>
  </defs>
</svg>
