<!-- Copyright © 2000–2024 JetBrains s.r.o. -->
<svg width="128" height="128" viewBox="0 0 128 128" xmlns="http://www.w3.org/2000/svg">
  <path fill="#6B57FF" d="M32.9 12H8.38c-4.6 0-8.32 3.78-8.24 8.38l.34 22.08c.04 2.36 1.1 4.6 2.88 6.14l76.32 65.42a8.27 8.27 0 0 0 5.38 1.98h22.7c4.54 0 8.24-3.7 8.24-8.24V85.74c0-2.38-1.02-4.64-2.82-6.2l-74.84-65.5A8.28 8.28 0 0 0 32.9 12"/>
  <path fill="url(#a)" d="M29.98 12H8.24C3.7 12 0 15.7 0 20.24v25.14c0 .4.02.8.08 1.2l10.9 74.36c.6 4.06 4.08 7.06 8.16 7.06h30.8c4.56 0 8.26-3.7 8.26-8.26l-.02-37c0-.86-.14-1.7-.38-2.5l-19.96-62.5A8.27 8.27 0 0 0 29.98 12"/>
  <path fill="url(#b)" d="M119.76 0H51.5c-3.32 0-6.32 1.98-7.6 5.04L12.3 79.88a8.1 8.1 0 0 0-.64 3.28l.3 36.66c.02 4.52 3.72 8.18 8.24 8.18h35.34c1.6 0 3.18-.48 4.52-1.36l64.22-42.22a8.24 8.24 0 0 0 3.72-6.88V8.24C128 3.7 124.3 0 119.76 0"/>
  <path d="M104 24H24v80h80z"/>
  <path fill="#fff" fill-rule="evenodd" d="M33.98 33.98H45.4c2.86 0 5.4.66 7.66 1.94q3.36 1.92 5.28 5.34c1.26 2.28 1.9 4.86 1.9 7.74s-.64 5.44-1.9 7.72a14 14 0 0 1-5.28 5.36C50.8 63.36 48.26 64 45.4 64H33.98zm16.06 23.76c1.34-.8 2.38-1.94 3.1-3.44.74-1.5 1.1-3.26 1.1-5.3s-.36-3.82-1.1-5.32c-.72-1.48-1.76-2.64-3.1-3.44s-2.92-1.2-4.7-1.2h-5.5v19.9h5.5c1.78 0 3.36-.4 4.7-1.2"/>
  <path fill="#fff" d="M65.98 88h-32v6h32zm20.36-54.02H62.26v5.28h9.12V64h5.86V39.26h9.1z"/>
  <defs>
    <linearGradient id="a" x1="-.775" x2="48.785" y1="15.34" y2="122.26" gradientUnits="userSpaceOnUse">
      <stop offset=".18" stop-color="#6B57FF"/>
      <stop offset=".54" stop-color="#FF2358"/>
    </linearGradient>
    <linearGradient id="b" x1="8.64" x2="125.84" y1="119.855" y2="2.675" gradientUnits="userSpaceOnUse">
      <stop offset=".12" stop-color="#FF2358"/>
      <stop offset=".92" stop-color="#FF45ED"/>
    </linearGradient>
  </defs>
</svg>
