<!-- Copyright © 2000–2024 JetBrains s.r.o. -->
<svg width="16" height="16" viewBox="0 0 16 16" xmlns="http://www.w3.org/2000/svg">
  <path fill="#DD1265" d="M16 0H0v16h16z"/>
  <path d="M15 1H1v14h14z"/>
  <path fill="#fff" d="M8 12H3v1h5zM3 3.01h2.186c.608 0 1.067.17 1.397.499q.407.435.409 1.138c0 .419-.09.748-.28.998-.189.25-.439.439-.738.559L7.142 7.98H5.914l-.988-1.527h-.868V7.99H3V3zm2.126 2.425c.26 0 .459-.06.599-.19q.21-.195.21-.508c0-.25-.07-.43-.22-.55s-.35-.179-.61-.179H4.059v1.437h1.068zM8.19 6.932h-.54v-.908h.7l.179-1.058H7.9v-.908h.789l.18-1.038h.937l-.18 1.038h1.039l.18-1.038h.937l-.18 1.038h.54v.908h-.699l-.18 1.058h.63v.908h-.79L10.925 8h-.938l.18-1.068H9.128L8.948 8H8.01zm2.125-.918.18-1.058H9.457l-.18 1.058z"/>
<path d="M16 16H5.95284C5.43491 16 4.9382 15.7942 4.57198 15.428C4.20575 15.0618 4 14.565 4 14.0471V11.9529C4 11.435 4.20575 10.9382 4.57198 10.572C4.9382 10.2058 5.43491 10 5.95284 10H14.0471C14.5651 10 15.0618 10.2058 15.428 10.572C15.7942 10.9382 16 11.435 16 11.9529L16 16Z" fill="#FDB60D"/>
<path d="M5.87097 11.5658H8.11797V12.1489H6.52211V12.7533H7.92653V13.3362H6.52211V13.9618H8.13931V14.5447H5.87102L5.87097 11.5658Z" fill="black"/>
<path d="M9.74345 11.5447H10.3477L11.6244 14.5447H10.9393L10.6669 13.8767H9.40739L9.13504 14.5447H8.46704L9.74345 11.5447ZM10.4331 13.298L10.0372 12.3318L9.64149 13.298H10.4331Z" fill="black"/>
<path d="M12.084 11.5658H13.3011C13.4456 11.5487 13.5921 11.5626 13.7308 11.6067C13.8695 11.6509 13.9971 11.7243 14.1051 11.8218C14.2132 11.9194 14.2991 12.0388 14.3571 12.1723C14.4151 12.3058 14.4439 12.4501 14.4415 12.5956V12.6043C14.4403 12.7552 14.407 12.904 14.3439 13.0411C14.2808 13.1781 14.1892 13.3001 14.0754 13.3991C13.9615 13.4981 13.828 13.5718 13.6835 13.6153C13.539 13.6587 13.387 13.671 13.2374 13.6513H12.7395V14.5447H12.084L12.084 11.5658ZM13.2585 13.068C13.3229 13.0762 13.3883 13.0708 13.4504 13.0519C13.5125 13.0331 13.57 13.0012 13.619 12.9587C13.668 12.9161 13.7075 12.8636 13.7348 12.8047C13.7622 12.7458 13.7768 12.6819 13.7777 12.617V12.6084C13.7777 12.315 13.5735 12.1574 13.2457 12.1574H12.7395V13.068H13.2585Z" fill="black"/>
</svg>