<svg width="256" height="256" viewBox="0 0 256 256" fill="none" xmlns="http://www.w3.org/2000/svg">
<g filter="url(#filter0_d_4372_11678)">
<path d="M231 99.9092H81.1818V231H183C209.51 231 231 209.51 231 183V99.9092Z" fill="#00D886"/>
<path d="M137.364 25H73C46.4903 25 25 46.4903 25 73V174.818H137.364V25Z" fill="url(#paint0_linear_4372_11678)"/>
<path d="M231 99.9091V73C231 46.4903 209.51 25 183 25H137.364L25 174.818V183C25 209.51 46.4903 231 73 231H81.1818L231 99.9091Z" fill="#FF318C"/>
<path d="M194 62H62V194H194V62Z" fill="black"/>
<path d="M102.249 129.829C97.5599 129.829 93.313 128.73 89.5086 126.538C85.7061 124.32 82.7192 121.288 80.548 117.439C78.3786 113.567 77.293 109.249 77.293 104.488C77.293 99.7278 78.3786 95.4228 80.548 91.5734C82.7174 87.7016 85.7042 84.6659 89.5086 82.474C93.3111 80.2559 97.558 79.1497 102.249 79.1497C106.215 79.1497 109.856 79.8847 113.169 81.3547C116.482 82.8247 119.235 84.889 121.429 87.5497C123.645 90.1878 125.126 93.2197 125.874 96.6491H115.864C115.209 94.8772 114.231 93.3247 112.924 91.9934C111.639 90.6416 110.089 89.6009 108.268 88.8791C106.447 88.1572 104.464 87.7934 102.319 87.7934C99.4255 87.7934 96.8118 88.5153 94.4792 89.9628C92.1467 91.4103 90.3149 93.4053 88.9836 95.9478C87.6767 98.4678 87.0242 101.316 87.0242 104.488C87.0242 107.661 87.6767 110.522 88.9836 113.063C90.313 115.583 92.1449 117.565 94.4792 119.012C96.8118 120.46 99.4255 121.182 102.319 121.182C104.466 121.182 106.449 120.818 108.268 120.096C110.089 119.374 111.639 118.347 112.924 117.015C114.231 115.663 115.209 114.098 115.864 112.326H125.874C125.128 115.755 123.645 118.8 121.429 121.461C119.235 124.099 116.482 126.15 113.169 127.62C109.856 129.09 106.215 129.825 102.249 129.825V129.829ZM142.264 79.9878V120.377H165.504V128.987H132.744V79.9878H142.264Z" fill="white"/>
<path d="M132.5 167.5H80V176H132.5V167.5Z" fill="white"/>
</g>
<defs>
<filter id="filter0_d_4372_11678" x="20" y="22.5" width="216" height="216" filterUnits="userSpaceOnUse" color-interpolation-filters="sRGB">
<feFlood flood-opacity="0" result="BackgroundImageFix"/>
<feColorMatrix in="SourceAlpha" type="matrix" values="0 0 0 0 0 0 0 0 0 0 0 0 0 0 0 0 0 0 127 0" result="hardAlpha"/>
<feOffset dy="2.5"/>
<feGaussianBlur stdDeviation="2.5"/>
<feColorMatrix type="matrix" values="0 0 0 0 0 0 0 0 0 0 0 0 0 0 0 0 0 0 0.3 0"/>
<feBlend mode="normal" in2="BackgroundImageFix" result="effect1_dropShadow_4372_11678"/>
<feBlend mode="normal" in="SourceGraphic" in2="effect1_dropShadow_4372_11678" result="shape"/>
</filter>
<linearGradient id="paint0_linear_4372_11678" x1="28.3541" y1="99.9091" x2="133.216" y2="99.9091" gradientUnits="userSpaceOnUse">
<stop  offset="0" stop-color="#009AE5"/>
<stop offset="1" stop-color="#FF318C"/>
</linearGradient>
</defs>
</svg>
