<svg width="128" height="128" viewBox="0 0 128 128" fill="none" xmlns="http://www.w3.org/2000/svg">
<g filter="url(#filter0_d_4372_11680)">
<path d="M116 49.8181H40.3636V116H92C105.255 116 116 105.255 116 91.9999V49.8181Z" fill="#00D886"/>
<path d="M68.7273 12H36C22.7452 12 12 22.7451 12 36V87.6364H68.7273V12Z" fill="url(#paint0_linear_4372_11680)"/>
<path d="M116 49.8182V36C116 22.7452 105.255 12 92 12H68.7273L12 87.6364V92C12 105.255 22.7452 116 36 116H40.3636L116 49.8182Z" fill="#FF318C"/>
<path d="M97 31H31V97H97V31Z" fill="black"/>
<path d="M50.4203 65.392C48.0283 65.392 45.8619 64.8316 43.9212 63.7135C41.9816 62.582 40.4579 61.0354 39.3503 59.0718C38.2437 57.0967 37.6899 54.894 37.6899 52.4656C37.6899 50.0371 38.2437 47.8411 39.3503 45.8775C40.457 43.9024 41.9806 42.3539 43.9212 41.2358C45.8609 40.1043 48.0273 39.54 50.4203 39.54C52.4432 39.54 54.3007 39.915 55.9907 40.6648C57.6808 41.4147 59.0849 42.4677 60.2039 43.825C61.3344 45.1707 62.09 46.7173 62.4717 48.4666H57.3652C57.0314 47.5628 56.5321 46.7708 55.8654 46.0918C55.2103 45.4021 54.4193 44.8713 53.4906 44.5031C52.5618 44.1348 51.5499 43.9493 50.4557 43.9493C48.9799 43.9493 47.6466 44.3175 46.4568 45.0559C45.267 45.7943 44.3325 46.812 43.6534 48.1089C42.9868 49.3944 42.6539 50.8472 42.6539 52.4656C42.6539 54.0839 42.9868 55.5434 43.6534 56.8394C44.3316 58.1249 45.266 59.1359 46.4568 59.8743C47.6466 60.6126 48.9799 60.9809 50.4557 60.9809C51.5509 60.9809 52.5628 60.7953 53.4906 60.4271C54.4193 60.0589 55.2103 59.5347 55.8654 58.8556C56.5321 58.166 57.0314 57.3674 57.3652 56.4635H62.4717C62.091 58.2129 61.3344 59.7662 60.2039 61.1234C59.0849 62.4691 57.6808 63.5155 55.9907 64.2653C54.3007 65.0152 52.4432 65.3901 50.4203 65.3901V65.392ZM70.832 39.9676V60.5706H82.6873V64.9626H65.9761V39.9676H70.832Z" fill="white"/>
<path d="M67 84H39V89H67V84Z" fill="white"/>
</g>
<defs>
<filter id="filter0_d_4372_11680" x="9.5" y="10.75" width="109" height="109" filterUnits="userSpaceOnUse" color-interpolation-filters="sRGB">
<feFlood flood-opacity="0" result="BackgroundImageFix"/>
<feColorMatrix in="SourceAlpha" type="matrix" values="0 0 0 0 0 0 0 0 0 0 0 0 0 0 0 0 0 0 127 0" result="hardAlpha"/>
<feOffset dy="1.25"/>
<feGaussianBlur stdDeviation="1.25"/>
<feColorMatrix type="matrix" values="0 0 0 0 0 0 0 0 0 0 0 0 0 0 0 0 0 0 0.3 0"/>
<feBlend mode="normal" in2="BackgroundImageFix" result="effect1_dropShadow_4372_11680"/>
<feBlend mode="normal" in="SourceGraphic" in2="effect1_dropShadow_4372_11680" result="shape"/>
</filter>
<linearGradient id="paint0_linear_4372_11680" x1="13.6933" y1="49.8182" x2="66.6331" y2="49.8182" gradientUnits="userSpaceOnUse">
<stop  offset="0" stop-color="#009AE5"/>
<stop offset="1" stop-color="#FF318C"/>
</linearGradient>
</defs>
</svg>
