<svg width="512" height="512" viewBox="0 0 512 512" fill="none" xmlns="http://www.w3.org/2000/svg">
<g filter="url(#filter0_d_4372_11679)">
<path d="M462 199.818H162.364V462H366C419.019 462 462 419.019 462 366V199.818Z" fill="#00D886"/>
<path d="M274.727 50H146C92.9807 50 50 92.9807 50 146V349.636H274.727V50Z" fill="url(#paint0_linear_4372_11679)"/>
<path d="M462 199.818V146C462 92.9807 419.019 50 366 50H274.727L50 349.636V366C50 419.019 92.9807 462 146 462H162.364L462 199.818Z" fill="#FF318C"/>
<path d="M388 124H124V388H388V124Z" fill="black"/>
<path d="M204.499 259.659C195.12 259.659 186.626 257.461 179.017 253.077C171.412 248.641 165.438 242.577 161.096 234.878C156.757 227.135 154.586 218.498 154.586 208.977C154.586 199.456 156.757 190.846 161.096 183.147C165.435 175.403 171.408 169.332 179.017 164.948C186.622 160.512 195.116 158.3 204.499 158.3C212.43 158.3 219.712 159.77 226.339 162.71C232.965 165.65 238.47 169.778 242.857 175.1C247.29 180.376 250.252 186.44 251.749 193.298H231.727C230.419 189.755 228.461 186.65 225.847 183.987C223.279 181.283 220.177 179.202 216.536 177.758C212.895 176.315 208.927 175.587 204.637 175.587C198.851 175.587 193.624 177.031 188.958 179.926C184.293 182.821 180.63 186.811 177.967 191.896C175.353 196.936 174.048 202.632 174.048 208.977C174.048 215.322 175.353 221.045 177.967 226.126C180.626 231.166 184.29 235.13 188.958 238.025C193.624 240.92 198.851 242.363 204.637 242.363C208.931 242.363 212.899 241.636 216.536 240.192C220.177 238.748 223.279 236.693 225.847 234.031C228.461 231.327 230.419 228.196 231.727 224.652H251.749C250.256 231.511 247.29 237.601 242.857 242.922C238.47 248.198 232.965 252.301 226.339 255.241C219.712 258.181 212.43 259.651 204.499 259.651V259.659ZM284.527 159.976V240.755H331.009V257.975H265.489V159.976H284.527Z" fill="white"/>
<path d="M265 335H160V352H265V335Z" fill="white"/>
</g>
<defs>
<filter id="filter0_d_4372_11679" x="40" y="45" width="432" height="432" filterUnits="userSpaceOnUse" color-interpolation-filters="sRGB">
<feFlood flood-opacity="0" result="BackgroundImageFix"/>
<feColorMatrix in="SourceAlpha" type="matrix" values="0 0 0 0 0 0 0 0 0 0 0 0 0 0 0 0 0 0 127 0" result="hardAlpha"/>
<feOffset dy="5"/>
<feGaussianBlur stdDeviation="5"/>
<feColorMatrix type="matrix" values="0 0 0 0 0 0 0 0 0 0 0 0 0 0 0 0 0 0 0.3 0"/>
<feBlend mode="normal" in2="BackgroundImageFix" result="effect1_dropShadow_4372_11679"/>
<feBlend mode="normal" in="SourceGraphic" in2="effect1_dropShadow_4372_11679" result="shape"/>
</filter>
<linearGradient id="paint0_linear_4372_11679" x1="56.7081" y1="199.818" x2="266.431" y2="199.818" gradientUnits="userSpaceOnUse">
<stop  offset="0" stop-color="#009AE5"/>
<stop offset="1" stop-color="#FF318C"/>
</linearGradient>
</defs>
</svg>
