<svg width="64" height="64" viewBox="0 0 64 64" fill="none" xmlns="http://www.w3.org/2000/svg">
<g filter="url(#filter0_d_6179_27263)">
<path d="M57.9999 24.9092H20.1818V58.0001H45.9999C52.6274 58.0001 57.9999 52.6275 57.9999 46.0001V24.9092Z" fill="#00D886"/>
<path d="M34.3636 6H18C11.3726 6 6 11.3726 6 18V43.8182H34.3636V6Z" fill="url(#paint0_linear_6179_27263)"/>
<path d="M58 24.9091V18C58 11.3726 52.6274 6 46 6H34.3636L6 43.8182V46C6 52.6274 11.3726 58 18 58H20.1818L58 24.9091Z" fill="#FF318C"/>
<path d="M49 15H15V49H49V15Z" fill="black"/>
<path d="M25.2102 32.696C24.0141 32.696 22.9309 32.4158 21.9606 31.8567C20.9908 31.291 20.229 30.5177 19.6752 29.5359C19.1219 28.5484 18.845 27.447 18.845 26.2328C18.845 25.0186 19.1219 23.9206 19.6752 22.9388C20.2285 21.9512 20.9903 21.177 21.9606 20.6179C22.9305 20.0522 24.0136 19.77 25.2102 19.77C26.2216 19.77 27.1503 19.9575 27.9954 20.3324C28.8404 20.7073 29.5424 21.2339 30.102 21.9125C30.6672 22.5853 31.045 23.3586 31.2358 24.2333H28.6826C28.5157 23.7814 28.266 23.3854 27.9327 23.0459C27.6051 22.7011 27.2096 22.4357 26.7453 22.2515C26.2809 22.0674 25.775 21.9746 25.2279 21.9746C24.49 21.9746 23.8233 22.1588 23.2284 22.528C22.6335 22.8971 22.1663 23.406 21.8267 24.0545C21.4934 24.6972 21.327 25.4236 21.327 26.2328C21.327 27.0419 21.4934 27.7717 21.8267 28.4197C22.1658 29.0625 22.633 29.5679 23.2284 29.9371C23.8233 30.3063 24.49 30.4904 25.2279 30.4904C25.7754 30.4904 26.2814 30.3977 26.7453 30.2135C27.2096 30.0294 27.6051 29.7674 27.9327 29.4278C28.266 29.083 28.5157 28.6837 28.6826 28.2318H31.2358C31.0455 29.1064 30.6672 29.8831 30.102 30.5617C29.5424 31.2346 28.8404 31.7577 27.9954 32.1327C27.1503 32.5076 26.2216 32.6951 25.2102 32.6951V32.696ZM35.416 19.9838V30.2853H41.3436V32.4813H32.9881V19.9838H35.416Z" fill="white"/>
<path d="M34 41.5H20V44H34V41.5Z" fill="white"/>
</g>
<defs>
<filter id="filter0_d_6179_27263" x="4.75" y="5.35" width="54.5" height="54.5" filterUnits="userSpaceOnUse" color-interpolation-filters="sRGB">
<feFlood flood-opacity="0" result="BackgroundImageFix"/>
<feColorMatrix in="SourceAlpha" type="matrix" values="0 0 0 0 0 0 0 0 0 0 0 0 0 0 0 0 0 0 127 0" result="hardAlpha"/>
<feOffset dy="0.6"/>
<feGaussianBlur stdDeviation="0.625"/>
<feColorMatrix type="matrix" values="0 0 0 0 0 0 0 0 0 0 0 0 0 0 0 0 0 0 0.3 0"/>
<feBlend mode="normal" in2="BackgroundImageFix" result="effect1_dropShadow_6179_27263"/>
<feBlend mode="normal" in="SourceGraphic" in2="effect1_dropShadow_6179_27263" result="shape"/>
</filter>
<linearGradient id="paint0_linear_6179_27263" x1="6.84665" y1="24.9091" x2="33.3165" y2="24.9091" gradientUnits="userSpaceOnUse">
<stop  offset="0" stop-color="#009AE5"/>
<stop offset="1" stop-color="#FF318C"/>
</linearGradient>
</defs>
</svg>
