<svg width="32" height="32" viewBox="0 0 32 32" fill="none" xmlns="http://www.w3.org/2000/svg">
<path d="M30 12.1816H9.63635V29.9998H24C27.3137 29.9998 30 27.3135 30 23.9998V12.1816Z" fill="#00D886"/>
<path d="M17.2727 2H8C4.68629 2 2 4.68629 2 8V22.3636H17.2727V2Z" fill="url(#paint0_linear_4372_11681)"/>
<path d="M30 12.1818V8C30 4.68629 27.3137 2 24 2H17.2727L2 22.3636V24C2 27.3137 4.68629 30 8 30H9.63636L30 12.1818Z" fill="#FF318C"/>
<path d="M25 7H7V25H25V7Z" fill="black"/>
<path d="M12.055 16.139C11.3852 16.139 10.7786 15.9821 10.2351 15.669C9.69198 15.3521 9.26533 14.9191 8.95518 14.3692C8.64531 13.8162 8.49023 13.1993 8.49023 12.5193C8.49023 11.8393 8.64531 11.2244 8.95518 10.6745C9.26506 10.1215 9.69171 9.68785 10.2351 9.37476C10.7783 9.05792 11.3849 8.8999 12.055 8.8999C12.6215 8.8999 13.1416 9.00489 13.6149 9.21487C14.0881 9.42485 14.4813 9.71972 14.7946 10.0998C15.1112 10.4766 15.3228 10.9097 15.4297 11.3995H13.9997C13.9062 11.1464 13.7664 10.9247 13.5798 10.7345C13.3963 10.5414 13.1748 10.3928 12.9147 10.2897C12.6547 10.1865 12.3713 10.1346 12.0649 10.1346C11.6517 10.1346 11.2783 10.2377 10.9451 10.4445C10.612 10.6512 10.3503 10.9362 10.1601 11.2994C9.97347 11.6593 9.88026 12.0662 9.88026 12.5193C9.88026 12.9725 9.97347 13.3812 10.1601 13.7441C10.35 14.1041 10.6117 14.3872 10.9451 14.5939C11.2783 14.8007 11.6517 14.9038 12.0649 14.9038C12.3716 14.9038 12.655 14.8518 12.9147 14.7487C13.1748 14.6456 13.3963 14.4988 13.5798 14.3087C13.7664 14.1156 13.9062 13.8919 13.9997 13.6388H15.4297C15.3231 14.1287 15.1112 14.5637 14.7946 14.9437C14.4813 15.3205 14.0881 15.6135 13.6149 15.8235C13.1416 16.0335 12.6215 16.1385 12.055 16.1385V16.139ZM17.7707 9.01962V14.7889H21.0905V16.0188H16.411V9.01962H17.7707Z" fill="white"/>
<path d="M16 22H9V23H16V22Z" fill="white"/>
<defs>
<linearGradient id="paint0_linear_4372_11681" x1="2.45589" y1="12.1818" x2="16.7089" y2="12.1818" gradientUnits="userSpaceOnUse">
<stop  offset="0" stop-color="#009AE5"/>
<stop offset="1" stop-color="#FF318C"/>
</linearGradient>
</defs>
</svg>
