<svg width="1024" height="1024" viewBox="0 0 1024 1024" fill="none" xmlns="http://www.w3.org/2000/svg">
<g filter="url(#filter0_d_6180_42132)">
<path d="M924 399.636H324.727V924H732C838.039 924 924 838.038 924 732V399.636Z" fill="#00D886"/>
<path d="M549.455 100H292C185.961 100 100 185.961 100 292V699.273H549.455V100Z" fill="url(#paint0_linear_6180_42132)"/>
<path d="M924 399.636V292C924 185.961 838.039 100 732 100H549.455L100 699.273V732C100 838.039 185.961 924 292 924H324.727L924 399.636Z" fill="#FF318C"/>
<path d="M776 248H248V776H776V248Z" fill="black"/>
<path d="M408.997 519.317C390.24 519.317 373.252 514.922 358.034 506.154C342.824 497.282 330.877 485.154 322.192 469.757C313.514 454.269 309.172 436.997 309.172 417.954C309.172 398.912 313.514 381.692 322.192 366.294C330.869 350.807 342.817 338.664 358.034 329.897C373.244 321.024 390.232 316.599 408.997 316.599C424.86 316.599 439.425 319.539 452.677 325.419C465.93 331.299 476.94 339.557 485.715 350.199C494.58 360.752 500.505 372.879 503.497 386.597H463.455C460.837 379.509 456.922 373.299 451.695 367.974C446.557 362.567 440.355 358.404 433.072 355.517C425.79 352.629 417.855 351.174 409.275 351.174C397.702 351.174 387.247 354.062 377.917 359.852C368.587 365.642 361.259 373.622 355.934 383.792C350.707 393.872 348.097 405.264 348.097 417.954C348.097 430.644 350.707 442.089 355.934 452.252C361.252 462.332 368.579 470.259 377.917 476.049C387.247 481.839 397.702 484.727 409.275 484.727C417.862 484.727 425.797 483.272 433.072 480.384C440.355 477.497 446.557 473.387 451.695 468.062C456.922 462.654 460.837 456.392 463.455 449.304H503.497C500.512 463.022 494.58 475.202 485.715 485.844C476.94 496.397 465.93 504.602 452.677 510.482C439.425 516.362 424.86 519.302 408.997 519.302V519.317ZM569.055 319.952V481.509H662.017V515.949H530.977V319.952H569.055Z" fill="white"/>
<path d="M530 670H320V704H530V670Z" fill="white"/>
</g>
<defs>
<filter id="filter0_d_6180_42132" x="80" y="90" width="864" height="864" filterUnits="userSpaceOnUse" color-interpolation-filters="sRGB">
<feFlood flood-opacity="0" result="BackgroundImageFix"/>
<feColorMatrix in="SourceAlpha" type="matrix" values="0 0 0 0 0 0 0 0 0 0 0 0 0 0 0 0 0 0 127 0" result="hardAlpha"/>
<feOffset dy="10"/>
<feGaussianBlur stdDeviation="10"/>
<feColorMatrix type="matrix" values="0 0 0 0 0 0 0 0 0 0 0 0 0 0 0 0 0 0 0.3 0"/>
<feBlend mode="normal" in2="BackgroundImageFix" result="effect1_dropShadow_6180_42132"/>
<feBlend mode="normal" in="SourceGraphic" in2="effect1_dropShadow_6180_42132" result="shape"/>
</filter>
<linearGradient id="paint0_linear_6180_42132" x1="113.416" y1="399.636" x2="532.862" y2="399.636" gradientUnits="userSpaceOnUse">
<stop  offset="0" stop-color="#009AE5"/>
<stop offset="1" stop-color="#FF318C"/>
</linearGradient>
</defs>
</svg>
