<svg width="512" height="512" viewBox="0 0 512 512" fill="none" xmlns="http://www.w3.org/2000/svg">
<g filter="url(#filter0_d_4372_12222)">
<path d="M312.182 462H366C419.019 462 462 419.019 462 366L462 199.818H312.182V462Z" fill="url(#paint0_linear_4372_12222)"/>
<path d="M50 199.818L274.727 199.818V49.9999L146 49.9999C92.9807 49.9999 50 92.9806 50 146V199.818Z" fill="#00D886"/>
<path d="M50.0041 365.996C50.0018 419.017 92.9832 462 146.004 462H312.178L462 199.818V146C462 92.9807 419.019 50 366 50H274.727L50.0112 199.979L50.0041 365.996Z" fill="url(#paint1_linear_4372_12222)"/>
<path d="M388 124H124V388H388V124Z" fill="black"/>
<path d="M200.98 259.416C191.601 259.416 183.108 257.218 175.499 252.835C167.894 248.398 161.92 242.335 157.578 234.636C153.239 226.892 151.068 218.256 151.068 208.734C151.068 199.213 153.239 190.603 157.578 182.904C161.916 175.161 167.89 169.089 175.499 164.706C183.104 160.269 191.598 158.057 200.98 158.057C208.585 158.057 215.586 159.414 221.98 162.118C228.419 164.822 233.834 168.628 238.222 173.529C242.654 178.431 245.759 184.074 247.533 190.468H227.092C225.599 187.389 223.567 184.727 221.002 182.488C218.481 180.204 215.519 178.453 212.11 177.238C208.705 175.978 205.041 175.348 201.119 175.348C195.333 175.348 190.105 176.792 185.44 179.687C180.775 182.582 177.111 186.572 174.449 191.657C171.835 196.697 170.53 202.393 170.53 208.738C170.53 215.083 171.835 220.806 174.449 225.887C177.108 230.927 180.771 234.891 185.44 237.786C190.109 240.681 195.333 242.125 201.119 242.125C206.485 242.125 211.338 241.12 215.68 239.113C220.068 237.111 223.544 234.328 226.109 230.785C228.674 227.241 230.054 223.251 230.238 218.814L230.309 220.843H207.28V205.794H248.789V213.493C248.789 222.13 246.689 229.945 242.489 236.942C238.334 243.898 232.619 249.377 225.34 253.393C218.106 257.41 209.988 259.412 200.98 259.412V259.416ZM307.525 242.616C313.312 242.616 318.517 241.172 323.137 238.277C327.757 235.337 331.372 231.302 333.985 226.168C336.599 220.989 337.904 215.177 337.904 208.738C337.904 202.299 336.599 196.513 333.985 191.379C331.372 186.201 327.757 182.166 323.137 179.271C318.517 176.331 313.312 174.861 307.525 174.861C301.739 174.861 296.512 176.331 291.847 179.271C287.227 182.166 283.585 186.201 280.927 191.379C278.313 196.517 277.008 202.299 277.008 208.738C277.008 215.177 278.313 220.989 280.927 226.168C283.585 231.306 287.227 235.337 291.847 238.277C296.512 241.172 301.739 242.616 307.525 242.616ZM307.454 259.416C298.075 259.416 289.559 257.218 281.905 252.835C274.3 248.398 268.3 242.335 263.917 234.636C259.578 226.892 257.407 218.256 257.407 208.734C257.407 199.213 259.578 190.603 263.917 182.904C268.304 175.161 274.3 169.089 281.905 164.706C289.559 160.269 298.075 158.057 307.454 158.057C316.833 158.057 325.398 160.269 333.003 164.706C340.657 169.089 346.653 175.161 350.992 182.904C355.33 190.603 357.502 199.213 357.502 208.734C357.502 218.256 355.33 226.892 350.992 234.636C346.653 242.335 340.657 248.398 333.003 252.835C325.398 257.218 316.878 259.416 307.454 259.416Z" fill="white"/>
<path d="M265 335H160V352H265V335Z" fill="white"/>
</g>
<defs>
<filter id="filter0_d_4372_12222" x="40" y="45" width="432" height="432" filterUnits="userSpaceOnUse" color-interpolation-filters="sRGB">
<feFlood flood-opacity="0" result="BackgroundImageFix"/>
<feColorMatrix in="SourceAlpha" type="matrix" values="0 0 0 0 0 0 0 0 0 0 0 0 0 0 0 0 0 0 127 0" result="hardAlpha"/>
<feOffset dy="5"/>
<feGaussianBlur stdDeviation="5"/>
<feColorMatrix type="matrix" values="0 0 0 0 0 0 0 0 0 0 0 0 0 0 0 0 0 0 0.3 0"/>
<feBlend mode="normal" in2="BackgroundImageFix" result="effect1_dropShadow_4372_12222"/>
<feBlend mode="normal" in="SourceGraphic" in2="effect1_dropShadow_4372_12222" result="shape"/>
</filter>
<linearGradient id="paint0_linear_4372_12222" x1="387.091" y1="451.442" x2="387.091" y2="202.904" gradientUnits="userSpaceOnUse">
<stop  offset="0" stop-color="#00D886"/>
<stop offset="1" stop-color="#007DFE"/>
</linearGradient>
<linearGradient id="paint1_linear_4372_12222" x1="449.745" y1="62.3375" x2="65.2477" y2="446.835" gradientUnits="userSpaceOnUse">
<stop offset="0.19" stop-color="#007DFE"/>
<stop offset="0.83" stop-color="#D249FC"/>
</linearGradient>
</defs>
</svg>
