<svg width="1024" height="1024" viewBox="0 0 1024 1024" fill="none" xmlns="http://www.w3.org/2000/svg">
<g filter="url(#filter0_d_6180_42531)">
<path d="M624.364 924H732C838.039 924 924 838.039 924 732L924 399.636H624.364V924Z" fill="url(#paint0_linear_6180_42531)"/>
<path d="M100 399.636L549.455 399.636V99.9999L292 99.9999C185.961 99.9999 100 185.961 100 292V399.636Z" fill="#00D886"/>
<path d="M100.008 731.992C100.004 838.034 185.966 924 292.008 924H624.356L924 399.636V292C924 185.961 838.039 100 732 100H549.455L100.022 399.958L100.008 731.992Z" fill="url(#paint1_linear_6180_42531)"/>
<path d="M776 248H248V776H776V248Z" fill="black"/>
<path d="M401.96 518.832C383.203 518.832 366.215 514.437 350.998 505.669C335.788 496.797 323.84 484.669 315.155 469.272C306.478 453.784 302.135 436.511 302.135 417.469C302.135 398.426 306.478 381.206 315.155 365.809C323.833 350.321 335.78 338.179 350.998 329.411C366.208 320.539 383.195 316.114 401.96 316.114C417.17 316.114 431.173 318.829 443.96 324.236C456.838 329.644 467.668 337.256 476.443 347.059C485.308 356.861 491.518 368.149 495.066 380.936H454.183C451.198 374.779 447.133 369.454 442.003 364.976C436.963 360.409 431.038 356.906 424.22 354.476C417.41 351.956 410.083 350.696 402.238 350.696C390.665 350.696 380.21 353.584 370.88 359.374C361.55 365.164 354.223 373.144 348.898 383.314C343.67 393.394 341.06 404.786 341.06 417.476C341.06 430.166 343.67 441.611 348.898 451.774C354.215 461.854 361.543 469.782 370.88 475.572C380.218 481.362 390.665 484.249 402.238 484.249C412.97 484.249 422.675 482.239 431.36 478.227C440.135 474.222 447.088 468.657 452.218 461.569C457.348 454.482 460.108 446.502 460.476 437.629L460.618 441.687H414.56V411.589H497.578V426.986C497.578 444.259 493.378 459.889 484.978 473.884C476.668 487.797 465.238 498.754 450.68 506.787C436.213 514.819 419.975 518.824 401.96 518.824V518.832ZM615.051 485.232C626.623 485.232 637.033 482.344 646.273 476.554C655.513 470.674 662.743 462.604 667.971 452.337C673.198 441.979 675.808 430.354 675.808 417.476C675.808 404.599 673.198 393.026 667.971 382.759C662.743 372.401 655.513 364.331 646.273 358.541C637.033 352.661 626.623 349.721 615.051 349.721C603.478 349.721 593.023 352.661 583.693 358.541C574.453 364.331 567.171 372.401 561.853 382.759C556.626 393.034 554.016 404.599 554.016 417.476C554.016 430.354 556.626 441.979 561.853 452.337C567.171 462.612 574.453 470.674 583.693 476.554C593.023 482.344 603.478 485.232 615.051 485.232ZM614.908 518.832C596.151 518.832 579.118 514.437 563.811 505.669C548.601 496.797 536.601 484.669 527.833 469.272C519.156 453.784 514.813 436.511 514.813 417.469C514.813 398.426 519.156 381.206 527.833 365.809C536.608 350.321 548.601 338.179 563.811 329.411C579.118 320.539 596.151 316.114 614.908 316.114C633.666 316.114 650.796 320.539 666.006 329.411C681.313 338.179 693.306 350.321 701.983 365.809C710.661 381.206 715.003 398.426 715.003 417.469C715.003 436.511 710.661 453.784 701.983 469.272C693.306 484.669 681.313 496.797 666.006 505.669C650.796 514.437 633.756 518.832 614.908 518.832Z" fill="white"/>
<path d="M530 670H320V704H530V670Z" fill="white"/>
</g>
<defs>
<filter id="filter0_d_6180_42531" x="80" y="90" width="864" height="864" filterUnits="userSpaceOnUse" color-interpolation-filters="sRGB">
<feFlood flood-opacity="0" result="BackgroundImageFix"/>
<feColorMatrix in="SourceAlpha" type="matrix" values="0 0 0 0 0 0 0 0 0 0 0 0 0 0 0 0 0 0 127 0" result="hardAlpha"/>
<feOffset dy="10"/>
<feGaussianBlur stdDeviation="10"/>
<feColorMatrix type="matrix" values="0 0 0 0 0 0 0 0 0 0 0 0 0 0 0 0 0 0 0.3 0"/>
<feBlend mode="normal" in2="BackgroundImageFix" result="effect1_dropShadow_6180_42531"/>
<feBlend mode="normal" in="SourceGraphic" in2="effect1_dropShadow_6180_42531" result="shape"/>
</filter>
<linearGradient id="paint0_linear_6180_42531" x1="774.182" y1="902.883" x2="774.182" y2="405.809" gradientUnits="userSpaceOnUse">
<stop  offset="0" stop-color="#00D886"/>
<stop offset="1" stop-color="#007DFE"/>
</linearGradient>
<linearGradient id="paint1_linear_6180_42531" x1="899.49" y1="124.675" x2="130.495" y2="893.669" gradientUnits="userSpaceOnUse">
<stop offset="0.19" stop-color="#007DFE"/>
<stop offset="0.83" stop-color="#D249FC"/>
</linearGradient>
</defs>
</svg>
