<svg width="256" height="256" viewBox="0 0 256 256" fill="none" xmlns="http://www.w3.org/2000/svg">
<g filter="url(#filter0_d_4372_12221)">
<path d="M156.091 231H183C209.51 231 231 209.51 231 183L231 99.9091H156.091V231Z" fill="url(#paint0_linear_4372_12221)"/>
<path d="M25.0001 99.9092L137.364 99.9092V25.0001L73.0001 25.0001C46.4905 25.0001 25.0001 46.4904 25.0001 73.0001V99.9092Z" fill="#00D886"/>
<path d="M25.0021 182.998C25.0009 209.508 46.4916 231 73.0021 231H156.089L231 99.9091V73C231 46.4903 209.51 25 183 25H137.364L25.0056 99.9896L25.0021 182.998Z" fill="url(#paint1_linear_4372_12221)"/>
<path d="M194 62H62V194H194V62Z" fill="black"/>
<path d="M100.49 129.708C95.8006 129.708 91.5537 128.609 87.7493 126.417C83.9468 124.199 80.96 121.167 78.7887 117.318C76.6193 113.446 75.5337 109.128 75.5337 104.367C75.5337 99.6067 76.6193 95.3017 78.7887 91.4523C80.9581 87.5805 83.945 84.5448 87.7493 82.3529C91.5518 80.1348 95.7987 79.0286 100.49 79.0286C104.292 79.0286 107.793 79.7073 110.99 81.0592C114.209 82.4111 116.917 84.3142 119.111 86.7648C121.327 89.2155 122.879 92.0373 123.766 95.2342H113.546C112.799 93.6948 111.783 92.3636 110.501 91.2442C109.241 90.1023 107.759 89.2267 106.055 88.6192C104.352 87.9892 102.521 87.6742 100.559 87.6742C97.6662 87.6742 95.0525 88.3961 92.72 89.8436C90.3875 91.2911 88.5556 93.2861 87.2243 95.8286C85.9175 98.3486 85.265 101.197 85.265 104.369C85.265 107.542 85.9175 110.403 87.2243 112.944C88.5537 115.464 90.3856 117.446 92.72 118.893C95.0543 120.341 97.6662 121.062 100.559 121.062C103.242 121.062 105.669 120.56 107.84 119.557C110.034 118.556 111.772 117.164 113.054 115.392C114.337 113.621 115.027 111.626 115.119 109.407L115.154 110.422H103.64V102.897H124.394V106.747C124.394 111.065 123.344 114.972 121.244 118.471C119.167 121.949 116.309 124.689 112.67 126.697C109.053 128.705 104.994 129.706 100.49 129.706V129.708ZM153.763 121.308C156.656 121.308 159.258 120.586 161.568 119.139C163.878 117.669 165.686 115.651 166.993 113.084C168.299 110.495 168.952 107.589 168.952 104.369C168.952 101.15 168.299 98.2567 166.993 95.6898C165.686 93.1005 163.878 91.083 161.568 89.6355C159.258 88.1655 156.656 87.4305 153.763 87.4305C150.869 87.4305 148.256 88.1655 145.923 89.6355C143.613 91.083 141.793 93.1005 140.463 95.6898C139.156 98.2586 138.504 101.15 138.504 104.369C138.504 107.589 139.156 110.495 140.463 113.084C141.793 115.653 143.613 117.669 145.923 119.139C148.256 120.586 150.869 121.308 153.763 121.308ZM153.727 129.708C149.038 129.708 144.779 128.609 140.953 126.417C137.15 124.199 134.15 121.167 131.958 117.318C129.789 113.446 128.703 109.128 128.703 104.367C128.703 99.6067 129.789 95.3017 131.958 91.4523C134.152 87.5805 137.15 84.5448 140.953 82.3529C144.779 80.1348 149.038 79.0286 153.727 79.0286C158.416 79.0286 162.699 80.1348 166.501 82.3529C170.328 84.5448 173.326 87.5805 175.496 91.4523C177.665 95.3017 178.751 99.6067 178.751 104.367C178.751 109.128 177.665 113.446 175.496 117.318C173.326 121.167 170.328 124.199 166.501 126.417C162.699 128.609 158.439 129.708 153.727 129.708Z" fill="white"/>
<path d="M132.5 167.5H80V176H132.5V167.5Z" fill="white"/>
</g>
<defs>
<filter id="filter0_d_4372_12221" x="20" y="22.5" width="216" height="216" filterUnits="userSpaceOnUse" color-interpolation-filters="sRGB">
<feFlood flood-opacity="0" result="BackgroundImageFix"/>
<feColorMatrix in="SourceAlpha" type="matrix" values="0 0 0 0 0 0 0 0 0 0 0 0 0 0 0 0 0 0 127 0" result="hardAlpha"/>
<feOffset dy="2.5"/>
<feGaussianBlur stdDeviation="2.5"/>
<feColorMatrix type="matrix" values="0 0 0 0 0 0 0 0 0 0 0 0 0 0 0 0 0 0 0.3 0"/>
<feBlend mode="normal" in2="BackgroundImageFix" result="effect1_dropShadow_4372_12221"/>
<feBlend mode="normal" in="SourceGraphic" in2="effect1_dropShadow_4372_12221" result="shape"/>
</filter>
<linearGradient id="paint0_linear_4372_12221" x1="193.545" y1="225.721" x2="193.545" y2="101.452" gradientUnits="userSpaceOnUse">
<stop  offset="0" stop-color="#00D886"/>
<stop offset="1" stop-color="#007DFE"/>
</linearGradient>
<linearGradient id="paint1_linear_4372_12221" x1="224.872" y1="31.1688" x2="32.6239" y2="223.417" gradientUnits="userSpaceOnUse">
<stop offset="0.19" stop-color="#007DFE"/>
<stop offset="0.83" stop-color="#D249FC"/>
</linearGradient>
</defs>
</svg>
