<svg width="64" height="64" viewBox="0 0 64 64" fill="none" xmlns="http://www.w3.org/2000/svg">
<g filter="url(#filter0_d_6179_27266)">
<path d="M39.0909 58H46C52.6274 58 58 52.6274 58 46L58 24.9091H39.0909V58Z" fill="url(#paint0_linear_6179_27266)"/>
<path d="M6.00013 24.9092L34.3638 24.9092V6.00009L18.0001 6.00009C11.3727 6.00009 6.00013 11.3727 6.00013 18.0001V24.9092Z" fill="#00D886"/>
<path d="M6.00051 45.9995C6.00023 52.6271 11.3729 58 18.0005 58H39.0904L58 24.9091V18C58 11.3726 52.6274 6 46 6H34.3636L6.00142 24.9294L6.00051 45.9995Z" fill="url(#paint1_linear_6179_27266)"/>
<path d="M49 15H15V49H49V15Z" fill="black"/>
<path d="M24.7702 32.696C23.5742 32.696 22.491 32.4158 21.5207 31.8567C20.5508 31.291 19.789 30.5177 19.2352 29.5359C18.6819 28.5484 18.405 27.447 18.405 26.2328C18.405 25.0186 18.6819 23.9206 19.2352 22.9388C19.7885 21.9512 20.5504 21.177 21.5207 20.6179C22.4905 20.0522 23.5737 19.77 24.7702 19.77C25.7401 19.77 26.6329 19.9431 27.4483 20.2879C28.2694 20.6327 28.96 21.1181 29.5195 21.7432C30.0848 22.3682 30.4807 23.088 30.7069 23.9033H28.1001C27.9098 23.5107 27.6506 23.1712 27.3235 22.8857C27.0021 22.5944 26.6243 22.3711 26.1896 22.2162C25.7554 22.0555 25.2882 21.9751 24.7879 21.9751C24.05 21.9751 23.3834 22.1592 22.7885 22.5284C22.1935 22.8976 21.7263 23.4065 21.3868 24.0549C21.0535 24.6977 20.887 25.4241 20.887 26.2333C20.887 27.0424 21.0535 27.7722 21.3868 28.4202C21.7258 29.0629 22.1931 29.5684 22.7885 29.9376C23.3839 30.3068 24.05 30.4909 24.7879 30.4909C25.4723 30.4909 26.0911 30.3628 26.6449 30.1069C27.2044 29.8515 27.6477 29.4967 27.9748 29.0448C28.3019 28.5928 28.4779 28.084 28.5014 27.5183L28.5104 27.777H25.5737V25.8579H30.8672V26.8397C30.8672 27.941 30.5993 28.9376 30.0637 29.83C29.5339 30.7171 28.805 31.4158 27.8768 31.928C26.9543 32.4402 25.9189 32.6955 24.7702 32.6955V32.696ZM38.3576 30.5536C39.0955 30.5536 39.7593 30.3694 40.3485 30.0003C40.9377 29.6253 41.3987 29.1108 41.732 28.4561C42.0653 27.7956 42.2317 27.0544 42.2317 26.2333C42.2317 25.4121 42.0653 24.6742 41.732 24.0195C41.3987 23.3591 40.9377 22.8445 40.3485 22.4754C39.7593 22.1004 39.0955 21.913 38.3576 21.913C37.6197 21.913 36.9531 22.1004 36.3582 22.4754C35.769 22.8445 35.3046 23.3591 34.9656 24.0195C34.6322 24.6747 34.4658 25.4121 34.4658 26.2333C34.4658 27.0544 34.6322 27.7956 34.9656 28.4561C35.3046 29.1112 35.769 29.6253 36.3582 30.0003C36.9531 30.3694 37.6197 30.5536 38.3576 30.5536ZM38.3485 32.696C37.1525 32.696 36.0664 32.4158 35.0904 31.8567C34.1205 31.291 33.3554 30.5177 32.7963 29.5359C32.243 28.5484 31.9661 27.447 31.9661 26.2328C31.9661 25.0186 32.243 23.9206 32.7963 22.9388C33.3558 21.9512 34.1205 21.177 35.0904 20.6179C36.0664 20.0522 37.1525 19.77 38.3485 19.77C39.5446 19.77 40.6369 20.0522 41.6067 20.6179C42.5828 21.177 43.3474 21.9512 43.9008 22.9388C44.4541 23.9206 44.731 25.0186 44.731 26.2328C44.731 27.447 44.4541 28.5484 43.9008 29.5359C43.3474 30.5177 42.5828 31.291 41.6067 31.8567C40.6369 32.4158 39.5503 32.696 38.3485 32.696Z" fill="white"/>
<path d="M34 41.5H20V44H34V41.5Z" fill="white"/>
</g>
<defs>
<filter id="filter0_d_6179_27266" x="4.75" y="5.35" width="54.5" height="54.5" filterUnits="userSpaceOnUse" color-interpolation-filters="sRGB">
<feFlood flood-opacity="0" result="BackgroundImageFix"/>
<feColorMatrix in="SourceAlpha" type="matrix" values="0 0 0 0 0 0 0 0 0 0 0 0 0 0 0 0 0 0 127 0" result="hardAlpha"/>
<feOffset dy="0.6"/>
<feGaussianBlur stdDeviation="0.625"/>
<feColorMatrix type="matrix" values="0 0 0 0 0 0 0 0 0 0 0 0 0 0 0 0 0 0 0.3 0"/>
<feBlend mode="normal" in2="BackgroundImageFix" result="effect1_dropShadow_6179_27266"/>
<feBlend mode="normal" in="SourceGraphic" in2="effect1_dropShadow_6179_27266" result="shape"/>
</filter>
<linearGradient id="paint0_linear_6179_27266" x1="48.5455" y1="56.6674" x2="48.5455" y2="25.2986" gradientUnits="userSpaceOnUse">
<stop  offset="0" stop-color="#00D886"/>
<stop offset="1" stop-color="#007DFE"/>
</linearGradient>
<linearGradient id="paint1_linear_6179_27266" x1="56.4532" y1="7.55716" x2="7.92447" y2="56.0859" gradientUnits="userSpaceOnUse">
<stop offset="0.19" stop-color="#007DFE"/>
<stop offset="0.83" stop-color="#D249FC"/>
</linearGradient>
</defs>
</svg>
