<svg width="32" height="32" viewBox="0 0 32 32" fill="none" xmlns="http://www.w3.org/2000/svg">
<path d="M19.8182 30H24C27.3137 30 30 27.3137 30 24L30 12.1818H19.8182V30Z" fill="url(#paint0_linear_4372_12224)"/>
<path d="M1.99998 12.1816L17.2727 12.1816V1.99982L7.99998 1.99982C4.68627 1.99982 1.99998 4.68611 1.99998 7.99982V12.1816Z" fill="#00D886"/>
<path d="M2.00026 23.9997C2.00012 27.3136 4.68645 30 8.00026 30H19.8179L30 12.1818V8C30 4.68629 27.3137 2 24 2H17.2727L2.00076 12.1928L2.00026 23.9997Z" fill="url(#paint1_linear_4372_12224)"/>
<path d="M25 7H7V25H25V7Z" fill="black"/>
<path d="M12.2647 16.139C11.5949 16.139 10.9883 15.9821 10.4449 15.669C9.9017 15.3521 9.47505 14.9191 9.1649 14.3692C8.85502 13.8162 8.69995 13.1993 8.69995 12.5193C8.69995 11.8393 8.85502 11.2244 9.1649 10.6745C9.47478 10.1215 9.90143 9.68785 10.4449 9.37476C10.988 9.05792 11.5946 8.8999 12.2647 8.8999C12.8079 8.8999 13.3079 8.99686 13.7646 9.18996C14.2244 9.38306 14.6112 9.65491 14.9245 10.005C15.2411 10.355 15.4629 10.7581 15.5896 11.2147H14.1296C14.023 10.9949 13.8779 10.8047 13.6947 10.6448C13.5147 10.4817 13.3031 10.3566 13.0597 10.2698C12.8165 10.1799 12.5548 10.1349 12.2746 10.1349C11.8614 10.1349 11.488 10.238 11.1549 10.4447C10.8217 10.6515 10.56 10.9365 10.3699 11.2996C10.1832 11.6596 10.09 12.0664 10.09 12.5196C10.09 12.9728 10.1832 13.3815 10.3699 13.7444C10.5597 14.1043 10.8214 14.3874 11.1549 14.5942C11.4883 14.801 11.8614 14.9041 12.2746 14.9041C12.6579 14.9041 13.0045 14.8323 13.3146 14.689C13.628 14.546 13.8763 14.3473 14.0595 14.0942C14.2426 13.8411 14.3412 13.5561 14.3543 13.2392L14.3594 13.3841H12.7147V12.3094H15.6793V12.8592C15.6793 13.476 15.5293 14.0342 15.2293 14.5339C14.9326 15.0307 14.5244 15.422 14.0045 15.7089C13.4879 15.9957 12.9081 16.1388 12.2647 16.1388V16.139ZM19.8743 14.9392C20.2875 14.9392 20.6593 14.836 20.9892 14.6293C21.3192 14.4193 21.5774 14.1311 21.7641 13.7645C21.9507 13.3946 22.0439 12.9795 22.0439 12.5196C22.0439 12.0597 21.9507 11.6465 21.7641 11.2798C21.5774 10.91 21.3192 10.6218 20.9892 10.415C20.6593 10.205 20.2875 10.1 19.8743 10.1C19.461 10.1 19.0877 10.205 18.7545 10.415C18.4245 10.6218 18.1645 10.91 17.9746 11.2798C17.7879 11.6467 17.6947 12.0597 17.6947 12.5196C17.6947 12.9795 17.7879 13.3946 17.9746 13.7645C18.1645 14.1314 18.4245 14.4193 18.7545 14.6293C19.0877 14.836 19.461 14.9392 19.8743 14.9392ZM19.8692 16.139C19.1993 16.139 18.5911 15.9821 18.0445 15.669C17.5013 15.3521 17.0728 14.9191 16.7597 14.3692C16.4498 13.8162 16.2947 13.1993 16.2947 12.5193C16.2947 11.8393 16.4498 11.2244 16.7597 10.6745C17.0731 10.1215 17.5013 9.68785 18.0445 9.37476C18.5911 9.05792 19.1993 8.8999 19.8692 8.8999C20.539 8.8999 21.1507 9.05792 21.6939 9.37476C22.2405 9.68785 22.6688 10.1215 22.9787 10.6745C23.2885 11.2244 23.4436 11.8393 23.4436 12.5193C23.4436 13.1993 23.2885 13.8162 22.9787 14.3692C22.6688 14.9191 22.2405 15.3521 21.6939 15.669C21.1507 15.9821 20.5422 16.139 19.8692 16.139Z" fill="white"/>
<path d="M16 22H9V23H16V22Z" fill="white"/>
<defs>
<linearGradient id="paint0_linear_4372_12224" x1="24.9091" y1="29.2824" x2="24.9091" y2="12.3916" gradientUnits="userSpaceOnUse">
<stop  offset="0" stop-color="#00D886"/>
<stop offset="1" stop-color="#007DFE"/>
</linearGradient>
<linearGradient id="paint1_linear_4372_12224" x1="29.1671" y1="2.83847" x2="3.03625" y2="28.9693" gradientUnits="userSpaceOnUse">
<stop offset="0.19" stop-color="#007DFE"/>
<stop offset="0.83" stop-color="#D249FC"/>
</linearGradient>
</defs>
</svg>
