<svg width="128" height="128" viewBox="0 0 128 128" fill="none" xmlns="http://www.w3.org/2000/svg">
<g filter="url(#filter0_d_4372_12223)">
<path d="M78.1818 116H92C105.255 116 116 105.255 116 92L116 49.8182H78.1818V116Z" fill="url(#paint0_linear_4372_12223)"/>
<path d="M12 49.8181L68.7273 49.8181V11.9999L36 11.9999C22.7452 11.9999 12 22.7451 12 35.9999V49.8181Z" fill="#00D886"/>
<path d="M12.001 91.999C12.0005 105.254 22.7458 116 36.001 116H78.1809L116 49.8182V36C116 22.7452 105.255 12 92 12H68.7273L12.0028 49.8588L12.001 91.999Z" fill="url(#paint1_linear_4372_12223)"/>
<path d="M97 31H31V97H97V31Z" fill="black"/>
<path d="M49.5405 65.392C47.1484 65.392 44.982 64.8316 43.0414 63.7135C41.1017 62.582 39.578 61.0354 38.4705 59.0718C37.3638 57.0967 36.8101 54.894 36.8101 52.4656C36.8101 50.0371 37.3638 47.8411 38.4705 45.8775C39.5771 43.9024 41.1007 42.3539 43.0414 41.2358C44.981 40.1043 47.1474 39.54 49.5405 39.54C51.4802 39.54 53.2659 39.8863 54.8966 40.5759C56.5388 41.2655 57.92 42.2363 59.039 43.4864C60.1695 44.7365 60.9615 46.1759 61.4139 47.8067H56.2003C55.8196 47.0214 55.3012 46.3423 54.647 45.7713C54.0042 45.1889 53.2486 44.7422 52.3792 44.4323C51.5108 44.1109 50.5763 43.9503 49.5759 43.9503C48.1 43.9503 46.7667 44.3185 45.5769 45.0569C44.3871 45.7953 43.4526 46.8129 42.7736 48.1099C42.1069 49.3953 41.7741 50.8482 41.7741 52.4665C41.7741 54.0848 42.1069 55.5444 42.7736 56.8404C43.4517 58.1259 44.3861 59.1368 45.5769 59.8752C46.7677 60.6136 48.1 60.9818 49.5759 60.9818C50.9445 60.9818 52.1822 60.7255 53.2898 60.2138C54.4088 59.7031 55.2955 58.9934 55.9497 58.0895C56.6039 57.1857 56.9559 56.168 57.0027 55.0365L57.0209 55.554H51.1473V51.7157H61.7343V53.6793C61.7343 55.882 61.1987 57.8753 60.1275 59.66C59.0677 61.4342 57.6101 62.8316 55.7536 63.856C53.9086 64.8803 51.8379 65.3911 49.5405 65.3911V65.392ZM76.7152 61.1071C78.1911 61.1071 79.5186 60.7389 80.697 60.0005C81.8753 59.2507 82.7973 58.2215 83.464 56.9121C84.1306 55.5913 84.4635 54.1088 84.4635 52.4665C84.4635 50.8243 84.1306 49.3485 83.464 48.0391C82.7973 46.7182 81.8753 45.6891 80.697 44.9507C79.5186 44.2008 78.1911 43.8259 76.7152 43.8259C75.2394 43.8259 73.9061 44.2008 72.7163 44.9507C71.538 45.6891 70.6092 46.7182 69.9311 48.0391C69.2645 49.3494 68.9316 50.8243 68.9316 52.4665C68.9316 54.1088 69.2645 55.5913 69.9311 56.9121C70.6092 58.2225 71.538 59.2507 72.7163 60.0005C73.9061 60.7389 75.2394 61.1071 76.7152 61.1071ZM76.6971 65.392C74.305 65.392 72.1329 64.8316 70.1807 63.7135C68.2411 62.582 66.7107 61.0354 65.5926 59.0718C64.486 57.0967 63.9322 54.894 63.9322 52.4656C63.9322 50.0371 64.486 47.8411 65.5926 45.8775C66.7117 43.9024 68.2411 42.3539 70.1807 41.2358C72.1329 40.1043 74.305 39.54 76.6971 39.54C79.0892 39.54 81.2737 40.1043 83.2134 41.2358C85.1655 42.3539 86.6949 43.9024 87.8015 45.8775C88.9081 47.8411 89.4619 50.0371 89.4619 52.4656C89.4619 54.894 88.9081 57.0967 87.8015 59.0718C86.6949 61.0354 85.1655 62.582 83.2134 63.7135C81.2737 64.8316 79.1006 65.392 76.6971 65.392Z" fill="white"/>
<path d="M67 84H39V89H67V84Z" fill="white"/>
</g>
<defs>
<filter id="filter0_d_4372_12223" x="9.5" y="10.75" width="109" height="109" filterUnits="userSpaceOnUse" color-interpolation-filters="sRGB">
<feFlood flood-opacity="0" result="BackgroundImageFix"/>
<feColorMatrix in="SourceAlpha" type="matrix" values="0 0 0 0 0 0 0 0 0 0 0 0 0 0 0 0 0 0 127 0" result="hardAlpha"/>
<feOffset dy="1.25"/>
<feGaussianBlur stdDeviation="1.25"/>
<feColorMatrix type="matrix" values="0 0 0 0 0 0 0 0 0 0 0 0 0 0 0 0 0 0 0.3 0"/>
<feBlend mode="normal" in2="BackgroundImageFix" result="effect1_dropShadow_4372_12223"/>
<feBlend mode="normal" in="SourceGraphic" in2="effect1_dropShadow_4372_12223" result="shape"/>
</filter>
<linearGradient id="paint0_linear_4372_12223" x1="97.0909" y1="113.335" x2="97.0909" y2="50.5972" gradientUnits="userSpaceOnUse">
<stop  offset="0" stop-color="#00D886"/>
<stop offset="1" stop-color="#007DFE"/>
</linearGradient>
<linearGradient id="paint1_linear_4372_12223" x1="112.906" y1="15.1143" x2="15.8489" y2="112.172" gradientUnits="userSpaceOnUse">
<stop offset="0.19" stop-color="#007DFE"/>
<stop offset="0.83" stop-color="#D249FC"/>
</linearGradient>
</defs>
</svg>
