<svg width="16" height="16" viewBox="0 0 16 16" fill="none" xmlns="http://www.w3.org/2000/svg">
<path d="M16 0H0V16H16V0Z" fill="#087CFA"/>
<path d="M14.9998 1H0.999756V15H14.9998V1Z" fill="black"/>
<path d="M10.673 7.28714C10.9816 7.28714 11.2592 7.21014 11.5056 7.05574C11.752 6.89894 11.9448 6.68374 12.0842 6.40994C12.2236 6.13374 12.2932 5.82374 12.2932 5.48034C12.2932 5.13694 12.2236 4.82834 12.0842 4.55454C11.9448 4.27834 11.752 4.06314 11.5056 3.90874C11.2592 3.75194 10.9816 3.67354 10.673 3.67354C10.3644 3.67354 10.0856 3.75194 9.8368 3.90874C9.5904 4.06314 9.3962 4.27834 9.2544 4.55454C9.115 4.82854 9.0454 5.13694 9.0454 5.48034C9.0454 5.82374 9.115 6.13374 9.2544 6.40994C9.3962 6.68394 9.5904 6.89894 9.8368 7.05574C10.0856 7.21014 10.3644 7.28714 10.673 7.28714ZM10.6692 8.18314C10.169 8.18314 9.7148 8.06594 9.3066 7.83214C8.901 7.59554 8.581 7.27214 8.3472 6.86154C8.1158 6.44854 8 5.98794 8 5.48014C8 4.97234 8.1158 4.51314 8.3472 4.10254C8.5812 3.68954 8.901 3.36574 9.3066 3.13194C9.7148 2.89534 10.169 2.77734 10.6692 2.77734C11.1694 2.77734 11.6262 2.89534 12.0318 3.13194C12.44 3.36574 12.7598 3.68954 12.9912 4.10254C13.2226 4.51314 13.3384 4.97234 13.3384 5.48014C13.3384 5.98794 13.2226 6.44854 12.9912 6.86154C12.7598 7.27214 12.44 7.59554 12.0318 7.83214C11.6262 8.06594 11.1718 8.18314 10.6692 8.18314Z" fill="white"/>
<path d="M4.662 8.18314C4.1618 8.18314 3.7088 8.06594 3.303 7.83214C2.8974 7.59554 2.5788 7.27214 2.3472 6.86154C2.1158 6.44854 2 5.98794 2 5.48014C2 4.97234 2.1158 4.51314 2.3472 4.10254C2.5786 3.68954 2.8972 3.36574 3.303 3.13194C3.7086 2.89534 4.1616 2.77734 4.662 2.77734C5.0676 2.77734 5.441 2.84974 5.782 2.99394C6.1254 3.13814 6.4142 3.34114 6.6482 3.60254C6.8846 3.86394 7.0502 4.16494 7.1448 4.50594H6.0546C5.975 4.34174 5.8666 4.19974 5.7298 4.08034C5.5954 3.95854 5.4374 3.86514 5.2556 3.80034C5.074 3.73314 4.8786 3.69954 4.6694 3.69954C4.3608 3.69954 4.082 3.77654 3.8332 3.93094C3.5844 4.08534 3.389 4.29814 3.247 4.56934C3.1076 4.83814 3.038 5.14194 3.038 5.48034C3.038 5.81874 3.1076 6.12394 3.247 6.39494C3.3888 6.66374 3.5842 6.87514 3.8332 7.02954C4.0822 7.18394 4.3608 7.26094 4.6694 7.26094C4.9556 7.26094 5.2144 7.20734 5.446 7.10034C5.68 6.99354 5.8654 6.84514 6.0022 6.65614C6.11782 6.49641 6.18829 6.31968 6.21326 6.12594H4.998V5.32334H7.2118V5.73394C7.2118 6.19454 7.0998 6.61134 6.8758 6.98454C6.6542 7.35554 6.3494 7.64774 5.9612 7.86194C5.5754 8.07614 5.1424 8.18314 4.662 8.18314Z" fill="white"/>
<path d="M8 12H3V13H8V12Z" fill="white"/>
</svg>
