<svg width="128" height="128" viewBox="0 0 128 128" fill="none" xmlns="http://www.w3.org/2000/svg">
<g clip-path="url(#clip0_4372_12085)">
<path d="M128 119.854V51.9178C128 48.6596 126.058 45.7145 123.064 44.431L48.0826 12.2948C47.0691 11.8608 45.9764 11.6362 44.8733 11.6362H8.14545C3.64684 11.6362 0 15.2831 0 19.7817V55.7136C0 57.3229 0.477091 58.8962 1.37076 60.2355L44.1775 124.373C45.6879 126.637 48.2304 127.996 50.9521 127.996L119.855 128C124.353 128 128 124.353 128 119.854Z" fill="url(#paint0_linear_4372_12085)"/>
<path d="M116.364 29.0385V8.14545C116.364 3.64684 112.717 0 108.218 0H82.0329C81.6477 0 81.2626 0.0279273 80.8809 0.0814545L6.99345 10.6368C2.98124 11.2093 0 14.6467 0 18.6996V50.0457C0 54.5454 3.648 58.1923 8.14778 58.1911L45.2247 58.1818C46.0998 58.1818 46.969 58.041 47.7987 57.7641L110.794 36.7651C114.12 35.6561 116.364 32.5434 116.364 29.0374V29.0385Z" fill="url(#paint1_linear_4372_12085)"/>
<path d="M116.364 31.8953L116.36 8.14429C116.359 3.64684 112.712 0 108.215 0H85.2014C82.8241 0 80.5644 1.03913 79.0167 2.84393L13.5971 79.1668C12.3322 80.6435 11.6364 82.5239 11.6364 84.4684V108.219C11.6364 112.718 15.2832 116.365 19.7818 116.365H42.7985C45.1758 116.365 47.4356 115.326 48.9833 113.521L114.403 37.198C115.669 35.7213 116.364 33.8409 116.364 31.8953Z" fill="#F0EB18"/>
<path d="M105 23H23V105H105V23Z" fill="black"/>
<path d="M66 89H34V94H66V89Z" fill="white"/>
<path d="M34.1414 34.055H45.9427C48.8797 34.055 51.5071 34.7193 53.8249 36.0478C56.157 37.3763 57.9802 39.2303 59.2945 41.5837C60.6076 43.9359 61.2647 46.593 61.2647 49.5549C61.2647 52.5168 60.6076 55.1739 59.2945 57.5534C57.9802 59.9056 56.157 61.7323 53.8249 63.0608C51.5071 64.3893 48.8797 65.0536 45.9427 65.0536H34.1414V34.055ZM45.8763 59.8237C47.722 59.8237 49.3376 59.4085 50.7254 58.5782C52.1133 57.7752 53.1832 56.5854 53.9364 55.0351C54.6897 53.4847 55.0657 51.658 55.0657 49.5549C55.0657 47.4518 54.6897 45.6251 53.9364 44.0747C53.1832 42.5244 52.1133 41.3346 50.7254 40.5316C49.3376 39.7012 47.7208 39.2861 45.8763 39.2861H40.1862V59.8225H45.8763V59.8237ZM75.7765 65.5803C73.5334 65.5803 71.5407 65.1924 69.7981 64.3621C68.0711 63.5602 66.7129 62.425 65.7236 60.9577C64.7497 59.4904 64.248 57.8025 64.2183 55.92H70.2857C70.2857 56.8061 70.5217 57.6079 70.9938 58.2722C71.4659 58.9637 72.1231 59.4904 72.9641 59.8771C73.8051 60.265 74.773 60.4583 75.8643 60.4583C76.9556 60.4583 77.8274 60.265 78.6103 59.9328C79.4074 59.5734 80.0207 59.1025 80.4477 58.4655C80.8902 57.857 81.112 57.137 81.112 56.3624C81.112 55.366 80.8095 54.5357 80.2046 53.8987C79.6138 53.2344 78.7954 52.792 77.7468 52.5429L72.2773 51.3247C70.8017 50.9926 69.517 50.4386 68.4245 49.664C67.3321 48.861 66.4839 47.893 65.8778 46.7306C65.2728 45.5408 64.9704 44.2396 64.9704 42.7723C64.9704 41.0013 65.4282 39.4225 66.3428 38.0121C67.2585 36.6005 68.5349 35.4938 70.173 34.7181C71.8111 33.915 73.671 33.5283 75.7528 33.5283C77.8346 33.5283 79.7455 33.915 81.3991 34.6623C83.0526 35.4369 84.3372 36.5163 85.2518 37.8733C86.1818 39.2291 86.6539 40.8068 86.6693 42.5789H80.6245C80.6245 41.8316 80.4252 41.1674 80.0266 40.5588C79.6281 39.9503 79.0599 39.5067 78.3221 39.1746C77.5985 38.8424 76.7646 38.6491 75.8204 38.6491C74.8762 38.6491 74.0423 38.8152 73.3187 39.1473C72.6106 39.4521 72.0566 39.8946 71.6581 40.4758C71.2595 41.0298 71.0602 41.694 71.0602 42.4413C71.0602 43.2989 71.3331 44.019 71.8799 44.5729C72.441 45.1269 73.2013 45.542 74.1609 45.7627L79.4312 46.9251C80.9519 47.23 82.3029 47.8112 83.4832 48.6961C84.6789 49.5537 85.6088 50.6059 86.2731 51.8786C86.9374 53.1241 87.2695 54.5084 87.2695 56.003C87.2695 57.8297 86.782 59.4631 85.8081 60.9292C84.8485 62.3681 83.4986 63.5306 81.7561 64.3336C80.0148 65.1639 78.022 65.5791 75.7777 65.5791L75.7765 65.5803Z" fill="white"/>
</g>
<defs>
<linearGradient id="paint0_linear_4372_12085" x1="7.96392" y1="8.44438" x2="125.374" y2="125.854" gradientUnits="userSpaceOnUse">
<stop offset="0.28" stop-color="#007DFE"/>
<stop offset="0.73" stop-color="#00D980"/>
</linearGradient>
<linearGradient id="paint1_linear_4372_12085" x1="112.758" y1="-1.43476" x2="3.87724" y2="49.0461" gradientUnits="userSpaceOnUse">
<stop offset="0.32" stop-color="#F0EB18"/>
<stop offset="0.55" stop-color="#007DFE"/>
</linearGradient>
<clipPath id="clip0_4372_12085">
<rect width="128" height="128" fill="white"/>
</clipPath>
</defs>
</svg>
