<svg width="24" height="24" viewBox="0 0 24 24" fill="none" xmlns="http://www.w3.org/2000/svg">
<g clip-path="url(#clip0_4372_12081)">
<path d="M24 22.4725V9.73444C24 9.12353 23.6359 8.57131 23.0745 8.33066L9.01549 2.30513C8.82545 2.22375 8.62058 2.18164 8.41375 2.18164H1.52727C0.683782 2.18164 0 2.86542 0 3.70891V10.4461C0 10.7479 0.0894545 11.0429 0.257018 11.294L8.28327 23.3197C8.56647 23.7443 9.0432 23.9992 9.55353 23.9992L22.4727 23.9998C23.3162 23.9998 24 23.316 24 22.4725Z" fill="url(#paint0_linear_4372_12081)"/>
<path d="M21.8182 5.44473V1.52727C21.8182 0.683782 21.1344 0 20.2909 0H15.3812C15.3089 0 15.2367 0.00523636 15.1652 0.0152727L1.31127 1.9944C0.558982 2.10175 0 2.74625 0 3.50618V9.38356C0 10.2273 0.684 10.9111 1.52771 10.9108L8.47964 10.9091C8.64371 10.9091 8.80669 10.8827 8.96225 10.8308L20.774 6.89345C21.3975 6.68553 21.8182 6.10189 21.8182 5.44451V5.44473Z" fill="url(#paint1_linear_4372_12081)"/>
<path d="M21.8181 5.98036L21.8175 1.52705C21.8173 0.683782 21.1335 0 20.2902 0H15.9752C15.5295 0 15.1058 0.194836 14.8156 0.533236L2.5494 14.8438C2.31224 15.1207 2.18176 15.4732 2.18176 15.8378V20.2911C2.18176 21.1346 2.86554 21.8184 3.70904 21.8184H8.02467C8.47042 21.8184 8.89413 21.6236 9.18431 21.2852L21.4505 6.97462C21.6879 6.69775 21.8181 6.34516 21.8181 5.98036Z" fill="#F0EB18"/>
<path d="M20 4H4V20H20V4Z" fill="black"/>
<path d="M6.17383 6.10149H8.44789C9.01383 6.10149 9.52011 6.22949 9.96674 6.48549C10.4161 6.74149 10.7674 7.09874 11.0207 7.55223C11.2737 8.00549 11.4003 8.51749 11.4003 9.08823C11.4003 9.65897 11.2737 10.171 11.0207 10.6295C10.7674 11.0827 10.4161 11.4347 9.96674 11.6907C9.52011 11.9467 9.01383 12.0747 8.44789 12.0747H6.17383V6.10149ZM8.43509 11.067C8.79074 11.067 9.10206 10.987 9.36949 10.827C9.63691 10.6722 9.84309 10.443 9.98823 10.1442C10.1334 9.84549 10.2058 9.49349 10.2058 9.08823C10.2058 8.68297 10.1334 8.33097 9.98823 8.03223C9.84309 7.73349 9.63691 7.50423 9.36949 7.34949C9.10206 7.18949 8.79051 7.10949 8.43509 7.10949H7.33863V11.0667H8.43509V11.067ZM14.1967 12.1762C13.7645 12.1762 13.3805 12.1015 13.0447 11.9415C12.7119 11.787 12.4502 11.5682 12.2595 11.2855C12.0719 11.0027 11.9752 10.6775 11.9695 10.3147H13.1386C13.1386 10.4855 13.1841 10.64 13.2751 10.768C13.3661 10.9013 13.4927 11.0027 13.6547 11.0773C13.8168 11.152 14.0033 11.1893 14.2136 11.1893C14.4239 11.1893 14.5919 11.152 14.7427 11.088C14.8963 11.0187 15.0145 10.928 15.0968 10.8053C15.1821 10.688 15.2248 10.5493 15.2248 10.4C15.2248 10.208 15.1665 10.048 15.0499 9.92526C14.9361 9.79726 14.7784 9.712 14.5763 9.664L13.5224 9.42926C13.2381 9.36526 12.9905 9.25851 12.78 9.10926C12.5695 8.95451 12.4061 8.768 12.2893 8.544C12.1727 8.31474 12.1144 8.064 12.1144 7.78126C12.1144 7.44 12.2026 7.13577 12.3789 6.864C12.5553 6.592 12.8013 6.37874 13.1169 6.22926C13.4326 6.07451 13.791 6 14.1921 6C14.5933 6 14.9615 6.07451 15.2801 6.21851C15.5987 6.36777 15.8463 6.57577 16.0225 6.83726C16.2017 7.09851 16.2927 7.40251 16.2957 7.744H15.1309C15.1309 7.6 15.0925 7.472 15.0157 7.35474C14.9389 7.23749 14.8294 7.152 14.6872 7.088C14.5478 7.024 14.3871 6.98674 14.2051 6.98674C14.0232 6.98674 13.8625 7.01874 13.7231 7.08274C13.5866 7.14149 13.4799 7.22674 13.4031 7.33874C13.3263 7.44549 13.2879 7.57349 13.2879 7.71749C13.2879 7.88274 13.3405 8.02149 13.4458 8.12823C13.5539 8.23497 13.7005 8.31497 13.8854 8.35749L14.9009 8.58149C15.1939 8.64023 15.4543 8.75223 15.6817 8.92274C15.9121 9.088 16.0913 9.29074 16.2193 9.536C16.3473 9.776 16.4113 10.0427 16.4113 10.3307C16.4113 10.6827 16.3174 10.9975 16.1297 11.28C15.9448 11.5573 15.6847 11.7813 15.3489 11.936C15.0134 12.096 14.6294 12.176 14.1969 12.176L14.1967 12.1762Z" fill="white"/>
<path d="M12 17H6V18H12V17Z" fill="white"/>
</g>
<defs>
<linearGradient id="paint0_linear_4372_12081" x1="1.49324" y1="1.58317" x2="23.5076" y2="23.5975" gradientUnits="userSpaceOnUse">
<stop offset="0.28" stop-color="#007DFE"/>
<stop offset="0.73" stop-color="#00D980"/>
</linearGradient>
<linearGradient id="paint1_linear_4372_12081" x1="21.142" y1="-0.269018" x2="0.726983" y2="9.19615" gradientUnits="userSpaceOnUse">
<stop offset="0.32" stop-color="#F0EB18"/>
<stop offset="0.55" stop-color="#007DFE"/>
</linearGradient>
<clipPath id="clip0_4372_12081">
<rect width="24" height="24" fill="white"/>
</clipPath>
</defs>
</svg>
