<svg width="256" height="256" viewBox="0 0 256 256" fill="none" xmlns="http://www.w3.org/2000/svg">
<g clip-path="url(#clip0_6242_46805)">
<path d="M256 239.709L256 103.836C256 97.3198 252.116 91.4295 246.128 88.8625L96.1652 24.5902C94.1382 23.7221 91.9529 23.2729 89.7466 23.2729L16.2909 23.2729C7.29367 23.2729 0 30.5666 0 39.5639L0 111.428C0 114.646 0.954182 117.793 2.74153 120.472L88.3549 248.746C91.3757 253.275 96.4608 255.993 101.904 255.993L239.709 256C248.706 256 256 248.707 256 239.709Z" fill="url(#paint0_linear_6242_46805)"/>
<path d="M232.727 58.0771V16.2909C232.727 7.29367 225.434 0 216.436 0L164.066 0C163.295 0 162.525 0.0558545 161.762 0.162909L13.9869 21.2736C5.96247 22.4186 0 29.2934 0 37.3993L0 100.091C0 109.091 7.296 116.385 16.2956 116.382L90.4495 116.364C92.1996 116.364 93.938 116.082 95.5974 115.528L221.589 73.5302C228.24 71.3123 232.727 65.0868 232.727 58.0748V58.0771Z" fill="url(#paint1_linear_6242_46805)"/>
<path d="M232.727 63.7905L232.72 16.2886C232.718 7.29367 225.424 0 216.429 0L170.403 0C165.648 0 161.129 2.07825 158.033 5.68785L27.1942 158.334C24.6644 161.287 23.2727 165.048 23.2727 168.937L23.2727 216.439C23.2727 225.436 30.5664 232.73 39.5636 232.73H85.5971C90.3517 232.73 94.8713 230.651 97.9665 227.042L228.806 74.3959C231.338 71.4426 232.727 67.6817 232.727 63.7905Z" fill="#F0EB18"/>
<path d="M209 47L47 47L47 209L209 209L209 47Z" fill="black"/>
<path d="M133 177H68V188H133V177Z" fill="white"/>
<path d="M69.0112 68.9865H92.2322C98.0112 68.9865 103.181 70.2935 107.742 72.9076C112.33 75.5217 115.918 79.1697 118.504 83.8004C121.088 88.4287 122.381 93.6569 122.381 99.4849C122.381 105.313 121.088 110.541 118.504 115.223C115.918 119.851 112.33 123.446 107.742 126.06C103.181 128.674 98.0112 129.981 92.2322 129.981H69.0112L69.0112 68.9865ZM92.1015 119.69C95.7333 119.69 98.9122 118.874 101.643 117.24C104.374 115.66 106.479 113.319 107.961 110.268C109.443 107.217 110.183 103.623 110.183 99.4849C110.183 95.3467 109.443 91.7524 107.961 88.7018C106.479 85.6513 104.374 83.3103 101.643 81.7302C98.9122 80.0964 95.7309 79.2794 92.1015 79.2794H80.9053L80.9053 119.688H92.1015V119.69ZM150.935 131.017C146.521 131.017 142.6 130.254 139.171 128.62C135.773 127.043 133.101 124.809 131.154 121.922C129.238 119.035 128.251 115.713 128.192 112.009L140.131 112.009C140.131 113.753 140.595 115.33 141.524 116.638C142.453 117.998 143.746 119.035 145.401 119.795C147.056 120.559 148.96 120.939 151.108 120.939C153.255 120.939 154.97 120.559 156.511 119.905C158.079 119.198 159.286 118.271 160.126 117.018C160.997 115.821 161.433 114.404 161.433 112.88C161.433 110.919 160.838 109.285 159.648 108.032C158.485 106.725 156.875 105.854 154.812 105.364L144.049 102.967C141.146 102.314 138.618 101.224 136.469 99.6997C134.319 98.1195 132.65 96.215 131.458 93.9277C130.267 91.5867 129.672 89.0263 129.672 86.1391C129.672 82.6544 130.573 79.5479 132.372 76.7727C134.174 73.9953 136.686 71.8176 139.909 70.2912C143.132 68.7111 146.792 67.9502 150.888 67.9502C154.984 67.9502 158.744 68.7111 161.998 70.1815C165.252 71.7056 167.779 73.8295 169.579 76.4996C171.409 79.1674 172.338 82.2716 172.368 85.7586H160.474C160.474 84.2882 160.082 82.9812 159.298 81.7838C158.513 80.5865 157.395 79.7136 155.944 79.0601C154.52 78.4065 152.879 78.0261 151.021 78.0261C149.163 78.0261 147.522 78.3529 146.099 79.0064C144.705 79.6062 143.615 80.4768 142.831 81.6205C142.047 82.7104 141.655 84.0175 141.655 85.4879C141.655 87.1754 142.192 88.5921 143.268 89.6821C144.372 90.7721 145.868 91.589 147.756 92.0231L158.126 94.3104C161.118 94.9103 163.776 96.0539 166.099 97.7951C168.452 99.4826 170.281 101.553 171.588 104.057C172.895 106.508 173.549 109.232 173.549 112.173C173.549 115.767 172.59 118.981 170.673 121.866C168.785 124.697 166.129 126.984 162.701 128.564C159.274 130.198 155.353 131.015 150.937 131.015L150.935 131.017Z" fill="white"/>
</g>
<defs>
<linearGradient id="paint0_linear_6242_46805" x1="15.9278" y1="16.8892" x2="250.747" y2="251.709" gradientUnits="userSpaceOnUse">
<stop offset="0.28" stop-color="#007DFE"/>
<stop offset="0.73" stop-color="#00D980"/>
</linearGradient>
<linearGradient id="paint1_linear_6242_46805" x1="225.515" y1="-2.86952" x2="7.75449" y2="98.0922" gradientUnits="userSpaceOnUse">
<stop offset="0.32" stop-color="#F0EB18"/>
<stop offset="0.55" stop-color="#007DFE"/>
</linearGradient>
<clipPath id="clip0_6242_46805">
<rect width="256" height="256" fill="white"/>
</clipPath>
</defs>
</svg>
