<svg width="48" height="48" viewBox="0 0 48 48" fill="none" xmlns="http://www.w3.org/2000/svg">
<g clip-path="url(#clip0_4372_12083)">
<path d="M48 44.9456V19.4694C48 18.2476 47.2717 17.1431 46.1489 16.6618L18.031 4.61075C17.6509 4.44799 17.2412 4.36377 16.8275 4.36377H3.05455C1.36756 4.36377 0 5.73133 0 7.41831V20.8928C0 21.4963 0.178909 22.0862 0.514036 22.5885L16.5665 46.64C17.1329 47.4891 18.0864 47.9988 19.1071 47.9988L44.9455 48.0001C46.6324 48.0001 48 46.6326 48 44.9456Z" fill="url(#paint0_linear_4372_12083)"/>
<path d="M43.6364 10.8895V3.05455C43.6364 1.36756 42.2688 0 40.5818 0H30.7623C30.6179 0 30.4735 0.0104727 30.3303 0.0305455L2.62255 3.9888C1.11796 4.20349 0 5.49251 0 7.01236V18.7671C0 20.4545 1.368 21.8221 3.05542 21.8217L16.9593 21.8182C17.2874 21.8182 17.6134 21.7654 17.9245 21.6615L41.5479 13.7869C42.7951 13.3711 43.6364 12.2038 43.6364 10.889V10.8895Z" fill="url(#paint1_linear_4372_12083)"/>
<path d="M43.6364 11.9607L43.6351 3.05411C43.6346 1.36756 42.2671 0 40.5805 0H31.9506C31.0591 0 30.2116 0.389673 29.6313 1.06647L5.09892 29.6876C4.62459 30.2413 4.36365 30.9465 4.36365 31.6756V40.5823C4.36365 42.2692 5.73121 43.6368 7.41819 43.6368H16.0495C16.941 43.6368 17.7884 43.2471 18.3687 42.5703L42.9011 13.9492C43.3759 13.3955 43.6364 12.6903 43.6364 11.9607Z" fill="#F0EB18"/>
<path d="M39 9H9V39H39V9Z" fill="black"/>
<path d="M24.9999 33H12.9999V35.0001H24.9999V33Z" fill="white"/>
<path d="M13.0762 12.9964H17.2631C18.3051 12.9964 19.2373 13.2321 20.0596 13.7034C20.887 14.1748 21.5338 14.8326 22.0001 15.6675C22.466 16.502 22.6991 17.4447 22.6991 18.4956C22.6991 19.5464 22.466 20.4891 22.0001 21.3333C21.5338 22.1678 20.887 22.8159 20.0596 23.2873C19.2373 23.7586 18.3051 23.9943 17.2631 23.9943H13.0762V12.9964ZM17.2396 22.1388C17.8944 22.1388 18.4676 21.9915 18.96 21.6969C19.4523 21.412 19.8319 20.9899 20.0992 20.4398C20.3664 19.8898 20.4998 19.2417 20.4998 18.4956C20.4998 17.7494 20.3664 17.1013 20.0992 16.5513C19.8319 16.0012 19.4523 15.5791 18.96 15.2942C18.4676 14.9996 17.894 14.8523 17.2396 14.8523H15.2208V22.1384L17.2396 22.1388ZM27.8477 24.1811C27.0519 24.1811 26.3449 24.0435 25.7267 23.7489C25.1139 23.4644 24.6321 23.0617 24.2811 22.5411C23.9356 22.0205 23.7576 21.4217 23.747 20.7538H25.8996C25.8996 21.0682 25.9834 21.3527 26.1509 21.5883C26.3184 21.8337 26.5515 22.0205 26.8499 22.1577C27.1483 22.2953 27.4917 22.3639 27.8789 22.3639C28.266 22.3639 28.5753 22.2953 28.8531 22.1775C29.1359 22.05 29.3535 21.8829 29.505 21.6569C29.662 21.441 29.7407 21.1856 29.7407 20.9108C29.7407 20.5573 29.6333 20.2627 29.4187 20.0367C29.2091 19.801 28.9188 19.644 28.5467 19.5557L26.6062 19.1235C26.0827 19.0056 25.6269 18.8091 25.2393 18.5343C24.8517 18.2494 24.5508 17.906 24.3358 17.4935C24.1212 17.0714 24.0138 16.6098 24.0138 16.0892C24.0138 15.4609 24.1763 14.9007 24.5008 14.4004C24.8256 13.8995 25.2785 13.5069 25.8597 13.2317C26.4408 12.9468 27.1007 12.8096 27.8393 12.8096C28.5779 12.8096 29.2558 12.9468 29.8425 13.2119C30.4292 13.4867 30.8849 13.8697 31.2094 14.3511C31.5393 14.8321 31.7068 15.3919 31.7123 16.0206H29.5677C29.5677 15.7555 29.497 15.5198 29.3556 15.3039C29.2142 15.088 29.0126 14.9306 28.7508 14.8128C28.4941 14.6949 28.1983 14.6263 27.8633 14.6263C27.5283 14.6263 27.2324 14.6853 26.9757 14.8031C26.7245 14.9113 26.528 15.0682 26.3865 15.2744C26.2451 15.471 26.1744 15.7066 26.1744 15.9718C26.1744 16.276 26.2712 16.5315 26.4652 16.728C26.6643 16.9246 26.9341 17.0719 27.2745 17.1501L29.1443 17.5626C29.6838 17.6707 30.1632 17.8769 30.5819 18.1909C31.0061 18.4951 31.3361 18.8684 31.5717 19.32C31.8074 19.7619 31.9252 20.253 31.9252 20.7833C31.9252 21.4314 31.7523 22.0109 31.4068 22.531C31.0663 23.0415 30.5874 23.4539 29.9692 23.7388C29.3514 24.0334 28.6439 24.1811 27.8477 24.1811Z" fill="white"/>
</g>
<defs>
<linearGradient id="paint0_linear_4372_12083" x1="2.98647" y1="3.16683" x2="47.0151" y2="47.1955" gradientUnits="userSpaceOnUse">
<stop offset="0.28" stop-color="#007DFE"/>
<stop offset="0.73" stop-color="#00D980"/>
</linearGradient>
<linearGradient id="paint1_linear_4372_12083" x1="42.2841" y1="-0.538036" x2="1.45397" y2="18.3923" gradientUnits="userSpaceOnUse">
<stop offset="0.32" stop-color="#F0EB18"/>
<stop offset="0.55" stop-color="#007DFE"/>
</linearGradient>
<clipPath id="clip0_4372_12083">
<rect width="48" height="48" fill="white"/>
</clipPath>
</defs>
</svg>
