<svg width="48" height="48" viewBox="0 0 48 48" fill="none" xmlns="http://www.w3.org/2000/svg">
<g clip-path="url(#clip0_4372_11948)">
<path d="M3.05455 48H28.5308C29.7526 48 30.857 47.2717 31.3383 46.1489L43.3894 18.031C43.5521 17.6509 43.6364 17.2412 43.6364 16.8275V3.05455C43.6364 1.36756 42.2688 0 40.5818 0H27.1073C26.5039 0 25.9139 0.178909 25.4116 0.514036L1.36015 16.5661C0.510982 17.1329 0.00130909 18.086 0.00130909 19.1066L0 44.9455C0 46.6324 1.36756 48 3.05455 48Z" fill="url(#paint0_linear_4372_11948)"/>
<path d="M37.1105 43.6364H44.9454C46.6324 43.6364 48 42.2688 48 40.5818V30.7623C48 30.6179 47.9895 30.4735 47.9694 30.3303L44.0112 2.62255C43.796 1.11753 42.5075 0 40.9872 0H29.2324C27.545 0 26.1774 1.368 26.1779 3.05542L26.1813 16.9593C26.1813 17.2874 26.2341 17.6134 26.338 17.9245L34.2126 41.5479C34.6285 42.7951 35.7957 43.6364 37.1105 43.6364Z" fill="url(#paint1_linear_4372_11948)"/>
<path d="M36.0393 43.6365L44.9459 43.6352C46.6329 43.6352 48 42.2676 48 40.5806V31.9507C48 31.0592 47.6103 30.2118 46.9335 29.6314L18.3124 5.09904C17.7587 4.62471 17.0535 4.36377 16.3244 4.36377H7.41774C5.73075 4.36377 4.36319 5.73133 4.36319 7.41831V16.0496C4.36319 16.9411 4.75286 17.7885 5.42966 18.3689L34.0503 42.9008C34.6041 43.3756 35.3092 43.6361 36.0388 43.6361L36.0393 43.6365Z" fill="#FF43F2"/>
<path d="M39 9H9V39H39V9Z" fill="black"/>
<path d="M24.9999 33H12.9999V35.0001H24.9999V33Z" fill="white"/>
<path d="M13.0761 12.9962H17.2618C18.3035 12.9962 19.2354 13.2318 20.0575 13.703C20.8846 14.1742 21.5313 14.8288 21.9974 15.6665C22.4631 16.4991 22.6962 17.4415 22.6962 18.4937C22.6962 19.5459 22.4631 20.4912 21.9974 21.3289C21.5313 22.1615 20.8846 22.8132 20.0575 23.2844C19.2354 23.7556 18.3035 23.9912 17.2618 23.9912H13.0761V12.9966V12.9962ZM17.2383 22.1375C17.8929 22.1375 18.4659 21.9911 18.9582 21.6979C19.4504 21.4042 19.8299 20.986 20.097 20.4412C20.3642 19.8913 20.4976 19.2426 20.4976 18.4937C20.4976 17.7448 20.3642 17.0986 20.097 16.5537C19.8299 16.0039 19.4504 15.5827 18.9582 15.2895C18.4659 14.9958 17.8925 14.8498 17.2383 14.8498H15.2201V22.1379H17.2383V22.1375ZM29.2645 24.1797C28.2122 24.1797 27.2593 23.9331 26.4057 23.4413C25.5525 22.9436 24.8823 22.2633 24.3951 21.3996C23.9083 20.5308 23.6647 19.5619 23.6647 18.4937C23.6647 17.4255 23.9083 16.4595 24.3951 15.5958C24.8819 14.727 25.5521 14.0459 26.4057 13.554C27.2593 13.0563 28.2118 12.8081 29.2645 12.8081C30.1181 12.8081 30.9032 12.9604 31.6205 13.2637C32.3428 13.5671 32.9504 13.9941 33.4426 14.544C33.9399 15.0939 34.2882 15.727 34.4872 16.4444H32.1939C32.0265 16.099 31.7989 15.8002 31.5107 15.5491C31.2279 15.2929 30.8956 15.0964 30.5131 14.9601C30.1311 14.8187 29.7201 14.748 29.28 14.748C28.6309 14.748 28.0444 14.91 27.521 15.2348C26.9976 15.5596 26.5866 16.0072 26.2879 16.5777C25.9946 17.1432 25.8482 17.7822 25.8482 18.4941C25.8482 19.2059 25.9951 19.848 26.2879 20.418C26.5862 20.9835 26.9972 21.4282 27.521 21.753C28.0448 22.0778 28.6309 22.2397 29.28 22.2397C29.8821 22.2397 30.4265 22.127 30.9137 21.9019C31.4059 21.6772 31.7959 21.3651 32.0837 20.9675C32.3719 20.5699 32.5263 20.1223 32.5469 19.6246L32.5549 19.8522H29.9713V18.1638H34.6282V19.0276C34.6282 19.9965 34.3926 20.8733 33.9214 21.6583C33.4556 22.4387 32.814 23.0534 31.9974 23.504C31.1859 23.9546 30.275 24.1792 29.2645 24.1792V24.1797Z" fill="white"/>
</g>
<defs>
<linearGradient id="paint0_linear_4372_11948" x1="44.8333" y1="2.98647" x2="0.804652" y2="47.0151" gradientUnits="userSpaceOnUse">
<stop offset="0.28" stop-color="#7256FF"/>
<stop offset="0.66" stop-color="#00D980"/>
</linearGradient>
<linearGradient id="paint1_linear_4372_11948" x1="48.538" y1="42.2841" x2="29.6077" y2="1.45396" gradientUnits="userSpaceOnUse">
<stop offset="0.3" stop-color="#FF43F2"/>
<stop offset="0.54" stop-color="#7256FF"/>
</linearGradient>
<clipPath id="clip0_4372_11948">
<rect width="48" height="48" fill="white"/>
</clipPath>
</defs>
</svg>
