<svg width="256" height="256" viewBox="0 0 256 256" fill="none" xmlns="http://www.w3.org/2000/svg">
<g clip-path="url(#clip0_6242_46791)">
<path d="M16.2909 256L152.164 256C158.68 256 164.571 252.116 167.138 246.128L231.41 96.1652C232.278 94.1382 232.727 91.9529 232.727 89.7466L232.727 16.2909C232.727 7.29367 225.434 0 216.436 0L144.573 0C141.354 0 138.207 0.954182 135.529 2.74153L7.25411 88.3526C2.72524 91.3757 0.00698182 96.4585 0.00698182 101.902L0 239.709C0 248.706 7.29367 256 16.2909 256Z" fill="url(#paint0_linear_6242_46791)"/>
<path d="M197.923 232.727L239.709 232.727C248.706 232.727 256 225.434 256 216.436V164.066C256 163.295 255.944 162.525 255.837 161.762L234.726 13.9869C233.579 5.96014 226.707 0 218.598 0L155.906 0C146.907 0 139.613 7.296 139.615 16.2956L139.634 90.4495C139.634 92.1996 139.916 93.938 140.47 95.5974L182.467 221.589C184.685 228.24 190.911 232.727 197.923 232.727Z" fill="url(#paint1_linear_6242_46791)"/>
<path d="M192.209 232.727L239.711 232.721C248.709 232.721 256 225.427 256 216.43V170.403C256 165.649 253.922 161.129 250.312 158.034L97.6663 27.1944C94.713 24.6647 90.9521 23.2729 87.0633 23.2729L39.5613 23.2729C30.5641 23.2729 23.2704 30.5666 23.2704 39.5639L23.2704 85.5973C23.2704 90.3519 25.3486 94.8715 28.9582 97.9668L181.602 228.804C184.555 231.336 188.316 232.725 192.207 232.725L192.209 232.727Z" fill="#FF43F2"/>
<path d="M209 47L47 47L47 209L209 209L209 47Z" fill="black"/>
<path d="M69.0112 69.0531H92.2328C98.0119 69.0531 103.182 70.3602 107.743 72.9743C112.331 75.5885 115.919 79.2203 118.505 83.8674C121.089 88.4865 122.382 93.7148 122.382 99.5522C122.382 105.39 121.089 110.634 118.505 115.281C115.919 119.901 112.331 123.516 107.743 126.13C103.182 128.744 98.0119 130.051 92.2328 130.051H69.0112L69.0112 69.0554V69.0531ZM92.1021 119.768C95.7339 119.768 98.9129 118.955 101.644 117.328C104.375 115.699 106.48 113.379 107.962 110.357C109.444 107.306 110.184 103.707 110.184 99.5522C110.184 95.3976 109.444 91.8125 107.962 88.7899C106.48 85.7393 104.375 83.4029 101.644 81.7761C98.9129 80.1469 95.7315 79.337 92.1021 79.337H80.9056L80.9056 119.77H92.1021V119.768ZM158.821 131.097C152.984 131.097 147.697 129.729 142.961 127.001C138.228 124.24 134.51 120.465 131.807 115.674C129.106 110.854 127.755 105.478 127.755 99.5522C127.755 93.6261 129.106 88.2671 131.807 83.4752C134.507 78.6554 138.225 74.8766 142.961 72.1481C147.697 69.3869 152.981 68.0098 158.821 68.0098C163.557 68.0098 167.912 68.8547 171.892 70.5376C175.899 72.2204 179.27 74.5895 182.001 77.6401C184.76 80.6907 186.692 84.2035 187.796 88.183H175.073C174.144 86.2668 172.882 84.6096 171.283 83.2162C169.714 81.7947 167.87 80.7047 165.749 79.9485C163.629 79.1642 161.349 78.7721 158.908 78.7721C155.306 78.7721 152.052 79.6707 149.149 81.4726C146.245 83.2745 143.965 85.758 142.308 88.9229C140.681 92.0599 139.869 95.6054 139.869 99.5546C139.869 103.504 140.683 107.066 142.308 110.228C143.963 113.365 146.243 115.832 149.149 117.634C152.055 119.436 155.306 120.335 158.908 120.335C162.248 120.335 165.268 119.709 167.971 118.46C170.702 117.214 172.865 115.482 174.462 113.277C176.061 111.071 176.917 108.587 177.032 105.826L177.076 107.089H162.742V97.7223H188.578V102.514C188.578 107.89 187.271 112.754 184.657 117.109C182.073 121.439 178.514 124.849 173.983 127.349C169.481 129.848 164.428 131.095 158.821 131.095V131.097Z" fill="white"/>
<path d="M133 177H68V188H133V177Z" fill="white"/>
</g>
<defs>
<linearGradient id="paint0_linear_6242_46791" x1="239.111" y1="15.9278" x2="4.29148" y2="250.747" gradientUnits="userSpaceOnUse">
<stop offset="0.28" stop-color="#7256FF"/>
<stop offset="0.66" stop-color="#00D980"/>
</linearGradient>
<linearGradient id="paint1_linear_6242_46791" x1="258.87" y1="225.515" x2="157.908" y2="7.75447" gradientUnits="userSpaceOnUse">
<stop offset="0.3" stop-color="#FF43F2"/>
<stop offset="0.54" stop-color="#7256FF"/>
</linearGradient>
<clipPath id="clip0_6242_46791">
<rect width="256" height="256" fill="white"/>
</clipPath>
</defs>
</svg>
