<svg width="24" height="24" viewBox="0 0 24 24" fill="none" xmlns="http://www.w3.org/2000/svg">
<g clip-path="url(#clip0_4372_11946)">
<path d="M1.52727 24H14.2654C14.8763 24 15.4285 23.6359 15.6692 23.0745L21.6947 9.01549C21.7761 8.82545 21.8182 8.62058 21.8182 8.41375V1.52727C21.8182 0.683782 21.1344 0 20.2909 0H13.5537C13.2519 0 12.9569 0.0894545 12.7058 0.257018L0.680073 8.28305C0.255491 8.56647 0.000654545 9.04298 0.000654545 9.55331L0 22.4727C0 23.3162 0.683782 24 1.52727 24Z" fill="url(#paint0_linear_4372_11946)"/>
<path d="M18.5553 21.8182H22.4727C23.3162 21.8182 24 21.1344 24 20.2909V15.3812C24 15.3089 23.9947 15.2367 23.9847 15.1652L22.0056 1.31127C21.898 0.558764 21.2537 0 20.4936 0H14.6162C13.7725 0 13.0887 0.684 13.0889 1.52771L13.0907 8.47964C13.0907 8.64371 13.1171 8.80669 13.169 8.96225L17.1063 20.774C17.3142 21.3975 17.8979 21.8182 18.5553 21.8182Z" fill="url(#paint1_linear_4372_11946)"/>
<path d="M18.0196 21.818L22.4729 21.8173C23.3164 21.8173 24 21.1336 24 20.2901V15.9751C24 15.5293 23.8051 15.1056 23.4667 14.8155L9.1562 2.54928C8.87933 2.31211 8.52674 2.18164 8.16216 2.18164H3.70885C2.86536 2.18164 2.18158 2.86542 2.18158 3.70891V8.02455C2.18158 8.47029 2.37642 8.894 2.71482 9.18419L17.0251 21.4501C17.302 21.6875 17.6546 21.8178 18.0194 21.8178L18.0196 21.818Z" fill="#FF43F2"/>
<path d="M20 4H4V20H20V4Z" fill="black"/>
<path d="M6.17383 6.10217H8.44789C9.01383 6.10217 9.52011 6.23017 9.96674 6.48617C10.4161 6.74217 10.7674 7.09783 11.0207 7.55291C11.2737 8.00526 11.4003 8.51726 11.4003 9.08891C11.4003 9.66057 11.2737 10.1742 11.0207 10.6293C10.7674 11.0816 10.4161 11.4357 9.96674 11.6917C9.52011 11.9477 9.01383 12.0757 8.44789 12.0757H6.17383V6.1024V6.10217ZM8.43509 11.0686C8.79074 11.0686 9.10206 10.989 9.36949 10.8297C9.63691 10.6702 9.84309 10.443 9.98823 10.147C10.1334 9.84823 10.2058 9.49577 10.2058 9.08891C10.2058 8.68206 10.1334 8.33097 9.98823 8.03497C9.84309 7.73623 9.63691 7.50743 9.36949 7.34811C9.10206 7.18857 8.79051 7.10926 8.43509 7.10926H7.33863V11.0688H8.43509V11.0686ZM14.9688 12.1781C14.3971 12.1781 13.8794 12.0441 13.4157 11.7769C12.9521 11.5065 12.588 11.1369 12.3233 10.6677C12.0589 10.1957 11.9265 9.66926 11.9265 9.08891C11.9265 8.50857 12.0589 7.98377 12.3233 7.51451C12.5878 7.04251 12.9519 6.67246 13.4157 6.40526C13.8794 6.13486 14.3969 6 14.9688 6C15.4326 6 15.8591 6.08274 16.2488 6.24754C16.6413 6.41234 16.9713 6.64434 17.2387 6.94309C17.5089 7.24183 17.6982 7.58583 17.8063 7.97554H16.5603C16.4694 7.78789 16.3457 7.6256 16.1891 7.48914C16.0355 7.34994 15.855 7.2432 15.6472 7.16914C15.4397 7.09234 15.2163 7.05394 14.9773 7.05394C14.6246 7.05394 14.3059 7.14194 14.0216 7.3184C13.7373 7.49486 13.5139 7.73806 13.3517 8.048C13.1923 8.3552 13.1128 8.7024 13.1128 9.08914C13.1128 9.47589 13.1926 9.82469 13.3517 10.1344C13.5137 10.4416 13.737 10.6832 14.0216 10.8597C14.3062 11.0361 14.6246 11.1241 14.9773 11.1241C15.3043 11.1241 15.6001 11.0629 15.8648 10.9406C16.1322 10.8185 16.3441 10.6489 16.5005 10.4329C16.657 10.2169 16.7409 9.97371 16.7521 9.70331L16.7565 9.82697H15.3528V8.90971H17.8829V9.37897C17.8829 9.90537 17.7549 10.3817 17.4989 10.8082C17.2458 11.2322 16.8973 11.5662 16.4536 11.811C16.0127 12.0558 15.5178 12.1778 14.9688 12.1778V12.1781Z" fill="white"/>
<path d="M12 17H6V18H12V17Z" fill="white"/>
</g>
<defs>
<linearGradient id="paint0_linear_4372_11946" x1="22.4167" y1="1.49324" x2="0.402326" y2="23.5076" gradientUnits="userSpaceOnUse">
<stop offset="0.28" stop-color="#7256FF"/>
<stop offset="0.66" stop-color="#00D980"/>
</linearGradient>
<linearGradient id="paint1_linear_4372_11946" x1="24.269" y1="21.142" x2="14.8038" y2="0.726981" gradientUnits="userSpaceOnUse">
<stop offset="0.3" stop-color="#FF43F2"/>
<stop offset="0.54" stop-color="#7256FF"/>
</linearGradient>
<clipPath id="clip0_4372_11946">
<rect width="24" height="24" fill="white"/>
</clipPath>
</defs>
</svg>
