<svg width="128" height="128" viewBox="0 0 128 128" fill="none" xmlns="http://www.w3.org/2000/svg">
<g clip-path="url(#clip0_4372_11950)">
<path d="M8.14545 128H76.082C79.3402 128 82.2854 126.058 83.5689 123.064L115.705 48.0826C116.139 47.0691 116.364 45.9764 116.364 44.8733V8.14545C116.364 3.64684 112.717 0 108.218 0H72.2863C70.6769 0 69.1037 0.477091 67.7644 1.37076L3.62705 44.1763C1.36262 45.6879 0.00349091 48.2292 0.00349091 50.951L0 119.855C0 124.353 3.64684 128 8.14545 128Z" fill="url(#paint0_linear_4372_11950)"/>
<path d="M98.9614 116.364H119.855C124.353 116.364 128 112.717 128 108.218V82.0329C128 81.6477 127.972 81.2626 127.919 80.8809L117.363 6.99345C116.79 2.98007 113.353 0 109.299 0H77.9531C73.4534 0 69.8065 3.648 69.8077 8.14778L69.817 45.2247C69.817 46.0998 69.9578 46.969 70.2347 47.7987L91.2337 110.794C92.3427 114.12 95.4554 116.364 98.9614 116.364Z" fill="url(#paint1_linear_4372_11950)"/>
<path d="M96.1047 116.364L119.856 116.36C124.354 116.36 128 112.713 128 108.215V85.2013C128 82.824 126.961 80.5642 125.156 79.0166L48.8332 13.597C47.3565 12.3321 45.4761 11.6362 43.5316 11.6362H19.7806C15.282 11.6362 11.6352 15.2831 11.6352 19.7817V42.7984C11.6352 45.1757 12.6743 47.4355 14.4791 48.9831L90.8009 114.402C92.2775 115.668 94.158 116.362 96.1036 116.362L96.1047 116.364Z" fill="#FF43F2"/>
<path d="M105 23H23V105H105V23Z" fill="black"/>
<path d="M66 89H34V94H66V89Z" fill="white"/>
<path d="M34.1414 33.997H45.943C48.88 33.997 51.5075 34.6613 53.8253 35.9899C56.1574 37.3184 57.9806 39.1642 59.2949 41.5259C60.6081 43.8734 61.2652 46.5305 61.2652 49.4972C61.2652 52.464 60.6081 55.1294 59.2949 57.4911C57.9806 59.8386 56.1574 61.6761 53.8253 63.0046C51.5075 64.3332 48.88 64.9974 45.943 64.9974H34.1414V33.9982V33.997ZM45.8765 59.771C47.7223 59.771 49.3379 59.3582 50.7258 58.5314C52.1136 57.7034 53.1836 56.5244 53.9368 54.9882C54.6901 53.4378 55.0661 51.6087 55.0661 49.4972C55.0661 47.3858 54.6901 45.5638 53.9368 44.0276C53.1836 42.4773 52.1136 41.2899 50.7258 40.4631C49.3379 39.6351 47.7211 39.2235 45.8765 39.2235H40.1863V59.7722H45.8765V59.771ZM79.7844 65.5289C76.8176 65.5289 74.1309 64.8338 71.7241 63.4471C69.3184 62.0438 67.4288 60.1257 66.0552 57.6904C64.6827 55.2409 63.9959 52.509 63.9959 49.4972C63.9959 46.4855 64.6827 43.7619 66.0552 41.3266C67.4276 38.8771 69.3172 36.9566 71.7241 35.5699C74.1309 34.1667 76.8165 33.4668 79.7844 33.4668C82.1912 33.4668 84.4046 33.8962 86.4271 34.7515C88.4639 35.6067 90.1768 36.8107 91.5646 38.3611C92.9667 39.9115 93.9489 41.6967 94.51 43.7192H88.0439C87.5718 42.7453 86.9301 41.9031 86.1175 41.195C85.3204 40.4726 84.3833 39.9186 83.305 39.5343C82.228 39.1357 81.069 38.9364 79.8283 38.9364C77.9979 38.9364 76.3443 39.3931 74.8687 40.3089C73.3931 41.2246 72.2341 42.4867 71.3919 44.0952C70.5651 45.6895 70.1523 47.4914 70.1523 49.4984C70.1523 51.5055 70.5663 53.3157 71.3919 54.923C72.2329 56.5172 73.3919 57.7711 74.8687 58.6868C76.3455 59.6026 77.9979 60.0593 79.8283 60.0593C81.5257 60.0593 83.0607 59.7414 84.4343 59.1067C85.8222 58.4733 86.9218 57.5931 87.7332 56.4722C88.5457 55.3512 88.981 54.0891 89.0392 52.6858L89.0617 53.3275H81.7772V48.5673H94.9074V51.0025C94.9074 53.7344 94.2431 56.2064 92.9145 58.4199C91.6014 60.6203 89.7924 62.3534 87.49 63.6238C85.2018 64.8943 82.6336 65.5277 79.7844 65.5277V65.5289Z" fill="white"/>
</g>
<defs>
<linearGradient id="paint0_linear_4372_11950" x1="119.555" y1="7.96392" x2="2.14574" y2="125.374" gradientUnits="userSpaceOnUse">
<stop offset="0.28" stop-color="#7256FF"/>
<stop offset="0.66" stop-color="#00D980"/>
</linearGradient>
<linearGradient id="paint1_linear_4372_11950" x1="129.435" y1="112.758" x2="78.9539" y2="3.87723" gradientUnits="userSpaceOnUse">
<stop offset="0.3" stop-color="#FF43F2"/>
<stop offset="0.54" stop-color="#7256FF"/>
</linearGradient>
<clipPath id="clip0_4372_11950">
<rect width="128" height="128" fill="white"/>
</clipPath>
</defs>
</svg>
