<svg width="64" height="64" viewBox="0 0 64 64" fill="none" xmlns="http://www.w3.org/2000/svg">
<g filter="url(#filter0_d_6179_27259)">
<path d="M24.9091 6H18C11.3726 6 6 11.3726 6 18V39.0909H24.9091V6Z" fill="url(#paint0_linear_6179_27259)"/>
<path d="M58.0004 39.0908H29.6367V57.9999H46.0004C52.6278 57.9999 58.0004 52.6273 58.0004 45.9999V39.0908Z" fill="#FF8100"/>
<path d="M57.9995 18.0005C57.9998 11.3729 52.6271 6 45.9995 6H24.9096L6 39.0909V46C6 52.6274 11.3726 58 18 58H29.6364L57.9986 39.0706L57.9995 18.0005Z" fill="url(#paint1_linear_6179_27259)"/>
<path d="M49 15H15V49H49V15Z" fill="black"/>
<path d="M20 29.9085H22.383V22.0915H20V20H27.0712V22.0915H24.6882V29.9085H27.0712V32H20V29.9085Z" fill="white"/>
<path d="M28.5 29.8402H30.223C30.5714 29.8402 30.8817 29.7659 31.153 29.6174C31.4244 29.4689 31.6343 29.259 31.7828 28.9876C31.9313 28.7163 32.0056 28.4064 32.0056 28.0576V20H34.3455V28.2199C34.3455 28.94 34.1796 29.5872 33.8482 30.1615C33.5168 30.7358 33.0598 31.1859 32.4768 31.5114C31.8937 31.8373 31.2396 32 30.5141 32H28.5V29.8402Z" fill="white"/>
<path d="M34 41.5H20V44H34V41.5Z" fill="white"/>
</g>
<defs>
<filter id="filter0_d_6179_27259" x="4.75" y="5.35" width="54.5005" height="54.5" filterUnits="userSpaceOnUse" color-interpolation-filters="sRGB">
<feFlood flood-opacity="0" result="BackgroundImageFix"/>
<feColorMatrix in="SourceAlpha" type="matrix" values="0 0 0 0 0 0 0 0 0 0 0 0 0 0 0 0 0 0 127 0" result="hardAlpha"/>
<feOffset dy="0.6"/>
<feGaussianBlur stdDeviation="0.625"/>
<feColorMatrix type="matrix" values="0 0 0 0 0 0 0 0 0 0 0 0 0 0 0 0 0 0 0.3 0"/>
<feBlend mode="normal" in2="BackgroundImageFix" result="effect1_dropShadow_6179_27259"/>
<feBlend mode="normal" in="SourceGraphic" in2="effect1_dropShadow_6179_27259" result="shape"/>
</filter>
<linearGradient id="paint0_linear_6179_27259" x1="15.4545" y1="37.7583" x2="15.4545" y2="6.38953" gradientUnits="userSpaceOnUse">
<stop  offset="0" stop-color="#FE2857"/>
<stop offset="1" stop-color="#FC801D"/>
</linearGradient>
<linearGradient id="paint1_linear_6179_27259" x1="7.54676" y1="56.4428" x2="56.0755" y2="7.91407" gradientUnits="userSpaceOnUse">
<stop offset="0.19" stop-color="#FE2857"/>
<stop offset="0.83" stop-color="#007EFF"/>
</linearGradient>
</defs>
</svg>
