<svg width="128" height="128" viewBox="0 0 128 128" fill="none" xmlns="http://www.w3.org/2000/svg">
<g filter="url(#filter0_d_4363_9198)">
<path d="M49.8182 12H36C22.7452 12 12 22.7452 12 36V78.1818H49.8182V12Z" fill="url(#paint0_linear_4363_9198)"/>
<path d="M116 78.1819H59.2729V116H92.0002C105.255 116 116 105.255 116 92.0001V78.1819Z" fill="#FF8100"/>
<path d="M115.999 36.001C116 22.7458 105.254 12 91.999 12H49.8191L12 78.1818V92C12 105.255 22.7452 116 36 116H59.2727L115.997 78.1412L115.999 36.001Z" fill="url(#paint1_linear_4363_9198)"/>
<path d="M97 31H31V97H97V31Z" fill="black"/>
<path d="M39 58.817H43.7661V43.183H39V39H53.1424V43.183H48.3763V58.817H53.1424V63H39V58.817Z" fill="white"/>
<path d="M55.5425 58.6804H58.9885C59.6852 58.6804 60.3058 58.5319 60.8485 58.2348C61.3912 57.9378 61.8111 57.518 62.1081 56.9753C62.4051 56.4325 62.5536 55.8128 62.5536 55.1152V39H67.2335V55.4397C67.2335 56.8799 66.9017 58.1743 66.2389 59.323C65.5761 60.4717 64.6621 61.3719 63.496 62.0228C62.33 62.6746 61.0218 63 59.5706 63H55.5425V58.6804Z" fill="white"/>
<path d="M67 84H39V89H67V84Z" fill="white"/>
</g>
<defs>
<filter id="filter0_d_4363_9198" x="8.75" y="10" width="110.5" height="110.5" filterUnits="userSpaceOnUse" color-interpolation-filters="sRGB">
<feFlood flood-opacity="0" result="BackgroundImageFix"/>
<feColorMatrix in="SourceAlpha" type="matrix" values="0 0 0 0 0 0 0 0 0 0 0 0 0 0 0 0 0 0 127 0" result="hardAlpha"/>
<feOffset dy="1.25"/>
<feGaussianBlur stdDeviation="1.625"/>
<feColorMatrix type="matrix" values="0 0 0 0 0 0 0 0 0 0 0 0 0 0 0 0 0 0 0.35 0"/>
<feBlend mode="normal" in2="BackgroundImageFix" result="effect1_dropShadow_4363_9198"/>
<feBlend mode="normal" in="SourceGraphic" in2="effect1_dropShadow_4363_9198" result="shape"/>
</filter>
<linearGradient id="paint0_linear_4363_9198" x1="30.9091" y1="75.5166" x2="30.9091" y2="12.7791" gradientUnits="userSpaceOnUse">
<stop  offset="0" stop-color="#FE2857"/>
<stop offset="1" stop-color="#FC801D"/>
</linearGradient>
<linearGradient id="paint1_linear_4363_9198" x1="15.0935" y1="112.886" x2="112.151" y2="15.8281" gradientUnits="userSpaceOnUse">
<stop offset="0.19" stop-color="#FE2857"/>
<stop offset="0.83" stop-color="#007EFF"/>
</linearGradient>
</defs>
</svg>
