<svg width="32" height="32" viewBox="0 0 32 32" fill="none" xmlns="http://www.w3.org/2000/svg">
<path d="M12.1818 2H8C4.68629 2 2 4.68629 2 8V19.8182H12.1818V2Z" fill="url(#paint0_linear_4363_9199)"/>
<path d="M29.9998 19.8184H14.7271V30.0002H23.9998C27.3135 30.0002 29.9998 27.3139 29.9998 24.0002V19.8184Z" fill="#FF8100"/>
<path d="M29.9997 8.00025C29.9999 4.68644 27.3136 2 23.9997 2H12.1821L2 19.8182V24C2 27.3137 4.68629 30 8 30H14.7273L29.9992 19.8072L29.9997 8.00025Z" fill="url(#paint1_linear_4363_9199)"/>
<path d="M25 7H7V25H25V7Z" fill="black"/>
<path d="M16 22H9V23H16V22Z" fill="white"/>
<path d="M13.6001 14.74H14.6051C14.8084 14.74 14.9884 14.6967 15.1451 14.61C15.3051 14.5233 15.4284 14.4017 15.5151 14.245C15.6018 14.085 15.6451 13.9033 15.6451 13.7V9H17.0101V13.795C17.0101 14.215 16.9134 14.5933 16.7201 14.93C16.5268 15.2633 16.2601 15.525 15.9201 15.715C15.5801 15.905 15.1984 16 14.7751 16H13.6001V14.74Z" fill="white"/>
<path d="M8.60986 14.78H9.99986V10.22H8.60986V9H12.7349V10.22H11.3449V14.78H12.7349V16H8.60986V14.78Z" fill="white"/>
<defs>
<linearGradient id="paint0_linear_4363_9199" x1="7.09091" y1="19.1006" x2="7.09091" y2="2.20975" gradientUnits="userSpaceOnUse">
<stop  offset="0" stop-color="#FE2857"/>
<stop offset="1" stop-color="#FC801D"/>
</linearGradient>
<linearGradient id="paint1_linear_4363_9199" x1="2.83287" y1="29.1615" x2="28.9637" y2="3.03065" gradientUnits="userSpaceOnUse">
<stop offset="0.19" stop-color="#FE2857"/>
<stop offset="0.83" stop-color="#007EFF"/>
</linearGradient>
</defs>
</svg>
