<svg width="64" height="64" viewBox="0 0 64 64" fill="none" xmlns="http://www.w3.org/2000/svg">
<g filter="url(#filter0_dd_4368_9796)">
<rect x="23" y="39" width="32" height="16" rx="8" fill="#FFC94D"/>
<path d="M29.5 43.5H34.5578V44.73H30.859V46.385H34.2193V47.585H30.859V49.27H34.6573V50.5H29.5V43.5Z" fill="black"/>
<path d="M38.1506 43.5H39.6589L42.2376 50.5H40.8388L40.2812 48.89H37.588L37.0703 50.5H35.6416L38.1506 43.5ZM39.9178 47.81L38.9919 45.18L38.8873 44.735L38.7878 45.18L37.9216 47.81H39.9178Z" fill="black"/>
<path d="M43.534 43.5H46.5358C47.0303 43.5 47.4634 43.59 47.8351 43.77C48.2068 43.95 48.4939 44.205 48.6963 44.535C48.8988 44.865 49 45.245 49 45.675C49 46.1117 48.8971 46.4967 48.6914 46.83C48.4856 47.16 48.1935 47.4167 47.8152 47.6C47.4402 47.7833 47.0005 47.875 46.496 47.875H44.9279V50.5H43.534V43.5ZM46.4412 46.715C46.6669 46.715 46.8644 46.6733 47.0336 46.59C47.2029 46.5067 47.3323 46.3867 47.4219 46.23C47.5149 46.0733 47.5613 45.89 47.5613 45.68C47.5613 45.4733 47.5149 45.2933 47.4219 45.14C47.3323 44.9867 47.2029 44.8683 47.0336 44.785C46.8644 44.7017 46.6669 44.66 46.4412 44.66H44.9279V46.715H46.4412Z" fill="black"/>
</g>
<defs>
<filter id="filter0_dd_4368_9796" x="21" y="38" width="36" height="20" filterUnits="userSpaceOnUse" color-interpolation-filters="sRGB">
<feFlood flood-opacity="0" result="BackgroundImageFix"/>
<feColorMatrix in="SourceAlpha" type="matrix" values="0 0 0 0 0 0 0 0 0 0 0 0 0 0 0 0 0 0 127 0" result="hardAlpha"/>
<feOffset dy="1"/>
<feGaussianBlur stdDeviation="1"/>
<feColorMatrix type="matrix" values="0 0 0 0 0 0 0 0 0 0 0 0 0 0 0 0 0 0 0.3 0"/>
<feBlend mode="normal" in2="BackgroundImageFix" result="effect1_dropShadow_4368_9796"/>
<feColorMatrix in="SourceAlpha" type="matrix" values="0 0 0 0 0 0 0 0 0 0 0 0 0 0 0 0 0 0 127 0" result="hardAlpha"/>
<feOffset dy="0.25"/>
<feGaussianBlur stdDeviation="0.25"/>
<feColorMatrix type="matrix" values="0 0 0 0 0 0 0 0 0 0 0 0 0 0 0 0 0 0 0.25 0"/>
<feBlend mode="normal" in2="effect1_dropShadow_4368_9796" result="effect2_dropShadow_4368_9796"/>
<feBlend mode="normal" in="SourceGraphic" in2="effect2_dropShadow_4368_9796" result="shape"/>
</filter>
</defs>
</svg>
