<svg width="32" height="32" viewBox="0 0 32 32" fill="none" xmlns="http://www.w3.org/2000/svg">
<g filter="url(#filter0_dd_4368_9797)">
<rect x="12" y="20" width="16" height="8" rx="4" fill="#FFC94D"/>
<path d="M23 22H24.6475C24.9189 22 25.1566 22.0514 25.3607 22.1543C25.5647 22.2571 25.7222 22.4029 25.8333 22.5914C25.9444 22.78 26 22.9971 26 23.2429C26 23.4924 25.9435 23.7124 25.8306 23.9029C25.7177 24.0914 25.5574 24.2381 25.3497 24.3429C25.1439 24.4476 24.9025 24.5 24.6257 24.5H23.765V26H23V22ZM24.5956 23.8371C24.7195 23.8371 24.8279 23.8133 24.9208 23.7657C25.0137 23.7181 25.0847 23.6495 25.1339 23.56C25.1849 23.4705 25.2104 23.3657 25.2104 23.2457C25.2104 23.1276 25.1849 23.0248 25.1339 22.9371C25.0847 22.8495 25.0137 22.7819 24.9208 22.7343C24.8279 22.6867 24.7195 22.6629 24.5956 22.6629H23.765V23.8371H24.5956Z" fill="black"/>
<path d="M20.0215 22H20.9362L22.5 26H21.6517L21.3136 25.08H19.6804L19.3664 26H18.5L20.0215 22ZM21.0932 24.4629L20.5317 22.96L20.4683 22.7057L20.4079 22.96L19.8826 24.4629H21.0932Z" fill="black"/>
<path d="M15 22H17.9421V22.7029H15.7905V23.6486H17.7452V24.3343H15.7905V25.2971H18V26H15V22Z" fill="black"/>
</g>
<defs>
<filter id="filter0_dd_4368_9797" x="11" y="19.5" width="18" height="10" filterUnits="userSpaceOnUse" color-interpolation-filters="sRGB">
<feFlood flood-opacity="0" result="BackgroundImageFix"/>
<feColorMatrix in="SourceAlpha" type="matrix" values="0 0 0 0 0 0 0 0 0 0 0 0 0 0 0 0 0 0 127 0" result="hardAlpha"/>
<feOffset dy="0.5"/>
<feGaussianBlur stdDeviation="0.5"/>
<feColorMatrix type="matrix" values="0 0 0 0 0 0 0 0 0 0 0 0 0 0 0 0 0 0 0.25 0"/>
<feBlend mode="normal" in2="BackgroundImageFix" result="effect1_dropShadow_4368_9797"/>
<feColorMatrix in="SourceAlpha" type="matrix" values="0 0 0 0 0 0 0 0 0 0 0 0 0 0 0 0 0 0 127 0" result="hardAlpha"/>
<feOffset dy="0.13"/>
<feGaussianBlur stdDeviation="0.125"/>
<feColorMatrix type="matrix" values="0 0 0 0 0 0 0 0 0 0 0 0 0 0 0 0 0 0 0.25 0"/>
<feBlend mode="normal" in2="effect1_dropShadow_4368_9797" result="effect2_dropShadow_4368_9797"/>
<feBlend mode="normal" in="SourceGraphic" in2="effect2_dropShadow_4368_9797" result="shape"/>
</filter>
</defs>
</svg>
