<svg width="512" height="512" viewBox="0 0 512 512" fill="none" xmlns="http://www.w3.org/2000/svg">
<g filter="url(#filter0_dd_4368_9795)">
<rect x="186" y="310" width="256" height="128" rx="64" fill="#FFC94D"/>
<path d="M348.271 346H372.286C376.242 346 379.707 346.72 382.68 348.16C385.654 349.6 387.95 351.64 389.57 354.28C391.19 356.92 391.999 359.96 391.999 363.4C391.999 366.893 391.176 369.973 389.53 372.64C387.884 375.28 385.548 377.333 382.521 378.8C379.521 380.267 376.003 381 371.967 381H359.422V402H348.271V346ZM371.529 371.72C373.335 371.72 374.914 371.387 376.268 370.72C377.622 370.053 378.658 369.093 379.375 367.84C380.118 366.587 380.49 365.12 380.49 363.44C380.49 361.787 380.118 360.347 379.375 359.12C378.658 357.893 377.622 356.947 376.268 356.28C374.914 355.613 373.335 355.28 371.529 355.28H359.422V371.72H371.529Z" fill="black"/>
<path d="M306.205 346H318.272L338.901 402H327.71L323.25 389.12H301.704L297.563 402H286.133L306.205 346ZM320.342 380.48L312.935 359.44L312.099 355.88L311.302 359.44L304.373 380.48H320.342Z" fill="black"/>
<path d="M236 346H276.462V355.84H246.872V369.08H273.754V378.68H246.872V392.16H277.259V402H236V346Z" fill="black"/>
</g>
<defs>
<filter id="filter0_dd_4368_9795" x="170" y="302" width="288" height="160" filterUnits="userSpaceOnUse" color-interpolation-filters="sRGB">
<feFlood flood-opacity="0" result="BackgroundImageFix"/>
<feColorMatrix in="SourceAlpha" type="matrix" values="0 0 0 0 0 0 0 0 0 0 0 0 0 0 0 0 0 0 127 0" result="hardAlpha"/>
<feOffset dy="8"/>
<feGaussianBlur stdDeviation="8"/>
<feColorMatrix type="matrix" values="0 0 0 0 0 0 0 0 0 0 0 0 0 0 0 0 0 0 0.3 0"/>
<feBlend mode="normal" in2="BackgroundImageFix" result="effect1_dropShadow_4368_9795"/>
<feColorMatrix in="SourceAlpha" type="matrix" values="0 0 0 0 0 0 0 0 0 0 0 0 0 0 0 0 0 0 127 0" result="hardAlpha"/>
<feOffset dy="2"/>
<feGaussianBlur stdDeviation="2"/>
<feColorMatrix type="matrix" values="0 0 0 0 0 0 0 0 0 0 0 0 0 0 0 0 0 0 0.25 0"/>
<feBlend mode="normal" in2="effect1_dropShadow_4368_9795" result="effect2_dropShadow_4368_9795"/>
<feBlend mode="normal" in="SourceGraphic" in2="effect2_dropShadow_4368_9795" result="shape"/>
</filter>
</defs>
</svg>
