<svg width="64" height="64" viewBox="0 0 64 64" fill="none" xmlns="http://www.w3.org/2000/svg">
<g filter="url(#filter0_d_6179_27270)">
<path d="M6 39.0909V46C6 52.6274 11.3726 58 18 58H39.0909V39.0909H6Z" fill="url(#paint0_linear_6179_27270)"/>
<path d="M39.0908 6.00013V34.3638H57.9999V18.0001C57.9999 11.3727 52.6273 6.00013 45.9999 6.00013H39.0908Z" fill="#00D886"/>
<path d="M18.0005 6.00051C11.3729 6.00023 6 11.3729 6 18.0005V39.0904L39.0909 58H46C52.6274 58 58 52.6274 58 46V34.3636L39.0706 6.00142L18.0005 6.00051Z" fill="url(#paint1_linear_6179_27270)"/>
<path d="M49 15H15V49H49V15Z" fill="black"/>
<path d="M41.7984 32.5L38.8288 27.4929C39.0269 27.4298 39.2374 27.3839 39.4197 27.2992C40.0969 26.9644 40.6167 26.5066 40.9789 25.9154C41.3469 25.3237 41.5311 24.6431 41.5311 23.8615C41.5311 23.0799 41.3498 22.4217 40.9875 21.8415C40.631 21.2613 40.1203 20.8036 39.455 20.4798C38.7897 20.1559 38.0208 20 37.1474 20H31.793V32.5H34.2251V27.779H36.3241L39.0092 32.5H41.7979H41.7984ZM34.2261 22.0314H36.988C37.398 22.0314 37.754 22.1094 38.0571 22.2548C38.3659 22.4107 38.6036 22.6231 38.7697 22.9025C38.9357 23.1813 39.0193 23.5051 39.0193 23.8845C39.0193 24.2638 38.9362 24.5876 38.7697 24.8779C38.6031 25.1568 38.3659 25.3692 38.0571 25.5251C37.754 25.6815 37.398 25.7485 36.988 25.7485H34.2261V22.0319V22.0314Z" fill="white"/>
<path d="M22.4326 27.779H24.5316L27.2167 32.5H30.0054L27.0359 27.4929C27.2339 27.4298 27.4444 27.3839 27.6267 27.2992C28.304 26.9644 28.8232 26.5066 29.1859 25.9154C29.5539 25.3237 29.7381 24.6431 29.7381 23.8615C29.7381 23.0799 29.5568 22.4217 29.1945 21.8415C28.838 21.2613 28.3273 20.8036 27.662 20.4798C26.9967 20.1559 26.2279 20 25.3545 20H20V32.5H22.4322V27.779H22.4326ZM22.4326 22.0314H25.1946C25.6045 22.0314 25.9606 22.1094 26.2636 22.2548C26.5724 22.4107 26.8101 22.6231 26.9767 22.9025C27.1428 23.1813 27.2263 23.5051 27.2263 23.8845C27.2263 24.2638 27.1432 24.5876 26.9767 24.8779C26.8101 25.1568 26.5729 25.3692 26.2636 25.5251C25.9606 25.6815 25.6045 25.7485 25.1946 25.7485H22.4326V22.0319V22.0314Z" fill="white"/>
<path d="M34 41.5H20V44H34V41.5Z" fill="white"/>
</g>
<defs>
<filter id="filter0_d_6179_27270" x="4.75" y="5.35" width="54.5" height="54.5" filterUnits="userSpaceOnUse" color-interpolation-filters="sRGB">
<feFlood flood-opacity="0" result="BackgroundImageFix"/>
<feColorMatrix in="SourceAlpha" type="matrix" values="0 0 0 0 0 0 0 0 0 0 0 0 0 0 0 0 0 0 127 0" result="hardAlpha"/>
<feOffset dy="0.6"/>
<feGaussianBlur stdDeviation="0.625"/>
<feColorMatrix type="matrix" values="0 0 0 0 0 0 0 0 0 0 0 0 0 0 0 0 0 0 0.3 0"/>
<feBlend mode="normal" in2="BackgroundImageFix" result="effect1_dropShadow_6179_27270"/>
<feBlend mode="normal" in="SourceGraphic" in2="effect1_dropShadow_6179_27270" result="shape"/>
</filter>
<linearGradient id="paint0_linear_6179_27270" x1="7.33262" y1="48.5455" x2="38.7014" y2="48.5455" gradientUnits="userSpaceOnUse">
<stop  offset="0" stop-color="#00D886"/>
<stop offset="0.78" stop-color="#FFAB00"/>
</linearGradient>
<linearGradient id="paint1_linear_6179_27270" x1="56.4428" y1="56.4532" x2="7.91407" y2="7.92448" gradientUnits="userSpaceOnUse">
<stop offset="0.19" stop-color="#FFAB00"/>
<stop offset="0.83" stop-color="#FF004C"/>
</linearGradient>
</defs>
</svg>
