<svg width="128" height="128" viewBox="0 0 128 128" fill="none" xmlns="http://www.w3.org/2000/svg">
<g filter="url(#filter0_d_4372_12953)">
<path d="M12 78.1818V92C12 105.255 22.7452 116 36 116H78.1818V78.1818H12Z" fill="url(#paint0_linear_4372_12953)"/>
<path d="M78.1816 12V68.7273H116V36C116 22.7452 105.255 12 91.9998 12H78.1816Z" fill="#00D886"/>
<path d="M36.001 12.001C22.7458 12.0005 12 22.7458 12 36.001V78.1809L78.1818 116H92C105.255 116 116 105.255 116 92V68.7273L78.1412 12.0028L36.001 12.001Z" fill="url(#paint1_linear_4372_12953)"/>
<path d="M97 31H31V97H97V31Z" fill="black"/>
<path d="M82.5968 65L76.6577 54.9858C77.0538 54.8596 77.4747 54.7677 77.8394 54.5984C79.1939 53.9288 80.2333 53.0132 80.9578 51.8308C81.6938 50.6475 82.0622 49.2862 82.0622 47.723C82.0622 46.1598 81.6995 44.8435 80.975 43.6831C80.262 42.5227 79.2406 41.6072 77.91 40.9595C76.5794 40.3119 75.0416 40 73.2948 40H62.5859V65H67.4502V55.5579H71.6483L77.0185 65H82.5958H82.5968ZM67.4521 44.0629H72.976C73.796 44.0629 74.5081 44.2188 75.1142 44.5096C75.7318 44.8215 76.2071 45.2462 76.5393 45.8049C76.8715 46.3626 77.0385 47.0103 77.0385 47.7689C77.0385 48.5275 76.8724 49.1752 76.5393 49.7559C76.2062 50.3136 75.7318 50.7383 75.1142 51.0502C74.5081 51.363 73.796 51.497 72.976 51.497H67.4521V44.0638V44.0629Z" fill="white"/>
<path d="M43.8653 55.5579H48.0633L53.4335 65H59.0108L53.0717 54.9858C53.4679 54.8596 53.8888 54.7677 54.2534 54.5984C55.6079 53.9288 56.6465 53.0132 57.3719 51.8308C58.1078 50.6475 58.4763 49.2862 58.4763 47.723C58.4763 46.1598 58.1136 44.8435 57.3891 43.6831C56.676 42.5227 55.6547 41.6072 54.3241 40.9595C52.9935 40.3119 51.4557 40 49.7089 40H39V65H43.8643V55.5579H43.8653ZM43.8653 44.0629H49.3891C50.2091 44.0629 50.9212 44.2188 51.5273 44.5096C52.1449 44.8215 52.6202 45.2462 52.9534 45.8049C53.2855 46.3626 53.4526 47.0103 53.4526 47.7689C53.4526 48.5275 53.2865 49.1752 52.9534 49.7559C52.6202 50.3136 52.1458 50.7383 51.5273 51.0502C50.9212 51.363 50.2091 51.497 49.3891 51.497H43.8653V44.0638V44.0629Z" fill="white"/>
<path d="M67 84H39V89H67V84Z" fill="white"/>
</g>
<defs>
<filter id="filter0_d_4372_12953" x="9.5" y="10.75" width="109" height="109" filterUnits="userSpaceOnUse" color-interpolation-filters="sRGB">
<feFlood flood-opacity="0" result="BackgroundImageFix"/>
<feColorMatrix in="SourceAlpha" type="matrix" values="0 0 0 0 0 0 0 0 0 0 0 0 0 0 0 0 0 0 127 0" result="hardAlpha"/>
<feOffset dy="1.25"/>
<feGaussianBlur stdDeviation="1.25"/>
<feColorMatrix type="matrix" values="0 0 0 0 0 0 0 0 0 0 0 0 0 0 0 0 0 0 0.3 0"/>
<feBlend mode="normal" in2="BackgroundImageFix" result="effect1_dropShadow_4372_12953"/>
<feBlend mode="normal" in="SourceGraphic" in2="effect1_dropShadow_4372_12953" result="shape"/>
</filter>
<linearGradient id="paint0_linear_4372_12953" x1="14.6652" y1="97.0909" x2="77.4028" y2="97.0909" gradientUnits="userSpaceOnUse">
<stop  offset="0" stop-color="#00D886"/>
<stop offset="0.78" stop-color="#FFAB00"/>
</linearGradient>
<linearGradient id="paint1_linear_4372_12953" x1="112.886" y1="112.906" x2="15.8281" y2="15.849" gradientUnits="userSpaceOnUse">
<stop offset="0.19" stop-color="#FFAB00"/>
<stop offset="0.83" stop-color="#FF004C"/>
</linearGradient>
</defs>
</svg>
