<svg width="256" height="256" viewBox="0 0 256 256" fill="none" xmlns="http://www.w3.org/2000/svg">
<g filter="url(#filter0_d_4372_12951)">
<path d="M25 156.091V183C25 209.51 46.4904 231 73 231H156.091V156.091H25Z" fill="url(#paint0_linear_4372_12951)"/>
<path d="M156.091 25.0001V137.364H231V73.0001C231 46.4905 209.51 25.0001 183 25.0001H156.091Z" fill="#00D886"/>
<path d="M73.002 25.0021C46.4915 25.0009 25 46.4916 25 73.0021V156.089L156.091 231H183C209.51 231 231 209.51 231 183V137.364L156.01 25.0056L73.002 25.0021Z" fill="url(#paint1_linear_4372_12951)"/>
<path d="M194 62H62V194H194V62Z" fill="black"/>
<path d="M165.57 129L153.904 109.373C154.682 109.125 155.509 108.945 156.225 108.613C158.886 107.301 160.927 105.506 162.351 103.189C163.796 100.87 164.52 98.2015 164.52 95.1378C164.52 92.074 163.807 89.494 162.384 87.2197C160.984 84.9453 158.978 83.151 156.364 81.8816C153.75 80.6122 150.729 80.001 147.298 80.001H126.263V129H135.818V110.494H144.064L154.613 129H165.568H165.57ZM135.821 87.9641H146.672C148.283 87.9641 149.681 88.2697 150.872 88.8397C152.085 89.4509 153.019 90.2834 153.671 91.3784C154.324 92.4715 154.652 93.7409 154.652 95.2278C154.652 96.7146 154.326 97.984 153.671 99.1221C153.017 100.215 152.085 101.048 150.872 101.659C149.681 102.272 148.283 102.535 146.672 102.535H135.821V87.9659V87.9641Z" fill="white"/>
<path d="M89.4904 110.494H97.7366L108.285 129H119.241L107.575 109.373C108.353 109.125 109.18 108.945 109.896 108.613C112.557 107.301 114.597 105.506 116.022 103.189C117.467 100.87 118.191 98.2015 118.191 95.1378C118.191 92.074 117.478 89.494 116.055 87.2197C114.655 84.9453 112.648 83.151 110.035 81.8816C107.421 80.6122 104.4 80.001 100.969 80.001H79.9336V129H89.4885V110.494H89.4904ZM89.4904 87.9641H100.341C101.952 87.9641 103.35 88.2697 104.541 88.8397C105.754 89.4509 106.688 90.2834 107.342 91.3784C107.995 92.4715 108.323 93.7409 108.323 95.2278C108.323 96.7146 107.997 97.984 107.342 99.1221C106.688 100.215 105.756 101.048 104.541 101.659C103.35 102.272 101.952 102.535 100.341 102.535H89.4904V87.9659V87.9641Z" fill="white"/>
<path d="M132.5 167.5H80V176H132.5V167.5Z" fill="white"/>
</g>
<defs>
<filter id="filter0_d_4372_12951" x="20" y="22.5" width="216" height="216" filterUnits="userSpaceOnUse" color-interpolation-filters="sRGB">
<feFlood flood-opacity="0" result="BackgroundImageFix"/>
<feColorMatrix in="SourceAlpha" type="matrix" values="0 0 0 0 0 0 0 0 0 0 0 0 0 0 0 0 0 0 127 0" result="hardAlpha"/>
<feOffset dy="2.5"/>
<feGaussianBlur stdDeviation="2.5"/>
<feColorMatrix type="matrix" values="0 0 0 0 0 0 0 0 0 0 0 0 0 0 0 0 0 0 0.3 0"/>
<feBlend mode="normal" in2="BackgroundImageFix" result="effect1_dropShadow_4372_12951"/>
<feBlend mode="normal" in="SourceGraphic" in2="effect1_dropShadow_4372_12951" result="shape"/>
</filter>
<linearGradient id="paint0_linear_4372_12951" x1="30.2792" y1="193.545" x2="154.548" y2="193.545" gradientUnits="userSpaceOnUse">
<stop  offset="0" stop-color="#00D886"/>
<stop offset="0.78" stop-color="#FFAB00"/>
</linearGradient>
<linearGradient id="paint1_linear_4372_12951" x1="224.831" y1="224.872" x2="32.5827" y2="32.6239" gradientUnits="userSpaceOnUse">
<stop offset="0.19" stop-color="#FFAB00"/>
<stop offset="0.83" stop-color="#FF004C"/>
</linearGradient>
</defs>
</svg>
