<svg width="1024" height="1024" viewBox="0 0 1024 1024" fill="none" xmlns="http://www.w3.org/2000/svg">
<g filter="url(#filter0_d_6180_42603)">
<path d="M100 624.364V732C100 838.039 185.961 924 292 924H624.364V624.364H100Z" fill="url(#paint0_linear_6180_42603)"/>
<path d="M624.363 100V549.455H924V292C924 185.961 838.038 100 732 100H624.363Z" fill="#00D886"/>
<path d="M292.008 100.008C185.966 100.004 100 185.966 100 292.008V624.356L624.364 924H732C838.039 924 924 838.039 924 732V549.455L624.042 100.022L292.008 100.008Z" fill="url(#paint1_linear_6180_42603)"/>
<path d="M776 248H248V776H776V248Z" fill="black"/>
<path d="M662.278 516L615.613 437.491C618.726 436.501 622.033 435.781 624.898 434.453C635.541 429.203 643.708 422.026 649.401 412.756C655.183 403.478 658.078 392.806 658.078 380.551C658.078 368.296 655.228 357.976 649.536 348.879C643.933 339.781 635.908 332.604 625.453 327.526C614.998 322.449 602.916 320.004 589.191 320.004H505.049V516H543.269V441.975H576.253L618.448 516H662.27H662.278ZM543.284 351.856H586.686C593.128 351.856 598.723 353.078 603.486 355.358C608.338 357.803 612.073 361.133 614.683 365.513C617.293 369.886 618.606 374.963 618.606 380.911C618.606 386.858 617.301 391.936 614.683 396.488C612.066 400.861 608.338 404.191 603.486 406.636C598.723 409.088 593.128 410.138 586.686 410.138H543.284V351.863V351.856Z" fill="white"/>
<path d="M357.96 441.975H390.945L433.139 516H476.962L430.297 437.491C433.409 436.501 436.717 435.781 439.582 434.453C450.224 429.203 458.384 422.026 464.084 412.756C469.867 403.478 472.762 392.806 472.762 380.551C472.762 368.296 469.912 357.976 464.219 348.879C458.617 339.781 450.592 332.604 440.137 327.526C429.682 322.449 417.599 320.004 403.874 320.004H319.732V516H357.952V441.975H357.96ZM357.96 351.856H401.362C407.804 351.856 413.399 353.078 418.162 355.358C423.014 357.803 426.749 361.133 429.367 365.513C431.977 369.886 433.289 374.963 433.289 380.911C433.289 386.858 431.984 391.936 429.367 396.488C426.749 400.861 423.022 404.191 418.162 406.636C413.399 409.088 407.804 410.138 401.362 410.138H357.96V351.863V351.856Z" fill="white"/>
<path d="M530 670H320V704H530V670Z" fill="white"/>
</g>
<defs>
<filter id="filter0_d_6180_42603" x="80" y="90" width="864" height="864" filterUnits="userSpaceOnUse" color-interpolation-filters="sRGB">
<feFlood flood-opacity="0" result="BackgroundImageFix"/>
<feColorMatrix in="SourceAlpha" type="matrix" values="0 0 0 0 0 0 0 0 0 0 0 0 0 0 0 0 0 0 127 0" result="hardAlpha"/>
<feOffset dy="10"/>
<feGaussianBlur stdDeviation="10"/>
<feColorMatrix type="matrix" values="0 0 0 0 0 0 0 0 0 0 0 0 0 0 0 0 0 0 0.3 0"/>
<feBlend mode="normal" in2="BackgroundImageFix" result="effect1_dropShadow_6180_42603"/>
<feBlend mode="normal" in="SourceGraphic" in2="effect1_dropShadow_6180_42603" result="shape"/>
</filter>
<linearGradient id="paint0_linear_6180_42603" x1="121.117" y1="774.182" x2="618.191" y2="774.182" gradientUnits="userSpaceOnUse">
<stop  offset="0" stop-color="#00D886"/>
<stop offset="0.78" stop-color="#FFAB00"/>
</linearGradient>
<linearGradient id="paint1_linear_6180_42603" x1="899.325" y1="899.49" x2="130.331" y2="130.496" gradientUnits="userSpaceOnUse">
<stop offset="0.19" stop-color="#FFAB00"/>
<stop offset="0.83" stop-color="#FF004C"/>
</linearGradient>
</defs>
</svg>
