<svg width="32" height="32" viewBox="0 0 32 32" fill="none" xmlns="http://www.w3.org/2000/svg">
<path d="M2 19.8182V24C2 27.3137 4.68629 30 8 30H19.8182V19.8182H2Z" fill="url(#paint0_linear_4372_12954)"/>
<path d="M19.8184 2.00022V17.2729H30.0002V8.00022C30.0002 4.68651 27.3139 2.00022 24.0002 2.00022H19.8184Z" fill="#00D886"/>
<path d="M8.00025 2.00026C4.68644 2.00012 2 4.68645 2 8.00026V19.8179L19.8182 30H24C27.3137 30 30 27.3137 30 24V17.2727L19.8072 2.00076L8.00025 2.00026Z" fill="url(#paint1_linear_4372_12954)"/>
<path d="M25 7H7V25H25V7Z" fill="black"/>
<path d="M21.1896 16.1198L19.5896 13.428C19.6963 13.3941 19.8097 13.3694 19.908 13.3239C20.2729 13.1439 20.5529 12.8978 20.7481 12.58C20.9463 12.2619 21.0456 11.896 21.0456 11.4758C21.0456 11.0556 20.9479 10.7018 20.7527 10.3899C20.5606 10.078 20.2855 9.8319 19.927 9.65782C19.5685 9.48373 19.1543 9.3999 18.6837 9.3999H15.7988V16.1198H17.1092V13.5818H18.2401L19.6868 16.1198H21.1893H21.1896ZM17.1097 10.492H18.5978C18.8187 10.492 19.0105 10.5339 19.1738 10.6121C19.3402 10.6959 19.4683 10.8101 19.5577 10.9602C19.6472 11.1102 19.6922 11.2842 19.6922 11.4882C19.6922 11.6921 19.6475 11.8662 19.5577 12.0222C19.468 12.1722 19.3402 12.2863 19.1738 12.3702C19.0105 12.4542 18.8187 12.4902 18.5978 12.4902H17.1097V10.4922V10.492Z" fill="white"/>
<path d="M10.756 13.5818H11.8869L13.3336 16.1198H14.8361L13.2361 13.428C13.3428 13.3941 13.4562 13.3694 13.5545 13.3239C13.9193 13.1439 14.1991 12.8978 14.3945 12.58C14.5928 12.2619 14.6921 11.896 14.6921 11.4758C14.6921 11.0556 14.5943 10.7018 14.3992 10.3899C14.2071 10.078 13.9319 9.8319 13.5735 9.65782C13.215 9.48373 12.8008 9.3999 12.3302 9.3999H9.44531V16.1198H10.7557V13.5818H10.756ZM10.756 10.492H12.2441C12.4649 10.492 12.6568 10.5339 12.8201 10.6121C12.9864 10.6959 13.1145 10.8101 13.2042 10.9602C13.2937 11.1102 13.3387 11.2842 13.3387 11.4882C13.3387 11.6921 13.294 11.8662 13.2042 12.0222C13.1145 12.1722 12.9867 12.2863 12.8201 12.3702C12.6568 12.4542 12.4649 12.4902 12.2441 12.4902H10.756V10.4922V10.492Z" fill="white"/>
<path d="M16 22H9V23H16V22Z" fill="white"/>
<defs>
<linearGradient id="paint0_linear_4372_12954" x1="2.71756" y1="24.9091" x2="19.6084" y2="24.9091" gradientUnits="userSpaceOnUse">
<stop  offset="0" stop-color="#00D886"/>
<stop offset="0.78" stop-color="#FFAB00"/>
</linearGradient>
<linearGradient id="paint1_linear_4372_12954" x1="29.1615" y1="29.1671" x2="3.03066" y2="3.03626" gradientUnits="userSpaceOnUse">
<stop offset="0.19" stop-color="#FFAB00"/>
<stop offset="0.83" stop-color="#FF004C"/>
</linearGradient>
</defs>
</svg>
