<svg width="512" height="512" viewBox="0 0 512 512" fill="none" xmlns="http://www.w3.org/2000/svg">
<g filter="url(#filter0_d_4372_12952)">
<path d="M50 312.182V366C50 419.019 92.9807 462 146 462H312.182V312.182H50Z" fill="url(#paint0_linear_4372_12952)"/>
<path d="M312.182 50V274.727H462V146C462 92.9807 419.019 50 366 50H312.182Z" fill="#00D886"/>
<path d="M146.004 50.0041C92.9831 50.0018 50 92.9832 50 146.004V312.178L312.182 462H366C419.019 462 462 419.019 462 366V274.727L312.021 50.0112L146.004 50.0041Z" fill="url(#paint1_linear_4372_12952)"/>
<path d="M388 124H124V388H388V124Z" fill="black"/>
<path d="M331.139 258L307.807 218.745C309.363 218.25 311.017 217.89 312.449 217.227C317.77 214.602 321.854 211.013 324.7 206.378C327.591 201.739 329.039 196.403 329.039 190.276C329.039 184.148 327.614 178.988 324.768 174.439C321.967 169.891 317.954 166.302 312.727 163.763C307.499 161.224 301.458 160.002 294.595 160.002H252.524V258H271.634V220.988H288.127L309.224 258H331.135H331.139ZM271.642 175.928H293.343C296.564 175.928 299.362 176.539 301.743 177.679C304.169 178.902 306.037 180.567 307.342 182.757C308.647 184.943 309.303 187.482 309.303 190.456C309.303 193.429 308.65 195.968 307.342 198.244C306.033 200.43 304.169 202.095 301.743 203.318C299.362 204.544 296.564 205.069 293.343 205.069H271.642V175.932V175.928Z" fill="white"/>
<path d="M178.98 220.988H195.472L216.57 258H238.481L215.148 218.745C216.705 218.25 218.358 217.89 219.791 217.227C225.112 214.602 229.192 211.013 232.042 206.378C234.933 201.739 236.381 196.403 236.381 190.276C236.381 184.148 234.956 178.988 232.11 174.439C229.308 169.891 225.296 166.302 220.068 163.763C214.841 161.224 208.8 160.002 201.937 160.002H159.866V258H178.976V220.988H178.98ZM178.98 175.928H200.681C203.902 175.928 206.7 176.539 209.081 177.679C211.507 178.902 213.375 180.567 214.683 182.757C215.988 184.943 216.645 187.482 216.645 190.456C216.645 193.429 215.992 195.968 214.683 198.244C213.375 200.43 211.511 202.095 209.081 203.318C206.7 204.544 203.902 205.069 200.681 205.069H178.98V175.932V175.928Z" fill="white"/>
<path d="M265 335H160V352H265V335Z" fill="white"/>
</g>
<defs>
<filter id="filter0_d_4372_12952" x="40" y="45" width="432" height="432" filterUnits="userSpaceOnUse" color-interpolation-filters="sRGB">
<feFlood flood-opacity="0" result="BackgroundImageFix"/>
<feColorMatrix in="SourceAlpha" type="matrix" values="0 0 0 0 0 0 0 0 0 0 0 0 0 0 0 0 0 0 127 0" result="hardAlpha"/>
<feOffset dy="5"/>
<feGaussianBlur stdDeviation="5"/>
<feColorMatrix type="matrix" values="0 0 0 0 0 0 0 0 0 0 0 0 0 0 0 0 0 0 0.3 0"/>
<feBlend mode="normal" in2="BackgroundImageFix" result="effect1_dropShadow_4372_12952"/>
<feBlend mode="normal" in="SourceGraphic" in2="effect1_dropShadow_4372_12952" result="shape"/>
</filter>
<linearGradient id="paint0_linear_4372_12952" x1="60.5584" y1="387.091" x2="309.096" y2="387.091" gradientUnits="userSpaceOnUse">
<stop  offset="0" stop-color="#00D886"/>
<stop offset="0.78" stop-color="#FFAB00"/>
</linearGradient>
<linearGradient id="paint1_linear_4372_12952" x1="449.662" y1="449.745" x2="65.1654" y2="65.2478" gradientUnits="userSpaceOnUse">
<stop offset="0.19" stop-color="#FFAB00"/>
<stop offset="0.83" stop-color="#FF004C"/>
</linearGradient>
</defs>
</svg>
