<svg width="64" height="64" viewBox="0 0 64 64" fill="none" xmlns="http://www.w3.org/2000/svg">
<g filter="url(#filter0_d_6179_27271)">
<path d="M6 39.0909V46C6 52.6274 11.3726 58 18 58H39.0909V39.0909H6Z" fill="url(#paint0_linear_6179_27271)"/>
<path d="M39.0908 6.00013V34.3638H57.9999V18.0001C57.9999 11.3727 52.6273 6.00013 45.9999 6.00013H39.0908Z" fill="#F0EB18"/>
<path d="M18.0005 6.00051C11.3729 6.00023 6 11.3729 6 18.0005V39.0904L39.0909 58H46C52.6274 58 58 52.6274 58 46V34.3636L39.0706 6.00142L18.0005 6.00051Z" fill="url(#paint1_linear_6179_27271)"/>
<path d="M49 15H15V49H49V15Z" fill="black"/>
<path d="M21.3197 19.6816L23.3086 28.6751L25.4296 19.6816H27.8584L30.076 28.6751L32.0032 19.6816H34.441L31.4488 32.0015H28.7122L26.6355 23.0519L24.5325 32.0015H21.8043L18.8301 19.6816H21.3206H21.3197ZM39.6305 32.2132C38.7385 32.2132 37.9465 32.0515 37.2544 31.729C36.568 31.4065 36.0283 30.9544 35.6351 30.3736C35.2481 29.7928 35.0486 29.1239 35.0369 28.3672H37.4482C37.4482 28.7246 37.542 29.0395 37.7297 29.3087C37.9173 29.5783 38.1784 29.7895 38.5127 29.9423C38.8469 30.095 39.2312 30.1709 39.6653 30.1709C40.0995 30.1709 40.4456 30.104 40.7567 29.9687C41.0735 29.8277 41.3168 29.6344 41.4869 29.3879C41.6628 29.1413 41.7509 28.8599 41.7509 28.5431C41.7509 28.1504 41.6307 27.8246 41.3903 27.5663C41.1555 27.3079 40.8302 27.1297 40.4135 27.0293L38.2397 26.5452C37.6533 26.4165 37.1427 26.1963 36.7085 25.8852C36.2744 25.5684 35.9373 25.178 35.6964 24.7146C35.4559 24.2517 35.3357 23.7289 35.3357 23.1481C35.3357 22.4442 35.5177 21.8139 35.8812 21.2562C36.2451 20.6929 36.7524 20.2563 37.4034 19.9452C38.0545 19.6284 38.7937 19.47 39.621 19.47C40.4484 19.47 41.2078 19.6227 41.865 19.9277C42.5222 20.2323 43.0323 20.658 43.3962 21.2039C43.7658 21.7441 43.9535 22.3655 43.9596 23.0693H41.5572C41.5572 22.77 41.478 22.5027 41.3196 22.2684C41.1612 22.0275 40.9354 21.8427 40.6421 21.714C40.3546 21.5787 40.0232 21.5117 39.6479 21.5117C39.2726 21.5117 38.9407 21.5768 38.6536 21.7055C38.3722 21.8285 38.152 22.0048 37.9936 22.2335C37.8352 22.4569 37.7561 22.7176 37.7561 23.0165C37.7561 23.3564 37.8645 23.6379 38.0818 23.8613C38.3048 24.0848 38.607 24.2432 38.9884 24.3365L41.0829 24.7943C41.6873 24.9173 42.2238 25.1516 42.6933 25.4981C43.1685 25.838 43.5381 26.2604 43.8021 26.7653C44.0661 27.2636 44.1981 27.8091 44.1981 28.4021C44.1981 29.1291 44.0044 29.7839 43.6173 30.3647C43.2359 30.9398 42.699 31.391 42.0069 31.72C41.3149 32.0491 40.5229 32.2127 39.6309 32.2127L39.6305 32.2132Z" fill="white"/>
<path d="M34 41.5H20V44H34V41.5Z" fill="white"/>
</g>
<defs>
<filter id="filter0_d_6179_27271" x="4.75" y="5.35" width="54.5" height="54.5" filterUnits="userSpaceOnUse" color-interpolation-filters="sRGB">
<feFlood flood-opacity="0" result="BackgroundImageFix"/>
<feColorMatrix in="SourceAlpha" type="matrix" values="0 0 0 0 0 0 0 0 0 0 0 0 0 0 0 0 0 0 127 0" result="hardAlpha"/>
<feOffset dy="0.6"/>
<feGaussianBlur stdDeviation="0.625"/>
<feColorMatrix type="matrix" values="0 0 0 0 0 0 0 0 0 0 0 0 0 0 0 0 0 0 0.3 0"/>
<feBlend mode="normal" in2="BackgroundImageFix" result="effect1_dropShadow_6179_27271"/>
<feBlend mode="normal" in="SourceGraphic" in2="effect1_dropShadow_6179_27271" result="shape"/>
</filter>
<linearGradient id="paint0_linear_6179_27271" x1="7.33262" y1="48.5455" x2="38.7014" y2="48.5455" gradientUnits="userSpaceOnUse">
<stop  offset="0" stop-color="#F0EB18"/>
<stop offset="1" stop-color="#00C4F4"/>
</linearGradient>
<linearGradient id="paint1_linear_6179_27271" x1="56.4428" y1="56.4532" x2="7.91407" y2="7.92448" gradientUnits="userSpaceOnUse">
<stop offset="0.19" stop-color="#00C4F4"/>
<stop offset="0.83" stop-color="#007DFE"/>
</linearGradient>
</defs>
</svg>
