<svg width="256" height="256" viewBox="0 0 256 256" fill="none" xmlns="http://www.w3.org/2000/svg">
<g filter="url(#filter0_d_4372_13113)">
<path d="M25 156.091V183C25 209.51 46.4904 231 73 231H156.091V156.091H25Z" fill="url(#paint0_linear_4372_13113)"/>
<path d="M156.091 25.0001V137.364H231V73.0001C231 46.4905 209.51 25.0001 183 25.0001H156.091Z" fill="#F0EB18"/>
<path d="M73.002 25.0021C46.4915 25.0009 25 46.4916 25 73.0021V156.089L156.091 231H183C209.51 231 231 209.51 231 183V137.364L156.01 25.0056L73.002 25.0021Z" fill="url(#paint1_linear_4372_13113)"/>
<path d="M194 62H62V194H194V62Z" fill="black"/>
<path d="M85.4041 80.0218L93.3149 115.792L101.751 80.0218H111.411L120.231 115.792L127.896 80.0218H137.592L125.691 129.022H114.807L106.547 93.4266L98.1825 129.022H87.3316L75.502 80.0218H85.4078H85.4041ZM158.233 129.864C154.685 129.864 151.535 129.221 148.783 127.939C146.053 126.656 143.906 124.858 142.342 122.548C140.802 120.238 140.009 117.577 139.962 114.568H149.553C149.553 115.989 149.926 117.242 150.673 118.312C151.419 119.385 152.458 120.225 153.787 120.832C155.117 121.44 156.645 121.742 158.372 121.742C160.099 121.742 161.475 121.475 162.712 120.937C163.972 120.377 164.94 119.608 165.617 118.627C166.316 117.647 166.667 116.527 166.667 115.267C166.667 113.705 166.189 112.41 165.232 111.382C164.299 110.354 163.005 109.646 161.347 109.246L152.701 107.321C150.369 106.809 148.338 105.933 146.611 104.696C144.884 103.436 143.544 101.883 142.586 100.04C141.629 98.1985 141.151 96.1191 141.151 93.8091C141.151 91.0096 141.875 88.5027 143.321 86.2845C144.768 84.0438 146.786 82.3075 149.375 81.07C151.965 79.81 154.905 79.1799 158.195 79.1799C161.486 79.1799 164.507 79.7874 167.121 81.0006C169.734 82.2119 171.763 83.9051 173.211 86.0764C174.681 88.2252 175.427 90.6965 175.451 93.4959H165.896C165.896 92.3053 165.581 91.2421 164.951 90.3102C164.321 89.3521 163.423 88.6171 162.257 88.1052C161.113 87.567 159.795 87.3008 158.302 87.3008C156.81 87.3008 155.49 87.5595 154.348 88.0714C153.228 88.5608 152.353 89.2621 151.723 90.1715C151.093 91.0602 150.778 92.0971 150.778 93.2859C150.778 94.6378 151.209 95.7572 152.073 96.646C152.96 97.5348 154.162 98.1648 155.679 98.5361L164.01 100.357C166.414 100.846 168.547 101.778 170.415 103.156C172.305 104.508 173.775 106.188 174.825 108.196C175.875 110.178 176.4 112.348 176.4 114.706C176.4 117.598 175.63 120.202 174.09 122.512C172.573 124.8 170.438 126.594 167.685 127.903C164.932 129.212 161.782 129.862 158.235 129.862L158.233 129.864Z" fill="white"/>
<path d="M132.5 167.5H80V176H132.5V167.5Z" fill="white"/>
</g>
<defs>
<filter id="filter0_d_4372_13113" x="20" y="22.5" width="216" height="216" filterUnits="userSpaceOnUse" color-interpolation-filters="sRGB">
<feFlood flood-opacity="0" result="BackgroundImageFix"/>
<feColorMatrix in="SourceAlpha" type="matrix" values="0 0 0 0 0 0 0 0 0 0 0 0 0 0 0 0 0 0 127 0" result="hardAlpha"/>
<feOffset dy="2.5"/>
<feGaussianBlur stdDeviation="2.5"/>
<feColorMatrix type="matrix" values="0 0 0 0 0 0 0 0 0 0 0 0 0 0 0 0 0 0 0.3 0"/>
<feBlend mode="normal" in2="BackgroundImageFix" result="effect1_dropShadow_4372_13113"/>
<feBlend mode="normal" in="SourceGraphic" in2="effect1_dropShadow_4372_13113" result="shape"/>
</filter>
<linearGradient id="paint0_linear_4372_13113" x1="30.2792" y1="193.545" x2="154.548" y2="193.545" gradientUnits="userSpaceOnUse">
<stop  offset="0" stop-color="#F0EB18"/>
<stop offset="1" stop-color="#00C4F4"/>
</linearGradient>
<linearGradient id="paint1_linear_4372_13113" x1="224.831" y1="224.872" x2="32.5827" y2="32.6239" gradientUnits="userSpaceOnUse">
<stop offset="0.19" stop-color="#00C4F4"/>
<stop offset="0.83" stop-color="#007DFE"/>
</linearGradient>
</defs>
</svg>
