<svg width="32" height="32" viewBox="0 0 32 32" fill="none" xmlns="http://www.w3.org/2000/svg">
<path d="M2 19.8182V24C2 27.3137 4.68629 30 8 30H19.8182V19.8182H2Z" fill="url(#paint0_linear_4372_13116)"/>
<path d="M19.8184 2.00022V17.2729H30.0002V8.00022C30.0002 4.68651 27.3139 2.00022 24.0002 2.00022H19.8184Z" fill="#F0EB18"/>
<path d="M8.00025 2.00026C4.68644 2.00012 2 4.68645 2 8.00026V19.8179L19.8182 30H24C27.3137 30 30 27.3137 30 24V17.2727L19.8072 2.00076L8.00025 2.00026Z" fill="url(#paint1_linear_4372_13116)"/>
<path d="M25 7H7V25H25V7Z" fill="black"/>
<path d="M10.1988 9.40012L11.2837 14.3056L12.4406 9.40012H13.7654L14.975 14.3056L16.0262 9.40012H17.3558L15.7238 16.12H14.231L13.0983 11.2384L11.9512 16.12H10.4631L8.84082 9.40012H10.1993H10.1988ZM20.1865 16.2355C19.7 16.2355 19.268 16.1473 18.8905 15.9714C18.5161 15.7955 18.2216 15.5489 18.0072 15.2321C17.7961 14.9153 17.6873 14.5504 17.6809 14.1377H18.9962C18.9962 14.3326 19.0473 14.5044 19.1497 14.6512C19.252 14.7983 19.3945 14.9135 19.5768 14.9968C19.7591 15.0802 19.9687 15.1216 20.2055 15.1216C20.4423 15.1216 20.6311 15.085 20.8008 15.0112C20.9736 14.9344 21.1063 14.8289 21.1991 14.6944C21.295 14.56 21.3431 14.4064 21.3431 14.2336C21.3431 14.0194 21.2775 13.8418 21.1464 13.7008C21.0183 13.5599 20.8409 13.4627 20.6136 13.408L19.4279 13.1439C19.108 13.0737 18.8295 12.9536 18.5927 12.7839C18.3559 12.6111 18.172 12.3982 18.0406 12.1454C17.9095 11.8929 17.8439 11.6077 17.8439 11.2909C17.8439 10.907 17.9432 10.5632 18.1414 10.259C18.3399 9.9517 18.6166 9.71358 18.9717 9.54387C19.3268 9.37107 19.73 9.28467 20.1813 9.28467C20.6326 9.28467 21.0469 9.36798 21.4053 9.53435C21.7638 9.70047 22.042 9.93267 22.2405 10.2304C22.4421 10.5251 22.5445 10.864 22.5478 11.248H21.2374C21.2374 11.0847 21.1942 10.9389 21.1078 10.8111C21.0214 10.6797 20.8982 10.5789 20.7383 10.5087C20.5814 10.4349 20.4007 10.3984 20.196 10.3984C19.9913 10.3984 19.8103 10.4338 19.6537 10.504C19.5002 10.5712 19.3801 10.6673 19.2937 10.792C19.2073 10.9139 19.1641 11.0561 19.1641 11.2192C19.1641 11.4046 19.2232 11.5581 19.3418 11.68C19.4634 11.8018 19.6282 11.8882 19.8362 11.9392L20.9787 12.1888C21.3084 12.256 21.601 12.3838 21.8571 12.5728C22.1163 12.7582 22.3179 12.9886 22.4619 13.264C22.6059 13.5358 22.6779 13.8333 22.6779 14.1568C22.6779 14.5533 22.5722 14.9104 22.3611 15.2272C22.1531 15.541 21.8602 15.787 21.4827 15.9665C21.1052 16.146 20.6732 16.2352 20.1867 16.2352L20.1865 16.2355Z" fill="white"/>
<path d="M16 22H9V23H16V22Z" fill="white"/>
<defs>
<linearGradient id="paint0_linear_4372_13116" x1="2.71756" y1="24.9091" x2="19.6084" y2="24.9091" gradientUnits="userSpaceOnUse">
<stop  offset="0" stop-color="#F0EB18"/>
<stop offset="1" stop-color="#00C4F4"/>
</linearGradient>
<linearGradient id="paint1_linear_4372_13116" x1="29.1615" y1="29.1671" x2="3.03066" y2="3.03626" gradientUnits="userSpaceOnUse">
<stop offset="0.19" stop-color="#00C4F4"/>
<stop offset="0.83" stop-color="#007DFE"/>
</linearGradient>
</defs>
</svg>
