<svg width="512" height="512" viewBox="0 0 512 512" fill="none" xmlns="http://www.w3.org/2000/svg">
<g filter="url(#filter0_d_4372_13114)">
<path d="M50 312.182V366C50 419.019 92.9807 462 146 462H312.182V312.182H50Z" fill="url(#paint0_linear_4372_13114)"/>
<path d="M312.182 50V274.727H462V146C462 92.9807 419.019 50 366 50H312.182Z" fill="#F0EB18"/>
<path d="M146.004 50.0041C92.9831 50.0018 50 92.9832 50 146.004V312.178L312.182 462H366C419.019 462 462 419.019 462 366V274.727L312.021 50.0112L146.004 50.0041Z" fill="url(#paint1_linear_4372_13114)"/>
<path d="M388 124H124V388H388V124Z" fill="black"/>
<path d="M170.808 160.044L186.63 231.584L203.502 160.044H222.822L240.462 231.584L255.793 160.044H275.185L251.383 258.045H229.613L213.094 186.853L196.365 258.045H174.663L151.004 160.044H170.816H170.808ZM316.466 259.729C309.37 259.729 303.07 258.442 297.565 255.877C292.105 253.312 287.811 249.716 284.684 245.096C281.605 240.476 280.018 235.154 279.925 229.135H299.106C299.106 231.978 299.853 234.483 301.345 236.624C302.838 238.769 304.915 240.449 307.574 241.665C310.233 242.88 313.289 243.483 316.743 243.483C320.197 243.483 322.95 242.951 325.425 241.875C327.945 240.753 329.88 239.216 331.234 237.254C332.632 235.293 333.334 233.054 333.334 230.534C333.334 227.41 332.377 224.819 330.465 222.764C328.597 220.709 326.01 219.291 322.695 218.493L305.403 214.641C300.738 213.618 296.676 211.866 293.223 209.391C289.769 206.871 287.087 203.766 285.171 200.08C283.259 196.397 282.302 192.238 282.302 187.618C282.302 182.019 283.75 177.005 286.641 172.569C289.536 168.088 293.571 164.615 298.75 162.14C303.929 159.62 309.809 158.36 316.391 158.36C322.972 158.36 329.013 159.575 334.241 162.001C339.469 164.424 343.526 167.81 346.421 172.153C349.362 176.45 350.854 181.393 350.903 186.992H331.792C331.792 184.611 331.162 182.484 329.902 180.62C328.642 178.704 326.846 177.234 324.513 176.21C322.226 175.134 319.59 174.602 316.604 174.602C313.619 174.602 310.979 175.119 308.695 176.143C306.457 177.122 304.705 178.524 303.445 180.343C302.185 182.12 301.555 184.194 301.555 186.572C301.555 189.276 302.418 191.514 304.147 193.292C305.92 195.07 308.324 196.33 311.358 197.072L328.02 200.713C332.827 201.692 337.095 203.556 340.83 206.312C344.61 209.016 347.55 212.376 349.65 216.393C351.75 220.356 352.8 224.695 352.8 229.413C352.8 235.196 351.259 240.404 348.18 245.025C345.146 249.6 340.875 253.189 335.37 255.806C329.865 258.424 323.565 259.725 316.469 259.725L316.466 259.729Z" fill="white"/>
<path d="M265 335H160V352H265V335Z" fill="white"/>
</g>
<defs>
<filter id="filter0_d_4372_13114" x="40" y="45" width="432" height="432" filterUnits="userSpaceOnUse" color-interpolation-filters="sRGB">
<feFlood flood-opacity="0" result="BackgroundImageFix"/>
<feColorMatrix in="SourceAlpha" type="matrix" values="0 0 0 0 0 0 0 0 0 0 0 0 0 0 0 0 0 0 127 0" result="hardAlpha"/>
<feOffset dy="5"/>
<feGaussianBlur stdDeviation="5"/>
<feColorMatrix type="matrix" values="0 0 0 0 0 0 0 0 0 0 0 0 0 0 0 0 0 0 0.3 0"/>
<feBlend mode="normal" in2="BackgroundImageFix" result="effect1_dropShadow_4372_13114"/>
<feBlend mode="normal" in="SourceGraphic" in2="effect1_dropShadow_4372_13114" result="shape"/>
</filter>
<linearGradient id="paint0_linear_4372_13114" x1="60.5584" y1="387.091" x2="309.096" y2="387.091" gradientUnits="userSpaceOnUse">
<stop  offset="0" stop-color="#F0EB18"/>
<stop offset="1" stop-color="#00C4F4"/>
</linearGradient>
<linearGradient id="paint1_linear_4372_13114" x1="449.662" y1="449.745" x2="65.1654" y2="65.2478" gradientUnits="userSpaceOnUse">
<stop offset="0.19" stop-color="#00C4F4"/>
<stop offset="0.83" stop-color="#007DFE"/>
</linearGradient>
</defs>
</svg>
