<svg width="1024" height="1024" viewBox="0 0 1024 1024" fill="none" xmlns="http://www.w3.org/2000/svg">
<g filter="url(#filter0_d_6180_42622)">
<path d="M100 624.364V732C100 838.039 185.961 924 292 924H624.364V624.364H100Z" fill="url(#paint0_linear_6180_42622)"/>
<path d="M624.363 100V549.455H924V292C924 185.961 838.038 100 732 100H624.363Z" fill="#F0EB18"/>
<path d="M292.008 100.008C185.966 100.004 100 185.966 100 292.008V624.356L624.364 924H732C838.039 924 924 838.039 924 732V549.455L624.042 100.022L292.008 100.008Z" fill="url(#paint1_linear_6180_42622)"/>
<path d="M776 248H248V776H776V248Z" fill="black"/>
<path d="M341.615 320.087L373.259 463.169L407.002 320.087H445.643L480.924 463.169L511.585 320.087H550.368L502.765 516.09H459.226L426.188 373.706L392.729 516.09H349.326L302.007 320.087H341.63H341.615ZM632.93 519.457C618.74 519.457 606.14 516.885 595.129 511.755C584.209 506.625 575.621 499.432 569.366 490.192C563.209 480.951 560.036 470.309 559.849 458.271H598.212C598.212 463.956 599.705 468.966 602.69 473.249C605.675 477.539 609.83 480.899 615.147 483.329C620.465 485.759 626.578 486.967 633.485 486.967C640.393 486.967 645.898 485.902 650.848 483.749C655.888 481.506 659.759 478.431 662.466 474.509C665.264 470.586 666.666 466.109 666.666 461.068C666.666 454.821 664.754 449.638 660.929 445.528C657.194 441.418 652.018 438.583 645.388 436.985L610.805 429.283C601.475 427.235 593.352 423.733 586.444 418.782C579.537 413.742 574.174 407.532 570.341 400.159C566.516 392.794 564.604 384.476 564.604 375.236C564.604 364.038 567.499 354.011 573.281 345.138C579.071 336.175 587.142 329.23 597.499 324.28C607.857 319.24 619.618 316.72 632.78 316.72C645.943 316.72 658.026 319.15 668.481 324.002C678.937 328.848 687.052 335.62 692.842 344.305C698.722 352.901 701.707 362.786 701.805 373.984H663.584C663.584 369.221 662.324 364.968 659.804 361.241C657.284 357.408 653.691 354.468 649.026 352.421C644.451 350.268 639.178 349.203 633.208 349.203C627.238 349.203 621.958 350.238 617.39 352.286C612.912 354.243 609.41 357.048 606.89 360.686C604.37 364.241 603.11 368.389 603.11 373.144C603.11 378.551 604.835 383.029 608.292 386.584C611.84 390.139 616.647 392.659 622.715 394.144L656.038 401.427C665.654 403.384 674.189 407.112 681.659 412.625C689.219 418.032 695.099 424.753 699.3 432.785C703.5 440.713 705.6 449.391 705.6 458.826C705.6 470.391 702.517 480.809 696.36 490.049C690.292 499.199 681.749 506.377 670.739 511.612C659.729 516.847 647.128 519.45 632.938 519.45L632.93 519.457Z" fill="white"/>
<path d="M530 670H320V704H530V670Z" fill="white"/>
</g>
<defs>
<filter id="filter0_d_6180_42622" x="80" y="90" width="864" height="864" filterUnits="userSpaceOnUse" color-interpolation-filters="sRGB">
<feFlood flood-opacity="0" result="BackgroundImageFix"/>
<feColorMatrix in="SourceAlpha" type="matrix" values="0 0 0 0 0 0 0 0 0 0 0 0 0 0 0 0 0 0 127 0" result="hardAlpha"/>
<feOffset dy="10"/>
<feGaussianBlur stdDeviation="10"/>
<feColorMatrix type="matrix" values="0 0 0 0 0 0 0 0 0 0 0 0 0 0 0 0 0 0 0.3 0"/>
<feBlend mode="normal" in2="BackgroundImageFix" result="effect1_dropShadow_6180_42622"/>
<feBlend mode="normal" in="SourceGraphic" in2="effect1_dropShadow_6180_42622" result="shape"/>
</filter>
<linearGradient id="paint0_linear_6180_42622" x1="121.117" y1="774.182" x2="618.191" y2="774.182" gradientUnits="userSpaceOnUse">
<stop  offset="0" stop-color="#F0EB18"/>
<stop offset="1" stop-color="#00C4F4"/>
</linearGradient>
<linearGradient id="paint1_linear_6180_42622" x1="899.325" y1="899.49" x2="130.331" y2="130.496" gradientUnits="userSpaceOnUse">
<stop offset="0.19" stop-color="#00C4F4"/>
<stop offset="0.83" stop-color="#007DFE"/>
</linearGradient>
</defs>
</svg>
