<svg width="128" height="128" viewBox="0 0 128 128" fill="none" xmlns="http://www.w3.org/2000/svg">
<g filter="url(#filter0_d_4372_13115)">
<path d="M12 78.1818V92C12 105.255 22.7452 116 36 116H78.1818V78.1818H12Z" fill="url(#paint0_linear_4372_13115)"/>
<path d="M78.1816 12V68.7273H116V36C116 22.7452 105.255 12 91.9998 12H78.1816Z" fill="#F0EB18"/>
<path d="M36.001 12.001C22.7458 12.0005 12 22.7458 12 36.001V78.1809L78.1818 116H92C105.255 116 116 105.255 116 92V68.7273L78.1412 12.0028L36.001 12.001Z" fill="url(#paint1_linear_4372_13115)"/>
<path d="M97 31H31V97H97V31Z" fill="black"/>
<path d="M42.6394 39.7087L46.6173 57.6956L50.8592 39.7087H55.7168L60.152 57.6956L64.0064 39.7087H68.8819L62.8976 64.3484H57.4243L53.271 46.4492L49.065 64.3484H43.6086L37.6602 39.7087H42.6413H42.6394ZM79.2609 64.7718C77.477 64.7718 75.893 64.4484 74.5089 63.8035C73.1361 63.1585 72.0565 62.2543 71.2702 61.0927C70.4961 59.9311 70.0973 58.5932 70.0737 57.0799H74.8964C74.8964 57.7946 75.084 58.4245 75.4593 58.9628C75.8346 59.5021 76.3569 59.9245 77.0254 60.23C77.6939 60.5355 78.4623 60.6873 79.3307 60.6873C80.199 60.6873 80.8911 60.5534 81.5134 60.2828C82.147 60.0009 82.6335 59.6143 82.9739 59.1212C83.3256 58.6281 83.5019 58.0652 83.5019 57.4316C83.5019 56.6462 83.2614 55.9947 82.7806 55.478C82.311 54.9613 81.6605 54.6049 80.827 54.4041L76.4795 53.4358C75.3066 53.1784 74.2854 52.7381 73.4171 52.1158C72.5487 51.4822 71.8746 50.7015 71.3928 49.7747C70.9119 48.8488 70.6715 47.8032 70.6715 46.6416C70.6715 45.2339 71.0354 43.9733 71.7624 42.8579C72.4902 41.7312 73.5048 40.8581 74.8068 40.2358C76.1089 39.6022 77.5873 39.2854 79.242 39.2854C80.8968 39.2854 82.4157 39.5909 83.73 40.2009C85.0444 40.81 86.0646 41.6614 86.7924 42.7532C87.5316 43.8337 87.9069 45.0764 87.9192 46.4841H83.1144C83.1144 45.8854 82.956 45.3508 82.6392 44.8822C82.3224 44.4004 81.8707 44.0308 81.2843 43.7734C80.7091 43.5028 80.0463 43.3689 79.2958 43.3689C78.5453 43.3689 77.8815 43.499 77.3073 43.7564C76.7444 44.0025 76.3041 44.3551 75.9873 44.8124C75.6705 45.2593 75.5121 45.7807 75.5121 46.3785C75.5121 47.0583 75.729 47.6212 76.1636 48.0681C76.6096 48.515 77.214 48.8318 77.9767 49.0185L82.1658 49.934C83.3746 50.1801 84.4476 50.6487 85.3866 51.3417C86.337 52.0215 87.0762 52.8663 87.6042 53.8761C88.1322 54.8727 88.3962 55.9636 88.3962 57.1497C88.3962 58.6036 88.0087 59.9132 87.2346 61.0748C86.4719 62.2251 85.398 63.1274 84.0138 63.7855C82.6297 64.4437 81.0457 64.7708 79.2618 64.7708L79.2609 64.7718Z" fill="white"/>
<path d="M67 84H39V89H67V84Z" fill="white"/>
</g>
<defs>
<filter id="filter0_d_4372_13115" x="9.5" y="10.75" width="109" height="109" filterUnits="userSpaceOnUse" color-interpolation-filters="sRGB">
<feFlood flood-opacity="0" result="BackgroundImageFix"/>
<feColorMatrix in="SourceAlpha" type="matrix" values="0 0 0 0 0 0 0 0 0 0 0 0 0 0 0 0 0 0 127 0" result="hardAlpha"/>
<feOffset dy="1.25"/>
<feGaussianBlur stdDeviation="1.25"/>
<feColorMatrix type="matrix" values="0 0 0 0 0 0 0 0 0 0 0 0 0 0 0 0 0 0 0.3 0"/>
<feBlend mode="normal" in2="BackgroundImageFix" result="effect1_dropShadow_4372_13115"/>
<feBlend mode="normal" in="SourceGraphic" in2="effect1_dropShadow_4372_13115" result="shape"/>
</filter>
<linearGradient id="paint0_linear_4372_13115" x1="14.6652" y1="97.0909" x2="77.4028" y2="97.0909" gradientUnits="userSpaceOnUse">
<stop  offset="0" stop-color="#F0EB18"/>
<stop offset="1" stop-color="#00C4F4"/>
</linearGradient>
<linearGradient id="paint1_linear_4372_13115" x1="112.886" y1="112.906" x2="15.8281" y2="15.849" gradientUnits="userSpaceOnUse">
<stop offset="0.19" stop-color="#00C4F4"/>
<stop offset="0.83" stop-color="#007DFE"/>
</linearGradient>
</defs>
</svg>
