<svg width="16" height="16" viewBox="0 0 16 16" fill="none" xmlns="http://www.w3.org/2000/svg">
<g clip-path="url(#clip0_4372_12945)">
<path d="M16 0H0V16H16V0Z" fill="#FDB60D"/>
<path d="M15 1H1V15H15V1Z" fill="black"/>
<path d="M12.1342 8.0933L10.8898 5.9997C10.9728 5.9733 11.061 5.9541 11.1374 5.9187C11.4212 5.7787 11.639 5.5873 11.7908 5.3401C11.945 5.0927 12.0222 4.8081 12.0222 4.4813C12.0222 4.1545 11.9462 3.8793 11.7944 3.6367C11.645 3.3941 11.431 3.2027 11.1522 3.0673C10.8734 2.9319 10.5512 2.8667 10.1852 2.8667H7.94141V8.0933H8.96061V6.1193H9.84021L10.9654 8.0933H12.134H12.1342ZM8.96101 3.7161H10.1184C10.2902 3.7161 10.4394 3.7487 10.5664 3.8095C10.6958 3.8747 10.7954 3.9635 10.865 4.0803C10.9346 4.1969 10.9696 4.3323 10.9696 4.4909C10.9696 4.6495 10.9348 4.7849 10.865 4.9063C10.7952 5.0229 10.6958 5.1117 10.5664 5.1769C10.4394 5.2423 10.2902 5.2703 10.1184 5.2703H8.96101V3.7163V3.7161Z" fill="white"/>
<path d="M4.0194 6.1193H4.899L6.0242 8.0933H7.1928L5.9484 5.9997C6.0314 5.9733 6.1196 5.9541 6.196 5.9187C6.4798 5.7787 6.6974 5.5873 6.8494 5.3401C7.0036 5.0927 7.0808 4.8081 7.0808 4.4813C7.0808 4.1545 7.0048 3.8793 6.853 3.6367C6.7036 3.3941 6.4896 3.2027 6.2108 3.0673C5.932 2.9319 5.6098 2.8667 5.2438 2.8667H3V8.0933H4.0192V6.1193H4.0194ZM4.0194 3.7161H5.1768C5.3486 3.7161 5.4978 3.7487 5.6248 3.8095C5.7542 3.8747 5.8538 3.9635 5.9236 4.0803C5.9932 4.1969 6.0282 4.3323 6.0282 4.4909C6.0282 4.6495 5.9934 4.7849 5.9236 4.9063C5.8538 5.0229 5.7544 5.1117 5.6248 5.1769C5.4978 5.2423 5.3486 5.2703 5.1768 5.2703H4.0194V3.7163V3.7161Z" fill="white"/>
<path d="M8 12H3V13H8V12Z" fill="white"/>
</g>
<defs>
<clipPath id="clip0_4372_12945">
<rect width="16" height="16" fill="white"/>
</clipPath>
</defs>
<path d="M8 9C8 8.44772 8.44772 8 9 8H14C14.5523 8 15 8.44772 15 9V15H9C8.44772 15 8 14.5523 8 14V9Z" fill="white"/>
<path d="M14.0026 13.9997H13.1502C13.1502 11.7136 11.2928 9.85359 9.00977 9.85359V9C11.7628 9 14.0026 11.2429 14.0026 13.9997Z" fill="#1A1A1A"/>
<path d="M12.5545 13.9999H11.6981C11.6981 12.5112 10.4886 11.3 9.00195 11.3V10.4424C10.9609 10.4424 12.5545 12.0383 12.5545 13.9999Z" fill="#1A1A1A"/>
<path d="M11.1143 14.0005H10.2483C10.2483 13.3124 9.68918 12.7525 9.00195 12.7525V11.8853C10.1667 11.8853 11.1143 12.8342 11.1143 14.0005Z" fill="#1A1A1A"/>
</svg>