<svg width="32" height="32" viewBox="0 0 32 32" fill="none" xmlns="http://www.w3.org/2000/svg" data-scaled="true">
<g clip-path="url(#clip0_4372_12947)">
<path d="M2.90918 24.0261L2.91005 29.9638C2.91005 31.0885 3.82176 31.9999 4.94642 31.9999H10.6997C11.2941 31.9999 11.859 31.7401 12.2459 31.2889L28.6008 12.2082C28.917 11.839 29.091 11.3689 29.091 10.8828V4.94505C29.091 3.8204 28.1793 2.90869 27.0546 2.90869H21.3004C20.7061 2.90869 20.1412 3.16847 19.7543 3.61967L3.39936 22.7004C3.08285 23.0696 2.90918 23.5397 2.90918 24.0261Z" fill="#00D886"/>
<path d="M2.90918 24.7403V29.9636C2.90918 31.0882 3.82089 31.9999 4.94554 31.9999H11.4919C11.5882 31.9999 11.6845 31.9929 11.7799 31.9796L30.2517 29.341C31.2551 29.1976 32.0001 28.3385 32.0001 27.325V19.4885C32.0001 18.3636 31.0881 17.4519 29.9631 17.4521L20.6939 17.4545C20.4751 17.4545 20.2578 17.4897 20.0504 17.5589L4.30147 22.8087C3.47005 23.0859 2.90918 23.8641 2.90918 24.7406V24.7403Z" fill="url(#paint0_linear_4372_12947)"/>
<path d="M0 2.03636V19.0205C0 19.8351 0.485527 20.5713 1.23404 20.8922L19.9793 28.9262C20.2327 29.0348 20.5059 29.0909 20.7817 29.0909H29.9636C31.0883 29.0909 32 28.1792 32 27.0545V18.0716C32 17.6692 31.8807 17.2759 31.6573 16.9411L20.9556 0.906763C20.578 0.340654 19.9427 0.000872727 19.262 0.000872727L2.03636 0C0.911709 0 0 0.911709 0 2.03636Z" fill="url(#paint1_linear_4372_12947)"/>
<path d="M26 6H6V26H26V6Z" fill="black"/>
<path d="M22.2325 16.6L20.423 13.5557C20.5437 13.5173 20.672 13.4894 20.783 13.4379C21.1957 13.2343 21.5124 12.956 21.7332 12.5966C21.9574 12.2368 22.0696 11.823 22.0696 11.3478C22.0696 10.8726 21.9591 10.4724 21.7384 10.1197C21.5211 9.76689 21.21 9.48858 20.8046 9.29169C20.3992 9.09481 19.9307 9 19.3985 9H16.1357V16.6H17.6178V13.7296H18.8968L20.5329 16.6H22.2322H22.2325ZM17.6183 10.2351H19.3013C19.5511 10.2351 19.7681 10.2825 19.9528 10.3709C20.1409 10.4657 20.2857 10.5949 20.3869 10.7647C20.4882 10.9342 20.539 11.1311 20.539 11.3618C20.539 11.5924 20.4884 11.7893 20.3869 11.9658C20.2855 12.1353 20.1409 12.2645 19.9528 12.3593C19.7681 12.4544 19.5511 12.4951 19.3013 12.4951H17.6183V10.2354V10.2351Z" fill="white"/>
<path d="M10.4325 13.7296H11.7115L13.3477 16.6H15.0469L13.2375 13.5557C13.3582 13.5173 13.4864 13.4894 13.5975 13.4379C14.0102 13.2343 14.3266 12.956 14.5476 12.5966C14.7718 12.2368 14.8841 11.823 14.8841 11.3478C14.8841 10.8726 14.7736 10.4724 14.5528 10.1197C14.3356 9.76689 14.0244 9.48858 13.619 9.29169C13.2136 9.09481 12.7451 9 12.2129 9H8.9502V16.6H10.4322V13.7296H10.4325ZM10.4325 10.2351H12.1155C12.3653 10.2351 12.5822 10.2825 12.7669 10.3709C12.9551 10.4657 13.0999 10.5949 13.2014 10.7647C13.3026 10.9342 13.3535 11.1311 13.3535 11.3618C13.3535 11.5924 13.3029 11.7893 13.2014 11.9658C13.0999 12.1353 12.9554 12.2645 12.7669 12.3593C12.5822 12.4544 12.3653 12.4951 12.1155 12.4951H10.4325V10.2354V10.2351Z" fill="white"/>
<path d="M16 22H9V23H16V22Z" fill="white"/>
</g>
<defs>
<linearGradient id="paint0_linear_4372_12947" x1="3.81071" y1="32.3586" x2="30.6238" y2="19.9272" gradientUnits="userSpaceOnUse">
<stop offset="0.08" stop-color="#00D886"/>
<stop offset="0.46" stop-color="#FFAB00"/>
</linearGradient>
<linearGradient id="paint1_linear_4372_12947" x1="30.0093" y1="29.8889" x2="0.656582" y2="0.536435" gradientUnits="userSpaceOnUse">
<stop offset="0.19" stop-color="#FFAB00"/>
<stop offset="0.83" stop-color="#FF004C"/>
</linearGradient>
<clipPath id="clip0_4372_12947">
<rect width="32" height="32" fill="white"/>
</clipPath>
</defs>
</svg>
