<svg width="16" height="16" viewBox="0 0 16 16" fill="none" xmlns="http://www.w3.org/2000/svg">
<g clip-path="url(#clip0_4372_12620)">
<path d="M16 0H0V16H16V0Z" fill="#DD1265"/>
<path d="M15 1H1V15H15V1Z" fill="black"/>
<path d="M3.92126 6.1193H4.80086L5.92606 8.0933H7.09466L5.85026 5.9997C5.93325 5.9733 6.02146 5.9541 6.09786 5.9187C6.38166 5.7787 6.59946 5.5873 6.75126 5.3401C6.90546 5.0927 6.98266 4.8081 6.98266 4.4813C6.98266 4.1545 6.90666 3.8793 6.75486 3.6367C6.60546 3.3941 6.39146 3.2027 6.11266 3.0675C5.83386 2.9321 5.51146 2.8667 5.14566 2.8667H2.90186V8.0933H3.92106V6.1193H3.92126ZM3.92126 3.7159H5.07866C5.25046 3.7159 5.39966 3.7487 5.52666 3.8093C5.65606 3.8747 5.75566 3.9633 5.82526 4.0801C5.89486 4.1967 5.92986 4.3321 5.92986 4.4907C5.92986 4.6493 5.89506 4.7847 5.82526 4.9061C5.75546 5.0227 5.65606 5.1115 5.52666 5.1767C5.39966 5.2419 5.25046 5.2701 5.07866 5.2701H3.92126V3.7161V3.7159Z" fill="white"/>
<path d="M12.0852 4.1361C11.8636 3.7395 11.5562 3.4267 11.163 3.2027C10.7722 2.9787 10.3292 2.8667 9.83404 2.8667H7.84424V8.0933H9.83404C10.3292 8.0933 10.7722 7.9813 11.163 7.7573C11.5562 7.5333 11.8636 7.2253 12.0852 6.8287C12.3066 6.4273 12.4174 5.9793 12.4174 5.4801C12.4174 4.9809 12.3066 4.5327 12.0852 4.1361ZM11.1818 6.4041C11.0548 6.6655 10.8744 6.8659 10.6404 7.0013C10.4064 7.1415 10.1338 7.2113 9.82284 7.2113H8.86344V3.7487H9.82284C10.1338 3.7487 10.4064 3.8187 10.6404 3.9585C10.8744 4.0939 11.0548 4.2947 11.1818 4.5559C11.3088 4.8173 11.3722 5.1251 11.3722 5.4799C11.3722 5.8347 11.3088 6.1425 11.1818 6.4039V6.4041Z" fill="white"/>
<path d="M8 12H3V13H8V12Z" fill="white"/>
</g>
<defs>
<clipPath id="clip0_4372_12620">
<rect width="16" height="16" fill="white"/>
</clipPath>
</defs>
</svg>
