<svg width="32" height="32" viewBox="0 0 32 32" fill="none" xmlns="http://www.w3.org/2000/svg" data-scaled="true">
<g clip-path="url(#clip0_4372_12622)">
<path d="M24.0261 29.091L29.9638 29.0901C31.0885 29.0901 31.9999 28.1784 31.9999 27.0538V21.3005C31.9999 20.7061 31.7401 20.1412 31.2889 19.7543L12.2082 3.39936C11.839 3.08314 11.3689 2.90918 10.8828 2.90918H4.94506C3.8204 2.90918 2.90869 3.82089 2.90869 4.94554V10.6997C2.90869 11.2941 3.16847 11.859 3.61967 12.2459L22.7001 28.6005C23.0693 28.917 23.5394 29.0907 24.0258 29.0907L24.0261 29.091Z" fill="#007DFE"/>
<path d="M24.7406 29.0909H29.9639C31.0885 29.0909 32.0002 28.1792 32.0002 27.0545V20.5082C32.0002 20.4119 31.9932 20.3156 31.9799 20.2202L29.341 1.74836C29.1976 0.745018 28.3385 0 27.325 0H19.4885C18.3636 0 17.4519 0.912 17.4521 2.03695L17.4545 11.3062C17.4545 11.5249 17.4897 11.7423 17.5589 11.9497L22.8087 27.6986C23.0859 28.53 23.8641 29.0909 24.7406 29.0909Z" fill="url(#paint0_linear_4372_12622)"/>
<path d="M2.03636 32H19.0205C19.8351 32 20.5713 31.5145 20.8922 30.766L28.9263 12.0207C29.0348 11.7673 29.0909 11.4941 29.0909 11.2183V2.03636C29.0909 0.911709 28.1792 0 27.0545 0H18.0716C17.6692 0 17.2759 0.119273 16.9411 0.342691L0.906764 11.0441C0.340655 11.422 0.000872727 12.0573 0.000872727 12.7377L0 29.9636C0 31.0883 0.911709 32 2.03636 32Z" fill="url(#paint1_linear_4372_12622)"/>
<path d="M26 6H6V26H26V6Z" fill="black"/>
<path d="M16 22H9V23H16V22Z" fill="white"/>
<path d="M10.4324 13.7299H11.7114L13.3475 16.6002H15.0467L13.2373 13.556C13.358 13.5176 13.4862 13.4897 13.5973 13.4382C14.01 13.2347 14.3267 12.9564 14.5474 12.5969C14.7716 12.2372 14.8838 11.8234 14.8838 11.3482C14.8838 10.873 14.7733 10.4729 14.5526 10.1201C14.3354 9.76735 14.0242 9.48905 13.6188 9.29246C13.2134 9.09558 12.7447 9.00049 12.2128 9.00049H8.9502V16.6002H10.4322V13.7299H10.4324ZM10.4324 10.2353H12.1154C12.3652 10.2353 12.5821 10.283 12.7668 10.3711C12.9549 10.4662 13.0997 10.595 13.2009 10.7648C13.3021 10.9344 13.353 11.1312 13.353 11.3619C13.353 11.5925 13.3024 11.7893 13.2009 11.9659C13.0994 12.1354 12.9549 12.2645 12.7668 12.3593C12.5821 12.4541 12.3652 12.4951 12.1154 12.4951H10.4324V10.2356V10.2353Z" fill="white"/>
<path d="M22.3028 10.8458C21.9806 10.2691 21.5336 9.81426 20.9619 9.48856C20.3937 9.16285 19.7495 9 19.0295 9H16.1362V16.5997H19.0295C19.7495 16.5997 20.3937 16.4368 20.9619 16.1111C21.5336 15.7854 21.9806 15.3376 22.3028 14.7609C22.6247 14.1773 22.7858 13.5258 22.7858 12.8C22.7858 12.0741 22.6247 11.4224 22.3028 10.8458ZM20.9892 14.1435C20.8046 14.5236 20.5423 14.815 20.202 15.0119C19.8618 15.2157 19.4654 15.3172 19.0132 15.3172H17.6182V10.2825H19.0132C19.4654 10.2825 19.8618 10.3842 20.202 10.5875C20.5423 10.7844 20.8046 11.0764 20.9892 11.4562C21.1739 11.8363 21.2661 12.2838 21.2661 12.7997C21.2661 13.3156 21.1739 13.7631 20.9892 14.1432V14.1435Z" fill="white"/>
</g>
<defs>
<linearGradient id="paint0_linear_4372_12622" x1="32.3589" y1="28.1891" x2="19.9275" y2="1.37629" gradientUnits="userSpaceOnUse">
<stop offset="0.21" stop-color="#007DFE"/>
<stop offset="0.55" stop-color="#FFB700"/>
</linearGradient>
<linearGradient id="paint1_linear_4372_12622" x1="29.8889" y1="1.99069" x2="0.536437" y2="31.3434" gradientUnits="userSpaceOnUse">
<stop offset="0.23" stop-color="#FFB700"/>
<stop offset="0.73" stop-color="#FF0A67"/>
</linearGradient>
<clipPath id="clip0_4372_12622">
<rect width="32" height="32" fill="white"/>
</clipPath>
</defs>
<path d="M28.0943 32H11.9057C11.3928 32 10.8849 31.8989 10.411 31.7026C9.93718 31.5064 9.50663 31.2188 9.14395 30.8561C8.78128 30.4934 8.49358 30.0628 8.2973 29.589C8.10102 29.1151 8 28.6073 8 28.0944V23.9056C8 23.3927 8.10102 22.8849 8.2973 22.411C8.49358 21.9372 8.78128 21.5066 9.14395 21.1439C9.50663 20.7812 9.93718 20.4935 10.411 20.2972C10.8849 20.101 11.3928 20 11.9057 20H28.0943C28.6072 20 29.1151 20.101 29.589 20.2972C30.0628 20.4935 30.4934 20.7812 30.856 21.1439C31.2187 21.5066 31.5064 21.9372 31.7027 22.411C31.899 22.8849 32 23.3927 32 23.9056V28.0944C32 29.1302 31.5885 30.1236 30.856 30.8561C30.1236 31.5885 29.1302 32 28.0943 32V32Z" fill="#FDB60D"/>
<path d="M12.4562 23.3781H16.5756V24.4473H13.6498V25.5551H16.2246V26.6238H13.6498V27.7708H16.6147V28.8395H12.4562V23.3781Z" fill="black"/>
<path d="M19.5557 23.3395H20.6635L23.0041 28.8395H21.748L21.2487 27.6147H18.9395L18.4402 28.8395H17.2156L19.5557 23.3395ZM20.8199 26.5537L20.0941 24.7825L19.3687 26.5537H20.8199Z" fill="black"/>
<path d="M23.8468 23.378H26.0782C26.3431 23.3466 26.6118 23.3722 26.866 23.4531C27.1203 23.534 27.3543 23.6684 27.5523 23.8473C27.7503 24.0261 27.9078 24.2453 28.0141 24.49C28.1205 24.7347 28.1732 24.9992 28.1689 25.266V25.2817C28.1666 25.5583 28.1056 25.8313 27.9899 26.0825C27.8742 26.3337 27.7064 26.5575 27.4977 26.739C27.289 26.9205 27.0441 27.0555 26.7792 27.1352C26.5144 27.2149 26.2356 27.2375 25.9614 27.2013H25.0486V28.8395H23.8468V23.378ZM26 26.1321C26.118 26.1471 26.238 26.1369 26.3519 26.1024C26.4658 26.0678 26.5711 26.0097 26.6609 25.9316C26.7508 25.8536 26.8232 25.7573 26.8733 25.6494C26.9234 25.5414 26.9502 25.4242 26.9518 25.3052V25.2894C26.9518 24.7515 26.5775 24.4625 25.9766 24.4625H25.0486V26.1321H26Z" fill="black"/>
</svg>