<svg width="32" height="32" viewBox="0 0 32 32" fill="none" xmlns="http://www.w3.org/2000/svg">
<path d="M23.9998 2H12.1816V22.3636H29.9998V8C29.9998 4.68629 27.3135 2 23.9998 2Z" fill="#7256FF"/>
<path d="M22.3636 14.7271H2V23.9998C2 27.3135 4.68629 29.9998 8 29.9998H22.3636V14.7271Z" fill="url(#paint0_linear_4372_12787)"/>
<path d="M12.1818 2H8C4.68629 2 2 4.68629 2 8V14.7273L22.3636 30H24C27.3137 30 30 27.3137 30 24V22.3636L12.1818 2Z" fill="#FF8100"/>
<path d="M25 7H7V25H25V7Z" fill="black"/>
<path d="M13.5545 13.3216C13.9193 13.1457 14.1991 12.8991 14.3945 12.5823C14.5928 12.2624 14.6921 11.8942 14.6921 11.4781C14.6921 11.0621 14.5943 10.7023 14.3992 10.3886C14.2071 10.0749 13.9319 9.8319 13.5735 9.6591C13.215 9.4863 12.8008 9.3999 12.3302 9.3999H9.44531V16.1198H10.7557V13.5805H11.8848L13.3336 16.1198H14.8361L13.2346 13.4275C13.3421 13.3933 13.456 13.3686 13.5545 13.3216ZM10.7562 10.4894H12.2443C12.4652 10.4894 12.657 10.5308 12.8203 10.6141C12.9867 10.6938 13.1147 10.8093 13.2042 10.9597C13.2937 11.1066 13.3387 11.283 13.3387 11.4876C13.3387 11.6923 13.294 11.8669 13.2042 12.0204C13.1147 12.1711 12.9867 12.2874 12.8203 12.3709C12.657 12.4506 12.4652 12.491 12.2443 12.491H10.7562V10.4894Z" fill="white"/>
<path d="M20.5564 9.3999L19.2221 13.8112L19.1213 14.3872L19.0061 13.8112L17.6237 9.3999H15.7998V16.1201H17.0909V11.3249L17.0716 11.0081L18.6173 16.1201H19.5677L21.1324 10.9744L21.1134 11.3249V16.1201H22.4094V9.3999H20.5564Z" fill="white"/>
<path d="M16 22H9V23H16V22Z" fill="white"/>
<defs>
<linearGradient id="paint0_linear_4372_12787" x1="12.1818" y1="29.5439" x2="12.1818" y2="15.2909" gradientUnits="userSpaceOnUse">
<stop  offset="0" stop-color="#FF2358"/>
<stop offset="1" stop-color="#FF8100"/>
</linearGradient>
</defs>
</svg>
