<!-- Copyright © 2000–2024 JetBrains s.r.o. -->
<svg width="128" height="128" viewBox="0 0 128 128" xmlns="http://www.w3.org/2000/svg">
  <path fill="#6B57FF" d="M32.9 12H8.38c-4.6 0-8.32 3.78-8.24 8.38l.34 22.08c.04 2.36 1.1 4.6 2.88 6.14l76.32 65.42a8.27 8.27 0 0 0 5.38 1.98h22.7c4.54 0 8.24-3.7 8.24-8.24V85.74c0-2.38-1.02-4.64-2.82-6.2l-74.84-65.5A8.28 8.28 0 0 0 32.9 12"/>
  <path fill="url(#a)" d="M29.98 12H8.24C3.7 12 0 15.7 0 20.24v25.14c0 .4 0 .8.08 1.2l10.9 74.36c.6 4.06 4.08 7.06 8.16 7.06h30.8c4.56 0 8.26-3.7 8.26-8.26v-37c-.02-.86-.16-1.7-.4-2.5l-19.96-62.5A8.27 8.27 0 0 0 29.98 12"/>
  <path fill="url(#b)" d="M119.76 0H51.5c-3.32 0-6.32 1.98-7.6 5.04L12.3 79.88c-.44 1.04-.51 2.16-.49 3.28v36.66c.02 4.52 3.87 8.18 8.39 8.18h35.34c1.6 0 3.18-.48 4.52-1.36l64.22-42.22a8.24 8.24 0 0 0 3.72-6.88V8.24C128 3.7 124.3 0 119.76 0"/>
  <path d="M104 24H24v80h80z"/>
  <path fill="#fff" d="M56 54.12 72.46 64 56 73.88zM48 40v48l40-24z"/>
  <defs>
    <linearGradient id="a" x1="-.775" x2="48.785" y1="15.34" y2="122.26" gradientUnits="userSpaceOnUse">
      <stop offset=".18" stop-color="#6B57FF"/>
      <stop offset=".54" stop-color="#FF2358"/>
    </linearGradient>
    <linearGradient id="b" x1="8.605" x2="125.84" y1="119.89" y2="2.675" gradientUnits="userSpaceOnUse">
      <stop offset=".12" stop-color="#FF2358"/>
      <stop offset=".92" stop-color="#FF45ED"/>
    </linearGradient>
  </defs>
</svg>
