<!-- Copyright © 2000–2024 JetBrains s.r.o. -->
<svg width="256" height="256" viewBox="0 0 256 256" xmlns="http://www.w3.org/2000/svg">
  <path fill="#6B57FF" d="M65.8 24H16.76C7.56 24 .12 31.56.28 40.76l.68 44.16c.08 4.72 2.2 9.2 5.76 12.28l152.64 130.84c3 2.56 6.8 3.96 10.76 3.96h45.4c9.08 0 16.48-7.4 16.48-16.48v-44.04c0-4.76-2.04-9.28-5.64-12.4l-149.68-131A16.55 16.55 0 0 0 65.8 24"/>
  <path fill="url(#a)" d="M59.96 24H16.48C7.4 24 0 31.4 0 40.48v50.28c0 .8 0 1.6.16 2.4l21.8 148.72C23.16 250 30.12 256 38.28 256h61.6c9.12 0 16.52-7.4 16.52-16.52v-74c-.04-1.72-.32-3.4-.8-5l-39.92-125C73.48 28.64 67.12 24 59.96 24"/>
  <path fill="url(#b)" d="M239.52 0H103c-6.64 0-12.64 3.96-15.2 10.08L24.6 159.76c-.88 2.08-1.02 4.32-.98 6.56v73.32c.04 9.04 7.74 16.36 16.78 16.36h70.68c3.2 0 6.36-.96 9.04-2.72l128.44-84.44a16.49 16.49 0 0 0 7.44-13.76V16.48C256 7.4 248.6 0 239.52 0"/>
  <path d="M208 48H48v160h160z"/>
  <path fill="#fff" d="M112 108.24 144.92 128 112 147.76zM96 80v96l80-48z"/>
  <defs>
    <linearGradient id="a" x1="-1.55" x2="97.57" y1="30.68" y2="244.52" gradientUnits="userSpaceOnUse">
      <stop offset=".18" stop-color="#6B57FF"/>
      <stop offset=".54" stop-color="#FF2358"/>
    </linearGradient>
    <linearGradient id="b" x1="17.21" x2="251.68" y1="239.78" y2="5.35" gradientUnits="userSpaceOnUse">
      <stop offset=".12" stop-color="#FF2358"/>
      <stop offset=".92" stop-color="#FF45ED"/>
    </linearGradient>
  </defs>
</svg>
