<svg width="32" height="32" viewBox="0 0 32 32" fill="none" xmlns="http://www.w3.org/2000/svg" data-scaled="true">
<g clip-path="url(#clip0_4363_9192)">
<path d="M7.97382 2.90918L2.03607 2.91005C0.911418 2.91005 0 3.82176 0 4.94642V10.6997C0 11.2941 0.259782 11.859 0.710982 12.2459L19.7914 28.6008C20.1606 28.917 20.6307 29.091 21.1168 29.091H27.0545C28.1792 29.091 29.0909 28.1793 29.0909 27.0546V21.3005C29.0909 20.7061 28.8311 20.1412 28.3799 19.7543L9.29949 3.39965C8.93033 3.08314 8.46022 2.90947 7.97382 2.90947V2.90918Z" fill="#FF8100"/>
<path d="M7.25964 2.90918H2.03636C0.911709 2.90918 0 3.82089 0 4.94554V11.4919C0 11.5882 0.00698182 11.6845 0.0203636 11.7799L2.65891 30.2517C2.80233 31.2551 3.66138 32.0001 4.67491 32.0001H12.5114C13.6364 32.0001 14.5481 31.0881 14.5478 29.9631L14.5455 20.6939C14.5455 20.4751 14.5103 20.2578 14.441 20.0504L9.19127 4.30147C8.91404 3.47005 8.13585 2.90918 7.25935 2.90918H7.25964Z" fill="url(#paint0_linear_4363_9192)"/>
<path d="M29.9637 0H12.9796C12.165 0 11.4287 0.485527 11.1079 1.23404L3.07383 19.9793C2.96533 20.2327 2.90918 20.5059 2.90918 20.7817V29.9636C2.90918 31.0883 3.82089 32 4.94554 32H13.9285C14.3309 32 14.7242 31.8807 15.059 31.6573L31.0933 20.9556C31.6594 20.578 31.9992 19.9424 31.9992 19.262L32.0001 2.03636C32.0001 0.911709 31.0884 0 29.9637 0Z" fill="url(#paint1_linear_4363_9192)"/>
<path d="M26 6H6V26H26V6Z" fill="black"/>
<path d="M9 15.6057H10.5887V10.3943H9V9H13.7141V10.3943H12.1254V15.6057H13.7141V17H9V15.6057Z" fill="white"/>
<path d="M14.5137 15.5601H15.6623C15.8946 15.5601 16.1014 15.5106 16.2824 15.4116C16.4633 15.3126 16.6032 15.1727 16.7022 14.9917C16.8012 14.8108 16.8507 14.6043 16.8507 14.3717V9H18.4107V14.4799C18.4107 14.96 18.3001 15.3914 18.0791 15.7743C17.8582 16.1572 17.5535 16.4573 17.1649 16.6743C16.7762 16.8915 16.3401 17 15.8564 17H14.5137V15.5601Z" fill="white"/>
<path d="M16 22H9V23H16V22Z" fill="white"/>
</g>
<defs>
<linearGradient id="paint0_linear_4363_9192" x1="-0.358691" y1="3.81071" x2="12.0727" y2="30.6238" gradientUnits="userSpaceOnUse">
<stop offset="0.1" stop-color="#FC801D"/>
<stop offset="0.59" stop-color="#FE2857"/>
</linearGradient>
<linearGradient id="paint1_linear_4363_9192" x1="2.11122" y1="30.0093" x2="31.4637" y2="0.656581" gradientUnits="userSpaceOnUse">
<stop offset="0.21" stop-color="#FE2857"/>
<stop offset="0.7" stop-color="#007EFF"/>
</linearGradient>
<clipPath id="clip0_4363_9192">
<rect width="32" height="32" fill="white"/>
</clipPath>
</defs>
<path d="M8 23C8 21.8954 8.89543 21 10 21H30C31.1046 21 32 21.8954 32 23V30C32 31.1046 31.1046 32 30 32H10C8.89543 32 8 31.1046 8 30V23Z" fill="#FFC94D"/>
<path d="M32 30C32 31.1046 31.1046 32 30 32H10C8.89543 32 8 31.1046 8 30L8.01074 30.1641C8.11346 30.9706 8.96469 31.5996 10 31.5996H30C31.1046 31.5996 32 30.8837 32 30Z" fill="#7D7C7C"/>
<path d="M24 23H26.7459C27.1982 23 27.5944 23.09 27.9344 23.27C28.2744 23.45 28.537 23.705 28.7222 24.035C28.9074 24.365 29 24.745 29 25.175C29 25.6117 28.9059 25.9967 28.7177 26.33C28.5294 26.66 28.2623 26.9167 27.9162 27.1C27.5732 27.2833 27.1709 27.375 26.7095 27.375H25.275V30H24V23ZM26.6594 26.215C26.8658 26.215 27.0464 26.1733 27.2013 26.09C27.3561 26.0067 27.4745 25.8867 27.5565 25.73C27.6415 25.5733 27.684 25.39 27.684 25.18C27.684 24.9733 27.6415 24.7933 27.5565 24.64C27.4745 24.4867 27.3561 24.3683 27.2013 24.285C27.0464 24.2017 26.8658 24.16 26.6594 24.16H25.275V26.215H26.6594Z" fill="black"/>
<path d="M19.5519 23H21.086L23.7088 30H22.286L21.7189 28.39H18.9797L18.4531 30H17L19.5519 23ZM21.3493 27.31L20.4075 24.68L20.3012 24.235L20.2 24.68L19.319 27.31H21.3493Z" fill="black"/>
<path d="M11.5 23H16.6442V24.23H12.8823V25.885H16.2999V27.085H12.8823V28.77H16.7455V30H11.5V23Z" fill="black"/>
</svg>