<svg width="64" height="64" viewBox="0 0 64 64" fill="none" xmlns="http://www.w3.org/2000/svg">
<g clip-path="url(#clip0_4363_9194)">
<path d="M15.9476 5.81836L4.07215 5.8201C1.82284 5.8201 0 7.64352 0 9.89283V21.3994C0 22.5881 0.519564 23.718 1.42196 24.4918L39.5828 57.2016C40.3212 57.8341 41.2614 58.182 42.2336 58.182H54.1091C56.3584 58.182 58.1818 56.3586 58.1818 54.1093V42.6009C58.1818 41.4123 57.6623 40.2824 56.7599 39.5085L18.599 6.7993C17.8607 6.16629 16.9204 5.81894 15.9476 5.81894V5.81836Z" fill="#FF8100"/>
<path d="M14.5193 5.81836H4.07273C1.82342 5.81836 0 7.64178 0 9.89109V22.9837C0 23.1763 0.0139636 23.3689 0.0407273 23.5597L5.31782 60.5035C5.60465 62.5101 7.32276 64.0002 9.34982 64.0002H25.0228C27.2727 64.0002 29.0961 62.1762 29.0956 59.9263L29.0909 41.3878C29.0909 40.9503 29.0205 40.5157 28.882 40.1008L18.3825 8.60294C17.8281 6.9401 16.2717 5.81836 14.5187 5.81836H14.5193Z" fill="url(#paint0_linear_4363_9194)"/>
<path d="M59.9275 0H25.9592C24.3301 0 22.8575 0.971054 22.2157 2.46807L6.14767 39.9587C5.93065 40.4655 5.81836 41.0118 5.81836 41.5633V59.9273C5.81836 62.1766 7.64178 64 9.89109 64H27.8571C28.6617 64 29.4483 63.7615 30.118 63.3146L62.1866 41.9113C63.3189 41.1561 63.9984 39.8848 63.9984 38.5239L64.0002 4.07273C64.0002 1.82342 62.1768 0 59.9275 0Z" fill="url(#paint1_linear_4363_9194)"/>
<path d="M52 12H12V52H52V12Z" fill="black"/>
<path d="M17 29.3856H19.9788V19.6144H17V17H25.839V19.6144H22.8602V29.3856H25.839V32H17V29.3856Z" fill="white"/>
<path d="M27.3389 29.3002H29.4926C29.9281 29.3002 30.3159 29.2074 30.6551 29.0218C30.9943 28.8361 31.2567 28.5737 31.4424 28.2345C31.628 27.8953 31.7208 27.508 31.7208 27.072V17H34.6458V27.2748C34.6458 28.1749 34.4384 28.984 34.0241 29.7019C33.6099 30.4198 33.0386 30.9824 32.3098 31.3892C31.581 31.7966 30.7634 32 29.8564 32H27.3389V29.3002Z" fill="white"/>
<path d="M33 44H17V47H33V44Z" fill="white"/>
</g>
<defs>
<linearGradient id="paint0_linear_4363_9194" x1="-0.717383" y1="7.62141" x2="24.1455" y2="61.2476" gradientUnits="userSpaceOnUse">
<stop offset="0.1" stop-color="#FC801D"/>
<stop offset="0.59" stop-color="#FE2857"/>
</linearGradient>
<linearGradient id="paint1_linear_4363_9194" x1="4.22243" y1="60.0186" x2="62.9273" y2="1.31316" gradientUnits="userSpaceOnUse">
<stop offset="0.21" stop-color="#FE2857"/>
<stop offset="0.7" stop-color="#007EFF"/>
</linearGradient>
<clipPath id="clip0_4363_9194">
<rect width="64" height="64" fill="white"/>
</clipPath>
</defs>
<path d="M16 46C16 43.7909 17.7909 42 20 42H60C62.2091 42 64 43.7909 64 46V60C64 62.2091 62.2091 64 60 64H20C17.7909 64 16 62.2091 16 60V46Z" fill="#FFC94D"/>
<path d="M64 60C64 62.2091 62.2091 64 60 64H20C17.7909 64 16 62.2091 16 60L16.0049 60.165C16.1122 61.8557 17.86 63.2002 20 63.2002H60C62.2091 63.2002 64 61.7673 64 60Z" fill="#7D7C7C"/>
<path d="M48 47H53.2339C54.0961 47 54.8513 47.1543 55.4993 47.4629C56.1474 47.7714 56.648 48.2086 57.001 48.7743C57.3539 49.34 57.5304 49.9914 57.5304 50.7286C57.5304 51.4771 57.351 52.1371 56.9923 52.7086C56.6335 53.2743 56.1243 53.7143 55.4646 54.0286C54.8108 54.3429 54.044 54.5 53.1645 54.5H50.4303V59H48V47ZM53.069 52.5114C53.4625 52.5114 53.8068 52.44 54.1019 52.2971C54.397 52.1543 54.6227 51.9486 54.7789 51.68C54.9409 51.4114 55.022 51.0971 55.022 50.7371C55.022 50.3829 54.9409 50.0743 54.7789 49.8114C54.6227 49.5486 54.397 49.3457 54.1019 49.2029C53.8068 49.06 53.4625 48.9886 53.069 48.9886H50.4303V52.5114H53.069Z" fill="black"/>
<path d="M39.0836 47H41.7136L46.2097 59H43.7707L42.7986 56.24H38.1028L37.2001 59H34.709L39.0836 47ZM42.1649 54.3886L40.5505 49.88L40.3682 49.1171L40.1946 49.88L38.6843 54.3886H42.1649Z" fill="black"/>
<path d="M24 47H32.8187V49.1086H26.3696V51.9457H32.2284V54.0029H26.3696V56.8914H32.9923V59H24V47Z" fill="black"/>
</svg>