<svg width="32" height="32" viewBox="0 0 32 32" fill="none" xmlns="http://www.w3.org/2000/svg" data-scaled="true">
<g clip-path="url(#clip0_4363_9192)">
<path d="M7.97382 2.90918L2.03607 2.91005C0.911418 2.91005 0 3.82176 0 4.94642V10.6997C0 11.2941 0.259782 11.859 0.710982 12.2459L19.7914 28.6008C20.1606 28.917 20.6307 29.091 21.1168 29.091H27.0545C28.1792 29.091 29.0909 28.1793 29.0909 27.0546V21.3005C29.0909 20.7061 28.8311 20.1412 28.3799 19.7543L9.29949 3.39965C8.93033 3.08314 8.46022 2.90947 7.97382 2.90947V2.90918Z" fill="#FF8100"/>
<path d="M7.25964 2.90918H2.03636C0.911709 2.90918 0 3.82089 0 4.94554V11.4919C0 11.5882 0.00698182 11.6845 0.0203636 11.7799L2.65891 30.2517C2.80233 31.2551 3.66138 32.0001 4.67491 32.0001H12.5114C13.6364 32.0001 14.5481 31.0881 14.5478 29.9631L14.5455 20.6939C14.5455 20.4751 14.5103 20.2578 14.441 20.0504L9.19127 4.30147C8.91404 3.47005 8.13585 2.90918 7.25935 2.90918H7.25964Z" fill="url(#paint0_linear_4363_9192)"/>
<path d="M29.9637 0H12.9796C12.165 0 11.4287 0.485527 11.1079 1.23404L3.07383 19.9793C2.96533 20.2327 2.90918 20.5059 2.90918 20.7817V29.9636C2.90918 31.0883 3.82089 32 4.94554 32H13.9285C14.3309 32 14.7242 31.8807 15.059 31.6573L31.0933 20.9556C31.6594 20.578 31.9992 19.9424 31.9992 19.262L32.0001 2.03636C32.0001 0.911709 31.0884 0 29.9637 0Z" fill="url(#paint1_linear_4363_9192)"/>
<path d="M26 6H6V26H26V6Z" fill="black"/>
<path d="M9 15.6057H10.5887V10.3943H9V9H13.7141V10.3943H12.1254V15.6057H13.7141V17H9V15.6057Z" fill="white"/>
<path d="M14.5137 15.5601H15.6623C15.8946 15.5601 16.1014 15.5106 16.2824 15.4116C16.4633 15.3126 16.6032 15.1727 16.7022 14.9917C16.8012 14.8108 16.8507 14.6043 16.8507 14.3717V9H18.4107V14.4799C18.4107 14.96 18.3001 15.3914 18.0791 15.7743C17.8582 16.1572 17.5535 16.4573 17.1649 16.6743C16.7762 16.8915 16.3401 17 15.8564 17H14.5137V15.5601Z" fill="white"/>
<path d="M16 22H9V23H16V22Z" fill="white"/>
</g>
<defs>
<linearGradient id="paint0_linear_4363_9192" x1="-0.358691" y1="3.81071" x2="12.0727" y2="30.6238" gradientUnits="userSpaceOnUse">
<stop offset="0.1" stop-color="#FC801D"/>
<stop offset="0.59" stop-color="#FE2857"/>
</linearGradient>
<linearGradient id="paint1_linear_4363_9192" x1="2.11122" y1="30.0093" x2="31.4637" y2="0.656581" gradientUnits="userSpaceOnUse">
<stop offset="0.21" stop-color="#FE2857"/>
<stop offset="0.7" stop-color="#007EFF"/>
</linearGradient>
<clipPath id="clip0_4363_9192">
<rect width="32" height="32" fill="white"/>
</clipPath>
</defs>
<path d="M17 19C17 17.8954 17.8954 17 19 17H30C31.1046 17 32 17.8954 32 19V30C32 31.1046 31.1046 32 30 32H19C17.8954 32 17 31.1046 17 30V19Z" fill="white"/>
<path d="M30 17C31.1046 17 32 17.8954 32 19V30C32 31.1046 31.1046 32 30 32H19C17.8954 32 17 31.1046 17 30V19C17 17.8954 17.8954 17 19 17H30ZM18.8057 17.1094C17.8476 17.2067 17.0996 18.0163 17.0996 19V30C17.0996 30.718 17.9507 31.2998 19 31.2998H30C30.8837 31.2998 31.5996 30.718 31.5996 30V19C31.5996 18.0164 30.9707 17.2069 30.1641 17.1094L30 17.0996H19L18.8057 17.1094Z" fill="#7D7C7C"/>
<path d="M29.0002 28.0011H27.4658C27.4658 23.8852 24.1223 20.5367 20.0127 20.5367V19C24.9684 19 29.0002 23.0379 29.0002 28.0011Z" fill="#1A1A1A"/>
<path d="M26.3941 27.9999H24.8527C24.8527 25.3201 22.6758 23.1399 20 23.1399V21.5962C23.5257 21.5962 26.3941 24.4689 26.3941 27.9999Z" fill="#1A1A1A"/>
<path d="M23.8024 28.0005H22.2435C22.2435 26.7616 21.2371 25.7536 20 25.7536V24.1924C22.0967 24.1924 23.8024 25.9007 23.8024 28.0005Z" fill="#1A1A1A"/>
</svg>