<svg width="32" height="32" viewBox="0 0 32 32" fill="none" xmlns="http://www.w3.org/2000/svg" data-scaled="true">
<g clip-path="url(#clip0_4363_9192)">
<path d="M7.97382 2.90918L2.03607 2.91005C0.911418 2.91005 0 3.82176 0 4.94642V10.6997C0 11.2941 0.259782 11.859 0.710982 12.2459L19.7914 28.6008C20.1606 28.917 20.6307 29.091 21.1168 29.091H27.0545C28.1792 29.091 29.0909 28.1793 29.0909 27.0546V21.3005C29.0909 20.7061 28.8311 20.1412 28.3799 19.7543L9.29949 3.39965C8.93033 3.08314 8.46022 2.90947 7.97382 2.90947V2.90918Z" fill="#FF8100"/>
<path d="M7.25964 2.90918H2.03636C0.911709 2.90918 0 3.82089 0 4.94554V11.4919C0 11.5882 0.00698182 11.6845 0.0203636 11.7799L2.65891 30.2517C2.80233 31.2551 3.66138 32.0001 4.67491 32.0001H12.5114C13.6364 32.0001 14.5481 31.0881 14.5478 29.9631L14.5455 20.6939C14.5455 20.4751 14.5103 20.2578 14.441 20.0504L9.19127 4.30147C8.91404 3.47005 8.13585 2.90918 7.25935 2.90918H7.25964Z" fill="url(#paint0_linear_4363_9192)"/>
<path d="M29.9637 0H12.9796C12.165 0 11.4287 0.485527 11.1079 1.23404L3.07383 19.9793C2.96533 20.2327 2.90918 20.5059 2.90918 20.7817V29.9636C2.90918 31.0883 3.82089 32 4.94554 32H13.9285C14.3309 32 14.7242 31.8807 15.059 31.6573L31.0933 20.9556C31.6594 20.578 31.9992 19.9424 31.9992 19.262L32.0001 2.03636C32.0001 0.911709 31.0884 0 29.9637 0Z" fill="url(#paint1_linear_4363_9192)"/>
<path d="M26 6H6V26H26V6Z" fill="black"/>
<path d="M9 15.6057H10.5887V10.3943H9V9H13.7141V10.3943H12.1254V15.6057H13.7141V17H9V15.6057Z" fill="white"/>
<path d="M14.5137 15.5601H15.6623C15.8946 15.5601 16.1014 15.5106 16.2824 15.4116C16.4633 15.3126 16.6032 15.1727 16.7022 14.9917C16.8012 14.8108 16.8507 14.6043 16.8507 14.3717V9H18.4107V14.4799C18.4107 14.96 18.3001 15.3914 18.0791 15.7743C17.8582 16.1572 17.5535 16.4573 17.1649 16.6743C16.7762 16.8915 16.3401 17 15.8564 17H14.5137V15.5601Z" fill="white"/>
<path d="M16 22H9V23H16V22Z" fill="white"/>
</g>
<defs>
<linearGradient id="paint0_linear_4363_9192" x1="-0.358691" y1="3.81071" x2="12.0727" y2="30.6238" gradientUnits="userSpaceOnUse">
<stop offset="0.1" stop-color="#FC801D"/>
<stop offset="0.59" stop-color="#FE2857"/>
</linearGradient>
<linearGradient id="paint1_linear_4363_9192" x1="2.11122" y1="30.0093" x2="31.4637" y2="0.656581" gradientUnits="userSpaceOnUse">
<stop offset="0.21" stop-color="#FE2857"/>
<stop offset="0.7" stop-color="#007EFF"/>
</linearGradient>
<clipPath id="clip0_4363_9192">
<rect width="32" height="32" fill="white"/>
</clipPath>
</defs>
<path d="M3 23C3 21.8954 3.89543 21 5 21H30C31.1046 21 32 21.8954 32 23V30C32 31.1046 31.1046 32 30 32H5C3.89543 32 3 31.1046 3 30V23Z" fill="#FFC94D"/>
<path d="M32 30C32 31.1046 31.1046 32 30 32H5C3.89543 32 3 31.1046 3 30L3.01074 30.1641C3.11346 30.9706 3.96469 31.5996 5 31.5996H30C31.1046 31.5996 32 30.8837 32 30Z" fill="#7D7C7C"/>
<path d="M16.2305 24H18.3005C18.6414 24 18.9401 24.0643 19.1964 24.1929C19.4527 24.3214 19.6507 24.5036 19.7903 24.7393C19.9299 24.975 19.9997 25.2464 19.9997 25.5536C19.9997 25.8655 19.9288 26.1405 19.7869 26.3786C19.645 26.6143 19.4436 26.7976 19.1827 26.9286C18.9241 27.0595 18.6209 27.125 18.273 27.125H17.1917V29H16.2305V24ZM18.2352 26.2964C18.3909 26.2964 18.527 26.2667 18.6437 26.2071C18.7605 26.1476 18.8497 26.0619 18.9115 25.95C18.9756 25.8381 19.0076 25.7071 19.0076 25.5571C19.0076 25.4095 18.9756 25.281 18.9115 25.1714C18.8497 25.0619 18.7605 24.9774 18.6437 24.9179C18.527 24.8583 18.3909 24.8286 18.2352 24.8286H17.1917V26.2964H18.2352Z" fill="black"/>
<path d="M12.4946 24H13.5905L15.4638 29H14.4476L14.0425 27.85H12.086L11.7098 29H10.6719L12.4946 24ZM13.7785 27.0786L13.1058 25.2L13.0299 24.8821L12.9576 25.2L12.3283 27.0786H13.7785Z" fill="black"/>
<path d="M6 24H9.67445V24.8786H6.98733V26.0607H9.42852V26.9179H6.98733V28.1214H9.74678V29H6V24Z" fill="black"/>
<path d="M21 21H30C31.1046 21 32 21.8954 32 23V30C32 31.1046 31.1046 32 30 32H21V21Z" fill="white"/>
<path d="M30 21C31.1046 21 32 21.8954 32 23V30C32 31.1046 31.1046 32 30 32H21V31.5996H30C30.8283 31.5996 31.5096 30.9707 31.5918 30.1641L31.5996 30V23C31.5996 21.8954 30.8837 21 30 21Z" fill="#7D7C7C"/>
<path d="M30.0001 30H28.807C28.807 26.7992 26.2072 24.1951 23.0117 24.1951V23C26.8651 23 30.0001 26.1402 30.0001 30Z" fill="#1A1A1A"/>
<path d="M27.9725 30.0003H26.7738C26.7738 27.916 25.0809 26.2202 23 26.2202V25.0195C25.7418 25.0195 27.9725 27.2539 27.9725 30.0003Z" fill="#1A1A1A"/>
<path d="M25.9566 29.9996H24.7445C24.7445 29.0361 23.9619 28.2523 23 28.2523V27.0381C24.6303 27.0381 25.9566 28.3666 25.9566 29.9996Z" fill="#1A1A1A"/>
</svg>