<svg width="16" height="16" viewBox="0 0 16 16" fill="none" xmlns="http://www.w3.org/2000/svg">
<path d="M5.14648 1.64648C5.34173 1.45123 5.65825 1.45126 5.85352 1.64648C6.04878 1.84175 6.04878 2.15825 5.85352 2.35352L3.20703 5H10.5C12.9853 5 15 7.01472 15 9.5C15 11.9853 12.9853 14 10.5 14H5.5C5.22389 14 5 13.7761 5 13.5C5 13.2239 5.22389 13 5.5 13H10.5C12.433 13 14 11.433 14 9.5C14 7.567 12.433 6 10.5 6H3.20703L5.85352 8.64648C6.04878 8.84175 6.04878 9.15825 5.85352 9.35352C5.65825 9.54874 5.34173 9.54877 5.14648 9.35352L1.29297 5.5L5.14648 1.64648Z" fill="#CED0D6"/>
</svg>
