<svg width="256" height="256" viewBox="0 0 256 256" fill="none" xmlns="http://www.w3.org/2000/svg">
<g clip-path="url(#clip0_6242_46892)">
<path d="M239.709 0L103.836 0C97.3193 0 91.429 3.88422 88.862 9.87229L24.5897 159.835C23.7216 161.862 23.2725 164.047 23.2725 166.253L23.2725 239.709C23.2725 248.706 30.5661 256 39.5634 256H111.427C114.646 256 117.792 255.046 120.471 253.258L248.746 167.645C253.274 164.624 255.993 159.539 255.993 154.096L256 16.2909C256 7.29367 248.706 0 239.709 0Z" fill="url(#paint0_linear_6242_46892)"/>
<path d="M58.0771 23.2729L16.2909 23.2729C7.29367 23.2729 0 30.5666 0 39.5639L0 91.9345C0 92.7048 0.0558545 93.4751 0.162909 94.2385L21.2713 242.013C22.4186 250.04 29.2911 256 37.3993 256H100.091C109.091 256 116.385 248.704 116.382 239.705L116.364 165.551C116.364 163.801 116.082 162.062 115.528 160.403L73.5325 34.4113C71.3146 27.7599 65.0892 23.2729 58.0771 23.2729Z" fill="url(#paint1_linear_6242_46892)"/>
<path d="M63.7905 23.2729L16.2886 23.2799C7.29367 23.2823 0 30.5759 0 39.5708L0 85.5973C0 90.3519 2.07825 94.8715 5.68785 97.9668L158.331 228.806C161.285 231.336 165.046 232.727 168.934 232.727H216.436C225.434 232.727 232.727 225.434 232.727 216.437V170.403C232.727 165.649 230.649 161.129 227.039 158.034L74.3959 27.1967C71.4426 24.6647 67.6817 23.2753 63.7905 23.2753V23.2729Z" fill="#FF8100"/>
<path d="M209 47L47 47L47 209L209 209L209 47Z" fill="black"/>
<path d="M133 177H68V188H133V177Z" fill="white"/>
<path d="M106.306 104.597C109.618 103.001 112.157 100.763 113.931 97.8869C115.731 94.9833 116.632 91.6408 116.632 87.8642C116.632 84.0877 115.745 80.8222 113.973 77.9746C112.23 75.127 109.732 72.9213 106.479 71.3528C103.225 69.7843 99.4646 69 95.1932 69H69.0068L69.0068 129.997H80.9014L80.9014 106.948H91.1505L104.301 129.997H117.939L103.402 105.559C104.378 105.249 105.412 105.025 106.306 104.597ZM80.9061 78.8896H94.4136C96.4186 78.8896 98.1598 79.2654 99.642 80.0216C101.152 80.7452 102.315 81.7932 103.127 83.1587C103.939 84.4915 104.348 86.0927 104.348 87.9506C104.348 89.8086 103.941 91.3934 103.127 92.7869C102.315 94.1547 101.152 95.2097 99.642 95.9683C98.1598 96.6918 96.4186 97.0583 94.4136 97.0583H80.9061V78.8896Z" fill="white"/>
<path d="M169.864 69L157.752 109.042L156.837 114.27L155.791 109.042L143.243 69H126.688L126.688 130H138.407V86.4731L138.232 83.5975L152.262 130H160.889L175.092 83.2917L174.919 86.4731V130H186.683V69L169.864 69Z" fill="white"/>
</g>
<defs>
<linearGradient id="paint0_linear_6242_46892" x1="16.8888" y1="240.074" x2="251.708" y2="5.25265" gradientUnits="userSpaceOnUse">
<stop offset="0.29" stop-color="#FF2358"/>
<stop offset="0.75" stop-color="#7256FF"/>
</linearGradient>
<linearGradient id="paint1_linear_6242_46892" x1="-2.86953" y1="30.4875" x2="96.5818" y2="244.99" gradientUnits="userSpaceOnUse">
<stop offset="0.29" stop-color="#FF8100"/>
<stop offset="0.56" stop-color="#FF2358"/>
</linearGradient>
<clipPath id="clip0_6242_46892">
<rect width="256" height="256" fill="white"/>
</clipPath>
</defs>
</svg>
