<svg width="48" height="48" viewBox="0 0 48 48" fill="none" xmlns="http://www.w3.org/2000/svg">
<g clip-path="url(#clip0_4372_12781)">
<path d="M44.9451 0H19.4689C18.2471 0 17.1426 0.728291 16.6613 1.85105L4.61026 29.969C4.4475 30.3491 4.36328 30.7588 4.36328 31.1725V44.9455C4.36328 46.6324 5.73084 48 7.41783 48H20.8923C21.4958 48 22.0858 47.8211 22.588 47.486L46.6395 31.4335C47.4887 30.8671 47.9983 29.9136 47.9983 28.8929L47.9996 3.05455C47.9996 1.36756 46.6321 0 44.9451 0Z" fill="url(#paint0_linear_4372_12781)"/>
<path d="M10.8895 4.36377H3.05455C1.36756 4.36377 0 5.73133 0 7.41831V17.2378C0 17.3822 0.0104727 17.5267 0.0305455 17.6698L3.98836 45.3776C4.20349 46.8826 5.49207 48.0001 7.01236 48.0001H18.7671C20.4545 48.0001 21.8221 46.6321 21.8217 44.9447L21.8182 31.0409C21.8182 30.7127 21.7654 30.3867 21.6615 30.0756L13.7873 6.45221C13.3715 5.20508 12.2042 4.36377 10.8895 4.36377Z" fill="url(#paint1_linear_4372_12781)"/>
<path d="M11.9607 4.36377L3.05411 4.36508C1.36756 4.36551 0 5.73308 0 7.41962V16.0496C0 16.9411 0.389673 17.7885 1.06647 18.3689L29.6871 42.9012C30.2409 43.3756 30.946 43.6365 31.6752 43.6365H40.5818C42.2688 43.6365 43.6364 42.2689 43.6364 40.582V31.9507C43.6364 31.0592 43.2467 30.2118 42.5699 29.6314L13.9492 5.09948C13.3955 4.62472 12.6903 4.36421 11.9607 4.36421V4.36377Z" fill="#FF8100"/>
<path d="M39 9H9V39H39V9Z" fill="black"/>
<path d="M25 33H13V35.0001H25V33Z" fill="white"/>
<path d="M19.8003 19.4183C20.3975 19.1305 20.8554 18.7269 21.1752 18.2084C21.4997 17.6849 21.6621 17.0822 21.6621 16.4013C21.6621 15.7204 21.5022 15.1316 21.1828 14.6182C20.8684 14.1047 20.4181 13.707 19.8315 13.4242C19.2448 13.1414 18.5668 13 17.7967 13H13.0752V23.998H15.2198V19.8421H17.0678L19.4388 23.998H21.8978L19.2768 19.5917C19.4527 19.5357 19.6391 19.4953 19.8003 19.4183ZM15.2207 14.7831H17.6561C18.0176 14.7831 18.3316 14.8509 18.5988 14.9872C18.8711 15.1177 19.0807 15.3067 19.2271 15.5529C19.3736 15.7932 19.4472 16.0819 19.4472 16.4169C19.4472 16.7518 19.374 17.0376 19.2271 17.2888C19.0807 17.5355 18.8711 17.7257 18.5988 17.8625C18.3316 17.9929 18.0176 18.059 17.6561 18.059H15.2207V14.7831Z" fill="white"/>
<path d="M31.2604 13L29.0766 20.2196L28.9117 21.1623L28.7231 20.2196L26.4606 13H23.4756V23.9984H25.5887V16.1505L25.5571 15.632L28.0868 23.9984H29.6422L32.2031 15.5768L32.172 16.1505V23.9984H34.293V13H31.2604Z" fill="white"/>
</g>
<defs>
<linearGradient id="paint0_linear_4372_12781" x1="3.16634" y1="45.014" x2="47.195" y2="0.984873" gradientUnits="userSpaceOnUse">
<stop offset="0.29" stop-color="#FF2358"/>
<stop offset="0.75" stop-color="#7256FF"/>
</linearGradient>
<linearGradient id="paint1_linear_4372_12781" x1="-0.538037" y1="5.7165" x2="18.1091" y2="45.9357" gradientUnits="userSpaceOnUse">
<stop offset="0.29" stop-color="#FF8100"/>
<stop offset="0.56" stop-color="#FF2358"/>
</linearGradient>
<clipPath id="clip0_4372_12781">
<rect width="48" height="48" fill="white"/>
</clipPath>
</defs>
</svg>
