<svg width="128" height="128" viewBox="0 0 128 128" fill="none" xmlns="http://www.w3.org/2000/svg">
<g clip-path="url(#clip0_4372_12783)">
<path d="M119.855 0H51.9183C48.6601 0 45.715 1.94211 44.4315 4.93615L12.2953 79.9174C11.8613 80.9309 11.6367 82.0236 11.6367 83.1267V119.855C11.6367 124.353 15.2836 128 19.7822 128H55.7141C57.3234 128 58.8966 127.523 60.236 126.629L124.373 83.8225C126.638 82.3121 127.997 79.7696 127.997 77.0479L128 8.14545C128 3.64684 124.354 0 119.855 0Z" fill="url(#paint0_linear_4372_12783)"/>
<path d="M29.0385 11.6362H8.14545C3.64684 11.6362 0 15.2831 0 19.7817V45.967C0 46.3522 0.0279273 46.7373 0.0814545 47.119L10.6356 121.006C11.2093 125.02 14.6455 128 18.6996 128H50.0457C54.5454 128 58.1923 124.352 58.1911 119.852L58.1818 82.7751C58.1818 81.9001 58.041 81.0308 57.7641 80.2012L36.7663 17.2054C35.6573 13.8797 32.5446 11.6362 29.0385 11.6362Z" fill="url(#paint1_linear_4372_12783)"/>
<path d="M31.8953 11.6362L8.14429 11.6397C3.64684 11.6409 0 15.2877 0 19.7852V42.7984C0 45.1757 1.03913 47.4355 2.84393 48.9831L79.1657 114.403C80.6423 115.668 82.5228 116.364 84.4672 116.364H108.218C112.717 116.364 116.364 112.717 116.364 108.218V85.2013C116.364 82.824 115.325 80.5642 113.52 79.0166L37.198 13.5981C35.7213 12.3321 33.8409 11.6374 31.8953 11.6374V11.6362Z" fill="#FF8100"/>
<path d="M105 23H23V105H105V23Z" fill="black"/>
<path d="M66 89H34V94H66V89Z" fill="white"/>
<path d="M53.0933 52.0914C54.7764 51.2801 56.067 50.1425 56.9684 48.6812C57.8829 47.2056 58.3408 45.5071 58.3408 43.5879C58.3408 41.6687 57.8901 40.0093 56.9898 38.5622C56.1037 37.1151 54.8346 35.9942 53.1811 35.1971C51.5276 34.4 49.6167 34.0015 47.446 34.0015H34.1387V64.999H40.1833V53.2858H45.3916L52.0744 64.999H59.005L51.6177 52.5801C52.1135 52.4223 52.639 52.3084 53.0933 52.0914ZM40.1856 39.0272H47.0499C48.0688 39.0272 48.9536 39.2181 49.7068 39.6024C50.4743 39.9702 51.065 40.5027 51.4778 41.1966C51.8905 41.8739 52.0981 42.6876 52.0981 43.6318C52.0981 44.576 51.8917 45.3814 51.4778 46.0895C51.065 46.7846 50.4743 47.3207 49.7068 47.7062C48.9536 48.0739 48.0688 48.2601 47.0499 48.2601H40.1856V39.0272Z" fill="white"/>
<path d="M85.3925 34.0015L79.2376 54.3498L78.7726 57.0068L78.2412 54.3498L71.8645 34.0015H63.4512V65.0002H69.4068V42.881L69.3178 41.4196L76.4478 65.0002H80.8318L88.0495 41.2642L87.9617 42.881V65.0002H93.9399V34.0015H85.3925Z" fill="white"/>
</g>
<defs>
<linearGradient id="paint0_linear_4372_12783" x1="8.44487" y1="120.037" x2="125.855" y2="2.62633" gradientUnits="userSpaceOnUse">
<stop offset="0.29" stop-color="#FF2358"/>
<stop offset="0.75" stop-color="#7256FF"/>
</linearGradient>
<linearGradient id="paint1_linear_4372_12783" x1="-1.43476" y1="15.2435" x2="48.2909" y2="122.495" gradientUnits="userSpaceOnUse">
<stop offset="0.29" stop-color="#FF8100"/>
<stop offset="0.56" stop-color="#FF2358"/>
</linearGradient>
<clipPath id="clip0_4372_12783">
<rect width="128" height="128" fill="white"/>
</clipPath>
</defs>
</svg>
