<svg width="24" height="24" viewBox="0 0 24 24" fill="none" xmlns="http://www.w3.org/2000/svg">
<g clip-path="url(#clip0_4372_12779)">
<path d="M22.4725 0H9.73444C9.12353 0 8.57131 0.364145 8.33066 0.925527L2.30513 14.9845C2.22375 15.1745 2.18164 15.3794 2.18164 15.5863V22.4727C2.18164 23.3162 2.86542 24 3.70891 24H10.4461C10.7479 24 11.0429 23.9105 11.294 23.743L23.3197 15.7167C23.7443 15.4335 23.9992 14.9568 23.9992 14.4465L23.9998 1.52727C23.9998 0.683782 23.316 0 22.4725 0Z" fill="url(#paint0_linear_4372_12779)"/>
<path d="M5.44473 2.18164H1.52727C0.683782 2.18164 0 2.86542 0 3.70891V8.61866C0 8.69088 0.00523636 8.76309 0.0152727 8.83466L1.99418 22.6885C2.10175 23.4411 2.74604 23.9998 3.50618 23.9998H9.38356C10.2273 23.9998 10.9111 23.3158 10.9108 22.4721L10.9091 15.5202C10.9091 15.3561 10.8827 15.1931 10.8308 15.0376L6.89367 3.22586C6.68575 2.6023 6.10211 2.18164 5.44473 2.18164Z" fill="url(#paint1_linear_4372_12779)"/>
<path d="M5.98036 2.18164L1.52705 2.1823C0.683782 2.18251 0 2.8663 0 3.70957V8.02455C0 8.47029 0.194836 8.894 0.533236 9.18419L14.8436 21.4504C15.1204 21.6875 15.473 21.818 15.8376 21.818H20.2909C21.1344 21.818 21.8182 21.1342 21.8182 20.2907V15.9751C21.8182 15.5293 21.6233 15.1056 21.2849 14.8155L6.97462 2.5495C6.69775 2.31211 6.34516 2.18186 5.98036 2.18186V2.18164Z" fill="#FF8100"/>
<path d="M20 4H4V20H20V4Z" fill="black"/>
<path d="M9.8264 9.58604C10.1507 9.4297 10.3994 9.2105 10.5731 8.9289C10.7494 8.64456 10.8376 8.31724 10.8376 7.94741C10.8376 7.57758 10.7507 7.25781 10.5773 6.97896C10.4065 6.7001 10.1619 6.4841 9.84331 6.3305C9.52469 6.1769 9.15646 6.1001 8.73817 6.1001H6.17383V12.0734H7.33863V9.81621H8.34229L9.63006 12.0734H10.9656L9.54206 9.68021C9.6376 9.64981 9.73886 9.62787 9.8264 9.58604ZM7.33909 7.06856H8.66183C8.85817 7.06856 9.02869 7.10535 9.17383 7.17941C9.32171 7.25027 9.43554 7.3529 9.51508 7.48661C9.59463 7.61713 9.63463 7.77393 9.63463 7.95587C9.63463 8.13781 9.59486 8.29301 9.51508 8.42947C9.43554 8.56341 9.32171 8.66673 9.17383 8.74101C9.02869 8.81187 8.85817 8.84776 8.66183 8.84776H7.33909V7.06856Z" fill="white"/>
<path d="M16.0504 6.1001L14.8643 10.0212L14.7747 10.5332L14.6723 10.0212L13.4435 6.1001H11.8223V12.0736H12.9699V7.81118L12.9528 7.52958L14.3267 12.0736H15.1715L16.5624 7.49964L16.5455 7.81118V12.0736H17.6975V6.1001H16.0504Z" fill="white"/>
<path d="M12 17H6V18H12V17Z" fill="white"/>
</g>
<defs>
<linearGradient id="paint0_linear_4372_12779" x1="1.58317" y1="22.507" x2="23.5975" y2="0.492436" gradientUnits="userSpaceOnUse">
<stop offset="0.29" stop-color="#FF2358"/>
<stop offset="0.75" stop-color="#7256FF"/>
</linearGradient>
<linearGradient id="paint1_linear_4372_12779" x1="-0.269018" y1="2.858" x2="9.05455" y2="22.9676" gradientUnits="userSpaceOnUse">
<stop offset="0.29" stop-color="#FF8100"/>
<stop offset="0.56" stop-color="#FF2358"/>
</linearGradient>
<clipPath id="clip0_4372_12779">
<rect width="24" height="24" fill="white"/>
</clipPath>
</defs>
</svg>
