<svg width="48" height="48" viewBox="0 0 48 48" fill="none" xmlns="http://www.w3.org/2000/svg">
<g clip-path="url(#clip0_4372_11675)">
<path d="M48 44.9456V19.4694C48 18.2476 47.2717 17.1431 46.1489 16.6618L18.031 4.61075C17.6509 4.44799 17.2412 4.36377 16.8275 4.36377H3.05455C1.36756 4.36377 0 5.73133 0 7.41831V20.8928C0 21.4963 0.178909 22.0862 0.514036 22.5885L16.5665 46.64C17.1329 47.4891 18.0864 47.9988 19.1071 47.9988L44.9455 48.0001C46.6324 48.0001 48 46.6326 48 44.9456Z" fill="url(#paint0_linear_4372_11675)"/>
<path d="M43.6364 10.8895V3.05455C43.6364 1.36756 42.2688 0 40.5818 0H30.7623C30.6179 0 30.4735 0.0104727 30.3303 0.0305455L2.62255 3.9888C1.11753 4.20349 0 5.49251 0 7.01236V18.7671C0 20.4545 1.368 21.8221 3.05542 21.8217L16.9593 21.8182C17.2874 21.8182 17.6134 21.7654 17.9245 21.6615L41.5479 13.7869C42.7951 13.3711 43.6364 12.2038 43.6364 10.889V10.8895Z" fill="url(#paint1_linear_4372_11675)"/>
<path d="M43.6359 11.9607L43.6346 3.05411C43.6346 1.36756 42.2671 0 40.5801 0H31.9501C31.0586 0 30.2112 0.389673 29.6308 1.06647L5.09892 29.6876C4.62459 30.2413 4.36365 30.9465 4.36365 31.6756V40.5823C4.36365 42.2692 5.73121 43.6368 7.41819 43.6368H16.0495C16.941 43.6368 17.7884 43.2471 18.3687 42.5703L42.9007 13.9492C43.3754 13.3955 43.6359 12.6903 43.6359 11.9607Z" fill="#FF318C"/>
<path d="M39 9H9V39H39V9Z" fill="black"/>
<path d="M24.9999 33H12.9999V35.0001H24.9999V33Z" fill="white"/>
<path d="M18.0755 24.1797C17.0232 24.1797 16.0703 23.9331 15.2167 23.4413C14.3635 22.9436 13.6933 22.2633 13.2061 21.3996C12.7193 20.5308 12.4757 19.5619 12.4757 18.4937C12.4757 17.4255 12.7193 16.4595 13.2061 15.5958C13.6928 14.727 14.363 14.0459 15.2167 13.554C16.0699 13.0563 17.0228 12.8081 18.0755 12.8081C18.9653 12.8081 19.7823 12.973 20.5257 13.3029C21.2691 13.6327 21.8867 14.0959 22.379 14.6929C22.8763 15.2849 23.2086 15.9652 23.3765 16.7347H21.1303C20.9834 16.3371 20.7638 15.9887 20.4706 15.69C20.1824 15.3867 19.8345 15.1532 19.426 14.9912C19.0174 14.8292 18.5723 14.7476 18.091 14.7476C17.4419 14.7476 16.8554 14.9096 16.332 15.2344C15.8086 15.5592 15.3976 16.0068 15.0989 16.5773C14.8056 17.1428 14.6592 17.7818 14.6592 18.4937C14.6592 19.2055 14.8056 19.8475 15.0989 20.4176C15.3972 20.9831 15.8082 21.4278 16.332 21.7525C16.8554 22.0773 17.4419 22.2393 18.091 22.2393C18.5727 22.2393 19.0179 22.1577 19.426 21.9957C19.8345 21.8337 20.1824 21.6032 20.4706 21.3045C20.7638 21.0011 20.9834 20.6498 21.1303 20.2523H23.3765C23.209 21.0218 22.8763 21.705 22.379 22.302C21.8867 22.894 21.2691 23.3542 20.5257 23.6841C19.7823 24.0139 18.9653 24.1797 18.0755 24.1797ZM27.054 12.9962V22.0588H32.2688V23.9908H24.918V12.9962H27.054Z" fill="white"/>
</g>
<defs>
<linearGradient id="paint0_linear_4372_11675" x1="2.98604" y1="3.16682" x2="47.0151" y2="47.1955" gradientUnits="userSpaceOnUse">
<stop offset="0.29" stop-color="#009AE5"/>
<stop offset="0.7" stop-color="#00D980"/>
</linearGradient>
<linearGradient id="paint1_linear_4372_11675" x1="42.2841" y1="-0.538035" x2="2.06444" y2="18.1091" gradientUnits="userSpaceOnUse">
<stop offset="0.3" stop-color="#FF318C"/>
<stop offset="0.54" stop-color="#009AE5"/>
</linearGradient>
<clipPath id="clip0_4372_11675">
<rect width="48" height="48" fill="white"/>
</clipPath>
</defs>
</svg>
