<svg width="256" height="256" viewBox="0 0 256 256" fill="none" xmlns="http://www.w3.org/2000/svg">
<g clip-path="url(#clip0_6242_46777)">
<path d="M256 239.709L256 103.836C256 97.3198 252.116 91.4295 246.128 88.8625L96.1652 24.5902C94.1382 23.7221 91.9529 23.2729 89.7466 23.2729L16.2909 23.2729C7.29367 23.2729 0 30.5666 0 39.5639L0 111.428C0 114.646 0.954182 117.793 2.74153 120.472L88.3549 248.746C91.3757 253.275 96.4608 255.993 101.904 255.993L239.709 256C248.706 256 256 248.707 256 239.709Z" fill="url(#paint0_linear_6242_46777)"/>
<path d="M232.727 58.0771V16.2909C232.727 7.29367 225.434 0 216.436 0L164.066 0C163.295 0 162.525 0.0558545 161.762 0.162909L13.9869 21.2736C5.96014 22.4186 0 29.2934 0 37.3993L0 100.091C0 109.091 7.296 116.385 16.2956 116.382L90.4495 116.364C92.1996 116.364 93.938 116.082 95.5974 115.528L221.589 73.5302C228.24 71.3123 232.727 65.0868 232.727 58.0748V58.0771Z" fill="url(#paint1_linear_6242_46777)"/>
<path d="M232.725 63.7905L232.718 16.2886C232.718 7.29367 225.424 0 216.427 0L170.401 0C165.646 0 161.126 2.07825 158.031 5.68785L27.1942 158.334C24.6644 161.287 23.2727 165.048 23.2727 168.937L23.2727 216.439C23.2727 225.436 30.5664 232.73 39.5636 232.73H85.5971C90.3517 232.73 94.8712 230.651 97.9665 227.042L228.803 74.3959C231.336 71.4426 232.725 67.6817 232.725 63.7905Z" fill="#FF318C"/>
<path d="M209 47L47 47L47 209L209 209L209 47Z" fill="black"/>
<path d="M133 177H68V188H133V177Z" fill="white"/>
<path d="M96.8354 131.037C90.9979 131.037 85.7112 129.67 80.9754 126.941C76.242 124.18 72.5238 120.406 69.821 115.614C67.1205 110.794 65.769 105.419 65.769 99.4927C65.769 93.5665 67.1205 88.2075 69.821 83.4157C72.5215 78.5958 76.2396 74.817 80.9754 72.0885C85.7089 69.3273 90.9956 67.9502 96.8354 67.9502C101.772 67.9502 106.305 68.8651 110.429 70.6951C114.553 72.525 117.98 75.0948 120.71 78.4068C123.469 81.6908 125.313 85.465 126.245 89.734L113.783 89.734C112.968 87.5283 111.75 85.5957 110.123 83.9385C108.524 82.2556 106.594 80.9602 104.328 80.0616C102.061 79.163 99.5919 78.7102 96.9217 78.7102C93.3203 78.7102 90.0666 79.6088 87.163 81.4107C84.2595 83.2126 81.9791 85.6961 80.3219 88.861C78.6951 91.998 77.8828 95.5434 77.8828 99.4927C77.8828 103.442 78.6951 107.004 80.3219 110.166C81.9768 113.303 84.2571 115.77 87.163 117.572C90.0666 119.374 93.3203 120.273 96.9217 120.273C99.5942 120.273 102.064 119.82 104.328 118.921C106.594 118.023 108.524 116.744 110.123 115.087C111.75 113.404 112.968 111.455 113.783 109.249H126.245C125.316 113.518 123.469 117.309 120.71 120.621C117.98 123.905 114.553 126.458 110.429 128.288C106.305 130.118 101.772 131.033 96.8354 131.033V131.037ZM146.647 68.9935V119.271H175.577V129.989H134.797V68.9935H146.647Z" fill="white"/>
</g>
<defs>
<linearGradient id="paint0_linear_6242_46777" x1="15.9255" y1="16.8892" x2="250.747" y2="251.709" gradientUnits="userSpaceOnUse">
<stop offset="0.29" stop-color="#009AE5"/>
<stop offset="0.7" stop-color="#00D980"/>
</linearGradient>
<linearGradient id="paint1_linear_6242_46777" x1="225.515" y1="-2.86952" x2="11.0103" y2="96.5818" gradientUnits="userSpaceOnUse">
<stop offset="0.3" stop-color="#FF318C"/>
<stop offset="0.54" stop-color="#009AE5"/>
</linearGradient>
<clipPath id="clip0_6242_46777">
<rect width="256" height="256" fill="white"/>
</clipPath>
</defs>
</svg>
