<svg width="128" height="128" viewBox="0 0 128 128" fill="none" xmlns="http://www.w3.org/2000/svg">
<g clip-path="url(#clip0_4372_11677)">
<path d="M128 119.854V51.9178C128 48.6596 126.058 45.7145 123.064 44.431L48.0826 12.2948C47.0691 11.8608 45.9764 11.6362 44.8733 11.6362H8.14545C3.64684 11.6362 0 15.2831 0 19.7817V55.7136C0 57.3229 0.477091 58.8962 1.37076 60.2355L44.1775 124.373C45.6879 126.637 48.2304 127.996 50.9521 127.996L119.855 128C124.353 128 128 124.353 128 119.854Z" fill="url(#paint0_linear_4372_11677)"/>
<path d="M116.364 29.0385V8.14545C116.364 3.64684 112.717 0 108.218 0H82.0329C81.6477 0 81.2626 0.0279273 80.8809 0.0814545L6.99345 10.6368C2.98007 11.2093 0 14.6467 0 18.6996V50.0457C0 54.5454 3.648 58.1923 8.14778 58.1911L45.2247 58.1818C46.0998 58.1818 46.969 58.041 47.7987 57.7641L110.794 36.7651C114.12 35.6561 116.364 32.5434 116.364 29.0374V29.0385Z" fill="url(#paint1_linear_4372_11677)"/>
<path d="M116.362 31.8953L116.359 8.14429C116.359 3.64684 112.712 0 108.214 0H85.2003C82.823 0 80.5632 1.03913 79.0155 2.84393L13.5971 79.1668C12.3322 80.6435 11.6364 82.5239 11.6364 84.4684V108.219C11.6364 112.718 15.2832 116.365 19.7818 116.365H42.7985C45.1758 116.365 47.4356 115.326 48.9833 113.521L114.402 37.198C115.668 35.7213 116.362 33.8409 116.362 31.8953Z" fill="#FF318C"/>
<path d="M105 23H23V105H105V23Z" fill="black"/>
<path d="M66 89H34V94H66V89Z" fill="white"/>
<path d="M48.2889 65.5284C45.3222 65.5284 42.6355 64.8333 40.2286 63.4466C37.823 62.0433 35.9334 60.1252 34.5597 57.6899C33.1873 55.2404 32.5005 52.5085 32.5005 49.4968C32.5005 46.485 33.1873 43.7614 34.5597 41.3261C35.9322 38.8766 37.8218 36.9561 40.2286 35.5695C42.6343 34.1662 45.321 33.4663 48.2889 33.4663C50.7978 33.4663 53.1014 33.9313 55.1974 34.8613C57.2935 35.7913 59.0348 37.0973 60.4227 38.7805C61.8248 40.4495 62.7619 42.3676 63.2352 44.5372H56.902C56.488 43.4162 55.8688 42.4341 55.042 41.5918C54.2295 40.7366 53.2485 40.0782 52.0967 39.6216C50.9449 39.1649 49.6899 38.9347 48.3328 38.9347C46.5025 38.9347 44.8489 39.3914 43.3733 40.3072C41.8976 41.2229 40.7387 42.4851 39.8965 44.0936C39.0697 45.6878 38.6569 47.4897 38.6569 49.4968C38.6569 51.5038 39.0697 53.314 39.8965 54.9213C40.7375 56.5156 41.8965 57.7694 43.3733 58.6851C44.8489 59.6009 46.5025 60.0576 48.3328 60.0576C49.691 60.0576 50.9461 59.8275 52.0967 59.3708C53.2485 58.9141 54.2295 58.264 55.042 57.4218C55.8688 56.5666 56.488 55.5761 56.902 54.4551H63.2352C62.7631 56.6247 61.8248 58.5511 60.4227 60.2343C59.0348 61.9033 57.2935 63.201 55.1974 64.131C53.1014 65.061 50.7978 65.526 48.2889 65.526V65.5284ZM73.6039 33.9965V59.5487H88.3069V64.9958H67.5815V33.9965H73.6039Z" fill="white"/>
</g>
<defs>
<linearGradient id="paint0_linear_4372_11677" x1="7.96277" y1="8.44437" x2="125.374" y2="125.854" gradientUnits="userSpaceOnUse">
<stop offset="0.29" stop-color="#009AE5"/>
<stop offset="0.7" stop-color="#00D980"/>
</linearGradient>
<linearGradient id="paint1_linear_4372_11677" x1="112.758" y1="-1.43476" x2="5.50517" y2="48.2909" gradientUnits="userSpaceOnUse">
<stop offset="0.3" stop-color="#FF318C"/>
<stop offset="0.54" stop-color="#009AE5"/>
</linearGradient>
<clipPath id="clip0_4372_11677">
<rect width="128" height="128" fill="white"/>
</clipPath>
</defs>
</svg>
