<svg width="256" height="256" viewBox="0 0 256 256" fill="none" xmlns="http://www.w3.org/2000/svg">
  <g filter="url(#filter0_d_33_3293)">
    <mask id="mask0_33_3293" style="mask-type:luminance" maskUnits="userSpaceOnUse" x="25" y="25" width="206" height="206">
      <path d="M76.2686 25C43.3476 25 25 43.3476 25 76.2686V179.731C25 212.66 43.3476 231 76.2686 231H179.731C212.66 231 231 212.652 231 179.731V76.2686C231 43.3395 212.652 25 179.731 25H76.2686Z" fill="white"/>
    </mask>
    <g mask="url(#mask0_33_3293)">
      <path d="M231.008 147.317H106.277V231.008H231.008V147.317Z" fill="#6B57FF"/>
      <path d="M113.286 25H25V231.008H113.286V25Z" fill="url(#paint0_linear_33_3293)"/>
      <path d="M25 200.445V231.008H118.331L231.008 156.934V25H99.0824L25 200.445Z" fill="url(#paint1_linear_33_3293)"/>
    </g>
    <path d="M192.381 63.6265H63.6265V192.381H192.381V63.6265Z" fill="black"/>
    <path d="M115.13 112.103L141.621 128.004L115.13 143.905V112.103ZM102.254 89.3774V166.63L166.632 128.004L102.254 89.3774Z" fill="white"/>
  </g>
  <defs>
    <filter id="filter0_d_33_3293" x="18.5" y="21" width="219" height="219" filterUnits="userSpaceOnUse" color-interpolation-filters="sRGB">
      <feFlood flood-opacity="0" result="BackgroundImageFix"/>
      <feColorMatrix in="SourceAlpha" type="matrix" values="0 0 0 0 0 0 0 0 0 0 0 0 0 0 0 0 0 0 127 0" result="hardAlpha"/>
      <feOffset dy="2.5"/>
      <feGaussianBlur stdDeviation="3.25"/>
      <feComposite in2="hardAlpha" operator="out"/>
      <feColorMatrix type="matrix" values="0 0 0 0 0 0 0 0 0 0 0 0 0 0 0 0 0 0 0.35 0"/>
      <feBlend mode="normal" in2="BackgroundImageFix" result="effect1_dropShadow_33_3293"/>
      <feBlend mode="normal" in="SourceGraphic" in2="effect1_dropShadow_33_3293" result="shape"/>
    </filter>
    <linearGradient id="paint0_linear_33_3293" x1="25.7725" y1="24.6379" x2="116.617" y2="220.619" gradientUnits="userSpaceOnUse">
      <stop offset="0.18" stop-color="#6B57FF"/>
      <stop offset="0.54" stop-color="#FF2358"/>
    </linearGradient>
    <linearGradient id="paint1_linear_33_3293" x1="24.9919" y1="231" x2="231.016" y2="25" gradientUnits="userSpaceOnUse">
      <stop offset="0.12" stop-color="#FF2358"/>
      <stop offset="0.92" stop-color="#FF45ED"/>
    </linearGradient>
  </defs>
</svg>
