<!-- Copyright © 2000–2024 JetBrains s.r.o. -->
<svg width="128" height="128" viewBox="0 0 128 128" xmlns="http://www.w3.org/2000/svg">
  <g filter="url(#a)">
    <mask id="b" width="104" height="104" x="12" y="12" maskUnits="userSpaceOnUse" style="mask-type:luminance">
      <path fill="#fff" d="M37.883 12C21.263 12 12 21.263 12 37.883v52.234C12 106.74 21.263 116 37.883 116h52.234C106.74 116 116 106.737 116 90.117V37.883C116 21.26 106.737 12 90.117 12z"/>
    </mask>
    <g mask="url(#b)">
      <path fill="#6B57FF" d="M116.004 73.752h-62.97v42.252h62.97z"/>
      <path fill="url(#c)" d="M56.571 12H12v104.004h44.571z"/>
      <path fill="url(#d)" d="M12 100.574v15.43h47.119l56.885-37.397V12H49.401z"/>
    </g>
    <path d="M96.504 31.5H31.5v65.003h65.003z"/>
    <path fill="#fff" d="m57.503 55.974 13.374 8.028-13.374 8.028zm-6.5-11.473v39.002l32.5-19.501z"/>
  </g>
  <defs>
    <linearGradient id="c" x1="12.39" x2="58.253" y1="11.817" y2="110.759" gradientUnits="userSpaceOnUse">
      <stop offset=".18" stop-color="#6B57FF"/>
      <stop offset=".54" stop-color="#FF2358"/>
    </linearGradient>
    <linearGradient id="d" x1="11.996" x2="116.008" y1="116" y2="12" gradientUnits="userSpaceOnUse">
      <stop offset=".12" stop-color="#FF2358"/>
      <stop offset=".92" stop-color="#FF45ED"/>
    </linearGradient>
    <filter id="a" width="110.5" height="110.5" x="8.75" y="10" color-interpolation-filters="sRGB" filterUnits="userSpaceOnUse">
      <feFlood flood-opacity="0" result="BackgroundImageFix"/>
      <feColorMatrix in="SourceAlpha" result="hardAlpha" values="0 0 0 0 0 0 0 0 0 0 0 0 0 0 0 0 0 0 127 0"/>
      <feOffset dy="1.25"/>
      <feGaussianBlur stdDeviation="1.625"/>
      <feComposite in2="hardAlpha" operator="out"/>
      <feColorMatrix values="0 0 0 0 0 0 0 0 0 0 0 0 0 0 0 0 0 0 0.35 0"/>
      <feBlend in2="BackgroundImageFix" result="effect1_dropShadow_33_3294"/>
      <feBlend in="SourceGraphic" in2="effect1_dropShadow_33_3294" result="shape"/>
    </filter>
  </defs>
</svg>
