<svg width="24" height="24" viewBox="0 0 24 24" fill="none" xmlns="http://www.w3.org/2000/svg">
<path d="M23 1H1V23H23V1Z" fill="url(#paint0_linear_6275_14164)"/>
<path d="M20 4H4V20H20V4Z" fill="url(#paint1_linear_6275_14164)"/>
<path d="M12 17H6V18H12V17Z" fill="white"/>
<path d="M8.98976 7.1V6H6.00977V7.1H6.83977V10.88H6.00977V11.97H8.98976V10.88H8.14976V7.1H8.98976Z" fill="white"/>
<path d="M11.8504 12.05C11.3804 12.05 10.9904 11.96 10.6804 11.79C10.3604 11.61 10.1004 11.4 9.90039 11.16L10.7304 10.24C10.9004 10.43 11.0704 10.57 11.2504 10.68C11.4204 10.79 11.6104 10.84 11.8304 10.84C12.0804 10.84 12.2804 10.76 12.4204 10.61C12.5604 10.45 12.6304 10.2 12.6304 9.86V6H13.9804V9.9C13.9804 10.26 13.9304 10.57 13.8404 10.83C13.7404 11.09 13.6004 11.31 13.4204 11.49C13.2404 11.67 13.0204 11.81 12.7504 11.9C12.4704 12.01 12.1704 12.05 11.8504 12.05Z" fill="white"/>
<defs>
<linearGradient id="paint0_linear_6275_14164" x1="25.4677" y1="25.4511" x2="-5.60876" y2="-5.62512" gradientUnits="userSpaceOnUse">
<stop offset="0.3475" stop-color="#087CFA"/>
<stop offset="0.8562" stop-color="#FE2857"/>
<stop offset="1" stop-color="#FE2857"/>
</linearGradient>
<linearGradient id="paint1_linear_6275_14164" x1="12" y1="0.129" x2="12" y2="14.4779" gradientUnits="userSpaceOnUse">
<stop offset="0.0842986" stop-color="#878585"/>
<stop offset="0.5377"/>
</linearGradient>
</defs>
</svg>
