<svg width="256" height="256" viewBox="0 0 256 256" fill="none" xmlns="http://www.w3.org/2000/svg">
<path d="M234 22H22V234H234V22Z" fill="url(#paint0_linear_6275_14197)"/>
<path d="M206 50H50V206H206V50Z" fill="url(#paint1_linear_6275_14197)"/>
<path d="M125.399 179.134H67.332V188.667H125.399V179.134Z" fill="white"/>
<path d="M98.7926 80.2467V69.5H69.5859V80.2467H77.7326V117.253H69.5859V127.913H98.7926V117.253H90.5593V80.2467H98.7926Z" fill="white"/>
<path d="M126.871 128.78C122.278 128.78 118.465 127.914 115.431 126.18C112.311 124.447 109.798 122.367 107.805 120.027L115.865 111.014C117.511 112.834 119.245 114.307 120.891 115.347C122.625 116.387 124.445 116.907 126.525 116.907C128.951 116.907 130.858 116.127 132.245 114.567C133.631 113.007 134.325 110.58 134.325 107.2V69.5869H147.498V107.807C147.498 111.274 147.065 114.307 146.111 116.907C145.158 119.507 143.771 121.674 142.038 123.407C140.218 125.227 138.051 126.527 135.451 127.48C132.851 128.347 129.991 128.78 126.871 128.78Z" fill="white"/>
<defs>
<linearGradient id="paint0_linear_6275_14197" x1="257.78" y1="257.62" x2="-41.6844" y2="-41.8421" gradientUnits="userSpaceOnUse">
<stop offset="0.3475" stop-color="#087CFA"/>
<stop offset="0.8562" stop-color="#FE2857"/>
<stop offset="1" stop-color="#FE2857"/>
</linearGradient>
<linearGradient id="paint1_linear_6275_14197" x1="127.792" y1="12.0842" x2="127.792" y2="151.985" gradientUnits="userSpaceOnUse">
<stop offset="0.0842986" stop-color="#878585"/>
<stop offset="0.5377"/>
</linearGradient>
</defs>
</svg>
