<svg width="128" height="128" viewBox="0 0 128 128" fill="none" xmlns="http://www.w3.org/2000/svg">
<path d="M117 11H11V117H117V11Z" fill="url(#paint0_linear_6275_14146)"/>
<path d="M103 25H25V103H103V25Z" fill="url(#paint1_linear_6275_14146)"/>
<path d="M62.6993 89.5669H33.666V94.3336H62.6993V89.5669Z" fill="white"/>
<path d="M49.3963 40.1233V34.75H34.793V40.1233H38.8663V58.6267H34.793V63.9567H49.3963V58.6267H45.2796V40.1233H49.3963Z" fill="white"/>
<path d="M63.4357 64.3901C61.139 64.3901 59.2323 63.9568 57.7157 63.0901C56.1557 62.2235 54.899 61.1835 53.9023 60.0135L57.9323 55.5068C58.7557 56.4168 59.6223 57.1535 60.4457 57.6735C61.3123 58.1935 62.2223 58.4535 63.2623 58.4535C64.4757 58.4535 65.429 58.0635 66.1223 57.2835C66.8157 56.5035 67.1623 55.2901 67.1623 53.6001V34.7935H73.749V53.9035C73.749 55.6368 73.5323 57.1535 73.0557 58.4535C72.579 59.7535 71.8857 60.8368 71.019 61.7035C70.109 62.6135 69.0257 63.2635 67.7257 63.7401C66.4257 64.1735 64.9957 64.3901 63.4357 64.3901Z" fill="white"/>
<defs>
<linearGradient id="paint0_linear_6275_14146" x1="128.89" y1="128.81" x2="-20.8422" y2="-20.921" gradientUnits="userSpaceOnUse">
<stop offset="0.3475" stop-color="#087CFA"/>
<stop offset="0.8562" stop-color="#FE2857"/>
<stop offset="1" stop-color="#FE2857"/>
</linearGradient>
<linearGradient id="paint1_linear_6275_14146" x1="63.896" y1="6.0421" x2="63.896" y2="75.9925" gradientUnits="userSpaceOnUse">
<stop offset="0.0842986" stop-color="#878585"/>
<stop offset="0.5377"/>
</linearGradient>
</defs>
</svg>
