<svg width="48" height="48" viewBox="0 0 48 48" fill="none" xmlns="http://www.w3.org/2000/svg">
<path d="M44 4H4V44H44V4Z" fill="url(#paint0_linear_6275_14182)"/>
<path d="M39 9H9V39H39V9Z" fill="url(#paint1_linear_6275_14182)"/>
<path d="M23.25 34H12V35.9286H23.25V34Z" fill="white"/>
<path d="M17.9049 14.1911V12.0215H12V14.1911H13.6552V21.6729H12V23.8314H17.9049V21.6729H16.2498V14.1911H17.9049Z" fill="white"/>
<path d="M23.5751 24C22.6581 24 21.8752 23.8211 21.2601 23.4744C20.6338 23.1277 20.1194 22.7139 19.7168 22.2218L21.3496 20.3989C21.6851 20.7679 22.0318 21.0587 22.3673 21.2712C22.714 21.4837 23.0942 21.5843 23.508 21.5843C24.0001 21.5843 24.3915 21.4278 24.6711 21.1146C24.9507 20.8015 25.0961 20.3094 25.0961 19.616V12H27.7578V19.7279C27.7578 20.4324 27.6571 21.0475 27.467 21.5732C27.2769 22.0876 26.9973 22.5349 26.6394 22.8928C26.2816 23.2507 25.8342 23.5303 25.3198 23.7092C24.8053 23.9105 24.2238 24 23.5751 24Z" fill="white"/>
<defs>
<linearGradient id="paint0_linear_6275_14182" x1="48.4867" y1="48.4566" x2="-8.01592" y2="-8.04567" gradientUnits="userSpaceOnUse">
<stop offset="0.3475" stop-color="#087CFA"/>
<stop offset="0.8562" stop-color="#FE2857"/>
<stop offset="1" stop-color="#FE2857"/>
</linearGradient>
<linearGradient id="paint1_linear_6275_14182" x1="23.9994" y1="1.70732" x2="23.9994" y2="28.6113" gradientUnits="userSpaceOnUse">
<stop offset="0.0842986" stop-color="#878585"/>
<stop offset="0.5377"/>
</linearGradient>
</defs>
</svg>
