<svg width="32" height="32" viewBox="0 0 32 32" fill="none" xmlns="http://www.w3.org/2000/svg">
<path d="M30 2H2V30H30V2Z" fill="url(#paint0_linear_6275_14109)"/>
<path d="M26 6H6V26H26V6Z" fill="url(#paint1_linear_6275_14109)"/>
<path d="M16 23H8V24H16V23Z" fill="white"/>
<path d="M12.4532 9.45029V8H8.51172V9.45029H9.61113V14.4444H8.51172V15.883H12.4532V14.4444H11.3421V9.45029H12.4532Z" fill="white"/>
<path d="M16.243 16C15.6231 16 15.1085 15.8831 14.6992 15.6491C14.2781 15.4152 13.9389 15.1345 13.6699 14.8187L14.7576 13.6024C14.9799 13.848 15.2138 14.0468 15.436 14.1871C15.6699 14.3275 15.9155 14.3977 16.1962 14.3977C16.5237 14.3977 16.781 14.2924 16.9682 14.0819C17.1553 13.8714 17.2489 13.5439 17.2489 13.0877V8.01172H19.0266V13.1696C19.0266 13.6374 18.9682 14.0468 18.8395 14.3977C18.7108 14.7486 18.5237 15.0409 18.2898 15.2749C18.0442 15.5205 17.7518 15.6959 17.4009 15.8246C17.05 15.9415 16.6641 16 16.243 16Z" fill="white"/>
<defs>
<linearGradient id="paint0_linear_6275_14109" x1="33.1407" y1="33.1196" x2="-6.41115" y2="-6.43197" gradientUnits="userSpaceOnUse">
<stop offset="0.3475" stop-color="#087CFA"/>
<stop offset="0.8562" stop-color="#FE2857"/>
<stop offset="1" stop-color="#FE2857"/>
</linearGradient>
<linearGradient id="paint1_linear_6275_14109" x1="15.9733" y1="1.139" x2="15.9733" y2="19.075" gradientUnits="userSpaceOnUse">
<stop offset="0.0842986" stop-color="#878585"/>
<stop offset="0.5377"/>
</linearGradient>
</defs>
</svg>
