<svg width="16" height="16" viewBox="0 0 16 16" fill="none" xmlns="http://www.w3.org/2000/svg">
<g clip-path="url(#clip0_6275_14092)">
<path d="M16 0H0V16H16V0Z" fill="#087CFA"/>
<path d="M15 1H1V15H15V1Z" fill="black"/>
<path d="M9 12H3V13H9V12Z" fill="white"/>
<path d="M6.0125 4.1001V3.00635H3.03125V4.1001H3.86875V7.8751H3.03125V8.96885H6.0125V7.8751H5.18125V4.1001H6.0125Z" fill="white"/>
<path d="M8.87578 9.05635C8.40703 9.05635 8.01953 8.96885 7.70703 8.79385C7.39453 8.61885 7.13203 8.40635 6.92578 8.1626L7.75078 7.24385C7.91953 7.43135 8.09453 7.5751 8.26328 7.68135C8.43828 7.7876 8.62578 7.8376 8.83828 7.8376C9.08828 7.8376 9.28203 7.7626 9.42578 7.6001C9.56953 7.44385 9.63828 7.19385 9.63828 6.84385V3.00635H10.982V6.90635C10.982 7.2626 10.932 7.5751 10.8383 7.8376C10.7445 8.1001 10.6008 8.31885 10.4195 8.5001C10.2383 8.68135 10.0133 8.81886 9.75078 8.91261C9.49453 9.00636 9.20078 9.05635 8.87578 9.05635Z" fill="white"/>
</g>
<defs>
<clipPath id="clip0_6275_14092">
<rect width="16" height="16" fill="white"/>
</clipPath>
</defs>
</svg>
