<svg width="64" height="64" viewBox="0 0 64 64" fill="none" xmlns="http://www.w3.org/2000/svg">
<path d="M58 6H6V58H58V6Z" fill="url(#paint0_linear_6275_14128)"/>
<path d="M51 13H13V51H51V13Z" fill="url(#paint1_linear_6275_14128)"/>
<path d="M32.1444 44H18V46.3222H32.1444V44Z" fill="white"/>
<path d="M24.8938 20.3707V17.75H17.7715V20.3707H19.7581V29.3951H17.7715V31.9946H24.8938V29.3951H22.886V20.3707H24.8938Z" fill="white"/>
<path d="M31.7414 32.2063C30.6213 32.2063 29.6913 31.995 28.9516 31.5723C28.1908 31.1496 27.5779 30.6424 27.0918 30.0718L29.0573 27.8738C29.4589 28.3176 29.8816 28.6769 30.2831 28.9305C30.7058 29.1841 31.1496 29.3109 31.6568 29.3109C32.2486 29.3109 32.7136 29.1207 33.0517 28.7403C33.3899 28.3599 33.559 27.7681 33.559 26.9439V17.7715H36.7714V27.0918C36.7714 27.9372 36.6657 28.6769 36.4332 29.3109C36.2008 29.945 35.8626 30.4733 35.4399 30.896C34.9961 31.3398 34.4677 31.6569 33.8337 31.8893C33.1997 32.1007 32.5022 32.2063 31.7414 32.2063Z" fill="white"/>
<defs>
<linearGradient id="paint0_linear_6275_14128" x1="63.8328" y1="63.7936" x2="-9.6207" y2="-9.65938" gradientUnits="userSpaceOnUse">
<stop offset="0.3475" stop-color="#087CFA"/>
<stop offset="0.8562" stop-color="#FE2857"/>
<stop offset="1" stop-color="#FE2857"/>
</linearGradient>
<linearGradient id="paint1_linear_6275_14128" x1="31.9493" y1="3.7641" x2="31.9493" y2="37.8425" gradientUnits="userSpaceOnUse">
<stop offset="0.0842986" stop-color="#878585"/>
<stop offset="0.5377"/>
</linearGradient>
</defs>
</svg>
