<svg width="128" height="128" viewBox="0 0 128 128" fill="none" xmlns="http://www.w3.org/2000/svg">
<g clip-path="url(#clip0_4372_12950)">
<path d="M11.6367 96.1048L11.6402 119.856C11.6402 124.354 15.287 128 19.7857 128H42.7989C45.1762 128 47.436 126.961 48.9836 125.156L114.403 48.8332C115.668 47.3566 116.364 45.4761 116.364 43.5317V19.7807C116.364 15.2821 112.717 11.6353 108.219 11.6353H85.2018C82.8245 11.6353 80.5647 12.6744 79.0171 14.4792L13.5974 90.8021C12.3314 92.2787 11.6367 94.1592 11.6367 96.1048Z" fill="#00D886"/>
<path d="M11.6367 98.9617V119.855C11.6367 124.353 15.2836 128 19.7822 128H45.9675C46.3526 128 46.7378 127.972 47.1195 127.919L121.007 117.365C125.02 116.791 128 113.355 128 109.301V77.9545C128 73.4548 124.352 69.8079 119.853 69.8091L82.7756 69.8184C81.9006 69.8184 81.0313 69.9592 80.2016 70.2361L17.2059 91.2351C13.8802 92.3441 11.6367 95.4568 11.6367 98.9628V98.9617Z" fill="url(#paint0_linear_4372_12950)"/>
<path d="M0 8.14545V76.082C0 79.3402 1.94211 82.2854 4.93614 83.5688L79.9174 115.705C80.9309 116.139 82.0235 116.364 83.1267 116.364H119.855C124.353 116.364 128 112.717 128 108.218V72.2862C128 70.6769 127.523 69.1037 126.629 67.7643L83.8225 3.62705C82.3121 1.36262 79.7707 0.00349091 77.0478 0.00349091L8.14545 0C3.64684 0 0 3.64684 0 8.14545Z" fill="url(#paint1_linear_4372_12950)"/>
<path d="M105 23H23V105H105V23Z" fill="black"/>
<path d="M88.3175 65.0002L80.937 52.5832C81.4293 52.4266 81.9524 52.3127 82.4055 52.1028C84.0887 51.2724 85.3805 50.1372 86.2808 48.6711C87.1954 47.2038 87.6532 45.5158 87.6532 43.5776C87.6532 41.6394 87.2025 40.0072 86.3022 38.5683C85.4161 37.1295 84.1469 35.9943 82.4933 35.1912C80.8398 34.3882 78.9288 34.0015 76.7581 34.0015H63.4502V65.0002H69.495V53.2925H74.7119L81.3854 65.0002H88.3163H88.3175ZM69.4974 39.0392H76.3619C77.3808 39.0392 78.2657 39.2326 79.019 39.5932C79.7864 39.9799 80.3772 40.5065 80.7899 41.1993C81.2027 41.8908 81.4103 42.6939 81.4103 43.6345C81.4103 44.5752 81.2039 45.3782 80.7899 46.0982C80.376 46.7898 79.7864 47.3165 79.019 47.7032C78.2657 48.0911 77.3808 48.2571 76.3619 48.2571H69.4974V39.0404V39.0392Z" fill="white"/>
<path d="M40.1866 53.2925H45.4035L52.077 65.0002H59.0079L51.6275 52.5832C52.1197 52.4266 52.6428 52.3127 53.096 52.1028C54.7792 51.2724 56.0698 50.1372 56.9713 48.6711C57.8858 47.2038 58.3437 45.5158 58.3437 43.5776C58.3437 41.6394 57.8929 40.0072 56.9926 38.5683C56.1065 37.1295 54.8373 35.9943 53.1838 35.1912C51.5302 34.3882 49.6192 34.0015 47.4485 34.0015H34.1406V65.0002H40.1855V53.2925H40.1866ZM40.1866 39.0392H47.0511C48.0701 39.0392 48.955 39.2326 49.7082 39.5932C50.4757 39.9799 51.0664 40.5065 51.4804 41.1993C51.8932 41.8908 52.1008 42.6939 52.1008 43.6345C52.1008 44.5752 51.8944 45.3782 51.4804 46.0982C51.0664 46.7898 50.4769 47.3165 49.7082 47.7032C48.955 48.0911 48.0701 48.2571 47.0511 48.2571H40.1866V39.0404V39.0392Z" fill="white"/>
<path d="M66 89H34V94H66V89Z" fill="white"/>
</g>
<defs>
<linearGradient id="paint0_linear_4372_12950" x1="15.2428" y1="129.435" x2="122.495" y2="79.7093" gradientUnits="userSpaceOnUse">
<stop offset="0.08" stop-color="#00D886"/>
<stop offset="0.46" stop-color="#FFAB00"/>
</linearGradient>
<linearGradient id="paint1_linear_4372_12950" x1="120.037" y1="119.555" x2="2.62633" y2="2.14574" gradientUnits="userSpaceOnUse">
<stop offset="0.19" stop-color="#FFAB00"/>
<stop offset="0.83" stop-color="#FF004C"/>
</linearGradient>
<clipPath id="clip0_4372_12950">
<rect width="128" height="128" fill="white"/>
</clipPath>
</defs>
</svg>
