<svg width="24" height="24" viewBox="0 0 24 24" fill="none" xmlns="http://www.w3.org/2000/svg">
<g clip-path="url(#clip0_4372_12946)">
<path d="M2.18164 18.0197L2.1823 22.473C2.1823 23.3165 2.86608 24 3.70957 24H8.02455C8.47029 24 8.894 23.8052 9.18418 23.4668L21.4504 9.15626C21.6875 8.87938 21.818 8.5268 21.818 8.16222V3.70891C21.818 2.86542 21.1342 2.18164 20.2907 2.18164H15.9751C15.5293 2.18164 15.1056 2.37648 14.8155 2.71488L2.54928 17.0254C2.3119 17.3023 2.18164 17.6549 2.18164 18.0197Z" fill="#00D886"/>
<path d="M2.18164 18.5555V22.4729C2.18164 23.3164 2.86542 24.0002 3.70891 24.0002H8.61866C8.69088 24.0002 8.76309 23.995 8.83466 23.9849L22.6885 22.006C23.4411 21.8984 23.9998 21.2542 23.9998 20.494V14.6166C23.9998 13.7729 23.3158 13.0891 22.4721 13.0894L15.5202 13.0911C15.3561 13.0911 15.1931 13.1175 15.0376 13.1694L3.22586 17.1067C2.6023 17.3147 2.18164 17.8983 2.18164 18.5557V18.5555Z" fill="url(#paint0_linear_4372_12946)"/>
<path d="M0 1.52727V14.2654C0 14.8763 0.364145 15.4285 0.925527 15.6692L14.9845 21.6947C15.1745 21.7761 15.3794 21.8182 15.5863 21.8182H22.4727C23.3162 21.8182 24 21.1344 24 20.2909V13.5537C24 13.2519 23.9105 12.9569 23.743 12.7058L15.7167 0.680073C15.4335 0.255491 14.957 0.000654545 14.4465 0.000654545L1.52727 0C0.683782 0 0 0.683782 0 1.52727Z" fill="url(#paint1_linear_4372_12946)"/>
<path d="M20 4H4V20H20V4Z" fill="black"/>
<path d="M16.6131 12.0734L15.1909 9.68067C15.2857 9.6505 15.3865 9.62856 15.4739 9.5881C15.7982 9.4281 16.0471 9.20936 16.2206 8.92684C16.3968 8.6441 16.4851 8.31884 16.4851 7.94536C16.4851 7.57187 16.3982 7.25735 16.2247 6.9801C16.054 6.70284 15.8094 6.4841 15.4908 6.32935C15.1721 6.17461 14.8039 6.1001 14.3856 6.1001H11.8213V12.0734H12.9861V9.81736H13.9913L15.2773 12.0734H16.6128H16.6131ZM12.9865 7.07084H14.3093C14.5056 7.07084 14.6761 7.1081 14.8213 7.17758C14.9692 7.2521 15.083 7.35358 15.1625 7.48707C15.2421 7.62033 15.2821 7.77507 15.2821 7.95633C15.2821 8.13758 15.2423 8.29233 15.1625 8.43107C15.0828 8.56433 14.9692 8.66581 14.8213 8.74033C14.6761 8.81507 14.5056 8.84707 14.3093 8.84707H12.9865V7.07107V7.07084Z" fill="white"/>
<path d="M7.33886 9.81736H8.34411L9.63006 12.0734H10.9656L9.54343 9.68067C9.63828 9.6505 9.73908 9.62856 9.8264 9.5881C10.1507 9.4281 10.3994 9.20936 10.5731 8.92684C10.7494 8.6441 10.8376 8.31884 10.8376 7.94536C10.8376 7.57187 10.7507 7.25735 10.5773 6.9801C10.4065 6.70284 10.1619 6.4841 9.84331 6.32935C9.52469 6.17461 9.15646 6.1001 8.73817 6.1001H6.17383V12.0734H7.33863V9.81736H7.33886ZM7.33886 7.07084H8.6616C8.85794 7.07084 9.02846 7.1081 9.1736 7.17758C9.32149 7.2521 9.43531 7.35358 9.51508 7.48707C9.59463 7.62033 9.63463 7.77507 9.63463 7.95633C9.63463 8.13758 9.59486 8.29233 9.51508 8.43107C9.43531 8.56433 9.32171 8.66581 9.1736 8.74033C9.02846 8.81507 8.85794 8.84707 8.6616 8.84707H7.33886V7.07107V7.07084Z" fill="white"/>
<path d="M12 17H6V18H12V17Z" fill="white"/>
</g>
<defs>
<linearGradient id="paint0_linear_4372_12946" x1="2.85779" y1="24.2692" x2="22.9676" y2="14.9456" gradientUnits="userSpaceOnUse">
<stop offset="0.08" stop-color="#00D886"/>
<stop offset="0.46" stop-color="#FFAB00"/>
</linearGradient>
<linearGradient id="paint1_linear_4372_12946" x1="22.507" y1="22.4166" x2="0.492437" y2="0.402326" gradientUnits="userSpaceOnUse">
<stop offset="0.19" stop-color="#FFAB00"/>
<stop offset="0.83" stop-color="#FF004C"/>
</linearGradient>
<clipPath id="clip0_4372_12946">
<rect width="24" height="24" fill="white"/>
</clipPath>
</defs>
</svg>
