<svg width="48" height="48" viewBox="0 0 48 48" fill="none" xmlns="http://www.w3.org/2000/svg">
<g clip-path="url(#clip0_4372_12948)">
<path d="M4.36328 36.0394L4.36459 44.946C4.36459 46.6329 5.73215 48.0001 7.41913 48.0001H16.0491C16.9406 48.0001 17.788 47.6104 18.3684 46.9336L42.9007 18.3125C43.3751 17.7588 43.636 17.0536 43.636 16.3244V7.41783C43.636 5.73084 42.2684 4.36328 40.5815 4.36328H31.9502C31.0587 4.36328 30.2113 4.75295 29.6309 5.42975L5.09855 34.0508C4.62379 34.6046 4.36328 35.3097 4.36328 36.0394Z" fill="#00D886"/>
<path d="M4.36328 37.1104V44.9453C4.36328 46.6323 5.73084 47.9999 7.41783 47.9999H17.2373C17.3818 47.9999 17.5262 47.9894 17.6693 47.9693L45.3771 44.0115C46.8821 43.7964 47.9996 42.5078 47.9996 40.9875V29.2328C47.9996 27.5453 46.6316 26.1778 44.9442 26.1782L31.0404 26.1817C30.7122 26.1817 30.3863 26.2345 30.0751 26.3384L6.45172 34.213C5.20459 34.6288 4.36328 35.7961 4.36328 37.1109V37.1104Z" fill="url(#paint0_linear_4372_12948)"/>
<path d="M0 3.05454V28.5308C0 29.7526 0.728291 30.857 1.85105 31.3383L29.969 43.3894C30.3491 43.5521 30.7588 43.6364 31.1725 43.6364H44.9454C46.6324 43.6364 48 42.2688 48 40.5818V27.1073C48 26.5038 47.8211 25.9139 47.486 25.4116L31.4334 1.36015C30.867 0.510982 29.914 0.00130909 28.8929 0.00130909L3.05454 0C1.36756 0 0 1.36756 0 3.05454Z" fill="url(#paint1_linear_4372_12948)"/>
<path d="M39 9H9V39H39V9Z" fill="black"/>
<path d="M32.488 23.9984L29.8694 19.5928C30.0441 19.5373 30.2297 19.4969 30.3904 19.4224C30.9876 19.1278 31.4459 18.725 31.7654 18.2048C32.0899 17.6842 32.2523 17.0853 32.2523 16.3976C32.2523 15.7099 32.0924 15.1308 31.773 14.6203C31.4586 14.1098 31.0082 13.707 30.4216 13.4221C29.8349 13.1372 29.1569 13 28.3867 13H23.665V23.9984H25.8098V19.8445H27.6607L30.0285 23.9984H32.4876H32.488ZM25.8106 14.7874H28.2461C28.6076 14.7874 28.9216 14.856 29.1889 14.9839C29.4612 15.1211 29.6707 15.308 29.8172 15.5538C29.9637 15.7992 30.0373 16.0841 30.0373 16.4178C30.0373 16.7516 29.9641 17.0365 29.8172 17.292C29.6703 17.5373 29.4612 17.7242 29.1889 17.8614C28.9216 17.999 28.6076 18.0579 28.2461 18.0579H25.8106V14.7878V14.7874Z" fill="white"/>
<path d="M15.2213 19.8445H17.0723L19.44 23.9984H21.8991L19.2805 19.5928C19.4552 19.5373 19.6408 19.4969 19.8016 19.4224C20.3988 19.1278 20.8567 18.725 21.1765 18.2048C21.501 17.6842 21.6635 17.0853 21.6635 16.3976C21.6635 15.7099 21.5035 15.1308 21.1841 14.6203C20.8697 14.1098 20.4194 13.707 19.8327 13.4221C19.246 13.1372 18.568 13 17.7978 13H13.0762V23.9984H15.2209V19.8445H15.2213ZM15.2213 14.7874H17.6568C18.0184 14.7874 18.3323 14.856 18.5996 14.9839C18.8719 15.1211 19.0815 15.308 19.2283 15.5538C19.3748 15.7992 19.4485 16.0841 19.4485 16.4178C19.4485 16.7516 19.3752 17.0365 19.2283 17.292C19.0815 17.5373 18.8723 17.7242 18.5996 17.8614C18.3323 17.999 18.0184 18.0579 17.6568 18.0579H15.2213V14.7878V14.7874Z" fill="white"/>
<path d="M25 33H13V35.0001H25V33Z" fill="white"/>
</g>
<defs>
<linearGradient id="paint0_linear_4372_12948" x1="5.71557" y1="48.5379" x2="45.9352" y2="29.8908" gradientUnits="userSpaceOnUse">
<stop offset="0.08" stop-color="#00D886"/>
<stop offset="0.46" stop-color="#FFAB00"/>
</linearGradient>
<linearGradient id="paint1_linear_4372_12948" x1="45.014" y1="44.8333" x2="0.984874" y2="0.804652" gradientUnits="userSpaceOnUse">
<stop offset="0.19" stop-color="#FFAB00"/>
<stop offset="0.83" stop-color="#FF004C"/>
</linearGradient>
<clipPath id="clip0_4372_12948">
<rect width="48" height="48" fill="white"/>
</clipPath>
</defs>
</svg>
