<svg width="256" height="256" viewBox="0 0 256 256" fill="none" xmlns="http://www.w3.org/2000/svg">
<g clip-path="url(#clip0_6242_46908)">
<path d="M23.2725 192.21L23.2794 239.711C23.2794 248.709 30.5731 256 39.5703 256H85.5968C90.3514 256 94.871 253.922 97.9663 250.312L228.806 97.6664C231.335 94.7131 232.727 90.9522 232.727 87.0634V39.5614C232.727 30.5642 225.433 23.2705 216.436 23.2705L170.403 23.2705C165.648 23.2705 161.128 25.3488 158.033 28.9584L27.1939 181.604C24.6618 184.557 23.2725 188.318 23.2725 192.21Z" fill="#00D886"/>
<path d="M23.2725 197.923L23.2725 239.709C23.2725 248.706 30.5661 256 39.5634 256H91.934C92.7043 256 93.4746 255.944 94.238 255.837L242.013 234.729C250.04 233.581 256 226.709 256 218.601V155.909C256 146.909 248.704 139.615 239.704 139.618L165.55 139.636C163.8 139.636 162.062 139.918 160.402 140.472L34.4108 182.47C27.7594 184.688 23.2725 190.913 23.2725 197.925V197.923Z" fill="url(#paint0_linear_6242_46908)"/>
<path d="M0 16.2909L0 152.164C0 158.68 3.88422 164.571 9.87229 167.138L159.835 231.41C161.862 232.278 164.047 232.727 166.253 232.727H239.709C248.706 232.727 256 225.434 256 216.436V144.572C256 141.354 255.046 138.207 253.258 135.529L167.645 7.25411C164.624 2.72524 159.541 0.00698182 154.096 0.00698182L16.2909 0C7.29367 0 0 7.29367 0 16.2909Z" fill="url(#paint1_linear_6242_46908)"/>
<path d="M209 47L47 47L47 209L209 209L209 47Z" fill="black"/>
<path d="M133 177H68V188H133V177Z" fill="white"/>
<path d="M175.126 130L160.603 105.565C161.572 105.257 162.601 105.033 163.493 104.62C166.805 102.986 169.347 100.752 171.119 97.867C172.918 94.9796 173.819 91.658 173.819 87.844C173.819 84.0299 172.932 80.818 171.161 77.9867C169.417 75.1553 166.919 72.9214 163.666 71.3412C160.412 69.7609 156.651 69 152.38 69H126.192L126.192 130H138.087V106.961H148.353L161.485 130H175.124H175.126ZM138.092 78.9133H151.6C153.605 78.9133 155.346 79.2938 156.829 80.0034C158.339 80.7643 159.501 81.8007 160.314 83.1639C161.126 84.5247 161.534 86.105 161.534 87.956C161.534 89.807 161.128 91.3873 160.314 92.8041C159.499 94.165 158.339 95.2013 156.829 95.9623C155.346 96.7256 153.605 97.0524 151.6 97.0524H138.092V78.9157V78.9133Z" fill="white"/>
<path d="M80.9062 106.961H91.172L104.304 130H117.943L103.419 105.565C104.388 105.257 105.418 105.033 106.309 104.62C109.621 102.986 112.161 100.752 113.935 97.867C115.735 94.9796 116.636 91.658 116.636 87.844C116.636 84.0299 115.749 80.818 113.977 77.9867C112.233 75.1553 109.736 72.9214 106.482 71.3412C103.228 69.7609 99.4677 69 95.1961 69H69.0088L69.0088 130H80.9038L80.9038 106.961H80.9062ZM80.9062 78.9133H94.4142C96.4192 78.9133 98.1606 79.2938 99.6428 80.0034C101.153 80.7643 102.315 81.8007 103.13 83.1639C103.942 84.5247 104.351 86.105 104.351 87.956C104.351 89.807 103.945 91.3873 103.13 92.8041C102.315 94.165 101.155 95.2013 99.6428 95.9623C98.1606 96.7256 96.4192 97.0524 94.4142 97.0524H80.9062V78.9157V78.9133Z" fill="white"/>
</g>
<defs>
<linearGradient id="paint0_linear_6242_46908" x1="30.4847" y1="258.869" x2="244.989" y2="159.418" gradientUnits="userSpaceOnUse">
<stop offset="0.08" stop-color="#00D886"/>
<stop offset="0.46" stop-color="#FFAB00"/>
</linearGradient>
<linearGradient id="paint1_linear_6242_46908" x1="240.074" y1="239.111" x2="5.25266" y2="4.29148" gradientUnits="userSpaceOnUse">
<stop offset="0.19" stop-color="#FFAB00"/>
<stop offset="0.83" stop-color="#FF004C"/>
</linearGradient>
<clipPath id="clip0_6242_46908">
<rect width="256" height="256" fill="white"/>
</clipPath>
</defs>
</svg>
