<!-- Copyright © 2000–2024 JetBrains s.r.o. -->
<svg width="512" height="512" viewBox="0 0 512 512" xmlns="http://www.w3.org/2000/svg">
  <path fill="#6B57FF" d="M131.6 48H33.52C15.12 48 .24 63.12.56 81.52l1.36 88.32c.16 9.44 4.4 18.4 11.52 24.56l305.28 261.68c6 5.12 13.6 7.92 21.52 7.92h90.8c18.16 0 32.96-14.8 32.96-32.96v-88.08c0-9.52-4.08-18.56-11.28-24.8l-299.36-262C147.28 50.88 139.6 48 131.6 48"/>
  <path fill="url(#a)" d="M119.92 48H32.96C14.8 48 0 62.8 0 80.96v100.56c0 1.6 0 3.2.32 4.8l43.6 297.44C46.32 500 60.24 512 76.56 512h123.2c18.24 0 33.04-14.8 33.04-33.04v-148c-.08-3.44-.64-6.8-1.6-10l-79.84-250C146.96 57.28 134.24 48 119.92 48"/>
  <path fill="url(#b)" d="M479.04 0H206c-13.28 0-25.28 7.92-30.4 20.16L49.2 319.52a32.25 32.25 0 0 0-2.56 13.12l1.2 146.64C47.92 497.36 62.72 512 80.8 512h141.36c6.4 0 12.72-1.92 18.08-5.44l256.88-168.88C506.4 331.6 512 321.2 512 310.16V32.96C512 14.8 497.2 0 479.04 0"/>
  <path d="M416 464V144l-96-96H96v416z"/>
  <path fill="#fff" d="m288 208-64-48v32h-64v32h64v32zm64 96-64-48v32H160v32h128v32z"/>
  <defs>
    <linearGradient id="a" x1="-3.1" x2="195.14" y1="61.36" y2="489.04" gradientUnits="userSpaceOnUse">
      <stop offset=".18" stop-color="#6B57FF"/>
      <stop offset=".54" stop-color="#FF2358"/>
    </linearGradient>
    <linearGradient id="b" x1="34.56" x2="503.36" y1="479.42" y2="10.7" gradientUnits="userSpaceOnUse">
      <stop offset=".12" stop-color="#FF2358"/>
      <stop offset=".92" stop-color="#FF45ED"/>
    </linearGradient>
  </defs>
</svg>
