<svg width="48" height="48" viewBox="0 0 48 48" fill="none" xmlns="http://www.w3.org/2000/svg">
<path d="M24 47L44 35.4847V12.4724L24 1L4.00077 12.4724H4L24 23.9877V47Z" fill="url(#paint0_linear_1725:886)"/>
<path d="M44 12.4724L24 1L4.00077 12.4724H4L24 23.9877L44 12.4724Z" fill="url(#paint1_linear_1725:886)"/>
<path d="M44 12.4724L24 1L4.00077 12.4724H4L24 23.9877L44 12.4724Z" fill="url(#paint2_linear_1725:886)"/>
<path d="M44 12.4724L24 1L4.00077 12.4724H4L24 23.9877L44 12.4724Z" fill="url(#paint3_linear_1725:886)"/>
<path d="M4.00073 35.4849V12.4727L24 23.988L4.00073 35.4849Z" fill="url(#paint4_linear_1725:886)"/>
<path d="M24 23.9873L4.00073 35.4842L24 46.9996V23.9873Z" fill="url(#paint5_linear_1725:886)" style="mix-blend-mode:overlay"/>
<path d="M24 47.0003L44 35.4849V12.4727L24 23.988V47.0003Z" fill="url(#paint6_linear_1725:886)"/>
<path d="M24 47.0003L44 35.4849V12.4727L24 23.988V47.0003Z" fill="url(#paint7_linear_1725:886)"/>
<path d="M24 47.0003L44 35.4849V12.4727L24 23.988V47.0003Z" fill="url(#paint8_linear_1725:886)"/>
<g opacity="0.8">
<path d="M18.6369 20.9102L24 24V1L4 12.4785L18.6369 20.9102Z" fill="url(#paint9_linear_1725:886)" style="mix-blend-mode:overlay"/>
</g>
<defs>
<linearGradient id="paint0_linear_1725:886" x1="12.503" y1="8.33155" x2="46.4874" y2="42.4625" gradientUnits="userSpaceOnUse">
<stop  offset="0" stop-color="#FDB60D"/>
<stop offset="0.54795" stop-color="#FF318C"/>
<stop offset="0.88765" stop-color="#6B57FF"/>
</linearGradient>
<linearGradient id="paint1_linear_1725:886" x1="19.0643" y1="20.9845" x2="21.2528" y2="17.1777" gradientUnits="userSpaceOnUse">
<stop  offset="0" stop-color="white" stop-opacity="0.6"/>
<stop offset="0.08098" stop-color="#FFC524" stop-opacity="0.4"/>
<stop offset="0.70457" stop-color="#FFC524" stop-opacity="0"/>
</linearGradient>
<linearGradient id="paint2_linear_1725:886" x1="18.9439" y1="3.75252" x2="22.205" y2="9.42537" gradientUnits="userSpaceOnUse">
<stop  offset="0" stop-color="#F9ED32" stop-opacity="0.6"/>
<stop offset="0.19796" stop-color="#FFC524" stop-opacity="0.4"/>
<stop offset="0.70457" stop-color="#FFC524" stop-opacity="0"/>
</linearGradient>
<linearGradient id="paint3_linear_1725:886" x1="29.3227" y1="3.29277" x2="27.8697" y2="5.8203" gradientUnits="userSpaceOnUse">
<stop  offset="0" stop-color="#FDB60D" stop-opacity="0.6"/>
<stop offset="0.23369" stop-color="#FDB60D" stop-opacity="0.4"/>
<stop offset="0.5185" stop-color="#FF318C" stop-opacity="0"/>
</linearGradient>
<linearGradient id="paint4_linear_1725:886" x1="4.00037" y1="23.9789" x2="36.5331" y2="23.9789" gradientUnits="userSpaceOnUse">
<stop offset="0.01477"/>
<stop offset="0.19258"/>
<stop offset="0.57156" stop-color="#6B57FF"/>
<stop offset="0.82576" stop-color="#FF318C"/>
</linearGradient>
<linearGradient id="paint5_linear_1725:886" x1="18.7926" y1="14.1799" x2="13.8575" y2="42.2887" gradientUnits="userSpaceOnUse">
<stop offset="0.046628" stop-color="white" stop-opacity="0.86"/>
<stop offset="0.766654" stop-color="#CBCAA4" stop-opacity="0"/>
</linearGradient>
<linearGradient id="paint6_linear_1725:886" x1="24.0001" y1="29.7365" x2="29.3875" y2="29.7365" gradientUnits="userSpaceOnUse">
<stop  offset="0" stop-color="#FFB2FF" stop-opacity="0.6"/>
<stop offset="0.08098" stop-color="#D828FF" stop-opacity="0.4"/>
<stop offset="0.70457" stop-color="#FF318C" stop-opacity="0"/>
</linearGradient>
<linearGradient id="paint7_linear_1725:886" x1="44.082" y1="29.7365" x2="38.5795" y2="29.7365" gradientUnits="userSpaceOnUse">
<stop  offset="0" stop-color="#6644FF" stop-opacity="0.8"/>
<stop offset="0.09676" stop-color="#6B57FF" stop-opacity="0.4"/>
<stop offset="0.70457" stop-color="#FF318C" stop-opacity="0"/>
</linearGradient>
<linearGradient id="paint8_linear_1725:886" x1="39.2959" y1="38.87" x2="37.7228" y2="36.1337" gradientUnits="userSpaceOnUse">
<stop offset="0.00572" stop-color="#FF318C"/>
<stop offset="0.46934" stop-color="#6B57FF" stop-opacity="0"/>
</linearGradient>
<linearGradient id="paint9_linear_1725:886" x1="13.9999" y1="1.71863" x2="13.9999" y2="15.2305" gradientUnits="userSpaceOnUse">
<stop offset="0.23873" stop-color="#FF5592" stop-opacity="0.65"/>
<stop offset="0.8289" stop-color="#FF57E4" stop-opacity="0"/>
</linearGradient>
</defs>
</svg>
