<svg width="128" height="128" viewBox="0 0 128 128" fill="none" xmlns="http://www.w3.org/2000/svg">
<path d="M64 124L116 93.96V33.928L64 4L12.002 33.928H12L64 63.968V124Z" fill="url(#paint0_linear_1725:858)"/>
<path d="M116 33.928L64 4L12.002 33.928H12L64 63.968L116 33.928Z" fill="url(#paint1_linear_1725:858)"/>
<path d="M116 33.928L64 4L12.002 33.928H12L64 63.968L116 33.928Z" fill="url(#paint2_linear_1725:858)"/>
<path d="M116 33.928L64 4L12.002 33.928H12L64 63.968L116 33.928Z" fill="url(#paint3_linear_1725:858)"/>
<path d="M12.002 93.9597V33.9277L64 63.9677L12.002 93.9597Z" fill="url(#paint4_linear_1725:858)"/>
<path d="M64 63.9678L12.002 93.9598L64 124V63.9678Z" fill="url(#paint5_linear_1725:858)" style="mix-blend-mode:overlay"/>
<path d="M64 124L116 93.9597V33.9277L64 63.9677V124Z" fill="url(#paint6_linear_1725:858)"/>
<path d="M64 124L116 93.9597V33.9277L64 63.9677V124Z" fill="url(#paint7_linear_1725:858)"/>
<path d="M64 124L116 93.9597V33.9277L64 63.9677V124Z" fill="url(#paint8_linear_1725:858)"/>
<g opacity="0.8">
<path d="M50.0561 55.9397L64 64V4L12 33.944L50.0561 55.9397Z" fill="url(#paint9_linear_1725:858)" style="mix-blend-mode:overlay"/>
</g>
<defs>
<linearGradient id="paint0_linear_1725:858" x1="34.1077" y1="23.1258" x2="122.764" y2="111.867" gradientUnits="userSpaceOnUse">
<stop  offset="0" stop-color="#FDB60D"/>
<stop offset="0.54795" stop-color="#FF318C"/>
<stop offset="0.88765" stop-color="#6B57FF"/>
</linearGradient>
<linearGradient id="paint1_linear_1725:858" x1="51.1672" y1="56.1336" x2="56.8858" y2="46.2192" gradientUnits="userSpaceOnUse">
<stop  offset="0" stop-color="white" stop-opacity="0.6"/>
<stop offset="0.08098" stop-color="#FFC524" stop-opacity="0.4"/>
<stop offset="0.70457" stop-color="#FFC524" stop-opacity="0"/>
</linearGradient>
<linearGradient id="paint2_linear_1725:858" x1="50.8541" y1="11.1805" x2="59.3758" y2="25.9546" gradientUnits="userSpaceOnUse">
<stop  offset="0" stop-color="#F9ED32" stop-opacity="0.6"/>
<stop offset="0.19796" stop-color="#FFC524" stop-opacity="0.4"/>
<stop offset="0.70457" stop-color="#FFC524" stop-opacity="0"/>
</linearGradient>
<linearGradient id="paint3_linear_1725:858" x1="77.839" y1="9.98114" x2="74.0422" y2="16.5637" gradientUnits="userSpaceOnUse">
<stop  offset="0" stop-color="#FDB60D" stop-opacity="0.6"/>
<stop offset="0.23369" stop-color="#FDB60D" stop-opacity="0.4"/>
<stop offset="0.5185" stop-color="#FF318C" stop-opacity="0"/>
</linearGradient>
<linearGradient id="paint4_linear_1725:858" x1="12.001" y1="63.9439" x2="96.586" y2="63.9439" gradientUnits="userSpaceOnUse">
<stop offset="0.01477"/>
<stop offset="0.19258"/>
<stop offset="0.57156" stop-color="#6B57FF"/>
<stop offset="0.82576" stop-color="#FF318C"/>
</linearGradient>
<linearGradient id="paint5_linear_1725:858" x1="50.4607" y1="38.3831" x2="37.5462" y2="111.696" gradientUnits="userSpaceOnUse">
<stop offset="0.046628" stop-color="white" stop-opacity="0.86"/>
<stop offset="0.766654" stop-color="#CBCAA4" stop-opacity="0"/>
</linearGradient>
<linearGradient id="paint6_linear_1725:858" x1="64.0002" y1="78.9637" x2="78.0075" y2="78.9637" gradientUnits="userSpaceOnUse">
<stop  offset="0" stop-color="#FFB2FF" stop-opacity="0.6"/>
<stop offset="0.08098" stop-color="#D828FF" stop-opacity="0.4"/>
<stop offset="0.70457" stop-color="#FF318C" stop-opacity="0"/>
</linearGradient>
<linearGradient id="paint7_linear_1725:858" x1="116.213" y1="78.9637" x2="101.907" y2="78.9637" gradientUnits="userSpaceOnUse">
<stop  offset="0" stop-color="#6644FF" stop-opacity="0.8"/>
<stop offset="0.09676" stop-color="#6B57FF" stop-opacity="0.4"/>
<stop offset="0.70457" stop-color="#FF318C" stop-opacity="0"/>
</linearGradient>
<linearGradient id="paint8_linear_1725:858" x1="103.769" y1="102.79" x2="99.6588" y2="95.664" gradientUnits="userSpaceOnUse">
<stop offset="0.00572" stop-color="#FF318C"/>
<stop offset="0.46934" stop-color="#6B57FF" stop-opacity="0"/>
</linearGradient>
<linearGradient id="paint9_linear_1725:858" x1="37.9998" y1="5.87468" x2="37.9998" y2="41.1229" gradientUnits="userSpaceOnUse">
<stop offset="0.23873" stop-color="#FF5592" stop-opacity="0.65"/>
<stop offset="0.8289" stop-color="#FF57E4" stop-opacity="0"/>
</linearGradient>
</defs>
</svg>
