<svg width="256" height="256" viewBox="0 0 256 256" fill="none" xmlns="http://www.w3.org/2000/svg">
<path d="M128 248L232 187.92V67.856L128 8L24.004 67.856H24L128 127.936V248Z" fill="url(#paint0_linear_1725:844)"/>
<path d="M232 67.856L128 8L24.004 67.856H24L128 127.936L232 67.856Z" fill="url(#paint1_linear_1725:844)"/>
<path d="M232 67.856L128 8L24.004 67.856H24L128 127.936L232 67.856Z" fill="url(#paint2_linear_1725:844)"/>
<path d="M232 67.856L128 8L24.004 67.856H24L128 127.936L232 67.856Z" fill="url(#paint3_linear_1725:844)"/>
<path d="M24.0039 187.92V67.8564L128 127.936L24.0039 187.92Z" fill="url(#paint4_linear_1725:844)"/>
<path d="M128 127.936L24.0039 187.92L128 248V127.936Z" fill="url(#paint5_linear_1725:844)" style="mix-blend-mode:overlay"/>
<path d="M128 248L232 187.92V67.8564L128 127.936V248Z" fill="url(#paint6_linear_1725:844)"/>
<path d="M128 248L232 187.92V67.8564L128 127.936V248Z" fill="url(#paint7_linear_1725:844)"/>
<path d="M128 248L232 187.92V67.8564L128 127.936V248Z" fill="url(#paint8_linear_1725:844)"/>
<g opacity="0.8">
<path d="M100.11 111.824L127.997 127.936V8L24.001 67.856L100.11 111.824Z" fill="url(#paint9_linear_1725:844)" style="mix-blend-mode:overlay"/>
</g>
<defs>
<linearGradient id="paint0_linear_1725:844" x1="68.2154" y1="46.2516" x2="245.527" y2="223.734" gradientUnits="userSpaceOnUse">
<stop stop-color="#FDB60D"/>
<stop offset="0.54795" stop-color="#FF318C"/>
<stop offset="0.88765" stop-color="#6B57FF"/>
</linearGradient>
<linearGradient id="paint1_linear_1725:844" x1="102.334" y1="112.267" x2="113.772" y2="92.4384" gradientUnits="userSpaceOnUse">
<stop stop-color="white" stop-opacity="0.6"/>
<stop offset="0.08098" stop-color="#FFC524" stop-opacity="0.4"/>
<stop offset="0.70457" stop-color="#FFC524" stop-opacity="0"/>
</linearGradient>
<linearGradient id="paint2_linear_1725:844" x1="101.708" y1="22.361" x2="118.752" y2="51.9093" gradientUnits="userSpaceOnUse">
<stop stop-color="#F9ED32" stop-opacity="0.6"/>
<stop offset="0.19796" stop-color="#FFC524" stop-opacity="0.4"/>
<stop offset="0.70457" stop-color="#FFC524" stop-opacity="0"/>
</linearGradient>
<linearGradient id="paint3_linear_1725:844" x1="155.678" y1="19.9623" x2="148.084" y2="33.1275" gradientUnits="userSpaceOnUse">
<stop stop-color="#FDB60D" stop-opacity="0.6"/>
<stop offset="0.23369" stop-color="#FDB60D" stop-opacity="0.4"/>
<stop offset="0.5185" stop-color="#FF318C" stop-opacity="0"/>
</linearGradient>
<linearGradient id="paint4_linear_1725:844" x1="24.002" y1="127.889" x2="193.172" y2="127.889" gradientUnits="userSpaceOnUse">
<stop offset="0.01477"/>
<stop offset="0.19258"/>
<stop offset="0.57156" stop-color="#6B57FF"/>
<stop offset="0.82576" stop-color="#FF318C"/>
</linearGradient>
<linearGradient id="paint5_linear_1725:844" x1="100.921" y1="76.7662" x2="75.0923" y2="223.392" gradientUnits="userSpaceOnUse">
<stop offset="0.046628" stop-color="white" stop-opacity="0.86"/>
<stop offset="0.766654" stop-color="#CBCAA4" stop-opacity="0"/>
</linearGradient>
<linearGradient id="paint6_linear_1725:844" x1="128" y1="157.928" x2="156.015" y2="157.928" gradientUnits="userSpaceOnUse">
<stop stop-color="#FFB2FF" stop-opacity="0.6"/>
<stop offset="0.08098" stop-color="#D828FF" stop-opacity="0.4"/>
<stop offset="0.70457" stop-color="#FF318C" stop-opacity="0"/>
</linearGradient>
<linearGradient id="paint7_linear_1725:844" x1="232.426" y1="157.928" x2="203.814" y2="157.928" gradientUnits="userSpaceOnUse">
<stop stop-color="#6644FF" stop-opacity="0.8"/>
<stop offset="0.09676" stop-color="#6B57FF" stop-opacity="0.4"/>
<stop offset="0.70457" stop-color="#FF318C" stop-opacity="0"/>
</linearGradient>
<linearGradient id="paint8_linear_1725:844" x1="207.539" y1="205.582" x2="199.318" y2="191.329" gradientUnits="userSpaceOnUse">
<stop offset="0.00572" stop-color="#FF318C"/>
<stop offset="0.46934" stop-color="#6B57FF" stop-opacity="0"/>
</linearGradient>
<linearGradient id="paint9_linear_1725:844" x1="75.9986" y1="11.7474" x2="75.9986" y2="82.2062" gradientUnits="userSpaceOnUse">
<stop offset="0.23873" stop-color="#FF5592" stop-opacity="0.65"/>
<stop offset="0.8289" stop-color="#FF57E4" stop-opacity="0"/>
</linearGradient>
</defs>
</svg>
