<svg width="32" height="32" viewBox="0 0 32 32" fill="none" xmlns="http://www.w3.org/2000/svg">
<path d="M16 31L28.9874 23.49V8.482L16 1L3.01295 8.482H3.01245L16 15.992V31Z" fill="url(#paint0_linear_1725:900)"/>
<path d="M28.9874 8.482L16 1L3.01295 8.482H3.01245L16 15.992L28.9874 8.482Z" fill="url(#paint1_linear_1725:900)"/>
<path d="M28.9874 8.482L16 1L3.01295 8.482H3.01245L16 15.992L28.9874 8.482Z" fill="url(#paint2_linear_1725:900)"/>
<path d="M28.9874 8.482L16 1L3.01295 8.482H3.01245L16 15.992L28.9874 8.482Z" fill="url(#paint3_linear_1725:900)"/>
<path d="M3.01294 23.4904V8.48242L15.9999 15.9924L3.01294 23.4904Z" fill="url(#paint4_linear_1725:900)"/>
<path d="M15.9999 15.9922L3.01294 23.4902L15.9999 31.0002V15.9922Z" fill="url(#paint5_linear_1725:900)" style="mix-blend-mode:overlay"/>
<path d="M16 31.0004L28.9875 23.4904V8.48242L16 15.9924V31.0004Z" fill="url(#paint6_linear_1725:900)"/>
<path d="M16 31.0004L28.9875 23.4904V8.48242L16 15.9924V31.0004Z" fill="url(#paint7_linear_1725:900)"/>
<path d="M16 31.0004L28.9875 23.4904V8.48242L16 15.9924V31.0004Z" fill="url(#paint8_linear_1725:900)"/>
<g opacity="0.8">
<path d="M12.514 13.9849L16 16V1L3 8.48599L12.514 13.9849Z" fill="url(#paint9_linear_1725:900)" style="mix-blend-mode:overlay"/>
</g>
<defs>
<linearGradient id="paint0_linear_1725:900" x1="8.53407" y1="5.78145" x2="30.698" y2="27.9454" gradientUnits="userSpaceOnUse">
<stop  offset="0" stop-color="#FDB60D"/>
<stop offset="0.54795" stop-color="#FF318C"/>
<stop offset="0.88765" stop-color="#6B57FF"/>
</linearGradient>
<linearGradient id="paint1_linear_1725:900" x1="12.7948" y1="14.0334" x2="14.2252" y2="11.556" gradientUnits="userSpaceOnUse">
<stop  offset="0" stop-color="white" stop-opacity="0.6"/>
<stop offset="0.08098" stop-color="#FFC524" stop-opacity="0.4"/>
<stop offset="0.70457" stop-color="#FFC524" stop-opacity="0"/>
</linearGradient>
<linearGradient id="paint2_linear_1725:900" x1="12.7166" y1="2.79512" x2="14.8481" y2="6.48689" gradientUnits="userSpaceOnUse">
<stop  offset="0" stop-color="#F9ED32" stop-opacity="0.6"/>
<stop offset="0.19796" stop-color="#FFC524" stop-opacity="0.4"/>
<stop offset="0.70457" stop-color="#FFC524" stop-opacity="0"/>
</linearGradient>
<linearGradient id="paint3_linear_1725:900" x1="19.4564" y1="2.49528" x2="18.5067" y2="4.14014" gradientUnits="userSpaceOnUse">
<stop  offset="0" stop-color="#FDB60D" stop-opacity="0.6"/>
<stop offset="0.23369" stop-color="#FDB60D" stop-opacity="0.4"/>
<stop offset="0.5185" stop-color="#FF318C" stop-opacity="0"/>
</linearGradient>
<linearGradient id="paint4_linear_1725:900" x1="3.0127" y1="15.9865" x2="24.1386" y2="15.9865" gradientUnits="userSpaceOnUse">
<stop offset="0.01477"/>
<stop offset="0.19258"/>
<stop offset="0.57156" stop-color="#6B57FF"/>
<stop offset="0.82576" stop-color="#FF318C"/>
</linearGradient>
<linearGradient id="paint5_linear_1725:900" x1="12.6184" y1="9.59602" x2="9.38683" y2="27.9231" gradientUnits="userSpaceOnUse">
<stop offset="0.046628" stop-color="white" stop-opacity="0.86"/>
<stop offset="0.766654" stop-color="#CBCAA4" stop-opacity="0"/>
</linearGradient>
<linearGradient id="paint6_linear_1725:900" x1="16.0001" y1="19.7414" x2="19.4985" y2="19.7414" gradientUnits="userSpaceOnUse">
<stop  offset="0" stop-color="#FFB2FF" stop-opacity="0.6"/>
<stop offset="0.08098" stop-color="#D828FF" stop-opacity="0.4"/>
<stop offset="0.70457" stop-color="#FF318C" stop-opacity="0"/>
</linearGradient>
<linearGradient id="paint7_linear_1725:900" x1="29.0407" y1="19.7414" x2="25.4676" y2="19.7414" gradientUnits="userSpaceOnUse">
<stop  offset="0" stop-color="#6644FF" stop-opacity="0.8"/>
<stop offset="0.09676" stop-color="#6B57FF" stop-opacity="0.4"/>
<stop offset="0.70457" stop-color="#FF318C" stop-opacity="0"/>
</linearGradient>
<linearGradient id="paint8_linear_1725:900" x1="25.9328" y1="25.6981" x2="24.9046" y2="23.9173" gradientUnits="userSpaceOnUse">
<stop offset="0.00572" stop-color="#FF318C"/>
<stop offset="0.46934" stop-color="#6B57FF" stop-opacity="0"/>
</linearGradient>
<linearGradient id="paint9_linear_1725:900" x1="9.49995" y1="1.46867" x2="9.49995" y2="10.2807" gradientUnits="userSpaceOnUse">
<stop offset="0.23873" stop-color="#FF5592" stop-opacity="0.65"/>
<stop offset="0.8289" stop-color="#FF57E4" stop-opacity="0"/>
</linearGradient>
</defs>
</svg>
