<!-- Copyright © 2000–2024 JetBrains s.r.o. -->
<svg width="48" height="48" viewBox="0 0 48 48" xmlns="http://www.w3.org/2000/svg">
  <path fill="url(#a)" d="M0 3.09v25.598c0 1.245.743 2.37 1.89 2.85l28.065 11.85c.39.165.81.247 1.23.24l13.747-.113A3.09 3.09 0 0 0 48 40.425V27.173a3.1 3.1 0 0 0-.51-1.695L31.657 1.395A3.09 3.09 0 0 0 29.078 0H3.09A3.095 3.095 0 0 0 0 3.09"/>
  <path fill="url(#b)" d="M4.5 36.758v8.152A3.095 3.095 0 0 0 7.59 48h9.427q.225.002.45-.03l27.886-4.087A3.1 3.1 0 0 0 48 40.823v-11.55a3.1 3.1 0 0 0-3.097-3.098H31.028a3.6 3.6 0 0 0-.938.15L6.653 33.81A3.1 3.1 0 0 0 4.5 36.757"/>
  <path fill="#FF45ED" d="M4.5 35.663v9.195a3.09 3.09 0 0 0 3.143 3.09L15.75 48c.885-.015 1.898-.593 2.475-1.26l24.533-28.62a3.1 3.1 0 0 0 .742-2.018V7.59a3.095 3.095 0 0 0-3.09-3.09h-8.257a3.07 3.07 0 0 0-2.325 1.058L5.265 33.623a3.1 3.1 0 0 0-.765 2.04"/>
  <path d="M39 9H9v30h30z"/>
  <path fill="#fff" fill-rule="evenodd" d="M12.757 12.743h4.283c1.065 0 2.025.247 2.865.727a5.1 5.1 0 0 1 1.98 2.003q.72 1.282.72 2.902c0 1.08-.24 2.04-.72 2.895a5.15 5.15 0 0 1-1.98 2.01c-.84.48-1.8.72-2.865.72h-4.283zm6.015 8.91c.51-.3.893-.728 1.17-1.29.27-.563.413-1.223.413-1.988s-.143-1.432-.413-1.995c-.277-.555-.66-.99-1.17-1.29q-.753-.45-1.755-.45h-2.07v7.463h2.07q1.002 0 1.755-.45"/>
  <path fill="#fff" d="M24.743 33h-12v2.25h12z"/>
  <path fill="#fff" fill-rule="evenodd" d="M29.355 12.743h-4.83V24h2.19v-4.252h2.572c.81 0 1.523-.143 2.123-.435.607-.293 1.08-.705 1.402-1.238.33-.532.495-1.155.495-1.845s-.157-1.305-.48-1.83a3.3 3.3 0 0 0-1.387-1.222c-.6-.285-1.29-.435-2.085-.435m1.462 4.387q-.223.383-.637.585c-.278.143-.6.21-.968.21h-2.497v-3.352h2.497q.552 0 .968.202.414.204.637.578c.15.255.225.54.225.885s-.075.637-.225.892"/>
  <defs>
    <linearGradient id="a" x1="44.947" x2="1.005" y1="44.76" y2=".81" gradientUnits="userSpaceOnUse">
      <stop offset=".29" stop-color="#6B57FF"/>
      <stop offset=".89" stop-color="#07C3F2"/>
    </linearGradient>
    <linearGradient id="b" x1="5.753" x2="45.847" y1="48.292" y2="29.707" gradientUnits="userSpaceOnUse">
      <stop offset=".3" stop-color="#FF45ED"/>
      <stop offset=".84" stop-color="#6B57FF"/>
    </linearGradient>
  </defs>
</svg>
