<!-- Copyright © 2000–2024 JetBrains s.r.o. -->
<svg width="32" height="32" viewBox="0 0 32 32" xmlns="http://www.w3.org/2000/svg">
  <path fill="url(#a)" d="M0 2.06v17.065c0 .83.495 1.58 1.26 1.9l18.71 7.9c.26.11.54.165.82.16l9.165-.075A2.06 2.06 0 0 0 32 26.95v-8.835c0-.4-.12-.795-.34-1.13L21.105.93c-.38-.58-1.03-.93-1.72-.93H2.06C.925 0 0 .925 0 2.06"/>
  <path fill="url(#b)" d="M3 24.505v5.435C3 31.075 3.925 32 5.06 32h6.285q.15.001.3-.02l18.59-2.725A2.065 2.065 0 0 0 32 27.215v-7.7c0-1.14-.925-2.065-2.065-2.065h-9.25q-.324.009-.625.1L4.435 22.54A2.07 2.07 0 0 0 3 24.505"/>
  <path fill="#FF45ED" d="M3 23.775v6.13c0 1.15.945 2.08 2.095 2.06L10.5 32c.59-.01 1.265-.395 1.65-.84l16.355-19.08c.32-.375.495-.85.495-1.345V5.06C29 3.925 28.075 3 26.94 3h-5.505c-.595 0-1.16.255-1.55.705L3.51 22.415c-.33.38-.51.86-.51 1.36"/>
  <path d="M26 6H6v20h20z"/>
  <path fill="#fff" fill-rule="evenodd" d="M8.505 8.495h2.855c.71 0 1.35.165 1.91.485a3.4 3.4 0 0 1 1.32 1.335q.48.855.48 1.935c0 .72-.16 1.36-.48 1.93a3.44 3.44 0 0 1-1.32 1.34c-.56.32-1.2.48-1.91.48H8.505zm4.01 5.94c.34-.2.595-.485.78-.86.18-.375.275-.815.275-1.325s-.095-.955-.275-1.33c-.185-.37-.44-.66-.78-.86q-.503-.3-1.17-.3h-1.38v4.975h1.38q.667 0 1.17-.3"/>
  <path fill="#fff" d="M16.495 22h-8v1.5h8z"/>
  <path fill="#fff" fill-rule="evenodd" d="M19.57 8.495h-3.22V16h1.46v-2.835h1.715c.54 0 1.015-.095 1.415-.29.405-.195.72-.47.935-.825.22-.355.33-.77.33-1.23s-.105-.87-.32-1.22c-.22-.35-.525-.62-.925-.815-.4-.19-.86-.29-1.39-.29m.975 2.925q-.149.255-.425.39-.277.141-.645.14H17.81V9.715h1.665q.368 0 .645.135.276.136.425.385c.1.17.15.36.15.59s-.05.425-.15.595"/>
  <defs>
    <linearGradient id="a" x1="29.965" x2=".67" y1="29.84" y2=".54" gradientUnits="userSpaceOnUse">
      <stop offset=".29" stop-color="#6B57FF"/>
      <stop offset=".89" stop-color="#07C3F2"/>
    </linearGradient>
    <linearGradient id="b" x1="3.835" x2="30.565" y1="32.195" y2="19.805" gradientUnits="userSpaceOnUse">
      <stop offset=".3" stop-color="#FF45ED"/>
      <stop offset=".84" stop-color="#6B57FF"/>
    </linearGradient>
  </defs>
</svg>
