<!-- Copyright © 2000–2024 JetBrains s.r.o. -->
<svg width="256" height="256" viewBox="0 0 256 256" xmlns="http://www.w3.org/2000/svg">
  <path fill="url(#a)" d="M0 16.48V153c0 6.64 3.96 12.64 10.08 15.2l149.68 63.2c2.08.88 4.32 1.32 6.56 1.28l73.32-.6c9.04-.04 16.36-7.44 16.36-16.48v-70.68c0-3.2-.96-6.36-2.72-9.04L168.84 7.44A16.49 16.49 0 0 0 155.08 0H16.48C7.4 0 0 7.4 0 16.48"/>
  <path fill="url(#b)" d="M24 196.04v43.48C24 248.6 31.4 256 40.48 256h50.28c.8 0 1.6-.04 2.4-.16l148.72-21.8c8.12-1.2 14.12-8.16 14.12-16.32v-61.6c0-9.12-7.4-16.52-16.52-16.52h-74c-1.72.04-3.4.32-5 .8l-125 39.92c-6.84 2.2-11.48 8.56-11.48 15.72"/>
  <path fill="#FF45ED" d="M24 190.2v49.04c0 9.2 7.56 16.64 16.76 16.48L84 256c4.72-.08 10.12-3.16 13.2-6.72L228.04 96.64c2.56-3 3.96-6.8 3.96-10.76v-45.4C232 31.4 224.6 24 215.52 24h-44.04c-4.76 0-9.28 2.04-12.4 5.64l-131 149.68A16.55 16.55 0 0 0 24 190.2"/>
  <path d="M208 48H48v160h160z"/>
  <path fill="#fff" fill-rule="evenodd" d="M68.04 67.96h22.84c5.68 0 10.8 1.32 15.28 3.88q6.78 3.84 10.56 10.68 3.84 6.84 3.84 15.48c0 5.76-1.28 10.88-3.84 15.44-2.52 4.56-6.04 8.12-10.56 10.72-4.48 2.56-9.6 3.84-15.28 3.84H68.04zm32.08 47.52c2.72-1.6 4.76-3.88 6.24-6.88 1.44-3 2.2-6.52 2.2-10.6s-.76-7.64-2.2-10.64c-1.48-2.96-3.52-5.28-6.24-6.88q-4.02-2.4-9.36-2.4H79.72v39.8h11.04q5.34 0 9.36-2.4"/>
  <path fill="#fff" d="M131.96 176h-64v12h64z"/>
  <path fill="#fff" fill-rule="evenodd" d="M156.56 67.96H130.8V128h11.68v-22.68h13.72c4.32 0 8.12-.76 11.32-2.32 3.24-1.56 5.76-3.76 7.48-6.6 1.76-2.84 2.64-6.16 2.64-9.84s-.84-6.96-2.56-9.76c-1.76-2.8-4.2-4.96-7.4-6.52-3.2-1.52-6.88-2.32-11.12-2.32m7.8 23.4c-.8 1.36-1.92 2.4-3.4 3.12-1.48.76-3.2 1.12-5.16 1.12h-13.32V77.72h13.32q2.94 0 5.16 1.08c1.48.72 2.6 1.76 3.4 3.08.8 1.36 1.2 2.88 1.2 4.72s-.4 3.4-1.2 4.76"/>
  <defs>
    <linearGradient id="a" x1="239.72" x2="5.36" y1="238.72" y2="4.32" gradientUnits="userSpaceOnUse">
      <stop offset=".29" stop-color="#6B57FF"/>
      <stop offset=".89" stop-color="#07C3F2"/>
    </linearGradient>
    <linearGradient id="b" x1="30.68" x2="244.52" y1="257.56" y2="158.44" gradientUnits="userSpaceOnUse">
      <stop offset=".3" stop-color="#FF45ED"/>
      <stop offset=".84" stop-color="#6B57FF"/>
    </linearGradient>
  </defs>
</svg>
