<!-- Copyright © 2000–2024 JetBrains s.r.o. -->
<svg width="128" height="128" viewBox="0 0 128 128" xmlns="http://www.w3.org/2000/svg">
  <path fill="url(#a)" d="M0 8.24V76.5c0 3.32 1.98 6.32 5.04 7.6l74.84 31.6c1.04.44 2.16.66 3.28.64l36.66-.3c4.52-.02 8.18-3.72 8.18-8.24V72.46c0-1.6-.48-3.18-1.36-4.52L84.42 3.72A8.24 8.24 0 0 0 77.54 0H8.24C3.7 0 0 3.7 0 8.24"/>
  <path fill="url(#b)" d="M12 98.02v21.74c0 4.54 3.7 8.24 8.24 8.24h25.14c.4 0 .8-.02 1.2-.08l74.36-10.9c4.06-.6 7.06-4.08 7.06-8.16v-30.8c0-4.56-3.7-8.26-8.26-8.26h-37c-.86.02-1.7.16-2.5.4l-62.5 19.96A8.27 8.27 0 0 0 12 98.02"/>
  <path fill="#FF45ED" d="M12 95.1v24.52c0 4.6 3.78 8.32 8.38 8.24L42 128c2.36-.04 5.06-1.58 6.6-3.36l65.42-76.32a8.27 8.27 0 0 0 1.98-5.38v-22.7c0-4.54-3.7-8.24-8.24-8.24H85.74c-2.38 0-4.64 1.02-6.2 2.82l-65.5 74.84A8.28 8.28 0 0 0 12 95.1"/>
  <path d="M104 24H24v80h80z"/>
  <path fill="#fff" fill-rule="evenodd" d="M34.02 33.98h11.42c2.84 0 5.4.66 7.64 1.94q3.39 1.92 5.28 5.34 1.92 3.42 1.92 7.74c0 2.88-.64 5.44-1.92 7.72-1.26 2.28-3.02 4.06-5.28 5.36-2.24 1.28-4.8 1.92-7.64 1.92H34.02zm16.04 23.76c1.36-.8 2.38-1.94 3.12-3.44.72-1.5 1.1-3.26 1.1-5.3s-.38-3.82-1.1-5.32c-.74-1.48-1.76-2.64-3.12-3.44q-2.01-1.2-4.68-1.2h-5.52v19.9h5.52q2.67 0 4.68-1.2"/>
  <path fill="#fff" d="M65.98 88h-32v6h32z"/>
  <path fill="#fff" fill-rule="evenodd" d="M78.28 33.98H65.4V64h5.84V52.66h6.86c2.16 0 4.06-.38 5.66-1.16 1.62-.78 2.88-1.88 3.74-3.3.88-1.42 1.32-3.08 1.32-4.92s-.42-3.48-1.28-4.88c-.88-1.4-2.1-2.48-3.7-3.26-1.6-.76-3.44-1.16-5.56-1.16m3.9 11.7c-.4.68-.96 1.2-1.7 1.56-.74.38-1.6.56-2.58.56h-6.66v-8.94h6.66q1.47 0 2.58.54c.74.36 1.3.88 1.7 1.54.4.68.6 1.44.6 2.36s-.2 1.7-.6 2.38"/>
  <defs>
    <linearGradient id="a" x1="119.86" x2="2.68" y1="119.36" y2="2.16" gradientUnits="userSpaceOnUse">
      <stop offset=".29" stop-color="#6B57FF"/>
      <stop offset=".89" stop-color="#07C3F2"/>
    </linearGradient>
    <linearGradient id="b" x1="15.34" x2="122.26" y1="128.78" y2="79.22" gradientUnits="userSpaceOnUse">
      <stop offset=".3" stop-color="#FF45ED"/>
      <stop offset=".84" stop-color="#6B57FF"/>
    </linearGradient>
  </defs>
</svg>
