<!-- Copyright © 2000–2024 JetBrains s.r.o. -->
<svg width="24" height="24" viewBox="0 0 24 24" xmlns="http://www.w3.org/2000/svg">
  <path fill="url(#a)" d="M0 1.545v12.799c0 .622.371 1.185.945 1.425l14.032 5.925c.195.082.406.123.615.12l6.874-.056A1.545 1.545 0 0 0 24 20.212v-6.626c0-.3-.09-.596-.255-.847L15.829.697A1.55 1.55 0 0 0 14.539 0H1.545C.694 0 0 .694 0 1.545"/>
  <path fill="url(#b)" d="M2.25 18.379v4.076c0 .851.694 1.545 1.545 1.545h4.714q.113 0 .225-.015l13.942-2.044A1.55 1.55 0 0 0 24 20.411v-5.775a1.55 1.55 0 0 0-1.549-1.548h-6.937q-.244.006-.469.075L3.326 16.905a1.55 1.55 0 0 0-1.076 1.474"/>
  <path fill="#FF45ED" d="M2.25 17.831v4.598c0 .862.709 1.56 1.571 1.545L7.875 24c.443-.008.949-.296 1.238-.63L21.379 9.06a1.55 1.55 0 0 0 .371-1.009V3.795c0-.851-.694-1.545-1.545-1.545h-4.129c-.446 0-.87.191-1.162.529L2.633 16.81a1.55 1.55 0 0 0-.383 1.02"/>
  <path d="M19.5 4.5h-15v15h15z"/>
  <path fill="#fff" fill-rule="evenodd" d="M6.379 6.371H8.52c.533 0 1.013.124 1.433.364q.635.36.99 1.001.36.641.36 1.451 0 .808-.36 1.448a2.6 2.6 0 0 1-.99 1.005Q9.32 12 8.52 12H6.38zm3.007 4.455a1.5 1.5 0 0 0 .585-.645 2.3 2.3 0 0 0 .207-.994c0-.382-.072-.716-.207-.997a1.5 1.5 0 0 0-.585-.645 1.7 1.7 0 0 0-.877-.225H7.474v3.731h1.035q.5 0 .877-.225"/>
  <path fill="#fff" d="M12.371 16.5h-6v1.125h6z"/>
  <path fill="#fff" fill-rule="evenodd" d="M14.678 6.371h-2.415V12h1.095V9.874h1.286q.61 0 1.061-.218.458-.219.701-.619c.165-.266.248-.577.248-.922s-.079-.653-.24-.915a1.65 1.65 0 0 0-.694-.611 2.4 2.4 0 0 0-1.042-.218m.73 2.194a.73.73 0 0 1-.318.292q-.208.107-.484.105h-1.248V7.286h1.248q.276 0 .484.101a.75.75 0 0 1 .319.29c.075.127.112.27.112.442a.86.86 0 0 1-.112.446"/>
  <defs>
    <linearGradient id="a" x1="22.474" x2=".503" y1="22.38" y2=".405" gradientUnits="userSpaceOnUse">
      <stop offset=".29" stop-color="#6B57FF"/>
      <stop offset=".89" stop-color="#07C3F2"/>
    </linearGradient>
    <linearGradient id="b" x1="2.876" x2="22.924" y1="24.146" y2="14.854" gradientUnits="userSpaceOnUse">
      <stop offset=".3" stop-color="#FF45ED"/>
      <stop offset=".84" stop-color="#6B57FF"/>
    </linearGradient>
  </defs>
</svg>
