<svg width="16" height="16" viewBox="0 0 16 16" fill="none" xmlns="http://www.w3.org/2000/svg">
<g clip-path="url(#clip0_4372_12080)">
<path d="M16 0H0V16H16V0Z" fill="#087CFA"/>
<path d="M15 1H1V15H15V1Z" fill="black"/>
<path d="M8 12H3V13H8V12Z" fill="white"/>
<path d="M3 2.8667H4.9898C5.485 2.8667 5.928 2.9787 6.3188 3.2027C6.712 3.4267 7.0194 3.7393 7.241 4.1361C7.4624 4.5327 7.5732 4.9807 7.5732 5.4801C7.5732 5.9795 7.4624 6.4275 7.241 6.8287C7.0194 7.2253 6.712 7.5333 6.3188 7.7573C5.928 7.9813 5.485 8.0933 4.9898 8.0933H3V2.8667ZM4.9786 7.2115C5.2898 7.2115 5.5622 7.1415 5.7962 7.0015C6.0302 6.8661 6.2106 6.6655 6.3376 6.4041C6.4646 6.1427 6.528 5.8347 6.528 5.4801C6.528 5.1255 6.4646 4.8175 6.3376 4.5561C6.2106 4.2947 6.0302 4.0941 5.7962 3.9587C5.5622 3.8187 5.2896 3.7487 4.9786 3.7487H4.0192V7.2113L4.9786 7.2115Z" fill="white"/>
<path d="M9.14075 7.97663C9.43455 8.11663 9.77055 8.18203 10.1488 8.18203C10.5272 8.18203 10.8634 8.11183 11.157 7.97183C11.4508 7.83643 11.6784 7.64043 11.8402 7.39783C12.0044 7.15063 12.0866 6.87523 12.0866 6.56723C12.0866 6.31523 12.0306 6.08183 11.9186 5.87183C11.8066 5.65723 11.6498 5.47983 11.4482 5.33523C11.2492 5.18603 11.0214 5.08803 10.765 5.03663L9.87635 4.84063C9.71455 4.80343 9.58635 4.73343 9.49175 4.64003C9.39955 4.54663 9.35355 4.42523 9.35355 4.28063C9.35355 4.15463 9.38715 4.04263 9.45435 3.94923C9.52155 3.85123 9.61495 3.77663 9.73435 3.72523C9.85635 3.66923 9.99695 3.64123 10.1562 3.64123C10.3154 3.64123 10.456 3.67383 10.578 3.72983C10.7024 3.78583 10.7982 3.86063 10.8654 3.96323C10.9326 4.06583 10.9662 4.17783 10.9662 4.30383H11.9854C11.9828 4.00503 11.9032 3.73903 11.7464 3.51043C11.5922 3.28163 11.3756 3.09963 11.0968 2.96903C10.818 2.84303 10.4958 2.77783 10.1448 2.77783C9.79375 2.77783 9.48015 2.84303 9.20395 2.97843C8.92775 3.10923 8.71255 3.29583 8.55815 3.53383C8.40395 3.77163 8.32675 4.03783 8.32675 4.33643C8.32675 4.58383 8.37775 4.80323 8.47975 5.00383C8.58195 5.19983 8.72495 5.36303 8.90915 5.49843C9.09335 5.62903 9.30995 5.72243 9.55875 5.77843L10.481 5.98383C10.6578 6.02583 10.7958 6.10043 10.8954 6.21243C10.9974 6.31983 11.0484 6.45983 11.0484 6.62783C11.0484 6.75843 11.011 6.87983 10.9364 6.98243C10.8644 7.08983 10.761 7.16923 10.6266 7.22983C10.4946 7.28583 10.3476 7.31843 10.1636 7.31843C9.97955 7.31843 9.81635 7.28583 9.67455 7.22043C9.53275 7.15523 9.42195 7.06643 9.34235 6.94983C9.26275 6.83783 9.22295 6.70263 9.22295 6.55323H8.19995C8.20495 6.87063 8.28955 7.15523 8.45375 7.40263C8.62055 7.65003 8.84955 7.84143 9.14075 7.97663Z" fill="white"/>
</g>
<defs>
<clipPath id="clip0_4372_12080">
<rect width="16" height="16" fill="white"/>
</clipPath>
</defs>
<path d="M1 11C1 10.4477 1.44772 10 2 10H14C14.5523 10 15 10.4477 15 11V15H1V11Z" fill="#FFC94D"/>
<path d="M8 11H9.09836C9.2793 11 9.43777 11.0386 9.57377 11.1157C9.70977 11.1929 9.81482 11.3021 9.88889 11.4436C9.96296 11.585 10 11.7479 10 11.9321C10 12.1193 9.96236 12.2843 9.88707 12.4271C9.81178 12.5686 9.70492 12.6786 9.56648 12.7571C9.42927 12.8357 9.26837 12.875 9.08379 12.875H8.51002V14H8V11ZM9.06375 12.3779C9.14633 12.3779 9.21858 12.36 9.28051 12.3243C9.34244 12.2886 9.3898 12.2371 9.42259 12.17C9.45659 12.1029 9.47359 12.0243 9.47359 11.9343C9.47359 11.8457 9.45659 11.7686 9.42259 11.7029C9.3898 11.6371 9.34244 11.5864 9.28051 11.5507C9.21858 11.515 9.14633 11.4971 9.06375 11.4971H8.51002V12.3779H9.06375Z" fill="black"/>
<path d="M6.14113 11H6.82717L8 14H7.36377L7.11019 13.31H5.88528L5.64981 14H5L6.14113 11ZM6.94491 12.8471L6.52377 11.72L6.47623 11.5293L6.43094 11.72L6.03698 12.8471H6.94491Z" fill="black"/>
<path d="M3 11H4.96139V11.5271H3.52703V12.2364H4.83012V12.7507H3.52703V13.4729H5V14H3V11Z" fill="black"/>
<path d="M10 10H14C14.5523 10 15 10.4477 15 11V15H10V10Z" fill="white"/>
<g clip-path="url(#clip0_6216_54522)">
<path d="M14 14.0005H13.4878C13.4878 12.6287 12.3718 11.5127 11 11.5127V11.0005C12.6542 11.0005 14 12.3463 14 14.0005Z" fill="#1A1A1A"/>
<path d="M13 14.0005H12.5179C12.5179 13.1635 11.837 12.4826 11 12.4826V12.0005C12.1028 12.0005 13 12.8977 13 14.0005Z" fill="#1A1A1A"/>
<path d="M12 14.0005H11.59C11.59 13.6752 11.3253 13.4105 11 13.4105V13.0005C11.5514 13.0005 12 13.4491 12 14.0005Z" fill="#1A1A1A"/>
</g>
<defs>
<clipPath id="clip0_6216_54522">
<rect width="3" height="3" fill="white" transform="translate(11 11)"/>
</clipPath>
</defs>
</svg>