<svg width="32" height="32" viewBox="0 0 32 32" fill="none" xmlns="http://www.w3.org/2000/svg" data-scaled="true">
<g clip-path="url(#clip0_4372_12082)">
<path d="M32 29.9637V12.9796C32 12.165 31.5145 11.4287 30.766 11.1079L12.0207 3.07383C11.7673 2.96533 11.4941 2.90918 11.2183 2.90918H2.03636C0.911709 2.90918 0 3.82089 0 4.94554V13.9285C0 14.3309 0.119273 14.7242 0.342691 15.059L11.0444 31.0933C11.422 31.6594 12.0576 31.9992 12.738 31.9992L29.9636 32.0001C31.0883 32.0001 32 31.0884 32 29.9637Z" fill="url(#paint0_linear_4372_12082)"/>
<path d="M29.0909 7.25964V2.03636C29.0909 0.911709 28.1792 0 27.0545 0H20.5082C20.4119 0 20.3156 0.00698182 20.2202 0.0203636L1.74836 2.6592C0.745309 2.80233 0 3.66167 0 4.67491V12.5114C0 13.6364 0.912 14.5481 2.03695 14.5478L11.3062 14.5455C11.5249 14.5455 11.7423 14.5103 11.9497 14.441L27.6986 9.19127C28.53 8.91404 29.0909 8.13585 29.0909 7.25935V7.25964Z" fill="url(#paint1_linear_4372_12082)"/>
<path d="M29.0909 7.97382L29.09 2.03607C29.0897 0.911709 28.178 0 27.0536 0H21.3003C20.706 0 20.1411 0.259782 19.7541 0.710982L3.39924 19.7917C3.08302 20.1609 2.90906 20.631 2.90906 21.1171V27.0548C2.90906 28.1795 3.82077 29.0912 4.94542 29.0912H10.6996C11.2939 29.0912 11.8589 28.8314 12.2458 28.3802L28.6007 9.29949C28.9172 8.93033 29.0909 8.46022 29.0909 7.97382Z" fill="#F0EB18"/>
<path d="M26 6H6V26H26V6Z" fill="black"/>
<path d="M8.96924 8.9938H11.8118C12.5192 8.9938 13.1521 9.15658 13.7104 9.48214C14.2721 9.8077 14.7112 10.262 15.0278 10.8387C15.3441 11.4151 15.5024 12.0662 15.5024 12.7921C15.5024 13.5179 15.3441 14.169 15.0278 14.7521C14.7112 15.3285 14.2721 15.7761 13.7104 16.1017C13.1521 16.4272 12.5192 16.59 11.8118 16.59H8.96924V8.9938ZM11.7958 15.3084C12.2404 15.3084 12.6295 15.2067 12.9638 15.0032C13.2981 14.8064 13.5558 14.5149 13.7372 14.135C13.9187 13.7551 14.0092 13.3074 14.0092 12.7921C14.0092 12.2767 13.9187 11.829 13.7372 11.4491C13.5558 11.0692 13.2981 10.7777 12.9638 10.5809C12.6295 10.3774 12.2401 10.2757 11.7958 10.2757H10.4252V15.3081H11.7958V15.3084ZM18.9978 16.7191C18.4575 16.7191 17.9775 16.624 17.5578 16.4206C17.1418 16.2241 16.8147 15.9459 16.5764 15.5863C16.3418 15.2267 16.221 14.8131 16.2138 14.3518H17.6752C17.6752 14.569 17.7321 14.7654 17.8458 14.9282C17.9595 15.0977 18.1178 15.2267 18.3204 15.3215C18.523 15.4166 18.7561 15.4639 19.019 15.4639C19.2818 15.4639 19.4918 15.4166 19.6804 15.3352C19.8724 15.2471 20.0201 15.1317 20.123 14.9756C20.2295 14.8265 20.283 14.6501 20.283 14.4602C20.283 14.2161 20.2101 14.0126 20.0644 13.8565C19.9221 13.6937 19.725 13.5853 19.4724 13.5243L18.155 13.2257C17.7995 13.1444 17.4901 13.0086 17.227 12.8188C16.9638 12.622 16.7595 12.3848 16.6135 12.1C16.4678 11.8084 16.395 11.4895 16.395 11.13C16.395 10.696 16.5052 10.3091 16.7255 9.9635C16.9461 9.61759 17.2535 9.34639 17.6481 9.15629C18.0427 8.95951 18.4907 8.86475 18.9921 8.86475C19.4935 8.86475 19.9538 8.95951 20.3521 9.14263C20.7504 9.33244 21.0598 9.59696 21.2801 9.92949C21.5041 10.2617 21.6178 10.6483 21.6215 11.0826H20.1655C20.1655 10.8995 20.1175 10.7367 20.0215 10.5876C19.9255 10.4385 19.7887 10.3297 19.611 10.2484C19.4367 10.167 19.2358 10.1196 19.0084 10.1196C18.781 10.1196 18.5801 10.1603 18.4058 10.2417C18.2352 10.3164 18.1018 10.4248 18.0058 10.5672C17.9098 10.703 17.8618 10.8658 17.8618 11.0489C17.8618 11.259 17.9275 11.4355 18.0592 11.5712C18.1944 11.707 18.3775 11.8087 18.6087 11.8628L19.8781 12.1476C20.2444 12.2223 20.5698 12.3648 20.8541 12.5816C21.1421 12.7918 21.3661 13.0496 21.5261 13.3615C21.6861 13.6667 21.7661 14.0059 21.7661 14.3722C21.7661 14.8198 21.6487 15.2201 21.4141 15.5793C21.183 15.9319 20.8578 16.2168 20.4381 16.4136C20.0187 16.617 19.5387 16.7188 18.9981 16.7188L18.9978 16.7191Z" fill="white"/>
<path d="M16 22H9V23H16V22Z" fill="white"/>
</g>
<defs>
<linearGradient id="paint0_linear_4372_12082" x1="1.99098" y1="2.11122" x2="31.3434" y2="31.4637" gradientUnits="userSpaceOnUse">
<stop offset="0.28" stop-color="#007DFE"/>
<stop offset="0.73" stop-color="#00D980"/>
</linearGradient>
<linearGradient id="paint1_linear_4372_12082" x1="28.1894" y1="-0.35869" x2="0.969311" y2="12.2615" gradientUnits="userSpaceOnUse">
<stop offset="0.32" stop-color="#F0EB18"/>
<stop offset="0.55" stop-color="#007DFE"/>
</linearGradient>
<clipPath id="clip0_4372_12082">
<rect width="32" height="32" fill="white"/>
</clipPath>
</defs>
<path d="M8 23C8 21.8954 8.89543 21 10 21H30C31.1046 21 32 21.8954 32 23V30C32 31.1046 31.1046 32 30 32H10C8.89543 32 8 31.1046 8 30V23Z" fill="#FFC94D"/>
<path d="M32 30C32 31.1046 31.1046 32 30 32H10C8.89543 32 8 31.1046 8 30L8.01074 30.1641C8.11346 30.9706 8.96469 31.5996 10 31.5996H30C31.1046 31.5996 32 30.8837 32 30Z" fill="#7D7C7C"/>
<path d="M24 23H26.7459C27.1982 23 27.5944 23.09 27.9344 23.27C28.2744 23.45 28.537 23.705 28.7222 24.035C28.9074 24.365 29 24.745 29 25.175C29 25.6117 28.9059 25.9967 28.7177 26.33C28.5294 26.66 28.2623 26.9167 27.9162 27.1C27.5732 27.2833 27.1709 27.375 26.7095 27.375H25.275V30H24V23ZM26.6594 26.215C26.8658 26.215 27.0464 26.1733 27.2013 26.09C27.3561 26.0067 27.4745 25.8867 27.5565 25.73C27.6415 25.5733 27.684 25.39 27.684 25.18C27.684 24.9733 27.6415 24.7933 27.5565 24.64C27.4745 24.4867 27.3561 24.3683 27.2013 24.285C27.0464 24.2017 26.8658 24.16 26.6594 24.16H25.275V26.215H26.6594Z" fill="black"/>
<path d="M19.5519 23H21.086L23.7088 30H22.286L21.7189 28.39H18.9797L18.4531 30H17L19.5519 23ZM21.3493 27.31L20.4075 24.68L20.3012 24.235L20.2 24.68L19.319 27.31H21.3493Z" fill="black"/>
<path d="M11.5 23H16.6442V24.23H12.8823V25.885H16.2999V27.085H12.8823V28.77H16.7455V30H11.5V23Z" fill="black"/>
</svg>