<svg width="64" height="64" viewBox="0 0 64 64" fill="none" xmlns="http://www.w3.org/2000/svg">
<g clip-path="url(#clip0_4372_12084)">
<path d="M64 59.9275V25.9592C64 24.3301 63.0289 22.8575 61.5319 22.2157L24.0413 6.14767C23.5345 5.93065 22.9882 5.81836 22.4367 5.81836H4.07273C1.82342 5.81836 0 7.64178 0 9.89109V27.8571C0 28.6617 0.238545 29.4483 0.685382 30.118L22.0887 62.1866C22.8439 63.3189 24.1152 63.9984 25.4761 63.9984L59.9273 64.0002C62.1766 64.0002 64 62.1768 64 59.9275Z" fill="url(#paint0_linear_4372_12084)"/>
<path d="M58.1818 14.5193V4.07273C58.1818 1.82342 56.3584 0 54.1091 0H41.0164C40.8239 0 40.6313 0.0139636 40.4404 0.0407273L3.49673 5.3184C1.49062 5.60465 0 7.32334 0 9.34982V25.0228C0 27.2727 1.824 29.0961 4.07389 29.0956L22.6124 29.0909C23.0499 29.0909 23.4845 29.0205 23.8993 28.882L55.3972 18.3825C57.0601 17.8281 58.1818 16.2717 58.1818 14.5187V14.5193Z" fill="url(#paint1_linear_4372_12084)"/>
<path d="M58.1819 15.9476L58.1801 4.07215C58.1795 1.82342 56.3561 0 54.1074 0H42.6008C41.4121 0 40.2822 0.519564 39.5084 1.42196L6.7986 39.5834C6.16616 40.3217 5.81824 41.262 5.81824 42.2342V54.1097C5.81824 56.359 7.64166 58.1824 9.89096 58.1824H21.3993C22.588 58.1824 23.7179 57.6628 24.4917 56.7604L57.2015 18.599C57.8345 17.8607 58.1819 16.9204 58.1819 15.9476Z" fill="#F0EB18"/>
<path d="M52 12H12V52H52V12Z" fill="black"/>
<path d="M17.1001 16.965H22.8145C24.2366 16.965 25.5088 17.2866 26.6312 17.9299C27.7604 18.5732 28.6432 19.4709 29.2796 20.6105C29.9154 21.7495 30.2336 23.0361 30.2336 24.4702C30.2336 25.9044 29.9154 27.191 29.2796 28.3432C28.6432 29.4822 27.7604 30.3667 26.6312 31.01C25.5088 31.6533 24.2366 31.9749 22.8145 31.9749H17.1001V16.965ZM22.7823 29.4426C23.676 29.4426 24.4583 29.2415 25.1303 28.8395C25.8024 28.4506 26.3204 27.8745 26.6852 27.1238C27.0499 26.3731 27.232 25.4886 27.232 24.4702C27.232 23.4519 27.0499 22.5674 26.6852 21.8167C26.3204 21.066 25.8024 20.4899 25.1303 20.101C24.4583 19.699 23.6755 19.4979 22.7823 19.4979H20.0271V29.442H22.7823V29.4426ZM37.2604 32.23C36.1743 32.23 35.2094 32.0421 34.3656 31.6401C33.5293 31.2518 32.8717 30.7021 32.3927 29.9917C31.9211 29.2812 31.6781 28.4638 31.6638 27.5523H34.6017C34.6017 27.9814 34.716 28.3696 34.9446 28.6913C35.1732 29.0261 35.4914 29.2812 35.8986 29.4684C36.3058 29.6562 36.7745 29.7498 37.3029 29.7498C37.8313 29.7498 38.2535 29.6562 38.6326 29.4954C39.0186 29.3214 39.3155 29.0933 39.5223 28.7849C39.7365 28.4903 39.8439 28.1416 39.8439 27.7665C39.8439 27.2841 39.6975 26.882 39.4045 26.5736C39.1185 26.2519 38.7222 26.0377 38.2144 25.9171L35.566 25.3272C34.8515 25.1664 34.2295 24.8982 33.7005 24.5231C33.1715 24.1342 32.7608 23.6656 32.4673 23.1027C32.1744 22.5266 32.0279 21.8965 32.0279 21.186C32.0279 20.3285 32.2496 19.564 32.6925 18.8811C33.1359 18.1976 33.7539 17.6617 34.5471 17.2861C35.3403 16.8972 36.2409 16.71 37.2489 16.71C38.257 16.71 39.1823 16.8972 39.9829 17.2591C40.7836 17.6341 41.4056 18.1568 41.8485 18.8139C42.2988 19.4704 42.5274 20.2343 42.5348 21.0924H39.6079C39.6079 20.7305 39.5114 20.4089 39.3184 20.1142C39.1254 19.8196 38.8503 19.6048 38.493 19.444C38.1427 19.2831 37.7389 19.1895 37.2817 19.1895C36.8245 19.1895 36.4207 19.2699 36.0703 19.4307C35.7274 19.5784 35.4592 19.7926 35.2662 20.074C35.0732 20.3423 34.9767 20.6639 34.9767 21.0258C34.9767 21.441 35.1088 21.7897 35.3736 22.0579C35.6453 22.3261 36.0135 22.5272 36.4781 22.634L39.0301 23.1969C39.7664 23.3445 40.4206 23.6259 40.9921 24.0544C41.5711 24.4697 42.0214 24.9791 42.343 25.5954C42.6647 26.1985 42.8255 26.8688 42.8255 27.5925C42.8255 28.477 42.5894 29.2679 42.1179 29.9779C41.6532 30.6746 40.9996 31.2375 40.1558 31.6263C39.3126 32.0284 38.3477 32.2294 37.261 32.2294L37.2604 32.23Z" fill="white"/>
<path d="M33 44H17V47H33V44Z" fill="white"/>
</g>
<defs>
<linearGradient id="paint0_linear_4372_12084" x1="3.98196" y1="4.22243" x2="62.6868" y2="62.9273" gradientUnits="userSpaceOnUse">
<stop offset="0.28" stop-color="#007DFE"/>
<stop offset="0.73" stop-color="#00D980"/>
</linearGradient>
<linearGradient id="paint1_linear_4372_12084" x1="56.3788" y1="-0.717381" x2="1.93862" y2="24.5231" gradientUnits="userSpaceOnUse">
<stop offset="0.32" stop-color="#F0EB18"/>
<stop offset="0.55" stop-color="#007DFE"/>
</linearGradient>
<clipPath id="clip0_4372_12084">
<rect width="64" height="64" fill="white"/>
</clipPath>
</defs>
<path d="M16 46C16 43.7909 17.7909 42 20 42H60C62.2091 42 64 43.7909 64 46V60C64 62.2091 62.2091 64 60 64H20C17.7909 64 16 62.2091 16 60V46Z" fill="#FFC94D"/>
<path d="M64 60C64 62.2091 62.2091 64 60 64H20C17.7909 64 16 62.2091 16 60L16.0049 60.165C16.1122 61.8557 17.86 63.2002 20 63.2002H60C62.2091 63.2002 64 61.7673 64 60Z" fill="#7D7C7C"/>
<path d="M48 47H53.2339C54.0961 47 54.8513 47.1543 55.4993 47.4629C56.1474 47.7714 56.648 48.2086 57.001 48.7743C57.3539 49.34 57.5304 49.9914 57.5304 50.7286C57.5304 51.4771 57.351 52.1371 56.9923 52.7086C56.6335 53.2743 56.1243 53.7143 55.4646 54.0286C54.8108 54.3429 54.044 54.5 53.1645 54.5H50.4303V59H48V47ZM53.069 52.5114C53.4625 52.5114 53.8068 52.44 54.1019 52.2971C54.397 52.1543 54.6227 51.9486 54.7789 51.68C54.9409 51.4114 55.022 51.0971 55.022 50.7371C55.022 50.3829 54.9409 50.0743 54.7789 49.8114C54.6227 49.5486 54.397 49.3457 54.1019 49.2029C53.8068 49.06 53.4625 48.9886 53.069 48.9886H50.4303V52.5114H53.069Z" fill="black"/>
<path d="M39.0836 47H41.7136L46.2097 59H43.7707L42.7986 56.24H38.1028L37.2001 59H34.709L39.0836 47ZM42.1649 54.3886L40.5505 49.88L40.3682 49.1171L40.1946 49.88L38.6843 54.3886H42.1649Z" fill="black"/>
<path d="M24 47H32.8187V49.1086H26.3696V51.9457H32.2284V54.0029H26.3696V56.8914H32.9923V59H24V47Z" fill="black"/>
</svg>