<svg width="16" height="16" viewBox="0 0 16 16" fill="none" xmlns="http://www.w3.org/2000/svg">
<g clip-path="url(#clip0_4372_11284)">
<path d="M16 0H0V16H16V0Z" fill="#21D789"/>
<path d="M15 1H1V15H15V1Z" fill="black"/>
<path d="M8 12H3V13H8V12Z" fill="white"/>
<path d="M3 2.99951H5.2438C5.6096 2.99951 5.932 3.06671 6.2108 3.20111C6.4896 3.33551 6.7036 3.52451 6.853 3.76851C7.0048 4.01251 7.0808 4.29491 7.0808 4.61591C7.0808 4.93691 7.0036 5.22811 6.8494 5.47451C6.6976 5.72091 6.4798 5.91271 6.196 6.04951C5.9148 6.18391 5.5874 6.25111 5.2142 6.25111H4.0196V8.22611H3.0004L3 2.99951ZM5.1764 5.40391C5.3482 5.40391 5.4974 5.37271 5.6244 5.31051C5.7538 5.24571 5.8534 5.15511 5.923 5.03791C5.9926 4.91851 6.0276 4.78031 6.0276 4.62351C6.0276 4.46671 5.9928 4.32711 5.923 4.21291C5.8532 4.09571 5.7538 4.00611 5.6244 3.94411C5.4974 3.87931 5.3482 3.84711 5.1764 3.84711H4.019V5.40391H5.1764Z" fill="white"/>
<path d="M9.303 7.96496C9.7088 8.19876 10.1618 8.31596 10.662 8.31596C11.085 8.31596 11.4734 8.23716 11.8268 8.08036C12.1802 7.92356 12.4738 7.70476 12.7078 7.42336C12.9442 7.13956 13.1024 6.81476 13.182 6.44896H12.1142C12.0444 6.63796 11.94 6.80496 11.8006 6.94916C11.6636 7.09116 11.498 7.20076 11.304 7.27776C11.11 7.35476 10.8984 7.39356 10.6694 7.39356C10.3608 7.39356 10.082 7.31656 9.8332 7.16216C9.5842 7.00776 9.3888 6.79636 9.247 6.52756C9.1076 6.25656 9.038 5.95136 9.038 5.61296C9.038 5.27456 9.1076 4.97076 9.247 4.70196C9.389 4.43076 9.5842 4.21796 9.8332 4.06356C10.082 3.90916 10.3608 3.83216 10.6694 3.83216C10.8982 3.83216 11.1098 3.87096 11.304 3.94796C11.4982 4.02496 11.6636 4.13596 11.8006 4.28016C11.94 4.42216 12.0444 4.58776 12.1142 4.77676H13.182C13.1022 4.41096 12.9442 4.08756 12.7078 3.80616C12.4738 3.52236 12.1802 3.30216 11.8268 3.14536C11.4734 2.98856 11.085 2.91016 10.662 2.91016C10.1616 2.91016 9.7086 3.02816 9.303 3.26476C8.8972 3.49856 8.5786 3.82236 8.3472 4.23536C8.1158 4.64596 8 5.10516 8 5.61296C8 6.12076 8.1158 6.58136 8.3472 6.99436C8.5788 7.40496 8.8972 7.72836 9.303 7.96496Z" fill="white"/>
</g>
<defs>
<clipPath id="clip0_4372_11284">
<rect width="16" height="16" fill="white"/>
</clipPath>
</defs>
<path d="M3 11C3 10.4477 3.44772 10 4 10H15C15.5523 10 16 10.4477 16 11V16H4C3.44772 16 3 15.5523 3 15V11Z" fill="#FFC94D"/>
<path d="M11.4287 11H12.8409C13.0736 11 13.2773 11.0514 13.4522 11.1543C13.6271 11.2571 13.7621 11.4029 13.8574 11.5914C13.9526 11.78 14.0002 11.9971 14.0002 12.2429C14.0002 12.4924 13.9518 12.7124 13.855 12.9029C13.7582 13.0914 13.6208 13.2381 13.4428 13.3429C13.2664 13.4476 13.0595 13.5 12.8222 13.5H12.0845V15H11.4287V11ZM12.7964 12.8371C12.9026 12.8371 12.9955 12.8133 13.0751 12.7657C13.1548 12.7181 13.2156 12.6495 13.2578 12.56C13.3015 12.4705 13.3234 12.3657 13.3234 12.2457C13.3234 12.1276 13.3015 12.0248 13.2578 11.9371C13.2156 11.8495 13.1548 11.7819 13.0751 11.7343C12.9955 11.6867 12.9026 11.6629 12.7964 11.6629H12.0845V12.8371H12.7964Z" fill="black"/>
<path d="M9.03948 11H9.92155L11.4295 15H10.6115L10.2854 14.08H8.71052L8.40776 15H7.57227L9.03948 11ZM10.0729 13.4629L9.53146 11.96L9.47032 11.7057L9.4121 11.96L8.90556 13.4629H10.0729Z" fill="black"/>
<path d="M5 11H7.94208V11.7029H5.79054V12.6486H7.74517V13.3343H5.79054V14.2971H8V15H5V11Z" fill="black"/>
</svg>