<!-- Copyright © 2000–2024 JetBrains s.r.o. -->
<svg width="16" height="16" viewBox="0 0 16 16" xmlns="http://www.w3.org/2000/svg">
  <path fill="#DD1265" d="M1 16V0h10.41L15 3.59V16z"/>
  <path d="M11 1H2v14h12V4z"/>
  <path fill="#fff" d="m11.59 7.27-.7.98c.06.24.1.49.1.74 0 1.65-1.35 3-3 3s-3-1.35-3-3 1.35-3 3-3c.26 0 .5.04.74.1l.98-.7c-.52-.25-1.11-.41-1.73-.41-2.21 0-4 1.79-4 4s1.79 4 4 4 4-1.79 4-4c0-.62-.15-1.2-.41-1.73z"/>
  <path fill="#fff" d="M10.43 6.14 7.42 8.28s-.08.06-.12.1c-.37.37-.37.96 0 1.33a.936.936 0 0 0 1.43-.12l2.14-3.01c.09-.12.08-.29-.04-.4a.32.32 0 0 0-.4-.04M9 4H7c-.28 0-.5-.22-.5-.5S6.72 3 7 3h2c.28 0 .5.22.5.5S9.28 4 9 4"/>
</svg>
