<!-- Copyright © 2000–2024 JetBrains s.r.o. -->
<svg width="512" height="512" viewBox="0 0 512 512" xmlns="http://www.w3.org/2000/svg">
  <path fill="#6B57FF" d="M131.6 48H33.52C15.12 48 .24 63.12.56 81.52l1.36 88.32c.16 9.44 4.4 18.4 11.52 24.56l305.28 261.68c6 5.12 13.6 7.92 21.52 7.92h90.8c18.16 0 32.96-14.8 32.96-32.96v-88.08c0-9.52-4.08-18.56-11.28-24.8l-299.36-262C147.28 50.88 139.6 48 131.6 48"/>
  <path fill="url(#a)" d="M119.92 48H32.96C14.8 48 0 62.8 0 80.96v100.56c0 1.6 0 3.2.32 4.8l43.6 297.44C46.32 500 60.24 512 76.56 512h123.2c18.24 0 33.04-14.8 33.04-33.04v-148c-.08-3.44-.64-6.8-1.6-10l-79.84-250C146.96 57.28 134.24 48 119.92 48"/>
  <path fill="url(#b)" d="M479.041 0h-273.04c-13.28 0-25.28 7.92-30.4 20.16l-126.4 299.36a32.25 32.25 0 0 0-2.56 13.12l1.2 146.64C47.92 497.36 62.72 512 80.8 512h141.36c6.4 0 12.72-1.92 18.08-5.44l256.88-168.88C506.4 331.6 512 321.2 512 310.16V32.96C512 14.8 497.2 0 479.04 0"/>
  <path d="M416.002 464V144l-96-96h-224v416z"/>
  <path fill="#fff" d="M280.002 144h-48c-8.8 0-16-7.2-16-16s7.2-16 16-16h48c8.8 0 16 7.2 16 16s-7.2 16-16 16m67.6 63.68c-.56 3.6-1.84 7.2-4.08 10.32l-9.52 13.36c6.4 12.16 10 26 10 40.64 0 48.56-39.44 88-88 88s-88-39.44-88-88 39.44-88 88-88c14.64 0 28.48 3.68 40.64 10l13.36-9.52c3.12-2.16 6.64-3.6 10.32-4.16-18.24-12.8-40.32-20.4-64.24-20.4-61.84 0-112 50.16-112 112s50.16 112 112 112 112-50.16 112-112c0-24-7.6-46.16-20.4-64.32z"/>
  <path fill="#fff" d="m319.283 197.52-77.12 54.88c-1.04.72-2.08 1.68-3.04 2.64-9.36 9.36-9.36 24.56 0 33.92s24.56 9.36 33.92 0c.96-.96 1.84-2 2.64-3.04l54.88-77.12c2.24-3.12 1.92-7.44-.88-10.32s-7.2-3.12-10.32-.88z"/>
  <defs>
    <linearGradient id="a" x1="-3.12" x2="195.12" y1="61.36" y2="489.04" gradientUnits="userSpaceOnUse">
      <stop offset=".18" stop-color="#6B57FF"/>
      <stop offset=".54" stop-color="#FF2358"/>
    </linearGradient>
    <linearGradient id="b" x1="34.561" x2="503.361" y1="479.44" y2="10.72" gradientUnits="userSpaceOnUse">
      <stop offset=".12" stop-color="#FF2358"/>
      <stop offset=".92" stop-color="#FF45ED"/>
    </linearGradient>
  </defs>
</svg>
