<!-- Copyright © 2000–2024 JetBrains s.r.o. -->
<svg width="512" height="512" viewBox="0 0 512 512" xmlns="http://www.w3.org/2000/svg">
  <path fill="url(#a)" d="M32.96 512H306c13.28 0 25.28-7.92 30.4-20.16l126.4-299.36c1.76-4.16 2.64-8.64 2.56-13.12l-1.2-146.64C464.08 14.64 449.28 0 431.2 0H289.84c-6.4 0-12.72 1.92-18.08 5.44L14.88 174.32A32.88 32.88 0 0 0 0 201.84v277.2C0 497.2 14.8 512 32.96 512"/>
  <path fill="url(#b)" d="M392.08 464h86.88c18.24 0 33.04-14.8 33.04-32.96V330.48c0-1.6 0-3.2-.32-4.8l-43.6-297.44C465.68 12 451.76 0 435.44 0h-123.2C294 0 279.2 14.8 279.2 33.04v148c0 3.44.56 6.8 1.6 10l79.84 250c4.4 13.68 17.12 22.96 31.44 22.96"/>
  <path fill="#FDB60D" d="M380.4 464h98.08c18.4 0 33.28-15.12 32.96-33.52L512 344c-.16-9.44-6.32-20.24-13.44-26.4L193.28 55.92c-6-5.12-13.6-7.92-21.52-7.92h-90.8C62.8 48 48 62.8 48 80.96v88.08c0 9.52 4.08 18.56 11.28 24.8l299.36 262c6.08 5.28 13.76 8.16 21.76 8.16"/>
  <path d="M416 464V144l-96-96H96v416z"/>
  <path fill="#fff" d="M346.4 288c-13.2 37.2-48.72 64-90.4 64-52.96 0-96-43.04-96-96 0-41.68 26.8-77.2 64-90.4v-16.88c-46.24 13.76-80 56.56-80 107.28 0 61.84 50.16 112 112 112 50.72 0 93.52-33.76 107.28-80z"/>
  <path fill="#fff" d="M256 128v128h128c0-70.72-57.28-128-128-128"/>
  <defs>
    <linearGradient id="a" x1="477.44" x2="8.64" y1="32.56" y2="501.28" gradientUnits="userSpaceOnUse">
      <stop offset=".31" stop-color="#FF45ED"/>
      <stop offset=".83" stop-color="#6B57FF"/>
    </linearGradient>
    <linearGradient id="b" x1="515.12" x2="316.88" y1="450.64" y2="22.96" gradientUnits="userSpaceOnUse">
      <stop offset=".3" stop-color="#FDB60D"/>
      <stop offset=".7" stop-color="#FF45ED"/>
    </linearGradient>
  </defs>
</svg>
