<svg width="32" height="32" viewBox="0 0 32 32" fill="none" xmlns="http://www.w3.org/2000/svg" data-scaled="true">
<g clip-path="url(#clip0_4372_12351)">
<path d="M29.091 7.97382L29.0901 2.03607C29.0898 0.911709 28.1781 0 27.0538 0H21.3005C20.7061 0 20.1412 0.259782 19.7543 0.710982L3.39936 19.7917C3.08314 20.1609 2.90918 20.631 2.90918 21.1171V27.0548C2.90918 28.1795 3.82089 29.0912 4.94554 29.0912H10.6997C11.2941 29.0912 11.859 28.8314 12.2459 28.3802L28.6005 9.29949C28.917 8.93033 29.0907 8.46022 29.0907 7.97382H29.091Z" fill="#D249FC"/>
<path d="M29.0909 7.25964V2.03636C29.0909 0.911709 28.1792 0 27.0545 0H20.5082C20.4119 0 20.3156 0.00698182 20.2202 0.0203636L1.74836 2.6592C0.745309 2.80233 0 3.66167 0 4.67491V12.5114C0 13.6364 0.912 14.5481 2.03695 14.5478L11.3062 14.5455C11.5249 14.5455 11.7423 14.5103 11.9497 14.441L27.6986 9.19127C28.53 8.91404 29.0909 8.13585 29.0909 7.25935V7.25964Z" fill="url(#paint0_linear_4372_12351)"/>
<path d="M32 29.9637V12.9796C32 12.165 31.5145 11.4287 30.766 11.1079L12.0207 3.07383C11.7673 2.96533 11.4941 2.90918 11.2183 2.90918H2.03636C0.911709 2.90918 0 3.82089 0 4.94554V13.9285C0 14.3309 0.119273 14.7242 0.342691 15.059L11.0444 31.0933C11.422 31.6594 12.0576 31.9992 12.738 31.9992L29.9636 32.0001C31.0883 32.0001 32 31.0884 32 29.9637Z" fill="url(#paint1_linear_4372_12351)"/>
<path d="M26 6H6V26H26V6Z" fill="black"/>
<path d="M8.9502 9.02157H12.21C12.7414 9.02157 13.2098 9.1192 13.6148 9.31445C14.0198 9.50971 14.3307 9.78428 14.5478 10.1388C14.7683 10.4932 14.8787 10.9035 14.8787 11.3699C14.8787 11.8362 14.7666 12.2592 14.5425 12.6172C14.322 12.9752 14.0056 13.2538 13.5933 13.4526C13.1848 13.6478 12.7091 13.7454 12.1669 13.7454H10.4315V16.6147H8.95078V9.02157H8.9502ZM12.112 12.5146C12.3616 12.5146 12.5784 12.4693 12.7629 12.379C12.9509 12.2848 13.0956 12.1532 13.1967 11.9829C13.2978 11.8095 13.3486 11.6087 13.3486 11.3809C13.3486 11.1531 13.2981 10.9503 13.1967 10.7844C13.0953 10.6141 12.9509 10.4839 12.7629 10.3939C12.5784 10.2997 12.3616 10.253 12.112 10.253H10.4306V12.5146H12.112ZM18.293 16.7452C17.736 16.7452 17.2354 16.6455 16.7906 16.4468C16.3457 16.248 15.9968 15.9694 15.7437 15.6114C15.4906 15.2499 15.3605 14.8379 15.3532 14.3748H16.8394C16.8394 14.5918 16.9027 14.7851 17.0291 14.955C17.1593 15.1212 17.3345 15.2514 17.5553 15.3455C17.7793 15.4397 18.0327 15.4865 18.3145 15.4865C18.5822 15.4865 18.8207 15.4452 19.0305 15.3618C19.2437 15.2749 19.4102 15.1558 19.5294 15.0038C19.6488 14.8519 19.7083 14.6784 19.7083 14.4832C19.7083 14.2411 19.6343 14.0383 19.4861 13.8756C19.3414 13.7094 19.1406 13.601 18.884 13.5502L17.3275 13.2518C16.9623 13.1832 16.6441 13.053 16.373 12.8613C16.1054 12.666 15.8994 12.424 15.7547 12.1346C15.61 11.8417 15.5377 11.5163 15.5377 11.1583C15.5377 10.717 15.6551 10.325 15.8901 9.98128C16.1287 9.63755 16.4559 9.37053 16.8719 9.17847C17.2912 8.98671 17.7631 8.89111 18.2875 8.89111C18.812 8.89111 19.2891 8.98525 19.7086 9.17324C20.1317 9.36094 20.4626 9.62332 20.7012 9.95978C20.9435 10.2928 21.0664 10.6757 21.0699 11.1095H19.5892C19.5892 10.9218 19.5331 10.755 19.421 10.6106C19.3126 10.4662 19.1606 10.3538 18.9654 10.2745C18.7701 10.1911 18.5496 10.1498 18.3038 10.1498C18.058 10.1498 17.8427 10.1899 17.6474 10.2692C17.4522 10.3485 17.3002 10.459 17.1918 10.6002C17.0835 10.7379 17.0291 10.8965 17.0291 11.0776C17.0291 11.287 17.096 11.4646 17.2299 11.609C17.3636 11.7499 17.5498 11.8443 17.7886 11.8911L19.2963 12.1732C19.6761 12.2418 20.0105 12.3813 20.2996 12.5908C20.5925 12.8003 20.8186 13.0626 20.9775 13.3773C21.1364 13.6885 21.216 14.0282 21.216 14.3969C21.216 14.8525 21.0914 15.2592 20.8418 15.6172C20.5922 15.9717 20.2453 16.2483 19.8005 16.447C19.3556 16.6458 18.853 16.7454 18.2928 16.7454L18.293 16.7452Z" fill="white"/>
<path d="M16 22H9V23H16V22Z" fill="white"/>
</g>
<defs>
<linearGradient id="paint0_linear_4372_12351" x1="28.1894" y1="-0.35869" x2="1.37629" y2="12.073" gradientUnits="userSpaceOnUse">
<stop offset="0.16" stop-color="#D249FC"/>
<stop offset="0.55" stop-color="#FF2D90"/>
</linearGradient>
<linearGradient id="paint1_linear_4372_12351" x1="1.99098" y1="2.11122" x2="31.3434" y2="31.4639" gradientUnits="userSpaceOnUse">
<stop offset="0.3" stop-color="#FF2D90"/>
<stop offset="0.7" stop-color="#7256FF"/>
</linearGradient>
<clipPath id="clip0_4372_12351">
<rect width="32" height="32" fill="white"/>
</clipPath>
</defs>
<path d="M17 19C17 17.8954 17.8954 17 19 17H30C31.1046 17 32 17.8954 32 19V30C32 31.1046 31.1046 32 30 32H19C17.8954 32 17 31.1046 17 30V19Z" fill="white"/>
<path d="M30 17C31.1046 17 32 17.8954 32 19V30C32 31.1046 31.1046 32 30 32H19C17.8954 32 17 31.1046 17 30V19C17 17.8954 17.8954 17 19 17H30ZM18.8057 17.1094C17.8476 17.2067 17.0996 18.0163 17.0996 19V30C17.0996 30.718 17.9507 31.2998 19 31.2998H30C30.8837 31.2998 31.5996 30.718 31.5996 30V19C31.5996 18.0164 30.9707 17.2069 30.1641 17.1094L30 17.0996H19L18.8057 17.1094Z" fill="#7D7C7C"/>
<path d="M29.0002 28.0011H27.4658C27.4658 23.8852 24.1223 20.5367 20.0127 20.5367V19C24.9684 19 29.0002 23.0379 29.0002 28.0011Z" fill="#1A1A1A"/>
<path d="M26.3941 27.9999H24.8527C24.8527 25.3201 22.6758 23.1399 20 23.1399V21.5962C23.5257 21.5962 26.3941 24.4689 26.3941 27.9999Z" fill="#1A1A1A"/>
<path d="M23.8024 28.0005H22.2435C22.2435 26.7616 21.2371 25.7536 20 25.7536V24.1924C22.0967 24.1924 23.8024 25.9007 23.8024 28.0005Z" fill="#1A1A1A"/>
</svg>