<svg width="32" height="32" viewBox="0 0 32 32" fill="none" xmlns="http://www.w3.org/2000/svg" data-scaled="true">
<g clip-path="url(#clip0_4372_12622)">
<path d="M24.0261 29.091L29.9638 29.0901C31.0885 29.0901 31.9999 28.1784 31.9999 27.0538V21.3005C31.9999 20.7061 31.7401 20.1412 31.2889 19.7543L12.2082 3.39936C11.839 3.08314 11.3689 2.90918 10.8828 2.90918H4.94506C3.8204 2.90918 2.90869 3.82089 2.90869 4.94554V10.6997C2.90869 11.2941 3.16847 11.859 3.61967 12.2459L22.7001 28.6005C23.0693 28.917 23.5394 29.0907 24.0258 29.0907L24.0261 29.091Z" fill="#007DFE"/>
<path d="M24.7406 29.0909H29.9639C31.0885 29.0909 32.0002 28.1792 32.0002 27.0545V20.5082C32.0002 20.4119 31.9932 20.3156 31.9799 20.2202L29.341 1.74836C29.1976 0.745018 28.3385 0 27.325 0H19.4885C18.3636 0 17.4519 0.912 17.4521 2.03695L17.4545 11.3062C17.4545 11.5249 17.4897 11.7423 17.5589 11.9497L22.8087 27.6986C23.0859 28.53 23.8641 29.0909 24.7406 29.0909Z" fill="url(#paint0_linear_4372_12622)"/>
<path d="M2.03636 32H19.0205C19.8351 32 20.5713 31.5145 20.8922 30.766L28.9263 12.0207C29.0348 11.7673 29.0909 11.4941 29.0909 11.2183V2.03636C29.0909 0.911709 28.1792 0 27.0545 0H18.0716C17.6692 0 17.2759 0.119273 16.9411 0.342691L0.906764 11.0441C0.340655 11.422 0.000872727 12.0573 0.000872727 12.7377L0 29.9636C0 31.0883 0.911709 32 2.03636 32Z" fill="url(#paint1_linear_4372_12622)"/>
<path d="M26 6H6V26H26V6Z" fill="black"/>
<path d="M16 22H9V23H16V22Z" fill="white"/>
<path d="M10.4324 13.7299H11.7114L13.3475 16.6002H15.0467L13.2373 13.556C13.358 13.5176 13.4862 13.4897 13.5973 13.4382C14.01 13.2347 14.3267 12.9564 14.5474 12.5969C14.7716 12.2372 14.8838 11.8234 14.8838 11.3482C14.8838 10.873 14.7733 10.4729 14.5526 10.1201C14.3354 9.76735 14.0242 9.48905 13.6188 9.29246C13.2134 9.09558 12.7447 9.00049 12.2128 9.00049H8.9502V16.6002H10.4322V13.7299H10.4324ZM10.4324 10.2353H12.1154C12.3652 10.2353 12.5821 10.283 12.7668 10.3711C12.9549 10.4662 13.0997 10.595 13.2009 10.7648C13.3021 10.9344 13.353 11.1312 13.353 11.3619C13.353 11.5925 13.3024 11.7893 13.2009 11.9659C13.0994 12.1354 12.9549 12.2645 12.7668 12.3593C12.5821 12.4541 12.3652 12.4951 12.1154 12.4951H10.4324V10.2356V10.2353Z" fill="white"/>
<path d="M22.3028 10.8458C21.9806 10.2691 21.5336 9.81426 20.9619 9.48856C20.3937 9.16285 19.7495 9 19.0295 9H16.1362V16.5997H19.0295C19.7495 16.5997 20.3937 16.4368 20.9619 16.1111C21.5336 15.7854 21.9806 15.3376 22.3028 14.7609C22.6247 14.1773 22.7858 13.5258 22.7858 12.8C22.7858 12.0741 22.6247 11.4224 22.3028 10.8458ZM20.9892 14.1435C20.8046 14.5236 20.5423 14.815 20.202 15.0119C19.8618 15.2157 19.4654 15.3172 19.0132 15.3172H17.6182V10.2825H19.0132C19.4654 10.2825 19.8618 10.3842 20.202 10.5875C20.5423 10.7844 20.8046 11.0764 20.9892 11.4562C21.1739 11.8363 21.2661 12.2838 21.2661 12.7997C21.2661 13.3156 21.1739 13.7631 20.9892 14.1432V14.1435Z" fill="white"/>
</g>
<defs>
<linearGradient id="paint0_linear_4372_12622" x1="32.3589" y1="28.1891" x2="19.9275" y2="1.37629" gradientUnits="userSpaceOnUse">
<stop offset="0.21" stop-color="#007DFE"/>
<stop offset="0.55" stop-color="#FFB700"/>
</linearGradient>
<linearGradient id="paint1_linear_4372_12622" x1="29.8889" y1="1.99069" x2="0.536437" y2="31.3434" gradientUnits="userSpaceOnUse">
<stop offset="0.23" stop-color="#FFB700"/>
<stop offset="0.73" stop-color="#FF0A67"/>
</linearGradient>
<clipPath id="clip0_4372_12622">
<rect width="32" height="32" fill="white"/>
</clipPath>
</defs>
<path d="M8 23C8 21.8954 8.89543 21 10 21H30C31.1046 21 32 21.8954 32 23V30C32 31.1046 31.1046 32 30 32H10C8.89543 32 8 31.1046 8 30V23Z" fill="#FFC94D"/>
<path d="M32 30C32 31.1046 31.1046 32 30 32H10C8.89543 32 8 31.1046 8 30L8.01074 30.1641C8.11346 30.9706 8.96469 31.5996 10 31.5996H30C31.1046 31.5996 32 30.8837 32 30Z" fill="#7D7C7C"/>
<path d="M24 23H26.7459C27.1982 23 27.5944 23.09 27.9344 23.27C28.2744 23.45 28.537 23.705 28.7222 24.035C28.9074 24.365 29 24.745 29 25.175C29 25.6117 28.9059 25.9967 28.7177 26.33C28.5294 26.66 28.2623 26.9167 27.9162 27.1C27.5732 27.2833 27.1709 27.375 26.7095 27.375H25.275V30H24V23ZM26.6594 26.215C26.8658 26.215 27.0464 26.1733 27.2013 26.09C27.3561 26.0067 27.4745 25.8867 27.5565 25.73C27.6415 25.5733 27.684 25.39 27.684 25.18C27.684 24.9733 27.6415 24.7933 27.5565 24.64C27.4745 24.4867 27.3561 24.3683 27.2013 24.285C27.0464 24.2017 26.8658 24.16 26.6594 24.16H25.275V26.215H26.6594Z" fill="black"/>
<path d="M19.5519 23H21.086L23.7088 30H22.286L21.7189 28.39H18.9797L18.4531 30H17L19.5519 23ZM21.3493 27.31L20.4075 24.68L20.3012 24.235L20.2 24.68L19.319 27.31H21.3493Z" fill="black"/>
<path d="M11.5 23H16.6442V24.23H12.8823V25.885H16.2999V27.085H12.8823V28.77H16.7455V30H11.5V23Z" fill="black"/>
</svg>