<svg width="64" height="64" viewBox="0 0 64 64" fill="none" xmlns="http://www.w3.org/2000/svg">
<g clip-path="url(#clip0_4372_12624)">
<path d="M48.0521 58.182L59.9276 58.1802C62.1769 58.1802 63.9998 56.3568 63.9998 54.1075V42.6009C63.9998 41.4123 63.4802 40.2824 62.5778 39.5085L24.4164 6.79872C23.678 6.16629 22.7378 5.81836 21.7656 5.81836H9.89011C7.6408 5.81836 5.81738 7.64178 5.81738 9.89109V21.3994C5.81738 22.5881 6.33695 23.718 7.23935 24.4918L45.4002 57.201C46.1385 57.8341 47.0788 58.1814 48.0516 58.1814L48.0521 58.182Z" fill="#007DFE"/>
<path d="M49.4807 58.1818H59.9272C62.1765 58.1818 64 56.3584 64 54.1091V41.0164C64 40.8239 63.986 40.6313 63.9592 40.4404L58.6816 3.49673C58.3947 1.49004 56.6766 0 54.6496 0H38.9765C36.7266 0 34.9032 1.824 34.9038 4.07389L34.9085 22.6124C34.9085 23.0499 34.9789 23.4845 35.1173 23.8993L45.6168 55.3972C46.1713 57.0601 47.7277 58.1818 49.4807 58.1818Z" fill="url(#paint0_linear_4372_12624)"/>
<path d="M4.07273 64H38.041C39.6701 64 41.1427 63.0289 41.7844 61.5319L57.8525 24.0413C58.0695 23.5345 58.1818 22.9882 58.1818 22.4367V4.07273C58.1818 1.82342 56.3584 0 54.1091 0H36.1431C35.3385 0 34.5519 0.238545 33.8822 0.685382L1.81353 22.0881C0.681309 22.8439 0.00174545 24.1146 0.00174545 25.4755L0 59.9273C0 62.1766 1.82342 64 4.07273 64Z" fill="url(#paint1_linear_4372_12624)"/>
<path d="M52 12H12V52H52V12Z" fill="black"/>
<path d="M20.0256 26.3349H22.5499L25.779 31.9999H29.1327L25.5615 25.9916C25.7997 25.9159 26.0528 25.8608 26.2721 25.7592C27.0865 25.3574 27.7116 24.8081 28.1472 24.0987C28.5897 23.3887 28.8113 22.572 28.8113 21.6341C28.8113 20.6962 28.5932 19.9065 28.1575 19.2103C27.7288 18.514 27.1146 17.9647 26.3145 17.5767C25.5144 17.1882 24.5892 17.0005 23.5394 17.0005H17.1001V31.9999H20.025V26.3349H20.0256ZM20.0256 19.4375H23.3471C23.8402 19.4375 24.2683 19.5317 24.6328 19.7056C25.0042 19.8933 25.29 20.1475 25.4897 20.4827C25.6895 20.8174 25.7899 21.2059 25.7899 21.6611C25.7899 22.1162 25.6901 22.5048 25.4897 22.8532C25.2894 23.1878 25.0042 23.4427 24.6328 23.6298C24.2683 23.8169 23.8402 23.8978 23.3471 23.8978H20.0256V19.4381V19.4375Z" fill="white"/>
<path d="M43.4541 20.643C42.8182 19.5048 41.936 18.6071 40.8076 17.9643C39.686 17.3214 38.4147 17 36.9936 17H31.2832V31.9994H36.9936C38.4147 31.9994 39.686 31.678 40.8076 31.0352C41.936 30.3923 42.8182 29.5084 43.4541 28.3702C44.0895 27.2183 44.4075 25.9326 44.4075 24.5C44.4075 23.0674 44.0895 21.7811 43.4541 20.643ZM40.8615 27.1517C40.4971 27.9019 39.9793 28.477 39.3078 28.8656C38.6363 29.2679 37.854 29.4682 36.9614 29.4682H34.2081V19.5312H36.9614C37.854 19.5312 38.6363 19.7321 39.3078 20.1333C39.9793 20.5218 40.4971 21.0981 40.8615 21.8477C41.226 22.5979 41.4079 23.4812 41.4079 24.4994C41.4079 25.5176 41.226 26.4015 40.8615 27.1517Z" fill="white"/>
<path d="M33 44H17V47H33V44Z" fill="white"/>
</g>
<defs>
<linearGradient id="paint0_linear_4372_12624" x1="64.7173" y1="56.3782" x2="39.8545" y2="2.75258" gradientUnits="userSpaceOnUse">
<stop offset="0.21" stop-color="#007DFE"/>
<stop offset="0.55" stop-color="#FFB700"/>
</linearGradient>
<linearGradient id="paint1_linear_4372_12624" x1="59.7777" y1="3.98138" x2="1.07287" y2="62.6868" gradientUnits="userSpaceOnUse">
<stop offset="0.23" stop-color="#FFB700"/>
<stop offset="0.73" stop-color="#FF0A67"/>
</linearGradient>
<clipPath id="clip0_4372_12624">
<rect width="64" height="64" fill="white"/>
</clipPath>
</defs>
<path d="M8 46C8 43.7909 9.79086 42 12 42H60C62.2091 42 64 43.7909 64 46V60C64 62.2091 62.2091 64 60 64H12C9.79086 64 8 62.2091 8 60V46Z" fill="#FFC94D"/>
<path d="M64 60C64 62.2091 62.2091 64 60 64H12C9.79086 64 8 62.2091 8 60L8.00488 60.165C8.11223 61.8557 9.86004 63.2002 12 63.2002H60C62.2091 63.2002 64 61.7673 64 60Z" fill="#7D7C7C"/>
<path d="M33 48H36.8443C37.4775 48 38.0322 48.1286 38.5082 48.3857C38.9842 48.6429 39.3519 49.0071 39.6111 49.4786C39.8704 49.95 40 50.4929 40 51.1071C40 51.731 39.8682 52.281 39.6047 52.7571C39.3412 53.2286 38.9672 53.5952 38.4827 53.8571C38.0024 54.119 37.4393 54.25 36.7933 54.25H34.7851V58H33V48ZM36.7231 52.5929C37.0121 52.5929 37.265 52.5333 37.4818 52.4143C37.6985 52.2952 37.8643 52.1238 37.9791 51.9C38.0981 51.6762 38.1576 51.4143 38.1576 51.1143C38.1576 50.819 38.0981 50.5619 37.9791 50.3429C37.8643 50.1238 37.6985 49.9548 37.4818 49.8357C37.265 49.7167 37.0121 49.6571 36.7231 49.6571H34.7851V52.5929H36.7231Z" fill="black"/>
<path d="M26.1455 48H28.3372L32.0839 58H30.0514L29.2413 55.7H25.3282L24.5759 58H22.5L26.1455 48ZM28.7133 54.1571L27.3679 50.4L27.216 49.7643L27.0714 50.4L25.8128 54.1571H28.7133Z" fill="black"/>
<path d="M14 48H20.8649V49.7571H15.8446V52.1214H20.4054V53.8357H15.8446V56.2429H21V58H14V48Z" fill="black"/>
<path d="M43 42H60C62.2091 42 64 43.7909 64 46V60C64 62.2091 62.2091 64 60 64H43V42Z" fill="white"/>
<path d="M60 42C62.2091 42 64 43.7909 64 46V60C64 62.2091 62.2091 64 60 64H43V63.2002H60C61.712 63.2002 63.1104 61.8557 63.1963 60.165L63.2002 60V46C63.2002 43.7909 61.7673 42 60 42Z" fill="#7D7C7C"/>
<path d="M60.0002 59H57.614C57.614 52.5983 52.4145 47.3902 46.0234 47.3902V45C53.7302 45 60.0002 51.2804 60.0002 59Z" fill="#1A1A1A"/>
<path d="M55.945 59.0001H53.5476C53.5476 54.8314 50.1617 51.44 46 51.44V49.0386C51.4837 49.0386 55.945 53.5073 55.945 59.0001Z" fill="#1A1A1A"/>
<path d="M51.9132 58.9992H49.4889C49.4889 57.0722 47.9238 55.5045 46 55.5045V53.0762C49.2606 53.0762 51.9132 55.7333 51.9132 58.9992Z" fill="#1A1A1A"/>
</svg>