<svg width="20" height="20" viewBox="0 0 20 20" fill="none" xmlns="http://www.w3.org/2000/svg">
<path d="M1.75 14C2.16421 14 2.5 14.3358 2.5 14.75V17.25C2.5 17.6642 2.16421 18 1.75 18C1.33579 18 1 17.6642 1 17.25V14.75C1 14.3358 1.33579 14 1.75 14ZM14.25 1C14.6642 1 15 1.33579 15 1.75V4H17C18.1046 4 19 4.89543 19 6V14L18.9893 14.2041C18.8938 15.1457 18.1457 15.8938 17.2041 15.9893L17 16H7L6.7959 15.9893C5.85435 15.8938 5.1062 15.1457 5.01074 14.2041L5 14V6C5 4.89543 5.89543 4 7 4H9V1.75C9 1.33579 9.33579 1 9.75 1C10.1642 1 10.5 1.33579 10.5 1.75V4H13.5V1.75C13.5 1.33579 13.8358 1 14.25 1ZM7 5.5C6.72386 5.5 6.5 5.72386 6.5 6V14C6.5 14.2761 6.72386 14.5 7 14.5H17C17.2761 14.5 17.5 14.2761 17.5 14V6C17.5 5.72386 17.2761 5.5 17 5.5H7ZM1.75 8C2.16421 8 2.5 8.33579 2.5 8.75V11.25C2.5 11.6642 2.16421 12 1.75 12C1.33579 12 1 11.6642 1 11.25V8.75C1 8.33579 1.33579 8 1.75 8ZM8.75 7.5C9.44036 7.5 10 8.05964 10 8.75C10 9.44036 9.44036 10 8.75 10C8.05964 10 7.5 9.44036 7.5 8.75C7.5 8.05964 8.05964 7.5 8.75 7.5ZM12.75 7.5C13.4404 7.5 14 8.05964 14 8.75C14 9.44036 13.4404 10 12.75 10C12.0596 10 11.5 9.44036 11.5 8.75C11.5 8.05964 12.0596 7.5 12.75 7.5ZM1.75 2C2.16421 2 2.5 2.33579 2.5 2.75V5.25C2.5 5.66421 2.16421 6 1.75 6C1.33579 6 1 5.66421 1 5.25V2.75C1 2.33579 1.33579 2 1.75 2Z" fill="#CED0D6"/>
</svg>
