<svg width="20" height="20" viewBox="0 0 20 20" fill="none" xmlns="http://www.w3.org/2000/svg">
<path d="M13.25 1C13.6642 1 14 1.33579 14 1.75V4H15C16.1046 4 17 4.89543 17 6V14L16.9893 14.2041C16.8938 15.1457 16.1457 15.8938 15.2041 15.9893L15 16H5L4.7959 15.9893C3.85435 15.8938 3.1062 15.1457 3.01074 14.2041L3 14V6C3 4.89543 3.89543 4 5 4H6V1.75C6 1.33579 6.33579 1 6.75 1C7.16421 1 7.5 1.33579 7.5 1.75V4H12.5V1.75C12.5 1.33579 12.8358 1 13.25 1ZM5 5.5C4.72386 5.5 4.5 5.72386 4.5 6V14C4.5 14.2761 4.72386 14.5 5 14.5H15C15.2761 14.5 15.5 14.2761 15.5 14V6C15.5 5.72386 15.2761 5.5 15 5.5H5ZM12.25 7.5C12.9404 7.5 13.5 8.05964 13.5 8.75C13.5 9.44036 12.9404 10 12.25 10C11.5596 10 11 9.44036 11 8.75C11 8.05964 11.5596 7.5 12.25 7.5ZM7.75 7.43359C8.44036 7.43359 9 7.99324 9 8.68359C8.99974 9.37373 8.44019 9.93359 7.75 9.93359C7.05981 9.93359 6.50026 9.37373 6.5 8.68359C6.5 7.99324 7.05964 7.43359 7.75 7.43359Z" fill="#CED0D6"/>
</svg>
