<svg width="16" height="16" viewBox="0 0 16 16" fill="none" xmlns="http://www.w3.org/2000/svg">
<path d="M6 6C6.55228 6 7 6.44772 7 7C7 7.55228 6.55228 8 6 8C5.44772 8 5 7.55228 5 7C5 6.44772 5.44772 6 6 6Z" fill="#CED0D6"/>
<path d="M10 6C10.5523 6 11 6.44772 11 7C11 7.55228 10.5523 8 10 8C9.44772 8 9 7.55228 9 7C9 6.44772 9.44772 6 10 6Z" fill="#CED0D6"/>
<path fill-rule="evenodd" clip-rule="evenodd" d="M10.5 1C10.7761 1 11 1.22386 11 1.5V3H12L12.2041 3.01074C13.2128 3.113 14 3.96435 14 5V11C14 12.0357 13.2128 12.887 12.2041 12.9893L12 13H4C2.96435 13 2.113 12.2128 2.01074 11.2041L2 11V5C2 3.89543 2.89543 3 4 3H5V1.5C5 1.22386 5.22386 1 5.5 1C5.77614 1 6 1.22386 6 1.5V3H10V1.5C10 1.22386 10.2239 1 10.5 1ZM4 4C3.44772 4 3 4.44772 3 5V11C3 11.5523 3.44772 12 4 12H12C12.5523 12 13 11.5523 13 11V5C13 4.48232 12.6067 4.05621 12.1025 4.00488L12 4H4Z" fill="#CED0D6"/>
</svg>
