<svg width="20" height="20" viewBox="0 0 20 20" fill="none" xmlns="http://www.w3.org/2000/svg">
<path d="M15.5 4.75006C15.914 4.75032 16.25 5.08601 16.25 5.50006V8.50006C16.25 8.75068 16.1245 8.98497 15.916 9.12408L13.1416 10.9727C13.2964 11.2132 13.4255 11.4742 13.5244 11.752L15.792 12.709C16.0695 12.8264 16.25 13.0991 16.25 13.4005V18.0001C16.25 18.4141 15.914 18.7498 15.5 18.7501C15.0861 18.7497 14.75 18.414 14.75 18.0001V13.8975L13.7344 13.4688C13.6702 14.3552 13.3997 15.4932 12.9248 16.4708C12.3989 17.5532 11.4597 18.7498 10 18.7501C8.54022 18.7499 7.60115 17.5532 7.0752 16.4708C6.60017 15.4928 6.32967 14.3543 6.26562 13.4678L5.24805 13.8975V18.0001C5.24801 18.414 4.91186 18.7496 4.49805 18.7501C4.08401 18.7499 3.74711 18.4141 3.74707 18.0001V13.4005C3.74707 13.099 3.92843 12.8264 4.20605 12.709L6.47656 11.7501C6.57524 11.4732 6.70414 11.2134 6.8584 10.9737L4.08398 9.12408C3.87549 8.98498 3.75002 8.75071 3.75 8.50006V5.50006C3.75 5.08596 4.08594 4.75024 4.5 4.75006C4.91399 4.75032 5.25 5.08601 5.25 5.50006V8.09869L7.91602 9.87604C7.91926 9.87828 7.92256 9.88163 7.92578 9.88385C8.52732 9.47987 9.24533 9.25013 10 9.25006C10.7541 9.25016 11.472 9.47945 12.0732 9.88287C12.0766 9.88055 12.0806 9.87833 12.084 9.87604L14.75 8.09869V5.50006C14.75 5.08596 15.0859 4.75024 15.5 4.75006ZM10 10.7501C8.81183 10.7502 7.75 11.7125 7.75 13.0772L7.76074 13.3546C7.80961 14.0438 8.02974 15.0023 8.4248 15.8155C8.89871 16.7908 9.46031 17.2499 10 17.2501C10.5397 17.2498 11.1013 16.7908 11.5752 15.8155C12.0266 14.8862 12.2499 13.7674 12.25 13.0772C12.25 11.7126 11.1881 10.7503 10 10.7501ZM12.3037 1.22174C12.4575 0.837379 12.8939 0.650279 13.2783 0.803772C13.6625 0.957727 13.8499 1.39401 13.6963 1.77838L12.8213 3.96393C13.0681 4.4634 13.2128 5.06817 13.2129 5.78131C13.2129 6.76543 12.9973 7.60111 12.3203 8.1319C11.6951 8.62181 10.8441 8.70314 10.0127 8.70319C9.18126 8.70316 8.33036 8.62175 7.70508 8.1319C7.02804 7.6011 6.81251 6.76545 6.8125 5.78131C6.81254 5.08191 6.95034 4.48607 7.18848 3.99225L6.30371 1.77838C6.15012 1.39396 6.33738 0.95767 6.72168 0.803772C7.10609 0.650363 7.54249 0.837418 7.69629 1.22174L8.29688 2.72272C8.85772 2.3554 9.48326 2.20325 10.0127 2.20319L10.2637 2.21393C10.7264 2.25433 11.2382 2.40911 11.707 2.711L12.3037 1.22174ZM10.0127 3.70319C9.68558 3.70327 9.25888 3.82617 8.92285 4.12897C8.60715 4.41372 8.31257 4.90982 8.3125 5.78131C8.31251 6.59494 8.49548 6.84562 8.62988 6.95123C8.81623 7.09707 9.19139 7.20316 10.0127 7.20319L10.3008 7.1983C10.9248 7.17603 11.2325 7.07886 11.3955 6.95123C11.5299 6.84556 11.7129 6.59471 11.7129 5.78131C11.7128 4.91002 11.4182 4.41375 11.1025 4.12897C10.8086 3.86405 10.445 3.73673 10.1396 3.70905L10.0127 3.70319Z" fill="#CED0D6"/>
</svg>
