<svg width="16" height="16" viewBox="0 0 16 16" fill="none" xmlns="http://www.w3.org/2000/svg">
<g id="toolWindows / composeToolWindow">
<path id="Union" fill-rule="evenodd" clip-rule="evenodd" d="M7.00781 0.567469C7.62268 0.216117 8.37732 0.216117 8.99219 0.567469L13.9922 3.42391C14.6153 3.78001 15 4.44352 15 5.16122V10.839C15 11.5566 14.6153 12.2202 13.9922 12.5763L8.99219 15.4327C8.41593 15.762 7.71669 15.7831 7.125 15.4952L7.00781 15.4327L2.00781 12.5763C1.38469 12.2202 1.00003 11.5566 1 10.839V5.16122C1 4.48837 1.33785 3.86307 1.89355 3.49423L2.00781 3.42391L7.00781 0.567469ZM2 10.839C2.00003 11.1978 2.19236 11.5301 2.50391 11.7081L7.5 14.5616V12.2862L4.50391 10.5753C4.19237 10.3972 4 10.065 4 9.70614V6.30868L2 5.15438V10.839ZM12 6.30868V9.70614C12 10.065 11.8076 10.3972 11.4961 10.5753L8.5 12.2862V14.5616L13.4961 11.7081C13.8076 11.5301 14 11.1978 14 10.839V5.16122C14 5.15897 13.999 5.15663 13.999 5.15438L12 6.30868ZM5.5 6.58505V9.4161L8 10.8438L10.5 9.4161V6.59774L10.4883 6.57821L8 5.15731L5.5 6.58505ZM8.49609 1.43563C8.18866 1.25996 7.81134 1.25996 7.50391 1.43563L2.50391 4.2911L4.48926 5.43661C4.49413 5.43372 4.49898 5.43064 4.50391 5.42782L7.50391 3.71298C7.81122 3.53747 8.18878 3.53747 8.49609 3.71298L11.4961 5.42782C11.5008 5.4305 11.5051 5.43386 11.5098 5.43661L13.4951 4.2911L8.49609 1.43563Z" fill="#CED0D6"/>
</g>
</svg>
