<svg width="20" height="20" viewBox="0 0 20 20" fill="none" xmlns="http://www.w3.org/2000/svg">
<path d="M18 4.5V10C18 10.1423 17.9948 10.2829 17.9883 10.4219C17.9873 10.4437 17.9865 10.4655 17.9854 10.4873C17.6265 17.1385 10.0021 19.9992 10 20L9.65625 19.8574C9.60824 19.8364 9.55671 19.8109 9.5 19.7852V19.7881C9.45607 19.7682 9.41013 19.7454 9.36133 19.7227C9.33462 19.7102 9.30739 19.6969 9.2793 19.6836C9.19306 19.6427 9.10032 19.5979 9.00195 19.5488C8.93459 19.5152 8.86447 19.4799 8.79199 19.4424C8.70595 19.3979 8.61694 19.3498 8.52441 19.2998C8.44612 19.2575 8.36563 19.2133 8.2832 19.167C8.18289 19.1107 8.08025 19.0505 7.97461 18.9883C7.8579 18.9195 7.73735 18.8486 7.61523 18.7725C7.6014 18.7638 7.58714 18.7558 7.57324 18.7471C7.50346 18.7033 7.4335 18.6575 7.3623 18.6113C7.32485 18.587 7.28683 18.563 7.24902 18.5381C7.20396 18.5083 7.15879 18.478 7.11328 18.4473C7.04872 18.4037 6.9833 18.3599 6.91797 18.3145C6.87649 18.2856 6.83568 18.2552 6.79395 18.2256C6.73602 18.1845 6.67747 18.1432 6.61914 18.1006C6.56689 18.0624 6.51442 18.0238 6.46191 17.9844C6.40821 17.9441 6.35467 17.9029 6.30078 17.8613C6.24656 17.8195 6.19202 17.7775 6.1377 17.7344C6.08199 17.6902 6.02644 17.6451 5.9707 17.5996C5.91942 17.5577 5.86862 17.5147 5.81738 17.4717C5.76373 17.4266 5.70978 17.3813 5.65625 17.335C5.6028 17.2887 5.54934 17.2419 5.49609 17.1943C5.44152 17.1456 5.38729 17.096 5.33301 17.0459C5.2784 16.9955 5.22414 16.9443 5.16992 16.8926C5.11271 16.838 5.05571 16.7827 4.99902 16.7266C4.95288 16.6809 4.90707 16.6346 4.86133 16.5879C4.81492 16.5405 4.76859 16.4928 4.72266 16.4443C4.6573 16.3754 4.59258 16.3054 4.52832 16.2344C4.49498 16.1975 4.46172 16.1605 4.42871 16.123C4.36558 16.0515 4.30302 15.979 4.24121 15.9053C4.19968 15.8558 4.15904 15.8053 4.11816 15.7549C4.06641 15.691 4.01448 15.627 3.96387 15.5615C3.91306 15.4958 3.86402 15.4286 3.81445 15.3613C3.77363 15.3059 3.7323 15.2508 3.69238 15.1943C3.64382 15.1257 3.59694 15.0556 3.5498 14.9854C3.51065 14.927 3.47072 14.869 3.43262 14.8096C3.3873 14.7389 3.34355 14.667 3.2998 14.5947C3.25916 14.5276 3.2189 14.4601 3.17969 14.3916C3.13975 14.3219 3.10185 14.2508 3.06348 14.1797C3.02713 14.1123 2.98995 14.0452 2.95508 13.9766C2.91996 13.9074 2.88707 13.837 2.85352 13.7666C2.81486 13.6855 2.77572 13.6043 2.73926 13.5215C2.70134 13.4354 2.66629 13.3477 2.63086 13.2598C2.60729 13.2013 2.582 13.1433 2.55957 13.084C2.5181 12.9743 2.48075 12.8625 2.44336 12.75C2.42778 12.7031 2.41035 12.6567 2.39551 12.6094C2.38607 12.5793 2.3773 12.5489 2.36816 12.5186C2.33012 12.3923 2.29433 12.2645 2.26172 12.1348C2.22853 12.0028 2.19815 11.869 2.1709 11.7334C2.15983 11.6783 2.14872 11.6231 2.13867 11.5674C2.11655 11.4449 2.09808 11.3207 2.08105 11.1953C2.05146 10.9773 2.02891 10.7551 2.01562 10.5283C2.00546 10.3548 2 10.1787 2 10V4.5L10 1L18 4.5ZM3.5 5.48145V10C3.5 11.9712 4.2689 13.5868 5.34082 14.8848C5.82796 15.4746 6.37762 15.9989 6.94629 16.4609C7.84774 17.1933 8.75706 17.7343 9.44336 18.0918C9.65381 18.2014 9.84211 18.2916 10 18.3652C10.1579 18.2916 10.3462 18.2014 10.5566 18.0918C11.2429 17.7343 12.1523 17.1933 13.0537 16.4609C14.8737 14.9822 16.5 12.8668 16.5 10V5.48145L10 2.6377L3.5 5.48145ZM12.7227 7.22168C13.0158 6.92879 13.4911 6.92879 13.7842 7.22168C14.0772 7.51455 14.0772 7.98935 13.7842 8.28223L9.5332 12.5303C9.24012 12.8231 8.76479 12.8231 8.47168 12.5303L6.22363 10.2842C5.93063 9.99131 5.93063 9.51651 6.22363 9.22363C6.51674 8.93074 6.99205 8.93074 7.28516 9.22363L9.00195 10.9395L12.7227 7.22168Z" fill="#CED0D6"/>
</svg>
