<svg width="20" height="20" viewBox="0 0 20 20" fill="none" xmlns="http://www.w3.org/2000/svg">
<g id="toolWindows / cwmUsers@20x20">
<path id="stroke" fill-rule="evenodd" clip-rule="evenodd" d="M7.49615 10C12.453 9.99075 13.6842 14.0579 13.9893 15.9961C14.0758 16.5463 13.6338 16.9999 13.0762 17H1.92388C1.36667 17 0.924543 16.547 1.0108 15.9971C1.31426 14.0637 2.54137 10.0094 7.49615 10ZM12.4952 10C17.452 9.99075 18.6832 14.0579 18.9883 15.9961C19.0749 16.5463 18.6328 16.9999 18.0752 17H15.3399C15.4865 16.6342 15.5412 16.2161 15.4698 15.7627C15.4566 15.6792 15.4424 15.5914 15.4258 15.5H17.3565C17.1711 14.7569 16.8482 13.9015 16.295 13.1807C15.7841 12.515 15.0436 11.9138 13.8897 11.6465C13.8214 11.5483 13.7499 11.451 13.6758 11.3545C13.2969 10.8609 12.8489 10.4014 12.3243 10.002C12.3807 10.0008 12.4377 10.0001 12.4952 10ZM7.49908 11.5C5.5055 11.5038 4.39265 12.2884 3.70123 13.1895C3.14951 13.9085 2.82734 14.76 2.64263 15.5H12.3575C12.1721 14.7569 11.8491 13.9015 11.296 13.1807C10.6039 12.279 9.49112 11.4963 7.49908 11.5ZM7.50005 2C9.43305 2 11.0001 3.567 11.0001 5.5C11.0001 7.433 9.43305 9 7.50005 9C5.56706 9 4.00005 7.433 4.00005 5.5C4.00005 3.567 5.56706 2 7.50005 2ZM12.4991 2C14.4321 2 15.9991 3.567 15.9991 5.5C15.9991 7.433 14.4321 9 12.4991 9C12.0679 9 11.6549 8.92191 11.2735 8.7793C11.6136 8.38821 11.8944 7.94355 12.1006 7.45996C12.2294 7.486 12.3626 7.5 12.4991 7.5C13.6036 7.5 14.4991 6.60457 14.4991 5.5C14.4991 4.39543 13.6036 3.5 12.4991 3.5C12.3626 3.5 12.2294 3.514 12.1006 3.54004C11.8944 3.05645 11.6136 2.61179 11.2735 2.2207C11.6549 2.07809 12.0679 2 12.4991 2ZM7.50005 3.5C6.39548 3.5 5.50005 4.39543 5.50005 5.5C5.50005 6.60457 6.39548 7.5 7.50005 7.5C8.60462 7.5 9.50005 6.60457 9.50005 5.5C9.50005 4.39543 8.60462 3.5 7.50005 3.5Z" fill="#CED0D6"/>
</g>
</svg>
