<svg width="16" height="16" viewBox="0 0 16 16" fill="none" xmlns="http://www.w3.org/2000/svg">
<path d="M13.967 13.5331C14.2061 13.6712 14.5119 13.5892 14.65 13.3501C14.7881 13.1109 14.7061 12.8052 14.467 12.6671L14.217 13.1001L13.967 13.5331ZM12 11.8201L11.75 12.2531L13.967 13.5331L14.217 13.1001L14.467 12.6671L12.25 11.3871L12 11.8201Z" fill="#CED0D6"/>
<path d="M14.9004 9.49982C15.1765 9.49982 15.4004 9.27596 15.4004 8.99982C15.4004 8.72367 15.1765 8.49982 14.9004 8.49982L14.9004 8.99982L14.9004 9.49982ZM12.4004 8.99982L12.4004 9.49982L14.9004 9.49982L14.9004 8.99982L14.9004 8.49982L12.4004 8.49982L12.4004 8.99982Z" fill="#CED0D6"/>
<path d="M14.4551 5.23979C14.6979 5.10835 14.7882 4.80492 14.6568 4.56207C14.5253 4.31922 14.2219 4.22891 13.9791 4.36035L14.2171 4.80007L14.4551 5.23979ZM12 6.00006L12.238 6.43978L14.4551 5.23979L14.2171 4.80007L13.9791 4.36035L11.762 5.56034L12 6.00006Z" fill="#CED0D6"/>
<path d="M2.02989 13.5332C1.79075 13.6712 1.48495 13.5893 1.34688 13.3501C1.20881 13.111 1.29075 12.8052 1.52989 12.6671L1.77989 13.1001L2.02989 13.5332ZM4 11.8184L4.25 12.2514L2.02989 13.5332L1.77989 13.1001L1.52989 12.6671L3.75 11.3853L4 11.8184Z" fill="#CED0D6"/>
<path d="M1.09961 9.50012C0.823467 9.50012 0.599609 9.27626 0.599609 9.00012C0.599609 8.72398 0.823467 8.50012 1.09961 8.50012L1.09961 9.00012L1.09961 9.50012ZM3.59961 9.00012L3.59961 9.50012L1.09961 9.50012L1.09961 9.00012L1.09961 8.50012L3.59961 8.50012L3.59961 9.00012Z" fill="#CED0D6"/>
<path d="M1.54215 5.24C1.29922 5.10869 1.20874 4.80532 1.34004 4.56239C1.47134 4.31946 1.77472 4.22898 2.01765 4.36028L1.7799 4.80014L1.54215 5.24ZM4 6.00012L3.76225 6.43998L1.54215 5.24L1.7799 4.80014L2.01765 4.36028L4.23775 5.56026L4 6.00012Z" fill="#CED0D6"/>
<path fill-rule="evenodd" clip-rule="evenodd" d="M8.00098 2.5C8.93977 2.50011 9.70117 3.26138 9.70117 4.2002C9.70114 4.48931 9.6289 4.76159 9.50151 5H10.5C10.5268 5 10.5536 5.00053 10.5802 5.00158C10.6588 4.74838 10.7012 4.47922 10.7012 4.2002C10.7012 2.70909 9.49206 1.50011 8.00098 1.5C6.50981 1.5 5.30078 2.70903 5.30078 4.2002C5.3008 4.47919 5.34314 4.74832 5.42174 5.0015C5.4477 5.0005 5.47379 5 5.5 5H6.5004C6.37303 4.76159 6.30081 4.48931 6.30078 4.2002C6.30078 3.26131 7.06209 2.5 8.00098 2.5Z" fill="#CED0D6"/>
<path d="M4 7.5C4 5.84315 5.34315 4.5 7 4.5H9C10.6569 4.5 12 5.84315 12 7.5V10C12 12.2091 10.2091 14 8 14V14C5.79086 14 4 12.2091 4 10V7.5Z" stroke="#CED0D6"/>
</svg>
