<svg width="20" height="20" viewBox="0 0 20 20" fill="none" xmlns="http://www.w3.org/2000/svg">
<path fill-rule="evenodd" clip-rule="evenodd" d="M10 1.5C11.933 1.5 13.5 3.067 13.5 5C13.5 5.17449 13.4875 5.34603 13.4629 5.51367C13.4527 5.50792 13.4419 5.50274 13.4316 5.49707C14.0272 5.82621 14.529 6.30311 14.8896 6.87793L17.1445 5.66699C17.5094 5.47083 17.964 5.60783 18.1602 5.97266C18.3559 6.33729 18.2199 6.79112 17.8555 6.9873L15.4355 8.28809C15.4771 8.51918 15.5 8.75695 15.5 9V10.25H18.5C18.9142 10.25 19.25 10.5858 19.25 11C19.25 11.4142 18.9142 11.75 18.5 11.75H15.5V12.5C15.5 12.904 15.4548 13.2975 15.3721 13.6768L17.8555 15.0127C18.2199 15.2089 18.3559 15.6627 18.1602 16.0273C17.964 16.3922 17.5094 16.5292 17.1445 16.333L14.8477 15.0986C13.92 16.8255 12.0975 18 10 18C7.90204 18 6.07881 16.8251 5.15137 15.0977L2.85352 16.333C2.48869 16.5292 2.03405 16.3922 1.83789 16.0273C1.64211 15.6627 1.77815 15.2089 2.14258 15.0127L4.62695 13.6758C4.54442 13.2969 4.5 12.9036 4.5 12.5V11.75H1.5C1.08579 11.75 0.75 11.4142 0.75 11C0.75 10.5858 1.08579 10.25 1.5 10.25H4.5V9C4.5 8.75734 4.52208 8.51981 4.56348 8.28906L2.14258 6.9873C1.77815 6.79112 1.64211 6.33729 1.83789 5.97266C2.03405 5.60783 2.48869 5.47083 2.85352 5.66699L5.1084 6.87891C5.46894 6.30362 5.97157 5.82649 6.56738 5.49707C6.55738 5.5026 6.54706 5.50806 6.53711 5.51367C6.51246 5.34603 6.5 5.17449 6.5 5C6.5 3.067 8.067 1.5 10 1.5ZM8.5 6.5C7.11929 6.5 6 7.61929 6 9V12.5C6 14.7091 7.79086 16.5 10 16.5C12.2091 16.5 14 14.7091 14 12.5V9C14 7.61929 12.8807 6.5 11.5 6.5H8.5ZM6.7373 5.4082C6.70736 5.42293 6.67796 5.43866 6.64844 5.4541C6.67796 5.43866 6.70736 5.42293 6.7373 5.4082ZM13.3506 5.4541C13.3211 5.43866 13.2917 5.42292 13.2617 5.4082C13.2917 5.42292 13.3211 5.43866 13.3506 5.4541ZM6.9248 5.32227C6.88538 5.33917 6.84637 5.35687 6.80762 5.375C6.84637 5.35687 6.88538 5.33917 6.9248 5.32227ZM13.1914 5.375C13.1526 5.35688 13.1136 5.33917 13.0742 5.32227C13.1136 5.33917 13.1526 5.35688 13.1914 5.375ZM7.11133 5.24805C7.06436 5.26544 7.0178 5.28365 6.97168 5.30273C7.0178 5.28365 7.06436 5.26544 7.11133 5.24805ZM13.0273 5.30273C12.9812 5.28366 12.9347 5.26543 12.8877 5.24805C12.9347 5.26543 12.9812 5.28366 13.0273 5.30273ZM7.28125 5.18945C7.23635 5.2038 7.19166 5.2185 7.14746 5.23438C7.19166 5.2185 7.23635 5.2038 7.28125 5.18945ZM12.8516 5.23438C12.8077 5.21861 12.7634 5.20371 12.7188 5.18945C12.7634 5.20371 12.8077 5.21861 12.8516 5.23438ZM7.4668 5.13477C7.43079 5.14437 7.39498 5.15447 7.35938 5.16504C7.39498 5.15447 7.43079 5.14437 7.4668 5.13477ZM12.6396 5.16504C12.604 5.15447 12.5682 5.14436 12.5322 5.13477C12.5682 5.14436 12.604 5.15447 12.6396 5.16504ZM7.65332 5.08984C7.61766 5.09753 7.58217 5.10563 7.54688 5.11426C7.58217 5.10563 7.61766 5.09753 7.65332 5.08984ZM12.4521 5.11426C12.4168 5.10564 12.3814 5.09752 12.3457 5.08984C12.3814 5.09752 12.4168 5.10564 12.4521 5.11426ZM7.83008 5.05664C7.80825 5.06032 7.78635 5.06335 7.76465 5.06738C7.78635 5.06335 7.80825 5.06032 7.83008 5.05664ZM12.2344 5.06738C12.2127 5.06336 12.1908 5.06032 12.1689 5.05664C12.1908 5.06032 12.2127 5.06336 12.2344 5.06738ZM10 3C8.89543 3 8 3.89543 8 5C8 5.01032 7.99984 5.02096 8 5.03125C7.98857 5.03268 7.97722 5.03461 7.96582 5.03613C8.1406 5.0128 8.31884 5 8.5 5H11.5C11.6808 5 11.8587 5.01289 12.0332 5.03613C12.0221 5.03466 12.0111 5.03264 12 5.03125C12.0002 5.02096 12 5.01032 12 5C12 3.89543 11.1046 3 10 3Z" fill="#CED0D6"/>
</svg>
