<svg width="20" height="20" viewBox="0 0 20 20" fill="none" xmlns="http://www.w3.org/2000/svg">
<path fill-rule="evenodd" clip-rule="evenodd" d="M17.4505 13.6035C17.823 13.4227 18.2724 13.5778 18.4534 13.9502C18.6342 14.3226 18.479 14.772 18.1068 14.9531L10.765 18.5185C10.2823 18.7529 9.71836 18.7529 9.23567 18.5185L1.89388 14.9531C1.52149 14.7721 1.36632 14.3227 1.5472 13.9502C1.72825 13.5778 2.17762 13.4225 2.55013 13.6035L9.88997 17.1699C9.9588 17.2033 10.0408 17.2032 10.1097 17.1699L17.4505 13.6035ZM17.4505 9.60349C17.823 9.42265 18.2724 9.5778 18.4534 9.95017C18.6342 10.3226 18.479 10.772 18.1068 10.9531L10.765 14.5185C10.2823 14.7529 9.71836 14.7529 9.23567 14.5185L1.89388 10.9531C1.52149 10.7721 1.36632 10.3227 1.5472 9.95017C1.72825 9.57776 2.17762 9.42255 2.55013 9.60349L9.88997 13.1699C9.9588 13.2033 10.0408 13.2032 10.1097 13.1699L17.4505 9.60349ZM9.56087 1.71481C9.83791 1.57944 10.1627 1.57944 10.4398 1.71481L17.9388 5.37985C18.6867 5.74534 18.6877 6.81123 17.9398 7.17673L10.4388 10.8418L10.3333 10.8867C10.0822 10.9753 9.804 10.9599 9.56185 10.8418L2.06087 7.17673L1.92903 7.09958C1.31599 6.6799 1.36012 5.72256 2.06087 5.37985L9.56087 1.71481ZM3.63802 6.27731L10.0003 9.38669L16.3617 6.27731L10.0003 3.16892L3.63802 6.27731Z" fill="#CED0D6"/>
</svg>
