<svg width="20" height="20" viewBox="0 0 20 20" fill="none" xmlns="http://www.w3.org/2000/svg">
<g clip-path="url(#clip0_25502_11432)">
<path fill-rule="evenodd" clip-rule="evenodd" d="M14.6598 3.46463C15.7049 2.55143 16.7994 2.37892 17.7399 2.6951C18.6097 2.9877 19.2506 3.66739 19.5641 4.30448H19.5651C19.5662 4.30654 19.567 4.30922 19.568 4.31131C19.5709 4.31712 19.575 4.3231 19.5778 4.32889H19.5758C19.5764 4.33006 19.5772 4.33163 19.5778 4.3328H19.5797V4.33377L19.5836 4.34159C19.5856 4.34588 19.5887 4.35212 19.5915 4.35819C19.5925 4.36047 19.5933 4.36346 19.5944 4.366C19.6727 4.52757 19.7294 4.69619 19.7663 4.86893C19.787 4.9442 19.81 5.02671 19.8297 5.116C19.9324 5.58005 20.0097 6.23317 19.9176 7.00858C19.7417 8.48781 18.9615 10.3181 16.7868 12.0955L16.3327 12.45C15.277 13.2407 14.7991 14.9124 14.7555 16.617C14.7438 17.0754 14.3691 17.4461 13.9049 17.4461H12.3473C11.8625 17.446 11.5076 17.0961 11.4127 16.7029C11.2882 16.1877 10.8229 15.8143 10.2702 15.8142C9.72427 15.8143 9.25587 16.1894 9.12856 16.7088C9.03253 17.1008 8.67812 17.4489 8.19497 17.449H6.69888C6.21576 17.4489 5.86133 17.1008 5.76528 16.7088C5.63794 16.1894 5.16958 15.8143 4.62368 15.8142C4.07773 15.8143 3.60934 16.1893 3.48208 16.7088C3.38622 17.1011 3.03103 17.45 2.54751 17.45H0.926417C0.488511 17.4499 0.125795 17.1176 0.0807135 16.6883C-0.12244 14.7532 0.0491251 13.0126 0.668604 11.5047C1.2221 10.1575 2.11897 9.0326 3.3561 8.13651L3.30532 7.9783C3.05643 7.20463 3.37186 6.32163 4.1354 5.9285C7.51086 4.19057 10.0373 4.53382 12.0622 5.34256C13.0259 5.72754 13.9091 6.23476 14.61 6.58768C15.3583 6.96441 15.9102 7.17258 16.4 7.17264C17.1546 7.17264 17.7061 6.79331 18.025 6.30545C18.2995 5.88534 18.3538 5.46749 18.2965 5.18534C18.2826 5.13979 18.2707 5.09989 18.2594 5.06815C18.2452 5.02829 18.2339 4.99913 18.2272 4.98319C18.2264 4.98121 18.2259 4.97889 18.2252 4.97733L18.1559 4.85037C17.9733 4.55179 17.6483 4.24714 17.2614 4.11698C16.8786 3.98845 16.3336 3.99472 15.6471 4.59452C15.3352 4.86697 14.8611 4.8351 14.5885 4.52323C14.3163 4.21134 14.3481 3.73711 14.6598 3.46463ZM11.5055 6.73612C9.83305 6.06813 7.76497 5.74715 4.82192 7.26248C4.75145 7.29885 4.69503 7.39924 4.73306 7.51834L4.95571 8.21073L4.95962 8.22245L5.70669 10.6785C5.74141 10.776 5.83278 10.8757 6.04946 10.9236C6.28118 10.9748 6.54408 10.9331 6.71743 10.8357L6.7272 10.8299H6.72817C7.53077 10.3958 8.26638 9.88386 8.94106 9.27616C9.24873 8.99912 9.7234 9.02438 10.0006 9.33182C10.2777 9.63955 10.2526 10.1132 9.94497 10.3904C9.1765 11.0826 8.342 11.662 7.44107 12.1492L7.44009 12.1482C6.92943 12.4311 6.29284 12.5139 5.72524 12.3885C5.14207 12.2594 4.53088 11.8811 4.28482 11.157L4.277 11.1336L3.83071 9.66678C3.01921 10.3469 2.43637 11.1499 2.0563 12.075C1.61185 13.157 1.43082 14.4427 1.52505 15.95H2.15884C2.56804 14.9797 3.52589 14.3143 4.62368 14.3142C5.72117 14.3143 6.67911 14.9792 7.08853 15.949H7.80532C8.21471 14.9791 9.17268 14.3143 10.2702 14.3142C11.3657 14.3143 12.3277 14.9719 12.737 15.9461H13.2907C13.4304 14.2601 13.9855 12.3337 15.4342 11.2488L15.8327 10.9373C16.9773 10.003 17.6381 9.09141 18.0104 8.28202C17.549 8.52451 17.0091 8.67264 16.4 8.67264C15.5234 8.67258 14.6908 8.30793 13.9352 7.92752C13.1324 7.52333 12.39 7.08942 11.5055 6.73612ZM12.318 8.49295C12.8023 8.44033 13.2574 8.73277 13.4108 9.1951C13.5444 9.59808 13.417 10.0343 13.1042 10.3035C13.0184 10.3773 12.8947 10.3724 12.7995 10.3113L11.5573 9.51346C11.462 9.45225 11.4056 9.34098 11.4372 9.23221C11.552 8.83587 11.896 8.53883 12.318 8.49295Z" fill="#CED0D6"/>
</g>
<defs>
<clipPath id="clip0_25502_11432">
<rect width="20" height="20" fill="white"/>
</clipPath>
</defs>
</svg>
