<svg width="16" height="16" viewBox="0 0 16 16" fill="none" xmlns="http://www.w3.org/2000/svg">
<path d="M4.44336 1.15002C5.59513 1.24024 6.85312 1.69258 7.05566 1.88147C7.47789 2.07426 7.87032 2.27757 8.19727 2.45276C8.24679 2.48116 8.51309 2.68729 9.06348 2.96252C9.31221 2.80482 9.52403 2.53674 9.79395 2.36389C9.96539 2.25408 10.1806 2.2031 10.4307 2.151C10.6368 2.11233 11.2335 2.17721 11.3857 2.24377C11.9282 2.48847 12.2248 2.87981 12.5723 3.37952C12.7245 3.61111 12.8404 3.83081 12.9375 4.02795C13.0337 4.22303 13.1674 4.423 13.165 4.5719C13.1682 4.65581 13.1067 4.71758 13.0596 4.82776C12.9011 5.26457 12.7611 5.62295 12.6807 6.12073C12.6724 6.18628 12.6446 6.28267 12.6338 6.39709C12.6322 6.41465 12.6406 6.45862 12.6406 6.45862L12.627 6.62366C12.6152 6.71619 12.625 6.78541 12.623 6.91467C12.6176 6.90249 12.4092 6.43245 12.459 6.05627C12.4589 5.96113 12.7085 5.2698 12.7529 5.1676C12.8019 5.0159 12.837 4.89075 12.8818 4.6637C12.9266 4.43676 12.8875 4.31205 12.791 4.12366C12.3889 3.35385 11.721 2.62406 11.4658 2.42444C11.4402 2.40159 11.2177 2.35793 11.1494 2.32092C11.0834 2.29323 11.2334 2.46545 11.2334 2.46545C11.1379 2.5527 10.7375 2.11724 10.0381 2.43225C9.87883 2.4914 9.77443 2.58974 9.66016 2.67737C9.54092 2.7688 9.40845 2.91332 9.30078 3.02209C9.30645 3.05441 9.37496 3.10016 9.50195 3.17346C9.839 3.36799 10.3887 3.7889 10.5205 3.95471C10.5674 4.00502 10.7413 4.94228 10.9141 5.54456C10.9683 5.73234 11.3789 5.94495 11.3789 5.94495C11.2869 5.95572 11.0646 5.8863 10.9707 5.8512C10.9557 5.92653 11.0459 6.34436 11.0459 6.34436C11.0459 6.34436 10.9523 6.14166 10.8457 5.64221C10.6971 5.15092 10.5348 4.64089 10.3115 4.16956C10.0916 3.86387 9.34057 3.29728 9.0918 3.21545C8.80797 3.05356 8.51049 2.9196 8.18359 2.74182C7.37808 2.311 6.35972 1.66654 4.74219 1.41077C4.56751 1.42979 4.48697 1.47551 4.28125 1.56506C3.83108 1.98981 3.70586 2.46359 3.02148 2.86584C3.04161 2.91969 3.08275 2.95098 3.15039 2.96057C3.60566 3.05338 4.32691 3.51269 4.97168 3.86682C4.96195 3.86231 4.10923 3.46799 3.46289 3.22717C3.20604 3.13149 2.9565 3.09874 2.83691 3.07874C2.57639 3.02903 2.24209 3.02169 1.9043 3.01624C1.57943 3.34818 1.38817 3.67925 1.27051 4.08557L1.26855 4.08948C1.22823 4.52442 1.30452 4.67685 1.33398 4.82385C1.45115 5.3217 1.86936 5.79205 2.3584 6.27795C2.49489 6.41357 2.63403 6.54392 2.75293 6.70374L2.75488 6.70667L2.75781 6.70959C2.96174 7.00874 3.02252 7.56768 3.24609 7.87952C3.28201 7.91288 3.84547 7.87273 4.17578 7.9176C4.31891 7.93705 4.46597 7.93684 4.61523 7.91858C5.07434 7.80362 5.37314 7.69392 5.7334 7.58948C5.89195 7.5037 6.45139 7.29935 6.61816 7.26135V7.26526C7.24336 7.05691 7.83314 6.93581 8.41504 6.81311C8.28754 7.32251 8.22319 7.63777 8.35059 8.62952C8.43009 8.93591 9.00459 9.16924 9.43848 9.27893C9.23109 9.63484 8.87106 10.1969 9.65137 10.8141C9.76098 10.9801 9.84597 11.1647 9.94141 11.3414H9.94043C10.1929 12.0177 10.8103 12.0641 11.3301 11.5465L11.4834 11.4166C11.8832 11.622 12.2666 11.9438 13.0039 11.8151C13.6087 11.7232 14.0352 11.0643 14.416 10.3307C14.5992 9.91295 14.7195 9.45556 14.7549 9.06213C14.7574 9.0345 14.7382 8.67895 14.5488 8.69299C14.2672 8.71459 14.2801 8.85821 13.9541 8.92834C13.7665 8.91686 13.5279 8.93812 13.4922 8.91956L13.4717 8.9303C13.3802 9.18186 13.283 9.43689 13.1836 9.67249C12.9467 9.95031 13.0471 9.79167 12.6924 10.2233C12.8058 10.0482 12.9539 9.88016 13.0312 9.69788C13.0855 9.57783 13.1527 9.45006 13.1826 9.34338C13.0888 9.29655 12.8971 9.29252 12.8701 9.3092C12.5548 9.49522 12.4974 9.69272 12.3115 9.8844C12.4462 9.66906 12.5616 9.43372 12.7178 9.23987C12.7356 9.2147 12.8517 9.20979 12.9229 9.19495C12.8124 9.17599 12.6073 9.13651 12.5908 9.13831C12.3852 9.18783 12.2699 9.36699 12.1172 9.48596C12.2285 9.32519 12.3313 9.15736 12.4727 9.01917C12.4874 9.00304 12.8685 9.03693 13.0664 9.11584L13.0703 9.19397L13.1836 9.23987L13.2656 9.03088L13.1836 9.01917C13.019 8.95066 12.88 8.89987 12.7305 8.84143L12.8154 8.83655C12.844 8.74035 12.8671 8.62594 12.917 8.59924C12.9762 8.50421 12.8289 8.50753 12.7812 8.4635L12.9375 8.50159C13.1284 8.50353 13.355 8.48812 13.3652 8.69885L13.4316 8.66467C13.428 8.48621 13.4509 8.27637 13.3389 8.09534C13.3216 8.07403 13.2002 7.84829 13.0674 7.57678L12.8203 7.51233H13.0361C12.9025 7.23512 12.7649 6.92463 12.7188 6.73694C12.6944 6.63833 12.6319 6.62553 12.627 6.62463L12.6406 6.45764C12.6406 6.45764 12.8114 6.61414 12.8809 6.67346C13.0427 6.82437 13.1389 7.2066 13.1719 7.25745C13.2995 7.50004 13.4826 7.82387 13.6221 8.13147C13.6392 8.1638 13.678 8.35257 13.6426 8.74182C13.639 8.74683 13.549 8.74855 13.4951 8.75159C13.9546 8.80517 14.126 8.56962 14.5898 8.44299C14.72 8.41533 14.8718 8.61722 14.9873 8.81311C15.0687 8.91189 14.7749 10.598 13.8506 11.6676C13.123 12.2771 12.0751 12.1311 11.4316 11.6588C11.215 11.963 11.021 12.3079 10.127 12.0426C9.85847 11.866 9.82594 11.6213 9.70801 11.3785C9.53357 11.4206 9.4088 11.3967 9.12207 11.3649C9.02726 11.3662 8.98661 11.3716 8.91504 11.5143L9.15039 11.8668C9.23834 11.9676 9.32057 12.1704 9.86523 12.402C9.92976 12.4339 10.1052 12.4236 10.1084 12.4186L10.0527 12.4362C9.78712 12.5219 9.42207 12.3573 9.41211 12.3619C9.12485 12.2717 8.9076 12.0953 8.7373 11.8854C8.74994 12.0724 8.75494 12.2774 8.82129 12.4606C8.8702 12.5987 8.89792 12.6337 8.93848 12.7369C8.96106 12.7665 9.05731 12.7805 9.17383 12.8258C9.21868 12.8423 9.36831 12.8955 9.45605 12.9059C9.71003 12.9357 9.99693 12.9045 10.0107 12.903C9.84147 13.0767 9.34497 13.0489 9.12012 13.0299C9.21162 13.2029 9.30034 13.4009 9.3584 13.5455C9.39565 13.6385 9.38857 13.638 9.89941 13.693C9.6604 13.7144 9.50545 13.7782 9.45117 13.7799C9.41154 13.781 9.47236 13.9056 9.48926 13.9274C9.58998 14.0258 9.75 14.0327 9.89453 14.0553C10.5139 14.1164 11.8591 14.0064 11.8818 14.0045C11.8604 14.0121 10.3413 14.5461 9.59277 14.7731C9.30844 14.8488 9.00565 14.869 8.73926 14.8326C8.18391 14.7081 7.68603 14.5095 7.25293 14.276L7.25195 14.277L7.24902 14.275C6.59782 13.9233 6.09563 13.4884 5.76953 13.0934L5.76172 13.0875H5.76367C5.71321 13.0261 5.66677 12.9659 5.625 12.9069C5.46021 12.674 5.28795 12.3237 5.20703 12.1022C5.03032 11.6181 4.91286 11.1945 4.85645 10.6842C4.85503 10.6679 4.85483 10.6515 4.85352 10.6354L4.84766 10.611C4.84898 10.6119 4.85025 10.6129 4.85156 10.6139C4.76428 9.50297 4.92527 8.78621 5.48633 7.98303C5.54655 7.88948 5.70714 7.81854 5.72949 7.74475C5.56063 7.81075 5.37329 7.88244 5.16309 7.9342C4.94776 8.00868 4.69035 8.04916 4.47168 8.09045C4.31332 8.10694 4.14623 8.11167 4.02441 8.10999C3.74261 8.08576 3.42551 8.08541 3.19727 8.03674C3.09168 8.01344 3.09967 8.0133 3.06055 7.93616C2.95163 7.69199 2.85064 7.34323 2.71484 7.08948C2.5355 6.69843 2.28336 6.43211 1.84668 6.00549C1.35565 5.49036 0.844095 4.8216 1.04492 4.01038C1.14237 3.69228 1.37648 3.18664 1.56152 2.92053C1.73019 2.71884 1.90306 2.65513 2.08496 2.75354C2.29133 2.77945 2.36523 2.7611 2.47754 2.75549C2.7155 2.7415 2.90494 2.64772 2.97266 2.58948C3.31053 2.34098 3.53134 2.00535 3.86328 1.66174C4.06348 1.45667 4.25019 1.27622 4.44336 1.15002ZM9.27246 14.0221C8.65553 14.3053 7.99848 14.2632 7.37402 14.275C7.75664 14.4916 8.15762 14.6549 8.56836 14.7203C8.80145 14.7597 9.92973 14.9094 9.43066 14.2584C9.42268 14.2435 9.32969 14.1424 9.27246 14.0221ZM5.25391 12.0035C5.40906 12.3664 5.60271 12.802 5.80469 13.0309C5.82836 13.055 5.85376 13.0781 5.87793 13.1022C6.50772 13.4112 7.53473 13.8611 9.01465 13.6354C8.90133 13.4664 8.76404 13.2522 8.64746 13.0504C7.48052 13.0787 6.10551 12.517 5.25391 12.0035ZM4.98926 9.27502C4.88646 9.75389 4.8948 10.2405 4.94922 10.6881C5.69573 11.2674 5.99731 11.9126 8.4209 12.4293C8.42167 12.4278 8.42199 12.4259 8.42285 12.4244C8.41935 12.2026 8.47284 11.9354 8.53711 11.7799C8.53868 11.7761 8.53945 11.772 8.54102 11.7682C6.67358 11.5451 5.28255 10.0686 4.98926 9.27502ZM10.6699 10.5963C10.8582 10.8774 11.1442 11.1505 11.4834 11.4156L11.3301 11.5465L11.1943 11.3766C11.1356 11.4195 11.0781 11.4585 11.0039 11.6178C10.9674 11.6799 10.9199 11.7209 10.8818 11.7252C10.7153 11.747 10.5311 11.7074 10.332 11.5719C10.3598 11.6503 10.5314 11.7412 10.6445 11.8268C10.5333 11.8325 10.3688 11.8213 10.3232 11.7584C10.1544 11.5226 10.1786 11.4485 10.2129 11.3942C10.3853 11.1626 10.6085 10.9269 10.6699 10.5963ZM6.65039 7.47717C6.31783 7.55029 6.0085 7.68196 5.72363 7.87463C5.70105 7.88389 5.67715 7.90868 5.65234 7.93909C5.80758 8.94075 6.02766 9.7064 6.90918 10.3502C7.45926 10.7458 8.00553 11.1393 8.66797 11.4655C8.70265 11.3806 8.73215 11.3049 8.76074 11.2448C8.41652 11.0699 8.35461 10.9409 8.12695 10.652C7.53522 9.65553 6.93975 8.56291 6.65039 7.47717ZM10.4785 10.3864C10.4884 10.3746 10.9255 10.4306 10.9775 10.4479C10.5595 10.4451 10.5698 10.4462 10.2832 10.7281C10.2795 10.6266 10.3063 10.5089 10.4785 10.3864ZM14.6143 8.86682C14.4872 8.96835 14.4738 9.06382 14.0977 9.17834C13.8233 9.24313 13.6682 9.13288 13.5391 8.98499C13.735 9.04111 13.7667 9.189 14.292 9.02307L14.6143 8.86682ZM10.6367 8.42151C11.061 8.14817 11.3443 8.07255 11.834 8.20081C11.7683 8.21723 11.7046 8.23351 11.6396 8.25549C11.6662 8.26514 11.7617 8.60992 11.6855 8.62073C11.6675 8.62423 11.9939 8.71482 12.0068 8.71838C11.6003 8.74762 11.1992 8.70938 10.8184 8.901L11.001 8.75256C10.9939 8.78993 10.9307 8.51616 10.9541 8.40393C10.9569 8.37468 10.6367 8.42151 10.6367 8.42151ZM10.8047 7.30334C11.0334 7.25311 11.2684 7.25667 11.4971 7.28479C11.0528 7.34836 10.9422 7.36791 10.6641 7.67444C10.7048 7.5567 10.7114 7.4286 10.8047 7.30334ZM7.11719 4.39612C7.82885 4.41994 8.61651 4.38085 9.15137 4.55237C9.58132 4.93405 9.7205 5.65305 9.94043 6.13538C9.7021 5.94741 9.49003 5.28335 9.12891 5.14514C8.79439 5.11716 8.6713 5.01255 8.23145 5.10217C8.39095 5.02225 8.54141 4.91964 8.71094 4.86487C8.82569 4.83778 8.93349 4.86829 9.04297 4.88342C9.06985 4.87072 9.08827 4.85446 9.08203 4.83069C8.63923 4.55704 7.73038 4.55233 7.11719 4.39612ZM11.2461 2.93323C11.3449 2.94223 11.8761 3.78233 11.9014 3.92249C11.9456 4.22821 12.0547 4.57136 12.084 4.89124C11.9964 4.58445 11.9015 4.27713 11.7822 3.97034C11.7473 3.88583 11.6591 3.69452 11.4141 3.42444C11.3 3.23414 11.2749 3.08475 11.2461 2.93323Z" fill="#CED0D6"/>
<path d="M4.44336 1.15002L4.44781 1.09321L4.42845 1.0917L4.41219 1.10232L4.44336 1.15002ZM7.05566 1.88147L7.0168 1.92314L7.02357 1.92946L7.032 1.93331L7.05566 1.88147ZM8.19727 2.45276L8.22562 2.4033L8.22418 2.40253L8.19727 2.45276ZM9.06348 2.96252L9.03799 3.01349L9.06679 3.0279L9.09399 3.01065L9.06348 2.96252ZM9.79395 2.36389L9.82468 2.41188L9.82468 2.41188L9.79395 2.36389ZM10.4307 2.151L10.4202 2.09498L10.419 2.09521L10.4307 2.151ZM11.3857 2.24377L11.4092 2.19183L11.4086 2.19156L11.3857 2.24377ZM12.5723 3.37952L12.6199 3.34821L12.6191 3.34698L12.5723 3.37952ZM12.9375 4.02795L12.8864 4.05313L12.8864 4.05316L12.9375 4.02795ZM13.165 4.5719L13.108 4.57099L13.1081 4.57403L13.165 4.5719ZM13.0596 4.82776L13.0071 4.80532L13.006 4.80832L13.0596 4.82776ZM12.6807 6.12073L12.6244 6.11164L12.6241 6.11361L12.6807 6.12073ZM12.6338 6.39709L12.5771 6.39171L12.577 6.39196L12.6338 6.39709ZM12.6406 6.45862L12.6974 6.46332L12.6981 6.45555L12.6966 6.4479L12.6406 6.45862ZM12.627 6.62366L12.6835 6.63083L12.6837 6.62836L12.627 6.62366ZM12.623 6.91467L12.571 6.93785L12.68 6.91555L12.623 6.91467ZM12.459 6.05627L12.516 6.06382L12.516 6.05621L12.459 6.05627ZM12.7529 5.1676L12.8054 5.19045L12.8072 5.18511L12.7529 5.1676ZM12.8818 4.6637L12.9377 4.67475L12.9377 4.67472L12.8818 4.6637ZM12.791 4.12366L12.8417 4.09769L12.8415 4.09727L12.791 4.12366ZM11.4658 2.42444L11.4278 2.46704L11.4307 2.46932L11.4658 2.42444ZM11.1494 2.32092L11.1767 2.27057L11.1714 2.26837L11.1494 2.32092ZM11.2334 2.46545L11.2718 2.50753L11.3129 2.46999L11.2764 2.42802L11.2334 2.46545ZM10.0381 2.43225L10.058 2.48579L10.0615 2.48421L10.0381 2.43225ZM9.66016 2.67737L9.69483 2.72259L9.69483 2.72259L9.66016 2.67737ZM9.30078 3.02209L9.26028 2.98201L9.23956 3.00294L9.24465 3.03194L9.30078 3.02209ZM9.50195 3.17346L9.47346 3.22282L9.47347 3.22282L9.50195 3.17346ZM10.5205 3.95471L10.4758 3.99028L10.4788 3.99358L10.5205 3.95471ZM10.9141 5.54456L10.8593 5.56027L10.8593 5.56035L10.9141 5.54456ZM11.3789 5.94495L11.3855 6.00154L11.5704 5.97991L11.4051 5.89434L11.3789 5.94495ZM10.9707 5.8512L10.9907 5.79782L10.9279 5.77437L10.9148 5.84006L10.9707 5.8512ZM11.0459 6.34436L10.9942 6.36826L11.1016 6.33233L11.0459 6.34436ZM10.8457 5.64221L10.9016 5.63028L10.9002 5.62571L10.8457 5.64221ZM10.3115 4.16956L10.3639 4.14476L10.3578 4.13628L10.3115 4.16956ZM9.0918 3.21545L9.06299 3.26597L9.07399 3.26959L9.0918 3.21545ZM8.18359 2.74182L8.21082 2.69176L8.21047 2.69157L8.18359 2.74182ZM4.74219 1.41077L4.75109 1.35448L4.74358 1.35329L4.73602 1.35412L4.74219 1.41077ZM4.28125 1.56506L4.25851 1.51281L4.24938 1.51679L4.24214 1.52362L4.28125 1.56506ZM3.02148 2.86584L2.99261 2.81672L2.95135 2.84097L2.96811 2.8858L3.02148 2.86584ZM3.15039 2.96057L3.16179 2.90463L3.15839 2.90415L3.15039 2.96057ZM4.97168 3.86682L4.94772 3.91853L4.99911 3.81687L4.97168 3.86682ZM3.46289 3.22717L3.48279 3.17377L3.48278 3.17377L3.46289 3.22717ZM2.83691 3.07874L2.82623 3.13473L2.82751 3.13494L2.83691 3.07874ZM1.9043 3.01624L1.90522 2.95926L1.88071 2.95886L1.86357 2.97638L1.9043 3.01624ZM1.27051 4.08557L1.32233 4.11148L1.32524 4.10142L1.27051 4.08557ZM1.26855 4.08948L1.21759 4.06399L1.2128 4.07356L1.21181 4.08422L1.26855 4.08948ZM1.33398 4.82385L1.27808 4.83506L1.27851 4.83691L1.33398 4.82385ZM2.3584 6.27795L2.31823 6.31838L2.31823 6.31838L2.3584 6.27795ZM2.75293 6.70374L2.80041 6.67208L2.79865 6.66972L2.75293 6.70374ZM2.75488 6.70667L2.70653 6.7389L2.71459 6.74696L2.75488 6.70667ZM2.75781 6.70959L2.80573 6.67693L2.79811 6.6693L2.75781 6.70959ZM3.24609 7.87952L3.19884 7.9134L3.20731 7.92127L3.24609 7.87952ZM4.17578 7.9176L4.18345 7.86114H4.18345L4.17578 7.9176ZM4.61523 7.91858L4.62221 7.97558L4.62908 7.97386L4.61523 7.91858ZM5.7334 7.58948L5.74963 7.64548L5.76051 7.6396L5.7334 7.58948ZM6.61816 7.26135H6.67515V7.18992L6.6055 7.20579L6.61816 7.26135ZM6.61816 7.26526H6.56118V7.34432L6.63618 7.31932L6.61816 7.26526ZM8.41504 6.81311L8.47032 6.82695L8.49244 6.73855L8.40328 6.75735L8.41504 6.81311ZM8.35059 8.62952L8.29361 8.63684L8.29543 8.64383L8.35059 8.62952ZM9.43848 9.27893L9.48771 9.30762L9.52581 9.24223L9.45244 9.22368L9.43848 9.27893ZM9.65137 10.8141L9.69893 10.7827L9.69389 10.7751L9.68672 10.7694L9.65137 10.8141ZM9.94141 11.3414V11.3984H10.037L9.99154 11.3143L9.94141 11.3414ZM9.94043 11.3414V11.2844H9.85834L9.88704 11.3614L9.94043 11.3414ZM11.4834 11.4166L11.5094 11.3659L11.4756 11.3486L11.4466 11.3731L11.4834 11.4166ZM13.0039 11.8151L12.9953 11.7587L12.9941 11.7589L13.0039 11.8151ZM14.416 10.3307L14.4667 10.357L14.4682 10.3536L14.416 10.3307ZM14.7549 9.06213L14.6981 9.057L14.6981 9.05703L14.7549 9.06213ZM14.5488 8.69299L14.5446 8.63616L14.5445 8.63618L14.5488 8.69299ZM13.9541 8.92834L13.9506 8.98522L13.9584 8.9857L13.9661 8.98406L13.9541 8.92834ZM13.4922 8.91956L13.5185 8.86899L13.4921 8.85528L13.4657 8.86908L13.4922 8.91956ZM13.4717 8.9303L13.4452 8.87982L13.4257 8.89007L13.4181 8.91082L13.4717 8.9303ZM13.1836 9.67249L13.227 9.70946L13.2327 9.70276L13.2361 9.69464L13.1836 9.67249ZM12.6924 10.2233L12.6446 10.1923L12.7364 10.2594L12.6924 10.2233ZM13.0312 9.69788L12.9793 9.6744L12.9788 9.67563L13.0312 9.69788ZM13.1826 9.34338L13.2375 9.35878L13.2502 9.31344L13.2081 9.2924L13.1826 9.34338ZM12.8701 9.3092L12.8991 9.3583L12.9001 9.35769L12.8701 9.3092ZM12.3115 9.8844L12.2632 9.85418L12.3524 9.92407L12.3115 9.8844ZM12.7178 9.23987L12.7622 9.27568L12.7643 9.27278L12.7178 9.23987ZM12.9229 9.19495L12.9345 9.25073L12.9325 9.13878L12.9229 9.19495ZM12.5908 9.13831L12.5846 9.08119L12.5775 9.08291L12.5908 9.13831ZM12.1172 9.48596L12.0703 9.45352L12.1522 9.53091L12.1172 9.48596ZM12.4727 9.01917L12.5125 9.05998L12.5147 9.05766L12.4727 9.01917ZM13.0664 9.11584L13.1233 9.113L13.1215 9.07646L13.0875 9.06291L13.0664 9.11584ZM13.0703 9.19397L13.0134 9.19682L13.0152 9.23313L13.0489 9.24678L13.0703 9.19397ZM13.1836 9.23987L13.1622 9.29268L13.2156 9.31432L13.2366 9.26069L13.1836 9.23987ZM13.2656 9.03088L13.3187 9.05171L13.345 8.98466L13.2737 8.97447L13.2656 9.03088ZM13.1836 9.01917L13.1617 9.07178L13.1684 9.07455L13.1755 9.07558L13.1836 9.01917ZM12.7305 8.84143L12.7272 8.78454L12.7097 8.89451L12.7305 8.84143ZM12.8154 8.83655L12.8187 8.89344L12.8587 8.89114L12.8701 8.85277L12.8154 8.83655ZM12.917 8.59924L12.9439 8.64949L12.9573 8.64231L12.9654 8.62938L12.917 8.59924ZM12.7812 8.4635L12.7947 8.40814L12.581 8.35603L12.7426 8.50535L12.7812 8.4635ZM12.9375 8.50159L12.9236 8.55843L12.9369 8.55857L12.9375 8.50159ZM13.3652 8.69885L13.3083 8.70163L13.3126 8.79002L13.3913 8.74952L13.3652 8.69885ZM13.4316 8.66467L13.4577 8.71534L13.4893 8.69906L13.4886 8.66351L13.4316 8.66467ZM13.3389 8.09534L13.3877 8.06511L13.3831 8.05946L13.3389 8.09534ZM13.0674 7.57678L13.1186 7.55174L13.1071 7.52825L13.0818 7.52164L13.0674 7.57678ZM12.8203 7.51233V7.45534L12.8059 7.56747L12.8203 7.51233ZM13.0361 7.51233V7.56931H13.1269L13.0875 7.48759L13.0361 7.51233ZM12.7188 6.73694L12.7741 6.72335L12.7741 6.72329L12.7188 6.73694ZM12.627 6.62463L12.5702 6.61998L12.5659 6.67146L12.6168 6.6807L12.627 6.62463ZM12.6406 6.45764L12.6791 6.41563L12.5933 6.337L12.5838 6.45299L12.6406 6.45764ZM12.8809 6.67346L12.9198 6.63174L12.9179 6.63013L12.8809 6.67346ZM13.1719 7.25745L13.2225 7.2308L13.2197 7.22643L13.1719 7.25745ZM13.6221 8.13147L13.5701 8.15505L13.5717 8.1581L13.6221 8.13147ZM13.6426 8.74182L13.6889 8.77501L13.6979 8.76241L13.6993 8.74698L13.6426 8.74182ZM13.4951 8.75159L13.4919 8.69469L13.4885 8.80819L13.4951 8.75159ZM14.5898 8.44299L14.578 8.38716L14.5748 8.38802L14.5898 8.44299ZM14.9873 8.81311L14.9376 8.8424L14.9433 8.84934L14.9873 8.81311ZM13.8506 11.6676L13.8877 11.7119L13.8937 11.7049L13.8506 11.6676ZM11.4316 11.6588L11.4654 11.6129L11.4188 11.5787L11.3852 11.6258L11.4316 11.6588ZM10.127 12.0426L10.0956 12.0902L10.1027 12.0948L10.1107 12.0972L10.127 12.0426ZM9.70801 11.3785L9.75926 11.3536L9.73923 11.3124L9.69465 11.3231L9.70801 11.3785ZM9.12207 11.3649L9.12841 11.3078L9.12128 11.3079L9.12207 11.3649ZM8.91504 11.5143L8.8641 11.4887L8.84924 11.5184L8.86764 11.5459L8.91504 11.5143ZM9.15039 11.8668L9.1026 11.8987L9.10746 11.9043L9.15039 11.8668ZM9.86523 12.402L9.89056 12.3508L9.88753 12.3495L9.86523 12.402ZM10.1084 12.4186L10.1565 12.4492L10.2406 12.3171L10.0912 12.3642L10.1084 12.4186ZM10.0527 12.4362L10.0356 12.3818L10.0352 12.3819L10.0527 12.4362ZM9.41211 12.3619L9.39503 12.4163L9.41622 12.423L9.43633 12.4135L9.41211 12.3619ZM8.7373 11.8854L8.78156 11.8495L8.66834 11.7099L8.68045 11.8892L8.7373 11.8854ZM8.82129 12.4606L8.87501 12.4415L8.87487 12.4412L8.82129 12.4606ZM8.93848 12.7369L8.88544 12.7578L8.88835 12.7652L8.89319 12.7715L8.93848 12.7369ZM9.17383 12.8258L9.15316 12.8789L9.15419 12.8793L9.17383 12.8258ZM9.45605 12.9059L9.44937 12.9625L9.44942 12.9625L9.45605 12.9059ZM10.0107 12.903L10.0516 12.9427L10.1629 12.8284L10.0043 12.8463L10.0107 12.903ZM9.12012 13.0299L9.1249 12.9731L9.02098 12.9644L9.06974 13.0566L9.12012 13.0299ZM9.3584 13.5455L9.4113 13.5243L9.41128 13.5243L9.3584 13.5455ZM9.89941 13.693L9.90449 13.7498L9.90551 13.6363L9.89941 13.693ZM9.45117 13.7799L9.45277 13.8369L9.45297 13.8369L9.45117 13.7799ZM9.48926 13.9274L9.44378 13.9626L9.44943 13.9681L9.48926 13.9274ZM9.89453 14.0553L9.88571 14.1117L9.88893 14.112L9.89453 14.0553ZM11.8818 14.0045L11.9007 14.0583L11.8772 13.9477L11.8818 14.0045ZM9.59277 14.7731L9.60745 14.8282L9.60931 14.8276L9.59277 14.7731ZM8.73926 14.8326L8.72674 14.8884L8.73154 14.8891L8.73926 14.8326ZM7.25293 14.276L7.27997 14.2258L7.24263 14.2057L7.21264 14.2357L7.25293 14.276ZM7.25195 14.277L7.22034 14.3244L7.25921 14.3503L7.29225 14.3173L7.25195 14.277ZM7.24902 14.275L7.28077 14.2274L7.2761 14.2249L7.24902 14.275ZM5.76953 13.0934L5.81474 13.0561L5.80372 13.0478L5.76953 13.0934ZM5.76172 13.0875V13.0305H5.59076L5.72753 13.1331L5.76172 13.0875ZM5.76367 13.0875V13.1445H5.88424L5.8077 13.0513L5.76367 13.0875ZM5.625 12.9069L5.57848 12.9398L5.57848 12.9398L5.625 12.9069ZM5.20703 12.1022L5.1535 12.1217L5.15351 12.1217L5.20703 12.1022ZM4.85645 10.6842L4.79966 10.6891L4.79981 10.6905L4.85645 10.6842ZM4.85352 10.6354L4.911 10.6307L4.90893 10.6221L4.85352 10.6354ZM4.84766 10.611L4.88108 10.5648L4.75628 10.4744L4.79224 10.6243L4.84766 10.611ZM4.85156 10.6139L4.81808 10.66L4.91805 10.7326L4.90837 10.6094L4.85156 10.6139ZM5.48633 7.98303L5.53308 8.01569L5.53424 8.01388L5.48633 7.98303ZM5.72949 7.74475L5.78403 7.76127L5.81806 7.64895L5.70875 7.69168L5.72949 7.74475ZM5.16309 7.9342L5.1494 7.87864L5.14446 7.88035L5.16309 7.9342ZM4.47168 8.09045L4.4776 8.14733L4.48225 8.14645L4.47168 8.09045ZM4.02441 8.10999L4.01952 8.16691L4.02363 8.16697L4.02441 8.10999ZM3.19727 8.03674L3.18499 8.09239L3.18538 8.09247L3.19727 8.03674ZM3.06055 7.93616L3.00844 7.9594L3.00972 7.96193L3.06055 7.93616ZM2.71484 7.08948L2.66295 7.11328L2.6646 7.11637L2.71484 7.08948ZM1.84668 6.00549L1.80541 6.04484L1.80686 6.04625L1.84668 6.00549ZM1.04492 4.01038L0.990355 3.99366L0.989607 3.99668L1.04492 4.01038ZM1.56152 2.92053L1.51764 2.88383L1.51474 2.888L1.56152 2.92053ZM2.08496 2.75354L2.05785 2.80366L2.06725 2.80875L2.07786 2.81008L2.08496 2.75354ZM2.47754 2.75549L2.48038 2.81241L2.48088 2.81238L2.47754 2.75549ZM2.97266 2.58948L2.9388 2.54344L2.93549 2.54628L2.97266 2.58948ZM3.86328 1.66174L3.8225 1.62194L3.8223 1.62215L3.86328 1.66174ZM9.27246 14.0221L9.32392 13.9976L9.29977 13.9469L9.24869 13.9703L9.27246 14.0221ZM7.37402 14.275L7.37294 14.2181L7.16464 14.222L7.34596 14.3246L7.37402 14.275ZM8.56836 14.7203L8.57784 14.6641L8.57733 14.6641L8.56836 14.7203ZM9.43066 14.2584L9.37973 14.2856L9.38544 14.2931L9.43066 14.2584ZM5.25391 12.0035L5.28333 11.9547L5.13207 11.8635L5.20151 12.0259L5.25391 12.0035ZM5.80469 13.0309L5.7619 13.0686L5.76402 13.0708L5.80469 13.0309ZM5.87793 13.1022L5.83767 13.1425L5.84435 13.1492L5.85283 13.1533L5.87793 13.1022ZM9.01465 13.6354L9.02324 13.6917L9.11195 13.6782L9.06198 13.6036L9.01465 13.6354ZM8.64746 13.0504L8.6968 13.0219L8.67989 12.9926L8.64608 12.9934L8.64746 13.0504ZM4.98926 9.27502L5.04271 9.25527L4.97471 9.07129L4.93354 9.26306L4.98926 9.27502ZM4.94922 10.6881L4.89265 10.695L4.89552 10.7186L4.91428 10.7331L4.94922 10.6881ZM8.4209 12.4293L8.40902 12.4851L8.45208 12.4942L8.47183 12.4549L8.4209 12.4293ZM8.42285 12.4244L8.472 12.4533L8.48008 12.4395L8.47983 12.4235L8.42285 12.4244ZM8.53711 11.7799L8.58977 11.8017V11.8017L8.53711 11.7799ZM8.54102 11.7682L8.5937 11.7899L8.62232 11.7205L8.54777 11.7116L8.54102 11.7682ZM10.6699 10.5963L10.7173 10.5646L10.6395 10.4484L10.6139 10.5859L10.6699 10.5963ZM11.4834 11.4156L11.5204 11.459L11.5734 11.4137L11.5185 11.3708L11.4834 11.4156ZM11.1943 11.3766L11.2389 11.341L11.2048 11.2984L11.1607 11.3306L11.1943 11.3766ZM11.0039 11.6178L11.0533 11.6468L11.0556 11.6419L11.0039 11.6178ZM10.8818 11.7252L10.8754 11.6686L10.8744 11.6687L10.8818 11.7252ZM10.332 11.5719L10.3641 11.5248L10.2203 11.4269L10.2783 11.5909L10.332 11.5719ZM10.6445 11.8268L10.6475 11.8837L10.8037 11.8756L10.6789 11.7813L10.6445 11.8268ZM10.3232 11.7584L10.2769 11.7916L10.2771 11.7919L10.3232 11.7584ZM10.2129 11.3942L10.167 11.36L10.1647 11.3637L10.2129 11.3942ZM6.65039 7.47717L6.70545 7.4625L6.69141 7.40981L6.63815 7.42152L6.65039 7.47717ZM5.72363 7.87463L5.74572 7.92849L5.75556 7.92184L5.72363 7.87463ZM5.65234 7.93909L5.60819 7.90307L5.59214 7.92273L5.59603 7.94781L5.65234 7.93909ZM6.90918 10.3502L6.87557 10.3962L6.87591 10.3965L6.90918 10.3502ZM8.66797 11.4655L8.6428 11.5166L8.69761 11.5436L8.72072 11.487L8.66797 11.4655ZM8.76074 11.2448L8.81221 11.2692L8.83603 11.2191L8.78655 11.1939L8.76074 11.2448ZM8.12695 10.652L8.07753 10.6813L8.08219 10.6872L8.12695 10.652ZM10.4785 10.3864L10.5116 10.4328L10.5174 10.4286L10.5221 10.4231L10.4785 10.3864ZM10.9775 10.4479L10.9772 10.5049L10.9955 10.3938L10.9775 10.4479ZM10.2832 10.7281L10.2263 10.7302L10.2309 10.8595L10.3232 10.7688L10.2832 10.7281ZM14.6143 8.86682L14.6498 8.91134L14.5894 8.81555L14.6143 8.86682ZM14.0977 9.17834L14.1108 9.23392L14.1143 9.23286L14.0977 9.17834ZM13.5391 8.98499L13.5548 8.9302L13.3691 8.87702L13.4961 9.02247L13.5391 8.98499ZM14.292 9.02307L14.3093 9.07799L14.3169 9.07435L14.292 9.02307ZM10.6367 8.42151L10.6059 8.37361L10.645 8.47789L10.6367 8.42151ZM11.834 8.20081L11.8478 8.25609L11.8484 8.14568L11.834 8.20081ZM11.6396 8.25549L11.6214 8.20151L11.4674 8.2536L11.6202 8.30906L11.6396 8.25549ZM11.6855 8.62073L11.6775 8.56424L11.6747 8.56478L11.6855 8.62073ZM12.0068 8.71838L12.0109 8.77522L12.022 8.66346L12.0068 8.71838ZM10.8184 8.901L10.7824 8.85678L10.844 8.9519L10.8184 8.901ZM11.001 8.75256L11.057 8.76313L11.0859 8.61014L10.965 8.70834L11.001 8.75256ZM10.9541 8.40393L11.0102 8.41563L11.0108 8.40934L10.9541 8.40393ZM10.8047 7.30334L10.7925 7.24769L10.7717 7.25225L10.759 7.26932L10.8047 7.30334ZM11.4971 7.28479L11.5051 7.3412L11.504 7.22823L11.4971 7.28479ZM10.6641 7.67444L10.6102 7.6558L10.7063 7.71273L10.6641 7.67444ZM7.11719 4.39612L7.11909 4.33916L7.10312 4.45134L7.11719 4.39612ZM9.15137 4.55237L9.1892 4.50975L9.18021 4.50177L9.16877 4.49811L9.15137 4.55237ZM9.94043 6.13538L9.90514 6.18012L9.99228 6.11173L9.94043 6.13538ZM9.12891 5.14514L9.14927 5.09192L9.14172 5.08903L9.13366 5.08836L9.12891 5.14514ZM8.23145 5.10217L8.20592 5.05123L8.24282 5.15801L8.23145 5.10217ZM8.71094 4.86487L8.6978 4.80923L8.69342 4.81064L8.71094 4.86487ZM9.04297 4.88342L9.03517 4.93987L9.05198 4.9422L9.06732 4.93494L9.04297 4.88342ZM9.08203 4.83069L9.13715 4.81622L9.13137 4.79419L9.11199 4.78221L9.08203 4.83069ZM11.2461 2.93323L11.2513 2.87648L11.176 2.86962L11.1901 2.94388L11.2461 2.93323ZM11.9014 3.92249L11.9578 3.91432L11.9575 3.91239L11.9014 3.92249ZM12.084 4.89124L12.0292 4.90688L12.1407 4.88603L12.084 4.89124ZM11.7822 3.97034L11.8353 3.94968L11.8349 3.94858L11.7822 3.97034ZM11.4141 3.42444L11.3642 3.45431L11.3719 3.46273L11.4141 3.42444ZM4.44336 1.15002L4.43891 1.20684C5.0096 1.25154 5.60784 1.38613 6.0888 1.53324C6.32918 1.60676 6.53943 1.68315 6.70159 1.75257C6.78269 1.78729 6.85121 1.82002 6.90518 1.84951C6.96002 1.87948 6.99679 1.90449 7.0168 1.92314L7.05566 1.88147L7.09453 1.83979C7.0639 1.81123 7.01706 1.78078 6.95983 1.7495C6.90174 1.71775 6.82974 1.68345 6.74644 1.64779C6.57976 1.57645 6.36555 1.4987 6.12214 1.42425C5.63553 1.27541 5.02889 1.13873 4.44781 1.09321L4.44336 1.15002ZM7.05566 1.88147L7.032 1.93331C7.45267 2.12539 7.84391 2.32807 8.17035 2.50299L8.19727 2.45276L8.22418 2.40253C7.89673 2.22707 7.50312 2.02313 7.07933 1.82963L7.05566 1.88147ZM8.19727 2.45276L8.16892 2.5022C8.20874 2.52502 8.48789 2.7384 9.03799 3.01349L9.06348 2.96252L9.08896 2.91156C8.53828 2.63617 8.28485 2.43729 8.22561 2.40332L8.19727 2.45276ZM9.06348 2.96252L9.09399 3.01065C9.2235 2.92854 9.3425 2.8183 9.45934 2.71083C9.57768 2.60198 9.69458 2.4952 9.82468 2.41188L9.79395 2.36389L9.76321 2.3159C9.6234 2.40544 9.49942 2.51912 9.38219 2.62695C9.26346 2.73616 9.15219 2.8388 9.03296 2.9144L9.06348 2.96252ZM9.79395 2.36389L9.82468 2.41188C9.98596 2.30858 10.1909 2.25917 10.4423 2.20679L10.4307 2.151L10.419 2.09521C10.1703 2.14704 9.94482 2.19959 9.76321 2.3159L9.79395 2.36389ZM10.4307 2.151L10.4412 2.20701C10.5352 2.18936 10.7284 2.19489 10.9226 2.21462C11.0184 2.22435 11.1122 2.2373 11.1909 2.2518C11.2712 2.26659 11.3314 2.2822 11.3629 2.29599L11.3857 2.24377L11.4086 2.19156C11.364 2.17206 11.2924 2.15461 11.2116 2.13972C11.1292 2.12455 11.0324 2.11121 10.9342 2.10123C10.7404 2.08155 10.5322 2.07397 10.4202 2.09499L10.4307 2.151ZM11.3857 2.24377L11.3623 2.29572C11.8892 2.53339 12.1782 2.9126 12.5255 3.41205L12.5723 3.37952L12.6191 3.34698C12.2714 2.84703 11.9672 2.44354 11.4092 2.19183L11.3857 2.24377ZM12.5723 3.37952L12.5246 3.41081C12.6751 3.63968 12.7899 3.85709 12.8864 4.05313L12.9375 4.02795L12.9886 4.00278C12.891 3.80454 12.7739 3.58254 12.6199 3.34822L12.5723 3.37952ZM12.9375 4.02795L12.8864 4.05316C12.911 4.10297 12.9379 4.15295 12.9638 4.20125C12.9899 4.24991 13.015 4.29684 13.037 4.34213C13.082 4.43481 13.109 4.51127 13.1081 4.571L13.165 4.5719L13.222 4.5728C13.2234 4.48363 13.1848 4.38565 13.1395 4.29235C13.1163 4.24465 13.0901 4.19571 13.0642 4.14736C13.0381 4.09865 13.0121 4.05047 12.9886 4.00275L12.9375 4.02795ZM13.165 4.5719L13.1081 4.57403C13.1091 4.60065 13.1003 4.6261 13.0807 4.66346C13.0625 4.69812 13.0318 4.74769 13.0072 4.80536L13.0596 4.82776L13.112 4.85016C13.1344 4.79764 13.1581 4.76124 13.1816 4.71649C13.2037 4.67444 13.2241 4.62706 13.222 4.56977L13.165 4.5719ZM13.0596 4.82776L13.006 4.80832C12.8479 5.24391 12.7058 5.60756 12.6244 6.11164L12.6807 6.12073L12.7369 6.12981C12.8163 5.63834 12.9542 5.28522 13.1131 4.8472L13.0596 4.82776ZM12.6807 6.12073L12.6241 6.11361C12.6203 6.14367 12.6121 6.18066 12.6023 6.2294C12.5929 6.2766 12.5828 6.33156 12.5771 6.39171L12.6338 6.39709L12.6905 6.40248C12.6957 6.3482 12.7049 6.29776 12.7141 6.25177C12.723 6.20732 12.7327 6.16333 12.7372 6.12784L12.6807 6.12073ZM12.6338 6.39709L12.577 6.39196C12.5755 6.40853 12.5785 6.4306 12.5802 6.4426C12.5813 6.44987 12.5824 6.45648 12.5832 6.46124C12.5836 6.46364 12.584 6.4656 12.5842 6.46699C12.5843 6.46769 12.5845 6.46825 12.5845 6.46864C12.5846 6.46884 12.5846 6.469 12.5846 6.46912C12.5846 6.46917 12.5846 6.46922 12.5846 6.46926C12.5846 6.46928 12.5846 6.4693 12.5847 6.46931C12.5847 6.46932 12.5847 6.46932 12.5847 6.46933C12.5847 6.46933 12.5847 6.46933 12.5847 6.46933C12.5847 6.46934 12.5847 6.46934 12.6406 6.45862C12.6966 6.4479 12.6966 6.4479 12.6966 6.4479C12.6966 6.4479 12.6966 6.4479 12.6966 6.44791C12.6966 6.44791 12.6966 6.44791 12.6966 6.44791C12.6966 6.44791 12.6966 6.44791 12.6966 6.44791C12.6966 6.44791 12.6966 6.44789 12.6966 6.44787C12.6966 6.44782 12.6966 6.44773 12.6965 6.4476C12.6965 6.44734 12.6964 6.44694 12.6963 6.4464C12.6961 6.44531 12.6958 6.44371 12.6955 6.44171C12.6948 6.43768 12.6939 6.43219 12.693 6.42628C12.6921 6.42029 12.6914 6.41433 12.691 6.40923C12.6905 6.40337 12.6906 6.40142 12.6905 6.40223L12.6338 6.39709ZM12.6406 6.45862L12.5838 6.45391L12.5702 6.61895L12.627 6.62366L12.6837 6.62836L12.6974 6.46332L12.6406 6.45862ZM12.627 6.62366L12.5704 6.61649C12.5641 6.66672 12.5636 6.71028 12.5644 6.75633C12.5651 6.80273 12.567 6.85037 12.5661 6.91379L12.623 6.91467L12.68 6.91555C12.681 6.84972 12.679 6.79811 12.6783 6.75446C12.6776 6.71044 12.6781 6.67313 12.6835 6.63082L12.627 6.62366ZM12.623 6.91467L12.6751 6.8915C12.673 6.88676 12.6207 6.76898 12.5752 6.60659C12.5293 6.44299 12.4921 6.24034 12.5155 6.06375L12.459 6.05627L12.4025 6.0488C12.3761 6.24838 12.4182 6.46884 12.4654 6.63736C12.513 6.80707 12.5677 6.9304 12.571 6.93785L12.623 6.91467ZM12.459 6.05627L12.516 6.05621C12.516 6.05625 12.516 6.05593 12.516 6.05518C12.5161 6.05445 12.5162 6.05344 12.5163 6.05214C12.5166 6.04949 12.5171 6.04604 12.5179 6.04171C12.5194 6.03301 12.5218 6.02192 12.5251 6.00851C12.5317 5.98169 12.5413 5.94756 12.5532 5.90811C12.5769 5.82932 12.6093 5.73157 12.6431 5.63312C12.7111 5.43538 12.784 5.23907 12.8052 5.19034L12.7529 5.1676L12.7007 5.14486C12.6774 5.19834 12.6032 5.39878 12.5353 5.59605C12.5013 5.6951 12.4684 5.7944 12.4441 5.87519C12.4319 5.91553 12.4216 5.95182 12.4144 5.98142C12.4077 6.00891 12.402 6.03655 12.402 6.05634L12.459 6.05627ZM12.7529 5.1676L12.8072 5.18511C12.8568 5.03139 12.8924 4.90407 12.9377 4.67475L12.8818 4.6637L12.8259 4.65265C12.7815 4.87742 12.747 5.00042 12.6987 5.1501L12.7529 5.1676ZM12.8818 4.6637L12.9377 4.67472C12.9612 4.55587 12.9633 4.46029 12.9453 4.36829C12.9275 4.27717 12.8906 4.19315 12.8417 4.09769L12.791 4.12366L12.7403 4.14963C12.7879 4.24256 12.8188 4.31509 12.8335 4.39016C12.848 4.46434 12.8472 4.54458 12.8259 4.65267L12.8818 4.6637ZM12.791 4.12366L12.8415 4.09727C12.6381 3.70788 12.3681 3.32969 12.1174 3.02408C11.8672 2.71917 11.6333 2.48313 11.5009 2.37956L11.4658 2.42444L11.4307 2.46932C11.5535 2.56536 11.7812 2.79403 12.0293 3.09637C12.2768 3.39801 12.5418 3.76962 12.7405 4.15004L12.791 4.12366ZM11.4658 2.42444L11.5038 2.38193C11.4922 2.3716 11.4771 2.36532 11.4688 2.36201C11.458 2.35774 11.4453 2.3535 11.432 2.34938C11.4054 2.34115 11.3719 2.33209 11.3386 2.32302C11.3048 2.31379 11.2708 2.30441 11.2411 2.29511C11.2103 2.28548 11.1883 2.27718 11.1766 2.27082L11.1494 2.32092L11.1223 2.37103C11.1447 2.38316 11.1761 2.3942 11.2071 2.40388C11.2391 2.41389 11.2751 2.4238 11.3086 2.43296C11.3428 2.44228 11.374 2.45074 11.3984 2.45828C11.4106 2.46205 11.42 2.46526 11.4266 2.46789C11.4356 2.47148 11.433 2.47157 11.4279 2.46695L11.4658 2.42444ZM11.1494 2.32092L11.1714 2.26837C11.165 2.26568 11.1558 2.26238 11.1453 2.2613C11.1356 2.2603 11.1138 2.2602 11.0953 2.27741C11.0763 2.29507 11.0751 2.31736 11.0758 2.32749C11.0764 2.33813 11.0795 2.3471 11.0816 2.35253C11.0895 2.3729 11.1067 2.39763 11.1208 2.41667C11.1363 2.43769 11.1538 2.45928 11.1671 2.47536C11.1738 2.48346 11.1796 2.49028 11.1837 2.4951C11.1858 2.49752 11.1874 2.49943 11.1886 2.50076C11.1892 2.50142 11.1896 2.50194 11.1899 2.5023C11.1901 2.50248 11.1902 2.50261 11.1903 2.50271C11.1903 2.50276 11.1904 2.5028 11.1904 2.50283C11.1904 2.50285 11.1904 2.50286 11.1904 2.50287C11.1904 2.50287 11.1904 2.50288 11.1904 2.50288C11.1904 2.50288 11.1904 2.50289 11.2334 2.46545C11.2764 2.42802 11.2764 2.42802 11.2764 2.42803C11.2764 2.42803 11.2764 2.42803 11.2764 2.42803C11.2764 2.42802 11.2764 2.42802 11.2764 2.42801C11.2763 2.428 11.2763 2.42798 11.2763 2.42795C11.2762 2.42788 11.2761 2.42777 11.276 2.42763C11.2758 2.42733 11.2754 2.42689 11.2749 2.4263C11.2738 2.42511 11.2723 2.42335 11.2704 2.42111C11.2666 2.41662 11.2612 2.41021 11.2548 2.4026C11.2421 2.38725 11.2262 2.36751 11.2125 2.34894C11.2056 2.33965 11.1996 2.33111 11.195 2.32387C11.1927 2.32027 11.191 2.31727 11.1896 2.31487C11.189 2.31369 11.1885 2.31276 11.1882 2.31208C11.1879 2.31137 11.1877 2.31107 11.1878 2.31112C11.1878 2.31114 11.1881 2.31185 11.1884 2.31314C11.1887 2.31435 11.1893 2.31691 11.1895 2.32047C11.1899 2.32633 11.1896 2.34535 11.1728 2.36095C11.1565 2.37611 11.1383 2.37514 11.1337 2.37467C11.1282 2.37411 11.1255 2.3727 11.1274 2.37348L11.1494 2.32092ZM11.2334 2.46545L11.195 2.42338C11.2012 2.41768 11.2053 2.42165 11.191 2.4197C11.1767 2.41773 11.1558 2.41131 11.125 2.39954C11.0668 2.37732 10.9808 2.33889 10.8783 2.30877C10.6685 2.24715 10.3792 2.21613 10.0147 2.38029L10.0381 2.43225L10.0615 2.48421C10.3964 2.33336 10.657 2.36257 10.8461 2.41812C10.943 2.44657 11.0187 2.48096 11.0844 2.50601C11.1154 2.51788 11.147 2.5287 11.1756 2.53261C11.2042 2.53655 11.2417 2.53504 11.2718 2.50753L11.2334 2.46545ZM10.0381 2.43225L10.0182 2.37883C9.84858 2.44185 9.73471 2.54838 9.62548 2.63215L9.66016 2.67737L9.69483 2.72259C9.81415 2.63109 9.90908 2.54095 10.0579 2.48567L10.0381 2.43225ZM9.66016 2.67737L9.62548 2.63215C9.50216 2.72672 9.36511 2.8761 9.26028 2.98201L9.30078 3.02209L9.34128 3.06218C9.4518 2.95053 9.57969 2.81088 9.69483 2.72259L9.66016 2.67737ZM9.30078 3.02209L9.24465 3.03194C9.24887 3.05596 9.26288 3.07472 9.27486 3.08771C9.28765 3.10157 9.30405 3.11511 9.32224 3.12841C9.3587 3.15506 9.40999 3.18618 9.47346 3.22282L9.50195 3.17346L9.53044 3.12411C9.46692 3.08744 9.42046 3.05903 9.3895 3.0364C9.37399 3.02506 9.36425 3.01652 9.35863 3.01043C9.35221 3.00346 9.35553 3.00438 9.35691 3.01225L9.30078 3.02209ZM9.50195 3.17346L9.47347 3.22282C9.63905 3.31838 9.85858 3.47064 10.0535 3.62008C10.2503 3.77089 10.415 3.91359 10.4759 3.99017L10.5205 3.95471L10.5651 3.91926C10.4942 3.83003 10.3182 3.67936 10.1229 3.52963C9.92577 3.37853 9.7019 3.22307 9.53044 3.12411L9.50195 3.17346ZM10.5205 3.95471L10.4788 3.99358C10.4735 3.98791 10.4737 3.9849 10.4778 3.99533C10.4809 4.00295 10.4847 4.01416 10.4893 4.02929C10.4984 4.05941 10.5094 4.10131 10.5222 4.15323C10.5476 4.2569 10.579 4.39694 10.6145 4.55513C10.6853 4.87058 10.7724 5.25721 10.8593 5.56027L10.9141 5.54456L10.9688 5.52884C10.883 5.22962 10.7967 4.84648 10.7257 4.53016C10.6903 4.37246 10.6586 4.23111 10.6328 4.12608C10.62 4.07364 10.6084 4.02936 10.5983 3.99624C10.5933 3.97976 10.5885 3.96508 10.5837 3.95315C10.5801 3.94403 10.5733 3.9278 10.5622 3.91584L10.5205 3.95471ZM10.9141 5.54456L10.8593 5.56035C10.8769 5.62118 10.9208 5.67797 10.9692 5.72654C11.0186 5.77616 11.0779 5.82251 11.1341 5.86185C11.1905 5.90134 11.245 5.93466 11.2853 5.95806C11.3054 5.96979 11.3221 5.97908 11.3339 5.98548C11.3397 5.98867 11.3444 5.99115 11.3476 5.99285C11.3492 5.9937 11.3504 5.99435 11.3513 5.99481C11.3517 5.99503 11.352 5.99521 11.3523 5.99533C11.3524 5.9954 11.3525 5.99544 11.3526 5.99548C11.3526 5.9955 11.3526 5.99551 11.3527 5.99553C11.3527 5.99553 11.3527 5.99554 11.3527 5.99554C11.3527 5.99555 11.3527 5.99555 11.3789 5.94495C11.4051 5.89434 11.4051 5.89434 11.4051 5.89435C11.4051 5.89435 11.4051 5.89435 11.4051 5.89435C11.4051 5.89435 11.4051 5.89434 11.4051 5.89433C11.4051 5.89432 11.405 5.89429 11.4049 5.89425C11.4048 5.89417 11.4045 5.89404 11.4042 5.89386C11.4035 5.89349 11.4024 5.89293 11.401 5.89218C11.3981 5.89067 11.3939 5.88839 11.3884 5.88541C11.3775 5.87945 11.3617 5.87066 11.3425 5.85952C11.3041 5.8372 11.2525 5.80562 11.1995 5.76849C11.1462 5.7312 11.0928 5.68919 11.0499 5.64614C11.006 5.60203 10.9784 5.56183 10.9688 5.52876L10.9141 5.54456ZM11.3789 5.94495L11.3723 5.88835C11.3571 5.89012 11.3322 5.8888 11.2984 5.88348C11.2655 5.87833 11.2281 5.87003 11.1898 5.86011C11.1131 5.84025 11.0359 5.81473 10.9907 5.79782L10.9707 5.8512L10.9508 5.90458C10.9994 5.92276 11.0803 5.9495 11.1612 5.97044C11.2017 5.98091 11.243 5.99015 11.2806 5.99607C11.3173 6.00184 11.3546 6.00516 11.3855 6.00154L11.3789 5.94495ZM10.9707 5.8512L10.9148 5.84006C10.9114 5.8571 10.9117 5.8781 10.9127 5.89716C10.9139 5.91769 10.9163 5.94167 10.9196 5.96724C10.9261 6.01846 10.9362 6.07888 10.9466 6.13621C10.957 6.19367 10.9679 6.24868 10.9762 6.28928C10.9803 6.30959 10.9838 6.32633 10.9863 6.338C10.9875 6.34384 10.9885 6.34842 10.9892 6.35154C10.9895 6.35311 10.9897 6.35431 10.9899 6.35512C10.99 6.35553 10.9901 6.35584 10.9901 6.35605C10.9901 6.35616 10.9902 6.35624 10.9902 6.35629C10.9902 6.35632 10.9902 6.35634 10.9902 6.35636C10.9902 6.35637 10.9902 6.35637 10.9902 6.35638C10.9902 6.35638 10.9902 6.35639 11.0459 6.34436C11.1016 6.33233 11.1016 6.33234 11.1016 6.33233C11.1016 6.33233 11.1016 6.33233 11.1016 6.33232C11.1016 6.33231 11.1016 6.3323 11.1016 6.33227C11.1016 6.33223 11.1016 6.33216 11.1015 6.33206C11.1015 6.33187 11.1014 6.33158 11.1014 6.3312C11.1012 6.33043 11.1009 6.32927 11.1006 6.32776C11.1 6.32472 11.099 6.32025 11.0978 6.31452C11.0954 6.30305 11.092 6.28655 11.0879 6.26652C11.0797 6.22642 11.069 6.17226 11.0587 6.11585C11.0485 6.0593 11.0388 6.00114 11.0326 5.95283C11.0296 5.92863 11.0274 5.90761 11.0265 5.89087C11.0261 5.88251 11.0259 5.87572 11.026 5.87045C11.0261 5.86783 11.0262 5.86582 11.0264 5.86434C11.0265 5.86281 11.0266 5.86221 11.0266 5.86233L10.9707 5.8512ZM11.0459 6.34436C11.0976 6.32046 11.0976 6.32048 11.0976 6.32049C11.0976 6.32049 11.0976 6.3205 11.0977 6.32051C11.0977 6.32052 11.0977 6.32052 11.0977 6.32053C11.0977 6.32054 11.0977 6.32053 11.0977 6.32052C11.0976 6.32049 11.0976 6.32041 11.0975 6.32027C11.0974 6.32001 11.0972 6.31955 11.0969 6.31888C11.0963 6.31754 11.0954 6.31539 11.0941 6.3124C11.0916 6.30642 11.0877 6.29708 11.0827 6.2842C11.0727 6.25844 11.058 6.21853 11.04 6.16298C11.0039 6.05188 10.9543 5.87825 10.9014 5.63032L10.8457 5.64221L10.79 5.6541C10.8436 5.90561 10.8942 6.08306 10.9316 6.19818C10.9503 6.25573 10.9657 6.29771 10.9765 6.32557C10.9819 6.3395 10.9862 6.3499 10.9892 6.35695C10.9907 6.36048 10.9919 6.36317 10.9927 6.36505C10.9931 6.36598 10.9935 6.36672 10.9937 6.36725C10.9938 6.36752 10.9939 6.36774 10.994 6.3679C10.994 6.36799 10.9941 6.36806 10.9941 6.36812C10.9941 6.36815 10.9941 6.36817 10.9941 6.3682C10.9941 6.36821 10.9942 6.36822 10.9942 6.36823C10.9942 6.36824 10.9942 6.36826 11.0459 6.34436ZM10.8457 5.64221L10.9002 5.62571C10.7516 5.13437 10.5882 4.62071 10.363 4.14516L10.3115 4.16956L10.26 4.19395C10.4813 4.66107 10.6425 5.16747 10.7912 5.65871L10.8457 5.64221ZM10.3115 4.16956L10.3578 4.13628C10.2426 3.97616 9.994 3.75381 9.7473 3.56344C9.62306 3.46758 9.49758 3.37851 9.38705 3.30802C9.27789 3.23841 9.17913 3.18419 9.1096 3.16132L9.0918 3.21545L9.07399 3.26959C9.12885 3.28763 9.21726 3.33492 9.32577 3.40411C9.43289 3.47243 9.55556 3.55945 9.67767 3.65368C9.92366 3.84349 10.1605 4.05727 10.2653 4.20283L10.3115 4.16956ZM9.0918 3.21545L9.12003 3.16596C8.9767 3.0842 8.83017 3.00964 8.67949 2.93371C8.5285 2.85762 8.37331 2.78013 8.21082 2.69176L8.18359 2.74182L8.15637 2.79188C8.32077 2.88129 8.47777 2.95967 8.6282 3.03548C8.77895 3.11145 8.92307 3.18482 9.06356 3.26495L9.0918 3.21545ZM8.18359 2.74182L8.21047 2.69157C7.4074 2.26206 6.38003 1.61205 4.75109 1.35448L4.74219 1.41077L4.73329 1.46705C6.33941 1.72102 7.34877 2.35995 8.15672 2.79207L8.18359 2.74182ZM4.74219 1.41077L4.73602 1.35412C4.55066 1.37431 4.4608 1.42475 4.25851 1.51281L4.28125 1.56506L4.30399 1.61731C4.51313 1.52627 4.58436 1.48528 4.74836 1.46742L4.74219 1.41077ZM4.28125 1.56506L4.24214 1.52362C4.01286 1.73995 3.8636 1.97186 3.69427 2.18883C3.52388 2.40714 3.32663 2.62039 2.99261 2.81672L3.02148 2.86584L3.05036 2.91497C3.40071 2.70904 3.60825 2.48428 3.78411 2.25895C3.96103 2.03227 4.09947 1.81492 4.32036 1.60651L4.28125 1.56506ZM3.02148 2.86584L2.96811 2.8858C2.98154 2.92174 3.00305 2.95251 3.03419 2.97559C3.0649 2.99835 3.10173 3.01122 3.14239 3.01699L3.15039 2.96057L3.15839 2.90415C3.13141 2.90032 3.11385 2.89276 3.10205 2.88402C3.09068 2.87559 3.08156 2.8638 3.07486 2.84589L3.02148 2.86584ZM3.15039 2.96057L3.13901 3.01641C3.35747 3.06094 3.64488 3.19504 3.96301 3.36591C4.28233 3.53741 4.61762 3.73737 4.94425 3.91677L4.97168 3.86682L4.99911 3.81687C4.68097 3.64214 4.33325 3.43539 4.01694 3.2655C3.69943 3.09497 3.39859 2.95301 3.16177 2.90473L3.15039 2.96057ZM4.97168 3.86682L4.99564 3.81512C4.98605 3.81067 4.13147 3.41547 3.48279 3.17377L3.46289 3.22717L3.44299 3.28057C4.087 3.52052 4.93785 3.91395 4.94772 3.91853L4.97168 3.86682ZM3.46289 3.22717L3.48278 3.17377C3.21967 3.07575 2.9639 3.0422 2.84632 3.02253L2.83691 3.07874L2.82751 3.13494C2.9491 3.15528 3.19241 3.18722 3.443 3.28057L3.46289 3.22717ZM2.83691 3.07874L2.84759 3.02276C2.58128 2.97195 2.24169 2.96469 1.90522 2.95926L1.9043 3.01624L1.90338 3.07321C2.24248 3.07869 2.5715 3.08611 2.82623 3.13471L2.83691 3.07874ZM1.9043 3.01624L1.86357 2.97638C1.53236 3.31481 1.33614 3.65405 1.21577 4.06972L1.27051 4.08557L1.32524 4.10142C1.4402 3.70445 1.62651 3.38155 1.94502 3.05609L1.9043 3.01624ZM1.27051 4.08557L1.21954 4.06009L1.21759 4.06399L1.26855 4.08948L1.31952 4.11496L1.32148 4.11106L1.27051 4.08557ZM1.26855 4.08948L1.21181 4.08422C1.19127 4.30581 1.20027 4.45748 1.21883 4.57364C1.22808 4.63152 1.23959 4.67984 1.25045 4.72236C1.26152 4.7657 1.27113 4.80024 1.27811 4.83505L1.33398 4.82385L1.38986 4.81265C1.3821 4.77397 1.37113 4.73433 1.36087 4.69415C1.3504 4.65315 1.33984 4.60862 1.33137 4.55565C1.3145 4.4501 1.30552 4.30809 1.3253 4.09474L1.26855 4.08948ZM1.33398 4.82385L1.27851 4.83691C1.39997 5.35298 1.83083 5.8341 2.31823 6.31838L2.3584 6.27795L2.39856 6.23753C1.90789 5.75 1.50233 5.29043 1.38945 4.8108L1.33398 4.82385ZM2.3584 6.27795L2.31823 6.31838C2.45639 6.45564 2.59152 6.58225 2.70721 6.73775L2.75293 6.70374L2.79865 6.66972C2.67653 6.50559 2.5334 6.3715 2.39856 6.23753L2.3584 6.27795ZM2.75293 6.70374L2.70552 6.73534L2.70747 6.73827L2.75488 6.70667L2.8023 6.67506L2.80034 6.67213L2.75293 6.70374ZM2.75488 6.70667L2.71459 6.74696L2.71752 6.74989L2.75781 6.70959L2.79811 6.6693L2.79518 6.66637L2.75488 6.70667ZM2.75781 6.70959L2.71073 6.74169C2.8069 6.88277 2.87063 7.08776 2.94027 7.30704C3.00822 7.521 3.08173 7.74806 3.19978 7.91272L3.24609 7.87952L3.29241 7.84631C3.18689 7.69913 3.11821 7.4908 3.0489 7.27255C2.98127 7.05962 2.91265 6.83556 2.8049 6.6775L2.75781 6.70959ZM3.24609 7.87952L3.20731 7.92127C3.22106 7.93404 3.2381 7.9385 3.24496 7.94022C3.25468 7.94266 3.26557 7.9443 3.27646 7.94552C3.29844 7.94798 3.32666 7.94937 3.35859 7.9502C3.42263 7.95185 3.5079 7.95136 3.60062 7.95123C3.78814 7.95097 4.00752 7.95225 4.16811 7.97407L4.17578 7.9176L4.18345 7.86114C4.01372 7.83808 3.78622 7.837 3.60046 7.83726C3.50653 7.83739 3.42356 7.83787 3.36153 7.83627C3.33042 7.83546 3.30614 7.83416 3.28915 7.83226C3.28054 7.8313 3.27533 7.83034 3.27268 7.82968C3.26719 7.8283 3.27562 7.82916 3.28488 7.83777L3.24609 7.87952ZM4.17578 7.9176L4.16811 7.97407C4.31647 7.99422 4.46846 7.99395 4.62216 7.97514L4.61523 7.91858L4.60831 7.86202C4.46349 7.87974 4.32134 7.87987 4.18345 7.86114L4.17578 7.9176ZM4.61523 7.91858L4.62908 7.97386C5.08888 7.85872 5.39365 7.7473 5.74927 7.64421L5.7334 7.58948L5.71753 7.53475C5.35263 7.64053 5.0598 7.74851 4.60139 7.8633L4.61523 7.91858ZM5.7334 7.58948L5.76051 7.6396C5.83565 7.59895 6.01138 7.52771 6.19241 7.46097C6.37326 7.39429 6.55153 7.33498 6.63082 7.31691L6.61816 7.26135L6.6055 7.20579C6.51802 7.22573 6.33319 7.28759 6.15298 7.35403C5.97296 7.42041 5.78969 7.49423 5.70628 7.53936L5.7334 7.58948ZM6.61816 7.26135H6.56118V7.26526H6.61816H6.67515V7.26135H6.61816ZM6.61816 7.26526L6.63618 7.31932C7.25776 7.11217 7.8443 6.99169 8.4268 6.86887L8.41504 6.81311L8.40328 6.75735C7.82198 6.87992 7.22896 7.00164 6.60015 7.2112L6.61816 7.26526ZM8.41504 6.81311L8.35976 6.79927C8.29589 7.05448 8.24679 7.26495 8.23035 7.537C8.21394 7.80851 8.23015 8.13923 8.29407 8.63678L8.35059 8.62952L8.40711 8.62226C8.34363 8.12806 8.32832 7.80527 8.34411 7.54387C8.35987 7.283 8.4067 7.08115 8.47032 6.82695L8.41504 6.81311ZM8.35059 8.62952L8.29543 8.64383C8.31901 8.73471 8.37796 8.81569 8.45432 8.88659C8.53096 8.95774 8.62837 9.02174 8.73491 9.07832C8.948 9.19147 9.20475 9.27862 9.42451 9.33418L9.43848 9.27893L9.45244 9.22368C9.23831 9.16955 8.99087 9.08519 8.78836 8.97766C8.68711 8.92389 8.59886 8.86526 8.53187 8.80306C8.46459 8.74061 8.42191 8.67752 8.40574 8.6152L8.35059 8.62952ZM9.43848 9.27893L9.38924 9.25024C9.28737 9.42506 9.13719 9.66659 9.11769 9.94456C9.0977 10.2295 9.21455 10.5413 9.61602 10.8588L9.65137 10.8141L9.68672 10.7694C9.30787 10.4698 9.21459 10.1919 9.23138 9.95253C9.24866 9.70618 9.38219 9.48871 9.48771 9.30762L9.43848 9.27893ZM9.65137 10.8141L9.60381 10.8455C9.71163 11.0088 9.79344 11.1874 9.89127 11.3685L9.94141 11.3414L9.99154 11.3143C9.89849 11.1421 9.81034 10.9515 9.69893 10.7827L9.65137 10.8141ZM9.94141 11.3414V11.2844H9.94043V11.3414V11.3984H9.94141V11.3414ZM9.94043 11.3414L9.88704 11.3614C10.0186 11.7138 10.2507 11.9135 10.5279 11.9482C10.8021 11.9826 11.1029 11.8532 11.3703 11.5869L11.3301 11.5465L11.2899 11.5061C11.0375 11.7574 10.7697 11.8637 10.5421 11.8351C10.3176 11.807 10.1147 11.6454 9.99382 11.3215L9.94043 11.3414ZM11.3301 11.5465L11.3669 11.59L11.5202 11.4601L11.4834 11.4166L11.4466 11.3731L11.2932 11.503L11.3301 11.5465ZM11.4834 11.4166L11.4574 11.4673C11.8486 11.6683 12.2528 12.004 13.0137 11.8712L13.0039 11.8151L12.9941 11.7589C12.2803 11.8835 11.9178 11.5757 11.5094 11.3659L11.4834 11.4166ZM13.0039 11.8151L13.0125 11.8714C13.3338 11.8226 13.6029 11.6238 13.8372 11.3506C14.0715 11.0775 14.2758 10.7245 14.4666 10.3569L14.416 10.3307L14.3654 10.3044C14.1754 10.6705 13.9761 11.0138 13.7507 11.2764C13.5254 11.5391 13.2788 11.7157 12.9953 11.7587L13.0039 11.8151ZM14.416 10.3307L14.4682 10.3536C14.6536 9.93082 14.7757 9.46744 14.8116 9.06724L14.7549 9.06213L14.6981 9.05703C14.6634 9.44368 14.5448 9.89509 14.3638 10.3078L14.416 10.3307ZM14.7549 9.06213L14.8116 9.06727C14.8128 9.054 14.8114 9.02153 14.807 8.98409C14.8023 8.94487 14.7936 8.89464 14.7782 8.84502C14.763 8.79618 14.7399 8.74339 14.7038 8.7029C14.666 8.66059 14.6129 8.6311 14.5446 8.63616L14.5488 8.69299L14.553 8.74982C14.5794 8.74787 14.5998 8.75755 14.6188 8.77882C14.6394 8.80191 14.6564 8.8371 14.6694 8.87885C14.6821 8.91982 14.6896 8.96278 14.6938 8.99756C14.6958 9.01483 14.697 9.02969 14.6976 9.04079C14.6983 9.05323 14.698 9.05808 14.6981 9.057L14.7549 9.06213ZM14.5488 8.69299L14.5445 8.63618C14.3901 8.64801 14.3135 8.69487 14.237 8.74472C14.166 8.79096 14.0948 8.83979 13.9421 8.87263L13.9541 8.92834L13.9661 8.98406C14.1394 8.94677 14.2248 8.88872 14.2992 8.84022C14.3681 8.79532 14.4259 8.75957 14.5532 8.74981L14.5488 8.69299ZM13.9541 8.92834L13.9576 8.87147C13.861 8.86556 13.7519 8.86809 13.6652 8.86963C13.6211 8.87041 13.5834 8.87094 13.5545 8.87018C13.5401 8.8698 13.5291 8.86912 13.5213 8.8682C13.5113 8.86702 13.5129 8.86609 13.5185 8.86899L13.4922 8.91956L13.4659 8.97012C13.4804 8.97767 13.4973 8.98013 13.5079 8.98138C13.5207 8.9829 13.5357 8.98369 13.5515 8.98411C13.5833 8.98495 13.6237 8.98436 13.6672 8.98358C13.7556 8.98201 13.8595 8.97965 13.9506 8.98522L13.9541 8.92834ZM13.4922 8.91956L13.4657 8.86908L13.4452 8.87982L13.4717 8.9303L13.4981 8.98078L13.5186 8.97003L13.4922 8.91956ZM13.4717 8.9303L13.4181 8.91082C13.3268 9.16191 13.23 9.41595 13.1311 9.65033L13.1836 9.67249L13.2361 9.69464C13.336 9.45782 13.4336 9.20181 13.5252 8.94978L13.4717 8.9303ZM13.1836 9.67249L13.1402 9.63551C13.0234 9.77257 12.9906 9.80099 12.9418 9.84998C12.891 9.90093 12.8261 9.97081 12.6484 10.1871L12.6924 10.2233L12.7364 10.2594C12.9134 10.0441 12.9756 9.97753 13.0225 9.93044C13.0714 9.8814 13.1069 9.85022 13.227 9.70946L13.1836 9.67249ZM12.6924 10.2233L12.7402 10.2543C12.7963 10.1677 12.8592 10.0854 12.922 9.99604C12.9834 9.90859 13.0426 9.817 13.0837 9.72013L13.0312 9.69788L12.9788 9.67563C12.9426 9.76103 12.8891 9.84462 12.8287 9.93054C12.7697 10.0145 12.7019 10.1038 12.6446 10.1923L12.6924 10.2233ZM13.0312 9.69788L13.0832 9.72135C13.135 9.60667 13.206 9.47098 13.2375 9.35878L13.1826 9.34338L13.1278 9.32799C13.0994 9.42913 13.036 9.54899 12.9793 9.67441L13.0312 9.69788ZM13.1826 9.34338L13.2081 9.2924C13.1511 9.26392 13.0707 9.25058 13.0056 9.24565C12.9722 9.24312 12.9402 9.24263 12.9141 9.24402C12.9011 9.24471 12.8887 9.24591 12.8777 9.24782C12.8689 9.24935 12.8535 9.25248 12.8402 9.26072L12.8701 9.3092L12.9001 9.35769C12.8935 9.36176 12.89 9.36136 12.8972 9.3601C12.9023 9.35922 12.9099 9.35837 12.9202 9.35783C12.9405 9.35674 12.9675 9.35706 12.997 9.3593C13.0581 9.36392 13.1204 9.37601 13.1572 9.39437L13.1826 9.34338ZM12.8701 9.3092L12.8412 9.26012C12.6762 9.35742 12.578 9.45845 12.4977 9.55916C12.4155 9.66233 12.3614 9.75112 12.2706 9.84473L12.3115 9.8844L12.3524 9.92407C12.4475 9.826 12.5151 9.72019 12.5868 9.6302C12.6605 9.53773 12.7487 9.447 12.8991 9.35829L12.8701 9.3092ZM12.3115 9.8844L12.3598 9.91462C12.4275 9.80638 12.4917 9.69105 12.5556 9.58314C12.6204 9.47384 12.6867 9.36933 12.7622 9.27561L12.7178 9.23987L12.6734 9.20412C12.5927 9.30426 12.5232 9.41434 12.4576 9.52501C12.3912 9.63707 12.3302 9.74708 12.2632 9.85418L12.3115 9.8844ZM12.7178 9.23987L12.7643 9.27278C12.7589 9.2804 12.7534 9.28273 12.7548 9.28204C12.7554 9.28172 12.7579 9.28059 12.7633 9.27903C12.7741 9.27588 12.7895 9.27289 12.8091 9.26985C12.8445 9.26435 12.8974 9.25848 12.9345 9.25073L12.9229 9.19495L12.9112 9.13916C12.8772 9.14626 12.8364 9.15027 12.7916 9.15723C12.771 9.16041 12.7496 9.1643 12.7314 9.16962C12.7222 9.17228 12.7122 9.17578 12.7028 9.18061C12.6941 9.18506 12.6811 9.19304 12.6713 9.20696L12.7178 9.23987ZM12.9229 9.19495L12.9325 9.13878C12.8775 9.12934 12.7994 9.11487 12.7316 9.10275C12.698 9.09674 12.667 9.0913 12.6432 9.08747C12.6313 9.08556 12.6208 9.08398 12.6125 9.08292C12.6084 9.08239 12.6043 9.08193 12.6006 9.08163C12.5983 9.08145 12.5916 9.08089 12.5846 9.08166L12.5908 9.13831L12.597 9.19495C12.5921 9.19549 12.5889 9.19503 12.5915 9.19524C12.5927 9.19533 12.5948 9.19555 12.5981 9.19597C12.6045 9.1968 12.6136 9.19815 12.6251 9.19999C12.6478 9.20365 12.678 9.20893 12.7115 9.21494C12.7781 9.22684 12.8577 9.24159 12.9132 9.25111L12.9229 9.19495ZM12.5908 9.13831L12.5775 9.08291C12.4613 9.11089 12.3726 9.17522 12.2962 9.24362C12.2583 9.27751 12.2217 9.314 12.1871 9.34743C12.1518 9.38149 12.1178 9.41323 12.0822 9.44101L12.1172 9.48596L12.1522 9.53091C12.1929 9.49921 12.2305 9.46394 12.2663 9.42939C12.3027 9.39423 12.3364 9.36052 12.3722 9.32856C12.4429 9.26526 12.5148 9.21524 12.6042 9.19371L12.5908 9.13831ZM12.1172 9.48596L12.164 9.51841C12.2779 9.35398 12.3762 9.19313 12.5125 9.05992L12.4727 9.01917L12.4328 8.97841C12.2863 9.12159 12.1792 9.2964 12.0703 9.45352L12.1172 9.48596ZM12.4727 9.01917L12.5147 9.05766C12.5055 9.06772 12.4954 9.07107 12.4939 9.07158C12.4923 9.07216 12.491 9.07249 12.4903 9.07265C12.4896 9.07282 12.4892 9.0729 12.4891 9.07291C12.489 9.07293 12.4895 9.07284 12.4909 9.07272C12.4923 9.0726 12.4941 9.07249 12.4964 9.0724C12.5062 9.07203 12.5212 9.07225 12.5409 9.07328C12.5799 9.07533 12.6335 9.08034 12.6933 9.08835C12.814 9.10452 12.9531 9.132 13.0453 9.16878L13.0664 9.11584L13.0875 9.06291C12.9818 9.02077 12.8314 8.99186 12.7084 8.97539C12.6463 8.96707 12.5896 8.9617 12.5468 8.95947C12.5256 8.95835 12.5068 8.95795 12.4921 8.95851C12.485 8.95878 12.4772 8.95933 12.4701 8.96054C12.4666 8.96114 12.4616 8.96215 12.4563 8.96402C12.4525 8.96534 12.4408 8.9696 12.4306 8.98067L12.4727 9.01917ZM13.0664 9.11584L13.0095 9.11869L13.0134 9.19682L13.0703 9.19397L13.1272 9.19112L13.1233 9.113L13.0664 9.11584ZM13.0703 9.19397L13.0489 9.24678L13.1622 9.29268L13.1836 9.23987L13.205 9.18705L13.0917 9.14116L13.0703 9.19397ZM13.1836 9.23987L13.2366 9.26069L13.3187 9.05171L13.2656 9.03088L13.2126 9.01006L13.1305 9.21905L13.1836 9.23987ZM13.2656 9.03088L13.2737 8.97447L13.1917 8.96275L13.1836 9.01917L13.1755 9.07558L13.2576 9.0873L13.2656 9.03088ZM13.1836 9.01917L13.2055 8.96655C13.0402 8.89775 12.8993 8.84623 12.7512 8.78835L12.7305 8.84143L12.7097 8.89451C12.8607 8.9535 12.9978 9.00356 13.1617 9.07178L13.1836 9.01917ZM12.7305 8.84143L12.7337 8.89832L12.8187 8.89344L12.8154 8.83655L12.8122 8.77966L12.7272 8.78454L12.7305 8.84143ZM12.8154 8.83655L12.8701 8.85277C12.8856 8.80053 12.8969 8.75324 12.9119 8.71087C12.9191 8.6905 12.9261 8.67474 12.9329 8.66346C12.94 8.65167 12.9442 8.64929 12.9439 8.64949L12.917 8.59924L12.8901 8.549C12.8648 8.56254 12.8474 8.58448 12.8353 8.60465C12.8228 8.62534 12.8129 8.64921 12.8045 8.6728C12.7884 8.71836 12.7739 8.77637 12.7608 8.82032L12.8154 8.83655ZM12.917 8.59924L12.9654 8.62938C12.9851 8.59766 12.9968 8.55897 12.9794 8.52061C12.9642 8.48707 12.9331 8.46986 12.9133 8.46063C12.893 8.45113 12.8664 8.44239 12.8509 8.43658C12.831 8.4291 12.8227 8.42425 12.8199 8.42165L12.7812 8.4635L12.7426 8.50535C12.7636 8.52477 12.7916 8.53602 12.8108 8.54326C12.8346 8.55219 12.85 8.55681 12.8651 8.56386C12.8807 8.57119 12.8783 8.57371 12.8756 8.56765C12.8706 8.55677 12.8785 8.55331 12.8686 8.56911L12.917 8.59924ZM12.7812 8.4635L12.7678 8.51887L12.924 8.55695L12.9375 8.50159L12.951 8.44622L12.7947 8.40814L12.7812 8.4635ZM12.9375 8.50159L12.9369 8.55857C13.0375 8.55959 13.1313 8.55668 13.2038 8.57683C13.2385 8.58645 13.2627 8.6001 13.2788 8.61774C13.2941 8.63456 13.3063 8.65979 13.3083 8.70163L13.3652 8.69885L13.4222 8.69608C13.4191 8.63255 13.3991 8.58068 13.3631 8.54106C13.3278 8.50226 13.2815 8.48013 13.2344 8.46702C13.1433 8.44171 13.0284 8.44552 12.9381 8.4446L12.9375 8.50159ZM13.3652 8.69885L13.3913 8.74952L13.4577 8.71534L13.4316 8.66467L13.4056 8.61401L13.3392 8.64819L13.3652 8.69885ZM13.4316 8.66467L13.4886 8.66351C13.4869 8.57999 13.4916 8.47553 13.4826 8.37588C13.4735 8.27339 13.4496 8.16606 13.3873 8.06535L13.3389 8.09534L13.2904 8.12532C13.3401 8.20565 13.3609 8.29375 13.3691 8.38606C13.3777 8.4812 13.3727 8.57089 13.3747 8.66584L13.4316 8.66467ZM13.3389 8.09534L13.3831 8.05946C13.384 8.06047 13.3822 8.05817 13.3766 8.04881C13.3718 8.04074 13.3654 8.02965 13.3576 8.01569C13.342 7.98782 13.3213 7.94956 13.2968 7.90328C13.248 7.81077 13.1847 7.68698 13.1186 7.55174L13.0674 7.57678L13.0162 7.60182C13.0829 7.73809 13.1467 7.86292 13.1961 7.95648C13.2207 8.00324 13.2419 8.04238 13.2581 8.07132C13.2662 8.08576 13.2732 8.09792 13.2788 8.10734C13.2837 8.11546 13.2895 8.12487 13.2946 8.13121L13.3389 8.09534ZM13.0674 7.57678L13.0818 7.52164L12.8347 7.45719L12.8203 7.51233L12.8059 7.56747L13.053 7.63192L13.0674 7.57678ZM12.8203 7.51233V7.56931H13.0361V7.51233V7.45534H12.8203V7.51233ZM13.0361 7.51233L13.0875 7.48759C12.9534 7.2095 12.8185 6.9043 12.7741 6.72335L12.7188 6.73694L12.6634 6.75053C12.7112 6.94496 12.8516 7.26074 12.9848 7.53707L13.0361 7.51233ZM12.7188 6.73694L12.7741 6.72329C12.7591 6.66274 12.731 6.62384 12.7015 6.59988C12.6726 6.57645 12.6458 6.57015 12.6372 6.56857L12.627 6.62463L12.6168 6.6807C12.613 6.68002 12.62 6.68057 12.6297 6.68841C12.6387 6.69572 12.654 6.71253 12.6634 6.75059L12.7188 6.73694ZM12.627 6.62463L12.6837 6.62928L12.6974 6.46229L12.6406 6.45764L12.5838 6.45299L12.5702 6.61998L12.627 6.62463ZM12.6406 6.45764L12.6021 6.49965C12.6022 6.49968 12.6449 6.53889 12.6964 6.58554C12.7477 6.63198 12.8084 6.6865 12.8439 6.7168L12.8809 6.67346L12.9179 6.63013C12.8839 6.6011 12.8244 6.54771 12.7729 6.50107C12.7217 6.45464 12.6791 6.4156 12.6791 6.41563L12.6406 6.45764ZM12.8809 6.67346L12.842 6.71514C12.9127 6.78102 12.9733 6.9032 13.0218 7.02417C13.0455 7.08334 13.0653 7.13949 13.0816 7.18513C13.0896 7.20768 13.097 7.22816 13.1035 7.24469C13.1093 7.25969 13.1163 7.27653 13.1241 7.28847L13.1719 7.25745L13.2197 7.22643C13.2199 7.22679 13.219 7.22533 13.2168 7.22061C13.2149 7.21627 13.2125 7.21052 13.2096 7.2032C13.2039 7.1885 13.197 7.16961 13.1889 7.14681C13.1728 7.10176 13.1523 7.04339 13.1276 6.98178C13.0793 6.8612 13.0109 6.71681 12.9197 6.63178L12.8809 6.67346ZM13.1719 7.25745L13.1214 7.28398C13.2503 7.52881 13.4316 7.84943 13.5702 8.155L13.6221 8.13147L13.674 8.10794C13.5336 7.79832 13.3488 7.47127 13.2223 7.23091L13.1719 7.25745ZM13.6221 8.13147L13.5717 8.1581C13.5712 8.15712 13.5724 8.15934 13.5746 8.16696C13.5766 8.17392 13.579 8.1837 13.5815 8.19658C13.5865 8.22231 13.5916 8.25884 13.5952 8.30702C13.6023 8.40332 13.6033 8.54465 13.5858 8.73666L13.6426 8.74182L13.6993 8.74698C13.7173 8.54974 13.7165 8.40206 13.7088 8.29858C13.705 8.24687 13.6994 8.20582 13.6934 8.17489C13.6878 8.146 13.681 8.12093 13.6725 8.10484L13.6221 8.13147ZM13.6426 8.74182L13.5963 8.70863C13.6035 8.69857 13.612 8.69372 13.6148 8.69219C13.6186 8.69017 13.6216 8.68909 13.623 8.68864C13.6246 8.68811 13.6257 8.68782 13.6263 8.6877C13.6268 8.68756 13.6272 8.6875 13.6272 8.6875C13.6272 8.6875 13.627 8.68753 13.6267 8.68758C13.6263 8.68763 13.6258 8.6877 13.6252 8.68777C13.624 8.68793 13.6223 8.68811 13.6203 8.6883C13.6119 8.68908 13.5997 8.68981 13.585 8.69053C13.5571 8.69187 13.5187 8.69318 13.4919 8.69469L13.4951 8.75159L13.4983 8.80848C13.5254 8.80695 13.559 8.80588 13.5905 8.80436C13.6054 8.80364 13.6197 8.80281 13.6309 8.80177C13.6363 8.80127 13.6423 8.8006 13.6477 8.79961C13.6502 8.79915 13.6543 8.79831 13.6589 8.79681C13.6611 8.79606 13.6649 8.79469 13.6692 8.79238C13.6725 8.79054 13.6815 8.78539 13.6889 8.77501L13.6426 8.74182ZM13.4951 8.75159L13.4885 8.80819C13.7311 8.83648 13.8991 8.78782 14.0634 8.71722C14.2279 8.6465 14.378 8.5599 14.6049 8.49797L14.5898 8.44299L14.5748 8.38802C14.3378 8.45272 14.1703 8.5472 14.0184 8.61252C13.8661 8.67796 13.7186 8.72028 13.5017 8.69499L13.4951 8.75159ZM14.5898 8.44299L14.6017 8.49873C14.6173 8.49542 14.6374 8.49798 14.664 8.51202C14.691 8.52622 14.7209 8.55034 14.753 8.58369C14.817 8.65039 14.8812 8.74533 14.9382 8.84205L14.9873 8.81311L15.0364 8.78417C14.9779 8.68499 14.9084 8.58104 14.8352 8.50475C14.7985 8.4666 14.7589 8.4332 14.7172 8.41119C14.6751 8.38904 14.6275 8.37674 14.578 8.38725L14.5898 8.44299ZM14.9873 8.81311L14.9433 8.84934C14.9389 8.84398 14.9384 8.84032 14.9392 8.84305C14.9398 8.84505 14.9407 8.84923 14.9415 8.85626C14.9431 8.87033 14.9438 8.89087 14.9428 8.91823C14.9409 8.97266 14.9328 9.04827 14.9178 9.14128C14.8877 9.32698 14.8304 9.57775 14.7417 9.85918C14.5642 10.4228 14.2626 11.1036 13.8075 11.6303L13.8506 11.6676L13.8937 11.7049C14.3629 11.162 14.6704 10.465 14.8504 9.89342C14.9406 9.60728 14.9992 9.35114 15.0303 9.15949C15.0457 9.06382 15.0545 8.98314 15.0567 8.92228C15.0578 8.892 15.0573 8.86514 15.0547 8.84313C15.0534 8.83213 15.0515 8.8211 15.0485 8.81085C15.0457 8.80134 15.0408 8.78841 15.0313 8.77688L14.9873 8.81311ZM13.8506 11.6676L13.814 11.6239C13.1119 12.212 12.0939 12.0742 11.4654 11.6129L11.4316 11.6588L11.3979 11.7048C12.0563 12.188 13.134 12.3421 13.8872 11.7113L13.8506 11.6676ZM11.4316 11.6588L11.3852 11.6258C11.274 11.782 11.1799 11.9297 11.0084 12.013C10.8394 12.0952 10.5838 12.1187 10.1432 11.988L10.127 12.0426L10.1107 12.0972C10.5642 12.2318 10.8527 12.2155 11.0583 12.1155C11.2615 12.0167 11.3727 11.8398 11.4781 11.6919L11.4316 11.6588ZM10.127 12.0426L10.1583 11.995C10.0346 11.9136 9.96527 11.8171 9.91206 11.71C9.88505 11.6556 9.86236 11.5989 9.83841 11.5388C9.81471 11.4793 9.78981 11.4165 9.75926 11.3536L9.70801 11.3785L9.65675 11.4034C9.68517 11.4619 9.70857 11.5208 9.73252 11.5809C9.75623 11.6405 9.78056 11.7015 9.80999 11.7607C9.86964 11.8808 9.95087 11.995 10.0956 12.0902L10.127 12.0426ZM9.70801 11.3785L9.69465 11.3231C9.53244 11.3622 9.42029 11.3407 9.12836 11.3082L9.12207 11.3649L9.11578 11.4215C9.3973 11.4528 9.5347 11.4789 9.72136 11.4339L9.70801 11.3785ZM9.12207 11.3649L9.12128 11.3079C9.0758 11.3085 9.02599 11.3093 8.97964 11.3382C8.93441 11.3665 8.90052 11.4161 8.8641 11.4887L8.91504 11.5143L8.96598 11.5398C9.00113 11.4697 9.02335 11.4453 9.04004 11.4349C9.05561 11.4252 9.07352 11.4225 9.12286 11.4218L9.12207 11.3649ZM8.91504 11.5143L8.86764 11.5459L9.103 11.8985L9.15039 11.8668L9.19778 11.8352L8.96243 11.4826L8.91504 11.5143ZM9.15039 11.8668L9.10746 11.9043C9.12827 11.9281 9.14586 11.9545 9.17759 11.9953C9.20748 12.0338 9.24511 12.0783 9.29783 12.1272C9.40331 12.2248 9.566 12.3367 9.84294 12.4544L9.86523 12.402L9.88753 12.3495C9.61981 12.2357 9.46905 12.1304 9.37526 12.0435C9.32834 12.0001 9.29488 11.9605 9.2676 11.9254C9.24216 11.8927 9.21649 11.8559 9.19332 11.8293L9.15039 11.8668ZM9.86523 12.402L9.83995 12.453C9.86457 12.4652 9.89508 12.4715 9.92239 12.4752C9.95091 12.4791 9.98139 12.4807 10.009 12.4811C10.0366 12.4815 10.0624 12.4807 10.0819 12.4795C10.0915 12.4788 10.1002 12.478 10.1072 12.4771C10.1105 12.4767 10.1147 12.476 10.1188 12.4751C10.1206 12.4746 10.1241 12.4738 10.1282 12.4722C10.1302 12.4714 10.1337 12.47 10.1377 12.4675C10.1408 12.4656 10.1495 12.4601 10.1565 12.4492L10.1084 12.4186L10.0603 12.388C10.0672 12.3772 10.0757 12.3718 10.0785 12.3701C10.0823 12.3678 10.0855 12.3665 10.087 12.3659C10.0902 12.3647 10.0926 12.3642 10.0929 12.3641C10.0941 12.3638 10.094 12.3639 10.0921 12.3641C10.0887 12.3646 10.0827 12.3652 10.0744 12.3657C10.058 12.3668 10.0353 12.3675 10.0107 12.3672C9.98592 12.3668 9.96023 12.3653 9.93761 12.3623C9.91378 12.3591 9.89816 12.3547 9.89052 12.3509L9.86523 12.402ZM10.1084 12.4186L10.0912 12.3642L10.0356 12.3818L10.0527 12.4362L10.0699 12.4905L10.1256 12.4729L10.1084 12.4186ZM10.0527 12.4362L10.0352 12.3819C9.91778 12.4198 9.77285 12.4032 9.64972 12.374C9.58924 12.3596 9.53621 12.3428 9.49729 12.3296C9.47521 12.3222 9.46459 12.3183 9.44991 12.3133C9.44417 12.3114 9.43836 12.3095 9.43351 12.3081C9.43124 12.3075 9.4277 12.3065 9.4238 12.3058C9.42192 12.3055 9.41846 12.305 9.41422 12.3049C9.41185 12.3048 9.40051 12.3044 9.38789 12.3104L9.41211 12.3619L9.43633 12.4135C9.42402 12.4193 9.41316 12.4189 9.41145 12.4188C9.40787 12.4187 9.40523 12.4183 9.40434 12.4181C9.40242 12.4178 9.40153 12.4175 9.40254 12.4178C9.40426 12.4183 9.40758 12.4193 9.41329 12.4213C9.42152 12.4241 9.44313 12.4316 9.46082 12.4376C9.50145 12.4513 9.55815 12.4694 9.62338 12.4849C9.75167 12.5153 9.92207 12.5382 10.0702 12.4904L10.0527 12.4362ZM9.41211 12.3619L9.42919 12.3076C9.1551 12.2215 8.94666 12.053 8.78156 11.8495L8.7373 11.8854L8.69305 11.9213C8.86854 12.1376 9.09459 12.3219 9.39503 12.4163L9.41211 12.3619ZM8.7373 11.8854L8.68045 11.8892C8.69279 12.072 8.69792 12.2872 8.76771 12.48L8.82129 12.4606L8.87487 12.4412C8.81197 12.2675 8.80708 12.0729 8.79416 11.8815L8.7373 11.8854ZM8.82129 12.4606L8.76757 12.4796C8.79278 12.5508 8.81268 12.5958 8.83135 12.6359C8.84991 12.6758 8.86597 12.7082 8.88544 12.7578L8.93848 12.7369L8.99151 12.7161C8.97042 12.6624 8.95236 12.6258 8.93468 12.5878C8.91713 12.5501 8.89872 12.5085 8.87501 12.4416L8.82129 12.4606ZM8.93848 12.7369L8.89319 12.7715C8.90806 12.791 8.92973 12.8022 8.94542 12.8091C8.9627 12.8167 8.98325 12.8234 9.00405 12.8299C9.04727 12.8433 9.09737 12.8572 9.15317 12.8789L9.17383 12.8258L9.19449 12.7727C9.13377 12.7491 9.07748 12.7333 9.03781 12.721C9.01715 12.7146 9.00212 12.7095 8.99136 12.7048C8.97902 12.6993 8.98018 12.6977 8.98376 12.7023L8.93848 12.7369ZM9.17383 12.8258L9.15419 12.8793C9.1973 12.8951 9.35364 12.9512 9.44937 12.9625L9.45605 12.9059L9.46274 12.8493C9.38299 12.8399 9.24006 12.7894 9.19347 12.7723L9.17383 12.8258ZM9.45605 12.9059L9.44942 12.9625C9.71036 12.9931 10.0028 12.9612 10.0171 12.9596L10.0107 12.903L10.0043 12.8463C9.99102 12.8478 9.7097 12.8783 9.46269 12.8493L9.45605 12.9059ZM10.0107 12.903L9.96993 12.8632C9.93732 12.8966 9.88517 12.9238 9.81585 12.944C9.74724 12.964 9.66663 12.9758 9.58221 12.9818C9.41338 12.9939 9.23662 12.9825 9.1249 12.9731L9.12012 13.0299L9.11533 13.0867C9.22847 13.0962 9.41239 13.1082 9.59034 13.0955C9.67931 13.0892 9.76861 13.0765 9.84773 13.0534C9.92614 13.0306 9.99953 12.9961 10.0516 12.9427L10.0107 12.903ZM9.12012 13.0299L9.06974 13.0566C9.16016 13.2275 9.24806 13.4236 9.30552 13.5668L9.3584 13.5455L9.41128 13.5243C9.35261 13.3782 9.26307 13.1783 9.17049 13.0033L9.12012 13.0299ZM9.3584 13.5455L9.3055 13.5667C9.31339 13.5864 9.32361 13.6151 9.34454 13.6383C9.36751 13.6637 9.39803 13.6779 9.43619 13.6884C9.50868 13.7084 9.64124 13.7225 9.89331 13.7497L9.89941 13.693L9.90551 13.6363C9.64674 13.6085 9.52742 13.5953 9.46642 13.5786C9.43784 13.5707 9.43122 13.5642 9.42908 13.5618C9.42489 13.5572 9.42203 13.5511 9.4113 13.5243L9.3584 13.5455ZM9.89941 13.693L9.89434 13.6362C9.77086 13.6473 9.66926 13.6693 9.5922 13.6885C9.55655 13.6974 9.5187 13.7077 9.49651 13.7134C9.46952 13.7202 9.4557 13.7228 9.44937 13.723L9.45117 13.7799L9.45297 13.8369C9.47378 13.8362 9.49968 13.8301 9.52449 13.8239C9.55408 13.8164 9.58009 13.809 9.61983 13.7991C9.69358 13.7807 9.78896 13.7601 9.90449 13.7498L9.89941 13.693ZM9.45117 13.7799L9.44958 13.7229C9.42658 13.7236 9.40447 13.735 9.39166 13.7567C9.38148 13.774 9.38074 13.7919 9.38107 13.8022C9.38177 13.8238 9.38886 13.8472 9.39546 13.8653C9.40258 13.8849 9.41151 13.9047 9.41975 13.921C9.42738 13.9361 9.4364 13.9522 9.44421 13.9623L9.48926 13.9274L9.53431 13.8925C9.5345 13.8927 9.53319 13.8909 9.53038 13.8861C9.52784 13.8818 9.52478 13.8761 9.52147 13.8696C9.51479 13.8564 9.50782 13.8408 9.50257 13.8264C9.49681 13.8105 9.49507 13.8012 9.49498 13.7985C9.49492 13.7967 9.4958 13.8045 9.48982 13.8146C9.48119 13.8292 9.46586 13.8365 9.45277 13.8369L9.45117 13.7799ZM9.48926 13.9274L9.44943 13.9681C9.5103 14.0276 9.5869 14.0572 9.66225 14.0752C9.73572 14.0927 9.81816 14.101 9.88573 14.1116L9.89453 14.0553L9.90334 13.999C9.82637 13.987 9.75654 13.9805 9.68868 13.9643C9.6227 13.9486 9.56893 13.9256 9.52909 13.8866L9.48926 13.9274ZM9.89453 14.0553L9.88893 14.112C10.5146 14.1738 11.866 14.063 11.8865 14.0613L11.8818 14.0045L11.8772 13.9477C11.8522 13.9498 10.5131 14.0591 9.90013 13.9986L9.89453 14.0553ZM11.8818 14.0045L11.8629 13.9508C11.841 13.9585 10.3233 14.492 9.57624 14.7185L9.59277 14.7731L9.60931 14.8276C10.3593 14.6002 11.8797 14.0657 11.9007 14.0583L11.8818 14.0045ZM9.59277 14.7731L9.57811 14.718C9.30057 14.7919 9.00538 14.8115 8.74697 14.7762L8.73926 14.8326L8.73154 14.8891C9.00592 14.9266 9.31632 14.9057 9.60744 14.8281L9.59277 14.7731ZM8.73926 14.8326L8.75173 14.777C8.20191 14.6537 7.70891 14.4571 7.27997 14.2258L7.25293 14.276L7.22588 14.3262C7.66315 14.5619 8.1659 14.7624 8.72679 14.8882L8.73926 14.8326ZM7.25293 14.276L7.21264 14.2357L7.21166 14.2367L7.25195 14.277L7.29225 14.3173L7.29322 14.3163L7.25293 14.276ZM7.25195 14.277L7.28356 14.2296L7.28063 14.2276L7.24902 14.275L7.21741 14.3224L7.22034 14.3244L7.25195 14.277ZM7.24902 14.275L7.2761 14.2249C6.63111 13.8765 6.13472 13.4462 5.81348 13.0571L5.76953 13.0934L5.72559 13.1297C6.05654 13.5306 6.56453 13.9701 7.22194 14.3252L7.24902 14.275ZM5.76953 13.0934L5.80372 13.0478L5.79591 13.0419L5.76172 13.0875L5.72753 13.1331L5.73534 13.139L5.76953 13.0934ZM5.76172 13.0875V13.1445H5.76367V13.0875V13.0305H5.76172V13.0875ZM5.76367 13.0875L5.8077 13.0513C5.75794 12.9908 5.71235 12.9316 5.67152 12.8739L5.625 12.9069L5.57848 12.9398C5.62118 13.0001 5.66849 13.0614 5.71964 13.1237L5.76367 13.0875ZM5.625 12.9069L5.67152 12.8739C5.5101 12.6458 5.34003 12.3002 5.26056 12.0826L5.20703 12.1022L5.15351 12.1217C5.23587 12.3472 5.41033 12.7021 5.57848 12.9398L5.625 12.9069ZM5.20703 12.1022L5.26056 12.0826C5.08488 11.6014 4.96885 11.1824 4.91309 10.6779L4.85645 10.6842L4.79981 10.6905C4.85687 11.2066 4.97576 11.6349 5.1535 12.1217L5.20703 12.1022ZM4.85645 10.6842L4.91322 10.6793C4.91262 10.6724 4.91226 10.6652 4.91186 10.657C4.91148 10.6491 4.91106 10.64 4.91031 10.6308L4.85352 10.6354L4.79672 10.64C4.79728 10.6469 4.79762 10.6541 4.79802 10.6625C4.79841 10.6705 4.79886 10.6797 4.79967 10.6891L4.85645 10.6842ZM4.85352 10.6354L4.90893 10.6221L4.90307 10.5977L4.84766 10.611L4.79224 10.6243L4.7981 10.6487L4.85352 10.6354ZM4.84766 10.611L4.81423 10.6571C4.81423 10.6571 4.81433 10.6572 4.81506 10.6577C4.8156 10.6582 4.81678 10.6591 4.81808 10.66L4.85156 10.6139L4.88505 10.5678C4.88508 10.5678 4.88504 10.5678 4.88488 10.5677C4.88471 10.5675 4.88452 10.5674 4.88417 10.5671C4.8836 10.5667 4.8824 10.5658 4.88108 10.5648L4.84766 10.611ZM4.85156 10.6139L4.90837 10.6094C4.86501 10.0575 4.88362 9.60698 4.98126 9.19624C5.07878 8.78598 5.25584 8.4125 5.53304 8.01567L5.48633 7.98303L5.43961 7.9504C5.15576 8.35674 4.9718 8.74323 4.87038 9.16988C4.76908 9.59604 4.75083 10.0594 4.79475 10.6184L4.85156 10.6139ZM5.48633 7.98303L5.53424 8.01388C5.55773 7.9774 5.60309 7.94283 5.65676 7.90172C5.68163 7.88268 5.70827 7.86206 5.73013 7.84094C5.75118 7.8206 5.77411 7.794 5.78403 7.76127L5.72949 7.74475L5.67496 7.72823C5.67369 7.7324 5.66817 7.74233 5.65094 7.75897C5.63452 7.77483 5.61306 7.79163 5.58746 7.81124C5.54019 7.84744 5.47515 7.89512 5.43841 7.95219L5.48633 7.98303ZM5.72949 7.74475L5.70875 7.69168C5.53995 7.75765 5.35569 7.82809 5.14946 7.87887L5.16309 7.9342L5.17671 7.98954C5.3909 7.93679 5.58131 7.86385 5.75024 7.79783L5.72949 7.74475ZM5.16309 7.9342L5.14446 7.88035C4.93424 7.95306 4.68276 7.9926 4.46111 8.03446L4.47168 8.09045L4.48225 8.14645C4.69795 8.10572 4.96127 8.0643 5.18171 7.98806L5.16309 7.9342ZM4.47168 8.09045L4.46578 8.03378C4.31003 8.04999 4.14522 8.05466 4.0252 8.05301L4.02441 8.10999L4.02363 8.16697C4.14724 8.16867 4.3166 8.16389 4.47758 8.14713L4.47168 8.09045ZM4.02441 8.10999L4.02929 8.05321C3.88774 8.04104 3.73546 8.03474 3.59441 8.02567C3.45161 8.01648 3.31887 8.00441 3.20915 7.98101L3.19727 8.03674L3.18538 8.09247C3.3039 8.11775 3.44384 8.13019 3.5871 8.1394C3.73212 8.14873 3.87929 8.15471 4.01953 8.16676L4.02441 8.10999ZM3.19727 8.03674L3.20955 7.9811C3.18254 7.97514 3.16563 7.97125 3.15351 7.96755C3.1418 7.96397 3.13924 7.96188 3.1391 7.96176C3.13905 7.96172 3.13872 7.96149 3.13791 7.96047C3.13696 7.95926 3.13543 7.95706 3.13306 7.95291C3.12757 7.94328 3.12228 7.93189 3.11137 7.91038L3.06055 7.93616L3.00972 7.96193C3.01838 7.97899 3.02675 7.99655 3.03406 8.00937C3.0422 8.02365 3.05255 8.03875 3.06886 8.05152C3.08481 8.064 3.10249 8.07113 3.1202 8.07654C3.13751 8.08183 3.1592 8.0867 3.18499 8.09239L3.19727 8.03674ZM3.06055 7.93616L3.11259 7.91294C3.05908 7.79299 3.00758 7.64747 2.95116 7.49647C2.89531 7.34702 2.83497 7.19318 2.76509 7.06259L2.71484 7.08948L2.6646 7.11637C2.73052 7.23953 2.78857 7.38694 2.8444 7.53636C2.89965 7.68422 2.9531 7.83516 3.0085 7.95937L3.06055 7.93616ZM2.71484 7.08948L2.76664 7.06572C2.58239 6.66395 2.32289 6.39107 1.8865 5.96473L1.84668 6.00549L1.80686 6.04625C2.24383 6.47316 2.48862 6.73291 2.66305 7.11323L2.71484 7.08948ZM1.84668 6.00549L1.88793 5.96618C1.39639 5.45052 0.907457 4.80279 1.10024 4.02407L1.04492 4.01038L0.989607 3.99668C0.780733 4.84041 1.3149 5.53021 1.80543 6.04481L1.84668 6.00549ZM1.04492 4.01038L1.09941 4.02707C1.19542 3.71365 1.42717 3.21356 1.60831 2.95306L1.56152 2.92053L1.51474 2.888C1.32579 3.15973 1.08932 3.67091 0.990436 3.99368L1.04492 4.01038ZM1.56152 2.92053L1.60524 2.95709C1.68595 2.86057 1.76307 2.80282 1.8362 2.77859C1.90696 2.75515 1.9794 2.76122 2.05785 2.80366L2.08496 2.75354L2.11208 2.70342C2.00862 2.64745 1.90368 2.63617 1.80036 2.67041C1.69941 2.70385 1.60576 2.77881 1.51781 2.88398L1.56152 2.92053ZM2.08496 2.75354L2.07786 2.81008C2.29074 2.83681 2.37258 2.81779 2.48038 2.81241L2.47754 2.75549L2.4747 2.69858C2.35788 2.70441 2.29191 2.72209 2.09206 2.697L2.08496 2.75354ZM2.47754 2.75549L2.48088 2.81238C2.7295 2.79776 2.93135 2.70018 3.00982 2.63268L2.97266 2.58948L2.93549 2.54628C2.87854 2.59527 2.70149 2.68524 2.47419 2.69861L2.47754 2.75549ZM2.97266 2.58948L3.00642 2.63538C3.18035 2.50746 3.32324 2.35776 3.46298 2.19892C3.60377 2.03888 3.73948 1.87191 3.90427 1.70134L3.86328 1.66174L3.8223 1.62215C3.65514 1.79518 3.51448 1.96783 3.37741 2.12364C3.2393 2.28063 3.10284 2.423 2.93889 2.54357L2.97266 2.58948ZM3.86328 1.66174L3.90406 1.70155C4.10434 1.49639 4.28718 1.32013 4.47453 1.19773L4.44336 1.15002L4.41219 1.10232C4.21321 1.23231 4.02262 1.41694 3.8225 1.62194L3.86328 1.66174ZM9.27246 14.0221L9.24869 13.9703C8.64547 14.2472 8.00433 14.2061 7.37294 14.2181L7.37402 14.275L7.3751 14.332C7.99263 14.3203 8.66559 14.3634 9.29624 14.0739L9.27246 14.0221ZM7.37402 14.275L7.34596 14.3246C7.73247 14.5434 8.13997 14.7098 8.55939 14.7766L8.56836 14.7203L8.57733 14.6641C8.17527 14.6 7.78081 14.4398 7.40209 14.2254L7.37402 14.275ZM8.56836 14.7203L8.55888 14.7765C8.67547 14.7962 9.02401 14.8451 9.2829 14.8045C9.34826 14.7943 9.41079 14.7779 9.46355 14.7522C9.51635 14.7265 9.56297 14.6896 9.59001 14.6366C9.64563 14.5276 9.6025 14.3889 9.47589 14.2238L9.43066 14.2584L9.38544 14.2931C9.50836 14.4534 9.51134 14.5401 9.48849 14.5848C9.47629 14.6087 9.45253 14.6308 9.41365 14.6498C9.37473 14.6687 9.32429 14.6827 9.26524 14.6919C9.02648 14.7294 8.69434 14.6838 8.57784 14.6641L8.56836 14.7203ZM9.43066 14.2584L9.48092 14.2316C9.47725 14.2247 9.47171 14.2176 9.46903 14.2141C9.46526 14.2092 9.46039 14.2031 9.45517 14.1966C9.44448 14.1832 9.43083 14.166 9.41574 14.1457C9.38538 14.1049 9.35026 14.053 9.32392 13.9976L9.27246 14.0221L9.221 14.0466C9.25189 14.1115 9.29188 14.1702 9.32432 14.2138C9.34062 14.2357 9.35529 14.2541 9.36607 14.2676C9.37159 14.2746 9.37574 14.2797 9.37881 14.2837C9.38296 14.2891 9.38208 14.2884 9.38041 14.2853L9.43066 14.2584ZM5.25391 12.0035L5.20151 12.0259C5.27912 12.2075 5.36696 12.4086 5.46095 12.5933C5.55457 12.7773 5.65608 12.9486 5.76196 13.0686L5.80469 13.0309L5.84741 12.9932C5.75131 12.8843 5.65502 12.7234 5.56253 12.5416C5.47041 12.3606 5.38384 12.1625 5.3063 11.9811L5.25391 12.0035ZM5.80469 13.0309L5.76402 13.0708C5.77656 13.0836 5.78942 13.0959 5.80174 13.1077C5.81425 13.1197 5.82612 13.131 5.83767 13.1425L5.87793 13.1022L5.91819 13.0618C5.90557 13.0492 5.89266 13.037 5.88051 13.0253C5.86817 13.0135 5.85649 13.0023 5.84535 12.991L5.80469 13.0309ZM5.87793 13.1022L5.85283 13.1533C6.48667 13.4644 7.52638 13.92 9.02324 13.6917L9.01465 13.6354L9.00606 13.579C7.54309 13.8022 6.52878 13.3581 5.90303 13.051L5.87793 13.1022ZM9.01465 13.6354L9.06198 13.6036C8.9491 13.4353 8.81255 13.2223 8.6968 13.0219L8.64746 13.0504L8.59812 13.0789C8.71554 13.2822 8.85357 13.4974 8.96732 13.6671L9.01465 13.6354ZM8.64746 13.0504L8.64608 12.9934C7.49461 13.0213 6.13065 12.4656 5.28333 11.9547L5.25391 12.0035L5.22448 12.0523C6.08038 12.5683 7.46643 13.136 8.64884 13.1074L8.64746 13.0504ZM4.98926 9.27502L4.93354 9.26306C4.82899 9.75008 4.83775 10.2435 4.89265 10.695L4.94922 10.6881L5.00579 10.6812C4.95184 10.2376 4.94392 9.75769 5.04497 9.28699L4.98926 9.27502ZM4.94922 10.6881L4.91428 10.7331C5.09912 10.8766 5.25533 11.0232 5.42822 11.1747C5.60036 11.3257 5.7863 11.4789 6.02569 11.6303C6.50482 11.9334 7.19304 12.2258 8.40902 12.4851L8.4209 12.4293L8.43278 12.3736C7.22516 12.1161 6.55081 11.8276 6.08662 11.534C5.85436 11.3871 5.67345 11.2382 5.50335 11.089C5.334 10.9406 5.17258 10.7893 4.98415 10.6431L4.94922 10.6881ZM8.4209 12.4293L8.47183 12.4549C8.47335 12.4519 8.47435 12.4493 8.47492 12.4477C8.47521 12.4469 8.47545 12.4462 8.47559 12.4458C8.47567 12.4456 8.47573 12.4454 8.47577 12.4453C8.47583 12.4451 8.47584 12.4451 8.47586 12.445C8.47596 12.4447 8.47567 12.4456 8.47518 12.4468C8.47466 12.4481 8.47365 12.4505 8.472 12.4533L8.42285 12.4244L8.37371 12.3956C8.37163 12.3991 8.37025 12.4023 8.36941 12.4044C8.36859 12.4064 8.36801 12.4082 8.36783 12.4087C8.3675 12.4097 8.36771 12.409 8.3679 12.4085C8.36816 12.4078 8.36884 12.406 8.36997 12.4038L8.4209 12.4293ZM8.42285 12.4244L8.47983 12.4235C8.47644 12.209 8.52865 11.9495 8.58977 11.8017L8.53711 11.7799L8.48445 11.7581C8.41703 11.9212 8.36225 12.1962 8.36587 12.4253L8.42285 12.4244ZM8.53711 11.7799L8.58977 11.8017C8.59189 11.7966 8.59328 11.7917 8.59372 11.7902C8.59445 11.7877 8.59424 11.7886 8.5937 11.7899L8.54102 11.7682L8.48834 11.7465C8.48623 11.7516 8.48485 11.7564 8.48441 11.7579C8.48369 11.7604 8.4839 11.7595 8.48445 11.7581L8.53711 11.7799ZM8.54102 11.7682L8.54777 11.7116C7.62701 11.6016 6.82212 11.1823 6.21051 10.6911C5.59766 10.1989 5.18463 9.63927 5.04271 9.25527L4.98926 9.27502L4.93581 9.29478C5.08718 9.70436 5.51631 10.2798 6.13915 10.78C6.76324 11.2812 7.58758 11.7117 8.53426 11.8248L8.54102 11.7682ZM10.6699 10.5963L10.6226 10.628C10.8157 10.9164 11.1071 11.1938 11.4483 11.4605L11.4834 11.4156L11.5185 11.3708C11.1813 11.1072 10.9007 10.8385 10.7173 10.5646L10.6699 10.5963ZM11.4834 11.4156L11.4464 11.3723L11.2931 11.5032L11.3301 11.5465L11.3671 11.5899L11.5204 11.459L11.4834 11.4156ZM11.3301 11.5465L11.3746 11.5109L11.2389 11.341L11.1943 11.3766L11.1498 11.4122L11.2856 11.5821L11.3301 11.5465ZM11.1943 11.3766L11.1607 11.3306C11.1319 11.3516 11.0979 11.3755 11.0623 11.4158C11.0266 11.456 10.9909 11.5106 10.9522 11.5937L11.0039 11.6178L11.0556 11.6419C11.091 11.5657 11.1212 11.5211 11.1476 11.4913C11.1739 11.4616 11.1981 11.4444 11.228 11.4226L11.1943 11.3766ZM11.0039 11.6178L10.9548 11.5889C10.9391 11.6156 10.9218 11.6364 10.9059 11.6503C10.8891 11.665 10.8783 11.6683 10.8754 11.6686L10.8818 11.7252L10.8883 11.7818C10.9235 11.7778 10.9554 11.7584 10.981 11.736C11.0075 11.7128 11.0322 11.682 11.053 11.6467L11.0039 11.6178ZM10.8818 11.7252L10.8744 11.6687C10.7236 11.6885 10.5532 11.6535 10.3641 11.5248L10.332 11.5719L10.3 11.619C10.5089 11.7612 10.707 11.8056 10.8892 11.7817L10.8818 11.7252ZM10.332 11.5719L10.2783 11.5909C10.2897 11.6231 10.3133 11.651 10.3372 11.6739C10.3619 11.6976 10.3921 11.7209 10.4231 11.743C10.4542 11.7653 10.4881 11.7877 10.5201 11.8092C10.5526 11.831 10.5833 11.8519 10.6102 11.8722L10.6445 11.8268L10.6789 11.7813C10.6492 11.7589 10.616 11.7363 10.5836 11.7146C10.5507 11.6925 10.5188 11.6713 10.4894 11.6503C10.4599 11.6292 10.4349 11.6097 10.4161 11.5917C10.3964 11.5728 10.3882 11.5599 10.3858 11.5529L10.332 11.5719ZM10.6445 11.8268L10.6416 11.7699C10.5887 11.7726 10.524 11.7712 10.4685 11.7621C10.4407 11.7575 10.417 11.7513 10.3989 11.7438C10.3801 11.736 10.3721 11.7287 10.3694 11.725L10.3232 11.7584L10.2771 11.7919C10.2972 11.8196 10.3268 11.8373 10.3551 11.849C10.3841 11.8611 10.4171 11.8692 10.45 11.8746C10.5159 11.8854 10.5892 11.8867 10.6475 11.8837L10.6445 11.8268ZM10.3232 11.7584L10.3696 11.7253C10.2866 11.6093 10.2562 11.5398 10.2478 11.4972C10.2439 11.477 10.245 11.4637 10.2473 11.4543C10.2497 11.4446 10.254 11.4357 10.2611 11.4246L10.2129 11.3942L10.1647 11.3637C10.1546 11.3797 10.1431 11.4005 10.1366 11.4273C10.13 11.4545 10.1292 11.4846 10.136 11.5192C10.1492 11.5862 10.1911 11.6718 10.2769 11.7916L10.3232 11.7584ZM10.2129 11.3942L10.2586 11.4282C10.4254 11.2041 10.6614 10.9541 10.7259 10.6067L10.6699 10.5963L10.6139 10.5859C10.5556 10.8997 10.3452 11.121 10.1672 11.3601L10.2129 11.3942ZM6.65039 7.47717L6.63815 7.42152C6.29863 7.49617 5.98262 7.63067 5.69171 7.82743L5.72363 7.87463L5.75556 7.92184C6.03439 7.73325 6.33702 7.60442 6.66263 7.53283L6.65039 7.47717ZM5.72363 7.87463L5.70201 7.82191C5.68154 7.8303 5.66403 7.84406 5.64985 7.85736C5.63527 7.87103 5.62126 7.88704 5.60819 7.90307L5.65234 7.93909L5.6965 7.97511C5.70823 7.96073 5.71858 7.94915 5.7278 7.9405C5.73741 7.93149 5.74314 7.92822 5.74525 7.92736L5.72363 7.87463ZM5.65234 7.93909L5.59603 7.94781C5.75199 8.95415 5.97542 9.73881 6.87557 10.3962L6.90918 10.3502L6.94279 10.3042C6.07989 9.67398 5.86317 8.92736 5.70866 7.93036L5.65234 7.93909ZM6.90918 10.3502L6.87591 10.3965C7.42557 10.7918 7.97548 11.1881 8.6428 11.5166L8.66797 11.4655L8.69314 11.4143C8.03557 11.0906 7.49296 10.6999 6.94245 10.304L6.90918 10.3502ZM8.66797 11.4655L8.72072 11.487C8.75601 11.4006 8.78452 11.3275 8.81221 11.2692L8.76074 11.2448L8.70927 11.2203C8.67978 11.2824 8.64929 11.3605 8.61522 11.4439L8.66797 11.4655ZM8.76074 11.2448L8.78655 11.1939C8.61885 11.1088 8.52283 11.0363 8.44116 10.9516C8.35681 10.8641 8.28842 10.7648 8.17171 10.6167L8.12695 10.652L8.08219 10.6872C8.19313 10.828 8.26953 10.9377 8.3591 11.0307C8.45136 11.1264 8.55841 11.2059 8.73494 11.2956L8.76074 11.2448ZM8.12695 10.652L8.17595 10.6229C7.58438 9.6267 6.99261 8.53995 6.70545 7.4625L6.65039 7.47717L6.59533 7.49185C6.88689 8.58586 7.48607 9.68436 8.07796 10.6811L8.12695 10.652ZM10.4785 10.3864L10.5221 10.4231C10.5138 10.4329 10.5045 10.437 10.5014 10.4384C10.4973 10.4401 10.494 10.4409 10.4926 10.4412C10.4897 10.4418 10.488 10.4418 10.4887 10.4418C10.4897 10.4417 10.4928 10.4417 10.4988 10.4419C10.5102 10.4422 10.527 10.4434 10.5483 10.4453C10.5905 10.4491 10.647 10.4554 10.7051 10.4627C10.7632 10.47 10.8225 10.4782 10.8703 10.4856C10.8942 10.4893 10.915 10.4928 10.9311 10.4958C10.9392 10.4973 10.9458 10.4986 10.951 10.4998C10.9536 10.5004 10.9556 10.5009 10.9572 10.5013C10.958 10.5015 10.9585 10.5016 10.959 10.5018C10.9594 10.5019 10.9596 10.502 10.9595 10.5019L10.9775 10.4479L10.9955 10.3938C10.9769 10.3876 10.9341 10.3802 10.8877 10.373C10.8386 10.3654 10.7782 10.3571 10.7193 10.3497C10.6605 10.3423 10.6026 10.3357 10.5584 10.3318C10.5365 10.3298 10.5172 10.3284 10.5026 10.328C10.4955 10.3277 10.4881 10.3276 10.4817 10.328C10.4786 10.3282 10.4739 10.3286 10.4688 10.3297C10.4662 10.3303 10.462 10.3313 10.4572 10.3333C10.4533 10.335 10.4435 10.3395 10.4349 10.3496L10.4785 10.3864ZM10.9775 10.4479L10.9779 10.3909C10.7741 10.3896 10.6581 10.388 10.5594 10.4286C10.5088 10.4494 10.4648 10.4801 10.4165 10.5219C10.3689 10.5632 10.3141 10.6178 10.2432 10.6875L10.2832 10.7281L10.3232 10.7688C10.3956 10.6975 10.447 10.6463 10.4911 10.6081C10.5346 10.5705 10.5679 10.5483 10.6028 10.534C10.6751 10.5042 10.7629 10.5035 10.9772 10.5049L10.9775 10.4479ZM10.2832 10.7281L10.3402 10.7261C10.3385 10.6815 10.3437 10.6366 10.3662 10.5899C10.3889 10.543 10.4314 10.4898 10.5116 10.4328L10.4785 10.3864L10.4455 10.3399C10.3534 10.4054 10.2964 10.4724 10.2636 10.5403C10.2306 10.6085 10.2242 10.6732 10.2263 10.7302L10.2832 10.7281ZM14.6143 8.86682L14.5787 8.82231C14.544 8.85001 14.5172 8.87731 14.4925 8.90194C14.4677 8.92684 14.4446 8.94954 14.4147 8.97251C14.3556 9.01784 14.2652 9.06777 14.0811 9.12383L14.0977 9.17834L14.1143 9.23286C14.3063 9.17439 14.4106 9.11932 14.4841 9.0629C14.5204 9.035 14.548 9.00764 14.5732 8.9825C14.5985 8.9571 14.621 8.9344 14.6498 8.91134L14.6143 8.86682ZM14.0977 9.17834L14.0846 9.12289C13.9575 9.15289 13.8627 9.14154 13.7862 9.10898C13.7084 9.07589 13.6441 9.01865 13.582 8.9475L13.5391 8.98499L13.4961 9.02247C13.5632 9.09922 13.641 9.17105 13.7416 9.21386C13.8435 9.25721 13.9634 9.26859 14.1108 9.2338L14.0977 9.17834ZM13.5391 8.98499L13.5234 9.03977C13.5665 9.05214 13.6007 9.06945 13.6402 9.08902C13.6792 9.10833 13.723 9.12951 13.7789 9.14275C13.8917 9.16949 14.0427 9.16159 14.3092 9.07741L14.292 9.02307L14.2748 8.96873C14.016 9.05048 13.8885 9.05161 13.8051 9.03185C13.7629 9.02184 13.7292 9.00589 13.6908 8.98687C13.6529 8.96812 13.6095 8.9459 13.5548 8.9302L13.5391 8.98499ZM14.292 9.02307L14.3169 9.07435L14.6391 8.9181L14.6143 8.86682L14.5894 8.81555L14.2671 8.9718L14.292 9.02307ZM10.6367 8.42151L10.6676 8.46941C10.8773 8.33428 11.0472 8.25143 11.222 8.21644C11.3961 8.1816 11.5802 8.19323 11.8195 8.25593L11.834 8.20081L11.8484 8.14568C11.5981 8.08013 11.3957 8.06544 11.1996 8.10468C11.0043 8.14378 10.8204 8.2354 10.6059 8.37361L10.6367 8.42151ZM11.834 8.20081L11.8202 8.14552C11.7546 8.16193 11.6888 8.17871 11.6214 8.20151L11.6396 8.25549L11.6579 8.30947C11.7204 8.28832 11.7821 8.27252 11.8478 8.25609L11.834 8.20081ZM11.6396 8.25549L11.6202 8.30906C11.6103 8.30547 11.6044 8.30001 11.6025 8.29811C11.6001 8.29577 11.5989 8.29399 11.5987 8.29374C11.5983 8.29325 11.5992 8.29441 11.601 8.29827C11.6046 8.30571 11.6094 8.31759 11.6148 8.33344C11.6254 8.3648 11.6368 8.40672 11.6452 8.4488C11.6537 8.49161 11.6584 8.53088 11.6573 8.55821C11.657 8.56476 11.6565 8.5699 11.6558 8.57375C11.6551 8.57772 11.6544 8.57933 11.6544 8.57932C11.6546 8.57892 11.6609 8.56667 11.6775 8.56431L11.6855 8.62073L11.6936 8.67715C11.7292 8.67209 11.7492 8.6467 11.7587 8.62533C11.7675 8.60525 11.7704 8.58254 11.7712 8.5627C11.7728 8.52205 11.7661 8.47249 11.757 8.42655C11.7477 8.37987 11.735 8.33312 11.7227 8.29678C11.7166 8.27878 11.7101 8.26206 11.7037 8.24875C11.7006 8.24224 11.6967 8.23499 11.6921 8.22839C11.6898 8.22509 11.6865 8.22082 11.6822 8.2166C11.6783 8.21284 11.6706 8.20611 11.6591 8.20193L11.6396 8.25549ZM11.6855 8.62073L11.6747 8.56478C11.6719 8.56533 11.6601 8.56759 11.6486 8.57704C11.642 8.58256 11.6343 8.5915 11.6303 8.60444C11.6263 8.61755 11.6277 8.62966 11.6306 8.63869C11.6355 8.65393 11.6453 8.66255 11.6475 8.66449C11.6512 8.66773 11.6545 8.66989 11.6563 8.67098C11.6625 8.67478 11.6695 8.67753 11.6729 8.67887C11.6819 8.68238 11.6947 8.68668 11.7089 8.69124C11.738 8.70052 11.7781 8.71246 11.8187 8.72425C11.9 8.74789 11.9851 8.7715 11.9916 8.77331L12.0068 8.71838L12.022 8.66346C12.0157 8.6617 11.9311 8.63824 11.8505 8.61481C11.8101 8.60307 11.7712 8.59148 11.7437 8.58269C11.7296 8.5782 11.7198 8.57482 11.7144 8.5727C11.7106 8.57122 11.7123 8.57166 11.7158 8.57375C11.7168 8.57441 11.7197 8.57618 11.7229 8.57907C11.7247 8.58065 11.7343 8.58895 11.7391 8.60392C11.742 8.61282 11.7433 8.6248 11.7393 8.63779C11.7354 8.65061 11.7278 8.65945 11.7213 8.66487C11.7101 8.67412 11.6986 8.67624 11.6964 8.67667L11.6855 8.62073ZM12.0068 8.71838L12.0027 8.66155C11.9024 8.66876 11.8023 8.67182 11.7012 8.67536C11.6005 8.67888 11.4989 8.68286 11.3978 8.69205C11.1953 8.71044 10.9919 8.74986 10.7927 8.8501L10.8184 8.901L10.844 8.9519C11.0256 8.86052 11.2132 8.82325 11.4081 8.80555C11.5057 8.79669 11.6044 8.79278 11.7052 8.78926C11.8055 8.78575 11.908 8.78262 12.0109 8.77522L12.0068 8.71838ZM10.8184 8.901L10.8543 8.94522L11.0369 8.79678L11.001 8.75256L10.965 8.70834L10.7824 8.85678L10.8184 8.901ZM11.001 8.75256L10.945 8.74199C10.9452 8.74087 10.9463 8.73455 10.9506 8.72706C10.9546 8.71994 10.969 8.69976 10.9977 8.69907C11.0218 8.69849 11.0359 8.71292 11.0385 8.71556C11.0428 8.71998 11.045 8.72387 11.0455 8.72466C11.0468 8.72696 11.0454 8.72482 11.042 8.71348C11.0363 8.69405 11.0289 8.66206 11.0222 8.62442C11.0156 8.58699 11.01 8.54551 11.0074 8.50719C11.0048 8.46781 11.0057 8.43588 11.0099 8.41556L10.9541 8.40393L10.8983 8.3923C10.8909 8.4281 10.8909 8.47248 10.8937 8.51483C10.8966 8.55823 10.9029 8.6039 10.91 8.64427C10.9171 8.68444 10.9254 8.7209 10.9327 8.74579C10.9359 8.75662 10.9405 8.77061 10.9465 8.78118C10.9481 8.78403 10.9514 8.78949 10.9567 8.79496C10.9603 8.79865 10.9754 8.8136 11.0004 8.81301C11.0299 8.8123 11.045 8.79154 11.0497 8.78328C11.0546 8.77464 11.0563 8.76659 11.057 8.76313L11.001 8.75256ZM10.9541 8.40393L11.0108 8.40934C11.0141 8.37542 10.9906 8.35636 10.9795 8.34994C10.9687 8.34371 10.9576 8.34132 10.9513 8.34019C10.9374 8.3377 10.9207 8.33721 10.9052 8.33735C10.8728 8.33765 10.8309 8.34099 10.7907 8.34505C10.7501 8.34916 10.7096 8.35417 10.6793 8.35815C10.6641 8.36014 10.6515 8.36188 10.6426 8.36312C10.6381 8.36374 10.6346 8.36424 10.6322 8.36458C10.631 8.36475 10.6301 8.36489 10.6295 8.36498C10.6292 8.36502 10.6289 8.36506 10.6287 8.36508C10.6287 8.3651 10.6286 8.36511 10.6285 8.36511C10.6285 8.36512 10.6285 8.36512 10.6285 8.36512C10.6285 8.36512 10.6285 8.36512 10.6285 8.36512C10.6285 8.36512 10.6285 8.36512 10.6367 8.42151C10.645 8.47789 10.645 8.47789 10.645 8.47789C10.645 8.47789 10.645 8.47789 10.645 8.47789C10.645 8.47789 10.645 8.47789 10.645 8.47789C10.645 8.47788 10.6451 8.47788 10.6452 8.47787C10.6453 8.47785 10.6455 8.47781 10.6458 8.47777C10.6464 8.47769 10.6473 8.47756 10.6484 8.4774C10.6507 8.47707 10.6541 8.47659 10.6584 8.47599C10.667 8.47478 10.6793 8.47309 10.6941 8.47115C10.7238 8.46726 10.7631 8.46239 10.8022 8.45845C10.8417 8.45446 10.8793 8.45157 10.9062 8.45132C10.9203 8.45119 10.9282 8.45184 10.9312 8.45238C10.9334 8.45277 10.929 8.45238 10.9225 8.44867C10.9158 8.44478 10.8945 8.42879 10.8974 8.39852L10.9541 8.40393ZM10.8047 7.30334L10.8169 7.359C11.0372 7.31062 11.2652 7.3137 11.4901 7.34135L11.4971 7.28479L11.504 7.22823C11.2715 7.19964 11.0296 7.19561 10.7925 7.24769L10.8047 7.30334ZM11.4971 7.28479L11.489 7.22838C11.2693 7.25981 11.122 7.28138 10.9956 7.33622C10.8664 7.39223 10.7627 7.48094 10.6219 7.63615L10.6641 7.67444L10.7063 7.71273C10.8436 7.56141 10.9342 7.48708 11.0409 7.44078C11.1504 7.39332 11.2805 7.37333 11.5051 7.3412L11.4971 7.28479ZM10.6641 7.67444L10.7179 7.69308C10.7289 7.66127 10.7375 7.62925 10.7453 7.59852C10.7533 7.56719 10.7605 7.53774 10.7693 7.50783C10.7867 7.44905 10.8092 7.39266 10.8504 7.33737L10.8047 7.30334L10.759 7.26932C10.7069 7.33929 10.6795 7.40958 10.66 7.47559C10.6504 7.50808 10.6425 7.54056 10.6349 7.57027C10.6272 7.6006 10.6196 7.62874 10.6102 7.6558L10.6641 7.67444ZM7.11719 4.39612L7.11528 4.45307C7.29391 4.45905 7.47725 4.46108 7.65931 4.46344C7.84163 4.46581 8.02277 4.46851 8.19822 4.47579C8.55002 4.4904 8.87422 4.52333 9.13397 4.60663L9.15137 4.55237L9.16877 4.49811C8.89365 4.40988 8.5566 4.3766 8.20294 4.36192C8.02566 4.35456 7.84302 4.35185 7.66079 4.34948C7.47829 4.34711 7.29629 4.3451 7.11909 4.33916L7.11719 4.39612ZM9.15137 4.55237L9.11354 4.59498C9.31826 4.77672 9.45654 5.04158 9.57181 5.32744C9.6293 5.47001 9.68026 5.61565 9.73119 5.75748C9.78185 5.89861 9.8325 6.03603 9.88858 6.15902L9.94043 6.13538L9.99228 6.11173C9.93839 5.99356 9.88917 5.86023 9.83845 5.71897C9.78798 5.5784 9.73605 5.43 9.67751 5.28482C9.56072 4.99518 9.41443 4.7097 9.1892 4.50975L9.15137 4.55237ZM9.94043 6.13538L9.97572 6.09063C9.92406 6.04989 9.87038 5.98012 9.81165 5.88974C9.75279 5.79917 9.69483 5.69774 9.62917 5.59162C9.5648 5.48758 9.49497 5.38244 9.41734 5.29412C9.33991 5.20603 9.25167 5.13111 9.14927 5.09192L9.12891 5.14514L9.10854 5.19836C9.18671 5.22828 9.26039 5.2882 9.33174 5.36936C9.40288 5.4503 9.46868 5.54884 9.53225 5.65158C9.59454 5.75225 9.65686 5.86071 9.71608 5.95184C9.77543 6.04316 9.83764 6.12688 9.90514 6.18012L9.94043 6.13538ZM9.12891 5.14514L9.13366 5.08836C9.05278 5.08159 8.98451 5.07019 8.91997 5.05802C8.85622 5.046 8.79323 5.03261 8.72783 5.02316C8.59367 5.00376 8.44633 5.00024 8.22007 5.04633L8.23145 5.10217L8.24282 5.15801C8.45642 5.11449 8.59055 5.11846 8.71152 5.13595C8.7737 5.14495 8.8317 5.15735 8.89885 5.17002C8.96522 5.18253 9.03778 5.1947 9.12416 5.20193L9.12891 5.14514ZM8.23145 5.10217L8.25697 5.15312C8.33747 5.11278 8.41854 5.06522 8.49449 5.02424C8.57225 4.98228 8.64865 4.94487 8.72846 4.91909L8.71094 4.86487L8.69342 4.81064C8.60369 4.83963 8.52009 4.88092 8.44037 4.92394C8.35883 4.96793 8.28492 5.01164 8.20592 5.05123L8.23145 5.10217ZM8.71094 4.86487L8.72403 4.92033C8.7727 4.90884 8.82118 4.90921 8.87261 4.91495C8.89843 4.91783 8.92444 4.92198 8.95164 4.92653C8.9784 4.93101 9.00677 4.93595 9.03517 4.93987L9.04297 4.88342L9.05077 4.82697C9.02443 4.82333 8.99827 4.81878 8.97044 4.81413C8.94305 4.80954 8.9144 4.80493 8.88525 4.80168C8.82672 4.79515 8.76393 4.79381 8.69784 4.80941L8.71094 4.86487ZM9.04297 4.88342L9.06732 4.93494C9.08336 4.92736 9.10358 4.91582 9.1187 4.89768C9.13618 4.8767 9.14551 4.84807 9.13715 4.81622L9.08203 4.83069L9.02691 4.84515C9.02623 4.84254 9.02583 4.83825 9.02706 4.83331C9.02824 4.82861 9.0303 4.82573 9.03114 4.82473C9.03183 4.8239 9.03158 4.82445 9.02922 4.82606C9.02693 4.82762 9.02349 4.8296 9.01861 4.8319L9.04297 4.88342ZM9.08203 4.83069L9.11199 4.78221C8.87927 4.6384 8.52992 4.56773 8.17212 4.51303C7.80875 4.45749 7.43426 4.41809 7.13125 4.3409L7.11719 4.39612L7.10312 4.45134C7.41331 4.53036 7.79984 4.57142 8.1549 4.62569C8.51551 4.68082 8.84199 4.74933 9.05207 4.87916L9.08203 4.83069ZM11.2461 2.93323L11.2409 2.98998C11.2312 2.98909 11.2287 2.98515 11.2363 2.9906C11.242 2.99473 11.2503 3.00187 11.2612 3.0128C11.2829 3.03452 11.3102 3.06655 11.3417 3.10692C11.4044 3.18734 11.4798 3.29608 11.5535 3.40968C11.6271 3.52317 11.6983 3.64049 11.7524 3.73777C11.7795 3.78645 11.8021 3.82957 11.8185 3.86437C11.8357 3.90102 11.8436 3.9233 11.8453 3.93258L11.9014 3.92249L11.9575 3.91239C11.9528 3.88663 11.9386 3.852 11.9216 3.81584C11.9037 3.77784 11.8798 3.73226 11.852 3.68233C11.7964 3.58239 11.7238 3.46284 11.6491 3.34766C11.5745 3.2326 11.4971 3.12086 11.4316 3.03685C11.3989 2.99501 11.3684 2.95883 11.3419 2.93234C11.3288 2.91917 11.3155 2.9072 11.3027 2.89796C11.2916 2.89005 11.2733 2.87849 11.2513 2.87648L11.2461 2.93323ZM11.9014 3.92249L11.845 3.93064C11.8675 4.08621 11.9065 4.25121 11.9426 4.41392C11.9791 4.57792 12.0129 4.7405 12.0272 4.89644L12.084 4.89124L12.1407 4.88603C12.1257 4.7221 12.0903 4.55316 12.0539 4.38919C12.0171 4.22392 11.9795 4.06448 11.9578 3.91433L11.9014 3.92249ZM12.084 4.89124L12.1388 4.87559C12.051 4.56811 11.9556 4.25886 11.8353 3.94968L11.7822 3.97034L11.7291 3.99099C11.8475 4.29539 11.9418 4.60078 12.0292 4.90688L12.084 4.89124ZM11.7822 3.97034L11.8349 3.94858C11.7978 3.85873 11.7063 3.66165 11.4563 3.38615L11.4141 3.42444L11.3719 3.46273C11.612 3.72739 11.6969 3.91293 11.7296 3.99209L11.7822 3.97034ZM11.4141 3.42444L11.4629 3.39515C11.3546 3.21436 11.3309 3.074 11.3021 2.92257L11.2461 2.93323L11.1901 2.94388C11.219 3.09551 11.2454 3.25391 11.3652 3.45373L11.4141 3.42444Z" fill="#CED0D6"/>
</svg>
