<svg width="20" height="20" viewBox="0 0 20 20" fill="none" xmlns="http://www.w3.org/2000/svg">
<path fill-rule="evenodd" clip-rule="evenodd" d="M9.31077 4.00783C10.8542 4.03885 11.6089 4.86831 11.8557 5.95315C13.2787 4.73663 14.4816 4.001 16.4533 4.001C19.03 4.00127 19.4771 6.16944 19.0295 8.12307L17.3703 15.6397C17.2509 16.1799 16.6945 16.5257 16.1272 16.4121C15.5597 16.2985 15.1963 15.768 15.3156 15.2276L16.8791 8.12307C17.5921 5.0252 13.549 5.40754 11.9084 7.70803L10.1389 15.6446C10.0196 16.185 9.46224 16.5316 8.89475 16.418C8.87157 16.4133 8.84887 16.4074 8.82639 16.4014C8.28618 16.2685 7.94577 15.7529 8.06174 15.2276L9.63205 8.11819C9.95872 6.71951 9.28746 6.03167 8.31272 5.91116C7.15241 5.78676 5.56292 6.47021 4.676 7.71389L4.67502 7.7051L4.67307 7.70803L2.89768 15.6524C2.77712 16.1925 2.21975 16.5376 1.65256 16.4229C1.08534 16.308 0.723401 15.7766 0.843968 15.2364L3.12912 4.99807C3.24969 4.45785 3.80701 4.11273 4.37424 4.22756C5.01894 4.35808 5.2846 4.94951 5.16037 5.51662C6.34712 4.58167 7.72992 3.92106 9.31077 4.00783Z" fill="#CED0D6"/>
</svg>
