<svg width="20" height="20" viewBox="0 0 20 20" fill="none" xmlns="http://www.w3.org/2000/svg">
<path d="M17.25 15.5C17.6642 15.5 18 15.8358 18 16.25C18 16.6642 17.6642 17 17.25 17H2.75C2.33579 17 2 16.6642 2 16.25C2.00003 15.8358 2.33581 15.5 2.75 15.5H17.25ZM14.25 11.333C14.6641 11.333 14.9998 11.669 15 12.083C15 12.4972 14.6642 12.833 14.25 12.833H2.75C2.33579 12.833 2 12.4972 2 12.083C2.0002 11.669 2.33591 11.333 2.75 11.333H14.25ZM13.25 7.16699C13.6642 7.16699 14 7.50278 14 7.91699C13.9998 8.33107 13.6641 8.66699 13.25 8.66699H2.75C2.33589 8.66699 2.00016 8.33107 2 7.91699C2 7.50278 2.33579 7.16699 2.75 7.16699H13.25ZM17.25 3C17.6642 3 18 3.33579 18 3.75C18 4.16421 17.6642 4.5 17.25 4.5H2.75C2.33579 4.5 2 4.16421 2 3.75C2 3.33579 2.33579 3 2.75 3H17.25Z" fill="#CED0D6"/>
</svg>
