<svg width="20" height="20" viewBox="0 0 20 20" fill="none" xmlns="http://www.w3.org/2000/svg">
<path fill-rule="evenodd" clip-rule="evenodd" d="M12.0002 17C12.0002 17.5304 11.7893 18.039 11.4143 18.4141C11.0393 18.7891 10.5305 18.9999 10.0002 19L9.80296 18.9902C9.41039 18.9513 9.0378 18.7969 8.73265 18.5469L8.58617 18.4141C8.2111 18.039 8.00023 17.5304 8.00023 17H12.0002ZM10.2366 1.00488C12.7148 1.09705 16.0002 2.64051 16.0002 7V10L18.136 14.2715C18.5326 15.0655 17.9543 15.9998 17.0666 16H2.93285L2.76976 15.9893C1.9762 15.8836 1.49225 15.016 1.86449 14.2715L4.00023 10V7C4.00023 2.5 7.50024 1 10.0002 1L10.2366 1.00488ZM10.0002 2.5C9.0139 2.5 7.86164 2.80331 6.99144 3.49023C6.17831 4.13237 5.50023 5.19144 5.50023 7V10C5.50023 10.2328 5.44516 10.4626 5.34105 10.6709L3.42699 14.5H16.5735L14.6584 10.6709C14.5543 10.4626 14.5002 10.2329 14.5002 10V7C14.5002 5.19145 13.8212 4.13237 13.008 3.49023C12.138 2.80337 10.9865 2.50013 10.0002 2.5Z" fill="#CED0D6"/>
</svg>
