<svg width="20" height="20" viewBox="0 0 20 20" fill="none" xmlns="http://www.w3.org/2000/svg">
<path d="M16 2C17.1046 2 18 2.89543 18 4V16C18 17.1046 17.1046 18 16 18H13.5C13.2239 18 13 17.7761 13 17.5V7.59961C12.9998 7.5582 12.9745 7.52285 12.9385 7.50781L12.9004 7.5H10.5996C10.5447 7.50021 10.5002 7.54469 10.5 7.59961V17.5C10.5 17.7761 10.2761 18 10 18H4C2.89543 18 2 17.1046 2 16V4C2 2.89543 2.89543 2 4 2H16ZM4 3.5C3.72386 3.5 3.5 3.72386 3.5 4V16C3.5 16.2761 3.72386 16.5 4 16.5H9V7.59961C9.00021 6.71626 9.71626 6.00021 10.5996 6H12.9004C13.7837 6.00021 14.4998 6.71626 14.5 7.59961V16.5H16C16.2761 16.5 16.5 16.2761 16.5 16V4C16.5 3.72386 16.2761 3.5 16 3.5H4Z" fill="#CED0D6"/>
</svg>
