<svg width="20" height="20" viewBox="0 0 20 20" fill="none" xmlns="http://www.w3.org/2000/svg">
<path d="M10 1C14.9706 1 19 5.02944 19 10C19 14.9706 14.9706 19 10 19C5.02944 19 1 14.9706 1 10C1 5.02944 5.02944 1 10 1ZM10 2.5C5.85786 2.5 2.5 5.85786 2.5 10C2.5 14.1421 5.85786 17.5 10 17.5C14.1421 17.5 17.5 14.1421 17.5 10C17.5 5.85786 14.1421 2.5 10 2.5ZM10.001 12.7998C10.6636 12.7999 11.2011 13.3373 11.2012 14C11.2012 14.6627 10.6636 15.2001 10.001 15.2002C9.33823 15.2002 8.80078 14.6627 8.80078 14C8.80081 13.3373 9.33825 12.7998 10.001 12.7998ZM10 5C10.5523 5 11 5.44772 11 6V10C11 10.5523 10.5523 11 10 11C9.44771 11 9 10.5523 9 10V6C9 5.44772 9.44771 5 10 5Z" fill="#CED0D6"/>
</svg>
