<svg width="20" height="20" viewBox="0 0 20 20" fill="none" xmlns="http://www.w3.org/2000/svg">
<path d="M11.3232 14.1338C11.6641 13.8979 12.1309 13.9827 12.3672 14.3232L13.0957 15.375C13.6826 15.1331 14.3253 15 15 15C15.6748 15 16.3184 15.1338 16.9053 15.376L17.6338 14.3232C17.7402 14.1687 17.8945 14.0667 18.0635 14.0234C18.2666 13.9712 18.4903 14.0049 18.6768 14.1338C18.9023 14.2896 19.0156 14.5469 18.999 14.8018C18.9902 14.932 18.9471 15.0616 18.8672 15.1768L18.1924 16.1514C19.2969 17.0686 20 18.4522 20 20H10C10 18.452 10.7042 17.0686 11.8086 16.1514L11.1338 15.1768C11.0343 15.0332 10.9922 14.8676 11.002 14.7061C11.0146 14.4839 11.126 14.27 11.3232 14.1338ZM13 17C12.4477 17 12 17.4477 12 18C12 18.5523 12.4477 19 13 19C13.5523 19 14 18.5523 14 18C14 17.4477 13.5523 17 13 17ZM17 17C16.4477 17 16 17.4477 16 18C16 18.5523 16.4477 19 17 19C17.5523 19 18 18.5523 18 18C18 17.4477 17.5523 17 17 17ZM10 2.5C15.2467 2.5 19.5 6.75329 19.5 12C19.5 12.2821 19.488 12.5685 19.4639 12.8555C19.1137 12.6308 18.697 12.5 18.25 12.5C18.1601 12.5 18.0715 12.5054 17.9844 12.5156C17.9948 12.3428 18 12.1706 18 12C18 7.58172 14.4183 4 10 4C5.58172 4 2 7.58172 2 12C2 13.1896 2.25768 14.4539 2.69922 15.5H9.62793C9.69061 15.6773 9.77522 15.8443 9.87793 15.998C9.63391 16.3101 9.41712 16.6457 9.23242 17H2.05957C1.88126 17 1.71532 16.9056 1.63184 16.748C0.910036 15.3825 0.5 13.6282 0.5 12C0.5 6.75329 4.75329 2.5 10 2.5ZM13.7852 7.31445C14.1463 7.01474 14.6826 7.06467 14.9824 7.42578C15.2821 7.78695 15.2322 8.32321 14.8711 8.62305L12.1504 10.8818C12.2472 11.136 12.2998 11.412 12.2998 11.7002C12.2998 11.9944 12.2443 12.2756 12.1436 12.5342C12.0158 12.5116 11.8842 12.5 11.75 12.5C10.781 12.5 9.95544 13.1127 9.63867 13.9717C8.54035 13.7982 7.70028 12.8473 7.7002 11.7002C7.7002 10.4299 8.72975 9.4004 10 9.40039C10.358 9.40039 10.6969 9.48199 10.999 9.62793L13.7852 7.31445ZM10 10.9004C9.55818 10.9004 9.2002 11.2584 9.2002 11.7002C9.20029 12.1419 9.55824 12.5 10 12.5C10.4418 12.5 10.7997 12.1419 10.7998 11.7002C10.7998 11.2584 10.4418 10.9004 10 10.9004Z" fill="#CED0D6"/>
</svg>
