<svg width="20" height="20" viewBox="0 0 20 20" fill="none" xmlns="http://www.w3.org/2000/svg">
<path d="M5 1.25C6.79493 1.25 8.25 2.70507 8.25 4.5C8.25 6.03664 7.18314 7.3224 5.75 7.66113V12.3379C7.18325 12.6765 8.25 13.9633 8.25 15.5C8.25 17.2949 6.79493 18.75 5 18.75C3.20507 18.75 1.75 17.2949 1.75 15.5C1.75 13.9633 2.81675 12.6765 4.25 12.3379V7.66113C2.81686 7.3224 1.75 6.03664 1.75 4.5C1.75 2.70507 3.20507 1.25 5 1.25ZM11.9697 1.46973C12.2626 1.17683 12.7374 1.17683 13.0303 1.46973C13.3232 1.76262 13.3232 2.23738 13.0303 2.53027L11.8105 3.75H14C15.5188 3.75 16.75 4.98122 16.75 6.5V12.3379C18.1832 12.6765 19.25 13.9633 19.25 15.5C19.25 17.2949 17.7949 18.75 16 18.75C14.2051 18.75 12.75 17.2949 12.75 15.5C12.75 13.9633 13.8168 12.6765 15.25 12.3379V6.5C15.25 5.80964 14.6904 5.25 14 5.25H11.8105L13.0303 6.46973C13.3232 6.76262 13.3232 7.23738 13.0303 7.53027C12.7374 7.82317 12.2626 7.82317 11.9697 7.53027L8.93945 4.5L11.9697 1.46973ZM5 13.75C4.0335 13.75 3.25 14.5335 3.25 15.5C3.25 16.4665 4.0335 17.25 5 17.25C5.9665 17.25 6.75 16.4665 6.75 15.5C6.75 14.5335 5.9665 13.75 5 13.75ZM16 13.75C15.0335 13.75 14.25 14.5335 14.25 15.5C14.25 16.4665 15.0335 17.25 16 17.25C16.9665 17.25 17.75 16.4665 17.75 15.5C17.75 14.5335 16.9665 13.75 16 13.75ZM5 2.75C4.0335 2.75 3.25 3.5335 3.25 4.5C3.25 5.4665 4.0335 6.25 5 6.25C5.9665 6.25 6.75 5.4665 6.75 4.5C6.75 3.5335 5.9665 2.75 5 2.75Z" fill="#CED0D6"/>
</svg>
