<svg width="20" height="20" viewBox="0 0 20 20" fill="none" xmlns="http://www.w3.org/2000/svg">
<g clip-path="url(#clip0_25502_12368)">
<path d="M19.1641 17.7549C19.5755 17.7074 19.9476 18.0026 19.9951 18.4141C20.0426 18.8255 19.7474 19.1976 19.3359 19.2451L12.8359 19.9951C12.4245 20.0426 12.0524 19.7474 12.0049 19.3359C11.9574 18.9245 12.2526 18.5524 12.6641 18.5049L19.1641 17.7549ZM10 2.5C14.5606 2.5 18.3706 5.71367 19.2891 10C19.1912 9.99843 19.092 10.0031 18.9922 10.0146L17.7861 10.1543C16.9528 6.62586 13.783 4 10 4C5.58172 4 2 7.58172 2 12C2 13.1896 2.25768 14.4539 2.69922 15.5H10.5V17H2.05957C1.88126 17 1.71532 16.9056 1.63184 16.748C0.910036 15.3825 0.5 13.6282 0.5 12C0.5 6.75329 4.75329 2.5 10 2.5ZM19.1641 14.6299C19.5755 14.5824 19.9476 14.8776 19.9951 15.2891C20.0426 15.7005 19.7474 16.0726 19.3359 16.1201L12.8359 16.8701C12.4245 16.9176 12.0524 16.6224 12.0049 16.2109C11.9574 15.7995 12.2526 15.4274 12.6641 15.3799L19.1641 14.6299ZM13.7852 7.31445C14.1463 7.01474 14.6826 7.06467 14.9824 7.42578C15.2821 7.78695 15.2322 8.32321 14.8711 8.62305L12.2383 10.8096C11.5882 10.9607 11.058 11.3877 10.7607 11.9492C10.7864 11.8709 10.7998 11.7871 10.7998 11.7002C10.7998 11.2584 10.4418 10.9004 10 10.9004C9.55818 10.9004 9.2002 11.2584 9.2002 11.7002C9.20029 12.1419 9.55823 12.5 10 12.5C10.2836 12.5 10.5327 12.3524 10.6748 12.1299C10.5615 12.3994 10.4996 12.6941 10.5 13V13.9453C10.339 13.981 10.1717 14 10 14C8.72981 14 7.70029 12.9704 7.7002 11.7002C7.7002 10.4299 8.72975 9.4004 10 9.40039C10.358 9.40039 10.6969 9.48199 10.999 9.62793L13.7852 7.31445ZM19.1641 11.5049C19.5755 11.4574 19.9476 11.7526 19.9951 12.1641C20.0426 12.5755 19.7474 12.9476 19.3359 12.9951L12.8359 13.7451C12.4245 13.7926 12.0524 13.4974 12.0049 13.0859C11.9574 12.6745 12.2526 12.3024 12.6641 12.2549L19.1641 11.5049Z" fill="#CED0D6"/>
</g>
<defs>
<clipPath id="clip0_25502_12368">
<rect width="20" height="20" fill="white"/>
</clipPath>
</defs>
</svg>
