<svg width="20" height="20" viewBox="0 0 20 20" fill="none" xmlns="http://www.w3.org/2000/svg">
<path fill-rule="evenodd" clip-rule="evenodd" d="M13.9335 1.75C14.5482 1.75 15.1182 2.0725 15.4344 2.59961L19.3339 9.09961C19.6664 9.6538 19.6664 10.3462 19.3339 10.9004L15.4344 17.4004C15.1182 17.9275 14.5482 18.25 13.9335 18.25H6.06628C5.45157 18.25 4.88157 17.9275 4.5653 17.4004L0.665891 10.9004C0.333375 10.3462 0.333375 9.6538 0.665891 9.09961L4.5653 2.59961C4.88157 2.0725 5.45157 1.75 6.06628 1.75H13.9335ZM6.06628 3.25C5.9785 3.25 5.89663 3.29585 5.85144 3.37109L1.95202 9.87109C1.90452 9.95026 1.90452 10.0497 1.95202 10.1289L5.85144 16.6289C5.89663 16.7042 5.9785 16.75 6.06628 16.75H13.9335C14.0212 16.75 14.1031 16.7042 14.1483 16.6289L18.0477 10.1289C18.0952 10.0497 18.0952 9.95026 18.0477 9.87109L14.1483 3.37109C14.1031 3.29585 14.0212 3.25 13.9335 3.25H6.06628ZM7.00964 6.39551C7.1034 5.70953 7.87476 5.30901 8.49988 5.66992L14.4999 9.13379C15.1665 9.51869 15.1665 10.4813 14.4999 10.8662L8.49988 14.3301C7.87476 14.691 7.1034 14.2905 7.00964 13.6045L6.99988 13.4639V6.53613L7.00964 6.39551ZM8.49988 12.5986L13.0009 10L8.49988 7.40137V12.5986Z" fill="#CED0D6"/>
</svg>
