<svg width="20" height="20" viewBox="0 0 20 20" fill="none" xmlns="http://www.w3.org/2000/svg">
<path d="M14.5226 4C15.3997 4 16.1753 4.57148 16.4347 5.40918L18.9093 13.4082C19.2948 14.6549 18.4033 15.9186 17.1222 15.9961L16.9972 16H3.00206L2.87706 15.9961C1.63838 15.9208 0.76407 14.7368 1.05675 13.5312L1.08995 13.4102L3.55772 5.41016C3.80042 4.62426 4.49754 4.07284 5.30675 4.00684L5.46983 4H14.5226ZM5.46983 5.5C5.25078 5.50027 5.05707 5.64334 4.99229 5.85254L2.52452 13.8525C2.42579 14.1738 2.66584 14.4997 3.00206 14.5H16.9972C17.334 14.5 17.5741 14.1732 17.4747 13.8516L15.0001 5.85254C14.9351 5.64334 14.7417 5.5 14.5226 5.5H5.46983ZM14.2482 11.001C14.6624 11.001 14.998 11.3368 14.9982 11.751C14.9981 12.1652 14.6625 12.501 14.2482 12.501H5.74425C5.33012 12.5007 4.99431 12.165 4.99425 11.751C4.9944 11.337 5.33018 11.0012 5.74425 11.001H14.2482ZM13.2482 7.50098C13.6624 7.50119 13.9982 7.83683 13.9982 8.25098C13.998 8.665 13.6623 9.00077 13.2482 9.00098H6.74522C6.33102 9.00086 5.9944 8.66506 5.99425 8.25098C5.99425 7.83677 6.33093 7.50109 6.74522 7.50098H13.2482Z" fill="#CED0D6"/>
</svg>
