<svg width="20" height="20" viewBox="0 0 20 20" fill="none" xmlns="http://www.w3.org/2000/svg">
<path d="M17 2C18.1046 2 19 2.89543 19 4V16C19 17.0357 18.2128 17.887 17.2041 17.9893L17 18H3L2.7959 17.9893C1.78722 17.887 1 17.0357 1 16V4C1 2.89543 1.89543 2 3 2H17ZM3 3.5C2.72386 3.5 2.5 3.72386 2.5 4V16C2.5 16.2761 2.72386 16.5 3 16.5H17C17.2761 16.5 17.5 16.2761 17.5 16V4C17.5 3.72386 17.2761 3.5 17 3.5H3ZM14.25 12.5C14.6642 12.5 15 12.8358 15 13.25C15 13.6642 14.6642 14 14.25 14L9.75 14.0293C9.33595 14.0293 9.00026 13.6933 9 13.2793C9 12.8651 9.33579 12.5293 9.75 12.5293L14.25 12.5ZM5.21973 5.71973C5.51262 5.42683 5.98738 5.42683 6.28027 5.71973L9.03027 8.46973C9.32317 8.76262 9.32317 9.23738 9.03027 9.53027L6.28027 12.2803C5.98738 12.5732 5.51262 12.5732 5.21973 12.2803C4.92683 11.9874 4.92683 11.5126 5.21973 11.2197L7.43945 9L5.21973 6.78027C4.92683 6.48738 4.92683 6.01262 5.21973 5.71973Z" fill="#CED0D6"/>
</svg>
