<svg width="20" height="20" viewBox="0 0 20 20" fill="none" xmlns="http://www.w3.org/2000/svg">
<path fill-rule="evenodd" clip-rule="evenodd" d="M10 3C14.4183 3 18 6.58172 18 11C18 15.4183 14.4183 19 10 19C5.58172 19 2 15.4183 2 11C2 6.58172 5.58172 3 10 3ZM10 4.5C6.41015 4.5 3.5 7.41015 3.5 11C3.5 14.5899 6.41015 17.5 10 17.5C13.5899 17.5 16.5 14.5899 16.5 11C16.5 7.41015 13.5899 4.5 10 4.5ZM10 6.75C10.4142 6.75 10.75 7.08579 10.75 7.5V11C10.75 11.2508 10.6247 11.4849 10.416 11.624L7.41602 13.624C7.07137 13.8538 6.60574 13.7607 6.37598 13.416C6.14621 13.0714 6.23934 12.6057 6.58398 12.376L9.25 10.5986V7.5C9.25 7.08579 9.58579 6.75 10 6.75ZM13.25 0C13.6642 0 14 0.335786 14 0.75C14 1.16421 13.6642 1.5 13.25 1.5H6.75C6.33579 1.5 6 1.16421 6 0.75C6 0.335786 6.33579 0 6.75 0H13.25Z" fill="#CED0D6"/>
</svg>
