<svg width="20" height="20" viewBox="0 0 20 20" fill="none" xmlns="http://www.w3.org/2000/svg">
<path fill-rule="evenodd" clip-rule="evenodd" d="M5 3C5 2.44772 5.44772 2 6 2H11C11.5523 2 12 2.44772 12 3V8C12 8.55228 11.5523 9 11 9H6C5.44772 9 5 8.55228 5 8V3ZM6.5 7.5V3.5H10.5V7.5H6.5Z" fill="#CED0D6"/>
<path fill-rule="evenodd" clip-rule="evenodd" d="M19.0574 8.10733C18.9103 8.07428 18.7498 8.0488 18.582 8.03195L18.5575 8.02956C18.076 7.98384 17.5375 8.00915 17.0852 8.13095C17.0644 7.74724 16.967 7.38963 16.7953 7.05455C16.7268 6.92083 16.6464 6.79068 16.5544 6.66391C16.3445 6.37464 16.0737 6.10288 15.7441 5.84596L15.4346 5.63818L15.2283 5.94972C15.0217 6.26325 14.8761 6.62989 14.7909 7.0127C14.7088 7.38137 14.6828 7.76503 14.7125 8.1307C14.7394 8.38959 14.802 8.66664 14.9066 8.9262C14.9876 9.12706 15.0938 9.31744 15.2283 9.48084C14.7866 9.73702 14.3581 9.87334 13.7348 9.94395C13.0117 10.0258 12.0266 10.0194 10.4547 10.009C9.82827 10.0049 9.10817 10.0001 8.27484 10.0001H1.95561C1.41112 10.0001 0.965943 10.4357 1.00205 10.979C1.09118 12.32 1.4229 14.3297 2.43062 15.6196C2.57483 15.8043 2.73311 15.9829 2.9047 16.155C3.96643 17.2182 5.57057 17.9978 7.96937 18.0001C11.6289 18.0033 14.7653 15.1984 16.6724 10.4159L16.7543 10.4175C17.2759 10.4285 18.3141 10.4503 19.1202 9.77993C19.1395 9.76387 19.1587 9.74742 19.1777 9.73056C19.3991 9.53442 19.601 9.28323 19.7674 8.96179C19.7872 8.93541 19.9737 8.54624 19.9737 8.54624L19.6649 8.33872C19.5227 8.24302 19.3098 8.16404 19.0574 8.10733ZM14.6274 11.3135C12.853 14.8349 10.4261 16.5022 7.97078 16.5001C5.92891 16.4981 4.71934 15.8492 3.96635 15.0954C3.83581 14.9644 3.71792 14.831 3.61266 14.6962C3.01246 13.9279 2.69263 12.6596 2.55592 11.5001H8.27484C9.06334 11.5001 9.76247 11.5047 10.383 11.5087C11.5708 11.5164 12.4708 11.5223 13.1587 11.4908C13.7057 11.4658 14.1822 11.416 14.6274 11.3135Z" fill="#CED0D6"/>
</svg>
