<svg width="20" height="20" viewBox="0 0 20 20" fill="none" xmlns="http://www.w3.org/2000/svg">
<g clip-path="url(#clip0_25502_12398)">
<path fill-rule="evenodd" clip-rule="evenodd" d="M18 4.5C18 3.8322 17.6404 3.28322 17.181 2.87122C16.7212 2.45889 16.0983 2.1219 15.3925 1.85421C13.9757 1.31681 12.069 1 10 1C7.93101 1 6.02427 1.31681 4.60749 1.85421C3.90174 2.1219 3.27879 2.45889 2.81901 2.87122C2.35959 3.28322 2 3.8322 2 4.5V15.5C2 16.1678 2.35959 16.7168 2.81901 17.1288C3.27879 17.5411 3.90174 17.8781 4.60749 18.1458C6.02427 18.6832 7.93101 19 10 19C10.2082 19 10.4147 18.9968 10.6192 18.9905C10.294 18.5366 10.0306 18.0354 9.84118 17.4993C7.971 17.4835 6.31353 17.1886 5.13947 16.7433C4.53322 16.5133 4.09443 16.2577 3.82047 16.0121C3.54615 15.7661 3.5 15.5916 3.5 15.5V13.9216C3.83265 14.1194 4.20672 14.2938 4.60749 14.4458C5.91018 14.9399 7.62708 15.2475 9.50348 15.2939C9.52096 14.776 9.60407 14.2748 9.74475 13.7983C7.91406 13.7733 6.29332 13.481 5.13947 13.0433C4.53322 12.8133 4.09443 12.5577 3.82047 12.3121C3.54615 12.0661 3.5 11.8916 3.5 11.8V10.3216C3.83265 10.5194 4.20672 10.6938 4.60749 10.8458C6.02427 11.3832 7.93101 11.7 10 11.7C10.2943 11.7 10.5853 11.6936 10.8721 11.681C11.5579 10.8509 12.4629 10.2083 13.4983 9.842C12.4873 10.0668 11.2919 10.2 10 10.2C8.06493 10.2 6.34666 9.9012 5.13947 9.4433C4.53322 9.21334 4.09443 8.95775 3.82047 8.71206C3.54615 8.46606 3.5 8.29159 3.5 8.2V6.62161C3.83265 6.81942 4.20672 6.99378 4.60749 7.14579C6.02427 7.68319 7.93101 8 10 8C12.069 8 13.9757 7.68319 15.3925 7.14579C15.7933 6.99378 16.1673 6.81942 16.5 6.62161V8.2C16.5 8.29159 16.4538 8.46606 16.1795 8.71206C15.9056 8.95775 15.4668 9.21334 14.8605 9.4433C14.7185 9.49718 14.5694 9.54885 14.4136 9.5981C14.766 9.53366 15.1291 9.5 15.5 9.5C16.3922 9.5 17.2389 9.69474 18 10.044V4.5ZM3.82047 3.98794C3.54615 4.23394 3.5 4.40841 3.5 4.5C3.5 4.59159 3.54615 4.76606 3.82047 5.01206C4.09443 5.25775 4.53322 5.51334 5.13947 5.7433C6.34666 6.2012 8.06493 6.5 10 6.5C11.9351 6.5 13.6533 6.2012 14.8605 5.7433C15.4668 5.51334 15.9056 5.25775 16.1795 5.01206C16.4538 4.76606 16.5 4.59159 16.5 4.5C16.5 4.40841 16.4538 4.23394 16.1795 3.98794C15.9056 3.74225 15.4668 3.48666 14.8605 3.2567C13.6533 2.7988 11.9351 2.5 10 2.5C8.06493 2.5 6.34666 2.7988 5.13947 3.2567C4.53322 3.48666 4.09443 3.74225 3.82047 3.98794Z" fill="#CED0D6"/>
<path d="M16.2506 11.7002C16.2506 11.286 15.9149 10.9502 15.5006 10.9502C15.0864 10.9502 14.7506 11.286 14.7506 11.7002V12.75C14.7506 13.1642 15.0864 13.5 15.5006 13.5C15.9149 13.5 16.2506 13.1642 16.2506 12.75V11.7002Z" fill="#CED0D6"/>
<path d="M16.2506 18.2502C16.2506 17.836 15.9149 17.5002 15.5006 17.5002C15.0864 17.5002 14.7506 17.836 14.7506 18.2502V19.2502C14.7506 19.6644 15.0864 20.0002 15.5006 20.0002C15.9149 20.0002 16.2506 19.6644 16.2506 19.2502V18.2502Z" fill="#CED0D6"/>
<path d="M19.1441 14.2375C19.5028 14.0304 19.6257 13.5717 19.4186 13.213C19.2115 12.8543 18.7528 12.7314 18.3941 12.9385L17.4849 13.4634C17.1262 13.6705 17.0033 14.1292 17.2104 14.4879C17.4175 14.8466 17.8762 14.9695 18.2349 14.7624L19.1441 14.2375Z" fill="#CED0D6"/>
<path d="M13.4716 17.5125C13.8303 17.3054 13.9532 16.8467 13.7461 16.488C13.539 16.1293 13.0803 16.0064 12.7216 16.2135L11.8556 16.7135C11.4969 16.9206 11.374 17.3793 11.5811 17.738C11.7882 18.0967 12.2469 18.2196 12.6056 18.0125L13.4716 17.5125Z" fill="#CED0D6"/>
<path d="M11.5827 13.2128C11.7898 12.8541 12.2485 12.7312 12.6072 12.9383L13.5163 13.4632C13.8751 13.6703 13.998 14.129 13.7909 14.4877C13.5838 14.8464 13.1251 14.9693 12.7663 14.7622L11.8572 14.2373C11.4985 14.0302 11.3756 13.5715 11.5827 13.2128Z" fill="#CED0D6"/>
<path d="M17.2551 16.4878C17.4622 16.1291 17.9209 16.0062 18.2797 16.2133L19.1457 16.7133C19.5044 16.9204 19.6273 17.3791 19.4202 17.7378C19.2131 18.0965 18.7544 18.2194 18.3957 18.0123L17.5297 17.5123C17.1709 17.3052 17.048 16.8465 17.2551 16.4878Z" fill="#CED0D6"/>
<path d="M16.75 15.5C16.75 16.1904 16.1904 16.75 15.5 16.75C14.8096 16.75 14.25 16.1904 14.25 15.5C14.25 14.8096 14.8096 14.25 15.5 14.25C16.1904 14.25 16.75 14.8096 16.75 15.5Z" fill="#CED0D6"/>
</g>
<defs>
<clipPath id="clip0_25502_12398">
<rect width="20" height="20" fill="white"/>
</clipPath>
</defs>
</svg>
