<svg width="16" height="16" viewBox="0 0 16 16" fill="none" xmlns="http://www.w3.org/2000/svg">
<path fill-rule="evenodd" clip-rule="evenodd" d="M4 3C4 2.44772 4.44772 2 5 2H8C8.55228 2 9 2.44772 9 3V6C9 6.55228 8.55228 7 8 7H5C4.44772 7 4 6.55228 4 6V3ZM5 3H8V6H5V3Z" fill="#CED0D6"/>
<path fill-rule="evenodd" clip-rule="evenodd" d="M15.2747 6.48569C15.2112 6.47142 15.1445 6.45893 15.0754 6.44836C14.959 6.43055 14.8359 6.41819 14.7098 6.41196C14.3751 6.39541 14.0194 6.42204 13.7136 6.50441C13.6972 6.20062 13.62 5.91752 13.4841 5.65228C13.4015 5.49109 13.2972 5.3365 13.1716 5.18786C13.0266 5.01619 12.8532 4.85247 12.6521 4.6957L12.407 4.53125L12.2438 4.77783C12.1152 4.97299 12.0164 5.19413 11.9473 5.42704C11.8439 5.77559 11.8068 6.15051 11.8355 6.50421C11.8568 6.70919 11.9063 6.92852 11.9892 7.13401C12.0533 7.29295 12.1374 7.4436 12.2438 7.57292C11.9438 7.74695 11.6514 7.85109 11.2627 7.91246C10.6731 8.00555 9.86178 8.0002 8.4655 7.99101C7.96948 7.98774 7.39965 7.98398 6.73971 7.98398H1.94458C1.39865 7.98398 0.949836 8.42168 1.00452 8.96486C1.10064 9.91958 1.38252 11.1782 2.11481 12.1156C2.22896 12.2618 2.35425 12.4032 2.49007 12.5394C3.33049 13.381 4.60026 13.9981 6.49905 13.9999C9.39577 14.0025 11.8773 12.099 13.3869 8.31311L13.4518 8.31438C13.9897 8.32567 15.2212 8.35153 15.8367 7.16206C15.8524 7.14118 16 6.83313 16 6.83313L15.7556 6.66887C15.643 6.5931 15.4745 6.53058 15.2747 6.48569ZM6.5 12.9999C8.67541 13.0018 10.7061 11.71 12.1164 8.7289C11.6675 8.88554 11.1909 8.94966 10.597 8.97682C10.0574 9.0015 9.35324 8.99691 8.41777 8.99081C7.92565 8.98761 7.36953 8.98398 6.73971 8.98398H2.01242C2.11193 9.84157 2.36818 10.8156 2.90295 11.5001C2.99104 11.6129 3.08925 11.724 3.19768 11.8328C3.83224 12.4683 4.83894 12.9983 6.5 12.9999Z" fill="#CED0D6"/>
</svg>
