<svg width="20" height="20" viewBox="0 0 20 20" fill="none" xmlns="http://www.w3.org/2000/svg">
<path fill-rule="evenodd" clip-rule="evenodd" d="M9.82822 1.39072C10.5469 1.15117 11.3394 1.33846 11.8751 1.87412L18.7081 8.70713C18.8956 8.89465 19.0011 9.14898 19.0011 9.41416V14.0001C19.001 14.5523 18.5533 15 18.0011 15.0001H15.0011V18.0001C15.001 18.5523 14.5533 19 14.0011 19.0001H9.41514C9.14995 19.0001 8.89563 18.8946 8.70811 18.7071L1.8751 11.8741C1.33943 11.3385 1.15214 10.5459 1.3917 9.82725L3.18467 4.44834C3.38376 3.85136 3.85233 3.38278 4.44932 3.18369L9.82822 1.39072ZM5.50108 13.379L9.62217 17.5001H13.5011V14.5606L5.50108 6.56065V13.379ZM14.5616 13.5001H17.5011V9.62119L13.38 5.5001H6.56162L14.5616 13.5001ZM2.81455 10.3019C2.75478 10.4815 2.80179 10.6797 2.93565 10.8136L4.00108 11.879V6.74326L2.81455 10.3019ZM10.8146 2.93467C10.6807 2.80081 10.4824 2.75381 10.3028 2.81358L6.74424 4.0001H11.88L10.8146 2.93467Z" fill="#CED0D6"/>
</svg>
