<svg width="16" height="16" viewBox="0 0 16 16" fill="none" xmlns="http://www.w3.org/2000/svg">
<path d="M10.5483 11.0901C10.1237 11.0901 9.74749 11.0132 9.41974 10.8593C9.09199 10.7025 8.83549 10.4859 8.65024 10.2095C8.46499 9.93015 8.37094 9.61095 8.36809 9.25185H9.38126C9.38126 9.43995 9.43114 9.6081 9.53089 9.7563C9.63064 9.9045 9.76886 10.0199 9.94556 10.1026C10.1251 10.1824 10.3303 10.2223 10.5612 10.2223C10.7863 10.2223 10.9844 10.1852 11.1554 10.1111C11.3264 10.037 11.4575 9.933 11.5487 9.79905C11.6427 9.66225 11.6898 9.5055 11.6898 9.3288C11.6898 9.1065 11.6228 8.91555 11.4888 8.75595C11.3549 8.5935 11.1768 8.49375 10.9545 8.4567L9.94129 8.2857C9.65059 8.2344 9.39836 8.1318 9.18461 7.9779C8.97086 7.824 8.80556 7.63163 8.68871 7.40078C8.57471 7.16708 8.51771 6.912 8.51771 6.63555C8.51771 6.30495 8.60321 6.00855 8.77421 5.74635C8.94806 5.4813 9.18889 5.27468 9.49669 5.12648C9.80449 4.97543 10.1522 4.8999 10.5398 4.8999C10.9359 4.8999 11.2879 4.97258 11.5957 5.11793C11.9064 5.26328 12.1486 5.46563 12.3225 5.72498C12.4963 5.98433 12.5847 6.28073 12.5875 6.61418H11.5743C11.5743 6.45173 11.5316 6.30638 11.4461 6.17813C11.3606 6.04703 11.2409 5.94585 11.087 5.8746C10.9331 5.80335 10.755 5.76773 10.5526 5.76773C10.3503 5.76773 10.1721 5.80193 10.0182 5.87033C9.86434 5.93873 9.74464 6.03563 9.65914 6.16103C9.57364 6.28643 9.53089 6.43178 9.53089 6.59708C9.53089 6.79088 9.59359 6.95903 9.71899 7.10153C9.84439 7.24118 10.0083 7.3281 10.2106 7.3623L11.2067 7.52475C11.5002 7.57605 11.761 7.68578 11.989 7.85393C12.2199 8.02208 12.398 8.23155 12.5234 8.48235C12.6488 8.73315 12.7115 8.99963 12.7115 9.28178C12.7115 9.62378 12.6203 9.933 12.4379 10.2095C12.2555 10.4831 12.0004 10.6982 11.6727 10.855C11.3449 11.0117 10.9701 11.0901 10.5483 11.0901Z" fill="#CED0D6"/>
<path d="M3 4.99986H8V5.99986H6V10.9999H5V5.99986H3V4.99986Z" fill="#CED0D6"/>
<path fill-rule="evenodd" clip-rule="evenodd" d="M1 4C1 2.89543 1.89543 2 3 2H13C14.1046 2 15 2.89543 15 4V12C15 13.1046 14.1046 14 13 14H3C1.89543 14 1 13.1046 1 12V4ZM3 3H13C13.5523 3 14 3.44772 14 4V12C14 12.5523 13.5523 13 13 13H3C2.44772 13 2 12.5523 2 12V4C2 3.44772 2.44772 3 3 3Z" fill="#CED0D6"/>
</svg>
