<svg width="20" height="20" viewBox="0 0 20 20" fill="none" xmlns="http://www.w3.org/2000/svg">
<path d="M13.3786 14.125C12.8137 14.125 12.3133 14.0226 11.8773 13.8179C11.4413 13.6094 11.1001 13.3213 10.8537 12.9535C10.6073 12.582 10.4822 12.1574 10.4784 11.6797H11.8261C11.8261 11.9299 11.8925 12.1536 12.0252 12.3507C12.1578 12.5479 12.3417 12.7014 12.5768 12.8114C12.8156 12.9175 13.0886 12.9706 13.3957 12.9706C13.6952 12.9706 13.9586 12.9213 14.1861 12.8227C14.4136 12.7242 14.588 12.5858 14.7093 12.4076C14.8344 12.2256 14.8969 12.0171 14.8969 11.7821C14.8969 11.4864 14.8079 11.2324 14.6297 11.02C14.4515 10.804 14.2145 10.6713 13.9188 10.622L12.5711 10.3945C12.1844 10.3263 11.8489 10.1898 11.5645 9.98506C11.2802 9.78034 11.0603 9.52444 10.9049 9.21736C10.7532 8.90648 10.6774 8.56718 10.6774 8.19943C10.6774 7.75966 10.7911 7.36538 11.0186 7.0166C11.2499 6.66402 11.5702 6.38916 11.9797 6.19202C12.3891 5.99109 12.8516 5.89062 13.3672 5.89062C13.8942 5.89062 14.3624 5.9873 14.7718 6.18065C15.1851 6.374 15.5073 6.64317 15.7386 6.98816C15.9698 7.33316 16.0874 7.72744 16.0912 8.171H14.7434C14.7434 7.95491 14.6865 7.76156 14.5728 7.59096C14.4591 7.41656 14.2998 7.28198 14.0951 7.1872C13.8904 7.09242 13.6534 7.04503 13.3843 7.04503C13.1151 7.04503 12.8782 7.09052 12.6734 7.18151C12.4687 7.2725 12.3095 7.4014 12.1958 7.56821C12.082 7.73502 12.0252 7.92837 12.0252 8.14825C12.0252 8.40605 12.1086 8.62973 12.2754 8.81929C12.4422 9.00505 12.6602 9.12068 12.9293 9.16618L14.2543 9.38227C14.6448 9.45051 14.9917 9.59647 15.295 9.82015C15.6021 10.0438 15.839 10.3225 16.0059 10.6561C16.1727 10.9897 16.2561 11.3442 16.2561 11.7195C16.2561 12.1745 16.1348 12.5858 15.8921 12.9535C15.6495 13.3175 15.3102 13.6037 14.8742 13.8122C14.4382 14.0207 13.9397 14.125 13.3786 14.125Z" fill="#CED0D6"/>
<path d="M3.50098 6.0236H9.99708V7.5H7.49708V14.005H6V7.5H3.50098V6.0236Z" fill="#CED0D6"/>
<path fill-rule="evenodd" clip-rule="evenodd" d="M1 5C1 3.89543 1.89543 3 3 3H17C18.1046 3 19 3.89543 19 5V15C19 16.1046 18.1046 17 17 17H3C1.89543 17 1 16.1046 1 15V5ZM3 4.5H17C17.2761 4.5 17.5 4.72386 17.5 5V15C17.5 15.2761 17.2761 15.5 17 15.5H3C2.72386 15.5 2.5 15.2761 2.5 15V5C2.5 4.72386 2.72386 4.5 3 4.5Z" fill="#CED0D6"/>
</svg>
