<svg width="16" height="16" viewBox="0 0 16 16" fill="none" xmlns="http://www.w3.org/2000/svg">
<path d="M11.1465 11.8535C11.2441 11.9511 11.372 12 11.5 12V14C11.5 14.2761 11.2761 14.5 11 14.5H7.41406C7.28151 14.5 7.15428 14.4472 7.06055 14.3535L2.22754 9.52051C1.8258 9.11876 1.68557 8.52435 1.86523 7.98535L3.1582 4.10645C3.1779 4.04741 3.20106 3.99002 3.22754 3.93457L11.1465 11.8535ZM7.98535 1.86523C8.52435 1.68557 9.11876 1.8258 9.52051 2.22754L14.3535 7.06055C14.4472 7.15428 14.5 7.28151 14.5 7.41406V11C14.5 11.2761 14.2761 11.5 14 11.5H12C12 11.372 11.9511 11.2441 11.8535 11.1465L3.93457 3.22754C3.99002 3.20106 4.04741 3.1779 4.10645 3.1582L7.98535 1.86523Z" stroke="#CED0D6" stroke-linecap="round"/>
<path d="M3.5 10.5V4.5C3.5 3.94772 3.94772 3.5 4.5 3.5H10.5" stroke="#CED0D6" stroke-linecap="round"/>
</svg>
