<svg width="20" height="20" viewBox="0 0 20 20" fill="none" xmlns="http://www.w3.org/2000/svg">
<g clip-path="url(#clip0_25502_12390)">
<path d="M14.9756 11.2197C15.2684 10.9267 15.7433 10.9267 16.0361 11.2197L19.7803 14.9678C20.0732 15.261 20.0732 15.7371 19.7803 16.0303L16.0342 19.7803C15.7413 20.0733 15.2665 20.0733 14.9736 19.7803C14.6808 19.4871 14.6809 19.012 14.9736 18.7188L18.1895 15.499L14.9756 12.2812C14.6829 11.988 14.6828 11.5129 14.9756 11.2197ZM10 1C12.069 1 13.9758 1.31709 15.3926 1.85449C16.0981 2.12213 16.7209 2.45889 17.1807 2.87109C17.6401 3.2831 18 3.8322 18 4.5V11.0635L17.0977 10.1602C16.2188 9.28039 14.7929 9.28039 13.9141 10.1602C13.5606 10.5141 13.349 10.9564 13.2803 11.416C12.2771 11.5995 11.1643 11.7002 10 11.7002C7.93101 11.7002 6.02421 11.3831 4.60742 10.8457C4.20669 10.6937 3.83263 10.5191 3.5 10.3213V11.7998C3.5 11.8914 3.54599 12.0665 3.82031 12.3125C4.09428 12.5581 4.5335 12.813 5.13965 13.043C6.34684 13.5009 8.06495 13.7998 10 13.7998C11.0855 13.7998 12.1029 13.7064 13 13.543V15.0645C12.0715 15.217 11.0569 15.2998 10 15.2998C7.93101 15.2998 6.02421 14.9827 4.60742 14.4453C4.20678 14.2933 3.83256 14.1196 3.5 13.9219V15.5C3.5 15.5916 3.54622 15.7658 3.82031 16.0117C4.09427 16.2574 4.5334 16.5132 5.13965 16.7432C6.34684 17.201 8.06499 17.5 10 17.5C11.0855 17.5 12.1029 17.4056 13 17.2422V18.7646C12.0715 18.9172 11.0569 19 10 19C7.93101 19 6.02421 18.6829 4.60742 18.1455C3.90186 17.8779 3.27906 17.5411 2.81934 17.1289C2.35991 16.7169 2 16.1678 2 15.5V4.5C2 3.8322 2.35991 3.2831 2.81934 2.87109C3.27906 2.45889 3.90186 2.12213 4.60742 1.85449C6.02421 1.31709 7.93101 1 10 1ZM16.5 6.62207C16.1674 6.81981 15.7932 6.99354 15.3926 7.14551C13.9758 7.68291 12.069 8 10 8C7.93101 8 6.02421 7.68291 4.60742 7.14551C4.20679 6.99354 3.83256 6.81981 3.5 6.62207V8.2002C3.50007 8.29182 3.54633 8.46616 3.82031 8.71191C4.09427 8.9576 4.5334 9.2134 5.13965 9.44336C6.34684 9.90122 8.06502 10.2002 10 10.2002C11.935 10.2002 13.6532 9.90122 14.8604 9.44336C15.4666 9.2134 15.9057 8.9576 16.1797 8.71191C16.4537 8.46616 16.4999 8.29182 16.5 8.2002V6.62207ZM10 2.5C8.06499 2.5 6.34684 2.79896 5.13965 3.25684C4.5334 3.48679 4.09427 3.7426 3.82031 3.98828C3.54623 4.23416 3.5 4.40844 3.5 4.5C3.5 4.59156 3.54622 4.76584 3.82031 5.01172C4.09427 5.2574 4.5334 5.51321 5.13965 5.74316C6.34684 6.20104 8.06499 6.5 10 6.5C11.935 6.5 13.6532 6.20104 14.8604 5.74316C15.4666 5.51321 15.9057 5.2574 16.1797 5.01172C16.4538 4.76584 16.5 4.59156 16.5 4.5C16.5 4.40844 16.4538 4.23416 16.1797 3.98828C15.9057 3.7426 15.4666 3.48679 14.8604 3.25684C13.6532 2.79896 11.935 2.5 10 2.5Z" fill="#CED0D6"/>
</g>
<defs>
<clipPath id="clip0_25502_12390">
<rect width="20" height="20" fill="white"/>
</clipPath>
</defs>
</svg>
