<svg width="20" height="20" viewBox="0 0 20 20" fill="none" xmlns="http://www.w3.org/2000/svg">
<path d="M8.36035 2C14.2001 2.00012 18 4.94006 18 8.95996C18 12.18 15.26 14.5 11.5 14.5C8.3 14.5 5.98047 13.1 5.98047 11C5.98047 9.12 7.96035 8.00047 10.3604 8.98047L10.0195 10C11.5595 10.6 12.6602 10.08 12.6602 9C12.6602 7.76001 10.98 6.75979 8.58008 6.75977C5.68008 6.75977 3.5 8.54004 3.5 11.04C3.50003 14.1799 6.65987 16.4999 11.6396 16.5C12.9996 16.5 14.5403 16.2597 15.8203 15.7197C16.6001 15.4 17 15.8603 17 16.2402C16.9999 16.7001 16.7596 16.9002 16.2197 17.1201C14.7598 17.7 13.1196 18 11.6396 18C5.79987 17.9999 2.00002 15.0599 2 11.04C2 7.82004 4.74 5.5 8.5 5.5C11.7 5.5 14.0195 6.9 14.0195 9C14.0195 10.88 12.0396 11.9995 9.63965 11.0195L9.98047 10C8.44047 9.4 7.33984 9.92 7.33984 11C7.33984 12.24 9.01996 13.2402 11.4199 13.2402C14.3199 13.2402 16.5 11.46 16.5 8.95996C16.5 5.82005 13.3401 3.50011 8.36035 3.5C7.00035 3.5 5.45969 3.74027 4.17969 4.28027C3.46002 4.57994 3.00016 4.20005 3 3.74023C3 3.36023 3.26027 3.09988 3.78027 2.87988C5.2402 2.25997 6.88044 2 8.36035 2Z" fill="#CED0D6"/>
</svg>
