<svg width="16" height="16" viewBox="0 0 16 16" fill="none" xmlns="http://www.w3.org/2000/svg">
<path d="M1.5 11C1.77614 11 2 11.2239 2 11.5V13.5C2 13.7761 1.77614 14 1.5 14C1.22386 14 1 13.7761 1 13.5V11.5C1 11.2239 1.22386 11 1.5 11Z" fill="#CED0D6"/>
<path d="M7 6C7.55228 6 8 6.44772 8 7C8 7.55228 7.55228 8 7 8C6.44772 8 6 7.55228 6 7C6 6.44772 6.44772 6 7 6Z" fill="#CED0D6"/>
<path d="M10 6C10.5523 6 11 6.44772 11 7C11 7.55228 10.5523 8 10 8C9.44771 8 9 7.55228 9 7C9 6.44772 9.44771 6 10 6Z" fill="#CED0D6"/>
<path fill-rule="evenodd" clip-rule="evenodd" d="M10.5 1C10.7761 1 11 1.22386 11 1.5V3H13L13.2041 3.01074C14.2128 3.113 15 3.96435 15 5V11C15 12.0357 14.2128 12.887 13.2041 12.9893L13 13H6C4.96435 13 4.113 12.2128 4.01074 11.2041L4 11V5C4 3.89543 4.89543 3 6 3H7V1.5C7 1.22386 7.22386 1 7.5 1C7.77614 1 8 1.22386 8 1.5V3H10V1.5C10 1.22386 10.2239 1 10.5 1ZM6 4C5.44772 4 5 4.44772 5 5V11C5 11.5523 5.44772 12 6 12H13C13.5523 12 14 11.5523 14 11V5C14 4.44772 13.5523 4 13 4H6Z" fill="#CED0D6"/>
<path d="M1.5 6.5C1.77614 6.5 2 6.72386 2 7V9C2 9.27614 1.77614 9.5 1.5 9.5C1.22386 9.5 1 9.27614 1 9V7C1 6.72386 1.22386 6.5 1.5 6.5Z" fill="#CED0D6"/>
<path d="M1.5 2C1.77614 2 2 2.22386 2 2.5V4.5C2 4.77614 1.77614 5 1.5 5C1.22386 5 1 4.77614 1 4.5V2.5C1 2.22386 1.22386 2 1.5 2Z" fill="#CED0D6"/>
</svg>
