<svg width="20" height="20" viewBox="0 0 20 20" fill="none" xmlns="http://www.w3.org/2000/svg">
<g id="toolWindows / cdiToolWindow@20x20">
<path id="stroke" fill-rule="evenodd" clip-rule="evenodd" d="M3.27423 3.31439C6.91774 -0.329038 12.0006 0.586729 15.6844 4.27045C19.3679 7.95414 20.3839 12.9763 16.66 16.7001C12.936 20.4237 7.72173 19.2755 4.20001 15.7538C0.678303 12.2322 -0.369074 6.9578 3.27423 3.31439ZM3.8504 4.91107C2.74225 6.27488 2.36544 7.83785 2.54083 9.41303C2.74407 11.2372 3.70082 13.1336 5.26056 14.6933C6.82995 16.2627 8.71635 17.239 10.5311 17.454C12.0976 17.6396 13.6668 17.2698 15.0643 16.1249L3.8504 4.91107ZM9.30451 2.53607C7.78706 2.37369 6.27202 2.75297 4.9129 3.85248L16.1229 15.0624C17.2587 13.6702 17.632 12.1496 17.4598 10.6406C17.2578 8.87155 16.2857 6.99297 14.6238 5.331C12.9714 3.67862 11.0827 2.72641 9.30451 2.53607Z" fill="#CED0D6"/>
</g>
</svg>
