<svg width="16" height="16" viewBox="0 0 16 16" fill="none" xmlns="http://www.w3.org/2000/svg">
<rect x="2" y="8" width="5" height="1" rx="0.5" fill="#CED0D6"/>
<path d="M12.8535 6.14648C12.6583 5.95122 12.3417 5.95122 12.1465 6.14648L9.79297 8.5L12.1465 10.8535C12.3417 11.0488 12.6583 11.0488 12.8535 10.8535C13.0488 10.6583 13.0488 10.3417 12.8535 10.1465L11.707 9H15.5C15.7761 9 16 8.77614 16 8.5C16 8.22386 15.7761 8 15.5 8H11.707L12.8535 6.85352C13.0488 6.65825 13.0488 6.34175 12.8535 6.14648Z" fill="#CED0D6"/>
<path d="M8.14648 10.1465C8.34174 9.95123 8.65826 9.95123 8.85352 10.1465L11.207 12.5L8.85352 14.8535C8.65825 15.0488 8.34175 15.0488 8.14648 14.8535C7.95123 14.6583 7.95123 14.3417 8.14648 14.1465L9.29297 13H5.5C5.22386 13 5 12.7761 5 12.5C5.00001 12.2239 5.22386 12 5.5 12H9.29297L8.14648 10.8535C7.95123 10.6583 7.95123 10.3417 8.14648 10.1465Z" fill="#CED0D6"/>
<rect x="2" y="5" width="7" height="1" rx="0.5" fill="#CED0D6"/>
<rect x="2" y="2" width="12" height="1" rx="0.5" fill="#CED0D6"/>
</svg>
