<svg width="20" height="20" viewBox="0 0 20 20" fill="none" xmlns="http://www.w3.org/2000/svg">
<path d="M10.251 13.9902C10.5048 13.7365 10.9171 13.7365 11.1709 13.9902L13.4209 16.2402L13.8799 16.7002L13.4209 17.1602L11.1709 19.4102C10.9171 19.6637 10.5048 19.6637 10.251 19.4102C9.99731 19.1564 9.99737 18.7441 10.251 18.4902L11.3906 17.3506H6.96094C6.60208 17.3506 6.31076 17.059 6.31055 16.7002C6.31067 16.3413 6.60203 16.0498 6.96094 16.0498H11.3906L10.251 14.9102C9.99731 14.6564 9.99737 14.2441 10.251 13.9902ZM15.0381 9.04004C15.2919 8.78643 15.7042 8.78643 15.958 9.04004C16.2116 9.29384 16.2116 9.70617 15.958 9.95996L14.8184 11.0996H19.248C19.6069 11.0996 19.8982 11.3912 19.8984 11.75C19.8982 12.1088 19.6069 12.4004 19.248 12.4004H14.8184L15.958 13.54C16.2116 13.7938 16.2116 14.2062 15.958 14.46C15.7042 14.7135 15.2919 14.7135 15.0381 14.46L12.7881 12.21L12.3291 11.75L12.7881 11.29L15.0381 9.04004ZM8.25 11C8.66421 11 9 11.3358 9 11.75C9 12.1642 8.66421 12.5 8.25 12.5H3.75C3.33579 12.5 3 12.1642 3 11.75C3 11.3358 3.33579 11 3.75 11H8.25ZM11.25 7C11.6642 7 12 7.33579 12 7.75C12 8.16421 11.6642 8.5 11.25 8.5H3.75C3.33579 8.5 3 8.16421 3 7.75C3 7.33579 3.33579 7 3.75 7H11.25ZM16.25 3C16.6642 3 17 3.33579 17 3.75C17 4.16421 16.6642 4.5 16.25 4.5H3.75C3.33579 4.5 3 4.16421 3 3.75C3 3.33579 3.33579 3 3.75 3H16.25Z" fill="#CED0D6"/>
</svg>
