<svg width="20" height="20" viewBox="0 0 20 20" fill="none" xmlns="http://www.w3.org/2000/svg">
<path d="M10.0059 11.4355C10.0061 10.0377 11.5647 9.20452 12.7275 9.98047L16.6689 12.6104C17.707 13.3032 17.7071 14.8297 16.6689 15.5225L12.7275 18.1523C11.5648 18.9281 10.0063 18.0949 10.0059 16.6973V11.4355ZM11.8945 11.2275C11.7285 11.117 11.5061 11.2361 11.5059 11.4355V16.6973C11.5063 16.8965 11.7286 17.0156 11.8945 16.9053L15.8369 14.2744C15.9849 14.1755 15.9849 13.9574 15.8369 13.8584L11.8945 11.2275ZM7.25 10C7.66421 10 8 10.3358 8 10.75C8 11.1642 7.66421 11.5 7.25 11.5H2.75C2.33579 11.5 2 11.1642 2 10.75C2 10.3358 2.33579 10 2.75 10H7.25ZM17.25 6C17.6642 6 18 6.33579 18 6.75C18 7.16421 17.6642 7.5 17.25 7.5H2.75C2.33579 7.5 2 7.16421 2 6.75C2 6.33579 2.33579 6 2.75 6H17.25ZM17.25 2C17.6642 2 18 2.33579 18 2.75C18 3.16421 17.6642 3.5 17.25 3.5H2.75C2.33579 3.5 2 3.16421 2 2.75C2 2.33579 2.33579 2 2.75 2H17.25Z" fill="#CED0D6"/>
</svg>
