<svg width="20" height="20" viewBox="0 0 20 20" fill="none" xmlns="http://www.w3.org/2000/svg">
<path fill-rule="evenodd" clip-rule="evenodd" d="M11.9443 0.188482C12.2692 -0.176999 12.8711 0.0926265 12.8145 0.578131L12 7.50001H17.8867C18.3179 7.50012 18.5469 8.0096 18.2607 8.33204L17.8867 8.75196L8.05567 19.8115C7.73079 20.177 7.12886 19.9074 7.18555 19.4219L8 12.5H2.11328C1.68209 12.4999 1.45309 11.9904 1.73926 11.668L11.9443 0.188482ZM4.33985 11H8C8.42832 11 8.83645 11.1829 9.1211 11.5029C9.40565 11.8229 9.53918 12.2495 9.48926 12.6748L9.0459 16.4385L15.6602 9.00001H12C11.5717 9.00001 11.1636 8.81712 10.8789 8.49708C10.5944 8.17708 10.4608 7.75049 10.5107 7.3252L10.9531 3.56055L4.33985 11Z" fill="#CED0D6"/>
</svg>
