<svg width="20" height="20" viewBox="0 0 20 20" fill="none" xmlns="http://www.w3.org/2000/svg">
<g id="toolWindows / feedback@20x20">
<path id="stroke" d="M9.87891 4.49992H4C3.72386 4.49992 3.5 4.72378 3.5 4.99992V16.498L7.10059 13.7997C7.36014 13.6052 7.67566 13.4999 8 13.4999H16C16.2761 13.4999 16.5 13.2761 16.5 12.9999V9.12102L18 7.62102V12.9999C18 14.1045 17.1046 14.9999 16 14.9999H8L2.7998 18.8964C2.47028 19.1433 2.00035 18.9086 2 18.497V4.99992C2 3.89535 2.89543 2.99992 4 2.99992H11.3789L9.87891 4.49992ZM16.2031 0.296799C16.5936 -0.0937245 17.2267 -0.0937249 17.6172 0.296799L19.7031 2.38274C20.0935 2.77327 20.0936 3.40633 19.7031 3.7968L13.5 9.99992H10V6.49992L16.2031 0.296799ZM11.5 7.12102V8.49992H12.8789L16.4092 4.96965L15.0303 3.59074L11.5 7.12102ZM16.0908 2.5302L17.4697 3.9091L18.2891 3.08977L16.9102 1.71086L16.0908 2.5302Z" fill="#CED0D6"/>
</g>
</svg>
