<svg width="20" height="20" viewBox="0 0 20 20" fill="none" xmlns="http://www.w3.org/2000/svg">
<path d="M9 2C12.866 2 16 5.13401 16 9C16 10.648 15.4285 12.1615 14.4756 13.3574C14.5069 13.3806 14.537 13.4062 14.5654 13.4346L18.5654 17.4346C18.8778 17.747 18.8778 18.253 18.5654 18.5654C18.253 18.8778 17.747 18.8778 17.4346 18.5654L13.4346 14.5654C13.4062 14.537 13.3806 14.5069 13.3574 14.4756C12.1615 15.4285 10.648 16 9 16C5.13401 16 2 12.866 2 9C2 5.13401 5.13401 2 9 2ZM9 3.5C5.96243 3.5 3.5 5.96243 3.5 9C3.5 12.0376 5.96243 14.5 9 14.5C12.0376 14.5 14.5 12.0376 14.5 9C14.5 5.96243 12.0376 3.5 9 3.5Z" fill="#CED0D6"/>
</svg>
