<svg width="20" height="20" viewBox="0 0 20 20" fill="none" xmlns="http://www.w3.org/2000/svg">
<path fill-rule="evenodd" clip-rule="evenodd" d="M9.72266 1.80274C9.93014 1.7203 10.1662 1.73467 10.3643 1.84473L19.5137 6.92774C19.7517 7.05996 19.8993 7.31076 19.8994 7.58301V12.667C19.8992 13.0811 19.5635 13.417 19.1494 13.417C18.7354 13.4169 18.3996 13.081 18.3994 12.667V8.85742L16.25 10.0518V14.5C16.25 14.7743 16.1001 15.0267 15.8594 15.1582L10.3594 18.1582C10.1355 18.2803 9.86447 18.2803 9.64062 18.1582L4.14062 15.1582C3.89986 15.0267 3.75002 14.7743 3.75 14.5V10.0527L0.485352 8.23926C0.247253 8.10698 0.0996094 7.85539 0.0996094 7.58301C0.0997269 7.31077 0.247364 7.05997 0.485352 6.92774L9.63574 1.84473L9.72266 1.80274ZM10.3643 13.3223C10.1378 13.4481 9.86221 13.448 9.63574 13.3223L5.25 10.8857V14.0547L10 16.6455L14.75 14.0547V10.8848L10.3643 13.3223ZM2.39355 7.58301L9.99902 11.8076L17.6045 7.58301L9.99902 3.35742L2.39355 7.58301Z" fill="#CED0D6"/>
</svg>
