<svg width="20" height="20" viewBox="0 0 20 20" fill="none" xmlns="http://www.w3.org/2000/svg">
<path d="M7.6377 2.5C7.87161 2.5 8.09861 2.58171 8.27832 2.73145L11 5H17C18.1046 5 19 5.89543 19 7V15.167L18.9883 15.4053C18.873 16.5818 17.915 17.5 16.75 17.5H3.25C2.08504 17.5 1.12696 16.5818 1.01172 15.4053L1 15.167V4.83301C1.00017 3.54449 2.00746 2.5 3.25 2.5H7.6377ZM3.25 4C2.88681 4 2.50016 4.32107 2.5 4.83301V15.167C2.50016 15.6789 2.88681 16 3.25 16H16.75C17.1132 16 17.4998 15.6789 17.5 15.167V7C17.5 6.72386 17.2761 6.5 17 6.5H10.457L10.04 6.15234L7.45703 4H3.25Z" fill="#CED0D6"/>
</svg>
