<svg width="20" height="20" viewBox="0 0 20 20" fill="none" xmlns="http://www.w3.org/2000/svg">
<path d="M13 13.75C14.3976 13.75 15.569 14.7065 15.9023 16H19.25C19.6642 16 20 16.3358 20 16.75C20 17.1642 19.6642 17.5 19.25 17.5H15.9023C15.569 18.7935 14.3976 19.75 13 19.75C11.6024 19.75 10.431 18.7935 10.0977 17.5H6.75C6.33579 17.5 6 17.1642 6 16.75C6 16.3358 6.33579 16 6.75 16H10.0977C10.431 14.7065 11.6024 13.75 13 13.75ZM13 15.25C12.1716 15.25 11.5 15.9216 11.5 16.75C11.5 17.5784 12.1716 18.25 13 18.25C13.8284 18.25 14.5 17.5784 14.5 16.75C14.5 15.9216 13.8284 15.25 13 15.25ZM7.6377 2.5C7.87161 2.5 8.09861 2.58171 8.27832 2.73145L11 5H17C18.1046 5 19 5.89543 19 7V14.0234H17.5V7C17.5 6.72386 17.2761 6.5 17 6.5H10.457L10.04 6.15234L7.45703 4H3.25C2.88681 4 2.50016 4.32107 2.5 4.83301V15.167C2.50016 15.6789 2.88681 16 3.25 16H3.92773V17.5H3.25C2.08504 17.5 1.12696 16.5818 1.01172 15.4053L1 15.167V4.83301C1.00017 3.54449 2.00746 2.5 3.25 2.5H7.6377Z" fill="#CED0D6"/>
</svg>
