<svg width="16" height="16" viewBox="0 0 16 16" fill="none" xmlns="http://www.w3.org/2000/svg">
<path d="M5.8418 1.68164C5.85719 1.52134 6.05052 1.44249 6.1748 1.55078L9.24609 4.22656L9.43555 4.39258L9.68262 4.33789L13.7334 3.43945C13.8982 3.40292 14.0292 3.57098 13.96 3.71875L12.2305 7.40918L12.1143 7.6582L12.2607 7.88965L14.4678 11.3682C14.5563 11.5078 14.444 11.6921 14.2744 11.6729L10.0527 11.1934L9.79492 11.1641L9.62305 11.3564L6.87695 14.4326C6.76628 14.5563 6.56305 14.4996 6.53027 14.3398L5.71582 10.333L5.66309 10.0742L5.4209 9.97168L1.62207 8.36523C1.46817 8.30003 1.4576 8.08816 1.60352 8.00781L5.20605 6.02441L5.4375 5.89746L5.46289 5.63477L5.8418 1.68164Z" stroke="#CED0D6"/>
</svg>
