<svg width="30" height="9" viewBox="0 0 30 9" fill="none" xmlns="http://www.w3.org/2000/svg">
<path d="M2.98023e-08 1.35938V0.320312H6.19141V1.35938H3.69531V8.32031H2.49219V1.35938H2.98023e-08ZM7.46582 8.32031V2.32031H8.63379V8.32031H7.46582ZM8.05566 1.39453C7.85254 1.39453 7.67806 1.32682 7.53223 1.19141C7.389 1.05339 7.31738 0.889323 7.31738 0.699218C7.31738 0.50651 7.389 0.342448 7.53223 0.207031C7.67806 0.0690102 7.85254 -1.78814e-07 8.05566 -1.78814e-07C8.25879 -1.78814e-07 8.43197 0.0690102 8.5752 0.207031C8.72103 0.342448 8.79395 0.50651 8.79395 0.699218C8.79395 0.889323 8.72103 1.05339 8.5752 1.19141C8.43197 1.32682 8.25879 1.39453 8.05566 1.39453ZM10.2051 8.32031V2.32031H11.3262V3.29687H11.4004C11.5254 2.96615 11.7298 2.70833 12.0137 2.52344C12.2975 2.33594 12.6374 2.24219 13.0332 2.24219C13.4342 2.24219 13.7702 2.33594 14.041 2.52344C14.3145 2.71094 14.5163 2.96875 14.6465 3.29687H14.709C14.8522 2.97656 15.0801 2.72135 15.3926 2.53125C15.7051 2.33854 16.0775 2.24219 16.5098 2.24219C17.054 2.24219 17.498 2.41276 17.8418 2.75391C18.1882 3.09505 18.3613 3.60937 18.3613 4.29687V8.32031H17.1934V4.40625C17.1934 4 17.0827 3.70573 16.8613 3.52344C16.64 3.34115 16.3757 3.25 16.0684 3.25C15.6882 3.25 15.3926 3.36719 15.1816 3.60156C14.9707 3.83333 14.8652 4.13151 14.8652 4.49609V8.32031H13.7012V4.33203C13.7012 4.00651 13.5996 3.74479 13.3965 3.54687C13.1934 3.34896 12.929 3.25 12.6035 3.25C12.3822 3.25 12.1777 3.30859 11.9902 3.42578C11.8053 3.54036 11.6556 3.70052 11.541 3.90625C11.429 4.11198 11.373 4.35026 11.373 4.62109V8.32031H10.2051ZM22.5127 8.44141C21.9215 8.44141 21.4124 8.3151 20.9854 8.0625C20.5609 7.80729 20.2327 7.44922 20.001 6.98828C19.7718 6.52474 19.6572 5.98177 19.6572 5.35937C19.6572 4.74479 19.7718 4.20312 20.001 3.73437C20.2327 3.26562 20.5557 2.89974 20.9697 2.63672C21.3864 2.3737 21.8734 2.24219 22.4307 2.24219C22.7692 2.24219 23.0973 2.29818 23.415 2.41016C23.7327 2.52214 24.0179 2.69792 24.2705 2.9375C24.5231 3.17708 24.7223 3.48828 24.8682 3.87109C25.014 4.2513 25.0869 4.71354 25.0869 5.25781V5.67187H20.3174V4.79688H23.9424C23.9424 4.48958 23.8799 4.21745 23.7549 3.98047C23.6299 3.74089 23.4541 3.55208 23.2275 3.41406C23.0036 3.27604 22.7406 3.20703 22.4385 3.20703C22.1104 3.20703 21.8239 3.28776 21.5791 3.44922C21.3369 3.60807 21.1494 3.81641 21.0166 4.07422C20.8864 4.32943 20.8213 4.60677 20.8213 4.90625V5.58984C20.8213 5.99089 20.8916 6.33203 21.0322 6.61328C21.1755 6.89453 21.3747 7.10937 21.6299 7.25781C21.8851 7.40365 22.1833 7.47656 22.5244 7.47656C22.7458 7.47656 22.9476 7.44531 23.1299 7.38281C23.3122 7.31771 23.4697 7.22135 23.6025 7.09375C23.7354 6.96615 23.8369 6.80859 23.9072 6.62109L25.0127 6.82031C24.9242 7.14583 24.7653 7.43099 24.5361 7.67578C24.3096 7.91797 24.0244 8.10677 23.6807 8.24219C23.3395 8.375 22.9502 8.44141 22.5127 8.44141ZM26.3828 8.32031V2.32031H27.5117V3.27344H27.5742C27.6836 2.95052 27.8763 2.69661 28.1523 2.51172C28.431 2.32422 28.7461 2.23047 29.0977 2.23047C29.1706 2.23047 29.2565 2.23307 29.3555 2.23828C29.457 2.24349 29.5365 2.25 29.5938 2.25781V3.375C29.5469 3.36198 29.4635 3.34766 29.3438 3.33203C29.224 3.3138 29.1042 3.30469 28.9844 3.30469C28.7083 3.30469 28.4622 3.36328 28.2461 3.48047C28.0326 3.59505 27.8633 3.75521 27.7383 3.96094C27.6133 4.16406 27.5508 4.39583 27.5508 4.65625V8.32031H26.3828Z" fill="white" fill-opacity="0.5"/>
</svg>
