<svg width="20" height="20" viewBox="0 0 20 20" fill="none" xmlns="http://www.w3.org/2000/svg">
<path d="M3.09961 14.1996C3.70712 14.1996 4.2002 14.6927 4.2002 15.3002C4.20011 15.9076 3.70707 16.3998 3.09961 16.3998C2.49233 16.3996 2.00009 15.9075 2 15.3002C2 14.6928 2.49228 14.1998 3.09961 14.1996ZM17.25 14.5502C17.6642 14.5502 18 14.886 18 15.3002C17.9999 15.7143 17.6642 16.0502 17.25 16.0502H6.25C5.83585 16.0502 5.5001 15.7143 5.5 15.3002C5.5 14.886 5.83579 14.5502 6.25 14.5502H17.25ZM3.09961 8.89978C3.70712 8.89978 4.2002 9.39285 4.2002 10.0004C4.20001 10.6077 3.70701 11.1 3.09961 11.1C2.49239 11.0998 2.00018 10.6076 2 10.0004C2 9.39298 2.49228 8.89999 3.09961 8.89978ZM17.25 9.25037C17.6642 9.25037 18 9.58615 18 10.0004C17.9998 10.4144 17.6641 10.7504 17.25 10.7504H6.25C5.83591 10.7504 5.5002 10.4144 5.5 10.0004C5.5 9.58615 5.83579 9.25037 6.25 9.25037H17.25ZM3.09961 3.59998C3.70699 3.59998 4.19998 4.09225 4.2002 4.69958C4.2002 5.3071 3.70712 5.80017 3.09961 5.80017C2.49228 5.79996 2 5.30697 2 4.69958C2.00021 4.09238 2.49241 3.60019 3.09961 3.59998ZM17.25 3.94958C17.6641 3.94958 17.9998 4.28557 18 4.69958C18 5.1138 17.6642 5.44958 17.25 5.44958H6.25C5.83579 5.44958 5.5 5.1138 5.5 4.69958C5.50023 4.28557 5.83593 3.94958 6.25 3.94958H17.25Z" fill="#CED0D6"/>
</svg>
