<svg width="16" height="16" viewBox="0 0 16 16" fill="none" xmlns="http://www.w3.org/2000/svg">
<path d="M13.0001 9.5C13.0001 9.22386 12.7762 9 12.5001 9C12.2239 9 12.0001 9.22386 12.0001 9.5V10.5C12.0001 10.7761 12.2239 11 12.5001 11C12.7762 11 13.0001 10.7761 13.0001 10.5V9.5Z" fill="#CED0D6"/>
<path d="M10.152 10.567C9.91286 10.4289 9.60707 10.5109 9.46899 10.75C9.33092 10.9891 9.41286 11.2949 9.65201 11.433L10.5177 11.9328C10.7569 12.0709 11.0627 11.989 11.2008 11.7498C11.3388 11.5107 11.2569 11.2049 11.0177 11.0668L10.152 10.567Z" fill="#CED0D6"/>
<path d="M15.3481 11.433C15.5872 11.2949 15.6692 10.9891 15.5311 10.75C15.393 10.5109 15.0872 10.4289 14.8481 10.567L13.9824 11.0668C13.7433 11.2049 13.6613 11.5107 13.7994 11.7498C13.9375 11.989 14.2433 12.0709 14.4824 11.9328L15.3481 11.433Z" fill="#CED0D6"/>
<path d="M11.0177 13.9331C11.2569 13.7951 11.3388 13.4893 11.2007 13.2501C11.0627 13.011 10.7569 12.9291 10.5177 13.0671L9.65194 13.567C9.41279 13.7051 9.33086 14.0109 9.46893 14.25C9.607 14.4891 9.91279 14.5711 10.1519 14.433L11.0177 13.9331Z" fill="#CED0D6"/>
<path d="M14.4824 13.0672C14.2433 12.9291 13.9375 13.011 13.7994 13.2502C13.6613 13.4893 13.7433 13.7951 13.9824 13.9332L14.8482 14.433C15.0873 14.5711 15.3931 14.4891 15.5312 14.25C15.6692 14.0109 15.5873 13.7051 15.3482 13.567L14.4824 13.0672Z" fill="#CED0D6"/>
<path d="M13.0001 14.5C13.0001 14.2239 12.7762 14 12.5001 14C12.2239 14 12.0001 14.2239 12.0001 14.5V15.5C12.0001 15.7761 12.2239 16 12.5001 16C12.7762 16 13.0001 15.7761 13.0001 15.5V14.5Z" fill="#CED0D6"/>
<path d="M12.5 13.5C13.0523 13.5 13.5 13.0523 13.5 12.5C13.5 11.9477 13.0523 11.5 12.5 11.5C11.9477 11.5 11.5 11.9477 11.5 12.5C11.5 13.0523 11.9477 13.5 12.5 13.5Z" fill="#CED0D6"/>
<path fill-rule="evenodd" clip-rule="evenodd" d="M2.01664 3.39246H2V12.5184H2.00263C2.03051 12.9621 2.2768 13.3344 2.59694 13.6237C2.9371 13.9312 3.40129 14.1852 3.93236 14.3882C4.99792 14.7956 6.43619 15.0371 8 15.0371C8.26034 15.0371 8.5172 15.0304 8.76945 15.0173C8.56438 14.714 8.39532 14.3844 8.26842 14.0345C8.17959 14.0362 8.0901 14.0371 8 14.0371C6.52624 14.0371 5.21452 13.8078 4.28947 13.4542C3.82523 13.2767 3.48396 13.0775 3.2675 12.8819C3.05102 12.6862 3 12.5341 3 12.4343V10.985C3.27236 11.1599 3.58833 11.3128 3.93236 11.4444C4.99792 11.8518 6.43619 12.0932 8 12.0932C8.00605 12.0932 8.0121 12.0932 8.01814 12.0932C8.04921 11.7465 8.11961 11.411 8.22485 11.0914C8.15035 11.0926 8.07539 11.0932 8 11.0932C6.52624 11.0932 5.21452 10.864 4.28947 10.5103C3.82523 10.3328 3.48396 10.1337 3.2675 9.93804C3.05102 9.74236 3 9.59029 3 9.49048V8.04112C3.27236 8.21609 3.58833 8.369 3.93236 8.50053C4.99792 8.90791 6.43619 9.14938 8 9.14938C8.55102 9.14938 9.08646 9.1194 9.5955 9.06274C10.3793 8.39974 11.393 8 12.5 8C13.026 8 13.5308 8.09023 14 8.25606V3.39246H13.9834C13.9213 3.00405 13.6924 2.67483 13.4031 2.41334C13.0629 2.10586 12.5987 1.85189 12.0676 1.64885C11.0021 1.24147 9.56381 1 8 1C6.43619 1 4.99792 1.24147 3.93236 1.64885C3.40129 1.85189 2.9371 2.10586 2.59694 2.41334C2.30765 2.67483 2.07865 3.00405 2.01664 3.39246ZM3.2675 3.15519C3.05102 3.35087 3 3.50293 3 3.60275C3 3.70256 3.05102 3.85463 3.2675 4.05031C3.48396 4.24597 3.82523 4.4451 4.28947 4.62258C5.21452 4.97625 6.52624 5.2055 8 5.2055C9.47376 5.2055 10.7855 4.97625 11.7105 4.62258C12.1748 4.4451 12.516 4.24597 12.7325 4.05031C12.949 3.85463 13 3.70256 13 3.60275C13 3.50293 12.949 3.35087 12.7325 3.15519C12.516 2.95953 12.1748 2.7604 11.7105 2.58291C10.7855 2.22925 9.47376 2 8 2C6.52624 2 5.21452 2.22925 4.28947 2.58291C3.82523 2.7604 3.48396 2.95953 3.2675 3.15519ZM3 5.09723V6.54663C3 6.64645 3.05102 6.79851 3.2675 6.99419C3.48396 7.18985 3.82523 7.38898 4.28947 7.56647C5.21452 7.92013 6.52624 8.14938 8 8.14938C9.47376 8.14938 10.7855 7.92013 11.7105 7.56647C12.1748 7.38898 12.516 7.18985 12.7325 6.99419C12.949 6.79851 13 6.64645 13 6.54663V5.09723C12.7276 5.27221 12.4117 5.42512 12.0676 5.55665C11.0021 5.96403 9.56381 6.2055 8 6.2055C6.43619 6.2055 4.99792 5.96403 3.93236 5.55665C3.58833 5.42512 3.27236 5.27221 3 5.09723Z" fill="#CED0D6"/>
</svg>
