<svg width="20" height="20" viewBox="0 0 20 20" fill="none" xmlns="http://www.w3.org/2000/svg">
<path d="M9 3.50293H8.02832C7.39344 3.50296 6.8917 3.68062 6.52344 4.03613C6.15514 4.38538 5.97412 4.85915 5.98047 5.45605L6.01855 7.70312C6.03125 8.34446 5.85363 8.86558 5.48535 9.26562C5.1234 9.66567 4.63109 9.89158 4.00879 9.94238C4.63109 10.0567 5.1234 10.3197 5.48535 10.7324C5.85365 11.1388 6.03125 11.6346 6.01855 12.2188L5.98047 14.7236C5.96781 15.2696 6.13029 15.7011 6.4668 16.0186C6.80969 16.336 7.27327 16.4951 7.85742 16.4951H9V18H7.80957C7.11107 18 6.49775 17.8731 5.9707 17.6191C5.44386 17.3715 5.03765 17.0127 4.75195 16.543C4.46622 16.0794 4.32668 15.5363 4.33301 14.9141L4.37109 12.3232C4.38379 11.847 4.22815 11.4689 3.9043 11.1895C3.58053 10.9038 3.14551 10.7608 2.59961 10.7607H2V9.16113H2.59961C3.1518 9.16107 3.58688 9.02145 3.9043 8.74219C4.22815 8.45644 4.38379 8.07147 4.37109 7.58887L4.33301 5.27441C4.32034 4.61411 4.45989 4.03626 4.75195 3.54102C5.05039 3.04578 5.47593 2.66512 6.02832 2.39844C6.58068 2.13178 7.23132 1.99809 7.98047 1.99805H9V3.50293ZM12.0195 1.99805C12.7687 1.99809 13.4193 2.13178 13.9717 2.39844C14.524 2.6651 14.9462 3.04583 15.2383 3.54102C15.5367 4.03626 15.6797 4.61411 15.667 5.27441L15.6289 7.58887C15.6162 8.07146 15.7684 8.45644 16.0859 8.74219C16.4097 9.02152 16.8481 9.16106 17.4004 9.16113H18V10.7607H17.4004C16.8545 10.7608 16.4195 10.9038 16.0957 11.1895C15.7719 11.4689 15.6162 11.847 15.6289 12.3232L15.667 14.9141C15.6733 15.5363 15.5338 16.0794 15.248 16.543C14.9623 17.0127 14.5561 17.3715 14.0293 17.6191C13.5022 17.8731 12.8889 18 12.1904 18H11V16.4951H12.1426C12.7268 16.4951 13.1879 16.3361 13.5244 16.0186C13.8671 15.7011 14.0322 15.2695 14.0195 14.7236L13.9814 12.2188C13.9687 11.6346 14.143 11.1388 14.5049 10.7324C14.8732 10.3197 15.3689 10.0567 15.9912 9.94238C15.3689 9.89158 14.8732 9.66567 14.5049 9.26562C14.143 8.8656 13.9687 8.34439 13.9814 7.70312L14.0195 5.45605C14.0259 4.85915 13.8449 4.38538 13.4766 4.03613C13.1083 3.68062 12.6066 3.50295 11.9717 3.50293H11V1.99805H12.0195Z" fill="#CED0D6"/>
</svg>
