<svg width="20" height="20" viewBox="0 0 20 20" fill="none" xmlns="http://www.w3.org/2000/svg">
<g id="toolWindows / toolWindowBeanValidator@20x20">
<path id="stroke" d="M18.7231 13.97C19.0159 13.6771 19.4907 13.6772 19.7836 13.97C20.0765 14.2629 20.0765 14.7376 19.7836 15.0305L15.0375 19.7766C14.7446 20.0693 14.2698 20.0695 13.977 19.7766L11.4701 17.2688C11.1773 16.9759 11.1773 16.5011 11.4701 16.2083C11.763 15.9157 12.2379 15.9155 12.5307 16.2083L14.5073 18.1858L18.7231 13.97ZM3.27483 3.31374C6.91817 -0.329086 12.0004 0.586567 15.684 4.26979C18.0346 6.6203 19.2999 9.5163 18.9399 12.2717C18.4727 12.3372 18.0218 12.5502 17.6625 12.9094L17.0688 13.5032C17.4584 12.5684 17.5702 11.6016 17.4604 10.6399C17.2583 8.8709 16.2854 6.99325 14.6235 5.33132C12.9711 3.67902 11.0832 2.72679 9.30511 2.53639C7.78766 2.37401 6.27262 2.75329 4.91351 3.8528L15.8158 14.7551L14.7553 15.8157L3.85003 4.91139C2.74209 6.27516 2.36602 7.83827 2.54144 9.41335C2.74468 11.2376 3.70139 13.1339 5.26116 14.6936C6.62917 16.0616 8.23827 16.9788 9.8305 17.3342C9.93021 17.6988 10.1232 18.044 10.4096 18.3303L11.0766 18.9973C8.62597 18.9297 6.15313 17.7066 4.20061 15.7542C0.678807 12.2324 -0.36867 6.95717 3.27483 3.31374Z" fill="#CED0D6"/>
</g>
</svg>
