<svg width="20" height="20" viewBox="0 0 20 20" fill="none" xmlns="http://www.w3.org/2000/svg">
<path d="M15.5 11C17.9853 11 20 13.0147 20 15.5C20 17.9853 17.9853 20 15.5 20C13.0147 20 11 17.9853 11 15.5C11 13.0147 13.0147 11 15.5 11ZM15.5 12.5C13.8431 12.5 12.5 13.8431 12.5 15.5C12.5 17.1569 13.8431 18.5 15.5 18.5C17.1569 18.5 18.5 17.1569 18.5 15.5C18.5 13.8431 17.1569 12.5 15.5 12.5ZM10 1.5C11.933 1.5 13.5 3.067 13.5 5C13.5 5.17449 13.4875 5.34603 13.4629 5.51367C14.0453 5.84228 14.5372 6.31268 14.8916 6.87793L17.1445 5.66699C17.5092 5.47093 17.9638 5.60726 18.1602 5.97168C18.3563 6.3365 18.2203 6.79212 17.8555 6.98828L15.4365 8.28809C15.478 8.51908 15.5 8.75706 15.5 9V9.5C14.9821 9.5 14.4794 9.56606 14 9.68945V9C14 7.61929 12.8807 6.5 11.5 6.5H8.5C7.11929 6.5 6 7.61929 6 9V12.5C6 14.567 7.56778 16.2682 9.5791 16.4785C9.66671 17.0127 9.82513 17.5232 10.0439 18C10.0293 18.0001 10.0147 18 10 18C7.90206 18 6.07882 16.8251 5.15137 15.0977L2.85352 16.333C2.48883 16.5291 2.03417 16.3928 1.83789 16.0283C1.64179 15.6636 1.778 15.209 2.14258 15.0127L4.62598 13.6768C4.54334 13.2976 4.5 12.9039 4.5 12.5V11.75H1.5C1.08579 11.75 0.75 11.4142 0.75 11C0.750047 10.5858 1.08582 10.25 1.5 10.25H4.5V9C4.5 8.7574 4.52112 8.51976 4.5625 8.28906L2.14258 6.98828C1.77776 6.79212 1.64173 6.3365 1.83789 5.97168C2.03421 5.60726 2.48887 5.47093 2.85352 5.66699L5.1084 6.87891C5.46284 6.31335 5.95447 5.84242 6.53711 5.51367C6.51246 5.34603 6.5 5.17449 6.5 5C6.5 3.067 8.067 1.5 10 1.5ZM15.5 14C16.3284 14 17 14.6716 17 15.5C17 16.3284 16.3284 17 15.5 17C14.6716 17 14 16.3284 14 15.5C14 14.6716 14.6716 14 15.5 14ZM10 3C8.89543 3 8 3.89543 8 5V5.03125C8.16372 5.01084 8.33075 5 8.5 5H11.5C11.6692 5 11.8363 5.01084 12 5.03125V5C12 3.89543 11.1046 3 10 3Z" fill="#CED0D6"/>
</svg>
