<svg width="20" height="20" viewBox="0 0 20 20" fill="none" xmlns="http://www.w3.org/2000/svg">
<path d="M5.5 1C7.433 1 9 2.567 9 4.5C9 6.17545 7.82244 7.57452 6.25 7.91797V13.25H9.5C10.2092 13.25 10.7039 13.25 11.0908 13.2236C11.4708 13.1977 11.6923 13.1491 11.8613 13.0791C12.4125 12.8507 12.8507 12.4125 13.0791 11.8613C13.1491 11.6923 13.1977 11.4708 13.2236 11.0908C13.2445 10.7849 13.2471 10.4115 13.248 9.91797C11.6765 9.57382 10.5 8.17479 10.5 6.5C10.5 4.567 12.067 3 14 3C15.933 3 17.5 4.567 17.5 6.5C17.5 8.17611 16.3214 9.57522 14.748 9.91797C14.7471 10.4176 14.7439 10.8374 14.7197 11.1924C14.6886 11.6489 14.6232 12.0533 14.4648 12.4355C14.0842 13.3542 13.3542 14.0842 12.4355 14.4648C12.0533 14.6232 11.6489 14.6886 11.1924 14.7197C10.7426 14.7504 10.1886 14.75 9.5 14.75H6.25V18C6.25 18.4142 5.91421 18.75 5.5 18.75C5.08579 18.75 4.75 18.4142 4.75 18V7.91797C3.17756 7.57452 2 6.17545 2 4.5C2 2.567 3.567 1 5.5 1ZM14 4.5C12.8954 4.5 12 5.39543 12 6.5C12 7.60457 12.8954 8.5 14 8.5C15.1046 8.5 16 7.60457 16 6.5C16 5.39543 15.1046 4.5 14 4.5ZM5.5 2.5C4.39543 2.5 3.5 3.39543 3.5 4.5C3.5 5.60457 4.39543 6.5 5.5 6.5C6.60457 6.5 7.5 5.60457 7.5 4.5C7.5 3.39543 6.60457 2.5 5.5 2.5Z" fill="#CED0D6"/>
</svg>
