<svg width="12" height="12" viewBox="0 0 12 12" fill="none" xmlns="http://www.w3.org/2000/svg">
<path d="M7.24194 12C3.04839 12 0 9.79032 0 6.77419C0 4.35484 2.04839 2.6129 4.87097 2.6129C7.27419 2.6129 9 3.67742 9 5.22581C9 6.67742 7.53226 7.43548 5.72581 6.75806L5.98387 6C4.82258 5.64516 4 5.95161 4 6.74194C4 7.69355 5.25806 8.45161 7.08065 8.45161C9.24194 8.45161 11 7.09677 11 5.22581C11 2.77419 8.37097 1 4.75806 1C3.87097 1 2.67742 1.20968 1.90323 1.54839C1.35484 1.77419 1 1.54839 1 1.19355C1 0.919355 1.19355 0.725806 1.58065 0.564516C2.35484 0.225806 3.67742 0 4.75806 0C8.95161 0 12 2.20968 12 5.22581C12 7.64516 9.95161 9.3871 7.12903 9.3871C4.72581 9.3871 3 8.32258 3 6.74194C3 5.32258 4.46774 4.59677 6.27419 5.22581L6.01613 6C7.17742 6.3871 8 6.06452 8 5.22581C8 4.30645 6.74194 3.54839 4.91935 3.54839C2.67742 3.54839 1 4.93548 1 6.77419C1 9.22581 3.62903 11 7.24194 11C8.12903 11 9.32258 10.7903 10.0968 10.4516C10.6452 10.2258 11 10.4516 11 10.8065C11 11.0806 10.8065 11.2742 10.4194 11.4355C9.64516 11.7742 8.32258 12 7.24194 12Z" fill="#CED0D6"/>
</svg>
