<svg width="26" height="9" viewBox="0 0 26 9" fill="none" xmlns="http://www.w3.org/2000/svg">
<path d="M2.21875 8L9.31323e-09 -2.38419e-07H1.26953L2.82813 6.19531H2.90234L4.52344 -2.38419e-07H5.78125L7.40234 6.19922H7.47656L9.03125 -2.38419e-07H10.3047L8.08203 8H6.86719L5.18359 2.00781H5.12109L3.4375 8H2.21875ZM13.3066 8.12109C12.7155 8.12109 12.2064 7.99479 11.7793 7.74219C11.3548 7.48698 11.0267 7.12891 10.7949 6.66797C10.5658 6.20443 10.4512 5.66146 10.4512 5.03906C10.4512 4.42448 10.5658 3.88281 10.7949 3.41406C11.0267 2.94531 11.3496 2.57943 11.7637 2.31641C12.1803 2.05339 12.6673 1.92188 13.2246 1.92188C13.5632 1.92188 13.8913 1.97786 14.209 2.08984C14.5267 2.20182 14.8118 2.3776 15.0645 2.61719C15.3171 2.85677 15.5163 3.16797 15.6621 3.55078C15.8079 3.93099 15.8809 4.39323 15.8809 4.9375V5.35156H11.1113V4.47656H14.7363C14.7363 4.16927 14.6738 3.89714 14.5488 3.66016C14.4238 3.42057 14.248 3.23177 14.0215 3.09375C13.7975 2.95573 13.5345 2.88672 13.2324 2.88672C12.9043 2.88672 12.6178 2.96745 12.373 3.12891C12.1309 3.28776 11.9434 3.49609 11.8105 3.75391C11.6803 4.00911 11.6152 4.28646 11.6152 4.58594V5.26953C11.6152 5.67057 11.6855 6.01172 11.8262 6.29297C11.9694 6.57422 12.1686 6.78906 12.4238 6.9375C12.679 7.08333 12.9772 7.15625 13.3184 7.15625C13.5397 7.15625 13.7415 7.125 13.9238 7.0625C14.1061 6.9974 14.2637 6.90104 14.3965 6.77344C14.5293 6.64583 14.6309 6.48828 14.7012 6.30078L15.8066 6.5C15.7181 6.82552 15.5592 7.11068 15.3301 7.35547C15.1035 7.59766 14.8184 7.78646 14.4746 7.92187C14.1335 8.05469 13.7441 8.12109 13.3066 8.12109ZM21.6729 3.46484L20.6143 3.65234C20.57 3.51693 20.4997 3.38802 20.4033 3.26562C20.3096 3.14323 20.182 3.04297 20.0205 2.96484C19.859 2.88672 19.6572 2.84766 19.415 2.84766C19.0843 2.84766 18.8083 2.92187 18.5869 3.07031C18.3656 3.21615 18.2549 3.40495 18.2549 3.63672C18.2549 3.83724 18.3291 3.9987 18.4775 4.12109C18.626 4.24349 18.8656 4.34375 19.1963 4.42187L20.1494 4.64062C20.7015 4.76823 21.113 4.96484 21.3838 5.23047C21.6546 5.49609 21.79 5.84115 21.79 6.26563C21.79 6.625 21.6859 6.94531 21.4775 7.22656C21.2718 7.50521 20.984 7.72396 20.6143 7.88281C20.2471 8.04167 19.8213 8.12109 19.3369 8.12109C18.665 8.12109 18.1169 7.97786 17.6924 7.69141C17.2679 7.40234 17.0075 6.99219 16.9111 6.46094L18.04 6.28906C18.1104 6.58333 18.2549 6.80599 18.4736 6.95703C18.6924 7.10547 18.9775 7.17969 19.3291 7.17969C19.7119 7.17969 20.0179 7.10026 20.2471 6.94141C20.4762 6.77995 20.5908 6.58333 20.5908 6.35156C20.5908 6.16406 20.5205 6.00651 20.3799 5.87891C20.2419 5.7513 20.0296 5.65495 19.7432 5.58984L18.7275 5.36719C18.1676 5.23958 17.7536 5.03646 17.4854 4.75781C17.2197 4.47917 17.0869 4.1263 17.0869 3.69922C17.0869 3.34505 17.1859 3.03516 17.3838 2.76953C17.5817 2.50391 17.8551 2.29687 18.2041 2.14844C18.5531 1.9974 18.9528 1.92188 19.4033 1.92188C20.0518 1.92188 20.5622 2.0625 20.9346 2.34375C21.307 2.6224 21.5531 2.99609 21.6729 3.46484ZM25.875 2V2.9375H22.5977V2H25.875ZM23.4766 0.5625H24.6445V6.23828C24.6445 6.46484 24.6784 6.63542 24.7461 6.75C24.8138 6.86198 24.901 6.9388 25.0078 6.98047C25.1172 7.01953 25.2357 7.03906 25.3633 7.03906C25.457 7.03906 25.5391 7.03255 25.6094 7.01953C25.6797 7.00651 25.7344 6.99609 25.7734 6.98828L25.9844 7.95312C25.9167 7.97917 25.8203 8.00521 25.6953 8.03125C25.5703 8.0599 25.4141 8.07552 25.2266 8.07813C24.9193 8.08333 24.6328 8.02865 24.3672 7.91406C24.1016 7.79948 23.8867 7.6224 23.7227 7.38281C23.5586 7.14323 23.4766 6.84245 23.4766 6.48047V0.5625Z" fill="white" fill-opacity="0.5"/>
</svg>
