<!-- Copyright © 2000–2024 JetBrains s.r.o. -->
<svg width="24" height="24" viewBox="0 0 24 24" xmlns="http://www.w3.org/2000/svg">
  <path fill="url(#a)" d="M23.078 5.498 15 0 0 10.65 3.803 24l16.395-3.323z"/>
  <path fill="url(#b)" d="M23.078 5.498 15 0l-1.987 5.393V16.38H24z"/>
  <path fill="url(#d)" d="M19.5 4.5h-15v15h15z"/>
  <path fill="#fff" d="M13.5 6.75h-.75v.375h-1.5V6.75h-.75V6h3zm.885 2.55-3.015 2.063a.9.9 0 1 0 1.275 1.274l2.063-3.014zM16.5 12c0 2.483-2.017 4.5-4.5 4.5A4.504 4.504 0 0 1 7.5 12c0-2.482 2.018-4.5 4.5-4.5s4.5 2.018 4.5 4.5m-.75 0c0-.675-.18-1.312-.495-1.86l.067-.098a.75.75 0 0 0-.09-.952l-.314-.315a.75.75 0 0 0-.953-.09l-.098.067a3.75 3.75 0 0 0-5.61 3.255c0 2.07 1.68 3.75 3.75 3.75s3.75-1.68 3.75-3.75z"/>
  <path fill="#6B57FF" d="M6.169 2.25H1.57c-.862 0-1.56.709-1.545 1.571l.064 4.14c.008.443.206.863.54 1.152l14.31 12.266c.281.24.638.371 1.009.371h4.256c.851 0 1.545-.694 1.545-1.545v-4.129c0-.446-.191-.87-.529-1.162L7.19 2.633a1.55 1.55 0 0 0-1.02-.383"/>
  <path fill="url(#e)" d="M5.621 2.25H1.545C.694 2.25 0 2.944 0 3.795v4.714c0 .075 0 .15.015.225l2.044 13.942A1.55 1.55 0 0 0 3.589 24h5.775a1.55 1.55 0 0 0 1.548-1.549v-6.937a1.8 1.8 0 0 0-.075-.469L7.096 3.326A1.55 1.55 0 0 0 5.621 2.25"/>
  <path fill="url(#f)" d="M22.455 0H9.656c-.622 0-1.185.371-1.425.945L2.306 14.977c-.082.195-.095.406-.092.615v6.874C2.218 23.314 2.94 24 3.788 24h6.626c.3 0 .596-.09.847-.255l12.042-7.916c.435-.285.697-.773.697-1.29V1.545C24 .694 23.306 0 22.455 0"/>
  <path d="M19.5 4.5h-15v15h15z"/>
  <path fill="#fff" d="M13.125 6.75h-2.25a.75.75 0 0 1-.75-.75c0-.412.338-.75.75-.75h2.25c.412 0 .75.338.75.75s-.338.75-.75.75m3.169 2.985a1.1 1.1 0 0 1-.192.484l-.446.626c.3.57.469 1.219.469 1.905A4.127 4.127 0 0 1 12 16.875a4.127 4.127 0 0 1-4.125-4.125A4.127 4.127 0 0 1 12 8.625a4.1 4.1 0 0 1 1.905.469l.626-.446c.146-.102.311-.17.484-.195a5.2 5.2 0 0 0-3.011-.957 5.251 5.251 0 0 0 0 10.5 5.25 5.25 0 0 0 5.25-5.25 5.2 5.2 0 0 0-.957-3.015z"/>
  <path fill="#fff" d="m14.966 9.259-3.615 2.572a1 1 0 0 0-.142.124 1.125 1.125 0 1 0 1.713 1.448l2.573-3.615a.377.377 0 0 0-.525-.525z"/>
  <defs>
    <linearGradient id="a" x1="1.71" x2="21.87" y1="9.383" y2="16.245" gradientUnits="userSpaceOnUse">
      <stop offset=".24" stop-color="#8178FF"/>
      <stop offset=".69" stop-color="#FF2493"/>
    </linearGradient>
    <linearGradient id="b" x1="21.945" x2="13.155" y1="4.965" y2="16.545" gradientUnits="userSpaceOnUse">
      <stop  offset="0" stop-color="#FF59E6"/>
      <stop offset=".17" stop-color="#FF38C0"/>
      <stop offset=".41" stop-color="#FF0F91"/>
      <stop offset=".53" stop-color="#FF0080"/>
      <stop offset="1" stop-color="#FF82D7"/>
    </linearGradient>
    <linearGradient id="d" x1="4.5" x2="19.5" y1="4.5" y2="19.5" gradientUnits="userSpaceOnUse">
      <stop  offset="0" stop-opacity=".5"/>
      <stop offset="1"/>
    </linearGradient>
    <linearGradient id="e" x1="-.145" x2="9.147" y1="2.876" y2="22.924" gradientUnits="userSpaceOnUse">
      <stop offset=".18" stop-color="#6B57FF"/>
      <stop offset=".54" stop-color="#FF2358"/>
    </linearGradient>
    <linearGradient id="f" x1="1.613" x2="23.595" y1="22.479" y2=".502" gradientUnits="userSpaceOnUse">
      <stop offset=".12" stop-color="#FF2358"/>
      <stop offset=".92" stop-color="#FF45ED"/>
    </linearGradient>
  </defs>
</svg>
