<!-- Copyright © 2000–2024 JetBrains s.r.o. -->
<svg width="32" height="32" viewBox="0 0 32 32" xmlns="http://www.w3.org/2000/svg">
  <path fill="#6B57FF" d="M8.225 3h-6.13c-1.15 0-2.08.945-2.06 2.095l.085 5.52c.01.59.275 1.15.72 1.535l19.08 16.355c.375.32.85.495 1.345.495h5.675c1.135 0 2.06-.925 2.06-2.06v-5.505c0-.595-.255-1.16-.705-1.55L9.585 3.51c-.38-.33-.86-.51-1.36-.51"/>
  <path fill="url(#a)" d="M7.495 3H2.06C.925 3 0 3.925 0 5.06v6.285c0 .1 0 .2.02.3l2.725 18.59A2.065 2.065 0 0 0 4.785 32h7.7c1.14 0 2.065-.925 2.065-2.065v-9.25a2.4 2.4 0 0 0-.1-.625L9.46 4.435A2.07 2.07 0 0 0 7.495 3"/>
  <path fill="url(#b)" d="M29.94 0H12.875c-.83 0-1.58.495-1.9 1.26l-7.9 18.71c-.11.26-.128.54-.123.82v9.165C2.957 31.085 3.92 32 5.05 32h8.835c.4 0 .795-.12 1.13-.34L31.07 21.105c.58-.38.93-1.03.93-1.72V2.06C32 .925 31.075 0 29.94 0"/>
  <path d="M26 6H6v20h20z"/>
  <path fill="#fff" d="M17.5 9h-3c-.55 0-1-.45-1-1s.45-1 1-1h3c.55 0 1 .45 1 1s-.45 1-1 1m4.225 3.98c-.035.225-.115.45-.255.645l-.595.835c.4.76.625 1.625.625 2.54 0 3.035-2.465 5.5-5.5 5.5a5.503 5.503 0 0 1-5.5-5.5c0-3.035 2.465-5.5 5.5-5.5a5.5 5.5 0 0 1 2.54.625l.835-.595c.195-.135.415-.225.645-.26a6.96 6.96 0 0 0-4.015-1.275c-3.865 0-7 3.135-7 7s3.135 7 7 7 7-3.135 7-7c0-1.5-.475-2.885-1.275-4.02z"/>
  <path fill="#fff" d="m19.955 12.345-4.82 3.43c-.065.045-.13.105-.19.165a1.5 1.5 0 1 0 2.285 1.93l3.43-4.82a.502.502 0 0 0-.7-.7z"/>
  <defs>
    <linearGradient id="a" x1="-.194" x2="12.196" y1="3.835" y2="30.565" gradientUnits="userSpaceOnUse">
      <stop offset=".18" stop-color="#6B57FF"/>
      <stop offset=".54" stop-color="#FF2358"/>
    </linearGradient>
    <linearGradient id="b" x1="2.151" x2="31.46" y1="29.973" y2=".669" gradientUnits="userSpaceOnUse">
      <stop offset=".12" stop-color="#FF2358"/>
      <stop offset=".92" stop-color="#FF45ED"/>
    </linearGradient>
  </defs>
</svg>
