<!-- Copyright © 2000–2024 JetBrains s.r.o. -->
<svg width="128" height="128" viewBox="0 0 128 128" xmlns="http://www.w3.org/2000/svg">
  <path fill="#6B57FF" d="M32.9 12H8.38c-4.6 0-8.32 3.78-8.24 8.38l.34 22.08c.04 2.36 1.1 4.6 2.88 6.14l76.32 65.42a8.27 8.27 0 0 0 5.38 1.98h22.7c4.54 0 8.24-3.7 8.24-8.24V85.74c0-2.38-1.02-4.64-2.82-6.2l-74.84-65.5A8.28 8.28 0 0 0 32.9 12"/>
  <path fill="url(#a)" d="M29.98 12H8.24C3.7 12 0 15.7 0 20.24v25.14c0 .4 0 .8.08 1.2l10.9 74.36c.6 4.06 4.08 7.06 8.16 7.06h30.8c4.56 0 8.26-3.7 8.26-8.26v-37c-.02-.86-.16-1.7-.4-2.5l-19.96-62.5A8.27 8.27 0 0 0 29.98 12"/>
  <path fill="url(#b)" d="M119.76 0H51.5c-3.32 0-6.32 1.98-7.6 5.04L12.3 79.88c-.44 1.04-.51 2.16-.49 3.28v36.66c.02 4.52 3.87 8.18 8.39 8.18h35.34c1.6 0 3.18-.48 4.52-1.36l64.22-42.22a8.24 8.24 0 0 0 3.72-6.88V8.24C128 3.7 124.3 0 119.76 0"/>
  <path d="M104 24H24v80h80z"/>
  <path fill="#fff" d="M70 36H58c-2.2 0-4-1.8-4-4s1.8-4 4-4h12c2.2 0 4 1.8 4 4s-1.8 4-4 4m16.9 15.92c-.14.9-.46 1.8-1.02 2.58l-2.38 3.34C85.1 60.88 86 64.34 86 68c0 12.14-9.86 22-22 22s-22-9.86-22-22 9.86-22 22-22a22 22 0 0 1 10.16 2.5l3.34-2.38c.78-.54 1.66-.9 2.58-1.04-4.56-3.2-10.08-5.1-16.06-5.1-15.46 0-28 12.54-28 28s12.54 28 28 28 28-12.54 28-28c0-6-1.9-11.54-5.1-16.08z"/>
  <path fill="#fff" d="M79.82 49.38 60.54 63.1c-.26.18-.52.42-.76.66a6 6 0 0 0 0 8.48 6 6 0 0 0 8.48 0c.24-.24.46-.5.66-.76L82.64 52.2c.56-.78.48-1.86-.22-2.58s-1.8-.78-2.58-.22z"/>
  <defs>
    <linearGradient id="a" x1="-.775" x2="48.785" y1="15.34" y2="122.26" gradientUnits="userSpaceOnUse">
      <stop offset=".18" stop-color="#6B57FF"/>
      <stop offset=".54" stop-color="#FF2358"/>
    </linearGradient>
    <linearGradient id="b" x1="8.605" x2="125.84" y1="119.89" y2="2.675" gradientUnits="userSpaceOnUse">
      <stop offset=".12" stop-color="#FF2358"/>
      <stop offset=".92" stop-color="#FF45ED"/>
    </linearGradient>
  </defs>
</svg>
