<svg width="16" height="16" viewBox="0 0 16 16" fill="none" xmlns="http://www.w3.org/2000/svg">
<g clip-path="url(#clip0_1725:1248)">
<path d="M14.9999 4.79121L8.53432 1.06641L2.06874 4.79121L2.06885 4.79126L2.06873 12.2844L8.53429 16.0016L8.55134 15.9917L8.56187 15.9977L8.56181 15.9856L14.9999 12.2628V4.79123H14.9999L14.9999 4.79121Z" fill="url(#paint0_linear_1725:1248)"/>
<path d="M15 4.79113L8.53442 1.06641L11.7831 5.29279L15 4.79113Z" fill="url(#paint1_linear_1725:1248)"/>
<path d="M5.28565 11.7835V5.29365L2.06873 4.79199V12.2852L5.28565 11.7835Z" fill="url(#paint2_linear_1725:1248)"/>
<path d="M2.06873 4.79113L8.53432 1.06641L5.28565 5.29279L2.06873 4.79113Z" fill="url(#paint3_linear_1725:1248)"/>
<path d="M15 4.79113L8.53442 1.06641L11.7831 5.29279L15 4.79113Z" fill="url(#paint4_linear_1725:1248)"/>
<path d="M11.7831 11.7832L8.53442 16.0021L15 12.2633L11.7831 11.7832Z" fill="url(#paint5_linear_1725:1248)"/>
<path d="M15 4.79199H14.9997H15L11.7831 5.29365V11.7835L15 12.2636V4.79199Z" fill="url(#paint6_linear_1725:1248)"/>
<path d="M15 4.79199H14.9997H15L11.7831 5.29365V11.7835L15 12.2636V4.79199Z" fill="url(#paint7_linear_1725:1248)"/>
<path d="M8.53432 16.0021L5.28565 11.7832L2.06873 12.2849L8.53432 16.0021Z" fill="url(#paint8_linear_1725:1248)"/>
<path d="M11.7831 5.29297H5.28638V11.7896H11.7831V5.29297Z" fill="url(#paint9_linear_1725:1248)"/>
<path d="M11.7831 5.29297H5.28638V11.7896H11.7831V5.29297Z" fill="url(#paint10_linear_1725:1248)"/>
<path d="M7 0H0V7H7V0Z" fill="black"/>
<path d="M6.99996 3.1787V2.00781L2.08838 4.83716V4.83743V4.83716L5.33584 5.34358L6.99996 3.1787Z" fill="url(#paint11_linear_1725:1248)"/>
<path d="M7.00002 5.34375H5.33643V7.00037H7.00002V5.34375Z" fill="url(#paint12_linear_1725:1248)"/>
<path d="M2.08838 6.99992H5.33584V5.34334L2.08838 4.83691V6.99992Z" fill="url(#paint13_linear_1725:1248)"/>
<path d="M5 5H1V6H5V5Z" fill="white"/>
</g>
<defs>
<linearGradient id="paint0_linear_1725:1248" x1="2.24187" y1="2.24538" x2="14.5526" y2="14.5561" gradientUnits="userSpaceOnUse">
<stop offset="0.20773" stop-color="#FFB60D"/>
<stop offset="0.44753" stop-color="#FF318C"/>
<stop offset="0.90836" stop-color="#6B57FF"/>
</linearGradient>
<linearGradient id="paint1_linear_1725:1248" x1="9.06206" y1="0.116021" x2="16.7773" y2="8.89422" gradientUnits="userSpaceOnUse">
<stop  offset="0" stop-color="#FFB60D"/>
<stop offset="0.4389" stop-color="#FF318C"/>
<stop offset="0.93652" stop-color="#E30871"/>
</linearGradient>
<linearGradient id="paint2_linear_1725:1248" x1="1.45839" y1="6.5707" x2="10.0346" y2="15.1469" gradientUnits="userSpaceOnUse">
<stop offset="0.07259" stop-color="#FFB60D"/>
<stop offset="0.68597" stop-color="#FF318C" stop-opacity="0"/>
</linearGradient>
<linearGradient id="paint3_linear_1725:1248" x1="5.44802" y1="2.03814" x2="4.59077" y2="7.25019" gradientUnits="userSpaceOnUse">
<stop offset="0.04176" stop-color="#FFCF5F"/>
<stop offset="0.40672" stop-color="#FFB60D"/>
<stop offset="1" stop-color="#FF318C" stop-opacity="0"/>
</linearGradient>
<linearGradient id="paint4_linear_1725:1248" x1="9.55829" y1="1.20876" x2="18.1194" y2="9.76985" gradientUnits="userSpaceOnUse">
<stop offset="0.01556" stop-color="#FFB60D"/>
<stop offset="0.42361" stop-color="#FF318C" stop-opacity="0"/>
</linearGradient>
<linearGradient id="paint5_linear_1725:1248" x1="8.16591" y1="17.6538" x2="14.6581" y2="10.6587" gradientUnits="userSpaceOnUse">
<stop offset="0.33598" stop-color="#D123FF" stop-opacity="0.4"/>
<stop offset="0.72079" stop-color="#8F45FF" stop-opacity="0.78823"/>
<stop offset="0.92376" stop-color="#6B57FF"/>
</linearGradient>
<linearGradient id="paint6_linear_1725:1248" x1="7.69226" y1="2.5885" x2="16.3034" y2="11.1996" gradientUnits="userSpaceOnUse">
<stop offset="0.01556" stop-color="#FFB60D"/>
<stop offset="0.42361" stop-color="#FF318C"/>
<stop offset="0.92935" stop-color="#6B57FF"/>
</linearGradient>
<linearGradient id="paint7_linear_1725:1248" x1="11.5348" y1="3.9681" x2="13.215" y2="7.87714" gradientUnits="userSpaceOnUse">
<stop offset="0.04611" stop-color="#FFDE17" stop-opacity="0.6"/>
<stop offset="0.43474" stop-color="#FE2857" stop-opacity="0.4"/>
<stop offset="0.80437" stop-color="#FE2857" stop-opacity="0"/>
</linearGradient>
<linearGradient id="paint8_linear_1725:1248" x1="1.7942" y1="10.1396" x2="7.73233" y2="16.1141" gradientUnits="userSpaceOnUse">
<stop offset="0.07259" stop-color="#FFB40D"/>
<stop offset="0.68597" stop-color="#FF318C" stop-opacity="0"/>
</linearGradient>
<linearGradient id="paint9_linear_1725:1248" x1="3.99248" y1="3.99904" x2="12.9453" y2="12.9519" gradientUnits="userSpaceOnUse">
<stop offset="0.18418" stop-color="#FFB40D"/>
<stop offset="0.69132" stop-color="#FF318C" stop-opacity="0"/>
</linearGradient>
<linearGradient id="paint10_linear_1725:1248" x1="4.02127" y1="8.54128" x2="7.16722" y2="8.54128" gradientUnits="userSpaceOnUse">
<stop  offset="0" stop-color="#FAF272" stop-opacity="0.6"/>
<stop offset="0.19796" stop-color="#FFC524" stop-opacity="0.4"/>
<stop offset="0.70457" stop-color="#FFC524" stop-opacity="0"/>
</linearGradient>
<linearGradient id="paint11_linear_1725:1248" x1="4.21228" y1="2.29343" x2="5.86544" y2="7.91726" gradientUnits="userSpaceOnUse">
<stop offset="0.19796" stop-color="#FE2857" stop-opacity="0.4"/>
<stop offset="0.70457" stop-color="#FFB40D" stop-opacity="0"/>
</linearGradient>
<linearGradient id="paint12_linear_1725:1248" x1="34.8503" y1="34.7549" x2="48.5009" y2="48.4631" gradientUnits="userSpaceOnUse">
<stop offset="0.19796" stop-color="#FE2857" stop-opacity="0.4"/>
<stop offset="0.70457" stop-color="#FFB40D" stop-opacity="0"/>
</linearGradient>
<linearGradient id="paint13_linear_1725:1248" x1="13.4236" y1="34.1319" x2="49.2669" y2="83.1506" gradientUnits="userSpaceOnUse">
<stop offset="0.19796" stop-color="#FE2857" stop-opacity="0.4"/>
<stop offset="0.70457" stop-color="#FFB40D" stop-opacity="0"/>
</linearGradient>
<clipPath id="clip0_1725:1248">
<rect width="16" height="16" fill="white"/>
</clipPath>
</defs>
<path d="M16 16H5.95284C5.43491 16 4.9382 15.7942 4.57198 15.428C4.20575 15.0618 4 14.565 4 14.0471V11.9529C4 11.435 4.20575 10.9382 4.57198 10.572C4.9382 10.2058 5.43491 10 5.95284 10H14.0471C14.5651 10 15.0618 10.2058 15.428 10.572C15.7942 10.9382 16 11.435 16 11.9529L16 16Z" fill="#8F38E6"/>
<path d="M7.93964 13.6404V13.632C7.93964 13.4354 7.8918 13.2823 7.79613 13.1728C7.70046 13.0604 7.56925 12.9719 7.40251 12.9073C7.45444 12.8792 7.50228 12.8455 7.54601 12.8062C7.59248 12.7669 7.63212 12.7219 7.66492 12.6713C7.70046 12.618 7.72779 12.559 7.74692 12.4944C7.76879 12.4298 7.77973 12.3553 7.77973 12.2711V12.2626C7.77973 12.0295 7.69499 11.8441 7.52551 11.7065C7.35877 11.5688 7.12779 11.5 6.83257 11.5H5.5V14.4494H6.86538C7.02665 14.4494 7.17289 14.4326 7.3041 14.3989C7.43804 14.3652 7.55148 14.3146 7.64442 14.2472C7.74009 14.1798 7.81253 14.0955 7.86173 13.9944C7.91367 13.8933 7.93964 13.7753 7.93964 13.6404ZM7.15239 12.3806C7.15239 12.4902 7.11139 12.5702 7.02938 12.6208C6.94738 12.6685 6.83667 12.6924 6.69727 12.6924H6.11503V12.0688H6.73827C6.87221 12.0688 6.97472 12.0955 7.04579 12.1489C7.11686 12.1994 7.15239 12.2739 7.15239 12.3722V12.3806ZM7.3123 13.5604C7.3123 13.6699 7.27267 13.7514 7.19339 13.8048C7.11412 13.8553 7.00478 13.8806 6.86538 13.8806H6.11503V13.2317H6.84487C7.00888 13.2317 7.12779 13.2612 7.20159 13.3202C7.2754 13.3764 7.3123 13.4537 7.3123 13.552V13.5604Z" fill="white" fill-opacity="0.86"/>
<path d="M10.4436 13.3834V13.375C10.4436 13.2149 10.4217 13.0618 10.378 12.9157C10.337 12.7669 10.2714 12.6362 10.1811 12.5239C10.0937 12.4087 9.98297 12.3174 9.84903 12.25C9.71509 12.1826 9.55655 12.1489 9.3734 12.1489C9.21213 12.1489 9.06452 12.1798 8.93058 12.2416C8.79937 12.3034 8.68593 12.3876 8.59026 12.4944C8.49459 12.6011 8.41942 12.7261 8.36475 12.8694C8.31281 13.0126 8.28684 13.1643 8.28684 13.3244V13.3329C8.28684 13.507 8.31554 13.6657 8.37295 13.809C8.43035 13.9494 8.50962 14.0716 8.61076 14.1756C8.71463 14.2795 8.83627 14.3596 8.97568 14.4157C9.11782 14.4719 9.2709 14.5 9.43491 14.5C9.63445 14.5 9.80803 14.4635 9.95563 14.3904C10.1032 14.3146 10.229 14.2107 10.3329 14.0787L9.97614 13.7542C9.88866 13.8357 9.80393 13.8947 9.72192 13.9312C9.63992 13.9677 9.54698 13.986 9.44311 13.986C9.3037 13.986 9.18616 13.9494 9.09049 13.8764C8.99755 13.8006 8.93604 13.6896 8.90598 13.5435H10.4354C10.4381 13.5126 10.4395 13.486 10.4395 13.4635C10.4422 13.441 10.4436 13.4143 10.4436 13.3834ZM9.83673 13.1433H8.89778C8.92238 12.9972 8.97431 12.8806 9.05358 12.7935C9.13559 12.7065 9.24219 12.6629 9.3734 12.6629C9.50461 12.6629 9.60985 12.7079 9.68912 12.7978C9.76839 12.8848 9.81759 13 9.83673 13.1433Z" fill="white" fill-opacity="0.86"/>
<path d="M12.1422 14.3567V13.8427C12.0465 13.8961 11.944 13.9228 11.8347 13.9228C11.7008 13.9228 11.6338 13.8497 11.6338 13.7037V12.7388H12.1504V12.191H11.6338V11.6138H11.0105V12.191H10.7481V12.7388H11.0105V13.809C11.0105 13.941 11.0256 14.0506 11.0556 14.1376C11.0884 14.2219 11.1322 14.2907 11.1869 14.3441C11.2443 14.3975 11.3112 14.434 11.3878 14.4537C11.467 14.4761 11.5545 14.4874 11.6502 14.4874C11.7541 14.4874 11.8456 14.4747 11.9249 14.4494C12.0042 14.427 12.0766 14.3961 12.1422 14.3567Z" fill="white" fill-opacity="0.86"/>
<path d="M14.5 14.4494V13.139C14.5 12.8329 14.4221 12.5941 14.2663 12.4228C14.1105 12.2514 13.8617 12.1657 13.52 12.1657C13.3342 12.1657 13.1756 12.1826 13.0444 12.2163C12.9132 12.25 12.7875 12.2935 12.6672 12.3469L12.823 12.8357C12.9241 12.7963 13.0198 12.7669 13.11 12.7472C13.203 12.7247 13.3096 12.7135 13.4298 12.7135C13.5856 12.7135 13.7032 12.7486 13.7825 12.8188C13.8617 12.889 13.9014 12.9916 13.9014 13.1264V13.1643C13.8221 13.1362 13.7401 13.1138 13.6554 13.0969C13.5733 13.0801 13.4763 13.0716 13.3642 13.0716C13.233 13.0716 13.1128 13.0871 13.0034 13.118C12.8968 13.1461 12.8039 13.1896 12.7246 13.2486C12.6481 13.3076 12.5879 13.382 12.5442 13.4719C12.5005 13.5618 12.4786 13.6685 12.4786 13.7921V13.8006C12.4786 13.9129 12.4977 14.0126 12.536 14.0997C12.577 14.184 12.6317 14.2556 12.7 14.3146C12.7683 14.3736 12.8476 14.4185 12.9378 14.4494C13.0308 14.4775 13.1292 14.4916 13.233 14.4916C13.3861 14.4916 13.5159 14.4663 13.6226 14.4157C13.7292 14.3624 13.8207 14.2921 13.8973 14.2051V14.4494H14.5ZM13.9096 13.6531C13.9096 13.7711 13.8645 13.8666 13.7743 13.9396C13.6868 14.0126 13.5692 14.0492 13.4216 14.0492C13.3205 14.0492 13.2385 14.0253 13.1756 13.9775C13.1128 13.9298 13.0813 13.8624 13.0813 13.7753V13.7669C13.0813 13.6657 13.1196 13.5885 13.1961 13.5351C13.2727 13.4817 13.3779 13.4551 13.5118 13.4551C13.5884 13.4551 13.6595 13.4635 13.7251 13.4803C13.7934 13.4944 13.8549 13.514 13.9096 13.5393V13.6531Z" fill="white" fill-opacity="0.86"/>
</svg>