<svg width="16" height="16" viewBox="0 0 16 16" fill="none" xmlns="http://www.w3.org/2000/svg">
<g clip-path="url(#clip0_1725:1248)">
<path d="M14.9999 4.79121L8.53432 1.06641L2.06874 4.79121L2.06885 4.79126L2.06873 12.2844L8.53429 16.0016L8.55134 15.9917L8.56187 15.9977L8.56181 15.9856L14.9999 12.2628V4.79123H14.9999L14.9999 4.79121Z" fill="url(#paint0_linear_1725:1248)"/>
<path d="M15 4.79113L8.53442 1.06641L11.7831 5.29279L15 4.79113Z" fill="url(#paint1_linear_1725:1248)"/>
<path d="M5.28565 11.7835V5.29365L2.06873 4.79199V12.2852L5.28565 11.7835Z" fill="url(#paint2_linear_1725:1248)"/>
<path d="M2.06873 4.79113L8.53432 1.06641L5.28565 5.29279L2.06873 4.79113Z" fill="url(#paint3_linear_1725:1248)"/>
<path d="M15 4.79113L8.53442 1.06641L11.7831 5.29279L15 4.79113Z" fill="url(#paint4_linear_1725:1248)"/>
<path d="M11.7831 11.7832L8.53442 16.0021L15 12.2633L11.7831 11.7832Z" fill="url(#paint5_linear_1725:1248)"/>
<path d="M15 4.79199H14.9997H15L11.7831 5.29365V11.7835L15 12.2636V4.79199Z" fill="url(#paint6_linear_1725:1248)"/>
<path d="M15 4.79199H14.9997H15L11.7831 5.29365V11.7835L15 12.2636V4.79199Z" fill="url(#paint7_linear_1725:1248)"/>
<path d="M8.53432 16.0021L5.28565 11.7832L2.06873 12.2849L8.53432 16.0021Z" fill="url(#paint8_linear_1725:1248)"/>
<path d="M11.7831 5.29297H5.28638V11.7896H11.7831V5.29297Z" fill="url(#paint9_linear_1725:1248)"/>
<path d="M11.7831 5.29297H5.28638V11.7896H11.7831V5.29297Z" fill="url(#paint10_linear_1725:1248)"/>
<path d="M7 0H0V7H7V0Z" fill="black"/>
<path d="M6.99996 3.1787V2.00781L2.08838 4.83716V4.83743V4.83716L5.33584 5.34358L6.99996 3.1787Z" fill="url(#paint11_linear_1725:1248)"/>
<path d="M7.00002 5.34375H5.33643V7.00037H7.00002V5.34375Z" fill="url(#paint12_linear_1725:1248)"/>
<path d="M2.08838 6.99992H5.33584V5.34334L2.08838 4.83691V6.99992Z" fill="url(#paint13_linear_1725:1248)"/>
<path d="M5 5H1V6H5V5Z" fill="white"/>
</g>
<defs>
<linearGradient id="paint0_linear_1725:1248" x1="2.24187" y1="2.24538" x2="14.5526" y2="14.5561" gradientUnits="userSpaceOnUse">
<stop offset="0.20773" stop-color="#FFB60D"/>
<stop offset="0.44753" stop-color="#FF318C"/>
<stop offset="0.90836" stop-color="#6B57FF"/>
</linearGradient>
<linearGradient id="paint1_linear_1725:1248" x1="9.06206" y1="0.116021" x2="16.7773" y2="8.89422" gradientUnits="userSpaceOnUse">
<stop  offset="0" stop-color="#FFB60D"/>
<stop offset="0.4389" stop-color="#FF318C"/>
<stop offset="0.93652" stop-color="#E30871"/>
</linearGradient>
<linearGradient id="paint2_linear_1725:1248" x1="1.45839" y1="6.5707" x2="10.0346" y2="15.1469" gradientUnits="userSpaceOnUse">
<stop offset="0.07259" stop-color="#FFB60D"/>
<stop offset="0.68597" stop-color="#FF318C" stop-opacity="0"/>
</linearGradient>
<linearGradient id="paint3_linear_1725:1248" x1="5.44802" y1="2.03814" x2="4.59077" y2="7.25019" gradientUnits="userSpaceOnUse">
<stop offset="0.04176" stop-color="#FFCF5F"/>
<stop offset="0.40672" stop-color="#FFB60D"/>
<stop offset="1" stop-color="#FF318C" stop-opacity="0"/>
</linearGradient>
<linearGradient id="paint4_linear_1725:1248" x1="9.55829" y1="1.20876" x2="18.1194" y2="9.76985" gradientUnits="userSpaceOnUse">
<stop offset="0.01556" stop-color="#FFB60D"/>
<stop offset="0.42361" stop-color="#FF318C" stop-opacity="0"/>
</linearGradient>
<linearGradient id="paint5_linear_1725:1248" x1="8.16591" y1="17.6538" x2="14.6581" y2="10.6587" gradientUnits="userSpaceOnUse">
<stop offset="0.33598" stop-color="#D123FF" stop-opacity="0.4"/>
<stop offset="0.72079" stop-color="#8F45FF" stop-opacity="0.78823"/>
<stop offset="0.92376" stop-color="#6B57FF"/>
</linearGradient>
<linearGradient id="paint6_linear_1725:1248" x1="7.69226" y1="2.5885" x2="16.3034" y2="11.1996" gradientUnits="userSpaceOnUse">
<stop offset="0.01556" stop-color="#FFB60D"/>
<stop offset="0.42361" stop-color="#FF318C"/>
<stop offset="0.92935" stop-color="#6B57FF"/>
</linearGradient>
<linearGradient id="paint7_linear_1725:1248" x1="11.5348" y1="3.9681" x2="13.215" y2="7.87714" gradientUnits="userSpaceOnUse">
<stop offset="0.04611" stop-color="#FFDE17" stop-opacity="0.6"/>
<stop offset="0.43474" stop-color="#FE2857" stop-opacity="0.4"/>
<stop offset="0.80437" stop-color="#FE2857" stop-opacity="0"/>
</linearGradient>
<linearGradient id="paint8_linear_1725:1248" x1="1.7942" y1="10.1396" x2="7.73233" y2="16.1141" gradientUnits="userSpaceOnUse">
<stop offset="0.07259" stop-color="#FFB40D"/>
<stop offset="0.68597" stop-color="#FF318C" stop-opacity="0"/>
</linearGradient>
<linearGradient id="paint9_linear_1725:1248" x1="3.99248" y1="3.99904" x2="12.9453" y2="12.9519" gradientUnits="userSpaceOnUse">
<stop offset="0.18418" stop-color="#FFB40D"/>
<stop offset="0.69132" stop-color="#FF318C" stop-opacity="0"/>
</linearGradient>
<linearGradient id="paint10_linear_1725:1248" x1="4.02127" y1="8.54128" x2="7.16722" y2="8.54128" gradientUnits="userSpaceOnUse">
<stop  offset="0" stop-color="#FAF272" stop-opacity="0.6"/>
<stop offset="0.19796" stop-color="#FFC524" stop-opacity="0.4"/>
<stop offset="0.70457" stop-color="#FFC524" stop-opacity="0"/>
</linearGradient>
<linearGradient id="paint11_linear_1725:1248" x1="4.21228" y1="2.29343" x2="5.86544" y2="7.91726" gradientUnits="userSpaceOnUse">
<stop offset="0.19796" stop-color="#FE2857" stop-opacity="0.4"/>
<stop offset="0.70457" stop-color="#FFB40D" stop-opacity="0"/>
</linearGradient>
<linearGradient id="paint12_linear_1725:1248" x1="34.8503" y1="34.7549" x2="48.5009" y2="48.4631" gradientUnits="userSpaceOnUse">
<stop offset="0.19796" stop-color="#FE2857" stop-opacity="0.4"/>
<stop offset="0.70457" stop-color="#FFB40D" stop-opacity="0"/>
</linearGradient>
<linearGradient id="paint13_linear_1725:1248" x1="13.4236" y1="34.1319" x2="49.2669" y2="83.1506" gradientUnits="userSpaceOnUse">
<stop offset="0.19796" stop-color="#FE2857" stop-opacity="0.4"/>
<stop offset="0.70457" stop-color="#FFB40D" stop-opacity="0"/>
</linearGradient>
<clipPath id="clip0_1725:1248">
<rect width="16" height="16" fill="white"/>
</clipPath>
</defs>
</svg>
