<svg width="32" height="32" viewBox="0 0 32 32" fill="none" xmlns="http://www.w3.org/2000/svg" data-scaled="true">
<path d="M29.9365 3.07397C29.906 2.55628 29.4801 2.12995 28.963 2.0995C27.9895 2.03859 26.3467 1.97769 24.3388 2.03859C24.2476 2.03859 24.0954 2.03859 24.0042 2.03859C20.3231 2.1604 15.699 2.61719 11.592 4.10935C11.4703 4.1398 11.1965 4.26161 11.014 4.32251C8.82363 5.17517 6.8462 6.36281 5.3251 7.91588C0.54886 12.8491 0.974767 20.9799 6.23776 26.0654C11.5008 31.1509 19.6843 31.3641 24.3997 26.3699C24.9168 25.8218 25.3732 25.2127 25.8295 24.5732C30.3319 17.8738 30.0886 6.39326 29.9365 3.07397Z" fill="url(#paint0_radial)"/>
<path d="M29.7539 3.01302C29.8147 2.55624 29.4801 2.12991 29.0238 2.09946C28.0807 2.03855 26.4075 1.97765 24.3388 2.0081C24.2475 2.0081 24.0954 2.0081 24.0041 2.0081C20.5969 2.12991 16.3378 2.55624 12.4742 3.80478C12.4134 3.83523 12.3525 3.86569 12.3221 3.89614C12.0483 4.07885 11.7137 4.26157 11.6528 4.29202L11.6224 4.32247C11.2878 4.53564 10.9531 4.7488 10.6185 4.99242C6.26815 8.1899 5.32507 13.9454 8.51938 17.8128C11.7137 21.6802 17.7981 22.2284 22.0876 18.97C22.5439 18.6046 23.0002 18.2087 23.4261 17.7824C27.1984 13.9454 28.8717 7.45905 29.5409 4.17021C29.6018 3.77433 29.693 3.37845 29.7539 3.01302Z" fill="url(#paint1_linear)"/>
<path d="M22.0876 18.97C22.5439 18.6046 23.0002 18.2087 23.4261 17.7824C27.1985 13.9454 28.8717 7.45907 29.5409 4.17023C29.6322 3.7439 29.6931 3.31757 29.7539 2.95214C29.8147 2.58671 29.4801 2.28219 29.115 2.37355C28.6283 2.52581 28.0199 2.70852 27.5939 2.83033C24.1867 3.92661 19.8059 5.69284 16.3074 8.31173C14.7863 9.49937 13.5086 10.8393 12.748 12.3619C11.5312 14.7372 11.2878 17.8433 12.4742 20.3404C12.5351 20.4622 12.6568 20.584 12.7785 20.6144C15.7598 21.5889 19.3192 21.1017 22.0876 18.97Z" fill="url(#paint2_radial)"/>
<defs>
<radialGradient id="paint0_radial" cx="0" cy="0" r="1" gradientUnits="userSpaceOnUse" gradientTransform="translate(5.81289 3.98545) scale(29.3223 29.3515)">
<stop offset="0.1646" stop-color="#42FFFA"/>
<stop offset="0.539" stop-color="#07C3F2"/>
<stop offset="0.6723" stop-color="#3595F3"/>
<stop offset="0.8655" stop-color="#7D11EF"/>
<stop offset="1" stop-color="#AF1DF5"/>
</radialGradient>
<linearGradient id="paint1_linear" x1="-0.126571" y1="-6.13133" x2="29.0747" y2="18.665" gradientUnits="userSpaceOnUse">
<stop  offset="0" stop-color="#AF1DF5"/>
<stop offset="0.1194" stop-color="#A329F5"/>
<stop offset="0.349" stop-color="#3595F3"/>
<stop offset="0.5653" stop-color="#07C3F2"/>
<stop offset="0.7911" stop-color="#42FFFA"/>
</linearGradient>
<radialGradient id="paint2_radial" cx="0" cy="0" r="1" gradientUnits="userSpaceOnUse" gradientTransform="translate(22.3767 35.2456) scale(42.8284 42.8711)">
<stop offset="0.1267" stop-color="white"/>
<stop offset="0.9427" stop-color="#07C3F2" stop-opacity="0"/>
</radialGradient>
</defs>
<path d="M28.0943 32H11.9057C11.3928 32 10.8849 31.8989 10.411 31.7026C9.93718 31.5064 9.50663 31.2188 9.14395 30.8561C8.78128 30.4934 8.49358 30.0628 8.2973 29.589C8.10102 29.1151 8 28.6073 8 28.0944V23.9056C8 23.3927 8.10102 22.8849 8.2973 22.411C8.49358 21.9372 8.78128 21.5066 9.14395 21.1439C9.50663 20.7812 9.93718 20.4935 10.411 20.2972C10.8849 20.101 11.3928 20 11.9057 20H28.0943C28.6072 20 29.1151 20.101 29.589 20.2972C30.0628 20.4935 30.4934 20.7812 30.856 21.1439C31.2187 21.5066 31.5064 21.9372 31.7027 22.411C31.899 22.8849 32 23.3927 32 23.9056V28.0944C32 29.1302 31.5885 30.1236 30.856 30.8561C30.1236 31.5885 29.1302 32 28.0943 32V32Z" fill="#FDB60D"/>
<path d="M12.4562 23.3781H16.5756V24.4473H13.6498V25.5551H16.2246V26.6238H13.6498V27.7708H16.6147V28.8395H12.4562V23.3781Z" fill="black"/>
<path d="M19.5557 23.3395H20.6635L23.0041 28.8395H21.748L21.2487 27.6147H18.9395L18.4402 28.8395H17.2156L19.5557 23.3395ZM20.8199 26.5537L20.0941 24.7825L19.3687 26.5537H20.8199Z" fill="black"/>
<path d="M23.8468 23.378H26.0782C26.3431 23.3466 26.6118 23.3722 26.866 23.4531C27.1203 23.534 27.3543 23.6684 27.5523 23.8473C27.7503 24.0261 27.9078 24.2453 28.0141 24.49C28.1205 24.7347 28.1732 24.9992 28.1689 25.266V25.2817C28.1666 25.5583 28.1056 25.8313 27.9899 26.0825C27.8742 26.3337 27.7064 26.5575 27.4977 26.739C27.289 26.9205 27.0441 27.0555 26.7792 27.1352C26.5144 27.2149 26.2356 27.2375 25.9614 27.2013H25.0486V28.8395H23.8468V23.378ZM26 26.1321C26.118 26.1471 26.238 26.1369 26.3519 26.1024C26.4658 26.0678 26.5711 26.0097 26.6609 25.9316C26.7508 25.8536 26.8232 25.7573 26.8733 25.6494C26.9234 25.5414 26.9502 25.4242 26.9518 25.3052V25.2894C26.9518 24.7515 26.5775 24.4625 25.9766 24.4625H25.0486V26.1321H26Z" fill="black"/>
</svg>