<svg width="16" height="16" viewBox="0 0 16 16" fill="none" xmlns="http://www.w3.org/2000/svg">
<path d="M14.9682 1.53702C14.953 1.27817 14.7401 1.06501 14.4815 1.04978C13.9947 1.01933 13.1733 0.988875 12.1694 1.01933C12.1238 1.01933 12.0477 1.01933 12.0021 1.01933C10.1616 1.08023 7.84949 1.30862 5.79601 2.0547C5.73517 2.06993 5.59827 2.13083 5.507 2.16129C4.41181 2.58762 3.4231 3.18144 2.66255 3.95797C0.27443 6.4246 0.487384 10.49 3.11888 13.0327C5.75038 15.5755 9.84213 15.6821 12.1998 13.185C12.4584 12.9109 12.6866 12.6064 12.9147 12.2867C15.166 8.93691 15.0443 3.19666 14.9682 1.53702Z" fill="url(#paint0_radial)"/>
<path d="M14.8769 1.50651C14.9074 1.27812 14.74 1.06495 14.5119 1.04973C14.0403 1.01928 13.2037 0.988824 12.1694 1.00405C12.1238 1.00405 12.0477 1.00405 12.0021 1.00405C10.2984 1.06495 8.16891 1.27812 6.23711 1.90239C6.20669 1.91762 6.17627 1.93284 6.16106 1.94807C6.02416 2.03943 5.85684 2.13078 5.82642 2.14601L5.81121 2.16123C5.64389 2.26782 5.47657 2.3744 5.30924 2.49621C3.13408 4.09495 2.66254 6.97269 4.25969 8.9064C5.85684 10.8401 8.89903 11.1142 11.0438 9.485C11.2719 9.30228 11.5001 9.10434 11.7131 8.89118C13.5992 6.97269 14.4358 3.72952 14.7705 2.0851C14.8009 1.88716 14.8465 1.68923 14.8769 1.50651Z" fill="url(#paint1_linear)"/>
<path d="M11.0438 9.48501C11.272 9.30229 11.5001 9.10435 11.7131 8.89119C13.5992 6.9727 14.4358 3.72953 14.7705 2.08511C14.8161 1.87195 14.8465 1.65878 14.877 1.47607C14.9074 1.29336 14.7401 1.14109 14.5575 1.18677C14.3141 1.2629 14.0099 1.35426 13.797 1.41516C12.0933 1.9633 9.90296 2.84642 8.1537 4.15587C7.39315 4.74968 6.75429 5.41963 6.37402 6.18094C5.76558 7.36858 5.64389 8.92164 6.23712 10.1702C6.26754 10.2311 6.32839 10.292 6.38923 10.3072C7.8799 10.7945 9.65959 10.5508 11.0438 9.48501Z" fill="url(#paint2_radial)"/>
<defs>
<radialGradient id="paint0_radial" cx="0" cy="0" r="1" gradientUnits="userSpaceOnUse" gradientTransform="translate(2.90645 1.99275) scale(14.6612 14.6758)">
<stop offset="0.1646" stop-color="#42FFFA"/>
<stop offset="0.539" stop-color="#07C3F2"/>
<stop offset="0.6723" stop-color="#3595F3"/>
<stop offset="0.8655" stop-color="#7D11EF"/>
<stop offset="1" stop-color="#AF1DF5"/>
</radialGradient>
<linearGradient id="paint1_linear" x1="-0.0632855" y1="-3.06566" x2="14.5374" y2="9.33252" gradientUnits="userSpaceOnUse">
<stop  offset="0" stop-color="#AF1DF5"/>
<stop offset="0.1194" stop-color="#A329F5"/>
<stop offset="0.349" stop-color="#3595F3"/>
<stop offset="0.5653" stop-color="#07C3F2"/>
<stop offset="0.7911" stop-color="#42FFFA"/>
</linearGradient>
<radialGradient id="paint2_radial" cx="0" cy="0" r="1" gradientUnits="userSpaceOnUse" gradientTransform="translate(11.1884 17.6228) scale(21.4142 21.4355)">
<stop offset="0.1267" stop-color="white"/>
<stop offset="0.9427" stop-color="#07C3F2" stop-opacity="0"/>
</radialGradient>
</defs>
<path d="M16 16H5.95284C5.43491 16 4.9382 15.7942 4.57198 15.428C4.20575 15.0618 4 14.565 4 14.0471V11.9529C4 11.435 4.20575 10.9382 4.57198 10.572C4.9382 10.2058 5.43491 10 5.95284 10H14.0471C14.5651 10 15.0618 10.2058 15.428 10.572C15.7942 10.9382 16 11.435 16 11.9529L16 16Z" fill="#FDB60D"/>
<path d="M5.87097 11.5658H8.11797V12.1489H6.52211V12.7533H7.92653V13.3362H6.52211V13.9618H8.13931V14.5447H5.87102L5.87097 11.5658Z" fill="black"/>
<path d="M9.74345 11.5447H10.3477L11.6244 14.5447H10.9393L10.6669 13.8767H9.40739L9.13504 14.5447H8.46704L9.74345 11.5447ZM10.4331 13.298L10.0372 12.3318L9.64149 13.298H10.4331Z" fill="black"/>
<path d="M12.084 11.5658H13.3011C13.4456 11.5487 13.5921 11.5626 13.7308 11.6067C13.8695 11.6509 13.9971 11.7243 14.1051 11.8218C14.2132 11.9194 14.2991 12.0388 14.3571 12.1723C14.4151 12.3058 14.4439 12.4501 14.4415 12.5956V12.6043C14.4403 12.7552 14.407 12.904 14.3439 13.0411C14.2808 13.1781 14.1892 13.3001 14.0754 13.3991C13.9615 13.4981 13.828 13.5718 13.6835 13.6153C13.539 13.6587 13.387 13.671 13.2374 13.6513H12.7395V14.5447H12.084L12.084 11.5658ZM13.2585 13.068C13.3229 13.0762 13.3883 13.0708 13.4504 13.0519C13.5125 13.0331 13.57 13.0012 13.619 12.9587C13.668 12.9161 13.7075 12.8636 13.7348 12.8047C13.7622 12.7458 13.7768 12.6819 13.7777 12.617V12.6084C13.7777 12.315 13.5735 12.1574 13.2457 12.1574H12.7395V13.068H13.2585Z" fill="black"/>
</svg>