<svg width="64" height="64" viewBox="0 0 64 64" fill="none" xmlns="http://www.w3.org/2000/svg">
<path d="M54.8956 10.7643C54.8456 9.91384 54.1459 9.21344 53.2963 9.16341C51.697 9.06336 48.9981 8.9633 45.6995 9.06336C45.5496 9.06336 45.2997 9.06336 45.1497 9.06336C39.1023 9.26347 31.5055 10.0139 24.7583 12.4653C24.5584 12.5153 24.1086 12.7154 23.8087 12.8155C20.2102 14.2163 16.9616 16.1674 14.4627 18.7189C6.61598 26.8235 7.31569 40.1812 15.962 48.536C24.6084 56.8908 38.0527 57.241 45.7994 49.0363C46.6491 48.1357 47.3988 47.1352 48.1485 46.0846C55.5453 35.0783 55.1455 16.2175 54.8956 10.7643Z" fill="url(#paint0_radial)"/>
<path d="M54.5957 10.6643C54.6957 9.91382 54.1459 9.21342 53.3962 9.16339C51.8469 9.06334 49.098 8.96328 45.6995 9.01331C45.5495 9.01331 45.2996 9.01331 45.1497 9.01331C39.5521 9.21342 32.555 9.91382 26.2077 11.965C26.1077 12.015 26.0078 12.0651 25.9578 12.1151C25.508 12.4153 24.9582 12.7154 24.8583 12.7655L24.8083 12.8155C24.2585 13.1657 23.7087 13.5159 23.159 13.9161C16.012 19.1691 14.4626 28.6245 19.7104 34.9782C24.9582 41.3318 34.954 42.2323 42.001 36.8793C42.7507 36.2789 43.5004 35.6286 44.2001 34.9282C50.3975 28.6245 53.1463 17.9684 54.2458 12.5653C54.3458 11.915 54.4957 11.2646 54.5957 10.6643Z" fill="url(#paint1_linear)"/>
<path d="M42.001 36.8793C42.7507 36.279 43.5004 35.6286 44.2001 34.9282C50.3975 28.6246 53.1463 17.9685 54.2458 12.5654C54.3958 11.865 54.4957 11.1646 54.5957 10.5642C54.6957 9.96388 54.1459 9.4636 53.5461 9.61368C52.7465 9.86383 51.7469 10.164 51.0472 10.3641C45.4496 12.1651 38.2526 15.0668 32.505 19.3693C30.0061 21.3204 27.907 23.5217 26.6575 26.0231C24.6583 29.9253 24.2585 35.0282 26.2077 39.1306C26.3076 39.3307 26.5076 39.5308 26.7075 39.5809C31.6054 41.1818 37.4529 40.3813 42.001 36.8793Z" fill="url(#paint2_radial)"/>
<defs>
<radialGradient id="paint0_radial" cx="0" cy="0" r="1" gradientUnits="userSpaceOnUse" gradientTransform="translate(15.264 12.2618) scale(48.1724 48.2204)">
<stop offset="0.1646" stop-color="#42FFFA"/>
<stop offset="0.539" stop-color="#07C3F2"/>
<stop offset="0.6723" stop-color="#3595F3"/>
<stop offset="0.8655" stop-color="#7D11EF"/>
<stop offset="1" stop-color="#AF1DF5"/>
</radialGradient>
<linearGradient id="paint1_linear" x1="5.50637" y1="-4.3586" x2="53.4799" y2="36.3783" gradientUnits="userSpaceOnUse">
<stop  offset="0" stop-color="#AF1DF5"/>
<stop offset="0.1194" stop-color="#A329F5"/>
<stop offset="0.349" stop-color="#3595F3"/>
<stop offset="0.5653" stop-color="#07C3F2"/>
<stop offset="0.7911" stop-color="#42FFFA"/>
</linearGradient>
<radialGradient id="paint2_radial" cx="0" cy="0" r="1" gradientUnits="userSpaceOnUse" gradientTransform="translate(42.4761 63.6177) scale(70.361 70.4311)">
<stop offset="0.1267" stop-color="white"/>
<stop offset="0.9427" stop-color="#07C3F2" stop-opacity="0"/>
</radialGradient>
</defs>
<path d="M56.1887 64H23.8113C21.7397 64 19.7528 63.1771 18.2879 61.7122C16.823 60.2473 16 58.2604 16 56.1887V47.8113C16 46.7855 16.202 45.7697 16.5946 44.822C16.9872 43.8743 17.5626 43.0132 18.2879 42.2878C19.0133 41.5625 19.8743 40.9872 20.8221 40.5946C21.7698 40.202 22.7855 40 23.8113 40H56.1887C58.2604 40 60.2472 40.8229 61.7121 42.2878C63.177 43.7527 64 45.7396 64 47.8113V56.1887C64 58.2604 63.177 60.2473 61.7121 61.7122C60.2472 63.1771 58.2604 64 56.1887 64Z" fill="#FDB60D"/>
<path d="M24.9124 46.7561H33.1512V48.8945H27.2997V51.1102H32.4492V53.2476H27.2997V55.5415H33.2294V57.679H24.9124V46.7561Z" fill="black"/>
<path d="M39.1113 46.679H41.327L46.0082 57.679H43.4959L42.4973 55.2296H37.8791L36.8805 57.679H34.4312L39.1113 46.679ZM41.6399 53.1074L40.1882 49.5651L38.7375 53.1074H41.6399Z" fill="black"/>
<path d="M47.6936 46.7561H52.1564C54.7621 46.7561 56.3378 48.3013 56.3378 50.5321V50.5636C56.3378 53.0911 54.372 54.4026 51.9228 54.4026H50.0972V57.6788H47.6936L47.6936 46.7561ZM51.9999 52.2643C52.2361 52.2943 52.4759 52.274 52.7037 52.205C52.9315 52.1359 53.1422 52.0194 53.3219 51.8633C53.5016 51.7072 53.6463 51.5149 53.7466 51.299C53.8468 51.083 53.9004 50.8484 53.9037 50.6104V50.5789C53.9037 49.503 53.155 48.925 51.9532 48.925H50.0972V52.2643H51.9999Z" fill="black"/>
</svg>