<svg width="64" height="64" viewBox="0 0 64 64" fill="none" xmlns="http://www.w3.org/2000/svg">
<path d="M32 62L57.975 46.98V16.964L32 2L6.02602 16.964H6.02502L32 31.984V62Z" fill="url(#paint0_linear_1725:872)"/>
<path d="M57.975 16.964L32 2L6.02602 16.964H6.02502L32 31.984L57.975 16.964Z" fill="url(#paint1_linear_1725:872)"/>
<path d="M57.975 16.964L32 2L6.02602 16.964H6.02502L32 31.984L57.975 16.964Z" fill="url(#paint2_linear_1725:872)"/>
<path d="M57.975 16.964L32 2L6.02602 16.964H6.02502L32 31.984L57.975 16.964Z" fill="url(#paint3_linear_1725:872)"/>
<path d="M6.026 46.9799V16.9639L32 31.9839L6.026 46.9799Z" fill="url(#paint4_linear_1725:872)"/>
<path d="M32 31.9844L6.026 46.9804L32 62.0004V31.9844Z" fill="url(#paint5_linear_1725:872)" style="mix-blend-mode:overlay"/>
<path d="M32 61.9999L57.975 46.9799V16.9639L32 31.9839V61.9999Z" fill="url(#paint6_linear_1725:872)"/>
<path d="M32 61.9999L57.975 46.9799V16.9639L32 31.9839V61.9999Z" fill="url(#paint7_linear_1725:872)"/>
<path d="M32 61.9999L57.975 46.9799V16.9639L32 31.9839V61.9999Z" fill="url(#paint8_linear_1725:872)"/>
<g opacity="0.8">
<path d="M25.028 27.9699L32 32V2L6 16.972L25.028 27.9699Z" fill="url(#paint9_linear_1725:872)" style="mix-blend-mode:overlay"/>
</g>
<defs>
<linearGradient id="paint0_linear_1725:872" x1="17.0683" y1="11.5629" x2="61.3962" y2="55.8908" gradientUnits="userSpaceOnUse">
<stop  offset="0" stop-color="#FDB60D"/>
<stop offset="0.54795" stop-color="#FF318C"/>
<stop offset="0.88765" stop-color="#6B57FF"/>
</linearGradient>
<linearGradient id="paint1_linear_1725:872" x1="25.5898" y1="28.0668" x2="28.4505" y2="23.112" gradientUnits="userSpaceOnUse">
<stop  offset="0" stop-color="white" stop-opacity="0.6"/>
<stop offset="0.08098" stop-color="#FFC524" stop-opacity="0.4"/>
<stop offset="0.70457" stop-color="#FFC524" stop-opacity="0"/>
</linearGradient>
<linearGradient id="paint2_linear_1725:872" x1="25.4334" y1="5.59024" x2="29.6963" y2="12.9738" gradientUnits="userSpaceOnUse">
<stop  offset="0" stop-color="#F9ED32" stop-opacity="0.6"/>
<stop offset="0.19796" stop-color="#FFC524" stop-opacity="0.4"/>
<stop offset="0.70457" stop-color="#FFC524" stop-opacity="0"/>
</linearGradient>
<linearGradient id="paint3_linear_1725:872" x1="38.9129" y1="4.99057" x2="37.0135" y2="8.28029" gradientUnits="userSpaceOnUse">
<stop  offset="0" stop-color="#FDB60D" stop-opacity="0.6"/>
<stop offset="0.23369" stop-color="#FDB60D" stop-opacity="0.4"/>
<stop offset="0.5185" stop-color="#FF318C" stop-opacity="0"/>
</linearGradient>
<linearGradient id="paint4_linear_1725:872" x1="6.02553" y1="31.972" x2="48.2774" y2="31.972" gradientUnits="userSpaceOnUse">
<stop offset="0.01477"/>
<stop offset="0.19258"/>
<stop offset="0.57156" stop-color="#6B57FF"/>
<stop offset="0.82576" stop-color="#FF318C"/>
</linearGradient>
<linearGradient id="paint5_linear_1725:872" x1="25.2369" y1="19.192" x2="18.7738" y2="55.8462" gradientUnits="userSpaceOnUse">
<stop offset="0.046628" stop-color="white" stop-opacity="0.86"/>
<stop offset="0.766654" stop-color="#CBCAA4" stop-opacity="0"/>
</linearGradient>
<linearGradient id="paint6_linear_1725:872" x1="32.0001" y1="39.4819" x2="38.997" y2="39.4819" gradientUnits="userSpaceOnUse">
<stop  offset="0" stop-color="#FFB2FF" stop-opacity="0.6"/>
<stop offset="0.08098" stop-color="#D828FF" stop-opacity="0.4"/>
<stop offset="0.70457" stop-color="#FF318C" stop-opacity="0"/>
</linearGradient>
<linearGradient id="paint7_linear_1725:872" x1="58.0814" y1="39.4819" x2="50.9352" y2="39.4819" gradientUnits="userSpaceOnUse">
<stop  offset="0" stop-color="#6644FF" stop-opacity="0.8"/>
<stop offset="0.09676" stop-color="#6B57FF" stop-opacity="0.4"/>
<stop offset="0.70457" stop-color="#FF318C" stop-opacity="0"/>
</linearGradient>
<linearGradient id="paint8_linear_1725:872" x1="51.8655" y1="51.3952" x2="49.8093" y2="47.8337" gradientUnits="userSpaceOnUse">
<stop offset="0.00572" stop-color="#FF318C"/>
<stop offset="0.46934" stop-color="#6B57FF" stop-opacity="0"/>
</linearGradient>
<linearGradient id="paint9_linear_1725:872" x1="18.9999" y1="2.93734" x2="18.9999" y2="20.5615" gradientUnits="userSpaceOnUse">
<stop offset="0.23873" stop-color="#FF5592" stop-opacity="0.65"/>
<stop offset="0.8289" stop-color="#FF57E4" stop-opacity="0"/>
</linearGradient>
</defs>
<path d="M56.1887 64H23.8113C21.7397 64 19.7528 63.1771 18.2879 61.7122C16.823 60.2473 16 58.2604 16 56.1887V47.8113C16 46.7855 16.202 45.7697 16.5946 44.822C16.9872 43.8743 17.5626 43.0132 18.2879 42.2878C19.0133 41.5625 19.8743 40.9872 20.8221 40.5946C21.7698 40.202 22.7855 40 23.8113 40H56.1887C58.2604 40 60.2472 40.8229 61.7121 42.2878C63.177 43.7527 64 45.7396 64 47.8113V56.1887C64 58.2604 63.177 60.2473 61.7121 61.7122C60.2472 63.1771 58.2604 64 56.1887 64Z" fill="#FDB60D"/>
<path d="M24.9124 46.7561H33.1512V48.8945H27.2997V51.1102H32.4492V53.2476H27.2997V55.5415H33.2294V57.679H24.9124V46.7561Z" fill="black"/>
<path d="M39.1113 46.679H41.327L46.0082 57.679H43.4959L42.4973 55.2296H37.8791L36.8805 57.679H34.4312L39.1113 46.679ZM41.6399 53.1074L40.1882 49.5651L38.7375 53.1074H41.6399Z" fill="black"/>
<path d="M47.6936 46.7561H52.1564C54.7621 46.7561 56.3378 48.3013 56.3378 50.5321V50.5636C56.3378 53.0911 54.372 54.4026 51.9228 54.4026H50.0972V57.6788H47.6936L47.6936 46.7561ZM51.9999 52.2643C52.2361 52.2943 52.4759 52.274 52.7037 52.205C52.9315 52.1359 53.1422 52.0194 53.3219 51.8633C53.5016 51.7072 53.6463 51.5149 53.7466 51.299C53.8468 51.083 53.9004 50.8484 53.9037 50.6104V50.5789C53.9037 49.503 53.155 48.925 51.9532 48.925H50.0972V52.2643H51.9999Z" fill="black"/>
</svg>