<svg width="64" height="64" viewBox="0 0 64 64" fill="none" xmlns="http://www.w3.org/2000/svg">
<g clip-path="url(#clip0_4372_12782)">
<path d="M59.9275 0H25.9592C24.3301 0 22.8575 0.971054 22.2157 2.46807L6.14767 39.9587C5.93065 40.4655 5.81836 41.0118 5.81836 41.5633V59.9273C5.81836 62.1766 7.64178 64 9.89109 64H27.8571C28.6617 64 29.4483 63.7615 30.118 63.3146L62.1866 41.9113C63.3189 41.1561 63.9984 39.8848 63.9984 38.5239L64.0002 4.07273C64.0002 1.82342 62.1768 0 59.9275 0Z" fill="url(#paint0_linear_4372_12782)"/>
<path d="M14.5193 5.81836H4.07273C1.82342 5.81836 0 7.64178 0 9.89109V22.9837C0 23.1763 0.0139636 23.3689 0.0407273 23.5597L5.31782 60.5035C5.60465 62.5101 7.32276 64.0002 9.34982 64.0002H25.0228C27.2727 64.0002 29.0961 62.1762 29.0956 59.9263L29.0909 41.3878C29.0909 40.9503 29.0205 40.5157 28.882 40.1008L18.3831 8.60294C17.8287 6.9401 16.2723 5.81836 14.5193 5.81836Z" fill="url(#paint1_linear_4372_12782)"/>
<path d="M15.9476 5.81836L4.07215 5.8201C1.82342 5.82069 0 7.6441 0 9.89283V21.3994C0 22.5881 0.519564 23.718 1.42196 24.4918L39.5828 57.2016C40.3212 57.8341 41.2614 58.182 42.2336 58.182H54.1091C56.3584 58.182 58.1818 56.3586 58.1818 54.1093V42.6009C58.1818 41.4123 57.6623 40.2824 56.7599 39.5085L18.599 6.7993C17.8607 6.16629 16.9204 5.81894 15.9476 5.81894V5.81836Z" fill="#FF8100"/>
<path d="M52 12H12V52H52V12Z" fill="black"/>
<path d="M26.2716 25.7535C27.086 25.3609 27.7105 24.8105 28.1467 24.1034C28.5892 23.3894 28.8108 22.5675 28.8108 21.6388C28.8108 20.7101 28.5927 19.9071 28.157 19.2069C27.7283 18.5067 27.1142 17.9643 26.314 17.5786C25.5139 17.1929 24.5893 17 23.5389 17H17.0996V31.9994H20.0245V26.3315H22.5448L25.7785 31.9994H29.1322L25.5576 25.99C25.7975 25.9137 26.0517 25.8586 26.2716 25.7535ZM20.0257 19.4319H23.3472C23.8403 19.4319 24.2684 19.5243 24.6329 19.7103C25.0043 19.8882 25.2901 20.1459 25.4898 20.4817C25.6896 20.8094 25.79 21.2031 25.79 21.66C25.79 22.1169 25.6901 22.5066 25.4898 22.8493C25.2901 23.1856 25.0043 23.4451 24.6329 23.6316C24.2684 23.8095 23.8403 23.8996 23.3472 23.8996H20.0257V19.4319Z" fill="white"/>
<path d="M41.9004 17L38.9221 26.8464L38.6971 28.1321L38.44 26.8464L35.3543 17H31.2832V32H34.1651V21.2967L34.122 20.5896L37.5721 32H39.6935L43.1861 20.5144L43.1436 21.2967V32H46.0364V17H41.9004Z" fill="white"/>
<path d="M33 44H17V47H33V44Z" fill="white"/>
</g>
<defs>
<linearGradient id="paint0_linear_4372_12782" x1="4.22243" y1="60.0186" x2="62.9273" y2="1.31316" gradientUnits="userSpaceOnUse">
<stop offset="0.29" stop-color="#FF2358"/>
<stop offset="0.75" stop-color="#7256FF"/>
</linearGradient>
<linearGradient id="paint1_linear_4372_12782" x1="-0.717382" y1="7.622" x2="24.1455" y2="61.2476" gradientUnits="userSpaceOnUse">
<stop offset="0.29" stop-color="#FF8100"/>
<stop offset="0.56" stop-color="#FF2358"/>
</linearGradient>
<clipPath id="clip0_4372_12782">
<rect width="64" height="64" fill="white"/>
</clipPath>
</defs>
<path d="M8 46C8 43.7909 9.79086 42 12 42H60C62.2091 42 64 43.7909 64 46V60C64 62.2091 62.2091 64 60 64H12C9.79086 64 8 62.2091 8 60V46Z" fill="#FFC94D"/>
<path d="M64 60C64 62.2091 62.2091 64 60 64H12C9.79086 64 8 62.2091 8 60L8.00488 60.165C8.11223 61.8557 9.86004 63.2002 12 63.2002H60C62.2091 63.2002 64 61.7673 64 60Z" fill="#7D7C7C"/>
<path d="M33 48H36.8443C37.4775 48 38.0322 48.1286 38.5082 48.3857C38.9842 48.6429 39.3519 49.0071 39.6111 49.4786C39.8704 49.95 40 50.4929 40 51.1071C40 51.731 39.8682 52.281 39.6047 52.7571C39.3412 53.2286 38.9672 53.5952 38.4827 53.8571C38.0024 54.119 37.4393 54.25 36.7933 54.25H34.7851V58H33V48ZM36.7231 52.5929C37.0121 52.5929 37.265 52.5333 37.4818 52.4143C37.6985 52.2952 37.8643 52.1238 37.9791 51.9C38.0981 51.6762 38.1576 51.4143 38.1576 51.1143C38.1576 50.819 38.0981 50.5619 37.9791 50.3429C37.8643 50.1238 37.6985 49.9548 37.4818 49.8357C37.265 49.7167 37.0121 49.6571 36.7231 49.6571H34.7851V52.5929H36.7231Z" fill="black"/>
<path d="M26.1455 48H28.3372L32.0839 58H30.0514L29.2413 55.7H25.3282L24.5759 58H22.5L26.1455 48ZM28.7133 54.1571L27.3679 50.4L27.216 49.7643L27.0714 50.4L25.8128 54.1571H28.7133Z" fill="black"/>
<path d="M14 48H20.8649V49.7571H15.8446V52.1214H20.4054V53.8357H15.8446V56.2429H21V58H14V48Z" fill="black"/>
<path d="M43 42H60C62.2091 42 64 43.7909 64 46V60C64 62.2091 62.2091 64 60 64H43V42Z" fill="white"/>
<path d="M60 42C62.2091 42 64 43.7909 64 46V60C64 62.2091 62.2091 64 60 64H43V63.2002H60C61.712 63.2002 63.1104 61.8557 63.1963 60.165L63.2002 60V46C63.2002 43.7909 61.7673 42 60 42Z" fill="#7D7C7C"/>
<path d="M60.0002 59H57.614C57.614 52.5983 52.4145 47.3902 46.0234 47.3902V45C53.7302 45 60.0002 51.2804 60.0002 59Z" fill="#1A1A1A"/>
<path d="M55.945 59.0001H53.5476C53.5476 54.8314 50.1617 51.44 46 51.44V49.0386C51.4837 49.0386 55.945 53.5073 55.945 59.0001Z" fill="#1A1A1A"/>
<path d="M51.9132 58.9992H49.4889C49.4889 57.0722 47.9238 55.5045 46 55.5045V53.0762C49.2606 53.0762 51.9132 55.7333 51.9132 58.9992Z" fill="#1A1A1A"/>
</svg>