<svg width="64" height="64" viewBox="0 0 64 64" fill="none" xmlns="http://www.w3.org/2000/svg">
<g clip-path="url(#clip0_4372_12782)">
<path d="M59.9275 0H25.9592C24.3301 0 22.8575 0.971054 22.2157 2.46807L6.14767 39.9587C5.93065 40.4655 5.81836 41.0118 5.81836 41.5633V59.9273C5.81836 62.1766 7.64178 64 9.89109 64H27.8571C28.6617 64 29.4483 63.7615 30.118 63.3146L62.1866 41.9113C63.3189 41.1561 63.9984 39.8848 63.9984 38.5239L64.0002 4.07273C64.0002 1.82342 62.1768 0 59.9275 0Z" fill="url(#paint0_linear_4372_12782)"/>
<path d="M14.5193 5.81836H4.07273C1.82342 5.81836 0 7.64178 0 9.89109V22.9837C0 23.1763 0.0139636 23.3689 0.0407273 23.5597L5.31782 60.5035C5.60465 62.5101 7.32276 64.0002 9.34982 64.0002H25.0228C27.2727 64.0002 29.0961 62.1762 29.0956 59.9263L29.0909 41.3878C29.0909 40.9503 29.0205 40.5157 28.882 40.1008L18.3831 8.60294C17.8287 6.9401 16.2723 5.81836 14.5193 5.81836Z" fill="url(#paint1_linear_4372_12782)"/>
<path d="M15.9476 5.81836L4.07215 5.8201C1.82342 5.82069 0 7.6441 0 9.89283V21.3994C0 22.5881 0.519564 23.718 1.42196 24.4918L39.5828 57.2016C40.3212 57.8341 41.2614 58.182 42.2336 58.182H54.1091C56.3584 58.182 58.1818 56.3586 58.1818 54.1093V42.6009C58.1818 41.4123 57.6623 40.2824 56.7599 39.5085L18.599 6.7993C17.8607 6.16629 16.9204 5.81894 15.9476 5.81894V5.81836Z" fill="#FF8100"/>
<path d="M52 12H12V52H52V12Z" fill="black"/>
<path d="M26.2716 25.7535C27.086 25.3609 27.7105 24.8105 28.1467 24.1034C28.5892 23.3894 28.8108 22.5675 28.8108 21.6388C28.8108 20.7101 28.5927 19.9071 28.157 19.2069C27.7283 18.5067 27.1142 17.9643 26.314 17.5786C25.5139 17.1929 24.5893 17 23.5389 17H17.0996V31.9994H20.0245V26.3315H22.5448L25.7785 31.9994H29.1322L25.5576 25.99C25.7975 25.9137 26.0517 25.8586 26.2716 25.7535ZM20.0257 19.4319H23.3472C23.8403 19.4319 24.2684 19.5243 24.6329 19.7103C25.0043 19.8882 25.2901 20.1459 25.4898 20.4817C25.6896 20.8094 25.79 21.2031 25.79 21.66C25.79 22.1169 25.6901 22.5066 25.4898 22.8493C25.2901 23.1856 25.0043 23.4451 24.6329 23.6316C24.2684 23.8095 23.8403 23.8996 23.3472 23.8996H20.0257V19.4319Z" fill="white"/>
<path d="M41.9004 17L38.9221 26.8464L38.6971 28.1321L38.44 26.8464L35.3543 17H31.2832V32H34.1651V21.2967L34.122 20.5896L37.5721 32H39.6935L43.1861 20.5144L43.1436 21.2967V32H46.0364V17H41.9004Z" fill="white"/>
<path d="M33 44H17V47H33V44Z" fill="white"/>
</g>
<defs>
<linearGradient id="paint0_linear_4372_12782" x1="4.22243" y1="60.0186" x2="62.9273" y2="1.31316" gradientUnits="userSpaceOnUse">
<stop offset="0.29" stop-color="#FF2358"/>
<stop offset="0.75" stop-color="#7256FF"/>
</linearGradient>
<linearGradient id="paint1_linear_4372_12782" x1="-0.717382" y1="7.622" x2="24.1455" y2="61.2476" gradientUnits="userSpaceOnUse">
<stop offset="0.29" stop-color="#FF8100"/>
<stop offset="0.56" stop-color="#FF2358"/>
</linearGradient>
<clipPath id="clip0_4372_12782">
<rect width="64" height="64" fill="white"/>
</clipPath>
</defs>
<path d="M16 46C16 43.7909 17.7909 42 20 42H60C62.2091 42 64 43.7909 64 46V60C64 62.2091 62.2091 64 60 64H20C17.7909 64 16 62.2091 16 60V46Z" fill="#FFC94D"/>
<path d="M64 60C64 62.2091 62.2091 64 60 64H20C17.7909 64 16 62.2091 16 60L16.0049 60.165C16.1122 61.8557 17.86 63.2002 20 63.2002H60C62.2091 63.2002 64 61.7673 64 60Z" fill="#7D7C7C"/>
<path d="M48 47H53.2339C54.0961 47 54.8513 47.1543 55.4993 47.4629C56.1474 47.7714 56.648 48.2086 57.001 48.7743C57.3539 49.34 57.5304 49.9914 57.5304 50.7286C57.5304 51.4771 57.351 52.1371 56.9923 52.7086C56.6335 53.2743 56.1243 53.7143 55.4646 54.0286C54.8108 54.3429 54.044 54.5 53.1645 54.5H50.4303V59H48V47ZM53.069 52.5114C53.4625 52.5114 53.8068 52.44 54.1019 52.2971C54.397 52.1543 54.6227 51.9486 54.7789 51.68C54.9409 51.4114 55.022 51.0971 55.022 50.7371C55.022 50.3829 54.9409 50.0743 54.7789 49.8114C54.6227 49.5486 54.397 49.3457 54.1019 49.2029C53.8068 49.06 53.4625 48.9886 53.069 48.9886H50.4303V52.5114H53.069Z" fill="black"/>
<path d="M39.0836 47H41.7136L46.2097 59H43.7707L42.7986 56.24H38.1028L37.2001 59H34.709L39.0836 47ZM42.1649 54.3886L40.5505 49.88L40.3682 49.1171L40.1946 49.88L38.6843 54.3886H42.1649Z" fill="black"/>
<path d="M24 47H32.8187V49.1086H26.3696V51.9457H32.2284V54.0029H26.3696V56.8914H32.9923V59H24V47Z" fill="black"/>
</svg>