<svg width="16" height="16" viewBox="0 0 16 16" fill="none" xmlns="http://www.w3.org/2000/svg">
<g clip-path="url(#clip0_4372_12778)">
<g clip-path="url(#clip1_4372_12778)">
<path d="M16 0H0V16H16V0Z" fill="#FE2857"/>
<path d="M15 1H1V15H15V1Z" fill="black"/>
<path d="M8.2002 3H9.5002L10.9002 5.60377L12.2002 3H13.5002V9H12.3002V5.15094L10.9002 7.64151H10.8002L9.4002 5.15094V9H8.2002V3Z" fill="white"/>
<path d="M3 3H5.4C6.1 3 6.6 3.22642 6.9 3.56604C7.3 4.01887 7.4 4.4717 7.4 5.03774C7.4 5.49057 7.3 5.9434 7.1 6.16981C6.9 6.50943 6.6 6.73585 6.3 6.84906L7.6 9H6.2L5.1 7.18868H4.1V9H3V3ZM5.4 5.9434C5.7 5.9434 5.9 5.83019 6.1 5.71698C6.2 5.60377 6.3 5.37736 6.3 5.15094C6.3 4.81132 6.2 4.58491 6 4.4717C5.9 4.24528 5.6 4.24528 5.3 4.24528H4.2V5.9434H5.4Z" fill="white"/>
<path d="M9 12H3V13H9V12Z" fill="white"/>
</g>
<path d="M15 1H1V15H15V1Z" fill="black"/>
<path d="M6.196 5.9169C6.4798 5.7801 6.6974 5.5883 6.8494 5.3419C7.0036 5.0931 7.0808 4.8067 7.0808 4.4831C7.0808 4.1595 7.0048 3.8797 6.853 3.6357C6.7036 3.3917 6.4896 3.2027 6.2108 3.0683C5.932 2.9339 5.6098 2.8667 5.2438 2.8667H3V8.0933H4.0192V6.1183H4.8974L6.0242 8.0933H7.1928L5.9472 5.9993C6.0308 5.9727 6.1194 5.9535 6.196 5.9169ZM4.0196 3.7141H5.177C5.3488 3.7141 5.498 3.7463 5.625 3.8111C5.7544 3.8731 5.854 3.9629 5.9236 4.0799C5.9932 4.1941 6.0282 4.3313 6.0282 4.4905C6.0282 4.6497 5.9934 4.7855 5.9236 4.9049C5.854 5.0221 5.7544 5.1125 5.625 5.1775C5.498 5.2395 5.3488 5.2709 5.177 5.2709H4.0196V3.7141Z" fill="white"/>
<path d="M11.642 2.8667L10.6042 6.2977L10.5258 6.7457L10.4362 6.2977L9.36098 2.8667H7.94238V8.0935H8.94658V4.3639L8.93158 4.1175L10.1338 8.0935H10.873L12.09 4.0913L12.0752 4.3639V8.0935H13.0832V2.8667H11.642Z" fill="white"/>
<path d="M8 12H3V13H8V12Z" fill="white"/>
</g>
<defs>
<clipPath id="clip0_4372_12778">
<rect width="16" height="16" fill="white"/>
</clipPath>
<clipPath id="clip1_4372_12778">
<rect width="16" height="16" fill="white"/>
</clipPath>
</defs>
<path d="M8 9C8 8.44772 8.44772 8 9 8H14C14.5523 8 15 8.44772 15 9V15H9C8.44772 15 8 14.5523 8 14V9Z" fill="white"/>
<path d="M14.0026 13.9997H13.1502C13.1502 11.7136 11.2928 9.85359 9.00977 9.85359V9C11.7628 9 14.0026 11.2429 14.0026 13.9997Z" fill="#1A1A1A"/>
<path d="M12.5545 13.9999H11.6981C11.6981 12.5112 10.4886 11.3 9.00195 11.3V10.4424C10.9609 10.4424 12.5545 12.0383 12.5545 13.9999Z" fill="#1A1A1A"/>
<path d="M11.1143 14.0005H10.2483C10.2483 13.3124 9.68918 12.7525 9.00195 12.7525V11.8853C10.1667 11.8853 11.1143 12.8342 11.1143 14.0005Z" fill="#1A1A1A"/>
</svg>