<svg width="32" height="32" viewBox="0 0 32 32" fill="none" xmlns="http://www.w3.org/2000/svg" data-scaled="true">
<g clip-path="url(#clip0_4372_12780)">
<path d="M29.9637 0H12.9796C12.165 0 11.4287 0.485527 11.1079 1.23404L3.07383 19.9793C2.96533 20.2327 2.90918 20.5059 2.90918 20.7817V29.9636C2.90918 31.0883 3.82089 32 4.94554 32H13.9285C14.3309 32 14.7242 31.8807 15.059 31.6573L31.0933 20.9556C31.6594 20.578 31.9992 19.9424 31.9992 19.262L32.0001 2.03636C32.0001 0.911709 31.0884 0 29.9637 0Z" fill="url(#paint0_linear_4372_12780)"/>
<path d="M7.25964 2.90918H2.03636C0.911709 2.90918 0 3.82089 0 4.94554V11.4919C0 11.5882 0.00698182 11.6845 0.0203636 11.7799L2.65891 30.2517C2.80233 31.2551 3.66138 32.0001 4.67491 32.0001H12.5114C13.6364 32.0001 14.5481 31.0881 14.5478 29.9631L14.5455 20.6939C14.5455 20.4751 14.5103 20.2578 14.441 20.0504L9.19156 4.30147C8.91433 3.47005 8.13614 2.90918 7.25964 2.90918Z" fill="url(#paint1_linear_4372_12780)"/>
<path d="M7.97382 2.90918L2.03607 2.91005C0.911709 2.91034 0 3.82205 0 4.94642V10.6997C0 11.2941 0.259782 11.859 0.710982 12.2459L19.7914 28.6008C20.1606 28.917 20.6307 29.091 21.1168 29.091H27.0545C28.1792 29.091 29.0909 28.1793 29.0909 27.0546V21.3005C29.0909 20.7061 28.8311 20.1412 28.3799 19.7543L9.29949 3.39965C8.93033 3.08314 8.46022 2.90947 7.97382 2.90947V2.90918Z" fill="#FF8100"/>
<path d="M26 6H6V26H26V6Z" fill="black"/>
<path d="M13.5159 13.3574C13.9213 13.162 14.2322 12.888 14.4493 12.536C14.6696 12.1806 14.7799 11.7714 14.7799 11.3091C14.7799 10.8469 14.6713 10.4471 14.4545 10.0986C14.2411 9.75 13.9353 9.48 13.5371 9.288C13.1388 9.096 12.6785 9 12.1556 9H8.9502V16.4666H10.4062V13.6451H11.6608L13.2705 16.4666H14.9399L13.1605 13.4751C13.2799 13.4371 13.4065 13.4097 13.5159 13.3574ZM10.4068 10.2106H12.0602C12.3056 10.2106 12.5188 10.2566 12.7002 10.3491C12.8851 10.4377 13.0273 10.566 13.1268 10.7331C13.2262 10.8963 13.2762 11.0923 13.2762 11.3197C13.2762 11.5471 13.2265 11.7411 13.1268 11.9117C13.0273 12.0791 12.8851 12.2083 12.7002 12.3011C12.5188 12.3897 12.3056 12.4346 12.0602 12.4346H10.4068V10.2106Z" fill="white"/>
<path d="M21.2959 9L19.8133 13.9014L19.7013 14.5414L19.5733 13.9014L18.0373 9H16.0107V16.4669H17.4453V11.1389L17.4239 10.7869L19.1413 16.4669H20.1973L21.9359 10.7494L21.9147 11.1389V16.4669H23.3547V9H21.2959Z" fill="white"/>
<path d="M16 22H9V23H16V22Z" fill="white"/>
</g>
<defs>
<linearGradient id="paint0_linear_4372_12780" x1="2.11122" y1="30.0093" x2="31.4637" y2="0.656581" gradientUnits="userSpaceOnUse">
<stop offset="0.29" stop-color="#FF2358"/>
<stop offset="0.75" stop-color="#7256FF"/>
</linearGradient>
<linearGradient id="paint1_linear_4372_12780" x1="-0.358691" y1="3.811" x2="12.0727" y2="30.6238" gradientUnits="userSpaceOnUse">
<stop offset="0.29" stop-color="#FF8100"/>
<stop offset="0.56" stop-color="#FF2358"/>
</linearGradient>
<clipPath id="clip0_4372_12780">
<rect width="32" height="32" fill="white"/>
</clipPath>
</defs>
<path d="M17 19C17 17.8954 17.8954 17 19 17H30C31.1046 17 32 17.8954 32 19V30C32 31.1046 31.1046 32 30 32H19C17.8954 32 17 31.1046 17 30V19Z" fill="white"/>
<path d="M30 17C31.1046 17 32 17.8954 32 19V30C32 31.1046 31.1046 32 30 32H19C17.8954 32 17 31.1046 17 30V19C17 17.8954 17.8954 17 19 17H30ZM18.8057 17.1094C17.8476 17.2067 17.0996 18.0163 17.0996 19V30C17.0996 30.718 17.9507 31.2998 19 31.2998H30C30.8837 31.2998 31.5996 30.718 31.5996 30V19C31.5996 18.0164 30.9707 17.2069 30.1641 17.1094L30 17.0996H19L18.8057 17.1094Z" fill="#7D7C7C"/>
<path d="M29.0002 28.0011H27.4658C27.4658 23.8852 24.1223 20.5367 20.0127 20.5367V19C24.9684 19 29.0002 23.0379 29.0002 28.0011Z" fill="#1A1A1A"/>
<path d="M26.3941 27.9999H24.8527C24.8527 25.3201 22.6758 23.1399 20 23.1399V21.5962C23.5257 21.5962 26.3941 24.4689 26.3941 27.9999Z" fill="#1A1A1A"/>
<path d="M23.8024 28.0005H22.2435C22.2435 26.7616 21.2371 25.7536 20 25.7536V24.1924C22.0967 24.1924 23.8024 25.9007 23.8024 28.0005Z" fill="#1A1A1A"/>
</svg>