<svg width="16" height="16" viewBox="0 0 16 16" fill="none" xmlns="http://www.w3.org/2000/svg">
<g clip-path="url(#clip0_4372_12778)">
<g clip-path="url(#clip1_4372_12778)">
<path d="M16 0H0V16H16V0Z" fill="#FE2857"/>
<path d="M15 1H1V15H15V1Z" fill="black"/>
<path d="M8.2002 3H9.5002L10.9002 5.60377L12.2002 3H13.5002V9H12.3002V5.15094L10.9002 7.64151H10.8002L9.4002 5.15094V9H8.2002V3Z" fill="white"/>
<path d="M3 3H5.4C6.1 3 6.6 3.22642 6.9 3.56604C7.3 4.01887 7.4 4.4717 7.4 5.03774C7.4 5.49057 7.3 5.9434 7.1 6.16981C6.9 6.50943 6.6 6.73585 6.3 6.84906L7.6 9H6.2L5.1 7.18868H4.1V9H3V3ZM5.4 5.9434C5.7 5.9434 5.9 5.83019 6.1 5.71698C6.2 5.60377 6.3 5.37736 6.3 5.15094C6.3 4.81132 6.2 4.58491 6 4.4717C5.9 4.24528 5.6 4.24528 5.3 4.24528H4.2V5.9434H5.4Z" fill="white"/>
<path d="M9 12H3V13H9V12Z" fill="white"/>
</g>
<path d="M15 1H1V15H15V1Z" fill="black"/>
<path d="M6.196 5.9169C6.4798 5.7801 6.6974 5.5883 6.8494 5.3419C7.0036 5.0931 7.0808 4.8067 7.0808 4.4831C7.0808 4.1595 7.0048 3.8797 6.853 3.6357C6.7036 3.3917 6.4896 3.2027 6.2108 3.0683C5.932 2.9339 5.6098 2.8667 5.2438 2.8667H3V8.0933H4.0192V6.1183H4.8974L6.0242 8.0933H7.1928L5.9472 5.9993C6.0308 5.9727 6.1194 5.9535 6.196 5.9169ZM4.0196 3.7141H5.177C5.3488 3.7141 5.498 3.7463 5.625 3.8111C5.7544 3.8731 5.854 3.9629 5.9236 4.0799C5.9932 4.1941 6.0282 4.3313 6.0282 4.4905C6.0282 4.6497 5.9934 4.7855 5.9236 4.9049C5.854 5.0221 5.7544 5.1125 5.625 5.1775C5.498 5.2395 5.3488 5.2709 5.177 5.2709H4.0196V3.7141Z" fill="white"/>
<path d="M11.642 2.8667L10.6042 6.2977L10.5258 6.7457L10.4362 6.2977L9.36098 2.8667H7.94238V8.0935H8.94658V4.3639L8.93158 4.1175L10.1338 8.0935H10.873L12.09 4.0913L12.0752 4.3639V8.0935H13.0832V2.8667H11.642Z" fill="white"/>
<path d="M8 12H3V13H8V12Z" fill="white"/>
</g>
<defs>
<clipPath id="clip0_4372_12778">
<rect width="16" height="16" fill="white"/>
</clipPath>
<clipPath id="clip1_4372_12778">
<rect width="16" height="16" fill="white"/>
</clipPath>
</defs>
<path d="M1 11C1 10.4477 1.44772 10 2 10H14C14.5523 10 15 10.4477 15 11V15H1V11Z" fill="#FFC94D"/>
<path d="M8 11H9.09836C9.2793 11 9.43777 11.0386 9.57377 11.1157C9.70977 11.1929 9.81482 11.3021 9.88889 11.4436C9.96296 11.585 10 11.7479 10 11.9321C10 12.1193 9.96236 12.2843 9.88707 12.4271C9.81178 12.5686 9.70492 12.6786 9.56648 12.7571C9.42927 12.8357 9.26837 12.875 9.08379 12.875H8.51002V14H8V11ZM9.06375 12.3779C9.14633 12.3779 9.21858 12.36 9.28051 12.3243C9.34244 12.2886 9.3898 12.2371 9.42259 12.17C9.45659 12.1029 9.47359 12.0243 9.47359 11.9343C9.47359 11.8457 9.45659 11.7686 9.42259 11.7029C9.3898 11.6371 9.34244 11.5864 9.28051 11.5507C9.21858 11.515 9.14633 11.4971 9.06375 11.4971H8.51002V12.3779H9.06375Z" fill="black"/>
<path d="M6.14113 11H6.82717L8 14H7.36377L7.11019 13.31H5.88528L5.64981 14H5L6.14113 11ZM6.94491 12.8471L6.52377 11.72L6.47623 11.5293L6.43094 11.72L6.03698 12.8471H6.94491Z" fill="black"/>
<path d="M3 11H4.96139V11.5271H3.52703V12.2364H4.83012V12.7507H3.52703V13.4729H5V14H3V11Z" fill="black"/>
<path d="M10 10H14C14.5523 10 15 10.4477 15 11V15H10V10Z" fill="white"/>
<g clip-path="url(#clip0_6216_54522)">
<path d="M14 14.0005H13.4878C13.4878 12.6287 12.3718 11.5127 11 11.5127V11.0005C12.6542 11.0005 14 12.3463 14 14.0005Z" fill="#1A1A1A"/>
<path d="M13 14.0005H12.5179C12.5179 13.1635 11.837 12.4826 11 12.4826V12.0005C12.1028 12.0005 13 12.8977 13 14.0005Z" fill="#1A1A1A"/>
<path d="M12 14.0005H11.59C11.59 13.6752 11.3253 13.4105 11 13.4105V13.0005C11.5514 13.0005 12 13.4491 12 14.0005Z" fill="#1A1A1A"/>
</g>
<defs>
<clipPath id="clip0_6216_54522">
<rect width="3" height="3" fill="white" transform="translate(11 11)"/>
</clipPath>
</defs>
</svg>