<!-- Copyright © 2000–2024 JetBrains s.r.o. -->
<svg width="48" height="48" viewBox="0 0 48 48" xmlns="http://www.w3.org/2000/svg">
  <path fill="#6B57FF" d="M12.338 4.5H3.142a3.09 3.09 0 0 0-3.09 3.143l.128 8.28a3.12 3.12 0 0 0 1.08 2.302l28.62 24.533c.563.48 1.275.742 2.018.742h8.512a3.095 3.095 0 0 0 3.09-3.09v-8.257a3.07 3.07 0 0 0-1.057-2.325L14.378 5.265a3.1 3.1 0 0 0-2.04-.765"/>
  <path fill="url(#a)" d="M11.243 4.5H3.09A3.095 3.095 0 0 0 0 7.59v9.427c0 .15 0 .3.03.45l4.087 27.886A3.1 3.1 0 0 0 7.178 48h11.55a3.1 3.1 0 0 0 3.098-3.097V31.028a3.6 3.6 0 0 0-.15-.938L14.19 6.653A3.1 3.1 0 0 0 11.243 4.5"/>
  <path fill="url(#b)" d="M44.91 0H19.313c-1.245 0-2.37.743-2.85 1.89L4.613 29.955c-.165.39-.192.81-.184 1.23v13.747C4.436 46.628 5.88 48 7.575 48h13.253a3.1 3.1 0 0 0 1.695-.51l24.082-15.833A3.09 3.09 0 0 0 48 29.078V3.09A3.095 3.095 0 0 0 44.91 0"/>
  <path d="M39 9H9v30h30z"/>
  <path fill="#fff" d="m27 18.75-6-4.5v3h-6v3h6v3zm6 9-6-4.5v3H15v3h12v3z"/>
  <defs>
    <linearGradient id="a" x1="-.291" x2="18.294" y1="5.753" y2="45.847" gradientUnits="userSpaceOnUse">
      <stop offset=".18" stop-color="#6B57FF"/>
      <stop offset=".54" stop-color="#FF2358"/>
    </linearGradient>
    <linearGradient id="b" x1="3.227" x2="47.19" y1="44.959" y2="1.003" gradientUnits="userSpaceOnUse">
      <stop offset=".12" stop-color="#FF2358"/>
      <stop offset=".92" stop-color="#FF45ED"/>
    </linearGradient>
  </defs>
</svg>
