<!-- Copyright © 2000–2024 JetBrains s.r.o. -->
<svg width="24" height="24" viewBox="0 0 24 24" xmlns="http://www.w3.org/2000/svg">
  <path fill="#6B57FF" d="M6.169 2.25H1.57c-.862 0-1.56.709-1.545 1.571l.064 4.14c.008.443.206.863.54 1.152l14.31 12.266c.281.24.638.371 1.009.371h4.256c.851 0 1.545-.694 1.545-1.545v-4.129c0-.446-.191-.87-.529-1.162L7.19 2.633a1.55 1.55 0 0 0-1.02-.383"/>
  <path fill="url(#a)" d="M5.621 2.25H1.545C.694 2.25 0 2.944 0 3.795v4.714c0 .075 0 .15.015.225l2.044 13.942A1.55 1.55 0 0 0 3.589 24h5.775a1.55 1.55 0 0 0 1.548-1.549v-6.937a1.8 1.8 0 0 0-.075-.469L7.096 3.326A1.55 1.55 0 0 0 5.621 2.25"/>
  <path fill="url(#b)" d="M22.455 0H9.656c-.622 0-1.185.371-1.425.945L2.306 14.977c-.082.195-.095.406-.092.615v6.874C2.218 23.314 2.94 24 3.788 24h6.626c.3 0 .596-.09.847-.255l12.042-7.916c.435-.285.697-.773.697-1.29V1.545C24 .694 23.306 0 22.455 0"/>
  <path d="M19.5 4.5h-15v15h15z"/>
  <path fill="#fff" d="m13.5 9.375-3-2.25v1.5h-3v1.5h3v1.5zm3 4.5-3-2.25v1.5h-6v1.5h6v1.5z"/>
  <defs>
    <linearGradient id="a" x1="-.145" x2="9.147" y1="2.876" y2="22.924" gradientUnits="userSpaceOnUse">
      <stop offset=".18" stop-color="#6B57FF"/>
      <stop offset=".54" stop-color="#FF2358"/>
    </linearGradient>
    <linearGradient id="b" x1="1.613" x2="23.595" y1="22.479" y2=".502" gradientUnits="userSpaceOnUse">
      <stop offset=".12" stop-color="#FF2358"/>
      <stop offset=".92" stop-color="#FF45ED"/>
    </linearGradient>
  </defs>
</svg>
