<svg width="32" height="32" viewBox="0 0 32 32" fill="none" xmlns="http://www.w3.org/2000/svg" data-scaled="true">
<path d="M16 31L28.9874 23.49V8.482L16 1L3.01295 8.482H3.01245L16 15.992V31Z" fill="url(#paint0_linear_1725:900)"/>
<path d="M28.9874 8.482L16 1L3.01295 8.482H3.01245L16 15.992L28.9874 8.482Z" fill="url(#paint1_linear_1725:900)"/>
<path d="M28.9874 8.482L16 1L3.01295 8.482H3.01245L16 15.992L28.9874 8.482Z" fill="url(#paint2_linear_1725:900)"/>
<path d="M28.9874 8.482L16 1L3.01295 8.482H3.01245L16 15.992L28.9874 8.482Z" fill="url(#paint3_linear_1725:900)"/>
<path d="M3.01294 23.4904V8.48242L15.9999 15.9924L3.01294 23.4904Z" fill="url(#paint4_linear_1725:900)"/>
<path d="M15.9999 15.9922L3.01294 23.4902L15.9999 31.0002V15.9922Z" fill="url(#paint5_linear_1725:900)" style="mix-blend-mode:overlay"/>
<path d="M16 31.0004L28.9875 23.4904V8.48242L16 15.9924V31.0004Z" fill="url(#paint6_linear_1725:900)"/>
<path d="M16 31.0004L28.9875 23.4904V8.48242L16 15.9924V31.0004Z" fill="url(#paint7_linear_1725:900)"/>
<path d="M16 31.0004L28.9875 23.4904V8.48242L16 15.9924V31.0004Z" fill="url(#paint8_linear_1725:900)"/>
<g opacity="0.8">
<path d="M12.514 13.9849L16 16V1L3 8.48599L12.514 13.9849Z" fill="url(#paint9_linear_1725:900)" style="mix-blend-mode:overlay"/>
</g>
<defs>
<linearGradient id="paint0_linear_1725:900" x1="8.53407" y1="5.78145" x2="30.698" y2="27.9454" gradientUnits="userSpaceOnUse">
<stop  offset="0" stop-color="#FDB60D"/>
<stop offset="0.54795" stop-color="#FF318C"/>
<stop offset="0.88765" stop-color="#6B57FF"/>
</linearGradient>
<linearGradient id="paint1_linear_1725:900" x1="12.7948" y1="14.0334" x2="14.2252" y2="11.556" gradientUnits="userSpaceOnUse">
<stop  offset="0" stop-color="white" stop-opacity="0.6"/>
<stop offset="0.08098" stop-color="#FFC524" stop-opacity="0.4"/>
<stop offset="0.70457" stop-color="#FFC524" stop-opacity="0"/>
</linearGradient>
<linearGradient id="paint2_linear_1725:900" x1="12.7166" y1="2.79512" x2="14.8481" y2="6.48689" gradientUnits="userSpaceOnUse">
<stop  offset="0" stop-color="#F9ED32" stop-opacity="0.6"/>
<stop offset="0.19796" stop-color="#FFC524" stop-opacity="0.4"/>
<stop offset="0.70457" stop-color="#FFC524" stop-opacity="0"/>
</linearGradient>
<linearGradient id="paint3_linear_1725:900" x1="19.4564" y1="2.49528" x2="18.5067" y2="4.14014" gradientUnits="userSpaceOnUse">
<stop  offset="0" stop-color="#FDB60D" stop-opacity="0.6"/>
<stop offset="0.23369" stop-color="#FDB60D" stop-opacity="0.4"/>
<stop offset="0.5185" stop-color="#FF318C" stop-opacity="0"/>
</linearGradient>
<linearGradient id="paint4_linear_1725:900" x1="3.0127" y1="15.9865" x2="24.1386" y2="15.9865" gradientUnits="userSpaceOnUse">
<stop offset="0.01477"/>
<stop offset="0.19258"/>
<stop offset="0.57156" stop-color="#6B57FF"/>
<stop offset="0.82576" stop-color="#FF318C"/>
</linearGradient>
<linearGradient id="paint5_linear_1725:900" x1="12.6184" y1="9.59602" x2="9.38683" y2="27.9231" gradientUnits="userSpaceOnUse">
<stop offset="0.046628" stop-color="white" stop-opacity="0.86"/>
<stop offset="0.766654" stop-color="#CBCAA4" stop-opacity="0"/>
</linearGradient>
<linearGradient id="paint6_linear_1725:900" x1="16.0001" y1="19.7414" x2="19.4985" y2="19.7414" gradientUnits="userSpaceOnUse">
<stop  offset="0" stop-color="#FFB2FF" stop-opacity="0.6"/>
<stop offset="0.08098" stop-color="#D828FF" stop-opacity="0.4"/>
<stop offset="0.70457" stop-color="#FF318C" stop-opacity="0"/>
</linearGradient>
<linearGradient id="paint7_linear_1725:900" x1="29.0407" y1="19.7414" x2="25.4676" y2="19.7414" gradientUnits="userSpaceOnUse">
<stop  offset="0" stop-color="#6644FF" stop-opacity="0.8"/>
<stop offset="0.09676" stop-color="#6B57FF" stop-opacity="0.4"/>
<stop offset="0.70457" stop-color="#FF318C" stop-opacity="0"/>
</linearGradient>
<linearGradient id="paint8_linear_1725:900" x1="25.9328" y1="25.6981" x2="24.9046" y2="23.9173" gradientUnits="userSpaceOnUse">
<stop offset="0.00572" stop-color="#FF318C"/>
<stop offset="0.46934" stop-color="#6B57FF" stop-opacity="0"/>
</linearGradient>
<linearGradient id="paint9_linear_1725:900" x1="9.49995" y1="1.46867" x2="9.49995" y2="10.2807" gradientUnits="userSpaceOnUse">
<stop offset="0.23873" stop-color="#FF5592" stop-opacity="0.65"/>
<stop offset="0.8289" stop-color="#FF57E4" stop-opacity="0"/>
</linearGradient>
</defs>
<path d="M28.0943 32H11.9057C10.8698 32 9.8764 31.5885 9.14395 30.8561C8.4115 30.1236 8 29.1302 8 28.0944V23.9056C8 23.3927 8.10102 22.8849 8.2973 22.411C8.49358 21.9372 8.78128 21.5066 9.14395 21.1439C9.50663 20.7812 9.93717 20.4936 10.411 20.2973C10.8849 20.101 11.3928 20 11.9057 20H28.0943C29.1302 20 30.1236 20.4115 30.8561 21.1439C31.5885 21.8764 32 22.8698 32 23.9056V28.0944C32 29.1302 31.5885 30.1236 30.8561 30.8561C30.1236 31.5885 29.1302 32 28.0943 32Z" fill="#8F38E6"/>
<path d="M16.051 27.1383V27.1225C16.051 26.7539 15.9593 26.4668 15.7759 26.2614C15.5925 26.0507 15.3411 25.8848 15.0215 25.7637C15.121 25.711 15.2127 25.6478 15.2965 25.5741C15.3856 25.5004 15.4616 25.4161 15.5244 25.3213C15.5925 25.2212 15.6449 25.1106 15.6816 24.9895C15.7235 24.8683 15.7445 24.7288 15.7445 24.5708V24.555C15.7445 24.1178 15.5821 23.7702 15.2572 23.5121C14.9376 23.254 14.4949 23.125 13.9291 23.125H11.375V28.6552H13.992C14.3011 28.6552 14.5814 28.6236 14.8329 28.5604C15.0896 28.4972 15.307 28.4024 15.4851 28.276C15.6685 28.1496 15.8073 27.9916 15.9017 27.802C16.0012 27.6124 16.051 27.3912 16.051 27.1383ZM14.5421 24.7762C14.5421 24.9816 14.4635 25.1317 14.3063 25.2265C14.1491 25.316 13.937 25.3608 13.6698 25.3608H12.5538V24.1915H13.7483C14.0051 24.1915 14.2015 24.2416 14.3378 24.3416C14.474 24.4364 14.5421 24.576 14.5421 24.7604V24.7762ZM14.8486 26.9882C14.8486 27.1936 14.7726 27.3464 14.6207 27.4465C14.4687 27.5413 14.2592 27.5887 13.992 27.5887H12.5538V26.372H13.9527C14.267 26.372 14.4949 26.4273 14.6364 26.5379C14.7778 26.6433 14.8486 26.7881 14.8486 26.9724V26.9882Z" fill="white" fill-opacity="0.86"/>
<path d="M20.8502 26.6564V26.6406C20.8502 26.3404 20.8082 26.0534 20.7244 25.7795C20.6458 25.5004 20.5201 25.2554 20.3472 25.0448C20.1795 24.8288 19.9674 24.6577 19.7106 24.5313C19.4539 24.4048 19.15 24.3416 18.799 24.3416C18.4899 24.3416 18.207 24.3996 17.9503 24.5154C17.6988 24.6313 17.4814 24.7893 17.298 24.9895C17.1146 25.1896 16.9705 25.424 16.8658 25.6926C16.7662 25.9612 16.7164 26.2456 16.7164 26.5458V26.5616C16.7164 26.8882 16.7715 27.1857 16.8815 27.4544C16.9915 27.7177 17.1434 27.9468 17.3373 28.1417C17.5364 28.3366 17.7695 28.4867 18.0367 28.592C18.3092 28.6973 18.6026 28.75 18.9169 28.75C19.2994 28.75 19.6321 28.6815 19.915 28.5446C20.1979 28.4024 20.4389 28.2075 20.638 27.96L19.9543 27.3517C19.7866 27.5044 19.6242 27.615 19.467 27.6835C19.3098 27.7519 19.1317 27.7862 18.9326 27.7862C18.6654 27.7862 18.4401 27.7177 18.2568 27.5808C18.0786 27.4386 17.9608 27.2305 17.9031 26.9566H20.8344C20.8397 26.8987 20.8423 26.8487 20.8423 26.8065C20.8475 26.7644 20.8502 26.7144 20.8502 26.6564ZM19.6871 26.2061H17.8874C17.9346 25.9322 18.0341 25.7137 18.186 25.5504C18.3432 25.3871 18.5475 25.3055 18.799 25.3055C19.0505 25.3055 19.2522 25.3897 19.4041 25.5583C19.5561 25.7216 19.6504 25.9375 19.6871 26.2061Z" fill="white" fill-opacity="0.86"/>
<path d="M24.1059 28.4814V27.5176C23.9225 27.6176 23.7261 27.6677 23.5165 27.6677C23.2598 27.6677 23.1314 27.5307 23.1314 27.2568V25.4477H24.1216V24.4206H23.1314V23.3383H21.9369V24.4206H21.4339V25.4477H21.9369V27.4544C21.9369 27.7019 21.9657 27.9073 22.0233 28.0706C22.0862 28.2286 22.17 28.3576 22.2748 28.4577C22.3848 28.5578 22.5132 28.6262 22.6599 28.6631C22.8118 28.7052 22.9795 28.7263 23.1628 28.7263C23.3619 28.7263 23.5374 28.7026 23.6894 28.6552C23.8413 28.6131 23.9802 28.5551 24.1059 28.4814Z" fill="white" fill-opacity="0.86"/>
<path d="M28.625 28.6552V26.1982C28.625 25.6241 28.4757 25.1764 28.1771 24.8552C27.8784 24.5339 27.4017 24.3732 26.7468 24.3732C26.3905 24.3732 26.0866 24.4048 25.8351 24.468C25.5837 24.5313 25.3427 24.6129 25.1121 24.713L25.4108 25.6294C25.6046 25.5557 25.788 25.5004 25.9609 25.4635C26.139 25.4213 26.3433 25.4003 26.5739 25.4003C26.8725 25.4003 27.0978 25.4661 27.2497 25.5978C27.4017 25.7295 27.4776 25.9217 27.4776 26.1745V26.2456C27.3257 26.1929 27.1685 26.1508 27.0061 26.1192C26.8489 26.0876 26.6629 26.0718 26.4481 26.0718C26.1966 26.0718 25.9661 26.1008 25.7565 26.1587C25.5522 26.2114 25.3741 26.293 25.2222 26.4036C25.0755 26.5142 24.9602 26.6538 24.8764 26.8223C24.7925 26.9909 24.7506 27.191 24.7506 27.4228V27.4386C24.7506 27.6492 24.7873 27.8362 24.8606 27.9995C24.9392 28.1575 25.044 28.2918 25.175 28.4024C25.306 28.513 25.4579 28.5973 25.6308 28.6552C25.8089 28.7079 25.9976 28.7342 26.1966 28.7342C26.49 28.7342 26.7389 28.6868 26.9432 28.592C27.1476 28.4919 27.3231 28.3603 27.4698 28.197V28.6552H28.625ZM27.4933 27.162C27.4933 27.3833 27.4069 27.5623 27.234 27.6993C27.0663 27.8362 26.8411 27.9047 26.5581 27.9047C26.3643 27.9047 26.2071 27.8599 26.0866 27.7704C25.9661 27.6808 25.9059 27.5544 25.9059 27.3912V27.3754C25.9059 27.1857 25.9792 27.0409 26.1259 26.9408C26.2726 26.8408 26.4743 26.7907 26.731 26.7907C26.8777 26.7907 27.014 26.8065 27.1397 26.8381C27.2707 26.8645 27.3886 26.9013 27.4933 26.9487V27.162Z" fill="white" fill-opacity="0.86"/>
</svg>