<!-- Copyright © 2000–2024 JetBrains s.r.o. -->
<svg width="32" height="32" viewBox="0 0 32 32" xmlns="http://www.w3.org/2000/svg">
  <g filter="url(#a)">
    <mask id="b" width="28" height="28" x="2" y="2" maskUnits="userSpaceOnUse" style="mask-type:luminance">
      <path fill="#fff" d="M8.969 2C4.494 2 2 4.494 2 8.969V23.03C2 27.507 4.494 30 8.969 30H23.03c4.477 0 6.97-2.494 6.97-6.969V8.97C30 4.493 27.506 2 23.031 2z"/>
    </mask>
    <g mask="url(#b)">
      <path fill="#6B57FF" d="M30.001 18.626H13.047V30h16.954z"/>
      <path fill="url(#d)" d="M14.141 2H2v28.001h12.141z"/>
      <path fill="url(#e)" d="M2 25.847V30h12.686L30 19.933V2H12.07z"/>
    </g>
    <path d="M24.75 7.25H7.25v17.5h17.5z"/>
    <path fill="#fff" d="m17.75 12.938-3.5-2.625v1.75h-3.5v1.75h3.5v1.75zm3.5 5.25-3.5-2.625v1.75h-7v1.75h7v1.75z"/>
  </g>
  <defs>
    <linearGradient id="d" x1="1.655" x2="13.819" y1="2.16" y2="28.402" gradientUnits="userSpaceOnUse">
      <stop offset=".18" stop-color="#6B57FF"/>
      <stop offset=".54" stop-color="#FF2358"/>
    </linearGradient>
    <linearGradient id="e" x1="1.999" x2="30.002" y1="30" y2="2" gradientUnits="userSpaceOnUse">
      <stop offset=".12" stop-color="#FF2358"/>
      <stop offset=".92" stop-color="#FF45ED"/>
    </linearGradient>
    <filter id="a" width="31.2" height="31.2" x=".4" y="1.1" color-interpolation-filters="sRGB" filterUnits="userSpaceOnUse">
      <feFlood flood-opacity="0" result="BackgroundImageFix"/>
      <feColorMatrix in="SourceAlpha" result="hardAlpha" values="0 0 0 0 0 0 0 0 0 0 0 0 0 0 0 0 0 0 127 0"/>
      <feOffset dy=".7"/>
      <feGaussianBlur stdDeviation=".8"/>
      <feComposite in2="hardAlpha" operator="out"/>
      <feColorMatrix values="0 0 0 0 0 0 0 0 0 0 0 0 0 0 0 0 0 0 0.35 0"/>
      <feBlend in2="BackgroundImageFix" result="effect1_dropShadow_33_3967"/>
      <feBlend in="SourceGraphic" in2="effect1_dropShadow_33_3967" result="shape"/>
    </filter>
  </defs>
</svg>
