<!-- Copyright © 2000–2024 JetBrains s.r.o. -->
<svg width="256" height="256" viewBox="0 0 256 256" xmlns="http://www.w3.org/2000/svg">
  <g filter="url(#a)">
    <mask id="b" width="206" height="206" x="25" y="25" maskUnits="userSpaceOnUse" style="mask-type:luminance">
      <path fill="#fff" d="M76.269 25C43.348 25 25 43.348 25 76.269V179.73C25 212.66 43.348 231 76.269 231H179.73c32.93 0 51.27-18.348 51.27-51.269V76.269C231 43.339 212.652 25 179.731 25z"/>
    </mask>
    <g mask="url(#b)">
      <path fill="#6B57FF" d="M231.008 147.317H106.276v83.691h124.732z"/>
      <path fill="url(#c)" d="M114.324 25H25v206.008h89.324z"/>
      <path fill="url(#d)" d="M25 200.445v30.563h93.331l112.677-74.074V25H99.082z"/>
    </g>
    <path d="M192.381 63.627H63.627v128.755H192.38z"/>
    <path fill="#fff" d="M140.881 105.472 115.13 86.159v12.875H89.379v12.876h25.751v12.875zm25.751 38.626-25.751-19.313v12.876H89.379v12.875h51.502v12.876z"/>
  </g>
  <defs>
    <linearGradient id="c" x1="22.465" x2="111.958" y1="26.175" y2="219.243" gradientUnits="userSpaceOnUse">
      <stop offset=".18" stop-color="#6B57FF"/>
      <stop offset=".54" stop-color="#FF2358"/>
    </linearGradient>
    <linearGradient id="d" x1="24.992" x2="231.016" y1="231" y2="25" gradientUnits="userSpaceOnUse">
      <stop offset=".12" stop-color="#FF2358"/>
      <stop offset=".92" stop-color="#FF45ED"/>
    </linearGradient>
    <filter id="a" width="219" height="219" x="18.5" y="21" color-interpolation-filters="sRGB" filterUnits="userSpaceOnUse">
      <feFlood flood-opacity="0" result="BackgroundImageFix"/>
      <feColorMatrix in="SourceAlpha" result="hardAlpha" values="0 0 0 0 0 0 0 0 0 0 0 0 0 0 0 0 0 0 127 0"/>
      <feOffset dy="2.5"/>
      <feGaussianBlur stdDeviation="3.25"/>
      <feComposite in2="hardAlpha" operator="out"/>
      <feColorMatrix values="0 0 0 0 0 0 0 0 0 0 0 0 0 0 0 0 0 0 0.35 0"/>
      <feBlend in2="BackgroundImageFix" result="effect1_dropShadow_33_3965"/>
      <feBlend in="SourceGraphic" in2="effect1_dropShadow_33_3965" result="shape"/>
    </filter>
  </defs>
</svg>
