<!-- Copyright © 2000–2024 JetBrains s.r.o. -->
<svg width="256" height="256" viewBox="0 0 256 256" xmlns="http://www.w3.org/2000/svg">
  <g filter="url(#a)">
    <mask id="b" width="206" height="206" x="25" y="25" maskUnits="userSpaceOnUse" style="mask-type:luminance">
      <path fill="#fff" d="M76.269 25C43.348 25 25 43.348 25 76.269V179.73C25 212.66 43.348 231 76.269 231H179.73c32.93 0 51.27-18.348 51.27-51.269V76.269C231 43.339 212.652 25 179.731 25z"/>
    </mask>
    <g mask="url(#b)">
      <path fill="#6B57FF" d="M231.008 147.317H106.276v83.691h124.732z"/>
      <path fill="url(#c)" d="M114.324 25H25v206.008h89.324z"/>
      <path fill="url(#d)" d="M25 200.445v30.563h93.331l112.677-74.074V25H99.082z"/>
    </g>
    <path d="M192.381 63.627H63.627V192.38H192.38z"/>
    <path fill="#fff" d="M137.662 82.94h-19.313c-3.541 0-6.438-2.897-6.438-6.438s2.897-6.438 6.438-6.438h19.313c3.541 0 6.438 2.897 6.438 6.438s-2.897 6.438-6.438 6.438m27.2 25.622c-.225 1.448-.741 2.897-1.642 4.152l-3.83 5.376a35 35 0 0 1 4.023 16.352c0 19.538-15.869 35.407-35.407 35.407-19.539 0-35.408-15.869-35.408-35.407 0-19.539 15.869-35.408 35.408-35.408 5.89 0 11.459 1.481 16.352 4.024l5.375-3.83a9.9 9.9 0 0 1 4.152-1.675c-7.339-5.15-16.223-8.208-25.847-8.208-24.882 0-45.064 20.183-45.064 45.064 0 24.882 20.182 45.065 45.064 45.065s45.064-20.183 45.064-45.065c0-9.656-3.058-18.572-8.208-25.879z"/>
    <path fill="#fff" d="m153.467 104.474-31.03 22.081c-.419.29-.837.676-1.223 1.063-3.766 3.766-3.766 9.882 0 13.648s9.882 3.766 13.648 0c.386-.387.74-.805 1.062-1.224l22.081-31.029c.902-1.256.773-2.994-.354-4.153-1.126-1.159-2.897-1.255-4.152-.354z"/>
  </g>
  <defs>
    <linearGradient id="c" x1="22.465" x2="111.958" y1="26.175" y2="219.243" gradientUnits="userSpaceOnUse">
      <stop offset=".18" stop-color="#6B57FF"/>
      <stop offset=".54" stop-color="#FF2358"/>
    </linearGradient>
    <linearGradient id="d" x1="24.992" x2="231.016" y1="231" y2="25" gradientUnits="userSpaceOnUse">
      <stop offset=".12" stop-color="#FF2358"/>
      <stop offset=".92" stop-color="#FF45ED"/>
    </linearGradient>
    <filter id="a" width="219" height="219" x="18.5" y="21" color-interpolation-filters="sRGB" filterUnits="userSpaceOnUse">
      <feFlood flood-opacity="0" result="BackgroundImageFix"/>
      <feColorMatrix in="SourceAlpha" result="hardAlpha" values="0 0 0 0 0 0 0 0 0 0 0 0 0 0 0 0 0 0 127 0"/>
      <feOffset dy="2.5"/>
      <feGaussianBlur stdDeviation="3.25"/>
      <feComposite in2="hardAlpha" operator="out"/>
      <feColorMatrix values="0 0 0 0 0 0 0 0 0 0 0 0 0 0 0 0 0 0 0.35 0"/>
      <feBlend in2="BackgroundImageFix" result="effect1_dropShadow_33_4668"/>
      <feBlend in="SourceGraphic" in2="effect1_dropShadow_33_4668" result="shape"/>
    </filter>
  </defs>
</svg>
