<!-- Copyright © 2000–2024 JetBrains s.r.o. -->
<svg width="32" height="32" viewBox="0 0 32 32" xmlns="http://www.w3.org/2000/svg">
  <g filter="url(#a)">
    <mask id="b" width="28" height="28" x="2" y="2" maskUnits="userSpaceOnUse" style="mask-type:luminance">
      <path fill="#fff" d="M8.969 2C4.494 2 2 4.494 2 8.969V23.03C2 27.507 4.494 30 8.969 30H23.03c4.477 0 6.97-2.494 6.97-6.969V8.97C30 4.493 27.506 2 23.031 2z"/>
    </mask>
    <g mask="url(#b)">
      <path fill="#6B57FF" d="M30.001 18.626H13.047V30h16.954z"/>
      <path fill="url(#d)" d="M14.141 2H2v28.001h12.141z"/>
      <path fill="url(#e)" d="M2 25.847V30h12.686L30 19.933V2H12.07z"/>
    </g>
    <path d="M24.75 7.25H7.25v17.5h17.5z"/>
    <path fill="#fff" d="M17.313 9.875h-2.625A.88.88 0 0 1 13.813 9c0-.481.394-.875.875-.875h2.625c.482 0 .875.394.875.875a.88.88 0 0 1-.875.875m3.697 3.483c-.03.197-.1.394-.223.564l-.52.731a4.76 4.76 0 0 1 .546 2.223 4.816 4.816 0 0 1-4.812 4.812 4.816 4.816 0 0 1-4.813-4.812 4.816 4.816 0 0 1 4.813-4.813c.8 0 1.557.201 2.222.547l.731-.52c.17-.119.363-.198.564-.228a6.1 6.1 0 0 0-3.513-1.116 6.126 6.126 0 0 0 0 12.25 6.126 6.126 0 0 0 6.125-6.125 6.1 6.1 0 0 0-1.115-3.517z"/>
    <path fill="#fff" d="m19.461 12.802-4.217 3.002c-.057.04-.114.092-.166.144a1.312 1.312 0 1 0 1.999 1.689l3.001-4.218a.44.44 0 0 0-.612-.612z"/>
  </g>
  <defs>
    <linearGradient id="d" x1="1.655" x2="13.819" y1="2.16" y2="28.402" gradientUnits="userSpaceOnUse">
      <stop offset=".18" stop-color="#6B57FF"/>
      <stop offset=".54" stop-color="#FF2358"/>
    </linearGradient>
    <linearGradient id="e" x1="1.999" x2="30.002" y1="30" y2="2" gradientUnits="userSpaceOnUse">
      <stop offset=".12" stop-color="#FF2358"/>
      <stop offset=".92" stop-color="#FF45ED"/>
    </linearGradient>
    <filter id="a" width="31.2" height="31.2" x=".4" y="1.1" color-interpolation-filters="sRGB" filterUnits="userSpaceOnUse">
      <feFlood flood-opacity="0" result="BackgroundImageFix"/>
      <feColorMatrix in="SourceAlpha" result="hardAlpha" values="0 0 0 0 0 0 0 0 0 0 0 0 0 0 0 0 0 0 127 0"/>
      <feOffset dy=".7"/>
      <feGaussianBlur stdDeviation=".8"/>
      <feComposite in2="hardAlpha" operator="out"/>
      <feColorMatrix values="0 0 0 0 0 0 0 0 0 0 0 0 0 0 0 0 0 0 0.35 0"/>
      <feBlend in2="BackgroundImageFix" result="effect1_dropShadow_33_4670"/>
      <feBlend in="SourceGraphic" in2="effect1_dropShadow_33_4670" result="shape"/>
    </filter>
  </defs>
</svg>
