<!-- Copyright © 2000–2024 JetBrains s.r.o. -->
<svg width="128" height="128" viewBox="0 0 128 128" xmlns="http://www.w3.org/2000/svg">
  <g filter="url(#a)">
    <mask id="b" width="104" height="104" x="12" y="12" maskUnits="userSpaceOnUse" style="mask-type:luminance">
      <path fill="#fff" d="M37.883 12C21.263 12 12 21.263 12 37.883v52.234C12 106.74 21.263 116 37.883 116h52.234C106.74 116 116 106.737 116 90.117V37.883C116 21.26 106.737 12 90.117 12z"/>
    </mask>
    <g mask="url(#b)">
      <path fill="#6B57FF" d="M116.004 73.752H53.033v42.252h62.971z"/>
      <path fill="url(#c)" d="M57.096 12H12v104.004h45.096z"/>
      <path fill="url(#d)" d="M12 100.574v15.43h47.119l56.885-37.397V12H49.401z"/>
    </g>
    <path d="M96.504 31.5H31.5v65.003h65.003z"/>
    <path fill="#fff" d="M68.878 41.251h-9.75a3.26 3.26 0 0 1-3.25-3.25 3.26 3.26 0 0 1 3.25-3.25h9.75a3.26 3.26 0 0 1 3.25 3.25 3.26 3.26 0 0 1-3.25 3.25M82.61 54.187c-.114.73-.374 1.462-.829 2.096l-1.933 2.714a17.7 17.7 0 0 1 2.03 8.255c0 9.864-8.01 17.876-17.875 17.876s-17.876-8.012-17.876-17.876 8.012-17.876 17.876-17.876c2.974 0 5.785.748 8.255 2.032l2.714-1.934a5 5 0 0 1 2.097-.845c-3.705-2.6-8.19-4.144-13.05-4.144-12.561 0-22.75 10.189-22.75 22.75 0 12.563 10.189 22.752 22.75 22.752S86.77 79.797 86.77 67.236a22.6 22.6 0 0 0-4.144-13.066z"/>
    <path fill="#fff" d="M76.857 52.123 61.191 63.27a4.7 4.7 0 0 0-.617.536 4.875 4.875 0 0 0 0 6.89 4.875 4.875 0 0 0 6.89 0c.195-.195.374-.406.537-.617l11.147-15.666c.455-.634.39-1.511-.178-2.096a1.61 1.61 0 0 0-2.097-.179z"/>
  </g>
  <defs>
    <linearGradient id="c" x1="10.72" x2="55.901" y1="12.593" y2="110.064" gradientUnits="userSpaceOnUse">
      <stop offset=".18" stop-color="#6B57FF"/>
      <stop offset=".54" stop-color="#FF2358"/>
    </linearGradient>
    <linearGradient id="d" x1="11.996" x2="116.008" y1="116" y2="12" gradientUnits="userSpaceOnUse">
      <stop offset=".12" stop-color="#FF2358"/>
      <stop offset=".92" stop-color="#FF45ED"/>
    </linearGradient>
    <filter id="a" width="110.5" height="110.5" x="8.75" y="10" color-interpolation-filters="sRGB" filterUnits="userSpaceOnUse">
      <feFlood flood-opacity="0" result="BackgroundImageFix"/>
      <feColorMatrix in="SourceAlpha" result="hardAlpha" values="0 0 0 0 0 0 0 0 0 0 0 0 0 0 0 0 0 0 127 0"/>
      <feOffset dy="1.25"/>
      <feGaussianBlur stdDeviation="1.625"/>
      <feComposite in2="hardAlpha" operator="out"/>
      <feColorMatrix values="0 0 0 0 0 0 0 0 0 0 0 0 0 0 0 0 0 0 0.35 0"/>
      <feBlend in2="BackgroundImageFix" result="effect1_dropShadow_33_4669"/>
      <feBlend in="SourceGraphic" in2="effect1_dropShadow_33_4669" result="shape"/>
    </filter>
  </defs>
</svg>
