<svg width="64" height="64" viewBox="0 0 64 64" fill="none" xmlns="http://www.w3.org/2000/svg">
<g clip-path="url(#clip0_4372_11949)">
<path d="M4.07273 64H38.041C39.6701 64 41.1427 63.0289 41.7844 61.5319L57.8525 24.0413C58.0695 23.5345 58.1818 22.9882 58.1818 22.4367V4.07273C58.1818 1.82342 56.3584 0 54.1091 0H36.1431C35.3385 0 34.5519 0.238545 33.8822 0.685382L1.81353 22.0881C0.681309 22.8439 0.00174545 24.1146 0.00174545 25.4755L0 59.9273C0 62.1766 1.82342 64 4.07273 64Z" fill="url(#paint0_linear_4372_11949)"/>
<path d="M49.4807 58.1818H59.9273C62.1766 58.1818 64 56.3584 64 54.1091V41.0164C64 40.8239 63.9861 40.6313 63.9593 40.4404L58.6816 3.49673C58.3948 1.49004 56.6767 0 54.6496 0H38.9766C36.7267 0 34.9033 1.824 34.9039 4.07389L34.9085 22.6124C34.9085 23.0499 34.9789 23.4845 35.1174 23.8993L45.6169 55.3972C46.1714 57.0601 47.7277 58.1818 49.4807 58.1818Z" fill="url(#paint1_linear_4372_11949)"/>
<path d="M48.0524 58.182L59.9279 58.1802C62.1772 58.1802 64 56.3568 64 54.1075V42.6009C64 41.4123 63.4804 40.2824 62.578 39.5085L24.4166 6.79872C23.6783 6.16629 22.738 5.81836 21.7658 5.81836H9.89032C7.64102 5.81836 5.8176 7.64178 5.8176 9.89109V21.3994C5.8176 22.5881 6.33716 23.718 7.23956 24.4918L45.4004 57.201C46.1388 57.8341 47.079 58.1814 48.0518 58.1814L48.0524 58.182Z" fill="#FF43F2"/>
<path d="M52 12H12V52H52V12Z" fill="black"/>
<path d="M33 44H17V47H33V44Z" fill="white"/>
<path d="M17 17.3641H22.7569C24.1896 17.3641 25.4713 17.6882 26.6019 18.3362C27.7395 18.9843 28.6289 19.8847 29.27 21.0367C29.9106 22.1819 30.2312 23.478 30.2312 24.9252C30.2312 26.3724 29.9106 27.6726 29.27 28.8246C28.6289 29.9698 27.7395 30.8661 26.6019 31.5142C25.4713 32.1622 24.1896 32.4863 22.7569 32.4863H17V17.3647V17.3641ZM22.7245 29.9368C23.6248 29.9368 24.4129 29.7354 25.09 29.3321C25.767 28.9282 26.2889 28.3531 26.6563 27.6037C27.0238 26.8474 27.2072 25.9552 27.2072 24.9252C27.2072 23.8952 27.0238 23.0064 26.6563 22.2571C26.2889 21.5008 25.767 20.9216 25.09 20.5183C24.4129 20.1144 23.6243 19.9136 22.7245 19.9136H19.9487V29.9374H22.7245V29.9368ZM39.2649 32.7455C37.8177 32.7455 36.5071 32.4064 35.333 31.73C34.1595 31.0455 33.2378 30.1098 32.5677 28.9219C31.8982 27.727 31.5632 26.3944 31.5632 24.9252C31.5632 23.456 31.8982 22.1275 32.5677 20.9395C33.2372 19.7446 34.159 18.8078 35.333 18.1314C36.5071 17.4469 37.8171 17.1055 39.2649 17.1055C40.4389 17.1055 41.5187 17.3149 42.5053 17.7321C43.4988 18.1493 44.3343 18.7367 45.0113 19.4929C45.6953 20.2492 46.1744 21.1201 46.4481 22.1066H43.2939C43.0636 21.6316 42.7506 21.2208 42.3542 20.8753C41.9654 20.5229 41.5083 20.2527 40.9823 20.0652C40.4569 19.8708 39.8915 19.7736 39.2863 19.7736C38.3934 19.7736 37.5868 19.9964 36.867 20.4431C36.1472 20.8898 35.5818 21.5054 35.171 22.2901C34.7677 23.0678 34.5663 23.9467 34.5663 24.9258C34.5663 25.9048 34.7683 26.7878 35.171 27.5719C35.5813 28.3496 36.1466 28.9612 36.867 29.4079C37.5874 29.8546 38.3934 30.0774 39.2863 30.0774C40.1143 30.0774 40.8631 29.9223 41.5331 29.6128C42.2102 29.3038 42.7465 28.8744 43.1423 28.3276C43.5387 27.7808 43.7511 27.1651 43.7794 26.4806L43.7904 26.7936H40.237V24.4715H46.6419V25.6595C46.6419 26.9921 46.3179 28.198 45.6698 29.2777C45.0293 30.3511 44.1469 31.1965 43.0237 31.8162C41.9075 32.4359 40.6548 32.7449 39.2649 32.7449V32.7455Z" fill="white"/>
</g>
<defs>
<linearGradient id="paint0_linear_4372_11949" x1="59.7777" y1="3.98196" x2="1.07287" y2="62.6868" gradientUnits="userSpaceOnUse">
<stop offset="0.28" stop-color="#7256FF"/>
<stop offset="0.66" stop-color="#00D980"/>
</linearGradient>
<linearGradient id="paint1_linear_4372_11949" x1="64.7174" y1="56.3788" x2="39.477" y2="1.93862" gradientUnits="userSpaceOnUse">
<stop offset="0.3" stop-color="#FF43F2"/>
<stop offset="0.54" stop-color="#7256FF"/>
</linearGradient>
<clipPath id="clip0_4372_11949">
<rect width="64" height="64" fill="white"/>
</clipPath>
</defs>
<path d="M16 46C16 43.7909 17.7909 42 20 42H60C62.2091 42 64 43.7909 64 46V60C64 62.2091 62.2091 64 60 64H20C17.7909 64 16 62.2091 16 60V46Z" fill="#FFC94D"/>
<path d="M64 60C64 62.2091 62.2091 64 60 64H20C17.7909 64 16 62.2091 16 60L16.0049 60.165C16.1122 61.8557 17.86 63.2002 20 63.2002H60C62.2091 63.2002 64 61.7673 64 60Z" fill="#7D7C7C"/>
<path d="M48 47H53.2339C54.0961 47 54.8513 47.1543 55.4993 47.4629C56.1474 47.7714 56.648 48.2086 57.001 48.7743C57.3539 49.34 57.5304 49.9914 57.5304 50.7286C57.5304 51.4771 57.351 52.1371 56.9923 52.7086C56.6335 53.2743 56.1243 53.7143 55.4646 54.0286C54.8108 54.3429 54.044 54.5 53.1645 54.5H50.4303V59H48V47ZM53.069 52.5114C53.4625 52.5114 53.8068 52.44 54.1019 52.2971C54.397 52.1543 54.6227 51.9486 54.7789 51.68C54.9409 51.4114 55.022 51.0971 55.022 50.7371C55.022 50.3829 54.9409 50.0743 54.7789 49.8114C54.6227 49.5486 54.397 49.3457 54.1019 49.2029C53.8068 49.06 53.4625 48.9886 53.069 48.9886H50.4303V52.5114H53.069Z" fill="black"/>
<path d="M39.0836 47H41.7136L46.2097 59H43.7707L42.7986 56.24H38.1028L37.2001 59H34.709L39.0836 47ZM42.1649 54.3886L40.5505 49.88L40.3682 49.1171L40.1946 49.88L38.6843 54.3886H42.1649Z" fill="black"/>
<path d="M24 47H32.8187V49.1086H26.3696V51.9457H32.2284V54.0029H26.3696V56.8914H32.9923V59H24V47Z" fill="black"/>
</svg>