<svg width="32" height="32" viewBox="0 0 32 32" fill="none" xmlns="http://www.w3.org/2000/svg" data-scaled="true">
<g clip-path="url(#clip0_4372_11947)">
<path d="M2.03636 32H19.0205C19.8351 32 20.5713 31.5145 20.8922 30.766L28.9263 12.0207C29.0348 11.7673 29.0909 11.4941 29.0909 11.2183V2.03636C29.0909 0.911709 28.1792 0 27.0545 0H18.0716C17.6692 0 17.2759 0.119273 16.9411 0.342691L0.906764 11.0441C0.340655 11.422 0.000872727 12.0573 0.000872727 12.7377L0 29.9636C0 31.0883 0.911709 32 2.03636 32Z" fill="url(#paint0_linear_4372_11947)"/>
<path d="M24.7403 29.0909H29.9636C31.0883 29.0909 32 28.1792 32 27.0545V20.5082C32 20.4119 31.993 20.3156 31.9796 20.2202L29.3408 1.74836C29.1974 0.745018 28.3383 0 27.3248 0H19.4883C18.3633 0 17.4516 0.912 17.4519 2.03695L17.4542 11.3062C17.4542 11.5249 17.4894 11.7423 17.5587 11.9497L22.8084 27.6986C23.0856 28.53 23.8638 29.0909 24.7403 29.0909Z" fill="url(#paint1_linear_4372_11947)"/>
<path d="M24.0262 29.091L29.9639 29.0901C31.0886 29.0901 32 28.1784 32 27.0538V21.3005C32 20.7061 31.7402 20.1412 31.289 19.7543L12.2083 3.39936C11.8391 3.08314 11.369 2.90918 10.8829 2.90918H4.94518C3.82052 2.90918 2.90881 3.82089 2.90881 4.94554V10.6997C2.90881 11.2941 3.1686 11.859 3.6198 12.2459L22.7002 28.6005C23.0694 28.917 23.5395 29.0907 24.0259 29.0907L24.0262 29.091Z" fill="#FF43F2"/>
<path d="M26 6H6V26H26V6Z" fill="black"/>
<path d="M16 22H9V23H16V22Z" fill="white"/>
<path d="M8.94995 9.00775H11.8394C12.5585 9.00775 13.2018 9.17039 13.7693 9.49567C14.3403 9.82095 14.7867 10.2729 15.1085 10.8511C15.43 11.4259 15.5909 12.0764 15.5909 12.8028C15.5909 13.5291 15.43 14.1817 15.1085 14.76C14.7867 15.3347 14.3403 15.7846 13.7693 16.1099C13.2018 16.4352 12.5585 16.5978 11.8394 16.5978H8.94995V9.00804V9.00775ZM11.8232 15.3182C12.2751 15.3182 12.6706 15.2171 13.0104 15.0147C13.3502 14.812 13.6122 14.5233 13.7966 14.1472C13.981 13.7676 14.0731 13.3197 14.0731 12.8028C14.0731 12.2858 13.981 11.8397 13.7966 11.4636C13.6122 11.084 13.3502 10.7933 13.0104 10.5909C12.6706 10.3882 12.2748 10.2874 11.8232 10.2874H10.43V15.3185H11.8232V15.3182ZM20.1251 16.7279C19.3987 16.7279 18.7409 16.5577 18.1516 16.2182C17.5626 15.8746 17.1 15.405 16.7636 14.8088C16.4276 14.209 16.2595 13.5402 16.2595 12.8028C16.2595 12.0654 16.4276 11.3986 16.7636 10.8023C17.0997 10.2026 17.5623 9.73237 18.1516 9.39286C18.7409 9.04928 19.3984 8.87793 20.1251 8.87793C20.7144 8.87793 21.2563 8.98307 21.7515 9.19246C22.2501 9.40186 22.6695 9.69665 23.0093 10.0762C23.3526 10.4558 23.5931 10.8929 23.7305 11.3881H22.1473C22.0317 11.1497 21.8746 10.9435 21.6757 10.7701C21.4805 10.5932 21.2511 10.4576 20.9871 10.3635C20.7234 10.2659 20.4396 10.2171 20.1358 10.2171C19.6877 10.2171 19.2828 10.3289 18.9215 10.5531C18.5602 10.7773 18.2765 11.0864 18.0703 11.4802C17.8679 11.8705 17.7668 12.3117 17.7668 12.8031C17.7668 13.2945 17.8681 13.7377 18.0703 14.1312C18.2762 14.5215 18.5599 14.8285 18.9215 15.0527C19.2831 15.2769 19.6877 15.3888 20.1358 15.3888C20.5514 15.3888 20.9272 15.3109 21.2636 15.1555C21.6034 15.0005 21.8726 14.785 22.0712 14.5105C22.2702 14.236 22.3768 13.927 22.391 13.5835L22.3965 13.7406H20.613V12.5751H23.8277V13.1713C23.8277 13.8402 23.6651 14.4454 23.3398 14.9874C23.0183 15.5261 22.5754 15.9505 22.0117 16.2615C21.4515 16.5726 20.8227 16.7276 20.1251 16.7276V16.7279Z" fill="white"/>
</g>
<defs>
<linearGradient id="paint0_linear_4372_11947" x1="29.8889" y1="1.99098" x2="0.536435" y2="31.3434" gradientUnits="userSpaceOnUse">
<stop offset="0.28" stop-color="#7256FF"/>
<stop offset="0.66" stop-color="#00D980"/>
</linearGradient>
<linearGradient id="paint1_linear_4372_11947" x1="32.3587" y1="28.1894" x2="19.7385" y2="0.969308" gradientUnits="userSpaceOnUse">
<stop offset="0.3" stop-color="#FF43F2"/>
<stop offset="0.54" stop-color="#7256FF"/>
</linearGradient>
<clipPath id="clip0_4372_11947">
<rect width="32" height="32" fill="white"/>
</clipPath>
</defs>
<path d="M8 23C8 21.8954 8.89543 21 10 21H30C31.1046 21 32 21.8954 32 23V30C32 31.1046 31.1046 32 30 32H10C8.89543 32 8 31.1046 8 30V23Z" fill="#FFC94D"/>
<path d="M32 30C32 31.1046 31.1046 32 30 32H10C8.89543 32 8 31.1046 8 30L8.01074 30.1641C8.11346 30.9706 8.96469 31.5996 10 31.5996H30C31.1046 31.5996 32 30.8837 32 30Z" fill="#7D7C7C"/>
<path d="M24 23H26.7459C27.1982 23 27.5944 23.09 27.9344 23.27C28.2744 23.45 28.537 23.705 28.7222 24.035C28.9074 24.365 29 24.745 29 25.175C29 25.6117 28.9059 25.9967 28.7177 26.33C28.5294 26.66 28.2623 26.9167 27.9162 27.1C27.5732 27.2833 27.1709 27.375 26.7095 27.375H25.275V30H24V23ZM26.6594 26.215C26.8658 26.215 27.0464 26.1733 27.2013 26.09C27.3561 26.0067 27.4745 25.8867 27.5565 25.73C27.6415 25.5733 27.684 25.39 27.684 25.18C27.684 24.9733 27.6415 24.7933 27.5565 24.64C27.4745 24.4867 27.3561 24.3683 27.2013 24.285C27.0464 24.2017 26.8658 24.16 26.6594 24.16H25.275V26.215H26.6594Z" fill="black"/>
<path d="M19.5519 23H21.086L23.7088 30H22.286L21.7189 28.39H18.9797L18.4531 30H17L19.5519 23ZM21.3493 27.31L20.4075 24.68L20.3012 24.235L20.2 24.68L19.319 27.31H21.3493Z" fill="black"/>
<path d="M11.5 23H16.6442V24.23H12.8823V25.885H16.2999V27.085H12.8823V28.77H16.7455V30H11.5V23Z" fill="black"/>
</svg>