<svg width="16" height="16" viewBox="0 0 16 16" fill="none" xmlns="http://www.w3.org/2000/svg">
<g clip-path="url(#clip0_4372_11945)">
<path d="M16 0H0V16H16V0Z" fill="#21D789"/>
<path d="M14.9995 1H0.999512V15H14.9995V1Z" fill="black"/>
<path d="M8 12H3V13H8V12Z" fill="white"/>
<path d="M3 2.8667H4.9898C5.485 2.8667 5.928 2.9787 6.3188 3.2027C6.712 3.4267 7.0194 3.7379 7.241 4.1361C7.4624 4.5319 7.5732 4.9799 7.5732 5.4801C7.5732 5.9803 7.4624 6.4297 7.241 6.8279C7.0194 7.2237 6.712 7.5335 6.3188 7.7575C5.928 7.9815 5.485 8.0935 4.9898 8.0935H3V2.8667ZM4.9786 7.2123C5.2898 7.2123 5.5622 7.1427 5.7962 7.0033C6.0302 6.8637 6.2106 6.6649 6.3376 6.4059C6.4646 6.1445 6.528 5.8361 6.528 5.4801C6.528 5.1241 6.4646 4.8169 6.3376 4.5579C6.2106 4.2965 6.0302 4.0963 5.7962 3.9569C5.5622 3.8173 5.2896 3.7479 4.9786 3.7479H4.0192V7.2125L4.9786 7.2123Z" fill="white"/>
<path d="M10.662 8.18314C10.1618 8.18314 9.7088 8.06594 9.303 7.83214C8.8974 7.59554 8.5788 7.27214 8.3472 6.86154C8.1158 6.44854 8 5.98794 8 5.48014C8 4.97234 8.1158 4.51314 8.3472 4.10254C8.5786 3.68954 8.8972 3.36574 9.303 3.13194C9.7088 2.89534 10.1616 2.77734 10.662 2.77734C11.0678 2.77734 11.441 2.84974 11.782 2.99394C12.1254 3.13814 12.4142 3.34114 12.6482 3.60254C12.8846 3.86394 13.0502 4.16494 13.1448 4.50594H12.0546C11.975 4.34174 11.8668 4.19974 11.7298 4.08034C11.5954 3.95854 11.4374 3.86514 11.2556 3.80034C11.074 3.73314 10.8786 3.69954 10.6694 3.69954C10.3608 3.69954 10.082 3.77654 9.8332 3.93094C9.5844 4.08534 9.389 4.29814 9.247 4.56934C9.1076 4.83814 9.038 5.14194 9.038 5.48034C9.038 5.81874 9.1078 6.12394 9.247 6.39494C9.3888 6.66374 9.5842 6.87514 9.8332 7.02954C10.0822 7.18394 10.3608 7.26094 10.6694 7.26094C10.9556 7.26094 11.2144 7.20734 11.446 7.10034C11.68 6.99354 11.8654 6.84514 12.0022 6.65614C12.118 6.49641 12.1883 6.31968 12.2133 6.12594H10.998V5.32334H13.2118V5.73394C13.2118 6.19454 13.0998 6.61134 12.8758 6.98454C12.6544 7.35554 12.3494 7.64774 11.9612 7.86194C11.5754 8.07614 11.1424 8.18314 10.662 8.18314Z" fill="white"/>
</g>
<defs>
<clipPath id="clip0_4372_11945">
<rect width="16" height="16" fill="white"/>
</clipPath>
</defs>
<path d="M3 11C3 10.4477 3.44772 10 4 10H15C15.5523 10 16 10.4477 16 11V16H4C3.44772 16 3 15.5523 3 15V11Z" fill="#FFC94D"/>
<path d="M11.4287 11H12.8409C13.0736 11 13.2773 11.0514 13.4522 11.1543C13.6271 11.2571 13.7621 11.4029 13.8574 11.5914C13.9526 11.78 14.0002 11.9971 14.0002 12.2429C14.0002 12.4924 13.9518 12.7124 13.855 12.9029C13.7582 13.0914 13.6208 13.2381 13.4428 13.3429C13.2664 13.4476 13.0595 13.5 12.8222 13.5H12.0845V15H11.4287V11ZM12.7964 12.8371C12.9026 12.8371 12.9955 12.8133 13.0751 12.7657C13.1548 12.7181 13.2156 12.6495 13.2578 12.56C13.3015 12.4705 13.3234 12.3657 13.3234 12.2457C13.3234 12.1276 13.3015 12.0248 13.2578 11.9371C13.2156 11.8495 13.1548 11.7819 13.0751 11.7343C12.9955 11.6867 12.9026 11.6629 12.7964 11.6629H12.0845V12.8371H12.7964Z" fill="black"/>
<path d="M9.03948 11H9.92155L11.4295 15H10.6115L10.2854 14.08H8.71052L8.40776 15H7.57227L9.03948 11ZM10.0729 13.4629L9.53146 11.96L9.47032 11.7057L9.4121 11.96L8.90556 13.4629H10.0729Z" fill="black"/>
<path d="M5 11H7.94208V11.7029H5.79054V12.6486H7.74517V13.3343H5.79054V14.2971H8V15H5V11Z" fill="black"/>
</svg>