<svg width="16" height="16" viewBox="0 0 16 16" fill="none" xmlns="http://www.w3.org/2000/svg">
<g clip-path="url(#clip0_4363_9190)">
<path d="M16 0H0V16H16V0Z" fill="#087CFA"/>
<path d="M15 1H1V15H15V1Z" fill="black"/>
<path d="M3 7H4.0027V4H3V3H6V4H5V7H6V8H3V7Z" fill="white"/>
<path d="M7 7H8H8.5L9 6.5V3H9.9957V6.5L9.6 7.6L8.5 8C8.5 8 7.70158 8 7.39925 8H7V7Z" fill="white"/>
<path d="M8 12H3V13H8V12Z" fill="white"/>
<rect x="7" y="7" width="2" height="1" fill="white"/>
<rect x="9" y="3" width="1" height="4" fill="white"/>
</g>
<defs>
<clipPath id="clip0_4363_9190">
<rect width="16" height="16" fill="white"/>
</clipPath>
</defs>
</svg>
