<svg width="24" height="24" viewBox="0 0 24 24" fill="none" xmlns="http://www.w3.org/2000/svg">
<g clip-path="url(#clip0_4363_9191)">
<path d="M5.98036 2.18164L1.52705 2.1823C0.683564 2.1823 0 2.86608 0 3.70957V8.02455C0 8.47029 0.194836 8.894 0.533236 9.18419L14.8436 21.4504C15.1204 21.6875 15.473 21.818 15.8376 21.818H20.2909C21.1344 21.818 21.8182 21.1342 21.8182 20.2907V15.9751C21.8182 15.5293 21.6233 15.1056 21.2849 14.8155L6.97462 2.5495C6.69775 2.31211 6.34516 2.18186 5.98036 2.18186V2.18164Z" fill="#FF8100"/>
<path d="M5.44473 2.18164H1.52727C0.683782 2.18164 0 2.86542 0 3.70891V8.61866C0 8.69088 0.00523636 8.76309 0.0152727 8.83466L1.99418 22.6885C2.10175 23.4411 2.74604 23.9998 3.50618 23.9998H9.38356C10.2273 23.9998 10.9111 23.3158 10.9108 22.4721L10.9091 15.5202C10.9091 15.3561 10.8827 15.1931 10.8308 15.0376L6.89345 3.22586C6.68553 2.6023 6.10189 2.18164 5.44451 2.18164H5.44473Z" fill="url(#paint0_linear_4363_9191)"/>
<path d="M22.4725 0H9.73444C9.12353 0 8.57131 0.364145 8.33066 0.925527L2.30513 14.9845C2.22375 15.1745 2.18164 15.3794 2.18164 15.5863V22.4727C2.18164 23.3162 2.86542 24 3.70891 24H10.4461C10.7479 24 11.0429 23.9105 11.294 23.743L23.3197 15.7167C23.7443 15.4335 23.9992 14.9568 23.9992 14.4465L23.9998 1.52727C23.9998 0.683782 23.316 0 22.4725 0Z" fill="url(#paint1_linear_4363_9191)"/>
<path d="M20 4H4V20H20V4Z" fill="black"/>
<path d="M12 17H6V18H12V17Z" fill="white"/>
<path d="M6 10.9542H7.19152V7.04576H6V6H9.5356V7.04576H8.34408V10.9542H9.5356V12H6V10.9542Z" fill="white"/>
<path d="M10.1353 10.9201H10.9968C11.1709 10.9201 11.3261 10.883 11.4618 10.8087C11.5974 10.7345 11.7024 10.6295 11.7767 10.4938C11.8509 10.3581 11.888 10.2032 11.888 10.0288V6H13.058V10.1099C13.058 10.47 12.9751 10.7936 12.8094 11.0807C12.6437 11.3679 12.4152 11.593 12.1236 11.7557C11.8321 11.9186 11.5051 12 11.1423 12H10.1353V10.9201Z" fill="white"/>
</g>
<defs>
<linearGradient id="paint0_linear_4363_9191" x1="-0.269018" y1="2.85779" x2="9.05455" y2="22.9676" gradientUnits="userSpaceOnUse">
<stop offset="0.1" stop-color="#FC801D"/>
<stop offset="0.59" stop-color="#FE2857"/>
</linearGradient>
<linearGradient id="paint1_linear_4363_9191" x1="1.58317" y1="22.507" x2="23.5975" y2="0.492436" gradientUnits="userSpaceOnUse">
<stop offset="0.21" stop-color="#FE2857"/>
<stop offset="0.7" stop-color="#007EFF"/>
</linearGradient>
<clipPath id="clip0_4363_9191">
<rect width="24" height="24" fill="white"/>
</clipPath>
</defs>
</svg>
