<!-- Copyright © 2000–2024 JetBrains s.r.o. -->
<svg width="32" height="32" viewBox="0 0 32 32" xmlns="http://www.w3.org/2000/svg">
  <path fill="url(#a)" d="M2.06 32h17.065c.83 0 1.58-.495 1.9-1.26l7.9-18.71c.11-.26.127-.54.122-.82V2.045C29.043.915 28.08 0 26.95 0h-8.835c-.4 0-.795.12-1.13.34L.93 10.895c-.58.38-.93 1.025-.93 1.72V29.94C0 31.075.925 32 2.06 32"/>
  <path fill="url(#b)" d="M24.505 29h5.43c1.14 0 2.065-.925 2.065-2.06v-6.285q.001-.15-.02-.3l-2.725-18.59A2.065 2.065 0 0 0 27.215 0h-7.7c-1.14 0-2.062.925-2.062 2.065v9.25q0 .324.097.625l4.99 15.625A2.07 2.07 0 0 0 24.505 29"/>
  <path fill="#FDB60D" d="M23.775 29h6.13c1.15 0 2.097-.945 2.078-2.095V21.5c-.01-.59-.378-1.265-.823-1.65L12.08 3.495A2.07 2.07 0 0 0 10.735 3H5.06C3.925 3 3 3.925 3 5.06v5.505c0 .595.255 1.16.705 1.55l18.71 16.375c.38.33.86.51 1.36.51"/>
  <path d="M26 6H6v20h20z"/>
  <path fill="#fff" fill-rule="evenodd" d="M8.505 8.495h2.855c.71 0 1.349.166 1.91.485a3.4 3.4 0 0 1 1.32 1.335 3.9 3.9 0 0 1 .48 1.935c0 .72-.162 1.359-.48 1.93a3.43 3.43 0 0 1-1.32 1.34c-.565.324-1.2.48-1.91.48H8.505zm4.01 5.94c.34-.201.598-.484.78-.86q.274-.562.275-1.325-.001-.767-.275-1.33a2 2 0 0 0-.78-.86 2.24 2.24 0 0 0-1.17-.3h-1.38v4.975h1.38q.667 0 1.17-.3"/>
  <path fill="#fff" d="M16.495 22h-8v1.5h8zM18.15 8.495h-2.035V16h1.43v-5.71L19.26 16h1.06l1.738-5.745V16h1.437V8.495h-2.07l-1.49 4.925-.115.645-.125-.645z"/>
  <defs>
    <linearGradient id="a" x1="29.849" x2=".54" y1="2.027" y2="31.331" gradientUnits="userSpaceOnUse">
      <stop offset=".31" stop-color="#FF45ED"/>
      <stop offset=".83" stop-color="#6B57FF"/>
    </linearGradient>
    <linearGradient id="b" x1="32.194" x2="19.804" y1="28.165" y2="1.435" gradientUnits="userSpaceOnUse">
      <stop offset=".3" stop-color="#FDB60D"/>
      <stop offset=".7" stop-color="#FF45ED"/>
    </linearGradient>
  </defs>
</svg>
