<!-- Copyright © 2000–2024 JetBrains s.r.o. -->
<svg width="48" height="48" viewBox="0 0 48 48" xmlns="http://www.w3.org/2000/svg">
  <path fill="url(#a)" d="M5.44 44.64 0 25.76l35.36 5.12L30.4 48z"/>
  <path fill="url(#b)" d="m16.16 0 12.8 3.68L43.36 0 48 31.68 9.12 25.76z"/>
  <path fill="url(#d)" d="m48 31.68-1.76-11.84L17.6 9.92 0 13.6v12.16l33.92 9.44z"/>
  <path fill="url(#e)" d="M39 9H9v30h30z"/>
  <path fill="#fff" d="M23 33H12v2h11zM12 12h4.61c3.77 0 6.38 2.59 6.38 5.97V18c0 3.38-2.61 6-6.38 6H12zm2.64 2.38v7.23h1.97c2.16 0 3.62-1.46 3.62-3.58V18c0-2.13-1.46-3.62-3.62-3.62zm9.04 9.57h2.57v-7.73l3.32 5.04h.07l3.35-5.09v7.78h2.61V12.03h-2.83l-3.13 5.04-3.13-5.04h-2.83z"/>
  <path fill="url(#f)" d="M3.09 48h25.598c1.245 0 2.37-.742 2.85-1.89l11.85-28.065c.165-.39.19-.81.183-1.23V3.067C43.564 1.372 42.12 0 40.425 0H27.173a3.1 3.1 0 0 0-1.695.51L1.395 16.343A3.08 3.08 0 0 0 0 18.923V44.91A3.095 3.095 0 0 0 3.09 48"/>
  <path fill="url(#g)" d="M36.758 43.5h8.145A3.097 3.097 0 0 0 48 40.41v-9.427q.002-.225-.03-.45L43.883 2.647A3.1 3.1 0 0 0 40.823 0h-11.55a3.095 3.095 0 0 0-3.094 3.098v13.875c0 .322.049.637.146.937l7.485 23.437a3.1 3.1 0 0 0 2.947 2.153"/>
  <path fill="#FDB60D" d="M35.663 43.5h9.195c1.725 0 3.146-1.417 3.116-3.142V32.25c-.015-.885-.566-1.898-1.234-2.475L18.12 5.243a3.1 3.1 0 0 0-2.018-.743H7.59A3.095 3.095 0 0 0 4.5 7.59v8.258c0 .892.383 1.74 1.058 2.324l28.065 24.563c.57.495 1.29.765 2.04.765"/>
  <path d="M39 9H9v30h30z"/>
  <path fill="#fff" fill-rule="evenodd" d="M12.757 12.743h4.283c1.065 0 2.023.25 2.865.727a5.13 5.13 0 0 1 1.98 2.003c.474.853.72 1.822.72 2.902s-.244 2.038-.72 2.895a5.15 5.15 0 0 1-1.98 2.01c-.848.486-1.8.72-2.865.72h-4.283zm6.015 8.91c.51-.302.897-.726 1.17-1.29.274-.565.413-1.223.413-1.988s-.139-1.434-.413-1.995a2.97 2.97 0 0 0-1.17-1.29c-.508-.302-1.087-.45-1.755-.45h-2.07v7.463h2.07q1-.002 1.755-.45"/>
  <path fill="#fff" d="M24.743 33h-12v2.25h12zm2.482-20.257h-3.053V24h2.145v-8.565L28.89 24h1.59l2.606-8.617V24h2.157V12.743h-3.105l-2.235 7.387-.173.968-.187-.968z"/>
  <defs>
    <linearGradient id="a" x1="13.99" x2="22.21" y1="12.88" y2="47.28" gradientUnits="userSpaceOnUse">
      <stop  offset="0" stop-color="#7866FF"/>
      <stop offset=".02" stop-color="#7E64FE"/>
      <stop offset=".19" stop-color="#AA56F3"/>
      <stop offset=".35" stop-color="#C94CEC"/>
      <stop offset=".48" stop-color="#DC45E8"/>
      <stop offset=".57" stop-color="#E343E6"/>
      <stop offset=".64" stop-color="#E859BC"/>
      <stop offset=".82" stop-color="#F48F58"/>
      <stop offset=".94" stop-color="#FCB019"/>
      <stop offset="1" stop-color="#FFBD00"/>
    </linearGradient>
    <linearGradient id="b" x1="33.88" x2="22.43" y1="28.41" y2="5.14" gradientUnits="userSpaceOnUse">
      <stop  offset="0" stop-color="#7866FF"/>
      <stop offset=".2" stop-color="#965CF8"/>
      <stop offset=".64" stop-color="#E343E6"/>
      <stop offset=".97" stop-color="#FFBD00"/>
    </linearGradient>
    <linearGradient id="d" x1="18.06" x2="24.82" y1="36.74" y2="20.7" gradientUnits="userSpaceOnUse">
      <stop offset=".12" stop-color="#E343E6"/>
      <stop offset=".21" stop-color="#C84CEC"/>
      <stop offset=".34" stop-color="#AB55F3"/>
      <stop offset=".47" stop-color="#955DF8"/>
      <stop offset=".62" stop-color="#8562FC"/>
      <stop offset=".78" stop-color="#7B65FE"/>
      <stop offset="1" stop-color="#7866FF"/>
    </linearGradient>
    <linearGradient id="e" x1="9" x2="39" y1="9" y2="39" gradientUnits="userSpaceOnUse">
      <stop  offset="0" stop-opacity=".5"/>
      <stop offset="1"/>
    </linearGradient>
    <linearGradient id="f" x1="44.773" x2=".81" y1="3.041" y2="46.997" gradientUnits="userSpaceOnUse">
      <stop offset=".31" stop-color="#FF45ED"/>
      <stop offset=".83" stop-color="#6B57FF"/>
    </linearGradient>
    <linearGradient id="g" x1="48.291" x2="29.706" y1="42.248" y2="2.152" gradientUnits="userSpaceOnUse">
      <stop offset=".3" stop-color="#FDB60D"/>
      <stop offset=".7" stop-color="#FF45ED"/>
    </linearGradient>
  </defs>
</svg>
