<!-- Copyright © 2000–2024 JetBrains s.r.o. -->
<svg width="128" height="128" viewBox="0 0 128 128" xmlns="http://www.w3.org/2000/svg">
  <path fill="url(#a)" d="M8.24 128H76.5c3.32 0 6.32-1.98 7.6-5.04l31.6-74.84c.44-1.04.51-2.16.49-3.28V8.18C116.17 3.66 112.32 0 107.8 0H72.46c-1.6 0-3.18.48-4.52 1.36L3.72 43.58A8.22 8.22 0 0 0 0 50.46v69.3C0 124.3 3.7 128 8.24 128"/>
  <path fill="url(#b)" d="M98.02 116h21.72c4.56 0 8.26-3.7 8.26-8.24V82.62c0-.4-.02-.8-.08-1.2l-10.9-74.36C116.42 3 112.94 0 108.86 0h-30.8c-4.56 0-8.25 3.7-8.25 8.26v37c0 .86.13 1.7.39 2.5l19.96 62.5a8.27 8.27 0 0 0 7.86 5.74"/>
  <path fill="#FDB60D" d="M95.1 116h24.52c4.6 0 8.39-3.78 8.31-8.38V86c-.04-2.36-1.51-5.06-3.29-6.6L48.32 13.98A8.27 8.27 0 0 0 42.94 12h-22.7C15.7 12 12 15.7 12 20.24v22.02c0 2.38 1.02 4.64 2.82 6.2l74.84 65.5A8.28 8.28 0 0 0 95.1 116"/>
  <path d="M104 24H24v80h80z"/>
  <path fill="#fff" fill-rule="evenodd" d="M34.02 33.98h11.42c2.84 0 5.395.665 7.64 1.94a13.7 13.7 0 0 1 5.28 5.34c1.265 2.275 1.92 4.86 1.92 7.74s-.65 5.435-1.92 7.72-3.02 4.065-5.28 5.36S48.28 64 45.44 64H34.02zm16.04 23.76c1.36-.805 2.39-1.935 3.12-3.44s1.1-3.26 1.1-5.3-.37-3.825-1.1-5.32-1.765-2.635-3.12-3.44-2.9-1.2-4.68-1.2h-5.52v19.9h5.52c1.78 0 3.335-.405 4.68-1.2"/>
  <path fill="#fff" d="M65.98 88h-32v6h32zm6.62-54.02h-8.14V64h5.72V41.16L77.04 64h4.24l6.95-22.98V64h5.75V33.98H85.7l-5.96 19.7-.46 2.58-.5-2.58z"/>
  <defs>
    <linearGradient id="a" x1="119.395" x2="2.16" y1="8.11" y2="125.325" gradientUnits="userSpaceOnUse">
      <stop offset=".31" stop-color="#FF45ED"/>
      <stop offset=".83" stop-color="#6B57FF"/>
    </linearGradient>
    <linearGradient id="b" x1="128.775" x2="79.215" y1="112.66" y2="5.74" gradientUnits="userSpaceOnUse">
      <stop offset=".3" stop-color="#FDB60D"/>
      <stop offset=".7" stop-color="#FF45ED"/>
    </linearGradient>
  </defs>
</svg>
