<!-- Copyright © 2000–2024 JetBrains s.r.o. -->
<svg width="64" height="64" viewBox="0 0 64 64" xmlns="http://www.w3.org/2000/svg">
  <path fill="url(#a)" d="M4.12 64h34.13c1.66 0 3.16-.99 3.8-2.52l15.8-37.42c.22-.52.255-1.08.245-1.64V4.09C58.085 1.83 56.16 0 53.9 0H36.23c-.8 0-1.59.24-2.26.68L1.86 21.79A4.11 4.11 0 0 0 0 25.23v34.65C0 62.15 1.85 64 4.12 64"/>
  <path fill="url(#b)" d="M49.01 58h10.86A4.13 4.13 0 0 0 64 53.88V41.31c0-.2-.01-.4-.04-.6L58.51 3.53A4.13 4.13 0 0 0 54.43 0h-15.4a4.127 4.127 0 0 0-4.125 4.13v18.5c0 .43.065.85.195 1.25l9.98 31.25A4.13 4.13 0 0 0 49.01 58"/>
  <path fill="#FDB60D" d="M47.55 58h12.26c2.3 0 4.195-1.89 4.155-4.19V43c-.02-1.18-.755-2.53-1.645-3.3L24.16 6.99c-.75-.64-1.7-.99-2.69-.99H10.12C7.85 6 6 7.85 6 10.12v11.01c0 1.19.51 2.32 1.41 3.1l37.42 32.75c.76.66 1.72 1.02 2.72 1.02"/>
  <path d="M52 12H12v40h40z"/>
  <path fill="#fff" fill-rule="evenodd" d="M17.01 16.99h5.71c1.42 0 2.698.333 3.82.97a6.85 6.85 0 0 1 2.64 2.67c.633 1.138.96 2.43.96 3.87s-.325 2.718-.96 3.86a6.87 6.87 0 0 1-2.64 2.68c-1.13.648-2.4.96-3.82.96h-5.71zm8.02 11.88c.68-.402 1.195-.967 1.56-1.72.365-.752.55-1.63.55-2.65s-.185-1.912-.55-2.66c-.365-.747-.883-1.317-1.56-1.72-.678-.402-1.45-.6-2.34-.6h-2.76v9.95h2.76q1.334-.002 2.34-.6"/>
  <path fill="#fff" d="M32.99 44h-16v3h16zm3.31-27.01h-4.07V32h2.86V20.58L38.52 32h2.12l3.475-11.49V32h2.875V16.99h-4.14l-2.98 9.85-.23 1.29-.25-1.29z"/>
  <defs>
    <linearGradient id="a" x1="59.697" x2="1.08" y1="4.055" y2="62.663" gradientUnits="userSpaceOnUse">
      <stop offset=".31" stop-color="#FF45ED"/>
      <stop offset=".83" stop-color="#6B57FF"/>
    </linearGradient>
    <linearGradient id="b" x1="64.388" x2="39.608" y1="56.33" y2="2.87" gradientUnits="userSpaceOnUse">
      <stop offset=".3" stop-color="#FDB60D"/>
      <stop offset=".7" stop-color="#FF45ED"/>
    </linearGradient>
  </defs>
</svg>
