<!-- Copyright © 2000–2024 JetBrains s.r.o. -->
<svg width="256" height="256" viewBox="0 0 256 256" xmlns="http://www.w3.org/2000/svg">
  <path fill="url(#a)" d="M16.48 256H153c6.64 0 12.64-3.96 15.2-10.08l63.2-149.68c.88-2.08 1.02-4.32.98-6.56V16.36C232.34 7.32 224.64 0 215.6 0h-70.68c-3.2 0-6.36.96-9.04 2.72L7.44 87.16C2.8 90.2 0 95.36 0 100.92v138.6C0 248.6 7.4 256 16.48 256"/>
  <path fill="url(#b)" d="M196.04 232h43.44c9.12 0 16.52-7.4 16.52-16.48v-50.28c0-.8-.04-1.6-.16-2.4l-21.8-148.72C232.84 6 225.88 0 217.72 0h-61.6c-9.12 0-16.5 7.4-16.5 16.52v74c0 1.72.26 3.4.78 5l39.92 125c2.2 6.84 8.56 11.48 15.72 11.48"/>
  <path fill="#FDB60D" d="M190.2 232h49.04c9.2 0 16.78-7.56 16.62-16.76V172c-.08-4.72-3.02-10.12-6.58-13.2L96.64 27.96c-3-2.56-6.8-3.96-10.76-3.96h-45.4C31.4 24 24 31.4 24 40.48v44.04c0 4.76 2.04 9.28 5.64 12.4l149.68 131A16.55 16.55 0 0 0 190.2 232"/>
  <path d="M208 48H48v160h160z"/>
  <path fill="#fff" fill-rule="evenodd" d="M68.04 67.96h22.84c5.68 0 10.79 1.33 15.28 3.88s8.03 6.13 10.56 10.68 3.84 9.72 3.84 15.48-1.3 10.87-3.84 15.44-6.04 8.13-10.56 10.72-9.6 3.84-15.28 3.84H68.04zm32.08 47.52c2.72-1.61 4.78-3.87 6.24-6.88s2.2-6.52 2.2-10.6-.74-7.65-2.2-10.64-3.53-5.27-6.24-6.88-5.8-2.4-9.36-2.4H79.72v39.8h11.04c3.56 0 6.67-.81 9.36-2.4"/>
  <path fill="#fff" d="M131.96 176h-64v12h64zM145.2 67.96h-16.28V128h11.44V82.32L154.08 128h8.48l13.9-45.96V128h11.5V67.96H171.4l-11.92 39.4-.92 5.16-1-5.16z"/>
  <defs>
    <linearGradient id="a" x1="238.79" x2="4.32" y1="16.22" y2="250.65" gradientUnits="userSpaceOnUse">
      <stop offset=".31" stop-color="#FF45ED"/>
      <stop offset=".83" stop-color="#6B57FF"/>
    </linearGradient>
    <linearGradient id="b" x1="257.55" x2="158.43" y1="225.32" y2="11.48" gradientUnits="userSpaceOnUse">
      <stop offset=".3" stop-color="#FDB60D"/>
      <stop offset=".7" stop-color="#FF45ED"/>
    </linearGradient>
  </defs>
</svg>
