<!-- Copyright © 2000–2024 JetBrains s.r.o. -->
<svg width="24" height="24" viewBox="0 0 24 24" xmlns="http://www.w3.org/2000/svg">
  <path fill="url(#a)" d="M1.545 24h12.799c.622 0 1.185-.371 1.425-.945l5.925-14.032c.082-.195.095-.405.092-.615V1.534C21.782.686 21.06 0 20.212 0h-6.626c-.3 0-.596.09-.847.255L.697 8.171A1.54 1.54 0 0 0 0 9.461v12.994C0 23.306.694 24 1.545 24"/>
  <path fill="url(#b)" d="M18.379 21.75h4.072c.855 0 1.549-.694 1.549-1.545v-4.714q0-.113-.015-.225L21.941 1.324A1.55 1.55 0 0 0 20.411 0h-5.775c-.855 0-1.547.694-1.547 1.549v6.937q0 .244.073.469l3.743 11.719a1.55 1.55 0 0 0 1.474 1.076"/>
  <path fill="#FDB60D" d="M17.831 21.75h4.598c.862 0 1.573-.709 1.558-1.571v-4.054c-.008-.443-.283-.949-.617-1.238L9.06 2.621a1.55 1.55 0 0 0-1.009-.371H3.795c-.851 0-1.545.694-1.545 1.545v4.129c0 .446.191.87.529 1.162L16.81 21.368c.285.247.645.382 1.02.382"/>
  <path d="M19.5 4.5h-15v15h15z"/>
  <path fill="#fff" fill-rule="evenodd" d="M6.379 6.371H8.52c.533 0 1.012.125 1.433.364q.632.36.99 1.001c.237.427.36.911.36 1.451s-.122 1.02-.36 1.448a2.6 2.6 0 0 1-.99 1.005c-.424.243-.9.36-1.433.36H6.379zm3.007 4.455q.381-.223.585-.645.206-.421.207-.994c0-.382-.07-.717-.207-.997a1.5 1.5 0 0 0-.585-.645 1.7 1.7 0 0 0-.877-.225H7.474v3.731h1.035q.5 0 .877-.225"/>
  <path fill="#fff" d="M12.371 16.5h-6v1.125h6zm1.242-10.129h-1.527V12h1.073V7.717L14.445 12h.795l1.303-4.309V12h1.078V6.37H16.07l-1.118 3.694-.086.484-.094-.484z"/>
  <defs>
    <linearGradient id="a" x1="22.387" x2=".405" y1="1.521" y2="23.498" gradientUnits="userSpaceOnUse">
      <stop offset=".31" stop-color="#FF45ED"/>
      <stop offset=".83" stop-color="#6B57FF"/>
    </linearGradient>
    <linearGradient id="b" x1="24.145" x2="14.853" y1="21.124" y2="1.076" gradientUnits="userSpaceOnUse">
      <stop offset=".3" stop-color="#FDB60D"/>
      <stop offset=".7" stop-color="#FF45ED"/>
    </linearGradient>
  </defs>
</svg>
