<svg width="16" height="16" viewBox="0 0 16 16" fill="none" xmlns="http://www.w3.org/2000/svg">
<g clip-path="url(#clip0_4372_13107)">
<path d="M16 0H0V16H16V0Z" fill="#07C3F2"/>
<path d="M15 1H1V15H15V1Z" fill="black"/>
<path d="M3.48784 2.77974L4.33164 6.59514L5.23144 2.77974H6.26184L7.20264 6.59514L8.02024 2.77974H9.05444L7.78504 8.00634H6.62404L5.74304 4.20954L4.85084 8.00634H3.69344L2.43164 2.77974H3.48824H3.48784ZM11.256 8.09614C10.8776 8.09614 10.5416 8.02754 10.248 7.89074C9.95684 7.75394 9.72784 7.56214 9.56104 7.31574C9.39684 7.06934 9.31224 6.78554 9.30724 6.46454H10.3302C10.3302 6.61614 10.37 6.74974 10.4496 6.86394C10.5292 6.97834 10.64 7.06794 10.7818 7.13274C10.9236 7.19754 11.0866 7.22974 11.2708 7.22974C11.455 7.22974 11.6018 7.20134 11.7338 7.14394C11.8682 7.08414 11.9714 7.00214 12.0436 6.89754C12.1182 6.79294 12.1556 6.67354 12.1556 6.53914C12.1556 6.37254 12.1046 6.23434 12.0026 6.12474C11.903 6.01514 11.765 5.93954 11.5882 5.89694L10.666 5.69154C10.4172 5.63694 10.2006 5.54354 10.0164 5.41154C9.83224 5.27714 9.68924 5.11154 9.58704 4.91494C9.48504 4.71854 9.43404 4.49674 9.43404 4.25034C9.43404 3.95174 9.51124 3.68434 9.66544 3.44774C9.81984 3.20874 10.035 3.02354 10.3112 2.89154C10.5874 2.75714 10.901 2.68994 11.252 2.68994C11.603 2.68994 11.9252 2.75474 12.204 2.88414C12.4828 3.01334 12.6992 3.19394 12.8536 3.42554C13.0104 3.65474 13.09 3.91834 13.0926 4.21694H12.0734C12.0734 4.08994 12.0398 3.97654 11.9726 3.87714C11.9054 3.77494 11.8096 3.69654 11.6852 3.64194C11.5632 3.58454 11.4226 3.55614 11.2634 3.55614C11.1042 3.55614 10.9634 3.58374 10.8416 3.63834C10.7222 3.69054 10.6288 3.76534 10.5616 3.86234C10.4944 3.95714 10.4608 4.06774 10.4608 4.19454C10.4608 4.33874 10.5068 4.45814 10.599 4.55294C10.6936 4.64774 10.8218 4.71494 10.9836 4.75454L11.8722 4.94874C12.1286 5.00094 12.3562 5.10034 12.5554 5.24734C12.757 5.39154 12.9138 5.57074 13.0258 5.78494C13.1378 5.99634 13.1938 6.22774 13.1938 6.47934C13.1938 6.78774 13.1116 7.06554 12.9474 7.31194C12.7856 7.55594 12.5578 7.74734 12.2642 7.88694C11.9706 8.02654 11.6346 8.09594 11.2562 8.09594L11.256 8.09614Z" fill="white"/>
<path d="M8 12H3V13H8V12Z" fill="white"/>
</g>
<defs>
<clipPath id="clip0_4372_13107">
<rect width="16" height="16" fill="white"/>
</clipPath>
</defs>
<path d="M1 11C1 10.4477 1.44772 10 2 10H14C14.5523 10 15 10.4477 15 11V15H1V11Z" fill="#FFC94D"/>
<path d="M8 11H9.09836C9.2793 11 9.43777 11.0386 9.57377 11.1157C9.70977 11.1929 9.81482 11.3021 9.88889 11.4436C9.96296 11.585 10 11.7479 10 11.9321C10 12.1193 9.96236 12.2843 9.88707 12.4271C9.81178 12.5686 9.70492 12.6786 9.56648 12.7571C9.42927 12.8357 9.26837 12.875 9.08379 12.875H8.51002V14H8V11ZM9.06375 12.3779C9.14633 12.3779 9.21858 12.36 9.28051 12.3243C9.34244 12.2886 9.3898 12.2371 9.42259 12.17C9.45659 12.1029 9.47359 12.0243 9.47359 11.9343C9.47359 11.8457 9.45659 11.7686 9.42259 11.7029C9.3898 11.6371 9.34244 11.5864 9.28051 11.5507C9.21858 11.515 9.14633 11.4971 9.06375 11.4971H8.51002V12.3779H9.06375Z" fill="black"/>
<path d="M6.14113 11H6.82717L8 14H7.36377L7.11019 13.31H5.88528L5.64981 14H5L6.14113 11ZM6.94491 12.8471L6.52377 11.72L6.47623 11.5293L6.43094 11.72L6.03698 12.8471H6.94491Z" fill="black"/>
<path d="M3 11H4.96139V11.5271H3.52703V12.2364H4.83012V12.7507H3.52703V13.4729H5V14H3V11Z" fill="black"/>
<path d="M10 10H14C14.5523 10 15 10.4477 15 11V15H10V10Z" fill="white"/>
<g clip-path="url(#clip0_6216_54522)">
<path d="M14 14.0005H13.4878C13.4878 12.6287 12.3718 11.5127 11 11.5127V11.0005C12.6542 11.0005 14 12.3463 14 14.0005Z" fill="#1A1A1A"/>
<path d="M13 14.0005H12.5179C12.5179 13.1635 11.837 12.4826 11 12.4826V12.0005C12.1028 12.0005 13 12.8977 13 14.0005Z" fill="#1A1A1A"/>
<path d="M12 14.0005H11.59C11.59 13.6752 11.3253 13.4105 11 13.4105V13.0005C11.5514 13.0005 12 13.4491 12 14.0005Z" fill="#1A1A1A"/>
</g>
<defs>
<clipPath id="clip0_6216_54522">
<rect width="3" height="3" fill="white" transform="translate(11 11)"/>
</clipPath>
</defs>
</svg>