<svg width="256" height="256" viewBox="0 0 256 256" fill="none" xmlns="http://www.w3.org/2000/svg">
<g filter="url(#filter0_d_4372_12355)">
<path d="M231 99.9091V73C231 46.4903 209.51 25 183 25L99.9091 25V99.9091L231 99.9091Z" fill="url(#paint0_linear_4372_12355)"/>
<path d="M99.9092 231V118.636H25.0001V183C25.0001 209.51 46.4904 231 73.0001 231H99.9092Z" fill="#D249FC"/>
<path d="M182.998 230.998C209.508 230.999 231 209.508 231 182.998V99.911L99.9091 25H73C46.4903 25 25 46.4903 25 73V118.636L99.9896 230.994L182.998 230.998Z" fill="url(#paint1_linear_4372_12355)"/>
<path d="M194 62H62V194H194V62Z" fill="black"/>
<path d="M79.9351 79.9966H100.97C104.4 79.9966 107.422 80.6266 110.036 81.8866C112.65 83.1466 114.656 84.9185 116.057 87.2059C117.48 89.4934 118.192 92.1409 118.192 95.1502C118.192 98.1596 117.468 100.89 116.023 103.2C114.6 105.509 112.558 107.308 109.897 108.59C107.261 109.85 104.192 110.48 100.693 110.48H89.4937V128.995H79.9388V79.9966H79.9351ZM100.339 102.538C101.949 102.538 103.348 102.245 104.539 101.662C105.752 101.055 106.685 100.205 107.338 99.1064C107.99 97.9871 108.319 96.6915 108.319 95.2215C108.319 93.7515 107.992 92.4428 107.338 91.3722C106.684 90.2734 105.752 89.4334 104.539 88.8522C103.348 88.2447 101.949 87.9428 100.339 87.9428H89.4881V102.538H100.339ZM140.225 129.837C136.631 129.837 133.4 129.194 130.53 127.912C127.659 126.629 125.407 124.831 123.774 122.521C122.141 120.189 121.301 117.53 121.254 114.541H130.845C130.845 115.942 131.253 117.189 132.069 118.286C132.909 119.358 134.039 120.198 135.464 120.806C136.91 121.413 138.545 121.715 140.364 121.715C142.091 121.715 143.63 121.449 144.984 120.911C146.36 120.35 147.434 119.581 148.203 118.601C148.974 117.62 149.358 116.501 149.358 115.241C149.358 113.679 148.88 112.37 147.924 111.32C146.99 110.248 145.694 109.548 144.039 109.22L133.994 107.294C131.638 106.852 129.585 106.012 127.835 104.775C126.108 103.515 124.779 101.953 123.845 100.085C122.911 98.1952 122.445 96.0952 122.445 93.7852C122.445 90.9372 123.202 88.4078 124.719 86.1897C126.258 83.9716 128.37 82.2485 131.055 81.0091C133.76 79.7717 136.805 79.1548 140.189 79.1548C143.574 79.1548 146.652 79.7623 149.36 80.9754C152.09 82.1866 154.226 83.8797 155.765 86.051C157.329 88.1997 158.122 90.6709 158.144 93.4703H148.589C148.589 92.259 148.227 91.1828 147.504 90.2509C146.804 89.319 145.824 88.5934 144.564 88.0816C143.304 87.5434 141.881 87.2772 140.294 87.2772C138.708 87.2772 137.319 87.5359 136.059 88.0478C134.799 88.5597 133.818 89.2722 133.119 90.1834C132.419 91.0722 132.069 92.0959 132.069 93.264C132.069 94.6159 132.5 95.7615 133.364 96.6933C134.227 97.6027 135.429 98.2121 136.97 98.5139L146.699 100.335C149.15 100.777 151.308 101.677 153.174 103.029C155.064 104.381 156.522 106.074 157.548 108.104C158.574 110.113 159.087 112.304 159.087 114.684C159.087 117.624 158.283 120.249 156.672 122.559C155.062 124.846 152.823 126.631 149.952 127.914C147.082 129.196 143.838 129.839 140.223 129.839L140.225 129.837Z" fill="white"/>
<path d="M132.5 167.5H80V176H132.5V167.5Z" fill="white"/>
</g>
<defs>
<filter id="filter0_d_4372_12355" x="20" y="22.5" width="216" height="216" filterUnits="userSpaceOnUse" color-interpolation-filters="sRGB">
<feFlood flood-opacity="0" result="BackgroundImageFix"/>
<feColorMatrix in="SourceAlpha" type="matrix" values="0 0 0 0 0 0 0 0 0 0 0 0 0 0 0 0 0 0 127 0" result="hardAlpha"/>
<feOffset dy="2.5"/>
<feGaussianBlur stdDeviation="2.5"/>
<feColorMatrix type="matrix" values="0 0 0 0 0 0 0 0 0 0 0 0 0 0 0 0 0 0 0.3 0"/>
<feBlend mode="normal" in2="BackgroundImageFix" result="effect1_dropShadow_4372_12355"/>
<feBlend mode="normal" in="SourceGraphic" in2="effect1_dropShadow_4372_12355" result="shape"/>
</filter>
<linearGradient id="paint0_linear_4372_12355" x1="105.188" y1="62.4545" x2="229.457" y2="62.4545" gradientUnits="userSpaceOnUse">
<stop offset="0.35" stop-color="#FF2D90"/>
<stop offset="1" stop-color="#D448F8"/>
</linearGradient>
<linearGradient id="paint1_linear_4372_12355" x1="31.1688" y1="31.1276" x2="223.417" y2="223.376" gradientUnits="userSpaceOnUse">
<stop offset="0.07" stop-color="#FF2D90"/>
<stop offset="0.83" stop-color="#7256FF"/>
</linearGradient>
</defs>
</svg>
