<svg width="32" height="32" viewBox="0 0 32 32" fill="none" xmlns="http://www.w3.org/2000/svg">
<path d="M30 12.1818V8C30 4.68629 27.3137 2 24 2L12.1818 2V12.1818L30 12.1818Z" fill="url(#paint0_linear_4372_12358)"/>
<path d="M12.1816 29.9998L12.1816 14.7271H1.99982V23.9998C1.99982 27.3135 4.68611 29.9998 7.99982 29.9998H12.1816Z" fill="#D249FC"/>
<path d="M23.9997 29.9997C27.3136 29.9999 30 27.3136 30 23.9997V12.1821L12.1818 2H8C4.68629 2 2 4.68629 2 8V14.7273L12.1928 29.9992L23.9997 29.9997Z" fill="url(#paint1_linear_4372_12358)"/>
<path d="M25 7H7V25H25V7Z" fill="black"/>
<path d="M9.4458 9.40012H12.3307C12.801 9.40012 13.2155 9.48653 13.574 9.65933C13.9324 9.83213 14.2076 10.0751 14.3997 10.3888C14.5948 10.7026 14.6925 11.0656 14.6925 11.4784C14.6925 11.8911 14.5933 12.2655 14.395 12.5823C14.1999 12.8991 13.9198 13.1457 13.5549 13.3216C13.1934 13.4944 12.7725 13.5808 12.2926 13.5808H10.7567V16.12H9.44632V9.40012H9.4458ZM12.244 12.4915C12.4649 12.4915 12.6567 12.4514 12.82 12.3714C12.9864 12.2881 13.1145 12.1716 13.2039 12.0209C13.2934 11.8674 13.3384 11.6897 13.3384 11.4881C13.3384 11.2865 13.2937 11.107 13.2039 10.9602C13.1142 10.8095 12.9864 10.6943 12.82 10.6146C12.6567 10.5313 12.4649 10.4899 12.244 10.4899H10.7559V12.4915H12.244ZM17.7142 16.2355C17.2213 16.2355 16.7782 16.1473 16.3845 15.9714C15.9909 15.7955 15.682 15.5489 15.4581 15.2321C15.2341 14.9122 15.1189 14.5476 15.1125 14.1377H16.4277C16.4277 14.3298 16.4838 14.5008 16.5957 14.6512C16.7109 14.7983 16.8659 14.9135 17.0613 14.9968C17.2596 15.0802 17.4838 15.1216 17.7333 15.1216C17.9701 15.1216 18.1812 15.085 18.3669 15.0112C18.5556 14.9344 18.7029 14.8289 18.8084 14.6944C18.9141 14.56 18.9668 14.4064 18.9668 14.2336C18.9668 14.0194 18.9012 13.84 18.7701 13.696C18.642 13.5489 18.4643 13.453 18.2373 13.408L16.8597 13.1439C16.5365 13.0832 16.2549 12.968 16.015 12.7983C15.7782 12.6255 15.5959 12.4113 15.4678 12.1552C15.3398 11.896 15.2757 11.608 15.2757 11.2912C15.2757 10.9006 15.3796 10.5537 15.5877 10.2495C15.7988 9.94527 16.0883 9.70895 16.4565 9.53898C16.8276 9.36927 17.2452 9.28467 17.7093 9.28467C18.1735 9.28467 18.5957 9.36798 18.967 9.53435C19.3414 9.70047 19.6343 9.93267 19.8454 10.2304C20.0599 10.5251 20.1687 10.864 20.1717 11.248H18.8613C18.8613 11.0818 18.8117 10.9342 18.7125 10.8064C18.6165 10.6786 18.4821 10.5791 18.3093 10.5089C18.1365 10.4351 17.9413 10.3986 17.7237 10.3986C17.5062 10.3986 17.3157 10.4341 17.1429 10.5043C16.9701 10.5745 16.8356 10.6722 16.7397 10.7972C16.6437 10.9191 16.5957 11.0595 16.5957 11.2197C16.5957 11.4051 16.6548 11.5622 16.7733 11.69C16.8916 11.8147 17.0565 11.8983 17.2678 11.9397L18.6021 12.1894C18.9382 12.25 19.2342 12.3735 19.4901 12.5589C19.7493 12.7443 19.9493 12.9765 20.09 13.255C20.2306 13.5304 20.3011 13.831 20.3011 14.1573C20.3011 14.5605 20.1908 14.9205 19.9699 15.2373C19.749 15.551 19.442 15.7958 19.0483 15.9717C18.6546 16.1476 18.2097 16.2358 17.714 16.2358L17.7142 16.2355Z" fill="white"/>
<path d="M16 22H9V23H16V22Z" fill="white"/>
<defs>
<linearGradient id="paint0_linear_4372_12358" x1="12.8994" y1="7.09091" x2="29.7903" y2="7.09091" gradientUnits="userSpaceOnUse">
<stop offset="0.35" stop-color="#FF2D90"/>
<stop offset="1" stop-color="#D448F8"/>
</linearGradient>
<linearGradient id="paint1_linear_4372_12358" x1="2.83847" y1="2.83287" x2="28.9693" y2="28.9637" gradientUnits="userSpaceOnUse">
<stop offset="0.07" stop-color="#FF2D90"/>
<stop offset="0.83" stop-color="#7256FF"/>
</linearGradient>
</defs>
</svg>
