<svg width="128" height="128" viewBox="0 0 128 128" fill="none" xmlns="http://www.w3.org/2000/svg">
<g filter="url(#filter0_d_4372_12357)">
<path d="M116 49.8182V36C116 22.7452 105.255 12 92 12L49.8182 12V49.8182L116 49.8182Z" fill="url(#paint0_linear_4372_12357)"/>
<path d="M49.8184 116V59.2727H12.0002V92C12.0002 105.255 22.7453 116 36.0002 116H49.8184Z" fill="#D249FC"/>
<path d="M91.999 115.999C105.254 116 116 105.254 116 91.999V49.8191L49.8182 12H36C22.7452 12 12 22.7452 12 36V59.2727L49.8588 115.997L91.999 115.999Z" fill="url(#paint1_linear_4372_12357)"/>
<path d="M97 31H31V97H97V31Z" fill="black"/>
<path d="M39 39.9745H49.7335C51.4833 39.9745 53.0256 40.296 54.3592 40.9389C55.6929 41.5818 56.7166 42.4859 57.4313 43.6531C58.1574 44.8203 58.521 46.1712 58.521 47.7067C58.521 49.2423 58.1517 50.6353 57.4141 51.8139C56.6879 52.9926 55.646 53.9101 54.2884 54.5645C52.9433 55.2074 51.3771 55.5289 49.5919 55.5289H43.8774V64.9766H39.0019V39.9745H39ZM49.4111 51.4762C50.2329 51.4762 50.9466 51.327 51.5541 51.0294C52.1731 50.7195 52.6496 50.2861 52.9825 49.7254C53.3155 49.1543 53.4829 48.4932 53.4829 47.7431C53.4829 46.993 53.3164 46.3252 52.9825 45.7789C52.6486 45.2183 52.1731 44.7897 51.5541 44.4931C50.9466 44.1831 50.2329 44.0291 49.4111 44.0291H43.8745V51.4762H49.4111ZM69.7634 65.4061C67.9294 65.4061 66.281 65.078 64.8162 64.4236C63.3515 63.7692 62.2025 62.8517 61.3692 61.673C60.5359 60.4828 60.1072 59.1262 60.0833 57.6012H64.977C64.977 58.3158 65.1855 58.9521 65.6017 59.5117C66.0303 60.059 66.6072 60.4876 67.3343 60.7976C68.072 61.1076 68.9062 61.2616 69.8343 61.2616C70.7154 61.2616 71.5009 61.1257 72.1916 60.8512C72.8938 60.5651 73.4421 60.1728 73.8343 59.6725C74.2275 59.1721 74.4237 58.6009 74.4237 57.958C74.4237 57.1611 74.1797 56.4933 73.6918 55.9575C73.2153 55.4103 72.5542 55.0534 71.7094 54.886L66.5843 53.9034C65.3817 53.6776 64.334 53.249 63.4414 52.6176C62.5603 51.9747 61.882 51.1777 61.4055 50.2248C60.9291 49.2605 60.6908 48.1889 60.6908 47.0102C60.6908 45.557 61.0774 44.2664 61.8513 43.1345C62.6368 42.0027 63.7141 41.1235 65.0841 40.4911C66.4647 39.8597 68.0184 39.5449 69.7453 39.5449C71.4722 39.5449 73.0431 39.8549 74.4246 40.4739C75.8176 41.0919 76.9073 41.9559 77.6928 43.0638C78.4907 44.1602 78.8954 45.4211 78.9069 46.8495H74.0314C74.0314 46.2315 73.8467 45.6823 73.4775 45.2068C73.1206 44.7313 72.6202 44.3611 71.9773 44.0999C71.3344 43.8253 70.6082 43.6894 69.7989 43.6894C68.9895 43.6894 68.2805 43.8215 67.6376 44.0827C66.9947 44.3438 66.4943 44.7074 66.1375 45.1724C65.7806 45.6259 65.6017 46.1482 65.6017 46.7443C65.6017 47.4341 65.8218 48.0186 66.2628 48.4941C66.7029 48.9581 67.3162 49.2691 68.1026 49.4231L73.067 50.3521C74.3175 50.5779 75.4186 51.0371 76.3706 51.7269C77.335 52.4167 78.0793 53.2806 78.6026 54.3167C79.1259 55.3414 79.3881 56.4598 79.3881 57.6739C79.3881 59.174 78.9777 60.5134 78.1558 61.6921C77.334 62.8593 76.1917 63.7701 74.7269 64.4245C73.2622 65.0789 71.6071 65.4071 69.7625 65.4071L69.7634 65.4061Z" fill="white"/>
<path d="M67 84H39V89H67V84Z" fill="white"/>
</g>
<defs>
<filter id="filter0_d_4372_12357" x="9.5" y="10.75" width="109" height="109" filterUnits="userSpaceOnUse" color-interpolation-filters="sRGB">
<feFlood flood-opacity="0" result="BackgroundImageFix"/>
<feColorMatrix in="SourceAlpha" type="matrix" values="0 0 0 0 0 0 0 0 0 0 0 0 0 0 0 0 0 0 127 0" result="hardAlpha"/>
<feOffset dy="1.25"/>
<feGaussianBlur stdDeviation="1.25"/>
<feColorMatrix type="matrix" values="0 0 0 0 0 0 0 0 0 0 0 0 0 0 0 0 0 0 0.3 0"/>
<feBlend mode="normal" in2="BackgroundImageFix" result="effect1_dropShadow_4372_12357"/>
<feBlend mode="normal" in="SourceGraphic" in2="effect1_dropShadow_4372_12357" result="shape"/>
</filter>
<linearGradient id="paint0_linear_4372_12357" x1="52.4834" y1="30.9091" x2="115.221" y2="30.9091" gradientUnits="userSpaceOnUse">
<stop offset="0.35" stop-color="#FF2D90"/>
<stop offset="1" stop-color="#D448F8"/>
</linearGradient>
<linearGradient id="paint1_linear_4372_12357" x1="15.1143" y1="15.0935" x2="112.172" y2="112.151" gradientUnits="userSpaceOnUse">
<stop offset="0.07" stop-color="#FF2D90"/>
<stop offset="0.83" stop-color="#7256FF"/>
</linearGradient>
</defs>
</svg>
