<svg width="1024" height="1024" viewBox="0 0 1024 1024" fill="none" xmlns="http://www.w3.org/2000/svg">
<g filter="url(#filter0_d_6180_42548)">
<path d="M924 399.636V292C924 185.961 838.039 100 732 100L399.636 100V399.636L924 399.636Z" fill="url(#paint0_linear_6180_42548)"/>
<path d="M399.636 924V474.545H99.9999V732C99.9999 838.039 185.961 924 292 924H399.636Z" fill="#D249FC"/>
<path d="M731.992 923.992C838.034 923.996 924 838.034 924 731.992V399.644L399.636 100H292C185.961 100 100 185.961 100 292V474.545L399.958 923.977L731.992 923.992Z" fill="url(#paint1_linear_6180_42548)"/>
<path d="M776 248H248V776H776V248Z" fill="black"/>
<path d="M319.74 319.986H403.882C417.599 319.986 429.689 322.506 440.144 327.546C450.599 332.586 458.624 339.673 464.226 348.823C469.919 357.973 472.769 368.563 472.769 380.6C472.769 392.638 469.874 403.558 464.091 412.798C458.399 422.037 450.231 429.23 439.589 434.36C429.044 439.4 416.767 441.92 402.772 441.92H357.975V515.981H319.755V319.986H319.74ZM401.354 410.15C407.797 410.15 413.392 408.98 418.154 406.648C423.007 404.218 426.742 400.82 429.352 396.425C431.962 391.948 433.274 386.765 433.274 380.885C433.274 375.006 431.969 369.771 429.352 365.488C426.734 361.093 423.007 357.733 418.154 355.408C413.392 352.978 407.797 351.771 401.354 351.771H357.952V410.15H401.354ZM560.9 519.349C546.523 519.349 533.6 516.776 522.118 511.647C510.636 506.517 501.628 499.324 495.096 490.084C488.563 480.754 485.203 470.119 485.016 458.165H523.378C523.378 463.767 525.013 468.754 528.275 473.142C531.635 477.432 536.158 480.792 541.858 483.222C547.64 485.652 554.18 486.859 561.455 486.859C568.363 486.859 574.52 485.794 579.935 483.642C585.44 481.399 589.737 478.324 592.812 474.402C595.895 470.479 597.432 466.002 597.432 460.962C597.432 454.715 595.52 449.48 591.695 445.28C587.96 440.99 582.777 438.192 576.155 436.88L535.978 429.177C526.551 427.407 518.338 424.047 511.341 419.098C504.433 414.058 499.116 407.81 495.381 400.34C491.646 392.78 489.778 384.38 489.778 375.141C489.778 363.748 492.808 353.631 498.876 344.758C505.033 335.886 513.478 328.994 524.218 324.036C535.04 319.086 547.22 316.619 560.758 316.619C574.295 316.619 586.61 319.049 597.44 323.901C608.36 328.746 616.902 335.518 623.059 344.203C629.314 352.798 632.487 362.683 632.577 373.881H594.357C594.357 369.036 592.91 364.731 590.015 361.003C587.217 357.276 583.295 354.373 578.255 352.326C573.215 350.173 567.523 349.108 561.178 349.108C554.833 349.108 549.275 350.143 544.235 352.191C539.195 354.238 535.273 357.088 532.475 360.733C529.678 364.288 528.275 368.383 528.275 373.056C528.275 378.463 530 383.045 533.458 386.773C536.908 390.41 541.715 392.848 547.88 394.055L586.797 401.338C596.6 403.108 605.232 406.708 612.695 412.115C620.254 417.523 626.089 424.295 630.192 432.417C634.294 440.45 636.349 449.217 636.349 458.735C636.349 470.494 633.132 480.994 626.689 490.234C620.247 499.384 611.292 506.524 599.81 511.654C588.327 516.784 575.353 519.356 560.893 519.356L560.9 519.349Z" fill="white"/>
<path d="M530 670H320V704H530V670Z" fill="white"/>
</g>
<defs>
<filter id="filter0_d_6180_42548" x="80" y="90" width="864" height="864" filterUnits="userSpaceOnUse" color-interpolation-filters="sRGB">
<feFlood flood-opacity="0" result="BackgroundImageFix"/>
<feColorMatrix in="SourceAlpha" type="matrix" values="0 0 0 0 0 0 0 0 0 0 0 0 0 0 0 0 0 0 127 0" result="hardAlpha"/>
<feOffset dy="10"/>
<feGaussianBlur stdDeviation="10"/>
<feColorMatrix type="matrix" values="0 0 0 0 0 0 0 0 0 0 0 0 0 0 0 0 0 0 0.3 0"/>
<feBlend mode="normal" in2="BackgroundImageFix" result="effect1_dropShadow_6180_42548"/>
<feBlend mode="normal" in="SourceGraphic" in2="effect1_dropShadow_6180_42548" result="shape"/>
</filter>
<linearGradient id="paint0_linear_6180_42548" x1="420.753" y1="249.818" x2="917.827" y2="249.818" gradientUnits="userSpaceOnUse">
<stop offset="0.35" stop-color="#FF2D90"/>
<stop offset="1" stop-color="#D448F8"/>
</linearGradient>
<linearGradient id="paint1_linear_6180_42548" x1="124.675" y1="124.51" x2="893.669" y2="893.504" gradientUnits="userSpaceOnUse">
<stop offset="0.07" stop-color="#FF2D90"/>
<stop offset="0.83" stop-color="#7256FF"/>
</linearGradient>
</defs>
</svg>
