<svg width="64" height="64" viewBox="0 0 64 64" fill="none" xmlns="http://www.w3.org/2000/svg">
<g filter="url(#filter0_d_6179_27267)">
<path d="M58 24.9091V18C58 11.3726 52.6274 6 46 6L24.9091 6V24.9091L58 24.9091Z" fill="url(#paint0_linear_6179_27267)"/>
<path d="M24.9092 57.9999V29.6362H6.00009V45.9999C6.00009 52.6273 11.3727 57.9999 18.0001 57.9999H24.9092Z" fill="#D249FC"/>
<path d="M45.9995 57.9995C52.6271 57.9998 58 52.6271 58 45.9995V24.9096L24.9091 6H18C11.3726 6 6 11.3726 6 18V29.6364L24.9294 57.9986L45.9995 57.9995Z" fill="url(#paint1_linear_6179_27267)"/>
<path d="M49 15H15V49H49V15Z" fill="black"/>
<path d="M20 19.9872H25.3667C26.2417 19.9872 27.0128 20.148 27.6796 20.4694C28.3465 20.7909 28.8583 21.2429 29.2156 21.8265C29.5787 22.4101 29.7605 23.0856 29.7605 23.8534C29.7605 24.6211 29.5758 25.3176 29.207 25.907C28.844 26.4963 28.323 26.9551 27.6442 27.2823C26.9716 27.6037 26.1886 27.7645 25.2959 27.7645H22.4387V32.4883H20.001V19.9872H20ZM25.2055 25.7381C25.6164 25.7381 25.9733 25.6635 26.2771 25.5147C26.5866 25.3597 26.8248 25.143 26.9913 24.8627C27.1577 24.5771 27.2414 24.2466 27.2414 23.8715C27.2414 23.4965 27.1582 23.1626 26.9913 22.8895C26.8243 22.6091 26.5866 22.3948 26.2771 22.2465C25.9733 22.0916 25.6164 22.0145 25.2055 22.0145H22.4373V25.7381H25.2055ZM35.3817 32.7031C34.4647 32.7031 33.6405 32.539 32.9081 32.2118C32.1757 31.8846 31.6012 31.4258 31.1846 30.8365C30.7679 30.2414 30.5536 29.5631 30.5417 28.8006H32.9885C32.9885 29.1579 33.0928 29.476 33.3009 29.7559C33.5152 30.0295 33.8036 30.2438 34.1672 30.3988C34.536 30.5538 34.9531 30.6308 35.4171 30.6308C35.8577 30.6308 36.2504 30.5629 36.5958 30.4256C36.9469 30.2826 37.221 30.0864 37.4172 29.8362C37.6138 29.5861 37.7118 29.3005 37.7118 28.979C37.7118 28.5805 37.5898 28.2466 37.3459 27.9788C37.1077 27.7051 36.7771 27.5267 36.3547 27.443L33.7921 26.9517C33.1908 26.8388 32.667 26.6245 32.2207 26.3088C31.7801 25.9873 31.441 25.5889 31.2028 25.1124C30.9645 24.6302 30.8454 24.0945 30.8454 23.5051C30.8454 22.7785 31.0387 22.1332 31.4257 21.5673C31.8184 21.0014 32.357 20.5618 33.0421 20.2456C33.7323 19.9298 34.5092 19.7725 35.3726 19.7725C36.2361 19.7725 37.0216 19.9274 37.7123 20.2369C38.4088 20.546 38.9537 20.9779 39.3464 21.5319C39.7453 22.0801 39.9477 22.7106 39.9534 23.4248H37.5157C37.5157 23.1157 37.4234 22.8412 37.2387 22.6034C37.0603 22.3657 36.8101 22.1805 36.4887 22.0499C36.1672 21.9127 35.8041 21.8447 35.3994 21.8447C34.9947 21.8447 34.6403 21.9107 34.3188 22.0413C33.9973 22.1719 33.7472 22.3537 33.5687 22.5862C33.3903 22.8129 33.3009 23.0741 33.3009 23.3721C33.3009 23.717 33.4109 24.0093 33.6314 24.2471C33.8514 24.4791 34.1581 24.6345 34.5513 24.7115L37.0335 25.176C37.6587 25.2889 38.2093 25.5185 38.6853 25.8634C39.1675 26.2083 39.5396 26.6403 39.8013 27.1584C40.063 27.6707 40.194 28.2299 40.194 28.8369C40.194 29.587 39.9888 30.2567 39.5779 30.8461C39.167 31.4297 38.5958 31.8851 37.8635 32.2123C37.1311 32.5395 36.3035 32.7035 35.3812 32.7035L35.3817 32.7031Z" fill="white"/>
<path d="M34 41.5H20V44H34V41.5Z" fill="white"/>
</g>
<defs>
<filter id="filter0_d_6179_27267" x="4.75" y="5.35" width="54.5" height="54.5" filterUnits="userSpaceOnUse" color-interpolation-filters="sRGB">
<feFlood flood-opacity="0" result="BackgroundImageFix"/>
<feColorMatrix in="SourceAlpha" type="matrix" values="0 0 0 0 0 0 0 0 0 0 0 0 0 0 0 0 0 0 127 0" result="hardAlpha"/>
<feOffset dy="0.6"/>
<feGaussianBlur stdDeviation="0.625"/>
<feColorMatrix type="matrix" values="0 0 0 0 0 0 0 0 0 0 0 0 0 0 0 0 0 0 0.3 0"/>
<feBlend mode="normal" in2="BackgroundImageFix" result="effect1_dropShadow_6179_27267"/>
<feBlend mode="normal" in="SourceGraphic" in2="effect1_dropShadow_6179_27267" result="shape"/>
</filter>
<linearGradient id="paint0_linear_6179_27267" x1="26.2417" y1="15.4545" x2="57.6105" y2="15.4545" gradientUnits="userSpaceOnUse">
<stop offset="0.35" stop-color="#FF2D90"/>
<stop offset="1" stop-color="#D448F8"/>
</linearGradient>
<linearGradient id="paint1_linear_6179_27267" x1="7.55716" y1="7.54676" x2="56.0859" y2="56.0755" gradientUnits="userSpaceOnUse">
<stop offset="0.07" stop-color="#FF2D90"/>
<stop offset="0.83" stop-color="#7256FF"/>
</linearGradient>
</defs>
</svg>
