<svg width="512" height="512" viewBox="0 0 512 512" fill="none" xmlns="http://www.w3.org/2000/svg">
<g filter="url(#filter0_d_4372_12356)">
<path d="M462 199.818V146C462 92.9807 419.019 50 366 50L199.818 50V199.818L462 199.818Z" fill="url(#paint0_linear_4372_12356)"/>
<path d="M199.818 462V237.273H50.0002V366C50.0002 419.019 92.9809 462 146 462H199.818Z" fill="#D249FC"/>
<path d="M365.996 461.996C419.017 461.998 462 419.017 462 365.996V199.822L199.818 50H146C92.9807 50 50 92.9807 50 146V237.273L199.979 461.989L365.996 461.996Z" fill="url(#paint1_linear_4372_12356)"/>
<path d="M388 124H124V388H388V124Z" fill="black"/>
<path d="M159.87 159.993H201.941C208.8 159.993 214.845 161.253 220.072 163.773C225.299 166.293 229.312 169.837 232.113 174.412C234.959 178.987 236.384 184.282 236.384 190.3C236.384 196.319 234.937 201.779 232.046 206.399C229.199 211.019 225.116 214.615 219.794 217.18C214.522 219.7 208.383 220.96 201.386 220.96H178.987V257.991H159.878V159.993H159.87ZM200.677 205.075C203.898 205.075 206.696 204.49 209.077 203.324C211.503 202.109 213.371 200.41 214.676 198.213C215.981 195.974 216.637 193.383 216.637 190.443C216.637 187.503 215.985 184.885 214.676 182.744C213.367 180.547 211.503 178.867 209.077 177.704C206.696 176.489 203.898 175.885 200.677 175.885H178.976V205.075H200.677ZM280.45 259.674C273.261 259.674 266.8 258.388 261.059 255.823C255.318 253.258 250.814 249.662 247.548 245.042C244.282 240.377 242.602 235.06 242.508 229.082H261.689C261.689 231.884 262.507 234.377 264.138 236.571C265.818 238.716 268.079 240.396 270.929 241.611C273.82 242.826 277.09 243.43 280.728 243.43C284.181 243.43 287.26 242.897 289.967 241.821C292.72 240.7 294.869 239.162 296.406 237.201C297.947 235.24 298.716 233.001 298.716 230.481C298.716 227.357 297.76 224.74 295.847 222.64C293.98 220.495 291.389 219.096 288.077 218.44L267.989 214.589C263.275 213.704 259.169 212.024 255.67 209.549C252.217 207.029 249.558 203.905 247.69 200.17C245.823 196.39 244.889 192.19 244.889 187.57C244.889 181.874 246.404 176.815 249.438 172.379C252.517 167.943 256.739 164.497 262.109 162.018C267.52 159.543 273.61 158.309 280.379 158.309C287.147 158.309 293.305 159.524 298.72 161.951C304.18 164.373 308.451 167.759 311.53 172.102C314.657 176.399 316.243 181.342 316.288 186.94H297.179C297.179 184.518 296.455 182.365 295.007 180.502C293.609 178.638 291.647 177.187 289.127 176.163C286.607 175.087 283.761 174.554 280.589 174.554C277.416 174.554 274.638 175.072 272.118 176.095C269.598 177.119 267.636 178.544 266.238 180.367C264.839 182.144 264.138 184.192 264.138 186.528C264.138 189.231 265 191.523 266.729 193.386C268.454 195.205 270.858 196.424 273.94 197.028L293.399 200.669C298.3 201.554 302.616 203.354 306.347 206.058C310.127 208.761 313.045 212.147 315.096 216.209C317.147 220.225 318.175 224.609 318.175 229.367C318.175 235.247 316.566 240.497 313.345 245.117C310.124 249.692 305.646 253.262 299.905 255.827C294.164 258.392 287.676 259.678 280.446 259.678L280.45 259.674Z" fill="white"/>
<path d="M265 335H160V352H265V335Z" fill="white"/>
</g>
<defs>
<filter id="filter0_d_4372_12356" x="40" y="45" width="432" height="432" filterUnits="userSpaceOnUse" color-interpolation-filters="sRGB">
<feFlood flood-opacity="0" result="BackgroundImageFix"/>
<feColorMatrix in="SourceAlpha" type="matrix" values="0 0 0 0 0 0 0 0 0 0 0 0 0 0 0 0 0 0 127 0" result="hardAlpha"/>
<feOffset dy="5"/>
<feGaussianBlur stdDeviation="5"/>
<feColorMatrix type="matrix" values="0 0 0 0 0 0 0 0 0 0 0 0 0 0 0 0 0 0 0.3 0"/>
<feBlend mode="normal" in2="BackgroundImageFix" result="effect1_dropShadow_4372_12356"/>
<feBlend mode="normal" in="SourceGraphic" in2="effect1_dropShadow_4372_12356" result="shape"/>
</filter>
<linearGradient id="paint0_linear_4372_12356" x1="210.377" y1="124.909" x2="458.914" y2="124.909" gradientUnits="userSpaceOnUse">
<stop offset="0.35" stop-color="#FF2D90"/>
<stop offset="1" stop-color="#D448F8"/>
</linearGradient>
<linearGradient id="paint1_linear_4372_12356" x1="62.3375" y1="62.2551" x2="446.835" y2="446.752" gradientUnits="userSpaceOnUse">
<stop offset="0.07" stop-color="#FF2D90"/>
<stop offset="0.83" stop-color="#7256FF"/>
</linearGradient>
</defs>
</svg>
