<svg width="32" height="32" viewBox="0 0 32 32" fill="none" xmlns="http://www.w3.org/2000/svg">
<path d="M16 29.8601L28 22.9211V9.05363L16 2.14062L4 9.05363V9.05412V9.05363V9.05412L16 15.9931V29.8601Z" fill="url(#paint0_linear_1725:1037)"/>
<path d="M28 9.05363L16 2.14062L4 9.05363V9.05412V9.05363V9.05412L16 15.9931L28 9.05363Z" fill="url(#paint1_linear_1725:1037)"/>
<path d="M28 9.05363L16 2.14062L4 9.05363V9.05412V9.05363V9.05412L16 15.9931L28 9.05363Z" fill="url(#paint2_linear_1725:1037)"/>
<path d="M28 9.05363L16 2.14062L4 9.05363V9.05412V9.05363V9.05412L16 15.9931L28 9.05363Z" fill="url(#paint3_linear_1725:1037)"/>
<path d="M4 22.9212V9.05371L16 15.9932L4 22.9212Z" fill="url(#paint4_linear_1725:1037)"/>
<path d="M16 29.8602L28 22.9212V9.05371L16 15.9932V29.8602Z" fill="url(#paint5_linear_1725:1037)"/>
<path d="M16 29.8602L28 22.9212V9.05371L16 15.9932V29.8602Z" fill="url(#paint6_linear_1725:1037)"/>
<path d="M16 29.8602L28 22.9212V9.05371L16 15.9932V29.8602Z" fill="url(#paint7_linear_1725:1037)"/>
<g opacity="0.8">
<path d="M12.779 14.1386L16 16.0005V2.14062L3.98816 9.05761L12.779 14.1386Z" fill="url(#paint8_linear_1725:1037)" style="mix-blend-mode:overlay"/>
</g>
<path d="M16 15.9932L4 22.9212L16 29.8602V15.9932Z" fill="url(#paint9_linear_1725:1037)" style="mix-blend-mode:overlay"/>
<defs>
<linearGradient id="paint0_linear_1725:1037" x1="9.10167" y1="6.55861" x2="29.5807" y2="27.0377" gradientUnits="userSpaceOnUse">
<stop  offset="0" stop-color="#FDB60D"/>
<stop offset="0.54795" stop-color="#FF318C"/>
<stop offset="0.88765" stop-color="#6B57FF"/>
</linearGradient>
<linearGradient id="paint1_linear_1725:1037" x1="13.0385" y1="14.1833" x2="14.3601" y2="11.8942" gradientUnits="userSpaceOnUse">
<stop  offset="0" stop-color="white" stop-opacity="0.6"/>
<stop offset="0.08098" stop-color="#FFC524" stop-opacity="0.4"/>
<stop offset="0.70457" stop-color="#FFC524" stop-opacity="0"/>
</linearGradient>
<linearGradient id="paint2_linear_1725:1037" x1="12.9663" y1="3.7993" x2="14.9357" y2="7.21042" gradientUnits="userSpaceOnUse">
<stop  offset="0" stop-color="#F9ED32" stop-opacity="0.6"/>
<stop offset="0.19796" stop-color="#FFC524" stop-opacity="0.4"/>
<stop offset="0.70457" stop-color="#FFC524" stop-opacity="0"/>
</linearGradient>
<linearGradient id="paint3_linear_1725:1037" x1="19.1937" y1="3.52226" x2="18.3162" y2="5.04208" gradientUnits="userSpaceOnUse">
<stop  offset="0" stop-color="#FDB60D" stop-opacity="0.6"/>
<stop offset="0.23369" stop-color="#FDB60D" stop-opacity="0.4"/>
<stop offset="0.5185" stop-color="#FF318C" stop-opacity="0"/>
</linearGradient>
<linearGradient id="paint4_linear_1725:1037" x1="4.00004" y1="15.9876" x2="23.52" y2="15.9876" gradientUnits="userSpaceOnUse">
<stop offset="0.01477"/>
<stop offset="0.19258"/>
<stop offset="0.57156" stop-color="#6B57FF"/>
<stop offset="0.82576" stop-color="#FF318C"/>
</linearGradient>
<linearGradient id="paint5_linear_1725:1037" x1="16.0001" y1="19.4571" x2="19.2326" y2="19.4571" gradientUnits="userSpaceOnUse">
<stop  offset="0" stop-color="#FFB2FF" stop-opacity="0.6"/>
<stop offset="0.08098" stop-color="#D828FF" stop-opacity="0.4"/>
<stop offset="0.70457" stop-color="#FF318C" stop-opacity="0"/>
</linearGradient>
<linearGradient id="paint6_linear_1725:1037" x1="28.0494" y1="19.4571" x2="24.7479" y2="19.4571" gradientUnits="userSpaceOnUse">
<stop  offset="0" stop-color="#6644FF" stop-opacity="0.8"/>
<stop offset="0.09676" stop-color="#6B57FF" stop-opacity="0.4"/>
<stop offset="0.70457" stop-color="#FF318C" stop-opacity="0"/>
</linearGradient>
<linearGradient id="paint7_linear_1725:1037" x1="25.1777" y1="24.9609" x2="24.2277" y2="23.3155" gradientUnits="userSpaceOnUse">
<stop offset="0.00572" stop-color="#FF318C"/>
<stop offset="0.46934" stop-color="#6B57FF" stop-opacity="0"/>
</linearGradient>
<linearGradient id="paint8_linear_1725:1037" x1="9.99405" y1="2.57367" x2="9.99405" y2="10.7159" gradientUnits="userSpaceOnUse">
<stop offset="0.23873" stop-color="#FF5592" stop-opacity="0.65"/>
<stop offset="0.8289" stop-color="#FF57E4" stop-opacity="0"/>
</linearGradient>
<linearGradient id="paint9_linear_1725:1037" x1="12.8754" y1="10.0833" x2="9.88965" y2="27.0171" gradientUnits="userSpaceOnUse">
<stop offset="0.046628" stop-color="white" stop-opacity="0.86"/>
<stop offset="0.766654" stop-color="#CBCAA4" stop-opacity="0"/>
</linearGradient>
</defs>
</svg>
