<svg width="64" height="64" viewBox="0 0 64 64" fill="none" xmlns="http://www.w3.org/2000/svg">
<path d="M32 59.7193L56 45.8413V18.1063L32 4.28027L8 18.1063V18.1073V18.1063V18.1073L32 31.9853V59.7193Z" fill="url(#paint0_linear_1725:1003)"/>
<path d="M56 18.1063L32 4.28027L8 18.1063V18.1073V18.1063V18.1073L32 31.9853L56 18.1063Z" fill="url(#paint1_linear_1725:1003)"/>
<path d="M56 18.1063L32 4.28027L8 18.1063V18.1073V18.1063V18.1073L32 31.9853L56 18.1063Z" fill="url(#paint2_linear_1725:1003)"/>
<path d="M56 18.1063L32 4.28027L8 18.1063V18.1073V18.1063V18.1073L32 31.9853L56 18.1063Z" fill="url(#paint3_linear_1725:1003)"/>
<path d="M8 45.8414V18.1064L32 31.9854L8 45.8414Z" fill="url(#paint4_linear_1725:1003)"/>
<path d="M32 59.7194L56 45.8414V18.1064L32 31.9854V59.7194Z" fill="url(#paint5_linear_1725:1003)"/>
<path d="M32 59.7194L56 45.8414V18.1064L32 31.9854V59.7194Z" fill="url(#paint6_linear_1725:1003)"/>
<path d="M32 59.7194L56 45.8414V18.1064L32 31.9854V59.7194Z" fill="url(#paint7_linear_1725:1003)"/>
<g opacity="0.8">
<path d="M25.558 28.2762L32.0001 32V4.28027L7.97632 18.1143L25.558 28.2762Z" fill="url(#paint8_linear_1725:1003)" style="mix-blend-mode:overlay"/>
</g>
<path d="M32 31.9854L8 45.8414L32 59.7194V31.9854Z" fill="url(#paint9_linear_1725:1003)" style="mix-blend-mode:overlay"/>
<defs>
<linearGradient id="paint0_linear_1725:1003" x1="18.2033" y1="13.1162" x2="59.1615" y2="54.0744" gradientUnits="userSpaceOnUse">
<stop  offset="0" stop-color="#FDB60D"/>
<stop offset="0.54795" stop-color="#FF318C"/>
<stop offset="0.88765" stop-color="#6B57FF"/>
</linearGradient>
<linearGradient id="paint1_linear_1725:1003" x1="26.0771" y1="28.3655" x2="28.7203" y2="23.7874" gradientUnits="userSpaceOnUse">
<stop  offset="0" stop-color="white" stop-opacity="0.6"/>
<stop offset="0.08098" stop-color="#FFC524" stop-opacity="0.4"/>
<stop offset="0.70457" stop-color="#FFC524" stop-opacity="0"/>
</linearGradient>
<linearGradient id="paint2_linear_1725:1003" x1="25.9326" y1="7.59763" x2="29.8714" y2="14.4199" gradientUnits="userSpaceOnUse">
<stop  offset="0" stop-color="#F9ED32" stop-opacity="0.6"/>
<stop offset="0.19796" stop-color="#FFC524" stop-opacity="0.4"/>
<stop offset="0.70457" stop-color="#FFC524" stop-opacity="0"/>
</linearGradient>
<linearGradient id="paint3_linear_1725:1003" x1="38.3873" y1="7.04354" x2="36.6324" y2="10.0832" gradientUnits="userSpaceOnUse">
<stop  offset="0" stop-color="#FDB60D" stop-opacity="0.6"/>
<stop offset="0.23369" stop-color="#FDB60D" stop-opacity="0.4"/>
<stop offset="0.5185" stop-color="#FF318C" stop-opacity="0"/>
</linearGradient>
<linearGradient id="paint4_linear_1725:1003" x1="8.00009" y1="31.9741" x2="47.04" y2="31.9741" gradientUnits="userSpaceOnUse">
<stop offset="0.01477"/>
<stop offset="0.19258"/>
<stop offset="0.57156" stop-color="#6B57FF"/>
<stop offset="0.82576" stop-color="#FF318C"/>
</linearGradient>
<linearGradient id="paint5_linear_1725:1003" x1="32.0001" y1="38.9131" x2="38.4651" y2="38.9131" gradientUnits="userSpaceOnUse">
<stop  offset="0" stop-color="#FFB2FF" stop-opacity="0.6"/>
<stop offset="0.08098" stop-color="#D828FF" stop-opacity="0.4"/>
<stop offset="0.70457" stop-color="#FF318C" stop-opacity="0"/>
</linearGradient>
<linearGradient id="paint6_linear_1725:1003" x1="56.0988" y1="38.9131" x2="49.4957" y2="38.9131" gradientUnits="userSpaceOnUse">
<stop  offset="0" stop-color="#6644FF" stop-opacity="0.8"/>
<stop offset="0.09676" stop-color="#6B57FF" stop-opacity="0.4"/>
<stop offset="0.70457" stop-color="#FF318C" stop-opacity="0"/>
</linearGradient>
<linearGradient id="paint7_linear_1725:1003" x1="50.3554" y1="49.9209" x2="48.4554" y2="46.6301" gradientUnits="userSpaceOnUse">
<stop offset="0.00572" stop-color="#FF318C"/>
<stop offset="0.46934" stop-color="#6B57FF" stop-opacity="0"/>
</linearGradient>
<linearGradient id="paint8_linear_1725:1003" x1="19.9881" y1="5.14637" x2="19.9881" y2="21.4309" gradientUnits="userSpaceOnUse">
<stop offset="0.23873" stop-color="#FF5592" stop-opacity="0.65"/>
<stop offset="0.8289" stop-color="#FF57E4" stop-opacity="0"/>
</linearGradient>
<linearGradient id="paint9_linear_1725:1003" x1="25.7509" y1="20.1656" x2="19.7793" y2="54.0332" gradientUnits="userSpaceOnUse">
<stop offset="0.046628" stop-color="white" stop-opacity="0.86"/>
<stop offset="0.766654" stop-color="#CBCAA4" stop-opacity="0"/>
</linearGradient>
</defs>
</svg>
