<svg width="24" height="24" viewBox="0 0 24 24" fill="none" xmlns="http://www.w3.org/2000/svg">
<path d="M12 23L22 17.4928V6.48661L12 1L2 6.48661V6.487V6.48661V6.487L12 11.9942V23Z" fill="url(#paint0_linear_1725:1054)"/>
<path d="M22 6.48661L12 1L2 6.48661V6.487V6.48661V6.487L12 11.9942L22 6.48661Z" fill="url(#paint1_linear_1725:1054)"/>
<path d="M22 6.48661L12 1L2 6.48661V6.487V6.48661V6.487L12 11.9942L22 6.48661Z" fill="url(#paint2_linear_1725:1054)"/>
<path d="M22 6.48661L12 1L2 6.48661V6.487V6.48661V6.487L12 11.9942L22 6.48661Z" fill="url(#paint3_linear_1725:1054)"/>
<path d="M2 17.4925V6.48633L12 11.994L2 17.4925Z" fill="url(#paint4_linear_1725:1054)"/>
<path d="M12 22.9997L22 17.4925V6.48633L12 11.994V22.9997Z" fill="url(#paint5_linear_1725:1054)"/>
<path d="M12 22.9997L22 17.4925V6.48633L12 11.994V22.9997Z" fill="url(#paint6_linear_1725:1054)"/>
<path d="M12 22.9997L22 17.4925V6.48633L12 11.994V22.9997Z" fill="url(#paint7_linear_1725:1054)"/>
<g opacity="0.8">
<path d="M9.31847 10.513L12 11.9893V1L2 6.48437L9.31847 10.513Z" fill="url(#paint8_linear_1725:1054)" style="mix-blend-mode:overlay"/>
</g>
<path d="M12 11.9941L2 17.4927L12 22.9999V11.9941Z" fill="url(#paint9_linear_1725:1054)" style="mix-blend-mode:overlay"/>
<defs>
<linearGradient id="paint0_linear_1725:1054" x1="6.25139" y1="4.5064" x2="22.4856" y2="21.552" gradientUnits="userSpaceOnUse">
<stop stop-color="#FDB60D"/>
<stop offset="0.54795" stop-color="#FF318C"/>
<stop offset="0.88765" stop-color="#6B57FF"/>
</linearGradient>
<linearGradient id="paint1_linear_1725:1054" x1="9.53211" y1="10.5578" x2="10.5549" y2="8.69784" gradientUnits="userSpaceOnUse">
<stop stop-color="white" stop-opacity="0.6"/>
<stop offset="0.08098" stop-color="#FFC524" stop-opacity="0.4"/>
<stop offset="0.70457" stop-color="#FFC524" stop-opacity="0"/>
</linearGradient>
<linearGradient id="paint2_linear_1725:1054" x1="9.4719" y1="2.31644" x2="10.996" y2="5.08812" gradientUnits="userSpaceOnUse">
<stop stop-color="#F9ED32" stop-opacity="0.6"/>
<stop offset="0.19796" stop-color="#FFC524" stop-opacity="0.4"/>
<stop offset="0.70457" stop-color="#FFC524" stop-opacity="0"/>
</linearGradient>
<linearGradient id="paint3_linear_1725:1054" x1="14.6614" y1="2.09656" x2="13.9823" y2="3.33148" gradientUnits="userSpaceOnUse">
<stop stop-color="#FDB60D" stop-opacity="0.6"/>
<stop offset="0.23369" stop-color="#FDB60D" stop-opacity="0.4"/>
<stop offset="0.5185" stop-color="#FF318C" stop-opacity="0"/>
</linearGradient>
<linearGradient id="paint4_linear_1725:1054" x1="2.00004" y1="11.9895" x2="18.2667" y2="11.9895" gradientUnits="userSpaceOnUse">
<stop offset="0.01477"/>
<stop offset="0.19258"/>
<stop offset="0.57156" stop-color="#6B57FF"/>
<stop offset="0.82576" stop-color="#FF318C"/>
</linearGradient>
<linearGradient id="paint5_linear_1725:1054" x1="12" y1="14.7431" x2="14.6938" y2="14.7431" gradientUnits="userSpaceOnUse">
<stop stop-color="#FFB2FF" stop-opacity="0.6"/>
<stop offset="0.08098" stop-color="#D828FF" stop-opacity="0.4"/>
<stop offset="0.70457" stop-color="#FF318C" stop-opacity="0"/>
</linearGradient>
<linearGradient id="paint6_linear_1725:1054" x1="22.0411" y1="14.7431" x2="19.2899" y2="14.7431" gradientUnits="userSpaceOnUse">
<stop stop-color="#6644FF" stop-opacity="0.8"/>
<stop offset="0.09676" stop-color="#6B57FF" stop-opacity="0.4"/>
<stop offset="0.70457" stop-color="#FF318C" stop-opacity="0"/>
</linearGradient>
<linearGradient id="paint7_linear_1725:1054" x1="19.6481" y1="19.1113" x2="18.9129" y2="17.7744" gradientUnits="userSpaceOnUse">
<stop offset="0.00572" stop-color="#FF318C"/>
<stop offset="0.46934" stop-color="#6B57FF" stop-opacity="0"/>
</linearGradient>
<linearGradient id="paint8_linear_1725:1054" x1="6.99996" y1="1.34336" x2="6.99996" y2="7.79922" gradientUnits="userSpaceOnUse">
<stop offset="0.23873" stop-color="#FF5592" stop-opacity="0.65"/>
<stop offset="0.8289" stop-color="#FF57E4" stop-opacity="0"/>
</linearGradient>
<linearGradient id="paint9_linear_1725:1054" x1="9.3962" y1="7.30367" x2="7.13294" y2="20.7812" gradientUnits="userSpaceOnUse">
<stop offset="0.046628" stop-color="white" stop-opacity="0.86"/>
<stop offset="0.766654" stop-color="#CBCAA4" stop-opacity="0"/>
</linearGradient>
</defs>
</svg>
