<svg width="128" height="128" viewBox="0 0 128 128" fill="none" xmlns="http://www.w3.org/2000/svg">
<path d="M64 119.439L112 91.6825V36.2125L64 8.56055L16 36.2125V36.2145V36.2125V36.2145L64 63.9705V119.439Z" fill="url(#paint0_linear_1725:969)"/>
<path d="M112 36.2125L64 8.56055L16 36.2125V36.2145V36.2125V36.2145L64 63.9705L112 36.2125Z" fill="url(#paint1_linear_1725:969)"/>
<path d="M112 36.2125L64 8.56055L16 36.2125V36.2145V36.2125V36.2145L64 63.9705L112 36.2125Z" fill="url(#paint2_linear_1725:969)"/>
<path d="M112 36.2125L64 8.56055L16 36.2125V36.2145V36.2125V36.2145L64 63.9705L112 36.2125Z" fill="url(#paint3_linear_1725:969)"/>
<path d="M16 91.6829V36.2129L64 63.9709L16 91.6829Z" fill="url(#paint4_linear_1725:969)"/>
<path d="M64 119.439L112 91.6829V36.2129L64 63.9709V119.439Z" fill="url(#paint5_linear_1725:969)"/>
<path d="M64 119.439L112 91.6829V36.2129L64 63.9709V119.439Z" fill="url(#paint6_linear_1725:969)"/>
<path d="M64 119.439L112 91.6829V36.2129L64 63.9709V119.439Z" fill="url(#paint7_linear_1725:969)"/>
<g opacity="0.8">
<path d="M51.1287 56.5049L64 63.9452V8.56055L16 36.2011L51.1287 56.5049Z" fill="url(#paint8_linear_1725:969)" style="mix-blend-mode:overlay"/>
</g>
<path d="M64 63.9707L16 91.6827L64 119.439V63.9707Z" fill="url(#paint9_linear_1725:969)" style="mix-blend-mode:overlay"/>
<defs>
<linearGradient id="paint0_linear_1725:969" x1="36.4067" y1="26.2325" x2="118.323" y2="108.149" gradientUnits="userSpaceOnUse">
<stop  offset="0" stop-color="#FDB60D"/>
<stop offset="0.54795" stop-color="#FF318C"/>
<stop offset="0.88765" stop-color="#6B57FF"/>
</linearGradient>
<linearGradient id="paint1_linear_1725:969" x1="52.1541" y1="56.7311" x2="57.4406" y2="47.5747" gradientUnits="userSpaceOnUse">
<stop  offset="0" stop-color="white" stop-opacity="0.6"/>
<stop offset="0.08098" stop-color="#FFC524" stop-opacity="0.4"/>
<stop offset="0.70457" stop-color="#FFC524" stop-opacity="0"/>
</linearGradient>
<linearGradient id="paint2_linear_1725:969" x1="51.8651" y1="15.1953" x2="59.7428" y2="28.8397" gradientUnits="userSpaceOnUse">
<stop  offset="0" stop-color="#F9ED32" stop-opacity="0.6"/>
<stop offset="0.19796" stop-color="#FFC524" stop-opacity="0.4"/>
<stop offset="0.70457" stop-color="#FFC524" stop-opacity="0"/>
</linearGradient>
<linearGradient id="paint3_linear_1725:969" x1="76.7747" y1="14.0871" x2="73.2648" y2="20.1664" gradientUnits="userSpaceOnUse">
<stop  offset="0" stop-color="#FDB60D" stop-opacity="0.6"/>
<stop offset="0.23369" stop-color="#FDB60D" stop-opacity="0.4"/>
<stop offset="0.5185" stop-color="#FF318C" stop-opacity="0"/>
</linearGradient>
<linearGradient id="paint4_linear_1725:969" x1="16.0002" y1="63.9483" x2="94.0799" y2="63.9483" gradientUnits="userSpaceOnUse">
<stop offset="0.01477"/>
<stop offset="0.19258"/>
<stop offset="0.57156" stop-color="#6B57FF"/>
<stop offset="0.82576" stop-color="#FF318C"/>
</linearGradient>
<linearGradient id="paint5_linear_1725:969" x1="64.0002" y1="77.8263" x2="76.9303" y2="77.8263" gradientUnits="userSpaceOnUse">
<stop  offset="0" stop-color="#FFB2FF" stop-opacity="0.6"/>
<stop offset="0.08098" stop-color="#D828FF" stop-opacity="0.4"/>
<stop offset="0.70457" stop-color="#FF318C" stop-opacity="0"/>
</linearGradient>
<linearGradient id="paint6_linear_1725:969" x1="112.198" y1="77.8263" x2="98.9914" y2="77.8263" gradientUnits="userSpaceOnUse">
<stop  offset="0" stop-color="#6644FF" stop-opacity="0.8"/>
<stop offset="0.09676" stop-color="#6B57FF" stop-opacity="0.4"/>
<stop offset="0.70457" stop-color="#FF318C" stop-opacity="0"/>
</linearGradient>
<linearGradient id="paint7_linear_1725:969" x1="100.711" y1="99.8417" x2="96.9109" y2="93.2602" gradientUnits="userSpaceOnUse">
<stop offset="0.00572" stop-color="#FF318C"/>
<stop offset="0.46934" stop-color="#6B57FF" stop-opacity="0"/>
</linearGradient>
<linearGradient id="paint8_linear_1725:969" x1="39.9998" y1="10.291" x2="39.9998" y2="42.8279" gradientUnits="userSpaceOnUse">
<stop offset="0.23873" stop-color="#FF5592" stop-opacity="0.65"/>
<stop offset="0.8289" stop-color="#FF57E4" stop-opacity="0"/>
</linearGradient>
<linearGradient id="paint9_linear_1725:969" x1="51.5018" y1="40.3311" x2="39.5586" y2="108.066" gradientUnits="userSpaceOnUse">
<stop offset="0.046628" stop-color="white" stop-opacity="0.86"/>
<stop offset="0.766654" stop-color="#CBCAA4" stop-opacity="0"/>
</linearGradient>
</defs>
</svg>
