<svg width="128" height="128" viewBox="0 0 128 128" fill="none" xmlns="http://www.w3.org/2000/svg">
<g clip-path="url(#clip0_4372_11289)">
<path d="M11.6377 96.1048L11.6412 119.856C11.6412 124.354 15.288 128 19.7866 128H42.7999C45.1772 128 47.437 126.961 48.9846 125.156L114.403 48.8332C115.668 47.3566 116.364 45.4761 116.364 43.5317V19.7807C116.364 15.2821 112.717 11.6353 108.218 11.6353H85.2016C82.8243 11.6353 80.5645 12.6744 79.0169 14.4792L13.5984 90.8021C12.3324 92.2787 11.6377 94.1592 11.6377 96.1048Z" fill="#00D886"/>
<path d="M11.6362 98.9617V119.855C11.6362 124.353 15.2831 128 19.7817 128H45.967C46.3522 128 46.7373 127.972 47.119 127.919L121.006 117.365C125.02 116.791 128 113.355 128 109.301V77.9545C128 73.4548 124.352 69.8079 119.852 69.8091L82.7751 69.8184C81.9001 69.8184 81.0308 69.9592 80.2012 70.2361L17.2054 91.2351C13.8797 92.3441 11.6362 95.4568 11.6362 98.9628V98.9617Z" fill="url(#paint0_linear_4372_11289)"/>
<path d="M0 8.14545V76.082C0 79.3402 1.94211 82.2854 4.93615 83.5689L79.9174 115.705C80.9309 116.139 82.0236 116.364 83.1267 116.364H119.855C124.353 116.364 128 112.717 128 108.218V72.2863C128 70.6769 127.523 69.1037 126.629 67.7644L83.8237 3.62705C82.3121 1.36262 79.7708 0.00349091 77.049 0.00349091L8.14545 0C3.64684 0 0 3.64684 0 8.14545Z" fill="url(#paint1_linear_4372_11289)"/>
<path d="M105 23H23V105H105V23Z" fill="black"/>
<path d="M66 89H34V94H66V89Z" fill="white"/>
<path d="M34.3398 34.0482H47.5602C49.7155 34.0482 51.615 34.4442 53.2577 35.236C54.9004 36.0279 56.1613 37.1415 57.0415 38.5791C57.9359 40.0168 58.3837 41.6806 58.3837 43.572C58.3837 45.4633 57.9288 47.179 57.0203 48.6308C56.1259 50.0826 54.8426 51.2126 53.1705 52.0187C51.5137 52.8105 49.5847 53.2065 47.3858 53.2065H40.3473V64.8431H34.3422V34.0482H34.3398ZM47.1631 48.2148C48.1753 48.2148 49.0544 48.031 49.8027 47.6645C50.5651 47.2827 51.1519 46.7489 51.562 46.0584C51.9721 45.3549 52.1783 44.5406 52.1783 43.6167C52.1783 42.6929 51.9733 41.8704 51.562 41.1975C51.1507 40.507 50.5651 39.9791 49.8027 39.6138C49.0544 39.232 48.1753 39.0422 47.1631 39.0422H40.3437V48.2148H47.1631ZM75.7732 65.3722C72.826 65.3722 70.157 64.6816 67.766 63.3041C65.3751 61.91 63.4991 60.0046 62.1345 57.5854C60.7711 55.152 60.0888 52.4382 60.0888 49.4462C60.0888 46.4543 60.7711 43.7487 62.1345 41.3295C63.4979 38.8961 65.3751 36.9883 67.766 35.6108C70.1558 34.2167 72.8248 33.5215 75.7732 33.5215C78.2655 33.5215 80.5539 33.9834 82.6361 34.9073C84.7183 35.8311 86.4482 37.1285 87.8269 38.8007C89.2198 40.4587 90.1507 42.3641 90.6209 44.5194H84.3295C83.9182 43.4058 83.3031 42.4301 82.4817 41.5934C81.6745 40.7438 80.7 40.0898 79.5558 39.6361C78.4116 39.1825 77.1649 38.9539 75.8168 38.9539C73.9985 38.9539 72.3559 39.4075 70.8899 40.3173C69.4228 41.227 68.2727 42.4808 67.4361 44.0787C66.6147 45.6624 66.2047 47.4524 66.2047 49.4462C66.2047 51.4401 66.6147 53.2383 67.4361 54.835C68.2715 56.4188 69.4228 57.6643 70.8899 58.574C72.3559 59.4837 73.9985 59.9374 75.8168 59.9374C77.166 59.9374 78.4128 59.7088 79.5558 59.2551C80.6988 58.8015 81.6745 58.1557 82.4817 57.319C83.3031 56.4694 83.9182 55.4855 84.3295 54.3719H90.6209C90.1519 56.5272 89.2198 58.4409 87.8269 60.113C86.4482 61.771 84.7183 63.0602 82.6361 63.984C80.5539 64.9079 78.2655 65.3698 75.7732 65.3698V65.3722Z" fill="white"/>
</g>
<defs>
<linearGradient id="paint0_linear_4372_11289" x1="15.2423" y1="129.435" x2="122.495" y2="79.7081" gradientUnits="userSpaceOnUse">
<stop offset="0.1" stop-color="#00D886"/>
<stop offset="0.59" stop-color="#F0EB18"/>
</linearGradient>
<linearGradient id="paint1_linear_4372_11289" x1="120.037" y1="119.556" x2="2.62633" y2="2.14459" gradientUnits="userSpaceOnUse">
<stop offset="0.3" stop-color="#F0EB18"/>
<stop offset="0.7" stop-color="#00C4F4"/>
</linearGradient>
<clipPath id="clip0_4372_11289">
<rect width="128" height="128" fill="white"/>
</clipPath>
</defs>
</svg>
