<svg width="128" height="128" viewBox="0 0 128 128" fill="none" xmlns="http://www.w3.org/2000/svg">
<g filter="url(#filter0_dd_6180_45835)">
<rect x="16" y="79" width="96" height="32" rx="16" fill="#FFC94D"/>
<path d="M29 88H39.1155V90.46H31.7181V93.77H38.4385V96.17H31.7181V99.54H39.3147V102H29V88Z" fill="black"/>
<path d="M46.3011 88H49.3179L54.4752 102H51.6775L50.5624 98.78H45.1761L44.1406 102H41.2832L46.3011 88ZM49.8356 96.62L47.9838 91.36L47.7747 90.47L47.5755 91.36L45.8432 96.62H49.8356Z" fill="black"/>
<path d="M57.068 88H63.0717C64.0606 88 64.9268 88.18 65.6702 88.54C66.4136 88.9 66.9878 89.41 67.3927 90.07C67.7976 90.73 68 91.49 68 92.35C68 93.2233 67.7942 93.9933 67.3827 94.66C66.9712 95.32 66.3871 95.8333 65.6304 96.2C64.8804 96.5667 64.0009 96.75 62.992 96.75H59.8558V102H57.068V88ZM62.8825 94.43C63.3338 94.43 63.7288 94.3467 64.0673 94.18C64.4058 94.0133 64.6647 93.7733 64.8439 93.46C65.0297 93.1467 65.1226 92.78 65.1226 92.36C65.1226 91.9467 65.0297 91.5867 64.8439 91.28C64.6647 90.9733 64.4058 90.7367 64.0673 90.57C63.7288 90.4033 63.3338 90.32 62.8825 90.32H59.8558V94.43H62.8825Z" fill="black"/>
<path d="M75 78.9998L96.0001 78.9999C104.837 78.9999 112 86.1633 112 94.9999C112 103.836 104.837 111 95.9999 111L75 111V94.7498V78.9998Z" fill="white"/>
<g clip-path="url(#clip0_6180_45835)">
<path d="M102 105H98.5855C98.5855 95.8548 91.1452 88.4145 82 88.4145V85C93.028 85 102 93.972 102 105Z" fill="#1A1A1A"/>
<path d="M96.1643 105H92.7497C92.7497 99.0723 87.9274 94.25 82 94.25V90.8354C89.8102 90.8354 96.1643 97.1895 96.1643 105Z" fill="#1A1A1A"/>
<path d="M90.3286 105H86.914C86.914 102.29 84.7096 100.086 82 100.086V96.6714C86.5924 96.6714 90.3286 100.408 90.3286 105Z" fill="#1A1A1A"/>
</g>
</g>
<defs>
<filter id="filter0_dd_6180_45835" x="12" y="76.9998" width="104" height="40.0002" filterUnits="userSpaceOnUse" color-interpolation-filters="sRGB">
<feFlood flood-opacity="0" result="BackgroundImageFix"/>
<feColorMatrix in="SourceAlpha" type="matrix" values="0 0 0 0 0 0 0 0 0 0 0 0 0 0 0 0 0 0 127 0" result="hardAlpha"/>
<feOffset dy="2"/>
<feGaussianBlur stdDeviation="2"/>
<feColorMatrix type="matrix" values="0 0 0 0 0 0 0 0 0 0 0 0 0 0 0 0 0 0 0.3 0"/>
<feBlend mode="normal" in2="BackgroundImageFix" result="effect1_dropShadow_6180_45835"/>
<feColorMatrix in="SourceAlpha" type="matrix" values="0 0 0 0 0 0 0 0 0 0 0 0 0 0 0 0 0 0 127 0" result="hardAlpha"/>
<feOffset dy="0.5"/>
<feGaussianBlur stdDeviation="0.5"/>
<feColorMatrix type="matrix" values="0 0 0 0 0 0 0 0 0 0 0 0 0 0 0 0 0 0 0.25 0"/>
<feBlend mode="normal" in2="effect1_dropShadow_6180_45835" result="effect2_dropShadow_6180_45835"/>
<feBlend mode="normal" in="SourceGraphic" in2="effect2_dropShadow_6180_45835" result="shape"/>
</filter>
<clipPath id="clip0_6180_45835">
<rect width="20" height="20" fill="white" transform="translate(82 85)"/>
</clipPath>
</defs>
</svg>
