<!-- Copyright © 2000–2024 JetBrains s.r.o. -->
<svg width="48" height="48" viewBox="0 0 48 48" xmlns="http://www.w3.org/2000/svg">
  <path fill="#6B57FF" d="M12.338 4.5H3.142a3.09 3.09 0 0 0-3.09 3.143l.128 8.28a3.12 3.12 0 0 0 1.08 2.302l28.62 24.533c.563.48 1.275.742 2.018.742h8.512a3.095 3.095 0 0 0 3.09-3.09v-8.257a3.07 3.07 0 0 0-1.057-2.325L14.378 5.265a3.1 3.1 0 0 0-2.04-.765"/>
  <path fill="url(#a)" d="M11.243 4.5H3.09A3.095 3.095 0 0 0 0 7.59v9.427c0 .15 0 .3.03.45l4.087 27.886A3.1 3.1 0 0 0 7.178 48h11.55a3.1 3.1 0 0 0 3.098-3.097V31.028a3.6 3.6 0 0 0-.15-.938L14.19 6.653A3.1 3.1 0 0 0 11.243 4.5"/>
  <path fill="url(#b)" d="M44.91 0H19.313c-1.245 0-2.37.743-2.85 1.89L4.612 29.955c-.165.39-.248.81-.24 1.23l.112 13.747A3.09 3.09 0 0 0 7.575 48h13.253a3.1 3.1 0 0 0 1.695-.51l24.082-15.833A3.09 3.09 0 0 0 48 29.078V3.09A3.095 3.095 0 0 0 44.91 0"/>
  <path d="M39 43.5v-30l-9-9H9v39z"/>
  <path fill="#fff" d="M26.25 13.5h-4.5c-.825 0-1.5-.675-1.5-1.5s.675-1.5 1.5-1.5h4.5c.825 0 1.5.675 1.5 1.5s-.675 1.5-1.5 1.5m6.338 5.97a2.24 2.24 0 0 1-.383.968l-.892 1.252a8.16 8.16 0 0 1 .937 3.81A8.254 8.254 0 0 1 24 33.75c-4.552 0-8.25-3.697-8.25-8.25 0-4.552 3.698-8.25 8.25-8.25a8.25 8.25 0 0 1 3.81.938l1.253-.893c.292-.202.622-.337.967-.39a10.44 10.44 0 0 0-6.022-1.912c-5.798 0-10.5 4.702-10.5 10.5 0 5.797 4.702 10.5 10.5 10.5 5.797 0 10.5-4.703 10.5-10.5 0-2.25-.713-4.328-1.913-6.03z"/>
  <path fill="#fff" d="m29.932 18.517-7.23 5.145a2 2 0 0 0-.285.248 2.25 2.25 0 0 0 3.18 3.18c.09-.09.173-.188.248-.285l5.145-7.23a.75.75 0 0 0-.083-.968.744.744 0 0 0-.967-.082z"/>
  <defs>
    <linearGradient id="a" x1="-.292" x2="18.293" y1="5.753" y2="45.847" gradientUnits="userSpaceOnUse">
      <stop offset=".18" stop-color="#6B57FF"/>
      <stop offset=".54" stop-color="#FF2358"/>
    </linearGradient>
    <linearGradient id="b" x1="3.24" x2="47.19" y1="44.947" y2="1.005" gradientUnits="userSpaceOnUse">
      <stop offset=".12" stop-color="#FF2358"/>
      <stop offset=".92" stop-color="#FF45ED"/>
    </linearGradient>
  </defs>
</svg>
