<!-- Copyright © 2000–2024 JetBrains s.r.o. -->
<svg width="24" height="24" viewBox="0 0 24 24" xmlns="http://www.w3.org/2000/svg">
  <path fill="#6B57FF" d="M6.169 2.25H1.57c-.862 0-1.56.709-1.545 1.571l.064 4.14c.008.443.206.863.54 1.152l14.31 12.266c.281.24.638.371 1.009.371h4.256c.851 0 1.545-.694 1.545-1.545v-4.129c0-.446-.191-.87-.529-1.162L7.19 2.633a1.55 1.55 0 0 0-1.02-.383"/>
  <path fill="url(#a)" d="M5.621 2.25H1.545C.694 2.25 0 2.944 0 3.795v4.714c0 .075 0 .15.015.225l2.044 13.942A1.55 1.55 0 0 0 3.589 24h5.775a1.55 1.55 0 0 0 1.548-1.549v-6.937a1.8 1.8 0 0 0-.075-.469L7.096 3.326A1.55 1.55 0 0 0 5.621 2.25"/>
  <path fill="url(#b)" d="M22.455 0H9.656c-.622 0-1.185.371-1.425.945L2.306 14.977a1.5 1.5 0 0 0-.12.615l.057 6.874A1.545 1.545 0 0 0 3.788 24h6.626c.3 0 .596-.09.847-.255l12.042-7.916c.434-.285.697-.773.697-1.29V1.545C24 .694 23.306 0 22.455 0"/>
  <path d="M19.5 21.75v-15L15 2.25H4.5v19.5z"/>
  <path fill="#fff" d="M13.125 6.75h-2.25a.75.75 0 0 1-.75-.75c0-.412.338-.75.75-.75h2.25c.412 0 .75.338.75.75s-.338.75-.75.75m3.169 2.985a1.1 1.1 0 0 1-.192.484l-.446.626c.3.57.469 1.219.469 1.905A4.127 4.127 0 0 1 12 16.875a4.127 4.127 0 0 1-4.125-4.125A4.127 4.127 0 0 1 12 8.625c.686 0 1.335.172 1.905.469l.626-.447c.146-.1.311-.168.484-.195a5.2 5.2 0 0 0-3.011-.956 5.251 5.251 0 0 0 0 10.5 5.25 5.25 0 0 0 5.25-5.25 5.2 5.2 0 0 0-.957-3.015z"/>
  <path fill="#fff" d="m14.966 9.259-3.615 2.572a1 1 0 0 0-.142.124 1.125 1.125 0 1 0 1.713 1.447l2.573-3.615a.377.377 0 0 0-.525-.525z"/>
  <defs>
    <linearGradient id="a" x1="-.146" x2="9.146" y1="2.876" y2="22.924" gradientUnits="userSpaceOnUse">
      <stop offset=".18" stop-color="#6B57FF"/>
      <stop offset=".54" stop-color="#FF2358"/>
    </linearGradient>
    <linearGradient id="b" x1="1.62" x2="23.595" y1="22.474" y2=".502" gradientUnits="userSpaceOnUse">
      <stop offset=".12" stop-color="#FF2358"/>
      <stop offset=".92" stop-color="#FF45ED"/>
    </linearGradient>
  </defs>
</svg>
