<!-- Copyright © 2000–2024 JetBrains s.r.o. -->
<svg width="16" height="16" viewBox="0 0 16 16" xmlns="http://www.w3.org/2000/svg">
  <path fill="#00C4F4" d="M0 0h16v16H0z"/>
  <path d="M1 1h14v14H1z"/>
  <path fill="#fff" d="M8 12H3v1h5zM3 3h1.9c1.53 0 2.6 1.08 2.6 2.49C7.5 6.91 6.44 8 4.9 8H3zm1.07 1v3.01h.83c.88 0 1.47-.61 1.47-1.49C6.37 4.62 5.78 4 4.9 4zm5.97-1c1.19 0 1.91.71 1.91 1.73 0 1.17-.9 1.77-2.02 1.77h-.84V8h-1.1V3zm-.02 2.52c.55 0 .87-.33.87-.76 0-.51-.34-.77-.89-.77h-.85v1.53z"/>
</svg>
