<!-- Copyright © 2000–2024 JetBrains s.r.o. -->
<svg width="64" height="64" viewBox="0 0 64 64" xmlns="http://www.w3.org/2000/svg">
  <path fill="url(#a)" d="M0 4.12v34.13c0 1.66.99 3.16 2.52 3.8l37.42 15.8c.52.22 1.08.33 1.64.32l18.33-.15c2.26-.01 4.09-1.86 4.09-4.12V36.23c0-.8-.24-1.59-.68-2.26L42.21 1.86A4.12 4.12 0 0 0 38.77 0H4.12C1.85 0 0 1.85 0 4.12"/>
  <path fill="url(#b)" d="M6 49.01v10.87C6 62.15 7.85 64 10.12 64h12.57c.2 0 .4-.01.6-.04l37.18-5.45A4.13 4.13 0 0 0 64 54.43v-15.4c0-2.28-1.85-4.13-4.13-4.13h-18.5c-.43.01-.85.08-1.25.2L8.87 45.08A4.13 4.13 0 0 0 6 49.01"/>
  <path fill="#FF45ED" d="M6 47.55v12.26c0 2.3 1.89 4.16 4.19 4.12L21 64c1.18-.02 2.53-.79 3.3-1.68l32.71-38.16c.64-.75.99-1.7.99-2.69V10.12C58 7.85 56.15 6 53.88 6H42.87c-1.19 0-2.32.51-3.1 1.41L7.02 44.83C6.36 45.59 6 46.55 6 47.55"/>
  <path d="M52 12H12v40h40z"/>
  <path fill="#fff" fill-rule="evenodd" d="M17.01 16.99h5.71c1.42 0 2.7.33 3.82.97q1.695.96 2.64 2.67.96 1.71.96 3.87c0 1.44-.32 2.72-.96 3.86a6.87 6.87 0 0 1-2.64 2.68c-1.12.64-2.4.96-3.82.96h-5.71zm8.02 11.88c.68-.4 1.19-.97 1.56-1.72.36-.75.55-1.63.55-2.65s-.19-1.91-.55-2.66c-.37-.74-.88-1.32-1.56-1.72q-1.005-.6-2.34-.6h-2.76v9.95h2.76q1.335 0 2.34-.6"/>
  <path fill="#fff" d="M32.99 44h-16v3h16z"/>
  <path fill="#fff" fill-rule="evenodd" d="M39.14 16.99H32.7V32h2.92v-5.67h3.43c1.08 0 2.03-.19 2.83-.58.81-.39 1.44-.94 1.87-1.65.44-.71.66-1.54.66-2.46s-.21-1.74-.64-2.44c-.44-.7-1.05-1.24-1.85-1.63-.8-.38-1.72-.58-2.78-.58m1.95 5.85c-.2.34-.48.6-.85.78-.37.19-.8.28-1.29.28h-3.33v-4.47h3.33q.735 0 1.29.27c.37.18.65.44.85.77.2.34.3.72.3 1.18s-.1.85-.3 1.19"/>
  <defs>
    <linearGradient id="a" x1="59.93" x2="1.34" y1="59.68" y2="1.08" gradientUnits="userSpaceOnUse">
      <stop offset=".29" stop-color="#6B57FF"/>
      <stop offset=".89" stop-color="#07C3F2"/>
    </linearGradient>
    <linearGradient id="b" x1="7.67" x2="61.13" y1="64.39" y2="39.61" gradientUnits="userSpaceOnUse">
      <stop offset=".3" stop-color="#FF45ED"/>
      <stop offset=".84" stop-color="#6B57FF"/>
    </linearGradient>
  </defs>
</svg>
