<!-- Copyright © 2000–2024 JetBrains s.r.o. -->
<svg width="24" height="24" viewBox="0 0 24 24" xmlns="http://www.w3.org/2000/svg">
  <path fill="url(#a)" d="M7.628 1.373 1.372 7.627A4.7 4.7 0 0 0 0 10.943v11.182C0 23.16.84 24 1.875 24h11.183a4.7 4.7 0 0 0 3.314-1.372l6.256-6.256A4.7 4.7 0 0 0 24 13.058V1.875C24 .84 23.16 0 22.125 0H10.943a4.7 4.7 0 0 0-3.315 1.373"/>
  <path d="M18 6H3v15h15z"/>
  <path fill="#fff" d="M11.25 17.625H4.875v1.5h6.375z"/>
  <path fill="#12B81B" d="M24 12H12v12h12z"/>
  <path fill="url(#b)" d="M24 12H12v12h12z"/>
  <path fill="#fff" d="m21 18-6 3.75v-7.5z"/>
  <defs>
    <linearGradient id="a" x1=".319" x2="23.483" y1="23.52" y2=".679" gradientUnits="userSpaceOnUse">
      <stop  offset="0" stop-color="#FF9419"/>
      <stop offset=".43" stop-color="#FF021D"/>
      <stop offset=".99" stop-color="#E600FF"/>
    </linearGradient>
    <linearGradient id="b" x1="18" x2="18" y1="12" y2="24" gradientUnits="userSpaceOnUse">
      <stop  offset="0" stop-color="#15BF13"/>
      <stop offset="1" stop-color="#039A3E"/>
    </linearGradient>
  </defs>
</svg>
