<svg width="32" height="32" viewBox="0 0 32 32" fill="none" xmlns="http://www.w3.org/2000/svg">
<path d="M17 19C17 17.8954 17.8954 17 19 17H30C31.1046 17 32 17.8954 32 19V30C32 31.1046 31.1046 32 30 32H19C17.8954 32 17 31.1046 17 30V19Z" fill="white"/>
<path d="M30 17C31.1046 17 32 17.8954 32 19V30C32 31.1046 31.1046 32 30 32H19C17.8954 32 17 31.1046 17 30V19C17 17.8954 17.8954 17 19 17H30ZM18.8057 17.1094C17.8476 17.2067 17.0996 18.0163 17.0996 19V30C17.0996 30.718 17.9507 31.2998 19 31.2998H30C30.8837 31.2998 31.5996 30.718 31.5996 30V19C31.5996 18.0164 30.9707 17.2069 30.1641 17.1094L30 17.0996H19L18.8057 17.1094Z" fill="#7D7C7C"/>
<path d="M29.0002 28.0011H27.4658C27.4658 23.8852 24.1223 20.5367 20.0127 20.5367V19C24.9684 19 29.0002 23.0379 29.0002 28.0011Z" fill="#1A1A1A"/>
<path d="M26.3941 27.9999H24.8527C24.8527 25.3201 22.6758 23.1399 20 23.1399V21.5962C23.5257 21.5962 26.3941 24.4689 26.3941 27.9999Z" fill="#1A1A1A"/>
<path d="M23.8024 28.0005H22.2435C22.2435 26.7616 21.2371 25.7536 20 25.7536V24.1924C22.0967 24.1924 23.8024 25.9007 23.8024 28.0005Z" fill="#1A1A1A"/>
</svg>
