<svg width="128" height="128" viewBox="0 0 128 128" fill="none" xmlns="http://www.w3.org/2000/svg">
<path d="M75 82.9995C75 78.5812 78.5817 74.9995 83 74.9995H120C124.418 74.9995 128 78.5812 128 82.9995V120C128 124.418 124.418 128 120 128H83C78.5817 128 75 124.418 75 120V82.9995Z" fill="white"/>
<path d="M120 74.9995C124.418 74.9995 128 78.5812 128 82.9995V120C128 124.418 124.418 128 120 128H83C78.5817 128 75 124.418 75 120V82.9995C75 78.5812 78.5817 74.9995 83 74.9995H120ZM83 75.2993C78.7474 75.2993 75.2998 78.7469 75.2998 82.9995V120C75.2998 123.037 78.7474 125.5 83 125.5H120C123.59 125.5 126.5 123.037 126.5 120V82.9995C126.5 78.7469 123.59 75.2993 120 75.2993H83Z" fill="#7D7C7C"/>
<path d="M117.5 114.5H112.386C112.386 100.782 101.243 89.6218 87.5469 89.6218V84.5C104.063 84.5 117.5 97.958 117.5 114.5Z" fill="#1A1A1A"/>
<path d="M108.813 114.5H103.675C103.675 105.567 96.4188 98.2997 87.5 98.2997V93.1538C99.2518 93.1538 108.813 102.73 108.813 114.5Z" fill="#1A1A1A"/>
<path d="M100.172 114.5H94.9769C94.9769 110.371 91.6228 107.011 87.5 107.011V101.808C94.4875 101.808 100.172 107.501 100.172 114.5Z" fill="#1A1A1A"/>
</svg>
