<svg width="256" height="256" viewBox="0 0 256 256" fill="none" xmlns="http://www.w3.org/2000/svg">
<g clip-path="url(#clip0_6216_54722)">
<path d="M156 172C156 163.164 163.163 156 172 156H240C248.837 156 256 163.164 256 172V240C256 248.837 248.837 256 240 256H172C163.163 256 156 248.837 156 240V172Z" fill="white"/>
<path d="M240 156C248.837 156 256 163.164 256 172V240C256 248.837 248.837 256 240 256H172C163.163 256 156 248.837 156 240V172C156 163.164 163.163 156 172 156H240ZM172 156.5C163.44 156.5 156.5 163.44 156.5 172V240C156.5 247.18 163.44 253 172 253H240C247.732 253 254 247.18 254 240V172C254 163.44 247.732 156.5 240 156.5H172Z" fill="#7D7C7C"/>
<path d="M237 233H226.773C226.773 205.565 204.487 183.244 177.095 183.244V173C210.127 173 237 199.916 237 233Z" fill="#1A1A1A"/>
<path d="M219.625 233H209.35C209.35 215.135 194.838 200.6 177 200.6V190.308C200.504 190.308 219.625 209.46 219.625 233Z" fill="#1A1A1A"/>
<path d="M202.345 233.001H191.954C191.954 224.742 185.246 218.023 177 218.023V207.616C190.975 207.616 202.345 219.004 202.345 233.001Z" fill="#1A1A1A"/>
</g>
<defs>
<clipPath id="clip0_6216_54722">
<rect width="256" height="256" fill="white"/>
</clipPath>
</defs>
</svg>
