<svg width="24" height="24" viewBox="0 0 24 24" fill="none" xmlns="http://www.w3.org/2000/svg">
<path d="M12 13.5C12 12.6716 12.6716 12 13.5 12H22.5C23.3284 12 24 12.6716 24 13.5V22.5C24 23.3284 23.3284 24 22.5 24H13.5C12.6716 24 12 23.3284 12 22.5V13.5Z" fill="white"/>
<path d="M22.5 12C23.3284 12 24 12.6716 24 13.5V22.5C24 23.3284 23.3284 24 22.5 24H13.5C12.6716 24 12 23.3284 12 22.5V13.5C12 12.6716 12.6716 12 13.5 12H22.5ZM13.3564 12.1074C12.6507 12.1793 12.0996 12.7753 12.0996 13.5V22.5C12.0996 23.0523 12.7268 23.5 13.5 23.5H22.5C23.1627 23.5 23.7002 23.0523 23.7002 22.5V13.5C23.7002 12.7753 23.228 12.1793 22.623 12.1074L22.5 12.0996H13.5L13.3564 12.1074Z" fill="#7D7C7C"/>
<path d="M22.0006 21.0006H20.8074C20.8074 17.7995 18.2075 15.1952 15.0117 15.1952V14C18.8654 14 22.0006 17.1405 22.0006 21.0006Z" fill="#1A1A1A"/>
<path d="M19.9719 21.0002H18.7731C18.7731 18.9157 17.0801 17.2198 14.999 17.2198V16.019C17.7411 16.019 19.9719 18.2536 19.9719 21.0002Z" fill="#1A1A1A"/>
<path d="M17.9559 21.0009H16.7436C16.7436 20.0373 15.961 19.2533 14.999 19.2533V18.0391C16.6294 18.0391 17.9559 19.3677 17.9559 21.0009Z" fill="#1A1A1A"/>
</svg>
