<svg width="64" height="64" viewBox="0 0 64 64" fill="none" xmlns="http://www.w3.org/2000/svg">
<g clip-path="url(#clip0_6216_54683)">
<path d="M36 40C36 37.7909 37.7909 36 40 36H60C62.2091 36 64 37.7909 64 40V60C64 62.2091 62.2091 64 60 64H40C37.7909 64 36 62.2091 36 60V40Z" fill="white"/>
<path d="M60 36C62.2091 36 64 37.7909 64 40V60C64 62.2091 62.2091 64 60 64H40C37.7909 64 36 62.2091 36 60V40C36 37.7909 37.7909 36 40 36H60ZM39.8047 36.2051C37.7968 36.3067 36.2002 37.9668 36.2002 40V60C36.2002 61.4359 37.9013 62.5996 40 62.5996H60C61.7673 62.5996 63.2002 61.4359 63.2002 60V40C63.2002 37.9671 61.8556 36.3071 60.165 36.2051L60 36.2002H40L39.8047 36.2051Z" fill="#7D7C7C"/>
<path d="M58.0002 57H55.2729C55.2729 49.6838 49.33 43.7316 42.0254 43.7316V41C50.8339 41 58.0002 48.1776 58.0002 57Z" fill="#1A1A1A"/>
<path d="M53.3667 56.9998H50.6265C50.6265 52.2357 46.7567 48.3597 42 48.3597V45.6152C48.2676 45.6152 53.3667 50.7224 53.3667 56.9998Z" fill="#1A1A1A"/>
<path d="M48.7586 56.9997H45.9877C45.9877 54.7974 44.1988 53.0057 42 53.0057V50.2305C45.7267 50.2305 48.7586 53.2671 48.7586 56.9997Z" fill="#1A1A1A"/>
</g>
<defs>
<clipPath id="clip0_6216_54683">
<rect width="64" height="64" fill="white"/>
</clipPath>
</defs>
</svg>
