<svg width="48" height="48" viewBox="0 0 48 48" fill="none" xmlns="http://www.w3.org/2000/svg">
<g clip-path="url(#clip0_6216_54643)">
<path d="M27 30C27 28.3431 28.3431 27 30 27H45C46.6569 27 48 28.3431 48 30V45C48 46.6569 46.6569 48 45 48H30C28.3431 48 27 46.6569 27 45V30Z" fill="white"/>
<path d="M45 27C46.6569 27 48 28.3431 48 30V45C48 46.6569 46.6569 48 45 48H30C28.3431 48 27 46.6569 27 45V30C27 28.3431 28.3431 27 30 27H45ZM30 27.0996C28.3984 27.0996 27.0996 28.3984 27.0996 30V45C27.0996 46.1046 28.3984 47 30 47H45C46.3255 47 47.4004 46.1046 47.4004 45V30C47.4004 28.4482 46.3914 27.1809 45.123 27.1035L45 27.0996H30Z" fill="#7D7C7C"/>
<path d="M44.0005 43H41.7846C41.7846 37.0556 36.9563 32.2195 31.0215 32.2195V30C38.1781 30 44.0005 35.8318 44.0005 43Z" fill="#1A1A1A"/>
<path d="M40.2351 42.9995H38.0088C38.0088 39.1286 34.8647 35.9794 31 35.9794V33.7495C36.0922 33.7495 40.2351 37.899 40.2351 42.9995Z" fill="#1A1A1A"/>
<path d="M36.4911 43H34.2399C34.2399 41.2106 32.7865 39.7549 31 39.7549V37.5C34.0278 37.5 36.4911 39.9673 36.4911 43Z" fill="#1A1A1A"/>
</g>
<defs>
<clipPath id="clip0_6216_54643">
<rect width="48" height="48" fill="white"/>
</clipPath>
</defs>
</svg>
