<!-- Copyright © 2000–2024 JetBrains s.r.o. -->
<svg width="256" height="256" viewBox="0 0 256 256" xmlns="http://www.w3.org/2000/svg">
  <g filter="url(#a)">
    <mask id="b" width="206" height="206" x="25" y="25" maskUnits="userSpaceOnUse" style="mask-type:luminance">
      <path fill="#fff" d="M76.269 25C43.348 25 25 43.348 25 76.269V179.73C25 212.66 43.348 231 76.269 231H179.73c32.93 0 51.27-18.348 51.27-51.269V76.269C231 43.339 212.652 25 179.731 25z"/>
    </mask>
    <g mask="url(#b)">
      <path fill="url(#c)" d="M217.714 137.339h-59.549a15.2 15.2 0 0 0-4.024.644l-100.59 32.124c-5.504 1.77-9.238 6.888-9.238 12.65v34.989c0 7.307 5.955 13.262 13.262 13.262h173.433v-80.375c0-7.339-5.955-13.294-13.294-13.294"/>
      <path fill="#FF45ED" d="M143.294 25v34.957l-61.666 70.461H25v100.59h61.963v-.016h5.633c3.799-.064 8.144-2.527 10.623-5.392l65.721-76.673h62.068V25z"/>
      <path fill="url(#d)" d="M231.008 231.008h-30.563L25 156.926V25h131.934l74.074 112.677z"/>
    </g>
    <path d="M192.381 63.627H63.627V192.38H192.38z"/>
    <path fill="#fff" fill-rule="evenodd" d="M79.753 79.689h18.38c4.571 0 8.691 1.07 12.296 3.122s6.454 4.933 8.498 8.594c2.044 3.662 3.09 7.822 3.09 12.457s-1.046 8.748-3.09 12.425-4.861 6.543-8.498 8.627-7.725 3.09-12.296 3.09h-18.38zm25.816 38.24c2.18-1.296 3.846-3.114 5.021-5.537s1.77-5.246 1.77-8.53-.595-6.156-1.77-8.562-2.841-4.24-5.021-5.536c-2.181-1.296-4.668-1.931-7.533-1.931h-8.884v32.027h8.884c2.865 0 5.368-.652 7.533-1.931"/>
    <path fill="#fff" d="M131.191 166.63H79.689v9.657h51.502z"/>
    <path fill="#fff" fill-rule="evenodd" d="M150.987 79.689h-20.73v48.315h9.399v-18.251h11.041c3.476 0 6.534-.62 9.109-1.867s4.627-3.034 6.02-5.311 2.124-4.957 2.124-7.919c0-2.96-.668-5.608-2.06-7.854-1.392-2.245-3.372-4.007-5.955-5.246s-5.536-1.867-8.948-1.867m6.276 18.83c-.643 1.095-1.553 1.915-2.736 2.511-1.183.595-2.575.901-4.152.901h-10.719V87.543h10.719q2.365 0 4.152.869 1.785.871 2.736 2.478c.636 1.07.966 2.318.966 3.799s-.322 2.736-.966 3.83"/>
  </g>
  <defs>
    <linearGradient id="c" x1="53.946" x2="226.027" y1="241.445" y2="161.681" gradientUnits="userSpaceOnUse">
      <stop offset=".3" stop-color="#FF45ED"/>
      <stop offset=".84" stop-color="#6B57FF"/>
    </linearGradient>
    <linearGradient id="d" x1="231" x2="25" y1="231.016" y2="25" gradientUnits="userSpaceOnUse">
      <stop offset=".29" stop-color="#6B57FF"/>
      <stop offset=".89" stop-color="#07C3F2"/>
    </linearGradient>
    <filter id="a" width="219" height="219" x="18.5" y="21" color-interpolation-filters="sRGB" filterUnits="userSpaceOnUse">
      <feFlood flood-opacity="0" result="BackgroundImageFix"/>
      <feColorMatrix in="SourceAlpha" result="hardAlpha" values="0 0 0 0 0 0 0 0 0 0 0 0 0 0 0 0 0 0 127 0"/>
      <feOffset dy="2.5"/>
      <feGaussianBlur stdDeviation="3.25"/>
      <feComposite in2="hardAlpha" operator="out"/>
      <feColorMatrix values="0 0 0 0 0 0 0 0 0 0 0 0 0 0 0 0 0 0 0.35 0"/>
      <feBlend in2="BackgroundImageFix" result="effect1_dropShadow_29_16563"/>
      <feBlend in="SourceGraphic" in2="effect1_dropShadow_29_16563" result="shape"/>
    </filter>
  </defs>
</svg>
