<!-- Copyright © 2000–2024 JetBrains s.r.o. -->
<svg width="128" height="128" viewBox="0 0 128 128" xmlns="http://www.w3.org/2000/svg">
  <g filter="url(#a)">
    <mask id="b" width="104" height="104" x="12" y="12" maskUnits="userSpaceOnUse" style="mask-type:luminance">
      <path fill="#fff" d="M37.883 12C21.263 12 12 21.263 12 37.883v52.234C12 106.74 21.263 116 37.883 116h52.234C106.74 116 116 106.737 116 90.117V37.883C116 21.26 106.737 12 90.117 12z"/>
    </mask>
    <g mask="url(#b)">
      <path fill="url(#c)" d="M109.293 68.715H79.229a7.7 7.7 0 0 0-2.031.325L26.414 85.258a6.72 6.72 0 0 0-4.664 6.386v17.665c0 3.689 3.007 6.695 6.696 6.695h87.558V75.426a6.713 6.713 0 0 0-6.711-6.711"/>
      <path fill="#FF45ED" d="M71.721 12v17.648L40.59 65.221H12v50.783h31.283v-.008h2.843c1.918-.033 4.112-1.276 5.363-2.722l33.18-38.71h31.335V12z"/>
      <path fill="url(#d)" d="M116.004 116.004h-15.43L12 78.604V12h66.607l37.397 56.885z"/>
    </g>
    <path d="M96.503 31.5H31.501v65.003h65.002z"/>
    <path fill="#fff" fill-rule="evenodd" d="M39.642 39.61h9.28c2.307 0 4.387.54 6.207 1.576a11.2 11.2 0 0 1 4.29 4.34c1.032 1.848 1.56 3.948 1.56 6.288s-.528 4.416-1.56 6.273a11.17 11.17 0 0 1-4.29 4.355c-1.836 1.052-3.9 1.56-6.208 1.56h-9.279zm13.033 19.306c1.101-.654 1.942-1.573 2.535-2.795.594-1.223.894-2.65.894-4.307s-.3-3.108-.894-4.323c-.593-1.214-1.434-2.14-2.535-2.795-1.1-.654-2.356-.975-3.802-.975h-4.485v16.17h4.485c1.446 0 2.71-.33 3.802-.975"/>
    <path fill="#fff" d="M65.61 83.503h-26v4.875h26z"/>
    <path fill="#fff" fill-rule="evenodd" d="M75.605 39.61H65.139v24.392h4.746v-9.214h5.574c1.755 0 3.298-.313 4.599-.943 1.3-.63 2.335-1.531 3.038-2.68s1.073-2.504 1.073-3.999-.337-2.831-1.04-3.965-1.702-2.023-3.007-2.649c-1.304-.625-2.795-.942-4.517-.942m3.169 9.507c-.325.552-.784.966-1.382 1.267s-1.3.455-2.096.455h-5.411v-7.264h5.411q1.194 0 2.096.439c.602.292 1.06.71 1.382 1.251.32.54.487 1.17.487 1.918 0 .747-.162 1.381-.487 1.934"/>
  </g>
  <defs>
    <linearGradient id="c" x1="26.613" x2="113.489" y1="121.273" y2="81.004" gradientUnits="userSpaceOnUse">
      <stop offset=".3" stop-color="#FF45ED"/>
      <stop offset=".84" stop-color="#6B57FF"/>
    </linearGradient>
    <linearGradient id="d" x1="116" x2="12" y1="116.008" y2="12" gradientUnits="userSpaceOnUse">
      <stop offset=".29" stop-color="#6B57FF"/>
      <stop offset=".89" stop-color="#07C3F2"/>
    </linearGradient>
    <filter id="a" width="110.5" height="110.5" x="8.75" y="10" color-interpolation-filters="sRGB" filterUnits="userSpaceOnUse">
      <feFlood flood-opacity="0" result="BackgroundImageFix"/>
      <feColorMatrix in="SourceAlpha" result="hardAlpha" values="0 0 0 0 0 0 0 0 0 0 0 0 0 0 0 0 0 0 127 0"/>
      <feOffset dy="1.25"/>
      <feGaussianBlur stdDeviation="1.625"/>
      <feComposite in2="hardAlpha" operator="out"/>
      <feColorMatrix values="0 0 0 0 0 0 0 0 0 0 0 0 0 0 0 0 0 0 0.35 0"/>
      <feBlend in2="BackgroundImageFix" result="effect1_dropShadow_29_16564"/>
      <feBlend in="SourceGraphic" in2="effect1_dropShadow_29_16564" result="shape"/>
    </filter>
  </defs>
</svg>
