<svg width="64" height="64" viewBox="0 0 64 64" fill="none" xmlns="http://www.w3.org/2000/svg">
<g clip-path="url(#clip0_4372_12219)">
<path d="M48.0524 58.182L59.9279 58.1802C62.1772 58.1802 64 56.3568 64 54.1075V42.6009C64 41.4123 63.4805 40.2824 62.5781 39.5085L24.4166 6.79872C23.6783 6.16629 22.7381 5.81836 21.7658 5.81836H9.89035C7.64105 5.81836 5.81763 7.64178 5.81763 9.89109V21.3994C5.81763 22.5881 6.33719 23.718 7.23959 24.4918L45.4005 57.201C46.1388 57.8341 47.079 58.1814 48.0518 58.1814L48.0524 58.182Z" fill="#00D886"/>
<path d="M49.4808 58.1818H59.9274C62.1767 58.1818 64.0001 56.3584 64.0001 54.1091V41.0164C64.0001 40.8239 63.9861 40.6313 63.9594 40.4404L58.6817 3.49673C58.3955 1.49062 56.6768 0 54.6503 0H38.9773C36.7274 0 34.904 1.824 34.9045 4.07389L34.9092 22.6124C34.9092 23.0499 34.9796 23.4845 35.1181 23.8993L45.6176 55.3972C46.172 57.0601 47.7284 58.1818 49.4814 58.1818H49.4808Z" fill="url(#paint0_linear_4372_12219)"/>
<path d="M4.07273 64H38.041C39.6701 64 41.1427 63.0289 41.7844 61.5319L57.8525 24.0413C58.0695 23.5345 58.1818 22.9882 58.1818 22.4367V4.07273C58.1818 1.82342 56.3584 0 54.1091 0H36.1431C35.3385 0 34.5519 0.238545 33.8822 0.685382L1.81353 22.0881C0.681309 22.8439 0.00174545 24.1146 0.00174545 25.4755L0 59.9273C0 62.1766 1.82342 64 4.07273 64Z" fill="url(#paint1_linear_4372_12219)"/>
<path d="M52 12H12V52H52V12Z" fill="black"/>
<path d="M33 44H17V47H33V44Z" fill="white"/>
<path d="M23.7017 32.64C22.2545 32.64 20.9439 32.301 19.7698 31.6245C18.5964 30.94 17.6746 30.0043 17.0045 28.8164C16.335 27.6215 16 26.2889 16 24.8197C16 23.3506 16.335 22.022 17.0045 20.8341C17.674 19.6392 18.5958 18.7024 19.7698 18.0259C20.9433 17.3414 22.2539 17 23.7017 17C24.8752 17 25.9555 17.2095 26.9421 17.6267C27.9356 18.0439 28.7711 18.6312 29.4482 19.3875C30.1321 20.1437 30.6112 21.0146 30.8849 22.0012H27.7308C27.5005 21.5261 27.1868 21.1153 26.791 20.7698C26.4022 20.4174 25.9451 20.1472 25.4191 19.9597C24.8937 19.7653 24.3284 19.6681 23.7231 19.6681C22.8303 19.6681 22.0236 19.8909 21.3038 20.3376C20.584 20.7843 20.0186 21.4 19.6078 22.1846C19.2045 22.9623 19.0031 23.8413 19.0031 24.8203C19.0031 25.7994 19.2045 26.6824 19.6078 27.4664C20.0181 28.2441 20.5834 28.8557 21.3038 29.3024C22.0242 29.7492 22.8303 29.9719 23.7231 29.9719C24.5511 29.9719 25.2999 29.8169 25.97 29.5073C26.647 29.1983 27.1834 28.7689 27.5791 28.2221C27.9749 27.6753 28.1879 27.0596 28.2162 26.3751L28.2272 26.6882H24.6738V24.3661H31.0788V25.554C31.0788 26.8866 30.7547 28.0925 30.1066 29.1723C29.4655 30.2456 28.5837 31.091 27.4605 31.7107C26.3443 32.3305 25.0916 32.6395 23.7017 32.6395V32.64ZM40.142 30.0477C41.0348 30.0477 41.838 29.825 42.5509 29.3782C43.2637 28.9246 43.8215 28.302 44.2249 27.5098C44.6282 26.7107 44.8295 25.8138 44.8295 24.8203C44.8295 23.8268 44.6282 22.9339 44.2249 22.1418C43.8215 21.3427 43.2637 20.7201 42.5509 20.2734C41.838 19.8197 41.0348 19.5929 40.142 19.5929C39.2491 19.5929 38.4425 19.8197 37.7227 20.2734C37.0098 20.7201 36.448 21.3427 36.0377 22.1418C35.6344 22.9345 35.433 23.8268 35.433 24.8203C35.433 25.8138 35.6344 26.7107 36.0377 27.5098C36.448 28.3026 37.0098 28.9246 37.7227 29.3782C38.4425 29.825 39.2491 30.0477 40.142 30.0477ZM40.131 32.64C38.6838 32.64 37.3697 32.301 36.1887 31.6245C35.0152 30.94 34.0894 30.0043 33.413 28.8164C32.7435 27.6215 32.4085 26.2889 32.4085 24.8197C32.4085 23.3506 32.7435 22.022 33.413 20.8341C34.09 19.6392 35.0152 18.7024 36.1887 18.0259C37.3697 17.3414 38.6838 17 40.131 17C41.5782 17 42.8998 17.3414 44.0733 18.0259C45.2543 18.7024 46.1795 19.6392 46.849 20.8341C47.5185 22.022 47.8535 23.3506 47.8535 24.8197C47.8535 26.2889 47.5185 27.6215 46.849 28.8164C46.1795 30.0043 45.2543 30.94 44.0733 31.6245C42.8998 32.301 41.5851 32.64 40.131 32.64Z" fill="white"/>
</g>
<defs>
<linearGradient id="paint0_linear_4372_12219" x1="63.6353" y1="54.0451" x2="39.3182" y2="1.59593" gradientUnits="userSpaceOnUse">
<stop offset="0.24" stop-color="#00D886"/>
<stop offset="0.51" stop-color="#007DFE"/>
</linearGradient>
<linearGradient id="paint1_linear_4372_12219" x1="59.3792" y1="4.38051" x2="0.674325" y2="63.0854" gradientUnits="userSpaceOnUse">
<stop offset="0.27" stop-color="#007DFE"/>
<stop offset="0.7" stop-color="#D249FC"/>
</linearGradient>
<clipPath id="clip0_4372_12219">
<rect width="64" height="64" fill="white"/>
</clipPath>
</defs>
<path d="M16 46C16 43.7909 17.7909 42 20 42H60C62.2091 42 64 43.7909 64 46V60C64 62.2091 62.2091 64 60 64H20C17.7909 64 16 62.2091 16 60V46Z" fill="#FFC94D"/>
<path d="M64 60C64 62.2091 62.2091 64 60 64H20C17.7909 64 16 62.2091 16 60L16.0049 60.165C16.1122 61.8557 17.86 63.2002 20 63.2002H60C62.2091 63.2002 64 61.7673 64 60Z" fill="#7D7C7C"/>
<path d="M48 47H53.2339C54.0961 47 54.8513 47.1543 55.4993 47.4629C56.1474 47.7714 56.648 48.2086 57.001 48.7743C57.3539 49.34 57.5304 49.9914 57.5304 50.7286C57.5304 51.4771 57.351 52.1371 56.9923 52.7086C56.6335 53.2743 56.1243 53.7143 55.4646 54.0286C54.8108 54.3429 54.044 54.5 53.1645 54.5H50.4303V59H48V47ZM53.069 52.5114C53.4625 52.5114 53.8068 52.44 54.1019 52.2971C54.397 52.1543 54.6227 51.9486 54.7789 51.68C54.9409 51.4114 55.022 51.0971 55.022 50.7371C55.022 50.3829 54.9409 50.0743 54.7789 49.8114C54.6227 49.5486 54.397 49.3457 54.1019 49.2029C53.8068 49.06 53.4625 48.9886 53.069 48.9886H50.4303V52.5114H53.069Z" fill="black"/>
<path d="M39.0836 47H41.7136L46.2097 59H43.7707L42.7986 56.24H38.1028L37.2001 59H34.709L39.0836 47ZM42.1649 54.3886L40.5505 49.88L40.3682 49.1171L40.1946 49.88L38.6843 54.3886H42.1649Z" fill="black"/>
<path d="M24 47H32.8187V49.1086H26.3696V51.9457H32.2284V54.0029H26.3696V56.8914H32.9923V59H24V47Z" fill="black"/>
</svg>