<!-- Copyright © 2000–2024 JetBrains s.r.o. -->
<svg width="256" height="256" viewBox="0 0 256 256" xmlns="http://www.w3.org/2000/svg">
  <g filter="url(#a)">
    <mask id="b" width="206" height="206" x="25" y="25" maskUnits="userSpaceOnUse" style="mask-type:luminance">
      <path fill="#fff" d="M76.269 25C43.348 25 25 43.348 25 76.269V179.73C25 212.66 43.348 231 76.269 231H179.73c32.93 0 51.27-18.348 51.27-51.269V76.269C231 43.339 212.652 25 179.731 25z"/>
    </mask>
    <g mask="url(#b)">
      <path fill="url(#c)" d="M231.008 25H54.775v94.957h176.233z"/>
      <path fill="#6B57FF" d="M121.566 99.034H25v131.974h96.566z"/>
      <path fill="url(#d)" d="M99.074 231.008h131.934V99.082L55.563 25H25v93.331z"/>
    </g>
    <path d="M192.381 63.627H63.627V192.38H192.38z"/>
    <path fill="#fff" d="M130.13 116.609c2.14 3.806 5.094 6.776 8.852 8.948s7.918 3.252 12.553 3.252c3.895 0 7.5-.717 10.751-2.157 3.251-1.441 5.995-3.468 8.176-6.084s3.605-5.601 4.346-8.98h-9.85a13.2 13.2 0 0 1-2.897 4.603c-1.28 1.327-2.792 2.333-4.603 3.057-1.811.725-3.734 1.063-5.858 1.063-2.865 0-5.424-.725-7.726-2.157a14.8 14.8 0 0 1-5.407-5.858c-1.28-2.479-1.964-5.311-1.964-8.434s.668-5.955 1.964-8.465c1.295-2.511 3.098-4.426 5.407-5.859s4.861-2.156 7.726-2.156c2.124 0 4.047.37 5.858 1.094s3.348 1.706 4.603 3.026a13.3 13.3 0 0 1 2.897 4.635h9.85c-.741-3.412-2.181-6.414-4.346-9.013q-3.25-3.9-8.176-6.084c-3.283-1.456-6.856-2.156-10.751-2.156-4.635 0-8.812 1.078-12.553 3.25-3.742 2.174-6.704 5.151-8.852 8.981s-3.219 8.048-3.219 12.747c0 4.7 1.078 8.925 3.219 12.747"/>
    <path fill="#fff" fill-rule="evenodd" d="M79.69 79.689h18.38c4.603 0 8.691 1.038 12.328 3.122 3.638 2.084 6.454 4.917 8.498 8.594 2.044 3.678 3.058 7.822 3.058 12.457s-1.022 8.764-3.058 12.425-4.885 6.551-8.498 8.627-7.725 3.09-12.328 3.09H79.69zm25.848 38.24c2.156-1.288 3.814-3.13 4.989-5.537s1.77-5.246 1.77-8.53-.587-6.148-1.77-8.562-2.833-4.249-4.989-5.536c-2.157-1.288-4.7-1.931-7.565-1.931h-8.852v32.027h8.852c2.865 0 5.408-.643 7.565-1.931"/>
    <path fill="#fff" d="M131.192 166.63H79.69v9.657h51.502z"/>
  </g>
  <defs>
    <linearGradient id="c" x1="233.543" x2="61.671" y1="30.464" y2="110.131" gradientUnits="userSpaceOnUse">
      <stop offset=".18" stop-color="#6B57FF"/>
      <stop offset=".54" stop-color="#FF45ED"/>
    </linearGradient>
    <linearGradient id="d" x1="25.008" x2="231" y1="24.992" y2="231.016" gradientUnits="userSpaceOnUse">
      <stop offset=".12" stop-color="#FF45ED"/>
      <stop offset=".92" stop-color="#FC801D"/>
    </linearGradient>
    <filter id="a" width="219" height="219" x="18.5" y="21" color-interpolation-filters="sRGB" filterUnits="userSpaceOnUse">
      <feFlood flood-opacity="0" result="BackgroundImageFix"/>
      <feColorMatrix in="SourceAlpha" result="hardAlpha" values="0 0 0 0 0 0 0 0 0 0 0 0 0 0 0 0 0 0 127 0"/>
      <feOffset dy="2.5"/>
      <feGaussianBlur stdDeviation="3.25"/>
      <feComposite in2="hardAlpha" operator="out"/>
      <feColorMatrix values="0 0 0 0 0 0 0 0 0 0 0 0 0 0 0 0 0 0 0.35 0"/>
      <feBlend in2="BackgroundImageFix" result="effect1_dropShadow_33_1542"/>
      <feBlend in="SourceGraphic" in2="effect1_dropShadow_33_1542" result="shape"/>
    </filter>
  </defs>
</svg>
