<!-- Copyright © 2000–2024 JetBrains s.r.o. -->
<svg width="16" height="16" viewBox="0 0 16 16" xmlns="http://www.w3.org/2000/svg">
  <path fill="#FC801D" d="M0 0h16v16H0z"/>
  <path d="M1 1h14v14H1z"/>
  <path fill="#fff" d="M8 12H3v1h5zm-.21-6.47c0-1.47 1.08-2.65 2.59-2.65.9 0 1.5.29 1.99.76l-.72.82c-.36-.35-.78-.59-1.26-.59-.84 0-1.44.71-1.44 1.59 0 .82.6 1.59 1.44 1.59.54 0 .9-.24 1.32-.59l.72.71c-.54.53-1.08.94-2.05.94-1.5 0-2.59-1.12-2.59-2.59M3 3h1.9c.38 0 .73.06 1.05.19s.59.3.82.52.41.49.53.79c.13.3.19.63.19.98 0 .37-.06.7-.19 1s-.3.57-.53.79-.5.4-.82.53-.67.19-1.05.19H3v-5zm1.9 4.01c.22 0 .42-.04.6-.11s.34-.17.46-.31c.13-.13.23-.29.3-.47s.11-.38.11-.61-.04-.44-.11-.62q-.105-.27-.3-.48c-.13-.13-.28-.24-.46-.31s-.38-.11-.6-.11h-.83V7h.83z"/>
</svg>
