<!-- Copyright © 2000–2024 JetBrains s.r.o. -->
<svg width="128" height="128" viewBox="0 0 128 128" xmlns="http://www.w3.org/2000/svg">
  <g filter="url(#a)">
    <mask id="b" width="104" height="104" x="12" y="12" maskUnits="userSpaceOnUse" style="mask-type:luminance">
      <path fill="#fff" d="M37.883 12C21.263 12 12 21.263 12 37.883v52.234C12 106.74 21.263 116 37.883 116h52.234C106.74 116 116 106.737 116 90.117V37.883C116 21.26 106.737 12 90.117 12z"/>
    </mask>
    <g mask="url(#b)">
      <path fill="url(#c)" d="M116.004 12H27.032v47.94h88.972z"/>
      <path fill="#6B57FF" d="M60.752 49.377H12v66.627h48.752z"/>
      <path fill="url(#d)" d="M49.397 116.004h66.607V49.401L27.43 12H12v47.119z"/>
    </g>
    <path d="M96.503 31.501H31.501v65.003h65.002z"/>
    <path fill="#fff" d="M65.075 58.25a11.8 11.8 0 0 0 4.47 4.517c1.896 1.097 3.997 1.641 6.337 1.641 1.966 0 3.786-.361 5.427-1.088 1.642-.728 3.027-1.751 4.128-3.072 1.101-1.32 1.82-2.827 2.194-4.534h-4.973a6.65 6.65 0 0 1-1.462 2.324 6.5 6.5 0 0 1-2.324 1.544c-.914.365-1.885.536-2.958.536-1.446 0-2.738-.366-3.9-1.089a7.46 7.46 0 0 1-2.73-2.957c-.646-1.251-.991-2.682-.991-4.258s.337-3.006.991-4.274a7.4 7.4 0 0 1 2.73-2.957c1.166-.724 2.454-1.09 3.9-1.09 1.073 0 2.044.188 2.958.553s1.69.862 2.324 1.528a6.7 6.7 0 0 1 1.462 2.34h4.973c-.374-1.723-1.101-3.238-2.194-4.55q-1.64-1.968-4.127-3.072c-1.658-.735-3.462-1.088-5.428-1.088-2.34 0-4.449.544-6.338 1.64a11.86 11.86 0 0 0-4.469 4.535c-1.085 1.934-1.625 4.063-1.625 6.435 0 2.373.544 4.506 1.625 6.435"/>
    <path fill="#fff" fill-rule="evenodd" d="M39.61 39.61h9.28c2.324 0 4.387.524 6.224 1.576a11.1 11.1 0 0 1 4.29 4.34c1.032 1.856 1.544 3.948 1.544 6.288s-.516 4.424-1.544 6.273a11.25 11.25 0 0 1-4.29 4.355c-1.824 1.048-3.9 1.56-6.224 1.56h-9.28zm13.05 19.306c1.089-.65 1.926-1.58 2.519-2.795q.891-1.822.893-4.307c0-1.657-.296-3.104-.893-4.323-.598-1.218-1.43-2.145-2.52-2.795-1.088-.65-2.372-.975-3.818-.975h-4.469v16.17h4.469c1.446 0 2.73-.325 3.819-.975"/>
    <path fill="#fff" d="M65.612 83.503H39.61v4.875h26z"/>
  </g>
  <defs>
    <linearGradient id="c" x1="117.284" x2="30.514" y1="14.758" y2="54.979" gradientUnits="userSpaceOnUse">
      <stop offset=".18" stop-color="#6B57FF"/>
      <stop offset=".54" stop-color="#FF45ED"/>
    </linearGradient>
    <linearGradient id="d" x1="12.004" x2="116" y1="11.996" y2="116.008" gradientUnits="userSpaceOnUse">
      <stop offset=".12" stop-color="#FF45ED"/>
      <stop offset=".92" stop-color="#FC801D"/>
    </linearGradient>
    <filter id="a" width="110.5" height="110.5" x="8.75" y="10" color-interpolation-filters="sRGB" filterUnits="userSpaceOnUse">
      <feFlood flood-opacity="0" result="BackgroundImageFix"/>
      <feColorMatrix in="SourceAlpha" result="hardAlpha" values="0 0 0 0 0 0 0 0 0 0 0 0 0 0 0 0 0 0 127 0"/>
      <feOffset dy="1.25"/>
      <feGaussianBlur stdDeviation="1.625"/>
      <feComposite in2="hardAlpha" operator="out"/>
      <feColorMatrix values="0 0 0 0 0 0 0 0 0 0 0 0 0 0 0 0 0 0 0.35 0"/>
      <feBlend in2="BackgroundImageFix" result="effect1_dropShadow_33_1543"/>
      <feBlend in="SourceGraphic" in2="effect1_dropShadow_33_1543" result="shape"/>
    </filter>
  </defs>
</svg>
