<svg width="24" height="24" viewBox="0 0 24 24" fill="none" xmlns="http://www.w3.org/2000/svg">
<g clip-path="url(#clip0_4372_12621)">
<path d="M18.0197 21.818L22.473 21.8173C23.3165 21.8173 24 21.1336 24 20.2901V15.9751C24 15.5293 23.8052 15.1056 23.4668 14.8155L9.15626 2.54928C8.87939 2.31211 8.5268 2.18164 8.16222 2.18164H3.70891C2.86542 2.18164 2.18164 2.86542 2.18164 3.70891V8.02455C2.18164 8.47029 2.37648 8.894 2.71488 9.18419L17.0252 21.4501C17.3021 21.6875 17.6547 21.8178 18.0195 21.8178L18.0197 21.818Z" fill="#007DFE"/>
<path d="M18.5552 21.8182H22.4727C23.3161 21.8182 23.9999 21.1344 23.9999 20.2909V15.3812C23.9999 15.3089 23.9947 15.2367 23.9847 15.1652L22.0055 1.31127C21.898 0.558764 21.2537 0 20.4935 0H14.6161C13.7724 0 13.0886 0.684 13.0889 1.52771L13.0906 8.47964C13.0906 8.64371 13.117 8.80669 13.1689 8.96225L17.1062 20.774C17.3142 21.3975 17.8978 21.8182 18.5552 21.8182Z" fill="url(#paint0_linear_4372_12621)"/>
<path d="M1.52727 24H14.2654C14.8763 24 15.4285 23.6359 15.6692 23.0745L21.6947 9.01549C21.7761 8.82545 21.8182 8.62058 21.8182 8.41375V1.52727C21.8182 0.683782 21.1344 0 20.2909 0H13.5537C13.2519 0 12.9569 0.0894545 12.7058 0.257018L0.680073 8.28305C0.255491 8.56647 0.000654545 9.04298 0.000654545 9.55331L0 22.4727C0 23.3162 0.683782 24 1.52727 24Z" fill="url(#paint1_linear_4372_12621)"/>
<path d="M20 4H4V20H20V4Z" fill="black"/>
<path d="M7.33886 9.81736H8.34411L9.63006 12.0734H10.9656L9.54343 9.68067C9.63828 9.6505 9.73908 9.62856 9.8264 9.5881C10.1507 9.4281 10.3997 9.20936 10.5731 8.92684C10.7494 8.6441 10.8376 8.31884 10.8376 7.94536C10.8376 7.57187 10.7507 7.25735 10.5773 6.9801C10.4065 6.70284 10.1619 6.4841 9.84331 6.32958C9.52469 6.17484 9.15623 6.1001 8.73817 6.1001H6.17383V12.0734H7.33863V9.81736H7.33886ZM7.33886 7.07061H8.6616C8.85794 7.07061 9.02846 7.1081 9.1736 7.17735C9.32149 7.2521 9.43531 7.35336 9.51486 7.48684C9.5944 7.6201 9.6344 7.77484 9.6344 7.9561C9.6344 8.13736 9.59463 8.2921 9.51486 8.43084C9.43508 8.5641 9.32149 8.66558 9.1736 8.7401C9.02846 8.81461 8.85794 8.84684 8.6616 8.84684H7.33886V7.07084V7.07061Z" fill="white"/>
<path d="M16.6691 7.55084C16.4159 7.09758 16.0646 6.7401 15.6152 6.4841C15.1686 6.2281 14.6623 6.1001 14.0963 6.1001H11.8223V12.0734H14.0963C14.6623 12.0734 15.1686 11.9454 15.6152 11.6894C16.0646 11.4334 16.4159 11.0814 16.6691 10.6281C16.9222 10.1694 17.0488 9.65736 17.0488 9.08684C17.0488 8.51633 16.9222 8.0041 16.6691 7.55084ZM15.6367 10.1428C15.4915 10.4416 15.2854 10.6706 15.0179 10.8254C14.7505 10.9856 14.439 11.0654 14.0835 11.0654H12.9871V7.1081H14.0835C14.439 7.1081 14.7505 7.1881 15.0179 7.34787C15.2854 7.50261 15.4915 7.7321 15.6367 8.03061C15.7818 8.32936 15.8543 8.68113 15.8543 9.08661C15.8543 9.4921 15.7818 9.84387 15.6367 10.1426V10.1428Z" fill="white"/>
<path d="M12 17H6V18H12V17Z" fill="white"/>
</g>
<defs>
<linearGradient id="paint0_linear_4372_12621" x1="24.2689" y1="21.1418" x2="14.9454" y2="1.03222" gradientUnits="userSpaceOnUse">
<stop offset="0.21" stop-color="#007DFE"/>
<stop offset="0.55" stop-color="#FFB700"/>
</linearGradient>
<linearGradient id="paint1_linear_4372_12621" x1="22.4167" y1="1.49302" x2="0.402327" y2="23.5076" gradientUnits="userSpaceOnUse">
<stop offset="0.23" stop-color="#FFB700"/>
<stop offset="0.73" stop-color="#FF0A67"/>
</linearGradient>
<clipPath id="clip0_4372_12621">
<rect width="24" height="24" fill="white"/>
</clipPath>
</defs>
</svg>
