<svg width="128" height="128" viewBox="0 0 128 128" fill="none" xmlns="http://www.w3.org/2000/svg">
<g clip-path="url(#clip0_4372_12625)">
<path d="M96.1048 116.364L119.856 116.36C124.354 116.36 128 112.713 128 108.215V85.2013C128 82.824 126.961 80.5642 125.156 79.0166L48.8332 13.597C47.3566 12.3321 45.4761 11.6362 43.5317 11.6362H19.7807C15.2821 11.6362 11.6353 15.2831 11.6353 19.7817V42.7984C11.6353 45.1757 12.6744 47.4355 14.4792 48.9831L90.8009 114.402C92.2776 115.668 94.158 116.362 96.1036 116.362L96.1048 116.364Z" fill="#007DFE"/>
<path d="M98.9614 116.364H119.854C124.353 116.364 128 112.717 128 108.218V82.0329C128 81.6477 127.972 81.2626 127.918 80.8809L117.363 6.99345C116.789 2.98007 113.353 0 109.299 0H77.9531C73.4533 0 69.8065 3.648 69.8076 8.14778L69.8169 45.2247C69.8169 46.0998 69.9577 46.969 70.2347 47.7987L91.2337 110.794C92.3426 114.12 95.4553 116.364 98.9614 116.364Z" fill="url(#paint0_linear_4372_12625)"/>
<path d="M8.14545 128H76.082C79.3402 128 82.2854 126.058 83.5689 123.064L115.705 48.0826C116.139 47.0691 116.364 45.9764 116.364 44.8733V8.14545C116.364 3.64684 112.717 0 108.218 0H72.2863C70.6769 0 69.1037 0.477091 67.7644 1.37076L3.62705 44.1763C1.36262 45.6879 0.00349091 48.2292 0.00349091 50.951L0 119.855C0 124.353 3.64684 128 8.14545 128Z" fill="url(#paint1_linear_4372_12625)"/>
<path d="M105 23H23V105H105V23Z" fill="black"/>
<path d="M66 89H34V94H66V89Z" fill="white"/>
<path d="M40.1859 53.2927H45.4026L52.0759 65H59.0065L51.6263 52.5834C52.1186 52.4269 52.6416 52.313 53.0948 52.103C54.7779 51.2727 56.0696 50.1376 56.9699 48.6715C57.8844 47.2043 58.3423 45.5164 58.3423 43.5782C58.3423 41.64 57.8915 40.0079 56.9912 38.5691C56.1052 37.1303 54.836 35.9952 53.1825 35.1933C51.529 34.3903 49.617 34.0024 47.4475 34.0024H34.1401V65H40.1847V53.2927H40.1859ZM40.1859 39.0388H47.0502C48.0691 39.0388 48.9539 39.2333 49.7071 39.5927C50.4746 39.9806 51.0653 40.5061 51.478 41.1988C51.8908 41.8903 52.0984 42.6933 52.0984 43.634C52.0984 44.5746 51.892 45.3776 51.478 46.0976C51.0641 46.7891 50.4746 47.3157 49.7071 47.7024C48.9539 48.0891 48.0691 48.2564 47.0502 48.2564H40.1859V39.04V39.0388Z" fill="white"/>
<path d="M88.6034 41.5299C87.2892 39.1778 85.466 37.3227 83.1341 35.9942C80.8164 34.6657 78.189 34.0015 75.2521 34.0015H63.4512V64.999H75.2521C78.189 64.999 80.8164 64.3348 83.1341 63.0063C85.466 61.6778 87.2892 59.8512 88.6034 57.499C89.9165 55.1184 90.5736 52.4615 90.5736 49.5008C90.5736 46.5402 89.9165 43.8821 88.6034 41.5299ZM83.2456 54.9808C82.4924 56.5311 81.4225 57.7196 80.0347 58.5227C78.6469 59.3542 77.0302 59.7681 75.1857 59.7681H69.4958V39.2324H75.1857C77.0302 39.2324 78.6469 39.6475 80.0347 40.4766C81.4225 41.2797 82.4924 42.4706 83.2456 44.0197C83.9988 45.57 84.3748 47.3954 84.3748 49.4997C84.3748 51.6039 83.9988 53.4294 83.2456 54.9797V54.9808Z" fill="white"/>
</g>
<defs>
<linearGradient id="paint0_linear_4372_12625" x1="129.435" y1="112.756" x2="79.709" y2="5.50516" gradientUnits="userSpaceOnUse">
<stop offset="0.21" stop-color="#007DFE"/>
<stop offset="0.55" stop-color="#FFB700"/>
</linearGradient>
<linearGradient id="paint1_linear_4372_12625" x1="119.555" y1="7.96276" x2="2.14575" y2="125.374" gradientUnits="userSpaceOnUse">
<stop offset="0.23" stop-color="#FFB700"/>
<stop offset="0.73" stop-color="#FF0A67"/>
</linearGradient>
<clipPath id="clip0_4372_12625">
<rect width="128" height="128" fill="white"/>
</clipPath>
</defs>
</svg>
