<svg width="48" height="48" viewBox="0 0 48 48" fill="none" xmlns="http://www.w3.org/2000/svg">
<g clip-path="url(#clip0_4372_12623)">
<path d="M36.0394 43.6365L44.946 43.6352C46.633 43.6352 48.0001 42.2676 48.0001 40.5806V31.9507C48.0001 31.0592 47.6104 30.2118 46.9336 29.6314L18.3125 5.09904C17.7588 4.62471 17.0536 4.36377 16.3244 4.36377H7.41783C5.73085 4.36377 4.36328 5.73133 4.36328 7.41831V16.0496C4.36328 16.9411 4.75295 17.7885 5.42975 18.3689L34.0504 42.9008C34.6042 43.3756 35.3093 43.6361 36.0389 43.6361L36.0394 43.6365Z" fill="#007DFE"/>
<path d="M37.1104 43.6364H44.9453C46.6323 43.6364 47.9998 42.2688 47.9998 40.5818V30.7623C47.9998 30.6179 47.9894 30.4735 47.9693 30.3303L44.011 2.62255C43.7959 1.11753 42.5073 0 40.987 0H29.2323C27.5449 0 26.1773 1.368 26.1777 3.05542L26.1812 16.9593C26.1812 17.2874 26.234 17.6134 26.3379 17.9245L34.2125 41.5479C34.6284 42.7951 35.7956 43.6364 37.1104 43.6364Z" fill="url(#paint0_linear_4372_12623)"/>
<path d="M3.05455 48H28.5308C29.7526 48 30.857 47.2717 31.3383 46.1489L43.3894 18.031C43.5521 17.6509 43.6364 17.2412 43.6364 16.8275V3.05455C43.6364 1.36756 42.2688 0 40.5818 0H27.1073C26.5039 0 25.9139 0.178909 25.4116 0.514036L1.36015 16.5661C0.510982 17.1329 0.00130909 18.086 0.00130909 19.1066L0 44.9455C0 46.6324 1.36756 48 3.05455 48Z" fill="url(#paint1_linear_4372_12623)"/>
<path d="M39 9H9V39H39V9Z" fill="black"/>
<path d="M25 33H13V35.0001H25V33Z" fill="white"/>
<path d="M15.2207 19.8447H17.0716L19.4393 23.9985H21.8983L19.2798 19.593C19.4545 19.5375 19.64 19.4971 19.8008 19.4226C20.398 19.128 20.8563 18.7253 21.1757 18.2051C21.5002 17.6845 21.6626 17.0856 21.6626 16.398C21.6626 15.7103 21.5027 15.1312 21.1833 14.6207C20.8689 14.1103 20.4186 13.7075 19.832 13.423C19.2453 13.1381 18.5669 13.0005 17.7972 13.0005H13.0757V23.9985H15.2203V19.8447H15.2207ZM15.2207 14.7874H17.6562C18.0177 14.7874 18.3316 14.8564 18.5989 14.9839C18.8712 15.1216 19.0807 15.308 19.2272 15.5538C19.3737 15.7991 19.4473 16.084 19.4473 16.4178C19.4473 16.7515 19.3741 17.0364 19.2272 17.2919C19.0803 17.5372 18.8712 17.7241 18.5989 17.8613C18.3316 17.9985 18.0177 18.0578 17.6562 18.0578H15.2207V14.7878V14.7874Z" fill="white"/>
<path d="M32.3991 15.6711C31.9328 14.8366 31.286 14.1784 30.4586 13.707C29.6363 13.2357 28.7041 13 27.6621 13H23.4751V23.998H27.6621C28.7041 23.998 29.6363 23.7623 30.4586 23.291C31.286 22.8196 31.9328 22.1715 32.3991 21.337C32.865 20.4923 33.0982 19.5496 33.0982 18.4992C33.0982 17.4488 32.865 16.5057 32.3991 15.6711ZM30.4982 20.4435C30.2309 20.9936 29.8513 21.4152 29.359 21.7002C28.8666 21.9952 28.2929 22.142 27.6385 22.142H25.6197V14.8559H27.6385C28.2929 14.8559 28.8666 15.0032 29.359 15.2974C29.8513 15.5823 30.2309 16.0048 30.4982 16.5545C30.7654 17.1045 30.8988 17.7522 30.8988 18.4988C30.8988 19.2454 30.7654 19.893 30.4982 20.4431V20.4435Z" fill="white"/>
</g>
<defs>
<linearGradient id="paint0_linear_4372_12623" x1="48.5379" y1="42.2836" x2="29.8908" y2="2.06444" gradientUnits="userSpaceOnUse">
<stop offset="0.21" stop-color="#007DFE"/>
<stop offset="0.55" stop-color="#FFB700"/>
</linearGradient>
<linearGradient id="paint1_linear_4372_12623" x1="44.8333" y1="2.98604" x2="0.804654" y2="47.0151" gradientUnits="userSpaceOnUse">
<stop offset="0.23" stop-color="#FFB700"/>
<stop offset="0.73" stop-color="#FF0A67"/>
</linearGradient>
<clipPath id="clip0_4372_12623">
<rect width="48" height="48" fill="white"/>
</clipPath>
</defs>
</svg>
