<svg width="256" height="256" viewBox="0 0 256 256" fill="none" xmlns="http://www.w3.org/2000/svg">
<g clip-path="url(#clip0_6242_46876)">
<path d="M192.21 232.727L239.712 232.721C248.709 232.721 256 225.427 256 216.43V170.403C256 165.649 253.922 161.129 250.312 158.034L97.6664 27.1944C94.7131 24.6647 90.9523 23.2729 87.0634 23.2729L39.5614 23.2729C30.5642 23.2729 23.2705 30.5666 23.2705 39.5639L23.2705 85.5973C23.2705 90.3519 25.3488 94.8715 28.9584 97.9668L181.602 228.804C184.555 231.336 188.316 232.725 192.207 232.725L192.21 232.727Z" fill="#007DFE"/>
<path d="M197.923 232.727L239.709 232.727C248.706 232.727 256 225.434 256 216.436V164.066C256 163.295 255.944 162.525 255.837 161.762L234.726 13.9869C233.579 5.96014 226.706 0 218.598 0L155.906 0C146.907 0 139.613 7.296 139.615 16.2956L139.634 90.4495C139.634 92.1996 139.915 93.938 140.469 95.5974L182.467 221.589C184.685 228.24 190.911 232.727 197.923 232.727Z" fill="url(#paint0_linear_6242_46876)"/>
<path d="M16.2909 256L152.164 256C158.68 256 164.571 252.116 167.138 246.128L231.41 96.1652C232.278 94.1382 232.727 91.9529 232.727 89.7466L232.727 16.2909C232.727 7.29367 225.434 0 216.436 0L144.573 0C141.354 0 138.207 0.954182 135.529 2.74153L7.25411 88.3526C2.72524 91.3757 0.00698182 96.4585 0.00698182 101.902L0 239.709C0 248.706 7.29367 256 16.2909 256Z" fill="url(#paint1_linear_6242_46876)"/>
<path d="M209 47L47 47L47 209L209 209L209 47Z" fill="black"/>
<path d="M133 177H68V188H133V177Z" fill="white"/>
<path d="M80.9057 106.962H91.1711L104.303 130H117.941L103.418 105.566C104.387 105.258 105.416 105.034 106.308 104.621C109.62 102.987 112.162 100.753 113.933 97.8683C115.733 94.981 116.634 91.6596 116.634 87.8457C116.634 84.0318 115.747 80.82 113.975 77.9887C112.232 75.1575 109.734 72.9237 106.481 71.3459C103.227 69.7657 99.4642 69.0024 95.1951 69.0024H69.0088L69.0088 130H80.9034L80.9034 106.962H80.9057ZM80.9057 78.9131H94.4132C96.4182 78.9131 98.1594 79.2958 99.6416 80.0031C101.152 80.7663 102.314 81.8003 103.126 83.1635C103.939 84.5242 104.347 86.1044 104.347 87.9554C104.347 89.8063 103.941 91.3865 103.126 92.8033C102.312 94.1641 101.152 95.2004 99.6416 95.9614C98.1594 96.7223 96.4182 97.0514 94.4132 97.0514H80.9057V78.9154V78.9131Z" fill="white"/>
<path d="M176.182 83.8146C173.596 79.186 170.008 75.5355 165.419 72.9213C160.858 70.3071 155.688 69 149.909 69H126.687L126.687 129.997H149.909C155.688 129.997 160.858 128.69 165.419 126.076C170.008 123.462 173.596 119.867 176.182 115.239C178.766 110.554 180.059 105.326 180.059 99.4998C180.059 93.6738 178.766 88.4431 176.182 83.8146ZM165.639 110.283C164.156 113.334 162.051 115.673 159.32 117.253C156.589 118.889 153.408 119.704 149.778 119.704H138.582V79.2934H149.778C153.408 79.2934 156.589 80.1103 159.32 81.7419C162.051 83.3221 164.156 85.6655 165.639 88.7139C167.121 91.7645 167.861 95.3567 167.861 99.4974C167.861 103.638 167.121 107.23 165.639 110.281V110.283Z" fill="white"/>
</g>
<defs>
<linearGradient id="paint0_linear_6242_46876" x1="258.869" y1="225.513" x2="159.418" y2="11.0103" gradientUnits="userSpaceOnUse">
<stop offset="0.21" stop-color="#007DFE"/>
<stop offset="0.55" stop-color="#FFB700"/>
</linearGradient>
<linearGradient id="paint1_linear_6242_46876" x1="239.111" y1="15.9255" x2="4.29149" y2="250.747" gradientUnits="userSpaceOnUse">
<stop offset="0.23" stop-color="#FFB700"/>
<stop offset="0.73" stop-color="#FF0A67"/>
</linearGradient>
<clipPath id="clip0_6242_46876">
<rect width="256" height="256" fill="white"/>
</clipPath>
</defs>
</svg>
