<svg width="32" height="32" viewBox="0 0 32 32" fill="none" xmlns="http://www.w3.org/2000/svg">
<g clip-path="url(#clip0_4372_12217)">
<path d="M24.0261 29.091L29.9638 29.0901C31.0885 29.0901 31.9999 28.1784 31.9999 27.0538V21.3005C31.9999 20.7061 31.7401 20.1412 31.2889 19.7543L12.2082 3.39936C11.839 3.08314 11.3689 2.90918 10.8828 2.90918H4.94506C3.8204 2.90918 2.90869 3.82089 2.90869 4.94554V10.6997C2.90869 11.2941 3.16847 11.859 3.61967 12.2459L22.7001 28.6005C23.0693 28.917 23.5394 29.0907 24.0258 29.0907L24.0261 29.091Z" fill="#00D886"/>
<path d="M24.7403 29.0909H29.9636C31.0882 29.0909 31.9999 28.1792 31.9999 27.0545V20.5082C31.9999 20.4119 31.9929 20.3156 31.9796 20.2202L29.3407 1.74836C29.1976 0.745309 28.3383 0 27.325 0H19.4885C18.3636 0 17.4519 0.912 17.4521 2.03695L17.4545 11.3062C17.4545 11.5249 17.4897 11.7423 17.5589 11.9497L22.8087 27.6986C23.0859 28.53 23.8641 29.0909 24.7406 29.0909H24.7403Z" fill="url(#paint0_linear_4372_12217)"/>
<path d="M2.03636 32H19.0205C19.8351 32 20.5713 31.5145 20.8922 30.766L28.9263 12.0207C29.0348 11.7673 29.0909 11.4941 29.0909 11.2183V2.03636C29.0909 0.911709 28.1792 0 27.0545 0H18.0716C17.6692 0 17.2759 0.119273 16.9411 0.342691L0.906764 11.0441C0.340655 11.422 0.000872727 12.0573 0.000872727 12.7377L0 29.9636C0 31.0883 0.911709 32 2.03636 32Z" fill="url(#paint1_linear_4372_12217)"/>
<path d="M26 6H6V26H26V6Z" fill="black"/>
<path d="M11.8656 16.7699C11.1392 16.7699 10.4814 16.5997 9.89214 16.2602C9.30315 15.9166 8.8405 15.447 8.50418 14.8508C8.16816 14.251 8 13.5822 8 12.8448C8 12.1074 8.16816 11.4406 8.50418 10.8443C8.84021 10.2446 9.30286 9.77436 9.89214 9.43485C10.4811 9.09128 11.139 8.91992 11.8656 8.91992C12.4546 8.91992 12.9968 9.02506 13.492 9.23446C13.9907 9.44386 14.4101 9.73864 14.7499 10.1182C15.0931 10.4978 15.3336 10.9349 15.471 11.4301H13.8879C13.7723 11.1917 13.6149 10.9855 13.4162 10.8121C13.221 10.6352 12.9916 10.4996 12.7276 10.4055C12.4639 10.3079 12.1801 10.2591 11.8764 10.2591C11.4282 10.2591 11.0234 10.3709 10.6621 10.5951C10.3008 10.8193 10.017 11.1283 9.81082 11.5222C9.60839 11.9125 9.50733 12.3537 9.50733 12.8451C9.50733 13.3365 9.60839 13.7797 9.81082 14.1732C10.0167 14.5635 10.3005 14.8705 10.6621 15.0947C11.0237 15.3189 11.4282 15.4308 11.8764 15.4308C12.292 15.4308 12.6678 15.3529 13.0041 15.1975C13.3439 15.0425 13.6131 14.827 13.8118 14.5525C14.0104 14.278 14.1173 13.969 14.1315 13.6254L14.1371 13.7826H12.3535V12.6171H15.5683V13.2133C15.5683 13.8822 15.4056 14.4874 15.0804 15.0294C14.7586 15.5681 14.316 15.9924 13.7522 16.3035C13.192 16.6145 12.5632 16.7696 11.8656 16.7696V16.7699ZM20.1173 15.4688C20.5654 15.4688 20.9685 15.357 21.3263 15.1328C21.6841 14.9051 21.9641 14.5926 22.1665 14.195C22.369 13.7939 22.47 13.3437 22.47 12.8451C22.47 12.3464 22.369 11.8983 22.1665 11.5007C21.9641 11.0996 21.6841 10.7871 21.3263 10.5629C20.9685 10.3352 20.5654 10.2213 20.1173 10.2213C19.6691 10.2213 19.2643 10.3352 18.903 10.5629C18.5452 10.7871 18.2632 11.0996 18.0573 11.5007C17.8548 11.8986 17.7538 12.3464 17.7538 12.8451C17.7538 13.3437 17.8548 13.7939 18.0573 14.195C18.2632 14.5929 18.5452 14.9051 18.903 15.1328C19.2643 15.357 19.6691 15.4688 20.1173 15.4688ZM20.1118 16.7699C19.3854 16.7699 18.7258 16.5997 18.1331 16.2602C17.5441 15.9166 17.0794 15.447 16.7399 14.8508C16.4038 14.251 16.2357 13.5822 16.2357 12.8448C16.2357 12.1074 16.4038 11.4406 16.7399 10.8443C17.0797 10.2446 17.5441 9.77436 18.1331 9.43485C18.7258 9.09128 19.3854 8.91992 20.1118 8.91992C20.8381 8.91992 21.5015 9.09128 22.0904 9.43485C22.6832 9.77436 23.1476 10.2446 23.4836 10.8443C23.8197 11.4406 23.9878 12.1074 23.9878 12.8448C23.9878 13.5822 23.8197 14.251 23.4836 14.8508C23.1476 15.447 22.6832 15.9166 22.0904 16.2602C21.5015 16.5997 20.8416 16.7699 20.1118 16.7699Z" fill="white"/>
<path d="M16 22H9V23H16V22Z" fill="white"/>
</g>
<defs>
<linearGradient id="paint0_linear_4372_12217" x1="31.8175" y1="27.0225" x2="19.659" y2="0.797964" gradientUnits="userSpaceOnUse">
<stop offset="0.24" stop-color="#00D886"/>
<stop offset="0.51" stop-color="#007DFE"/>
</linearGradient>
<linearGradient id="paint1_linear_4372_12217" x1="29.6896" y1="2.19025" x2="0.337162" y2="31.5427" gradientUnits="userSpaceOnUse">
<stop offset="0.27" stop-color="#007DFE"/>
<stop offset="0.7" stop-color="#D249FC"/>
</linearGradient>
<clipPath id="clip0_4372_12217">
<rect width="32" height="32" fill="white"/>
</clipPath>
</defs>
</svg>
