<svg width="256" height="256" viewBox="0 0 256 256" fill="none" xmlns="http://www.w3.org/2000/svg">
<g clip-path="url(#clip0_6242_46819)">
<path d="M192.21 232.727L239.712 232.721C248.709 232.721 256 225.427 256 216.43V170.403C256 165.649 253.922 161.129 250.312 158.034L97.6664 27.1944C94.7131 24.6647 90.9523 23.2729 87.0634 23.2729L39.5614 23.2729C30.5642 23.2729 23.2705 30.5666 23.2705 39.5639L23.2705 85.5973C23.2705 90.3519 25.3488 94.8715 28.9584 97.9668L181.602 228.804C184.555 231.336 188.316 232.725 192.207 232.725L192.21 232.727Z" fill="#00D886"/>
<path d="M197.923 232.727L239.709 232.727C248.706 232.727 256 225.434 256 216.436V164.066C256 163.295 255.944 162.525 255.837 161.762L234.726 13.9869C233.581 5.96247 226.707 0 218.601 0L155.909 0C146.909 0 139.615 7.296 139.618 16.2956L139.636 90.4495C139.636 92.1996 139.918 93.938 140.472 95.5974L182.47 221.589C184.688 228.24 190.913 232.727 197.925 232.727H197.923Z" fill="url(#paint0_linear_6242_46819)"/>
<path d="M16.2909 256L152.164 256C158.68 256 164.571 252.116 167.138 246.128L231.41 96.1652C232.278 94.1382 232.727 91.9529 232.727 89.7466L232.727 16.2909C232.727 7.29367 225.434 0 216.436 0L144.573 0C141.354 0 138.207 0.954182 135.529 2.74153L7.25411 88.3526C2.72524 91.3757 0.00698182 96.4585 0.00698182 101.902L0 239.709C0 248.706 7.29367 256 16.2909 256Z" fill="url(#paint1_linear_6242_46819)"/>
<path d="M209 47L47 47L47 209L209 209L209 47Z" fill="black"/>
<path d="M133 177H68V188H133V177Z" fill="white"/>
<path d="M94.676 131.167C88.8385 131.167 83.5518 129.8 78.816 127.071C74.0825 124.31 70.3644 120.536 67.6616 115.744C64.961 110.924 63.6096 105.549 63.6096 99.6226C63.6096 93.6964 64.961 88.3374 67.6616 83.5456C70.3621 78.7257 74.0802 74.9469 78.816 72.2184C83.5495 69.4572 88.8361 68.0801 94.676 68.0801C99.4094 68.0801 103.767 68.925 107.747 70.6079C111.754 72.2907 115.125 74.6598 117.855 77.7104C120.614 80.761 122.547 84.2738 123.651 88.2534L110.928 88.2534C109.999 86.3371 108.734 84.6799 107.138 83.2865C105.569 81.865 103.725 80.775 101.603 80.0188C99.4841 79.2346 97.2037 78.8424 94.7623 78.8424C91.1609 78.8424 87.9072 79.741 85.0036 81.5429C82.1 83.3448 79.8197 85.8283 78.1625 88.9933C76.5356 92.1302 75.7234 95.6757 75.7234 99.6249C75.7234 103.574 76.5356 107.136 78.1625 110.299C79.8173 113.436 82.0977 115.903 85.0036 117.705C87.9095 119.506 91.1609 120.405 94.7623 120.405C98.1024 120.405 101.123 119.78 103.825 118.531C106.556 117.284 108.72 115.553 110.316 113.347C111.913 111.141 112.772 108.658 112.886 105.897L112.931 107.159H98.5972V97.7927L124.433 97.7927V102.584C124.433 107.96 123.126 112.824 120.512 117.179C117.926 121.509 114.368 124.919 109.838 127.419C105.336 129.919 100.282 131.165 94.676 131.165V131.167ZM160.991 120.711C164.593 120.711 167.832 119.812 170.708 118.01C173.584 116.18 175.834 113.669 177.46 110.474C179.087 107.25 179.899 103.632 179.899 99.6249C179.899 95.6173 179.087 92.0159 177.46 88.8205C175.834 85.5972 173.584 83.0857 170.708 81.2839C167.832 79.454 164.593 78.539 160.991 78.539C157.39 78.539 154.136 79.454 151.233 81.2839C148.357 83.0857 146.091 85.5972 144.436 88.8205C142.809 92.0182 141.997 95.6173 141.997 99.6249C141.997 103.632 142.809 107.25 144.436 110.474C146.091 113.671 148.357 116.18 151.233 118.01C154.136 119.812 157.39 120.711 160.991 120.711ZM160.947 131.167C155.109 131.167 149.809 129.8 145.045 127.071C140.311 124.31 136.577 120.536 133.848 115.744C131.148 110.924 129.797 105.549 129.797 99.6226C129.797 93.6964 131.148 88.3374 133.848 83.5456C136.579 78.7257 140.311 74.9469 145.045 72.2184C149.809 69.4572 155.109 68.0801 160.947 68.0801C166.784 68.0801 172.115 69.4572 176.849 72.2184C181.613 74.9469 185.345 78.7257 188.045 83.5456C190.746 88.3374 192.097 93.6964 192.097 99.6226C192.097 105.549 190.746 110.924 188.045 115.744C185.345 120.536 181.613 124.31 176.849 127.071C172.115 129.8 166.812 131.167 160.947 131.167Z" fill="white"/>
</g>
<defs>
<linearGradient id="paint0_linear_6242_46819" x1="254.541" y1="216.18" x2="157.272" y2="6.38371" gradientUnits="userSpaceOnUse">
<stop offset="0.24" stop-color="#00D886"/>
<stop offset="0.51" stop-color="#007DFE"/>
</linearGradient>
<linearGradient id="paint1_linear_6242_46819" x1="237.517" y1="17.522" x2="2.6973" y2="252.342" gradientUnits="userSpaceOnUse">
<stop offset="0.27" stop-color="#007DFE"/>
<stop offset="0.7" stop-color="#D249FC"/>
</linearGradient>
<clipPath id="clip0_6242_46819">
<rect width="256" height="256" fill="white"/>
</clipPath>
</defs>
</svg>
