<svg width="24" height="24" viewBox="0 0 24 24" fill="none" xmlns="http://www.w3.org/2000/svg">
<g clip-path="url(#clip0_4372_12216)">
<path d="M18.0194 21.818L22.4727 21.8173C23.3162 21.8173 23.9998 21.1336 23.9998 20.2901V15.9751C23.9998 15.5293 23.805 15.1056 23.4666 14.8155L9.15602 2.54928C8.87914 2.31211 8.52656 2.18164 8.16198 2.18164H3.70867C2.86518 2.18164 2.1814 2.86542 2.1814 3.70891V8.02455C2.1814 8.47029 2.37623 8.894 2.71463 9.18419L17.025 21.4501C17.3018 21.6875 17.6544 21.8178 18.0192 21.8178L18.0194 21.818Z" fill="#00D886"/>
<path d="M18.5552 21.8182H22.4727C23.3162 21.8182 23.9999 21.1344 23.9999 20.2909V15.3812C23.9999 15.3089 23.9947 15.2367 23.9847 15.1652L22.0055 1.31127C21.8982 0.558982 21.2537 0 20.4938 0H14.6164C13.7727 0 13.0889 0.684 13.0891 1.52771L13.0909 8.47964C13.0909 8.64371 13.1173 8.80669 13.1692 8.96225L17.1065 20.774C17.3144 21.3975 17.8981 21.8182 18.5554 21.8182H18.5552Z" fill="url(#paint0_linear_4372_12216)"/>
<path d="M1.52727 24H14.2654C14.8763 24 15.4285 23.6359 15.6692 23.0745L21.6947 9.01549C21.7761 8.82545 21.8182 8.62058 21.8182 8.41375V1.52727C21.8182 0.683782 21.1344 0 20.2909 0H13.5537C13.2519 0 12.9569 0.0894545 12.7058 0.257018L0.680073 8.28305C0.255491 8.56647 0.000654545 9.04298 0.000654545 9.55331L0 22.4727C0 23.3162 0.683782 24 1.52727 24Z" fill="url(#paint1_linear_4372_12216)"/>
<path d="M20 4H4V20H20V4Z" fill="black"/>
<path d="M8.68267 12.1781C8.11101 12.1781 7.5933 12.0441 7.12952 11.7769C6.66598 11.5065 6.30187 11.1369 6.03718 10.6677C5.77272 10.1957 5.64038 9.66926 5.64038 9.08891C5.64038 8.50857 5.77272 7.98377 6.03718 7.51451C6.30164 7.04251 6.66575 6.67246 7.12952 6.40526C7.59307 6.13486 8.11078 6 8.68267 6C9.14621 6 9.57295 6.08274 9.96267 6.24754C10.3551 6.41234 10.6852 6.64434 10.9526 6.94309C11.2228 7.24183 11.412 7.58583 11.5202 7.97554H10.2742C10.1832 7.78789 10.0594 7.6256 9.90301 7.48914C9.74941 7.34994 9.56884 7.2432 9.36107 7.16914C9.15352 7.09234 8.93021 7.05394 8.69112 7.05394C8.33844 7.05394 8.01981 7.14194 7.73547 7.3184C7.45112 7.49486 7.22781 7.73806 7.06552 8.048C6.90621 8.3552 6.82667 8.7024 6.82667 9.08914C6.82667 9.47589 6.90621 9.82469 7.06552 10.1344C7.22758 10.4416 7.4509 10.6832 7.73547 10.8597C8.02004 11.0361 8.33844 11.1241 8.69112 11.1241C9.01821 11.1241 9.31398 11.0629 9.57867 10.9406C9.8461 10.8185 10.058 10.6489 10.2143 10.4329C10.3707 10.2169 10.4548 9.97371 10.466 9.70331L10.4703 9.82697H9.06667V8.90971H11.5967V9.37897C11.5967 9.90537 11.4687 10.3817 11.2127 10.8082C10.9595 11.2322 10.6111 11.5662 10.1675 11.811C9.72655 12.0558 9.2317 12.1778 8.68267 12.1778V12.1781ZM15.1768 11.1541C15.5295 11.1541 15.8468 11.0661 16.1284 10.8896C16.41 10.7104 16.6303 10.4645 16.7896 10.1515C16.949 9.83589 17.0285 9.4816 17.0285 9.08914C17.0285 8.69669 16.949 8.344 16.7896 8.03109C16.6303 7.71543 16.41 7.46949 16.1284 7.29303C15.8468 7.11383 15.5295 7.02423 15.1768 7.02423C14.8242 7.02423 14.5055 7.11383 14.2212 7.29303C13.9396 7.46949 13.7176 7.71543 13.5556 8.03109C13.3963 8.34423 13.3167 8.69669 13.3167 9.08914C13.3167 9.4816 13.3963 9.83589 13.5556 10.1515C13.7176 10.4647 13.9396 10.7104 14.2212 10.8896C14.5055 11.0661 14.8242 11.1541 15.1768 11.1541ZM15.1725 12.1781C14.6008 12.1781 14.0818 12.0441 13.6152 11.7769C13.1517 11.5065 12.786 11.1369 12.5188 10.6677C12.2543 10.1957 12.122 9.66926 12.122 9.08891C12.122 8.50857 12.2543 7.98377 12.5188 7.51451C12.7862 7.04251 13.1517 6.67246 13.6152 6.40526C14.0818 6.13486 14.6008 6 15.1725 6C15.7442 6 16.2662 6.13486 16.7298 6.40526C17.1963 6.67246 17.5618 7.04251 17.8262 7.51451C18.0907 7.98377 18.223 8.50857 18.223 9.08891C18.223 9.66926 18.0907 10.1957 17.8262 10.6677C17.5618 11.1369 17.1963 11.5065 16.7298 11.7769C16.2662 12.0441 15.7469 12.1781 15.1725 12.1781Z" fill="white"/>
<path d="M12 17H6V18H12V17Z" fill="white"/>
</g>
<defs>
<linearGradient id="paint0_linear_4372_12216" x1="23.8631" y1="20.2669" x2="14.7442" y2="0.598472" gradientUnits="userSpaceOnUse">
<stop offset="0.24" stop-color="#00D886"/>
<stop offset="0.51" stop-color="#007DFE"/>
</linearGradient>
<linearGradient id="paint1_linear_4372_12216" x1="22.2672" y1="1.64269" x2="0.252871" y2="23.657" gradientUnits="userSpaceOnUse">
<stop offset="0.27" stop-color="#007DFE"/>
<stop offset="0.7" stop-color="#D249FC"/>
</linearGradient>
<clipPath id="clip0_4372_12216">
<rect width="24" height="24" fill="white"/>
</clipPath>
</defs>
</svg>
