<svg width="128" height="128" viewBox="0 0 128 128" fill="none" xmlns="http://www.w3.org/2000/svg">
<g clip-path="url(#clip0_4372_12220)">
<path d="M96.1048 116.364L119.856 116.36C124.354 116.36 128 112.713 128 108.215V85.2013C128 82.824 126.961 80.5642 125.156 79.0166L48.8332 13.597C47.3566 12.3321 45.4761 11.6362 43.5317 11.6362H19.7807C15.2821 11.6362 11.6353 15.2831 11.6353 19.7817V42.7984C11.6353 45.1757 12.6744 47.4355 14.4792 48.9831L90.8009 114.402C92.2776 115.668 94.158 116.362 96.1036 116.362L96.1048 116.364Z" fill="#00D886"/>
<path d="M98.9614 116.364H119.855C124.353 116.364 128 112.717 128 108.218V82.0329C128 81.6477 127.972 81.2626 127.919 80.8809L117.363 6.99345C116.791 2.98124 113.353 0 109.3 0H77.9543C73.4545 0 69.8077 3.648 69.8088 8.14778L69.8181 45.2247C69.8181 46.0998 69.959 46.969 70.2359 47.7987L91.2349 110.794C92.3438 114.12 95.4566 116.364 98.9626 116.364H98.9614Z" fill="url(#paint0_linear_4372_12220)"/>
<path d="M8.14545 128H76.082C79.3402 128 82.2854 126.058 83.5689 123.064L115.705 48.0826C116.139 47.0691 116.364 45.9764 116.364 44.8733V8.14545C116.364 3.64684 112.717 0 108.218 0H72.2863C70.6769 0 69.1037 0.477091 67.7644 1.37076L3.62705 44.1763C1.36262 45.6879 0.00349091 48.2292 0.00349091 50.951L0 119.855C0 124.353 3.64684 128 8.14545 128Z" fill="url(#paint1_linear_4372_12220)"/>
<path d="M105 23H23V105H105V23Z" fill="black"/>
<path d="M66 89H34V94H66V89Z" fill="white"/>
<path d="M47.1957 65.4713C44.229 65.4713 41.5422 64.7761 39.1354 63.3895C36.7298 61.9862 34.8401 60.0681 33.4665 57.6328C32.094 55.1833 31.4072 52.4514 31.4072 49.4396C31.4072 46.4278 32.094 43.7043 33.4665 41.269C34.8389 38.8195 36.7286 36.899 39.1354 35.5123C41.541 34.109 44.2278 33.4092 47.1957 33.4092C49.6013 33.4092 51.816 33.8386 53.8385 34.6938C55.8752 35.5491 57.5881 36.7531 58.9759 38.3035C60.378 39.8539 61.3602 41.6391 61.9213 43.6616H55.4553C54.9832 42.6877 54.3402 41.8455 53.5289 41.1373C52.7317 40.4149 51.7946 39.861 50.7164 39.4766C49.6393 39.0781 48.4803 38.8788 47.2396 38.8788C45.4093 38.8788 43.7557 39.3355 42.28 40.2512C40.8044 41.167 39.6455 42.4291 38.8032 44.0376C37.9765 45.6319 37.5637 47.4337 37.5637 49.4408C37.5637 51.4479 37.9765 53.258 38.8032 54.8654C39.6443 56.4596 40.8032 57.7134 42.28 58.6292C43.7569 59.545 45.4093 60.0016 47.2396 60.0016C48.937 60.0016 50.472 59.6837 51.8456 59.0491C53.2335 58.4157 54.3331 57.5355 55.1445 56.4145C55.9558 55.2936 56.3924 54.0314 56.4505 52.6282L56.473 53.2699H49.1885V48.5096H62.3187V50.9449C62.3187 53.6768 61.6544 56.1488 60.3258 58.3623C59.0115 60.5627 57.2037 62.2958 54.9013 63.5662C52.6131 64.8366 50.045 65.4701 47.1957 65.4701V65.4713ZM80.8983 60.157C82.7286 60.157 84.3751 59.7003 85.8365 58.7846C87.2979 57.8546 88.4414 56.5782 89.2682 54.9543C90.095 53.3162 90.5078 51.4775 90.5078 49.4408C90.5078 47.4041 90.095 45.5738 89.2682 43.9498C88.4414 42.3117 87.2979 41.0353 85.8365 40.1196C84.3751 39.1896 82.7286 38.7246 80.8983 38.7246C79.068 38.7246 77.4144 39.1896 75.9387 40.1196C74.4773 41.0353 73.3255 42.3117 72.4845 43.9498C71.6577 45.575 71.2449 47.4041 71.2449 49.4408C71.2449 51.4775 71.6577 53.3162 72.4845 54.9543C73.3255 56.5794 74.4773 57.8546 75.9387 58.7846C77.4144 59.7003 79.068 60.157 80.8983 60.157ZM80.8757 65.4713C77.909 65.4713 75.2152 64.7761 72.7941 63.3895C70.3885 61.9862 68.4905 60.0681 67.1039 57.6328C65.7314 55.1833 65.0446 52.4514 65.0446 49.4396C65.0446 46.4278 65.7314 43.7043 67.1039 41.269C68.4917 38.8195 70.3885 36.899 72.7941 35.5123C75.2152 34.109 77.909 33.4092 80.8757 33.4092C83.8425 33.4092 86.5518 34.109 88.9574 35.5123C91.3785 36.899 93.2752 38.8195 94.6476 41.269C96.0201 43.7043 96.7069 46.4278 96.7069 49.4396C96.7069 52.4514 96.0201 55.1833 94.6476 57.6328C93.2752 60.0681 91.3785 61.9862 88.9574 63.3895C86.5518 64.7761 83.8567 65.4713 80.8757 65.4713Z" fill="white"/>
</g>
<defs>
<linearGradient id="paint0_linear_4372_12220" x1="127.27" y1="108.09" x2="78.6362" y2="3.19185" gradientUnits="userSpaceOnUse">
<stop offset="0.24" stop-color="#00D886"/>
<stop offset="0.51" stop-color="#007DFE"/>
</linearGradient>
<linearGradient id="paint1_linear_4372_12220" x1="118.758" y1="8.76101" x2="1.34865" y2="126.171" gradientUnits="userSpaceOnUse">
<stop offset="0.27" stop-color="#007DFE"/>
<stop offset="0.7" stop-color="#D249FC"/>
</linearGradient>
<clipPath id="clip0_4372_12220">
<rect width="128" height="128" fill="white"/>
</clipPath>
</defs>
</svg>
