<svg width="48" height="48" viewBox="0 0 48 48" fill="none" xmlns="http://www.w3.org/2000/svg">
<g clip-path="url(#clip0_4372_12218)">
<path d="M36.0394 43.6365L44.946 43.6352C46.633 43.6352 48.0001 42.2676 48.0001 40.5806V31.9507C48.0001 31.0592 47.6104 30.2118 46.9336 29.6314L18.3125 5.09904C17.7588 4.62471 17.0536 4.36377 16.3244 4.36377H7.41783C5.73085 4.36377 4.36328 5.73133 4.36328 7.41831V16.0496C4.36328 16.9411 4.75295 17.7885 5.42975 18.3689L34.0504 42.9008C34.6042 43.3756 35.3093 43.6361 36.0389 43.6361L36.0394 43.6365Z" fill="#00D886"/>
<path d="M37.1104 43.6364H44.9454C46.6323 43.6364 47.9999 42.2688 47.9999 40.5818V30.7623C47.9999 30.6179 47.9894 30.4735 47.9694 30.3303L44.0111 2.62255C43.7964 1.11796 42.5074 0 40.9875 0H29.2328C27.5454 0 26.1778 1.368 26.1782 3.05542L26.1817 16.9593C26.1817 17.2874 26.2345 17.6134 26.3384 17.9245L34.213 41.5479C34.6288 42.7951 35.7961 43.6364 37.1109 43.6364H37.1104Z" fill="url(#paint0_linear_4372_12218)"/>
<path d="M3.05455 48H28.5308C29.7526 48 30.857 47.2717 31.3383 46.1489L43.3894 18.031C43.5521 17.6509 43.6364 17.2412 43.6364 16.8275V3.05455C43.6364 1.36756 42.2688 0 40.5818 0H27.1073C26.5039 0 25.9139 0.178909 25.4116 0.514036L1.36015 16.5661C0.510982 17.1329 0.00130909 18.086 0.00130909 19.1066L0 44.9455C0 46.6324 1.36756 48 3.05455 48Z" fill="url(#paint1_linear_4372_12218)"/>
<path d="M39 9H9V39H39V9Z" fill="black"/>
<path d="M24.9998 33H12.9998V35.0001H24.9998V33Z" fill="white"/>
<path d="M17.6757 24.1797C16.6235 24.1797 15.6705 23.9331 14.8169 23.4413C13.9637 22.9436 13.2935 22.2633 12.8063 21.3996C12.3195 20.5308 12.0759 19.5619 12.0759 18.4937C12.0759 17.4255 12.3195 16.4595 12.8063 15.5958C13.2931 14.727 13.9633 14.0459 14.8169 13.554C15.6701 13.0563 16.623 12.8081 17.6757 12.8081C18.5289 12.8081 19.3144 12.9604 20.0317 13.2637C20.7541 13.5671 21.3616 13.9941 21.8538 14.544C22.3511 15.0939 22.6995 15.727 22.8985 16.4444H20.6051C20.4377 16.099 20.2097 15.8002 19.9219 15.5491C19.6392 15.2929 19.3068 15.0964 18.9244 14.9601C18.5423 14.8187 18.1313 14.748 17.6912 14.748C17.0421 14.748 16.4556 14.91 15.9322 15.2348C15.4088 15.5596 14.9978 16.0072 14.6991 16.5777C14.4059 17.1432 14.2594 17.7822 14.2594 18.4941C14.2594 19.2059 14.4059 19.848 14.6991 20.418C14.9974 20.9835 15.4084 21.4282 15.9322 21.753C16.456 22.0778 17.0421 22.2397 17.6912 22.2397C18.2933 22.2397 18.8377 22.127 19.3249 21.9019C19.8171 21.6772 20.2071 21.3651 20.4949 20.9675C20.7827 20.5699 20.9375 20.1223 20.9581 19.6246L20.9661 19.8522H18.3825V18.1638H23.0394V19.0276C23.0394 19.9965 22.8038 20.8733 22.3326 21.6583C21.8664 22.4387 21.2253 23.0534 20.4086 23.504C19.5971 23.9546 18.6862 24.1792 17.6757 24.1792V24.1797ZM29.6291 22.2949C30.2782 22.2949 30.8622 22.1329 31.3805 21.8081C31.8988 21.4782 32.3044 21.0255 32.5977 20.4496C32.8909 19.8686 33.0373 19.2165 33.0373 18.4941C33.0373 17.7717 32.8909 17.1226 32.5977 16.5466C32.3044 15.9656 31.8988 15.5129 31.3805 15.1881C30.8622 14.8583 30.2782 14.6933 29.6291 14.6933C28.9799 14.6933 28.3934 14.8583 27.8701 15.1881C27.3517 15.5129 26.9432 15.9656 26.6449 16.5466C26.3517 17.123 26.2053 17.7717 26.2053 18.4941C26.2053 19.2165 26.3517 19.8686 26.6449 20.4496C26.9432 21.026 27.3517 21.4782 27.8701 21.8081C28.3934 22.1329 28.9799 22.2949 29.6291 22.2949ZM29.6211 24.1797C28.5689 24.1797 27.6134 23.9331 26.7547 23.4413C25.9015 22.9436 25.2284 22.2633 24.7366 21.3996C24.2498 20.5308 24.0062 19.5619 24.0062 18.4937C24.0062 17.4255 24.2498 16.4595 24.7366 15.5958C25.2288 14.727 25.9015 14.0459 26.7547 13.554C27.6134 13.0563 28.5689 12.8081 29.6211 12.8081C30.6733 12.8081 31.6342 13.0563 32.4874 13.554C33.3461 14.0459 34.0188 14.727 34.5056 15.5958C34.9924 16.4595 35.236 17.4255 35.236 18.4937C35.236 19.5619 34.9924 20.5308 34.5056 21.3996C34.0188 22.2633 33.3461 22.9436 32.4874 23.4413C31.6342 23.9331 30.6783 24.1797 29.6211 24.1797Z" fill="white"/>
</g>
<defs>
<linearGradient id="paint0_linear_4372_12218" x1="47.7263" y1="40.5338" x2="29.4885" y2="1.19694" gradientUnits="userSpaceOnUse">
<stop offset="0.24" stop-color="#00D886"/>
<stop offset="0.51" stop-color="#007DFE"/>
</linearGradient>
<linearGradient id="paint1_linear_4372_12218" x1="44.5344" y1="3.28538" x2="0.505743" y2="47.314" gradientUnits="userSpaceOnUse">
<stop offset="0.27" stop-color="#007DFE"/>
<stop offset="0.7" stop-color="#D249FC"/>
</linearGradient>
<clipPath id="clip0_4372_12218">
<rect width="48" height="48" fill="white"/>
</clipPath>
</defs>
</svg>
