<!-- Copyright © 2000–2024 JetBrains s.r.o. -->
<svg width="48" height="48" viewBox="0 0 48 48" xmlns="http://www.w3.org/2000/svg">
  <path fill="url(#a)" d="M3.09 48h25.598c1.245 0 2.37-.742 2.85-1.89l11.85-28.065c.165-.39.247-.81.24-1.23l-.113-13.748A3.09 3.09 0 0 0 40.425 0H27.173a3.1 3.1 0 0 0-1.695.51L1.395 16.343A3.08 3.08 0 0 0 0 18.923V44.91A3.095 3.095 0 0 0 3.09 48"/>
  <path fill="url(#b)" d="M36.758 43.5h8.145A3.097 3.097 0 0 0 48 40.41v-9.427c0-.15 0-.3-.03-.45L43.883 2.647A3.1 3.1 0 0 0 40.823 0h-11.55a3.1 3.1 0 0 0-3.098 3.098v13.875c0 .322.052.637.15.937l7.485 23.437a3.1 3.1 0 0 0 2.947 2.153"/>
  <path fill="#FDB60D" d="M35.663 43.5h9.195a3.09 3.09 0 0 0 3.09-3.142L48 32.25c-.015-.885-.593-1.898-1.26-2.475L18.12 5.243a3.1 3.1 0 0 0-2.018-.743H7.59A3.095 3.095 0 0 0 4.5 7.59v8.258c0 .892.383 1.74 1.058 2.324l28.065 24.563c.57.495 1.29.765 2.04.765"/>
  <path d="M39 43.5v-30l-9-9H9v39z"/>
  <path fill="#fff" d="M32.475 27c-1.238 3.488-4.568 6-8.475 6-4.965 0-9-4.035-9-9 0-3.907 2.512-7.238 6-8.475v-1.582c-4.335 1.29-7.5 5.302-7.5 10.057 0 5.797 4.703 10.5 10.5 10.5 4.755 0 8.767-3.165 10.057-7.5z"/>
  <path fill="#fff" d="M24 12v12h12c0-6.63-5.37-12-12-12"/>
  <defs>
    <linearGradient id="a" x1="44.76" x2=".81" y1="3.053" y2="46.995" gradientUnits="userSpaceOnUse">
      <stop offset=".31" stop-color="#FF45ED"/>
      <stop offset=".83" stop-color="#6B57FF"/>
    </linearGradient>
    <linearGradient id="b" x1="48.292" x2="29.707" y1="42.248" y2="2.152" gradientUnits="userSpaceOnUse">
      <stop offset=".3" stop-color="#FDB60D"/>
      <stop offset=".7" stop-color="#FF45ED"/>
    </linearGradient>
  </defs>
</svg>
