<svg width="24" height="24" viewBox="0 0 24 24" fill="none" xmlns="http://www.w3.org/2000/svg">
<g clip-path="url(#clip0_23455_94752)">
<path d="M21.2893 0.53125C22.3551 0.53125 23.22 1.39613 23.22 2.46191V12.8584C23.2199 14.0655 22.7397 15.2214 21.8889 16.0723L16.0735 21.8877C15.2194 22.7382 14.067 23.2187 12.8596 23.2188H2.46313C1.39735 23.2188 0.532471 22.3539 0.532471 21.2881V10.8916C0.532538 9.68454 1.01271 8.52861 1.86353 7.67773L7.67896 1.8623L7.84204 1.70703C8.67688 0.953337 9.76078 0.531313 10.8928 0.53125H21.2893Z" fill="black" stroke="white" stroke-width="0.375"/>
<path d="M17.4543 6.29688H3.50903V20.2422H17.4543V6.29688Z" stroke="white" stroke-width="0.75"/>
<path d="M11.3679 16.9154H5.44116V18.3099H11.3679V16.9154Z" fill="white"/>
<path d="M21.2893 0.34375C22.4586 0.34375 23.4075 1.29258 23.4075 2.46191V12.8584C23.4074 14.1152 22.9077 15.3191 22.0217 16.2051L16.2063 22.0205C15.3173 22.9057 14.1169 23.4062 12.8596 23.4062H2.46313C1.2938 23.4062 0.344971 22.4574 0.344971 21.2881V10.8916C0.345038 9.63479 0.84475 8.43095 1.73071 7.54492L7.54614 1.72949L7.71704 1.56738C8.58592 0.783215 9.71418 0.343813 10.8928 0.34375H21.2893Z" stroke="url(#paint0_linear_23455_94752)" stroke-width="0.75"/>
<path d="M21.2893 0.34375C22.4586 0.34375 23.4075 1.29258 23.4075 2.46191V12.8584C23.4074 14.1152 22.9077 15.3191 22.0217 16.2051L16.2063 22.0205C15.3173 22.9057 14.1169 23.4062 12.8596 23.4062H2.46313C1.2938 23.4062 0.344971 22.4574 0.344971 21.2881V10.8916C0.345038 9.63479 0.84475 8.43095 1.73071 7.54492L7.54614 1.72949L7.71704 1.56738C8.58592 0.783215 9.71418 0.343813 10.8928 0.34375H21.2893Z" stroke="url(#paint1_linear_23455_94752)" stroke-width="0.75"/>
</g>
<defs>
<linearGradient id="paint0_linear_23455_94752" x1="1.01631" y1="22.585" x2="22.5514" y2="1.34978" gradientUnits="userSpaceOnUse">
<stop stop-color="#FF9419"/>
<stop offset="0.43" stop-color="#FF021D"/>
<stop offset="0.99" stop-color="#E600FF"/>
</linearGradient>
<linearGradient id="paint1_linear_23455_94752" x1="11.8762" y1="5.20961" x2="18.0689" y2="22.3222" gradientUnits="userSpaceOnUse">
<stop stop-color="white" stop-opacity="0"/>
<stop offset="1" stop-color="white"/>
</linearGradient>
<clipPath id="clip0_23455_94752">
<rect width="24" height="24" fill="white"/>
</clipPath>
</defs>
</svg>
