<svg width="16" height="16" viewBox="0 0 16 16" fill="none" xmlns="http://www.w3.org/2000/svg">
<circle opacity="0.1" cx="8" cy="8" r="8" fill="#313547"/>
<path d="M10.7727 4.47733C10.9722 4.27538 11.2998 4.28041 11.4934 4.48807C11.676 4.68391 11.6717 4.98883 11.4837 5.17948L8.70143 7.99979L11.4837 10.8201C11.6716 11.0107 11.6759 11.3157 11.4934 11.5115C11.2998 11.7192 10.9722 11.7242 10.7727 11.5223L8.00026 8.71073L5.22878 11.5223C5.02927 11.7244 4.7008 11.7192 4.5071 11.5115C4.32481 11.3157 4.32906 11.0107 4.51686 10.8201L7.29811 7.99979L4.51686 5.17948C4.32896 4.98887 4.32464 4.68389 4.5071 4.48807C4.70085 4.2803 5.02928 4.27604 5.22878 4.47831L8.00026 7.28788L10.7727 4.47733Z" fill="#818594"/>
</svg>
