<svg width="16" height="16" viewBox="0 0 16 16" fill="none" xmlns="http://www.w3.org/2000/svg">
<path d="M10.7719 4.47737C10.9714 4.27511 11.2998 4.28034 11.4935 4.48811C11.676 4.68395 11.6717 4.98893 11.4838 5.17951L8.70155 7.99983L11.4838 10.8201C11.6716 11.0107 11.6758 11.3157 11.4935 11.5115C11.2998 11.7193 10.9714 11.7245 10.7719 11.5223L7.9994 8.71076L5.22791 11.5223C5.02838 11.7241 4.70082 11.7192 4.50721 11.5115C4.3247 11.3157 4.32898 11.0108 4.51698 10.8201L7.29725 7.99983L4.51698 5.17951C4.32894 4.98886 4.32459 4.68395 4.50721 4.48811C4.70097 4.28037 5.02843 4.27608 5.22791 4.47834L7.9994 7.28791L10.7719 4.47737Z" fill="#A8ADBD"/>
</svg>
