<!-- Copyright © 2000–2024 JetBrains s.r.o. -->
<svg width="256" height="256" viewBox="0 0 256 256" xmlns="http://www.w3.org/2000/svg">
  <path fill="#6B57FF" d="M232 65.8V16.76c0-9.2-7.56-16.64-16.76-16.48l-44.16.68c-4.76.08-9.2 2.2-12.28 5.76L27.96 159.36c-2.56 3-3.96 6.8-3.96 10.76v45.36C24 224.6 31.4 232 40.48 232h44.04c4.76 0 9.28-2.04 12.4-5.64l131-149.68A16.55 16.55 0 0 0 232 65.8"/>
  <path fill="url(#a)" d="M232 59.96V16.48C232 7.4 224.6 0 215.52 0h-50.28c-.8 0-1.6.04-2.4.16L14.12 21.96C6 23.16 0 30.12 0 38.28v61.6c0 9.12 7.4 16.5 16.52 16.5h74c1.72 0 3.4-.3 5-.78l125-39.92c6.84-2.2 11.48-8.56 11.48-15.72"/>
  <path fill="url(#b)" d="M256 239.48V103c0-6.64-3.96-12.64-10.08-15.2L96.24 24.6c-2.08-.88-4.32-1.02-6.56-.98H16.36C7.32 23.66 0 31.32 0 40.4v70.68c0 3.2.96 6.36 2.72 9.04l84.44 128.44c3.04 4.64 8.2 7.44 13.76 7.44h138.6c9.08 0 16.48-7.4 16.48-16.52"/>
  <path d="M208 48H48v160h160z"/>
  <path fill="#fff" d="M130.64 113.84c2.66 4.73 6.33 8.42 11 11.12s9.84 4.04 15.6 4.04c4.84 0 9.32-.89 13.36-2.68s7.45-4.31 10.16-7.56 4.48-6.96 5.4-11.16h-12.24a16.4 16.4 0 0 1-3.6 5.72c-1.59 1.65-3.47 2.9-5.72 3.8s-4.64 1.32-7.28 1.32c-3.56 0-6.74-.9-9.6-2.68s-5.13-4.2-6.72-7.28-2.44-6.6-2.44-10.48.83-7.4 2.44-10.52 3.85-5.5 6.72-7.28 6.04-2.68 9.6-2.68c2.64 0 5.03.46 7.28 1.36s4.16 2.12 5.72 3.76 2.8 3.56 3.6 5.76h12.24c-.92-4.24-2.71-7.97-5.4-11.2s-6.08-5.75-10.16-7.56-8.52-2.68-13.36-2.68c-5.76 0-10.95 1.34-15.6 4.04s-8.33 6.4-11 11.16-4 10-4 15.84 1.34 11.09 4 15.84"/>
  <path fill="#fff" fill-rule="evenodd" d="M67.96 67.96H90.8c5.72 0 10.8 1.29 15.32 3.88s8.02 6.11 10.56 10.68 3.8 9.72 3.8 15.48-1.27 10.89-3.8 15.44-6.07 8.14-10.56 10.72S96.52 128 90.8 128H67.96zm32.12 47.52c2.68-1.6 4.74-3.89 6.2-6.88s2.2-6.52 2.2-10.6-.73-7.64-2.2-10.64-3.52-5.28-6.2-6.88-5.84-2.4-9.4-2.4h-11v39.8h11c3.56 0 6.72-.8 9.4-2.4"/>
  <path fill="#fff" d="M131.96 176h-64v12h64z"/>
  <defs>
    <linearGradient id="a" x1="225.32" x2="11.49" y1="-1.55" y2="97.57" gradientUnits="userSpaceOnUse">
      <stop offset=".18" stop-color="#6B57FF"/>
      <stop offset=".54" stop-color="#FF45ED"/>
    </linearGradient>
    <linearGradient id="b" x1="16.21" x2="250.65" y1="17.2" y2="251.68" gradientUnits="userSpaceOnUse">
      <stop offset=".12" stop-color="#FF45ED"/>
      <stop offset=".92" stop-color="#FC801D"/>
    </linearGradient>
  </defs>
</svg>
