<!-- Copyright © 2000–2024 JetBrains s.r.o. -->
<svg width="32" height="32" viewBox="0 0 32 32" xmlns="http://www.w3.org/2000/svg">
  <path fill="#6B57FF" d="M29 8.225v-6.13c0-1.15-.945-2.08-2.095-2.06l-5.52.085c-.595.01-1.15.275-1.535.72L3.495 19.92c-.32.375-.495.85-.495 1.345v5.67C3 28.075 3.925 29 5.06 29h5.505c.595 0 1.16-.255 1.55-.705L28.49 9.585c.33-.38.51-.86.51-1.36"/>
  <path fill="url(#a)" d="M29 7.495V2.06C29 .925 28.075 0 26.94 0h-6.285q-.15-.001-.3.02L1.765 2.745A2.065 2.065 0 0 0 0 4.785v7.7c0 1.14.925 2.063 2.065 2.063h9.25c.215 0 .425-.038.625-.098l15.625-4.99A2.07 2.07 0 0 0 29 7.495"/>
  <path fill="url(#b)" d="M32 29.935v-17.06c0-.83-.495-1.58-1.26-1.9l-18.71-7.9c-.26-.11-.54-.128-.82-.123H2.045C.915 2.957 0 3.915 0 5.05v8.835c0 .4.12.795.34 1.13L10.895 31.07c.38.58 1.025.93 1.72.93H29.94c1.135 0 2.06-.925 2.06-2.065"/>
  <path d="M26 6H6v20h20z"/>
  <path fill="#fff" d="M16.33 14.23a3.64 3.64 0 0 0 1.375 1.39 3.8 3.8 0 0 0 1.95.505c.605 0 1.165-.111 1.67-.335a3.45 3.45 0 0 0 1.27-.945c.339-.406.56-.87.675-1.395h-1.53q-.15.406-.45.715a2 2 0 0 1-.715.475 2.4 2.4 0 0 1-.91.165 2.2 2.2 0 0 1-1.2-.335 2.3 2.3 0 0 1-.84-.91 2.8 2.8 0 0 1-.305-1.31q.002-.729.305-1.315a2.27 2.27 0 0 1 2.04-1.245c.33 0 .629.058.91.17s.52.265.715.47.35.445.45.72h1.53a3.2 3.2 0 0 0-.675-1.4 3.44 3.44 0 0 0-1.27-.945 4.1 4.1 0 0 0-1.67-.335q-1.08 0-1.95.505c-.581.338-1.041.8-1.375 1.395s-.5 1.25-.5 1.98.168 1.386.5 1.98"/>
  <path fill="#fff" fill-rule="evenodd" d="M8.495 8.495h2.855c.715 0 1.35.161 1.915.485a3.4 3.4 0 0 1 1.32 1.335q.475.856.475 1.935 0 1.078-.475 1.93a3.46 3.46 0 0 1-1.32 1.34c-.561.323-1.2.48-1.915.48H8.495zm4.015 5.94q.502-.3.775-.86.274-.56.275-1.325 0-.766-.275-1.33a2 2 0 0 0-.775-.86c-.335-.2-.73-.3-1.175-.3H9.96v4.975h1.375c.445 0 .84-.1 1.175-.3"/>
  <path fill="#fff" d="M16.495 22h-8v1.5h8z"/>
  <defs>
    <linearGradient id="a" x1="28.165" x2="1.436" y1="-.194" y2="12.196" gradientUnits="userSpaceOnUse">
      <stop offset=".18" stop-color="#6B57FF"/>
      <stop offset=".54" stop-color="#FF45ED"/>
    </linearGradient>
    <linearGradient id="b" x1="2.026" x2="31.331" y1="2.15" y2="31.46" gradientUnits="userSpaceOnUse">
      <stop offset=".12" stop-color="#FF45ED"/>
      <stop offset=".92" stop-color="#FC801D"/>
    </linearGradient>
  </defs>
</svg>
