<!-- Copyright © 2000–2024 JetBrains s.r.o. -->
<svg width="128" height="128" viewBox="0 0 128 128" xmlns="http://www.w3.org/2000/svg">
  <path fill="#6B57FF" d="M116 32.9V8.38c0-4.6-3.78-8.32-8.38-8.24L85.54.48c-2.38.04-4.6 1.1-6.14 2.88L13.98 79.68A8.27 8.27 0 0 0 12 85.06v22.68c0 4.56 3.7 8.26 8.24 8.26h22.02c2.38 0 4.64-1.02 6.2-2.82l65.5-74.84A8.28 8.28 0 0 0 116 32.9"/>
  <path fill="url(#a)" d="M116 29.98V8.24C116 3.7 112.3 0 107.76 0H82.62c-.4 0-.8.02-1.2.08L7.06 10.98C3 11.58 0 15.06 0 19.14v30.8c0 4.56 3.7 8.25 8.26 8.25h37c.86 0 1.7-.15 2.5-.39l62.5-19.96a8.27 8.27 0 0 0 5.74-7.86"/>
  <path fill="url(#b)" d="M128 119.74V51.5c0-3.32-1.98-6.32-5.04-7.6L48.12 12.3c-1.04-.44-2.16-.51-3.28-.49H8.18C3.66 11.83 0 15.66 0 20.2v35.34c0 1.6.48 3.18 1.36 4.52l42.22 64.22a8.22 8.22 0 0 0 6.88 3.72h69.3c4.54 0 8.24-3.7 8.24-8.26"/>
  <path d="M104 24H24v80h80z"/>
  <path fill="#fff" d="M65.32 56.92a14.54 14.54 0 0 0 5.5 5.56c2.335 1.35 4.92 2.02 7.8 2.02 2.42 0 4.66-.445 6.68-1.34s3.725-2.155 5.08-3.78 2.24-3.48 2.7-5.58h-6.12a8.2 8.2 0 0 1-1.8 2.86c-.795.825-1.735 1.45-2.86 1.9s-2.32.66-3.64.66c-1.78 0-3.37-.45-4.8-1.34a9.2 9.2 0 0 1-3.36-3.64c-.795-1.54-1.22-3.3-1.22-5.24s.415-3.7 1.22-5.26a9.1 9.1 0 0 1 3.36-3.64c1.435-.89 3.02-1.34 4.8-1.34 1.32 0 2.515.23 3.64.68s2.08 1.06 2.86 1.88 1.4 1.78 1.8 2.88h6.12c-.46-2.12-1.355-3.985-2.7-5.6q-2.019-2.422-5.08-3.78c-2.04-.905-4.26-1.34-6.68-1.34-2.88 0-5.475.67-7.8 2.02a14.6 14.6 0 0 0-5.5 5.58c-1.335 2.38-2 5-2 7.92s.67 5.545 2 7.92"/>
  <path fill="#fff" fill-rule="evenodd" d="M33.98 33.98H45.4c2.86 0 5.4.645 7.66 1.94s4.01 3.055 5.28 5.34 1.9 4.86 1.9 7.74-.635 5.445-1.9 7.72a13.84 13.84 0 0 1-5.28 5.36C50.815 63.37 48.26 64 45.4 64H33.98zm16.06 23.76c1.34-.8 2.37-1.945 3.1-3.44s1.1-3.26 1.1-5.3-.365-3.82-1.1-5.32-1.76-2.64-3.1-3.44-2.92-1.2-4.7-1.2h-5.5v19.9h5.5c1.78 0 3.36-.4 4.7-1.2"/>
  <path fill="#fff" d="M65.98 88h-32v6h32z"/>
  <defs>
    <linearGradient id="a" x1="112.66" x2="5.745" y1="-.775" y2="48.785" gradientUnits="userSpaceOnUse">
      <stop offset=".18" stop-color="#6B57FF"/>
      <stop offset=".54" stop-color="#FF45ED"/>
    </linearGradient>
    <linearGradient id="b" x1="8.105" x2="125.325" y1="8.6" y2="125.84" gradientUnits="userSpaceOnUse">
      <stop offset=".12" stop-color="#FF45ED"/>
      <stop offset=".92" stop-color="#FC801D"/>
    </linearGradient>
  </defs>
</svg>
