<!-- Copyright © 2000–2024 JetBrains s.r.o. -->
<svg width="24" height="24" viewBox="0 0 24 24" xmlns="http://www.w3.org/2000/svg">
  <path fill="#6B57FF" d="M21.75 6.169V1.57c0-.862-.709-1.56-1.571-1.545l-4.14.064a1.56 1.56 0 0 0-1.152.54L2.621 14.94a1.55 1.55 0 0 0-.371 1.009V20.2c0 .855.694 1.549 1.545 1.549h4.129c.446 0 .87-.191 1.162-.529L21.368 7.19c.247-.285.382-.645.382-1.02"/>
  <path fill="url(#a)" d="M21.75 5.621V1.545C21.75.694 21.056 0 20.205 0h-4.714q-.113 0-.225.015L1.324 2.059A1.55 1.55 0 0 0 0 3.589v5.775c0 .855.694 1.547 1.549 1.547h6.937c.162 0 .319-.028.469-.073l11.719-3.743a1.55 1.55 0 0 0 1.076-1.474"/>
  <path fill="url(#b)" d="M24 22.451V9.656c0-.622-.371-1.185-.945-1.425L9.023 2.306c-.195-.082-.405-.095-.615-.092H1.534C.686 2.218 0 2.936 0 3.788v6.626c0 .3.09.596.255.847l7.916 12.042a1.54 1.54 0 0 0 1.29.697h12.994c.851 0 1.545-.694 1.545-1.549"/>
  <path d="M19.5 4.5h-15v15h15z"/>
  <path fill="#fff" d="M12.248 10.672q.374.665 1.03 1.043a2.86 2.86 0 0 0 1.463.379q.683 0 1.253-.252t.952-.708a2.4 2.4 0 0 0 .507-1.047h-1.148a1.54 1.54 0 0 1-.874.893q-.313.125-.682.124-.5 0-.9-.252a1.7 1.7 0 0 1-.63-.682 2.1 2.1 0 0 1-.229-.983q.001-.545.229-.986a1.7 1.7 0 0 1 1.53-.934c.247 0 .471.043.682.128a1.49 1.49 0 0 1 .874.892h1.148a2.4 2.4 0 0 0-.507-1.05 2.6 2.6 0 0 0-.952-.708 3.05 3.05 0 0 0-1.253-.252q-.809 0-1.462.38-.655.378-1.031 1.045c-.25.447-.375.938-.375 1.485s.125 1.04.375 1.485"/>
  <path fill="#fff" fill-rule="evenodd" d="M6.371 6.371h2.141c.537 0 1.013.121 1.437.364s.752.573.99 1.001q.357.642.356 1.451t-.356 1.448a2.6 2.6 0 0 1-.99 1.005q-.632.36-1.437.36h-2.14zm3.011 4.455q.377-.225.582-.645.206-.42.206-.994t-.206-.997a1.5 1.5 0 0 0-.582-.645 1.7 1.7 0 0 0-.88-.225H7.47v3.731h1.031q.503 0 .881-.225"/>
  <path fill="#fff" d="M12.371 16.5h-6v1.125h6z"/>
  <defs>
    <linearGradient id="a" x1="21.124" x2="1.077" y1="-.145" y2="9.147" gradientUnits="userSpaceOnUse">
      <stop offset=".18" stop-color="#6B57FF"/>
      <stop offset=".54" stop-color="#FF45ED"/>
    </linearGradient>
    <linearGradient id="b" x1="1.52" x2="23.498" y1="1.613" y2="23.595" gradientUnits="userSpaceOnUse">
      <stop offset=".12" stop-color="#FF45ED"/>
      <stop offset=".92" stop-color="#FC801D"/>
    </linearGradient>
  </defs>
</svg>
