<!-- Copyright © 2000–2024 JetBrains s.r.o. -->
<svg width="48" height="48" viewBox="0 0 48 48" xmlns="http://www.w3.org/2000/svg">
  <path fill="#6B57FF" d="M43.5 12.338V3.143a3.09 3.09 0 0 0-3.142-3.09l-8.28.127a3.1 3.1 0 0 0-2.303 1.08L5.243 29.88a3.1 3.1 0 0 0-.743 2.018v8.505A3.097 3.097 0 0 0 7.59 43.5h8.258a3.07 3.07 0 0 0 2.324-1.057l24.563-28.065c.495-.57.765-1.29.765-2.04"/>
  <path fill="url(#a)" d="M43.5 11.243V3.09A3.095 3.095 0 0 0 40.41 0h-9.427q-.225-.001-.45.03L2.647 4.117A3.1 3.1 0 0 0 0 7.178v11.55a3.095 3.095 0 0 0 3.098 3.094h13.875c.322 0 .637-.056.937-.146l23.437-7.485a3.1 3.1 0 0 0 2.153-2.947"/>
  <path fill="url(#b)" d="M48 44.903v-25.59c0-1.245-.742-2.37-1.89-2.85L18.045 4.613c-.39-.165-.81-.192-1.23-.184H3.067C1.372 4.436 0 5.873 0 7.575v13.253c0 .6.18 1.192.51 1.695l15.833 24.082A3.08 3.08 0 0 0 18.923 48H44.91A3.097 3.097 0 0 0 48 44.903"/>
  <path d="M39 9H9v30h30z"/>
  <path fill="#fff" d="M24.495 21.345a5.45 5.45 0 0 0 2.063 2.085c.875.506 1.845.758 2.925.758.907 0 1.747-.167 2.505-.503a5.2 5.2 0 0 0 1.904-1.417c.509-.61.84-1.305 1.013-2.093H32.61a3.1 3.1 0 0 1-.675 1.073c-.298.31-.65.543-1.072.712s-.87.248-1.366.248a3.33 3.33 0 0 1-1.8-.503 3.44 3.44 0 0 1-1.26-1.365 4.24 4.24 0 0 1-.457-1.965c0-.727.156-1.387.457-1.972a3.4 3.4 0 0 1 1.26-1.365 3.33 3.33 0 0 1 1.8-.503c.495 0 .944.086 1.366.255a2.98 2.98 0 0 1 1.747 1.785h2.295a4.8 4.8 0 0 0-1.013-2.1 5.16 5.16 0 0 0-1.905-1.417c-.764-.34-1.597-.503-2.504-.503q-1.62-.001-2.925.758a5.47 5.47 0 0 0-2.063 2.092c-.5.893-.75 1.875-.75 2.97s.251 2.08.75 2.97"/>
  <path fill="#fff" fill-rule="evenodd" d="M12.743 12.743h4.282c1.073 0 2.025.242 2.873.727a5.13 5.13 0 0 1 1.98 2.003q.713 1.284.712 2.902c0 1.08-.238 2.042-.712 2.895a5.2 5.2 0 0 1-1.98 2.01c-.842.484-1.8.72-2.873.72h-4.282zm6.022 8.91q.753-.45 1.162-1.29.412-.84.413-1.988 0-1.149-.413-1.995a3 3 0 0 0-1.162-1.29c-.503-.3-1.095-.45-1.762-.45H14.94v7.463h2.063c.667 0 1.26-.15 1.762-.45"/>
  <path fill="#fff" d="M24.743 33h-12v2.25h12z"/>
  <defs>
    <linearGradient id="a" x1="42.248" x2="2.154" y1="-.291" y2="18.294" gradientUnits="userSpaceOnUse">
      <stop offset=".18" stop-color="#6B57FF"/>
      <stop offset=".54" stop-color="#FF45ED"/>
    </linearGradient>
    <linearGradient id="b" x1="3.039" x2="46.997" y1="3.225" y2="47.19" gradientUnits="userSpaceOnUse">
      <stop offset=".12" stop-color="#FF45ED"/>
      <stop offset=".92" stop-color="#FC801D"/>
    </linearGradient>
  </defs>
</svg>
