<!-- Copyright © 2000–2024 JetBrains s.r.o. -->
<svg width="64" height="64" viewBox="0 0 64 64" xmlns="http://www.w3.org/2000/svg">
  <path fill="#6B57FF" d="M58 16.45V4.19c0-2.3-1.89-4.16-4.19-4.12L42.77.24c-1.19.02-2.3.55-3.07 1.44L6.99 39.84c-.64.75-.99 1.7-.99 2.69v11.34A4.13 4.13 0 0 0 10.12 58h11.01c1.19 0 2.32-.51 3.1-1.41l32.75-37.42c.66-.76 1.02-1.72 1.02-2.72"/>
  <path fill="url(#a)" d="M58 14.99V4.12C58 1.85 56.15 0 53.88 0H41.31c-.2 0-.4.01-.6.04L3.53 5.49A4.13 4.13 0 0 0 0 9.57v15.4c0 2.28 1.85 4.125 4.13 4.125h18.5c.43 0 .85-.075 1.25-.195l31.25-9.98A4.13 4.13 0 0 0 58 14.99"/>
  <path fill="url(#b)" d="M64 59.87V25.75c0-1.66-.99-3.16-2.52-3.8L24.06 6.15c-.52-.22-1.08-.255-1.64-.245H4.09C1.83 5.915 0 7.83 0 10.1v17.67c0 .8.24 1.59.68 2.26l21.11 32.11A4.11 4.11 0 0 0 25.23 64h34.65A4.13 4.13 0 0 0 64 59.87"/>
  <path d="M52 12H12v40h40z"/>
  <path fill="#fff" d="M32.66 28.46a7.27 7.27 0 0 0 2.75 2.78c1.168.675 2.46 1.01 3.9 1.01 1.21 0 2.33-.222 3.34-.67a6.9 6.9 0 0 0 2.54-1.89 6.4 6.4 0 0 0 1.35-2.79h-3.06q-.302.811-.9 1.43a4 4 0 0 1-1.43.95c-.562.225-1.16.33-1.82.33a4.44 4.44 0 0 1-2.4-.67 4.6 4.6 0 0 1-1.68-1.82c-.398-.77-.61-1.65-.61-2.62s.207-1.85.61-2.63a4.54 4.54 0 0 1 1.68-1.82 4.45 4.45 0 0 1 2.4-.67c.66 0 1.258.115 1.82.34s1.04.53 1.43.94.7.89.9 1.44h3.06a6.4 6.4 0 0 0-1.35-2.8q-1.009-1.21-2.54-1.89c-1.02-.452-2.13-.67-3.34-.67q-2.158-.001-3.9 1.01a7.3 7.3 0 0 0-2.75 2.79c-.667 1.19-1 2.5-1 3.96s.335 2.773 1 3.96"/>
  <path fill="#fff" fill-rule="evenodd" d="M16.99 16.99h5.71c1.43 0 2.7.323 3.83.97a6.85 6.85 0 0 1 2.64 2.67c.635 1.143.95 2.43.95 3.87s-.318 2.723-.95 3.86a6.9 6.9 0 0 1-2.64 2.68c-1.123.645-2.4.96-3.83.96h-5.71zm8.03 11.88q1.004-.599 1.55-1.72.549-1.12.55-2.65c0-1.02-.183-1.91-.55-2.66s-.88-1.32-1.55-1.72-1.46-.6-2.35-.6h-2.75v9.95h2.75c.89 0 1.68-.2 2.35-.6"/>
  <path fill="#fff" d="M32.99 44h-16v3h16z"/>
  <defs>
    <linearGradient id="a" x1="56.33" x2="2.873" y1="-.387" y2="24.392" gradientUnits="userSpaceOnUse">
      <stop offset=".18" stop-color="#6B57FF"/>
      <stop offset=".54" stop-color="#FF45ED"/>
    </linearGradient>
    <linearGradient id="b" x1="4.053" x2="62.663" y1="4.3" y2="62.92" gradientUnits="userSpaceOnUse">
      <stop offset=".12" stop-color="#FF45ED"/>
      <stop offset=".92" stop-color="#FC801D"/>
    </linearGradient>
  </defs>
</svg>
