<svg width="20" height="20" viewBox="0 0 20 20" fill="none" xmlns="http://www.w3.org/2000/svg">
<path d="M18 10C19.1046 10 20 10.8954 20 12V20L16 18H12C10.8954 18 10 17.1046 10 16V12C10 10.9643 10.7872 10.113 11.7959 10.0107L12 10H18ZM8.5 5.5C11.4387 5.5 13.6355 6.68072 13.9746 8.5H12.5654C12.18 7.50193 10.6472 6.75978 8.58008 6.75977C5.68008 6.75977 3.5 8.54004 3.5 11.04C3.50002 13.4555 5.37008 15.3853 8.5 16.1475V17.6846C4.47512 16.8248 2.00002 14.2843 2 11.04C2 7.82004 4.74 5.5 8.5 5.5ZM12 11.5C11.7239 11.5 11.5 11.7239 11.5 12V16C11.5 16.2761 11.7239 16.5 12 16.5H16.3545L16.6709 16.6582L18.5 17.5723V12C18.5 11.7239 18.2761 11.5 18 11.5H12ZM5.98047 11C5.98047 9.1401 7.91792 8.02396 10.2832 8.94922C9.89785 9.16655 9.55731 9.45447 9.28027 9.7959C8.11752 9.57952 7.33984 10.092 7.33984 11C7.33984 11.6257 7.7679 12.1899 8.5 12.5957V14.0059C6.94976 13.4225 5.98047 12.3577 5.98047 11ZM8.36035 2C13.975 2.00011 17.7042 4.71777 17.9834 8.5H16.4766C16.1824 5.59613 13.0937 3.5001 8.36035 3.5C7.00035 3.5 5.45969 3.74027 4.17969 4.28027C3.46002 4.57994 3.00016 4.20005 3 3.74023C3 3.36023 3.26027 3.09988 3.78027 2.87988C5.2402 2.25997 6.88044 2 8.36035 2Z" fill="#CED0D6"/>
</svg>
