<!-- Copyright © 2000–2024 JetBrains s.r.o. -->
<svg width="64" height="64" viewBox="0 0 64 64" xmlns="http://www.w3.org/2000/svg">
  <path fill="url(#a)" d="M59.87 0H25.75c-1.66 0-3.16.99-3.8 2.52L6.15 39.94c-.22.52-.33 1.08-.32 1.64l.15 18.33C5.99 62.17 7.84 64 10.1 64h17.67c.8 0 1.59-.24 2.26-.68l32.11-21.11A4.12 4.12 0 0 0 64 38.77V4.12A4.13 4.13 0 0 0 59.87 0"/>
  <path fill="url(#b)" d="M14.99 6H4.12C1.85 6 0 7.85 0 10.12v12.57c0 .2 0 .4.04.6l5.45 37.18A4.13 4.13 0 0 0 9.57 64h15.4c2.28 0 4.13-1.85 4.13-4.13v-18.5c-.01-.43-.08-.85-.2-1.25L18.92 8.87A4.13 4.13 0 0 0 14.99 6"/>
  <path fill="#FDB60D" d="M16.45 6H4.19C1.89 6 .03 7.89.07 10.19L0 21c.02 1.18.79 2.53 1.68 3.3l38.16 32.71c.75.64 1.7.99 2.69.99h11.35A4.13 4.13 0 0 0 58 53.87v-11c0-1.19-.51-2.32-1.41-3.1L19.17 7.02A4.14 4.14 0 0 0 16.45 6"/>
  <path d="M52 12H12v40h40z"/>
  <path fill="#fff" fill-rule="evenodd" d="M17.01 16.99h6.44c1.05 0 1.98.2 2.78.58.8.39 1.42.93 1.85 1.63s.65 1.51.65 2.43-.22 1.75-.66 2.46c-.44.72-1.07 1.27-1.88 1.66-.22.1-.45.19-.7.27L29.05 32h-3.36l-3.23-5.67h-2.52V32h-2.93zm7.54 6.63c.37-.18.65-.44.85-.78s.3-.73.3-1.18-.1-.86-.3-1.19-.48-.59-.85-.77q-.555-.27-1.29-.27h-3.32v4.47h3.32c.49 0 .92-.09 1.29-.28"/>
  <path fill="#fff" d="M33 44H17v3h16z"/>
  <path fill="#fff" fill-rule="evenodd" d="M42.81 28.17v-1.9H40.6l.76-3.54h2.52V20.8h-2.11l.82-3.81h-2.14l-.81 3.82h-3.2l.82-3.82h-2.13l-.82 3.83h-2.62v1.93h2.2l-.75 3.53h-2.53v1.91h2.12L31.91 32h2.13l.82-3.81h3.2L37.24 32h2.13l.82-3.82h2.62zm-7.54-1.89h3.2l.75-3.54h-3.19z"/>
  <defs>
    <linearGradient id="a" x1="4.32" x2="62.92" y1="59.928" y2="1.337" gradientUnits="userSpaceOnUse">
      <stop offset=".29" stop-color="#FF45ED"/>
      <stop offset=".7" stop-color="#FF0A67"/>
    </linearGradient>
    <linearGradient id="b" x1="-.388" x2="24.392" y1="7.67" y2="61.13" gradientUnits="userSpaceOnUse">
      <stop offset=".3" stop-color="#FDB60D"/>
      <stop offset=".54" stop-color="#FF45ED"/>
    </linearGradient>
  </defs>
</svg>
