<!-- Copyright © 2000–2024 JetBrains s.r.o. -->
<svg width="256" height="256" viewBox="0 0 256 256" xmlns="http://www.w3.org/2000/svg">
  <path fill="url(#a)" d="M239.48 0H103c-6.64 0-12.64 3.96-15.2 10.08L24.6 159.76c-.88 2.08-1.32 4.32-1.28 6.56l.6 73.32c.04 9.04 7.44 16.36 16.48 16.36h70.68c3.2 0 6.36-.96 9.04-2.72l128.44-84.44a16.49 16.49 0 0 0 7.44-13.76V16.48C256 7.4 248.6 0 239.48 0"/>
  <path fill="url(#b)" d="M59.96 24H16.48C7.4 24 0 31.4 0 40.48v50.28c0 .8 0 1.6.16 2.4l21.8 148.72C23.16 250 30.12 256 38.28 256h61.6c9.12 0 16.52-7.4 16.52-16.52v-74c-.04-1.72-.32-3.4-.8-5l-39.92-125C73.48 28.64 67.12 24 59.96 24"/>
  <path fill="#FDB60D" d="M65.8 24H16.76C7.56 24 .12 31.56.28 40.76L0 84c.08 4.72 3.16 10.12 6.72 13.2l152.64 130.84c3 2.56 6.8 3.96 10.76 3.96h45.4c9.08 0 16.48-7.4 16.48-16.52v-44c0-4.76-2.04-9.28-5.64-12.4l-149.68-131A16.55 16.55 0 0 0 65.8 24"/>
  <path d="M208 48H48v160h160z"/>
  <path fill="#fff" fill-rule="evenodd" d="M68.04 67.96H93.8c4.2 0 7.92.8 11.12 2.32 3.2 1.56 5.68 3.72 7.4 6.52s2.6 6.04 2.6 9.72-.88 7-2.64 9.84c-1.76 2.88-4.28 5.08-7.52 6.64-.88.4-1.8.76-2.8 1.08L116.2 128h-13.44l-12.92-22.68H79.76V128H68.04zM98.2 94.48c1.48-.72 2.6-1.76 3.4-3.12s1.2-2.92 1.2-4.72-.4-3.44-1.2-4.76-1.92-2.36-3.4-3.08q-2.22-1.08-5.16-1.08H79.76V95.6h13.28c1.96 0 3.68-.36 5.16-1.12"/>
  <path fill="#fff" d="M132 176H68v12h64z"/>
  <path fill="#fff" fill-rule="evenodd" d="M171.24 112.68v-7.6h-8.84l3.04-14.16h10.08V83.2h-8.44l3.28-15.24h-8.56l-3.24 15.28h-12.8l3.28-15.28h-8.52l-3.28 15.32h-10.48V91h8.8l-3 14.12h-10.12v7.64h8.48L127.64 128h8.52l3.28-15.24h12.8L148.96 128h8.52l3.28-15.28h10.48zm-30.16-7.56h12.8l3-14.16h-12.76z"/>
  <defs>
    <linearGradient id="a" x1="17.28" x2="251.68" y1="239.71" y2="5.35" gradientUnits="userSpaceOnUse">
      <stop offset=".29" stop-color="#FF45ED"/>
      <stop offset=".7" stop-color="#FF0A67"/>
    </linearGradient>
    <linearGradient id="b" x1="-1.55" x2="97.57" y1="30.68" y2="244.52" gradientUnits="userSpaceOnUse">
      <stop offset=".3" stop-color="#FDB60D"/>
      <stop offset=".54" stop-color="#FF45ED"/>
    </linearGradient>
  </defs>
</svg>
