<!-- Copyright © 2000–2024 JetBrains s.r.o. -->
<svg width="48" height="48" viewBox="0 0 48 48" xmlns="http://www.w3.org/2000/svg">
  <path fill="url(#a)" d="M44.903 0h-25.59c-1.245 0-2.37.743-2.85 1.89L4.612 29.955c-.165.39-.248.81-.24 1.23l.112 13.747A3.09 3.09 0 0 0 7.575 48h13.253a3.1 3.1 0 0 0 1.695-.51l24.082-15.833A3.09 3.09 0 0 0 48 29.078V3.09A3.097 3.097 0 0 0 44.903 0"/>
  <path fill="url(#b)" d="M11.243 4.5H3.09A3.095 3.095 0 0 0 0 7.59v9.427c0 .15 0 .3.03.45l4.087 27.886A3.1 3.1 0 0 0 7.178 48h11.55a3.1 3.1 0 0 0 3.098-3.097V31.028a3.6 3.6 0 0 0-.15-.938L14.19 6.653A3.1 3.1 0 0 0 11.243 4.5"/>
  <path fill="#FDB60D" d="M12.338 4.5H3.143a3.09 3.09 0 0 0-3.09 3.143L0 15.75c.015.885.593 1.898 1.26 2.475l28.62 24.533c.563.48 1.275.742 2.018.742h8.512a3.097 3.097 0 0 0 3.09-3.097v-8.25a3.07 3.07 0 0 0-1.057-2.325L14.378 5.265a3.1 3.1 0 0 0-2.04-.765"/>
  <path d="M39 9H9v30h30z"/>
  <path fill="#fff" fill-rule="evenodd" d="M12.757 12.743h4.83c.788 0 1.485.15 2.085.435q.902.436 1.388 1.222c.322.525.487 1.133.487 1.823s-.165 1.312-.495 1.845c-.33.54-.802.952-1.41 1.245a5 5 0 0 1-.525.202L21.787 24h-2.52l-2.422-4.252h-1.89V24h-2.198zm5.655 4.972c.278-.135.488-.33.638-.585s.225-.547.225-.885-.075-.645-.225-.892a1.5 1.5 0 0 0-.638-.578 2.2 2.2 0 0 0-.967-.202h-2.49v3.352h2.49c.367 0 .69-.067.967-.21"/>
  <path fill="#fff" d="M24.75 33h-12v2.25h12z"/>
  <path fill="#fff" fill-rule="evenodd" d="M32.108 21.128v-1.425H30.45l.57-2.655h1.89V15.6h-1.582l.614-2.857h-1.605l-.607 2.865h-2.4l.615-2.865h-1.598l-.614 2.872h-1.966v1.448h1.65l-.562 2.647h-1.898v1.433h1.59L23.934 24h1.597l.615-2.857h2.4L27.93 24h1.598l.614-2.865h1.966zm-5.655-1.418h2.4l.562-2.655h-2.392z"/>
  <defs>
    <linearGradient id="a" x1="3.24" x2="47.19" y1="44.946" y2="1.003" gradientUnits="userSpaceOnUse">
      <stop offset=".29" stop-color="#FF45ED"/>
      <stop offset=".7" stop-color="#FF0A67"/>
    </linearGradient>
    <linearGradient id="b" x1="-.291" x2="18.294" y1="5.753" y2="45.847" gradientUnits="userSpaceOnUse">
      <stop offset=".3" stop-color="#FDB60D"/>
      <stop offset=".54" stop-color="#FF45ED"/>
    </linearGradient>
  </defs>
</svg>
