<!-- Copyright © 2000–2024 JetBrains s.r.o. -->
<svg width="24" height="24" viewBox="0 0 24 24" xmlns="http://www.w3.org/2000/svg">
  <path fill="url(#a)" d="M22.451 0H9.656c-.622 0-1.185.371-1.425.945L2.306 14.977a1.5 1.5 0 0 0-.12.615l.057 6.874A1.545 1.545 0 0 0 3.788 24h6.626c.3 0 .596-.09.847-.255l12.042-7.916c.434-.285.697-.773.697-1.29V1.545C24 .694 23.306 0 22.451 0"/>
  <path fill="url(#b)" d="M5.621 2.25H1.545C.694 2.25 0 2.944 0 3.795v4.714c0 .075 0 .15.015.225l2.044 13.942A1.55 1.55 0 0 0 3.589 24h5.775a1.55 1.55 0 0 0 1.548-1.549v-6.937a1.8 1.8 0 0 0-.075-.469L7.096 3.326A1.55 1.55 0 0 0 5.621 2.25"/>
  <path fill="#FDB60D" d="M6.169 2.25H1.57c-.862 0-1.56.709-1.545 1.571L0 7.875c.008.443.296.949.63 1.238l14.31 12.266c.281.24.638.371 1.009.371h4.256c.851 0 1.545-.694 1.545-1.549v-4.125c0-.446-.191-.87-.529-1.162L7.19 2.633a1.55 1.55 0 0 0-1.02-.383"/>
  <path d="M19.5 4.5h-15v15h15z"/>
  <path fill="#fff" fill-rule="evenodd" d="M6.379 6.371h2.415q.591.002 1.042.218.451.218.694.61.243.394.244.912c0 .345-.083.656-.248.923q-.248.404-.705.622a2 2 0 0 1-.262.101L10.894 12h-1.26L8.423 9.874h-.945V12h-1.1zm2.827 2.486a.73.73 0 0 0 .32-.292.85.85 0 0 0 .112-.443.86.86 0 0 0-.113-.446.75.75 0 0 0-.319-.289 1.1 1.1 0 0 0-.483-.1H7.478v1.675h1.245q.275.002.483-.105"/>
  <path fill="#fff" d="M12.375 16.5h-6v1.125h6z"/>
  <path fill="#fff" fill-rule="evenodd" d="M16.054 10.564V9.85h-.83l.286-1.327h.945V7.8h-.791l.307-1.429h-.803l-.303 1.433h-1.2l.307-1.433h-.798l-.308 1.436h-.982v.724h.825l-.282 1.324h-.948v.716h.795L11.966 12h.799l.307-1.429h1.2L13.965 12h.799l.307-1.433h.982zm-2.828-.71h1.2l.281-1.327h-1.196z"/>
  <defs>
    <linearGradient id="a" x1="1.62" x2="23.595" y1="22.473" y2=".502" gradientUnits="userSpaceOnUse">
      <stop offset=".29" stop-color="#FF45ED"/>
      <stop offset=".7" stop-color="#FF0A67"/>
    </linearGradient>
    <linearGradient id="b" x1="-.145" x2="9.147" y1="2.876" y2="22.924" gradientUnits="userSpaceOnUse">
      <stop offset=".3" stop-color="#FDB60D"/>
      <stop offset=".54" stop-color="#FF45ED"/>
    </linearGradient>
  </defs>
</svg>
