<!-- Copyright © 2000–2024 JetBrains s.r.o. -->
<svg width="16" height="16" viewBox="0 0 16 16" xmlns="http://www.w3.org/2000/svg">
  <path fill="#DD1265" d="M16 0H0v16h16z"/>
  <path d="M15 1H1v14h14z"/>
  <path fill="#fff" d="M8 12H3v1h5zM3 3.01h2.186c.608 0 1.067.17 1.397.499q.407.435.409 1.138c0 .419-.09.748-.28.998-.189.25-.439.439-.738.559L7.142 7.98H5.914l-.988-1.527h-.868V7.99H3V3zm2.126 2.425c.26 0 .459-.06.599-.19q.21-.195.21-.508c0-.25-.07-.43-.22-.55s-.35-.179-.61-.179H4.059v1.437h1.068zM8.19 6.932h-.54v-.908h.7l.179-1.058H7.9v-.908h.789l.18-1.038h.937l-.18 1.038h1.039l.18-1.038h.937l-.18 1.038h.54v.908h-.699l-.18 1.058h.63v.908h-.79L10.925 8h-.938l.18-1.068H9.128L8.948 8H8.01zm2.125-.918.18-1.058H9.457l-.18 1.058z"/>
</svg>
