<!-- Copyright © 2000–2024 JetBrains s.r.o. -->
<svg width="128" height="128" viewBox="0 0 128 128" xmlns="http://www.w3.org/2000/svg">
  <path fill="url(#a)" d="M119.74 0H51.5c-3.32 0-6.32 1.98-7.6 5.04L12.3 79.88a8.1 8.1 0 0 0-.64 3.28l.3 36.66c.02 4.52 3.72 8.18 8.24 8.18h35.34c1.6 0 3.18-.48 4.52-1.36l64.22-42.22a8.24 8.24 0 0 0 3.72-6.88V8.24C128 3.7 124.3 0 119.74 0"/>
  <path fill="url(#b)" d="M29.98 12H8.24C3.7 12 0 15.7 0 20.24v25.14c0 .4 0 .8.08 1.2l10.9 74.36c.6 4.06 4.08 7.06 8.16 7.06h30.8c4.56 0 8.26-3.7 8.26-8.26v-37c-.02-.86-.16-1.7-.4-2.5l-19.96-62.5A8.27 8.27 0 0 0 29.98 12"/>
  <path fill="#FDB60D" d="M32.9 12H8.38c-4.6 0-8.32 3.78-8.24 8.38L0 42c.04 2.36 1.58 5.06 3.36 6.6l76.32 65.42a8.27 8.27 0 0 0 5.38 1.98h22.7c4.54 0 8.24-3.7 8.24-8.26v-22c0-2.38-1.02-4.64-2.82-6.2l-74.84-65.5A8.28 8.28 0 0 0 32.9 12"/>
  <path d="M104 24H24v80h80z"/>
  <path fill="#fff" fill-rule="evenodd" d="M34.02 33.98H46.9c2.1 0 3.96.4 5.56 1.16 1.6.78 2.84 1.86 3.7 3.26s1.3 3.02 1.3 4.86-.44 3.5-1.32 4.92c-.88 1.44-2.14 2.54-3.76 3.32-.44.2-.9.38-1.4.54L58.1 64h-6.72l-6.46-11.34h-5.04V64h-5.86zM49.1 47.24c.74-.36 1.3-.88 1.7-1.56s.6-1.46.6-2.36-.2-1.72-.6-2.38-.96-1.18-1.7-1.54q-1.11-.54-2.58-.54h-6.64v8.94h6.64c.98 0 1.84-.18 2.58-.56"/>
  <path fill="#fff" d="M66 88H34v6h32z"/>
  <path fill="#fff" fill-rule="evenodd" d="M85.62 56.34v-3.8H81.2l1.52-7.08h5.04V41.6h-4.22l1.64-7.62H80.9l-1.62 7.64h-6.4l1.64-7.64h-4.26l-1.64 7.66h-5.24v3.86h4.4l-1.5 7.06h-5.06v3.82h4.24L63.82 64h4.26l1.64-7.62h6.4L74.48 64h4.26l1.64-7.64h5.24zm-15.08-3.78h6.4l1.5-7.08h-6.38z"/>
  <defs>
    <linearGradient id="a" x1="8.64" x2="125.84" y1="119.855" y2="2.675" gradientUnits="userSpaceOnUse">
      <stop offset=".29" stop-color="#FF45ED"/>
      <stop offset=".7" stop-color="#FF0A67"/>
    </linearGradient>
    <linearGradient id="b" x1="-.775" x2="48.785" y1="15.34" y2="122.26" gradientUnits="userSpaceOnUse">
      <stop offset=".3" stop-color="#FDB60D"/>
      <stop offset=".54" stop-color="#FF45ED"/>
    </linearGradient>
  </defs>
</svg>
