<!-- Copyright © 2000–2024 JetBrains s.r.o. -->
<svg width="32" height="32" viewBox="0 0 32 32" xmlns="http://www.w3.org/2000/svg">
  <path fill="url(#a)" d="M29.935 0h-17.06c-.83 0-1.58.495-1.9 1.26l-7.9 18.71c-.11.26-.165.54-.16.82l.075 9.165A2.06 2.06 0 0 0 5.05 32h8.835c.4 0 .795-.12 1.13-.34L31.07 21.105c.58-.38.93-1.03.93-1.72V2.06C32 .925 31.075 0 29.935 0"/>
  <path fill="url(#b)" d="M7.495 3H2.06C.925 3 0 3.925 0 5.06v6.285c0 .1 0 .2.02.3l2.725 18.59A2.065 2.065 0 0 0 4.785 32h7.7c1.14 0 2.065-.925 2.065-2.065v-9.25a2.4 2.4 0 0 0-.1-.625L9.46 4.435A2.07 2.07 0 0 0 7.495 3"/>
  <path fill="#FDB60D" d="M8.225 3h-6.13c-1.15 0-2.08.945-2.06 2.095L0 10.5c.01.59.395 1.265.84 1.65l19.08 16.355c.375.32.85.495 1.345.495h5.675c1.135 0 2.06-.925 2.06-2.065v-5.5c0-.595-.255-1.16-.705-1.55L9.585 3.51c-.38-.33-.86-.51-1.36-.51"/>
  <path d="M26 6H6v20h20z"/>
  <path fill="#fff" fill-rule="evenodd" d="M8.505 8.495h3.22c.525 0 .99.1 1.39.29q.601.291.925.815.324.525.325 1.215c0 .46-.11.875-.33 1.23q-.331.539-.94.83-.164.075-.35.135l1.78 2.99h-1.68l-1.615-2.835H9.97V16H8.505zm3.77 3.315a.97.97 0 0 0 .425-.39q.15-.254.15-.59c0-.225-.05-.43-.15-.595a1 1 0 0 0-.425-.385q-.277-.135-.645-.135H9.97v2.235h1.66q.367.001.645-.14"/>
  <path fill="#fff" d="M16.5 22h-8v1.5h8z"/>
  <path fill="#fff" fill-rule="evenodd" d="M21.405 14.085v-.95H20.3l.38-1.77h1.26V10.4h-1.055l.41-1.905h-1.07l-.405 1.91h-1.6l.41-1.91h-1.065l-.41 1.915h-1.31v.965h1.1l-.375 1.765h-1.265v.955h1.06L15.955 16h1.065l.41-1.905h1.6L18.62 16h1.065l.41-1.91h1.31zm-3.77-.945h1.6l.375-1.77h-1.595z"/>
  <defs>
    <linearGradient id="a" x1="2.16" x2="31.46" y1="29.964" y2=".669" gradientUnits="userSpaceOnUse">
      <stop offset=".29" stop-color="#FF45ED"/>
      <stop offset=".7" stop-color="#FF0A67"/>
    </linearGradient>
    <linearGradient id="b" x1="-.194" x2="12.196" y1="3.835" y2="30.565" gradientUnits="userSpaceOnUse">
      <stop offset=".3" stop-color="#FDB60D"/>
      <stop offset=".54" stop-color="#FF45ED"/>
    </linearGradient>
  </defs>
</svg>
