<svg width="64" height="64" viewBox="0 0 64 64" fill="none" xmlns="http://www.w3.org/2000/svg">
<g clip-path="url(#clip0_23413_318156)">
<g clip-path="url(#clip1_23413_318156)">
<path d="M57.1016 1.75C59.9436 1.75 62.25 4.05636 62.25 6.89844V34.6221C62.2499 37.841 60.9701 40.9243 58.7012 43.1934L43.1934 58.7012C40.9157 60.9691 37.8418 62.2499 34.6221 62.25H6.89844C4.05636 62.25 1.75 59.9436 1.75 57.1016V29.3779L1.76465 28.7764C1.91358 25.7769 3.17166 22.934 5.29883 20.8066L20.8066 5.29883L21.2432 4.88477C23.4694 2.87533 26.3594 1.75009 29.3779 1.75H57.1016Z" fill="black" stroke="white"/>
<path d="M46.875 17.125H9.6875V54.3125H46.875V17.125Z" stroke="white" stroke-width="2"/>
<path d="M30.6445 45.441H14.8398V49.1598H30.6445V45.441Z" fill="white"/>
<path d="M57.1016 1.25C60.2198 1.25 62.75 3.78022 62.75 6.89844V34.6221C62.7499 37.9737 61.4173 41.1841 59.0547 43.5469L43.5459 59.0557C41.1753 61.4162 37.9751 62.7499 34.6221 62.75H6.89844C3.78022 62.75 1.25 60.2198 1.25 57.1016V29.3779L1.25391 29.0645C1.33431 25.8267 2.65643 22.7422 4.94531 20.4531L20.4541 4.94434C22.8247 2.58381 26.0249 1.25009 29.3779 1.25H57.1016Z" stroke="url(#paint0_linear_23413_318156)" stroke-width="2"/>
<path d="M57.1016 1.25C60.2198 1.25 62.75 3.78022 62.75 6.89844V34.6221C62.7499 37.9737 61.4173 41.1841 59.0547 43.5469L43.5459 59.0557C41.1753 61.4162 37.9751 62.7499 34.6221 62.75H6.89844C3.78022 62.75 1.25 60.2198 1.25 57.1016V29.3779L1.25391 29.0645C1.33431 25.8267 2.65643 22.7422 4.94531 20.4531L20.4541 4.94434C22.8247 2.58381 26.0249 1.25009 29.3779 1.25H57.1016Z" stroke="url(#paint1_linear_23413_318156)" stroke-width="2"/>
</g>
</g>
<defs>
<linearGradient id="paint0_linear_23413_318156" x1="3.04023" y1="60.56" x2="60.467" y2="3.93273" gradientUnits="userSpaceOnUse">
<stop stop-color="#FF9419"/>
<stop offset="0.43" stop-color="#FF021D"/>
<stop offset="0.99" stop-color="#E600FF"/>
</linearGradient>
<linearGradient id="paint1_linear_23413_318156" x1="32" y1="14.2256" x2="48.5138" y2="59.8591" gradientUnits="userSpaceOnUse">
<stop stop-color="white" stop-opacity="0"/>
<stop offset="1" stop-color="white"/>
</linearGradient>
<clipPath id="clip0_23413_318156">
<rect width="64" height="64" fill="white"/>
</clipPath>
<clipPath id="clip1_23413_318156">
<rect width="64" height="64" fill="white"/>
</clipPath>
</defs>
</svg>
