<svg width="256" height="256" viewBox="0 0 256 256" fill="none" xmlns="http://www.w3.org/2000/svg">
<g clip-path="url(#clip0_6242_46924)">
<path d="M23.2725 192.21L23.2794 239.711C23.2794 248.709 30.5731 256 39.5703 256H85.5968C90.3514 256 94.871 253.922 97.9663 250.312L228.806 97.6664C231.335 94.7131 232.727 90.9522 232.727 87.0634V39.5614C232.727 30.5642 225.433 23.2705 216.436 23.2705L170.403 23.2705C165.648 23.2705 161.128 25.3488 158.033 28.9584L27.1939 181.604C24.6618 184.557 23.2725 188.318 23.2725 192.21Z" fill="#F0EB18"/>
<path d="M23.2725 197.923L23.2725 239.709C23.2725 248.706 30.5661 256 39.5634 256H91.934C92.7043 256 93.4746 255.944 94.238 255.837L242.013 234.729C250.04 233.581 256 226.709 256 218.601V155.909C256 146.909 248.704 139.615 239.704 139.618L165.55 139.636C163.8 139.636 162.062 139.918 160.402 140.472L34.4108 182.47C27.7594 184.688 23.2725 190.913 23.2725 197.925V197.923Z" fill="url(#paint0_linear_6242_46924)"/>
<path d="M0 16.2909L0 152.164C0 158.68 3.88422 164.571 9.87229 167.138L159.835 231.41C161.862 232.278 164.047 232.727 166.253 232.727H239.709C248.706 232.727 256 225.434 256 216.436V144.572C256 141.354 255.046 138.207 253.258 135.529L167.645 7.25411C164.624 2.72524 159.541 0.00698182 154.096 0.00698182L16.2909 0C7.29367 0 0 7.29367 0 16.2909Z" fill="url(#paint1_linear_6242_46924)"/>
<path d="M209 47L47 47L47 209L209 209L209 47Z" fill="black"/>
<path d="M75.8975 68.988L85.7458 113.519L96.2476 68.988H108.274L119.254 113.519L128.797 68.988H140.867L126.051 129.989H112.501L102.219 85.6757L91.8055 129.989H78.2972L63.5703 68.988H75.9022H75.8975ZM166.563 131.037C162.146 131.037 158.225 130.237 154.798 128.64C151.399 127.043 148.726 124.805 146.78 121.929C144.863 119.053 143.876 115.741 143.818 111.994H155.757C155.757 113.764 156.222 115.323 157.151 116.656C158.08 117.991 159.373 119.037 161.028 119.793C162.683 120.549 164.585 120.925 166.735 120.925C168.885 120.925 170.598 120.594 172.139 119.924C173.708 119.226 174.912 118.269 175.755 117.048C176.626 115.827 177.062 114.434 177.062 112.865C177.062 110.921 176.467 109.308 175.276 108.029C174.114 106.749 172.503 105.867 170.44 105.37L159.676 102.973C156.773 102.335 154.245 101.245 152.095 99.7046C149.945 98.1359 148.276 96.2032 147.083 93.9086C145.893 91.6163 145.297 89.0276 145.297 86.1518C145.297 82.6668 146.198 79.5459 147.998 76.7845C149.8 73.995 152.312 71.8335 155.535 70.2929C158.759 68.7243 162.419 67.9399 166.516 67.9399C170.612 67.9399 174.373 68.6962 177.627 70.2065C180.881 71.7144 183.407 73.8223 185.209 76.5253C187.039 79.2004 187.968 82.277 187.998 85.762L176.103 85.762C176.103 84.2798 175.711 82.9562 174.926 81.7961C174.142 80.6033 173.024 79.6883 171.572 79.051C170.148 78.3811 168.507 78.0496 166.649 78.0496C164.791 78.0496 163.148 78.3718 161.726 79.009C160.332 79.6182 159.242 80.4913 158.458 81.6234C157.674 82.7298 157.282 84.0207 157.282 85.5006C157.282 87.1836 157.818 88.5771 158.894 89.6836C159.999 90.79 161.495 91.5743 163.383 92.0365L173.754 94.3031C176.747 94.9123 179.403 96.0724 181.728 97.7881C184.081 99.4711 185.911 101.563 187.218 104.063C188.526 106.53 189.179 109.231 189.179 112.167C189.179 115.767 188.22 119.009 186.303 121.885C184.415 124.732 181.756 126.966 178.33 128.596C174.903 130.225 170.981 131.035 166.565 131.035L166.563 131.037Z" fill="white"/>
<path d="M133 177H68V188H133V177Z" fill="white"/>
</g>
<defs>
<linearGradient id="paint0_linear_6242_46924" x1="30.4847" y1="258.869" x2="244.989" y2="159.418" gradientUnits="userSpaceOnUse">
<stop offset="0.22" stop-color="#F0EB18"/>
<stop offset="0.59" stop-color="#00C4F4"/>
</linearGradient>
<linearGradient id="paint1_linear_6242_46924" x1="240.074" y1="239.111" x2="5.25266" y2="4.29148" gradientUnits="userSpaceOnUse">
<stop offset="0.19" stop-color="#00C4F4"/>
<stop offset="0.83" stop-color="#007DFE"/>
</linearGradient>
<clipPath id="clip0_6242_46924">
<rect width="256" height="256" fill="white"/>
</clipPath>
</defs>
</svg>
