<svg width="24" height="24" viewBox="0 0 24 24" fill="none" xmlns="http://www.w3.org/2000/svg">
<g clip-path="url(#clip0_4372_13108)">
<path d="M2.18164 18.0197L2.1823 22.473C2.1823 23.3165 2.86608 24 3.70957 24H8.02455C8.47029 24 8.894 23.8052 9.18418 23.4668L21.4504 9.15626C21.6875 8.87938 21.818 8.5268 21.818 8.16222V3.70891C21.818 2.86542 21.1342 2.18164 20.2907 2.18164H15.9751C15.5293 2.18164 15.1056 2.37648 14.8155 2.71488L2.54928 17.0254C2.3119 17.3023 2.18164 17.6549 2.18164 18.0197Z" fill="#F0EB18"/>
<path d="M2.18164 18.5555V22.4729C2.18164 23.3164 2.86542 24.0002 3.70891 24.0002H8.61866C8.69088 24.0002 8.76309 23.995 8.83466 23.9849L22.6885 22.006C23.4411 21.8984 23.9998 21.2542 23.9998 20.494V14.6166C23.9998 13.7729 23.3158 13.0891 22.4721 13.0894L15.5202 13.0911C15.3561 13.0911 15.1931 13.1175 15.0376 13.1694L3.22586 17.1067C2.6023 17.3147 2.18164 17.8983 2.18164 18.5557V18.5555Z" fill="url(#paint0_linear_4372_13108)"/>
<path d="M0 1.52727V14.2654C0 14.8763 0.364145 15.4285 0.925527 15.6692L14.9845 21.6947C15.1745 21.7761 15.3794 21.8182 15.5863 21.8182H22.4727C23.3162 21.8182 24 21.1344 24 20.2909V13.5537C24 13.2519 23.9105 12.9569 23.743 12.7058L15.7167 0.680073C15.4335 0.255491 14.957 0.000654545 14.4465 0.000654545L1.52727 0C0.683782 0 0 0.683782 0 1.52727Z" fill="url(#paint1_linear_4372_13108)"/>
<path d="M20 4H4V20H20V4Z" fill="black"/>
<path d="M6.8438 6.13339L7.80815 10.4938L8.83649 6.13339H10.0141L11.0893 10.4938L12.0237 6.13339H13.2056L11.7549 12.1066H10.428L9.42118 7.76745L8.40152 12.1066H7.07878L5.63672 6.13339H6.84426H6.8438ZM15.7217 12.2093C15.2893 12.2093 14.9053 12.1309 14.5697 11.9745C14.2369 11.8182 13.9752 11.599 13.7846 11.3174C13.5969 11.0358 13.5003 10.7114 13.4945 10.3446H14.6637C14.6637 10.5178 14.7092 10.6705 14.8001 10.801C14.8911 10.9318 15.0177 11.0342 15.1798 11.1082C15.3419 11.1823 15.5281 11.2191 15.7387 11.2191C15.9492 11.2191 16.1169 11.1866 16.2678 11.121C16.4214 11.0527 16.5393 10.959 16.6219 10.8394C16.7071 10.7199 16.7499 10.5834 16.7499 10.4298C16.7499 10.2394 16.6916 10.0815 16.575 9.95625C16.4612 9.83099 16.3035 9.74459 16.1014 9.6959L15.0475 9.46116C14.7631 9.39876 14.5156 9.29202 14.3051 9.14116C14.0945 8.98756 13.9311 8.7983 13.8143 8.57362C13.6977 8.34916 13.6395 8.09568 13.6395 7.81408C13.6395 7.47282 13.7277 7.16722 13.9039 6.89682C14.0804 6.62368 14.3263 6.41202 14.642 6.26116C14.9576 6.10756 15.316 6.03076 15.7172 6.03076C16.1183 6.03076 16.4865 6.10482 16.8052 6.2527C17.1238 6.40036 17.3711 6.60676 17.5476 6.87145C17.7268 7.13339 17.8177 7.43465 17.8207 7.7759H16.6559C16.6559 7.63076 16.6175 7.50116 16.5407 7.38756C16.4639 7.27076 16.3544 7.18116 16.2123 7.11876C16.0728 7.05316 15.9121 7.0207 15.7302 7.0207C15.5483 7.0207 15.3873 7.05225 15.2481 7.11465C15.1117 7.1743 15.0049 7.25979 14.9281 7.37065C14.8513 7.47899 14.8129 7.60539 14.8129 7.7503C14.8129 7.9151 14.8655 8.05156 14.9709 8.1599C15.079 8.26825 15.2255 8.34505 15.4104 8.3903L16.426 8.61225C16.719 8.6719 16.9791 8.7855 17.2068 8.9535C17.4372 9.1183 17.6164 9.3231 17.7444 9.5679C17.8724 9.8095 17.9364 10.074 17.9364 10.3615C17.9364 10.714 17.8424 11.0314 17.6548 11.313C17.4699 11.5919 17.2095 11.8106 16.874 11.9702C16.5384 12.1297 16.1544 12.209 15.722 12.209L15.7217 12.2093Z" fill="white"/>
<path d="M12 17H6V18H12V17Z" fill="white"/>
</g>
<defs>
<linearGradient id="paint0_linear_4372_13108" x1="2.85779" y1="24.2692" x2="22.9676" y2="14.9456" gradientUnits="userSpaceOnUse">
<stop offset="0.22" stop-color="#F0EB18"/>
<stop offset="0.59" stop-color="#00C4F4"/>
</linearGradient>
<linearGradient id="paint1_linear_4372_13108" x1="22.507" y1="22.4166" x2="0.492437" y2="0.402326" gradientUnits="userSpaceOnUse">
<stop offset="0.19" stop-color="#00C4F4"/>
<stop offset="0.83" stop-color="#007DFE"/>
</linearGradient>
<clipPath id="clip0_4372_13108">
<rect width="24" height="24" fill="white"/>
</clipPath>
</defs>
</svg>
