<svg width="128" height="128" viewBox="0 0 128 128" fill="none" xmlns="http://www.w3.org/2000/svg">
<g clip-path="url(#clip0_4372_13112)">
<path d="M11.6367 96.1048L11.6402 119.856C11.6402 124.354 15.287 128 19.7857 128H42.7989C45.1762 128 47.436 126.961 48.9836 125.156L114.403 48.8332C115.668 47.3566 116.364 45.4761 116.364 43.5317V19.7807C116.364 15.2821 112.717 11.6353 108.219 11.6353H85.2018C82.8245 11.6353 80.5647 12.6744 79.0171 14.4792L13.5974 90.8021C12.3314 92.2787 11.6367 94.1592 11.6367 96.1048Z" fill="#F0EB18"/>
<path d="M11.6367 98.9617V119.855C11.6367 124.353 15.2836 128 19.7822 128H45.9675C46.3526 128 46.7378 127.972 47.1195 127.919L121.007 117.365C125.02 116.791 128 113.355 128 109.301V77.9545C128 73.4548 124.352 69.8079 119.853 69.8091L82.7756 69.8184C81.9006 69.8184 81.0313 69.9592 80.2016 70.2361L17.2059 91.2351C13.8802 92.3441 11.6367 95.4568 11.6367 98.9628V98.9617Z" fill="url(#paint0_linear_4372_13112)"/>
<path d="M0 8.14545V76.082C0 79.3402 1.94211 82.2854 4.93614 83.5688L79.9174 115.705C80.9309 116.139 82.0235 116.364 83.1267 116.364H119.855C124.353 116.364 128 112.717 128 108.218V72.2862C128 70.6769 127.523 69.1037 126.629 67.7643L83.8225 3.62705C82.3121 1.36262 79.7707 0.00349091 77.0478 0.00349091L8.14545 0C3.64684 0 0 3.64684 0 8.14545Z" fill="url(#paint1_linear_4372_13112)"/>
<path d="M105 23H23V105H105V23Z" fill="black"/>
<path d="M66 89H34V94H66V89Z" fill="white"/>
<path d="M37.6516 33.9916L42.6559 56.6192L47.9922 33.9916H54.1031L59.6826 56.6192L64.5315 33.9916H70.665L63.1366 64.9885H56.2512L51.0263 42.4711L45.735 64.9885H38.8709L31.3877 33.9916H37.654H37.6516ZM83.7218 65.5211C81.4776 65.5211 79.485 65.1142 77.7437 64.3029C76.0167 63.4916 74.6586 62.3541 73.6694 60.8928C72.6956 59.4315 72.1939 57.7484 72.1642 55.8447H78.2312C78.2312 56.7438 78.4673 57.5361 78.9393 58.2134C79.4114 58.8918 80.0685 59.4232 80.9095 59.8075C81.7505 60.1918 82.7171 60.3828 83.8096 60.3828C84.902 60.3828 85.7726 60.2144 86.5554 59.8739C87.3525 59.5193 87.9646 59.033 88.3927 58.4126C88.8352 57.7923 89.057 57.0842 89.057 56.2871C89.057 55.2991 88.7545 54.4794 88.1496 53.8295C87.5589 53.1795 86.7405 52.7311 85.6919 52.4785L80.2227 51.2603C78.7472 50.9365 77.4626 50.3826 76.3702 49.5997C75.2778 48.8027 74.4297 47.8206 73.8236 46.6546C73.2187 45.4898 72.9162 44.1744 72.9162 42.7131C72.9162 40.9422 73.3741 39.3564 74.2886 37.9532C75.2042 36.5358 76.4805 35.4374 78.1186 34.6546C79.7566 33.8575 81.6164 33.459 83.6981 33.459C85.7797 33.459 87.6906 33.8433 89.344 34.6107C90.9975 35.3769 92.2808 36.448 93.1965 37.8215C94.1265 39.1808 94.5985 40.7441 94.614 42.515H88.5695C88.5695 41.7618 88.3702 41.0893 87.9717 40.4998C87.5731 39.8937 87.005 39.4287 86.2672 39.1049C85.5437 38.7645 84.7098 38.5961 83.7657 38.5961C82.8215 38.5961 81.9865 38.7598 81.2641 39.0836C80.556 39.3932 80.0021 39.8368 79.6036 40.412C79.205 40.9743 79.0058 41.6302 79.0058 42.3822C79.0058 43.2374 79.2786 43.9455 79.8254 44.5077C80.3864 45.0699 81.1467 45.4685 82.1063 45.7033L87.3762 46.8551C88.8968 47.1646 90.2467 47.7541 91.428 48.6259C92.6236 49.4811 93.5536 50.5439 94.2178 51.8142C94.882 53.068 95.2141 54.4403 95.2141 55.9324C95.2141 57.7614 94.7266 59.409 93.7528 60.8703C92.7933 62.3173 91.4423 63.4525 89.701 64.2804C87.9598 65.1083 85.9671 65.5199 83.723 65.5199L83.7218 65.5211Z" fill="white"/>
</g>
<defs>
<linearGradient id="paint0_linear_4372_13112" x1="15.2428" y1="129.435" x2="122.495" y2="79.7093" gradientUnits="userSpaceOnUse">
<stop offset="0.22" stop-color="#F0EB18"/>
<stop offset="0.59" stop-color="#00C4F4"/>
</linearGradient>
<linearGradient id="paint1_linear_4372_13112" x1="120.037" y1="119.555" x2="2.62633" y2="2.14574" gradientUnits="userSpaceOnUse">
<stop offset="0.19" stop-color="#00C4F4"/>
<stop offset="0.83" stop-color="#007DFE"/>
</linearGradient>
<clipPath id="clip0_4372_13112">
<rect width="128" height="128" fill="white"/>
</clipPath>
</defs>
</svg>
