<svg width="48" height="48" viewBox="0 0 48 48" fill="none" xmlns="http://www.w3.org/2000/svg">
<g clip-path="url(#clip0_4372_13110)">
<path d="M4.36328 36.0394L4.36459 44.946C4.36459 46.6329 5.73215 48.0001 7.41913 48.0001H16.0491C16.9406 48.0001 17.788 47.6104 18.3684 46.9336L42.9007 18.3125C43.3751 17.7588 43.636 17.0536 43.636 16.3244V7.41783C43.636 5.73084 42.2684 4.36328 40.5815 4.36328H31.9502C31.0587 4.36328 30.2113 4.75295 29.6309 5.42975L5.09855 34.0508C4.62379 34.6046 4.36328 35.3097 4.36328 36.0394Z" fill="#F0EB18"/>
<path d="M4.36328 37.1104V44.9453C4.36328 46.6323 5.73084 47.9999 7.41783 47.9999H17.2373C17.3818 47.9999 17.5262 47.9894 17.6693 47.9693L45.3771 44.0115C46.8821 43.7964 47.9996 42.5078 47.9996 40.9875V29.2328C47.9996 27.5453 46.6316 26.1778 44.9442 26.1782L31.0404 26.1817C30.7122 26.1817 30.3863 26.2345 30.0751 26.3384L6.45172 34.213C5.20459 34.6288 4.36328 35.7961 4.36328 37.1109V37.1104Z" fill="url(#paint0_linear_4372_13110)"/>
<path d="M0 3.05454V28.5308C0 29.7526 0.728291 30.857 1.85105 31.3383L29.969 43.3894C30.3491 43.5521 30.7588 43.6364 31.1725 43.6364H44.9454C46.6324 43.6364 48 42.2688 48 40.5818V27.1073C48 26.5038 47.8211 25.9139 47.486 25.4116L31.4334 1.36015C30.867 0.510982 29.914 0.00130909 28.8929 0.00130909L3.05454 0C1.36756 0 0 1.36756 0 3.05454Z" fill="url(#paint1_linear_4372_13110)"/>
<path d="M39 9H9V39H39V9Z" fill="black"/>
<path d="M14.29 12.9965L16.0649 21.0219L17.9575 12.9965H20.1249L22.1038 21.0219L23.8236 12.9965H25.999L23.3289 23.9903H20.8868L19.0337 16.004L17.157 23.9903H14.7225L12.0684 12.9965H14.2908H14.29ZM30.6299 24.1792C29.8339 24.1792 29.1272 24.0349 28.5096 23.7471C27.8971 23.4594 27.4154 23.0559 27.0645 22.5377C26.7192 22.0194 26.5412 21.4224 26.5307 20.7472H28.6825C28.6825 21.0661 28.7662 21.3471 28.9337 21.5873C29.1011 21.828 29.3341 22.0164 29.6324 22.1527C29.9307 22.289 30.2735 22.3568 30.661 22.3568C31.0484 22.3568 31.3572 22.297 31.6349 22.1763C31.9176 22.0505 32.1347 21.878 32.2865 21.658C32.4434 21.438 32.5221 21.1868 32.5221 20.9041C32.5221 20.5537 32.4148 20.263 32.2003 20.0325C31.9908 19.8019 31.7005 19.6429 31.3286 19.5533L29.3888 19.1213C28.8655 19.0064 28.4099 18.81 28.0225 18.5323C27.635 18.2496 27.3342 17.9013 27.1192 17.4877C26.9047 17.0746 26.7974 16.6081 26.7974 16.0898C26.7974 15.4617 26.9598 14.8993 27.2841 14.4016C27.6089 13.8989 28.0616 13.5093 28.6425 13.2317C29.2235 12.949 29.8831 12.8076 30.6214 12.8076C31.3598 12.8076 32.0375 12.9439 32.6239 13.2161C33.2103 13.4879 33.6655 13.8677 33.9903 14.3549C34.3201 14.837 34.4876 15.3915 34.493 16.0196H32.3492C32.3492 15.7524 32.2785 15.5139 32.1372 15.3048C31.9958 15.0898 31.7943 14.9249 31.5327 14.8101C31.276 14.6893 30.9803 14.6296 30.6454 14.6296C30.3106 14.6296 30.0144 14.6877 29.7582 14.8025C29.507 14.9123 29.3106 15.0696 29.1692 15.2737C29.0279 15.4731 28.9572 15.7057 28.9572 15.9724C28.9572 16.2758 29.054 16.5269 29.2479 16.7263C29.4469 16.9257 29.7166 17.0671 30.0569 17.1504L31.926 17.5588C32.4653 17.6686 32.9441 17.8777 33.3631 18.1869C33.7871 18.4902 34.1169 18.8672 34.3525 19.3177C34.5881 19.7624 34.7059 20.2491 34.7059 20.7784C34.7059 21.427 34.533 22.0114 34.1876 22.5297C33.8473 23.0429 33.3681 23.4455 32.7505 23.7391C32.133 24.0328 31.4262 24.1788 30.6303 24.1788L30.6299 24.1792Z" fill="white"/>
<path d="M25 33H13V35.0001H25V33Z" fill="white"/>
</g>
<defs>
<linearGradient id="paint0_linear_4372_13110" x1="5.71557" y1="48.5379" x2="45.9352" y2="29.8908" gradientUnits="userSpaceOnUse">
<stop offset="0.22" stop-color="#F0EB18"/>
<stop offset="0.59" stop-color="#00C4F4"/>
</linearGradient>
<linearGradient id="paint1_linear_4372_13110" x1="45.014" y1="44.8333" x2="0.984874" y2="0.804652" gradientUnits="userSpaceOnUse">
<stop offset="0.19" stop-color="#00C4F4"/>
<stop offset="0.83" stop-color="#007DFE"/>
</linearGradient>
<clipPath id="clip0_4372_13110">
<rect width="48" height="48" fill="white"/>
</clipPath>
</defs>
</svg>
