<svg width="16" height="16" viewBox="0 0 16 16" fill="none" xmlns="http://www.w3.org/2000/svg">
<path d="M8 10C8 8.89543 8.89543 8 10 8H13C14.1046 8 15 8.89543 15 10V15H10C8.89543 15 8 14.1046 8 13V10Z" fill="white"/>
<path d="M14.0026 13.9997H13.1502C13.1502 11.7136 11.2928 9.85359 9.00977 9.85359V9C11.7628 9 14.0026 11.2429 14.0026 13.9997Z" fill="#1A1A1A"/>
<path d="M12.5545 13.9999H11.6981C11.6981 12.5112 10.4886 11.3 9.00195 11.3V10.4424C10.9609 10.4424 12.5545 12.0383 12.5545 13.9999Z" fill="#1A1A1A"/>
<path d="M11.1143 14.0005H10.2483C10.2483 13.3124 9.68918 12.7525 9.00195 12.7525V11.8853C10.1667 11.8853 11.1143 12.8342 11.1143 14.0005Z" fill="#1A1A1A"/>
</svg>
