<svg width="64" height="64" viewBox="0 0 64 64" fill="none" xmlns="http://www.w3.org/2000/svg">
<g filter="url(#filter0_d_6180_45600)">
<rect x="36" y="36" width="20" height="20" rx="10" fill="white"/>
<g clip-path="url(#clip0_6180_45600)">
<path d="M52 51.5H50.122C50.122 46.4701 46.0299 42.378 41 42.378V40.5C47.0654 40.5 52 45.4346 52 51.5Z" fill="black"/>
<path d="M48.7904 51.4998H46.9124C46.9124 48.2398 44.2601 45.5875 41 45.5875V43.7095C45.2956 43.7095 48.7904 47.2042 48.7904 51.4998Z" fill="black"/>
<path d="M45.5807 51.5001H43.7027C43.7027 50.0099 42.4903 48.7974 41 48.7974V46.9194C43.5258 46.9194 45.5807 48.9743 45.5807 51.5001Z" fill="black"/>
</g>
</g>
<defs>
<filter id="filter0_d_6180_45600" x="32" y="34" width="28" height="28" filterUnits="userSpaceOnUse" color-interpolation-filters="sRGB">
<feFlood flood-opacity="0" result="BackgroundImageFix"/>
<feColorMatrix in="SourceAlpha" type="matrix" values="0 0 0 0 0 0 0 0 0 0 0 0 0 0 0 0 0 0 127 0" result="hardAlpha"/>
<feOffset dy="2"/>
<feGaussianBlur stdDeviation="2"/>
<feColorMatrix type="matrix" values="0 0 0 0 0 0 0 0 0 0 0 0 0 0 0 0 0 0 0.35 0"/>
<feBlend mode="normal" in2="BackgroundImageFix" result="effect1_dropShadow_6180_45600"/>
<feBlend mode="normal" in="SourceGraphic" in2="effect1_dropShadow_6180_45600" result="shape"/>
</filter>
<clipPath id="clip0_6180_45600">
<rect width="11" height="11" fill="white" transform="translate(41 40.5)"/>
</clipPath>
</defs>
</svg>
