<svg width="32" height="32" viewBox="0 0 32 32" fill="none" xmlns="http://www.w3.org/2000/svg">
<g filter="url(#filter0_d_6180_45599)">
<rect x="17" y="17" width="11" height="11" rx="5.30612" fill="white"/>
<g clip-path="url(#clip0_6180_45599)">
<path d="M26 26H24.8049C24.8049 22.7992 22.2008 20.1951 19 20.1951V19C22.8598 19 26 22.1402 26 26Z" fill="black"/>
<path d="M23.9575 25.9995H22.7624C22.7624 23.9249 21.0746 22.2371 19 22.2371V21.042C21.7336 21.042 23.9575 23.2659 23.9575 25.9995Z" fill="black"/>
<path d="M21.915 26.0005H20.7199C20.7199 25.0521 19.9484 24.2805 19 24.2805V23.0854C20.6073 23.0854 21.915 24.3931 21.915 26.0005Z" fill="black"/>
</g>
</g>
<defs>
<filter id="filter0_d_6180_45599" x="15" y="16" width="15" height="15" filterUnits="userSpaceOnUse" color-interpolation-filters="sRGB">
<feFlood flood-opacity="0" result="BackgroundImageFix"/>
<feColorMatrix in="SourceAlpha" type="matrix" values="0 0 0 0 0 0 0 0 0 0 0 0 0 0 0 0 0 0 127 0" result="hardAlpha"/>
<feOffset dy="1"/>
<feGaussianBlur stdDeviation="1"/>
<feColorMatrix type="matrix" values="0 0 0 0 0 0 0 0 0 0 0 0 0 0 0 0 0 0 0.35 0"/>
<feBlend mode="normal" in2="BackgroundImageFix" result="effect1_dropShadow_6180_45599"/>
<feBlend mode="normal" in="SourceGraphic" in2="effect1_dropShadow_6180_45599" result="shape"/>
</filter>
<clipPath id="clip0_6180_45599">
<rect width="7" height="7" fill="white" transform="translate(19 19)"/>
</clipPath>
</defs>
</svg>
