<svg width="128" height="128" viewBox="0 0 128 128" fill="none" xmlns="http://www.w3.org/2000/svg">
<g filter="url(#filter0_d_6180_45601)">
<rect x="72" y="72" width="40" height="40" rx="20" fill="white"/>
<g clip-path="url(#clip0_6180_45601)">
<path d="M104 103H100.244C100.244 92.9403 92.0598 84.756 82 84.756V81C94.1308 81 104 90.8692 104 103Z" fill="black"/>
<path d="M97.5807 103H93.8247C93.8247 96.4798 88.5202 91.1752 82 91.1752V87.4192C90.5912 87.4192 97.5807 94.4087 97.5807 103Z" fill="black"/>
<path d="M91.1614 103H87.4054C87.4054 100.019 84.9806 97.5946 82 97.5946V93.8386C87.0516 93.8386 91.1614 97.9484 91.1614 103Z" fill="black"/>
</g>
</g>
<defs>
<filter id="filter0_d_6180_45601" x="64" y="68" width="56" height="56" filterUnits="userSpaceOnUse" color-interpolation-filters="sRGB">
<feFlood flood-opacity="0" result="BackgroundImageFix"/>
<feColorMatrix in="SourceAlpha" type="matrix" values="0 0 0 0 0 0 0 0 0 0 0 0 0 0 0 0 0 0 127 0" result="hardAlpha"/>
<feOffset dy="4"/>
<feGaussianBlur stdDeviation="4"/>
<feColorMatrix type="matrix" values="0 0 0 0 0 0 0 0 0 0 0 0 0 0 0 0 0 0 0.35 0"/>
<feBlend mode="normal" in2="BackgroundImageFix" result="effect1_dropShadow_6180_45601"/>
<feBlend mode="normal" in="SourceGraphic" in2="effect1_dropShadow_6180_45601" result="shape"/>
</filter>
<clipPath id="clip0_6180_45601">
<rect width="22" height="22" fill="white" transform="translate(82 81)"/>
</clipPath>
</defs>
</svg>
