<svg width="1024" height="1024" viewBox="0 0 1024 1024" fill="none" xmlns="http://www.w3.org/2000/svg">
<g filter="url(#filter0_d_6180_45604)">
<rect x="572" y="572" width="320" height="320" rx="160" fill="white"/>
<g clip-path="url(#clip0_6180_45604)">
<path d="M828 820H797.952C797.952 739.522 732.478 674.048 652 674.048V644C749.047 644 828 722.953 828 820Z" fill="black"/>
<path d="M776.646 819.999H746.598C746.598 767.838 704.161 725.402 652 725.402V695.354C720.73 695.354 776.646 751.269 776.646 819.999Z" fill="black"/>
<path d="M725.291 820H695.243C695.243 796.156 675.845 776.757 652 776.757V746.709C692.413 746.709 725.291 779.587 725.291 820Z" fill="black"/>
</g>
</g>
<defs>
<filter id="filter0_d_6180_45604" x="540" y="556" width="384" height="384" filterUnits="userSpaceOnUse" color-interpolation-filters="sRGB">
<feFlood flood-opacity="0" result="BackgroundImageFix"/>
<feColorMatrix in="SourceAlpha" type="matrix" values="0 0 0 0 0 0 0 0 0 0 0 0 0 0 0 0 0 0 127 0" result="hardAlpha"/>
<feOffset dy="16"/>
<feGaussianBlur stdDeviation="16"/>
<feColorMatrix type="matrix" values="0 0 0 0 0 0 0 0 0 0 0 0 0 0 0 0 0 0 0.35 0"/>
<feBlend mode="normal" in2="BackgroundImageFix" result="effect1_dropShadow_6180_45604"/>
<feBlend mode="normal" in="SourceGraphic" in2="effect1_dropShadow_6180_45604" result="shape"/>
</filter>
<clipPath id="clip0_6180_45604">
<rect width="176" height="176" fill="white" transform="translate(652 644)"/>
</clipPath>
</defs>
</svg>
