<!-- Copyright © 2000–2024 JetBrains s.r.o. -->
<svg width="256" height="256" viewBox="0 0 256 256" xmlns="http://www.w3.org/2000/svg">
  <path fill="#6B57FF" d="M232 65.8V16.76c0-9.2-7.56-16.64-16.76-16.48l-44.16.68c-4.76.08-9.2 2.2-12.28 5.76L27.96 159.36c-2.56 3-3.96 6.8-3.96 10.76v45.36C24 224.6 31.4 232 40.48 232h44.04c4.76 0 9.28-2.04 12.4-5.64l131-149.68A16.55 16.55 0 0 0 232 65.8"/>
  <path fill="url(#a)" d="M232 59.96V16.48C232 7.4 224.6 0 215.52 0h-50.28c-.8 0-1.6 0-2.4.16L14.12 21.96C6 23.16 0 30.12 0 38.28v61.6C0 109 7.4 116.4 16.52 116.4h74c1.72-.04 3.4-.32 5-.8l125-39.92c6.84-2.2 11.48-8.56 11.48-15.72"/>
  <path fill="url(#b)" d="M256 239.48V103c0-6.64-3.96-12.64-10.08-15.2L96.24 24.6c-2.08-.88-4.32-1.32-6.56-1.28l-73.32.6C7.32 23.92 0 31.32 0 40.4v70.68c0 3.2.96 6.36 2.72 9.04l84.44 128.44c3.04 4.64 8.2 7.44 13.76 7.44h138.6c9.08 0 16.48-7.4 16.48-16.52"/>
  <path d="M208 232V72l-48-48H48v208z"/>
  <path fill="#fff" d="m128 84.32 32 6.4v45.6c-1.64 13.72-17 25.4-32 33.68-15-8.24-30.36-19.92-32-33.68v-45.6zM128 68l-48 9.6v59.52q2.52 28.56 48 50.88 45.42-22.32 48-50.88V77.6z"/>
  <defs>
    <linearGradient id="a" x1="225.32" x2="11.48" y1="-1.56" y2="97.56" gradientUnits="userSpaceOnUse">
      <stop offset=".18" stop-color="#6B57FF"/>
      <stop offset=".54" stop-color="#FF45ED"/>
    </linearGradient>
    <linearGradient id="b" x1="16.28" x2="250.64" y1="17.28" y2="251.68" gradientUnits="userSpaceOnUse">
      <stop offset=".12" stop-color="#FF45ED"/>
      <stop offset=".92" stop-color="#FC801D"/>
    </linearGradient>
  </defs>
</svg>
