<!-- Copyright © 2000–2024 JetBrains s.r.o. -->
<svg width="512" height="512" viewBox="0 0 512 512" xmlns="http://www.w3.org/2000/svg">
  <path fill="#6B57FF" d="M464 131.6V33.52C464 15.12 448.88.24 430.48.56l-88.32 1.36c-9.52.16-18.4 4.4-24.56 11.52L55.92 318.72c-5.12 6-7.92 13.6-7.92 21.52v90.72C48 449.2 62.8 464 80.96 464h88.08c9.52 0 18.56-4.08 24.8-11.28l262-299.36c5.28-6.08 8.16-13.76 8.16-21.76"/>
  <path fill="url(#a)" d="M464 119.92V32.96C464 14.8 449.2 0 431.04 0H330.48c-1.6 0-3.2 0-4.8.32L28.24 43.92C12 46.32 0 60.24 0 76.56v123.2C0 218 14.8 232.8 33.04 232.8h148c3.44-.08 6.8-.64 10-1.6l250-79.84c13.68-4.4 22.96-17.12 22.96-31.44"/>
  <path fill="url(#b)" d="M512 478.96V206c0-13.28-7.92-25.28-20.16-30.4L192.48 49.2a32.25 32.25 0 0 0-13.12-2.56l-146.64 1.2C14.64 47.84 0 62.64 0 80.8v141.36c0 6.4 1.92 12.72 5.44 18.08l168.88 256.88A32.88 32.88 0 0 0 201.84 512h277.2c18.16 0 32.96-14.8 32.96-33.04"/>
  <path d="M416 464V144l-96-96H96v416z"/>
  <path fill="#fff" d="m256 168.64 64 12.8v91.2c-3.28 27.44-34 50.8-64 67.36-30-16.48-60.72-39.84-64-67.36v-91.2zm0-32.64-96 19.2v119.04q5.04 57.12 96 101.76 90.84-44.64 96-101.76V155.2z"/>
  <defs>
    <linearGradient id="a" x1="450.64" x2="22.96" y1="-3.12" y2="195.12" gradientUnits="userSpaceOnUse">
      <stop offset=".18" stop-color="#6B57FF"/>
      <stop offset=".54" stop-color="#FF45ED"/>
    </linearGradient>
    <linearGradient id="b" x1="32.56" x2="501.28" y1="34.56" y2="503.36" gradientUnits="userSpaceOnUse">
      <stop offset=".12" stop-color="#FF45ED"/>
      <stop offset=".92" stop-color="#FC801D"/>
    </linearGradient>
  </defs>
</svg>
